<svg width="46" height="60" viewBox="0 0 46 60" fill="none" xmlns="http://www.w3.org/2000/svg">
<g clip-path="url(#clip0_3641_20294)">
<mask id="mask0_3641_20294" style="mask-type:luminance" maskUnits="userSpaceOnUse" x="0" y="0" width="46" height="60">
<path d="M45.8242 0H0.824219V59.9H45.8242V0Z" fill="white"/>
</mask>
<g mask="url(#mask0_3641_20294)">
<path d="M35.0243 45C35.9243 45 36.7243 45.8 36.7243 46.7C36.7243 47.6 36.0243 48.4 35.0243 48.4C34.1243 48.4 33.4243 47.6 33.4243 46.7C33.4243 45.8 34.1243 45 35.0243 45ZM35.0243 48C35.7243 48 36.3243 47.4 36.3243 46.7C36.3243 45.9 35.7243 45.4 35.0243 45.4C34.3243 45.4 33.7243 46 33.7243 46.7C33.7243 47.5 34.3243 48 35.0243 48ZM34.8243 47.6H34.5243V45.8H35.1243C35.5243 45.8 35.7243 46 35.7243 46.4C35.7243 46.7 35.5243 46.9 35.3243 46.9L35.7243 47.6H35.3243L34.9243 46.9H34.8243V47.6ZM35.0243 46.6C35.2243 46.6 35.3243 46.5 35.3243 46.3C35.3243 46.1 35.2243 46 35.0243 46H34.8243V46.5H35.0243V46.6Z" fill="#18171A"/>
</g>
<mask id="mask1_3641_20294" style="mask-type:luminance" maskUnits="userSpaceOnUse" x="0" y="0" width="46" height="60">
<path d="M45.8242 0H0.824219V59.9H45.8242V0Z" fill="white"/>
</mask>
<g mask="url(#mask1_3641_20294)">
<path d="M43.0241 32.3C42.1241 32.3 41.5241 32.7001 40.9241 33.2001L40.5241 33.8L40.4241 33.7001L40.9241 32.9001V32.4001H37.7241V43H40.6241V36.3C40.6241 35.2 41.3241 34.9 41.8241 34.8C42.3241 34.7 42.9241 35 42.9241 35.6V43H45.8241V35.7001C45.8241 33.4001 44.8241 32.3 43.0241 32.3Z" fill="#18171A"/>
</g>
<mask id="mask2_3641_20294" style="mask-type:luminance" maskUnits="userSpaceOnUse" x="0" y="0" width="46" height="60">
<path d="M45.8242 0H0.824219V59.9H45.8242V0Z" fill="white"/>
</mask>
<g mask="url(#mask2_3641_20294)">
<path d="M10.7242 40.6H13.7242V42.9001H7.82422V32.3H10.7242V40.6Z" fill="#18171A"/>
</g>
<mask id="mask3_3641_20294" style="mask-type:luminance" maskUnits="userSpaceOnUse" x="0" y="0" width="46" height="60">
<path d="M45.8242 0H0.824219V59.9H45.8242V0Z" fill="white"/>
</mask>
<g mask="url(#mask3_3641_20294)">
<path d="M0.824219 42.9001H6.72422V40.8H3.72422V38.5H6.72422V36.5H3.72422V34.5H6.72422V32.3H0.824219V42.9001Z" fill="#18171A"/>
</g>
<mask id="mask4_3641_20294" style="mask-type:luminance" maskUnits="userSpaceOnUse" x="0" y="0" width="46" height="60">
<path d="M45.8242 0H0.824219V59.9H45.8242V0Z" fill="white"/>
</mask>
<g mask="url(#mask4_3641_20294)">
<path d="M14.7241 42.9001H20.7241V40.8H17.6241V38.5H20.7241V36.5H17.6241V34.5H20.7241V32.3H14.7241V42.9001Z" fill="#18171A"/>
</g>
<mask id="mask5_3641_20294" style="mask-type:luminance" maskUnits="userSpaceOnUse" x="0" y="0" width="46" height="60">
<path d="M45.8242 0H0.824219V59.9H45.8242V0Z" fill="white"/>
</mask>
<g mask="url(#mask5_3641_20294)">
<path d="M30.7241 42.9001H36.7241V40.8H33.6241V38.5H36.7241V36.5H33.6241V34.5H36.7241V32.3H30.7241V42.9001Z" fill="#18171A"/>
</g>
<mask id="mask6_3641_20294" style="mask-type:luminance" maskUnits="userSpaceOnUse" x="0" y="0" width="46" height="60">
<path d="M45.8242 0H0.824219V59.9H45.8242V0Z" fill="white"/>
</mask>
<g mask="url(#mask6_3641_20294)">
<path d="M26.9242 32.3L25.8242 39L25.7242 40.2001V40.3H25.6242V40.2001L25.5242 39L24.4242 32.3H21.5242L23.9242 42.9001H27.5242L29.9242 32.3H26.9242Z" fill="#18171A"/>
</g>
<mask id="mask7_3641_20294" style="mask-type:luminance" maskUnits="userSpaceOnUse" x="0" y="0" width="46" height="60">
<path d="M45.8242 0H0.824219V59.9H45.8242V0Z" fill="white"/>
</mask>
<g mask="url(#mask7_3641_20294)">
<path d="M38.5242 0H0.824219V15H20.7242C25.2242 8.5 31.3242 3.3 38.5242 0Z" fill="#18171A"/>
</g>
<mask id="mask8_3641_20294" style="mask-type:luminance" maskUnits="userSpaceOnUse" x="0" y="0" width="46" height="60">
<path d="M45.8242 0H0.824219V59.9H45.8242V0Z" fill="white"/>
</mask>
<g mask="url(#mask8_3641_20294)">
<path d="M15.8242 59.9H30.8242V44.9H15.8242V59.9Z" fill="#18171A"/>
</g>
<mask id="mask9_3641_20294" style="mask-type:luminance" maskUnits="userSpaceOnUse" x="0" y="0" width="46" height="60">
<path d="M45.8242 0H0.824219V59.9H45.8242V0Z" fill="white"/>
</mask>
<g mask="url(#mask9_3641_20294)">
<path d="M45.8243 15V0C31.5243 3.9 20.3243 15.4 16.9243 30H32.2243C34.5243 23.3 39.5243 17.9 45.8243 15Z" fill="#18171A"/>
</g>
</g>
<defs>
<clipPath id="clip0_3641_20294">
<rect width="45" height="60" fill="white" transform="translate(0.824219)"/>
</clipPath>
</defs>
</svg>
