<svg width="101" height="60" viewBox="0 0 101 60" fill="none" xmlns="http://www.w3.org/2000/svg">
<mask id="mask0_3641_20338" style="mask-type:luminance" maskUnits="userSpaceOnUse" x="0" y="0" width="101" height="60">
<path d="M100.162 0H0.824219V59.9999H100.162V0Z" fill="white"/>
</mask>
<g mask="url(#mask0_3641_20338)">
<mask id="mask1_3641_20338" style="mask-type:luminance" maskUnits="userSpaceOnUse" x="4" y="0" width="93" height="57">
<path d="M96.9298 0.728027H4.1543V56.8989H96.9298V0.728027Z" fill="white"/>
</mask>
<g mask="url(#mask1_3641_20338)">
<path fill-rule="evenodd" clip-rule="evenodd" d="M40.9138 32.1336L45.0132 31.7954L42.9447 26.308L40.9138 32.1336ZM26.613 30.8167L29.1025 30.6115C29.77 30.5563 30.3317 30.4523 30.7872 30.2992C31.2426 30.1463 31.5905 29.9214 31.8307 29.624C32.0709 29.3269 32.1911 28.9349 32.1911 28.4486C32.1911 28.0685 32.0942 27.7411 31.9009 27.4671C31.7074 27.1932 31.4391 26.9989 31.0961 26.8837C30.7716 26.7734 30.1321 26.7575 29.1774 26.8363L26.613 27.0478V30.8167ZM31.5715 7.93799L34.0008 7.71803C34.4609 7.6763 34.7704 7.35004 34.7704 6.90624V5.79312C34.7704 5.43586 34.5321 5.09698 34.0008 5.14516L31.5715 5.36492C31.0403 5.41311 30.8026 5.79501 30.8026 6.15227V7.26539C30.8027 7.70929 31.1115 7.97962 31.5715 7.93799ZM54.1647 22.8718C54.1574 22.8653 54.1528 22.8613 54.1494 22.8583C54.1557 22.8639 54.1647 22.8718 54.1647 22.8718ZM33.5254 9.83895L32.0477 9.97278C31.5164 10.0208 31.2782 10.4041 31.2782 10.7617V21.955C31.2782 22.3984 31.5876 22.6691 32.0477 22.6274L33.5254 22.4937C33.9849 22.452 34.2943 22.1255 34.2943 21.6819V10.4887C34.2944 10.1312 34.0566 9.79087 33.5254 9.83895ZM72.6483 21.2303C72.6534 21.2305 72.6702 21.231 72.685 21.2315C72.6616 21.2307 72.6516 21.2304 72.6483 21.2303ZM54.1991 22.901C54.3334 23.0273 54.4705 23.1936 54.611 23.4001C54.7513 23.6069 54.8966 23.8225 55.0463 24.0469L60.3903 31.6861V23.5313C60.3903 23.0014 60.5042 22.5945 60.7319 22.3106C60.738 22.3032 60.7446 22.2968 60.7508 22.2895L54.1647 22.8718C54.1762 22.8817 54.1882 22.8907 54.1991 22.901ZM76.9643 17.4575C77.8166 18.1118 78.8653 18.3893 80.0815 18.2792C81.7663 18.1267 83.0425 17.8476 83.9905 17.4269C84.3184 17.2776 84.5071 17.0021 84.5071 16.6702V15.7131C84.5081 15.0873 83.9862 14.9409 83.6167 15.0669C82.7231 15.3626 81.5676 15.5716 80.0815 15.706C79.6754 15.7427 79.3275 15.6323 79.047 15.374C78.7655 15.1144 78.6223 14.7873 78.6223 14.3976V9.76812C78.6223 9.38026 78.7655 9.02538 79.0466 8.7167C79.3284 8.40802 79.6763 8.23415 80.0815 8.19739C81.5658 8.06307 82.7543 8.06297 83.6111 8.1961C84.0329 8.26366 84.5071 8.01032 84.5071 7.38948V6.43214C84.5071 6.1175 84.3387 5.87946 84.0121 5.76669C83.0704 5.51723 81.7844 5.47033 80.0815 5.62442C78.8664 5.7345 77.8084 6.21019 76.9389 7.03718C76.0837 7.84738 75.6309 8.88668 75.6309 10.0388V14.6685C75.6309 15.8397 76.0792 16.7769 76.9643 17.4575ZM37.7844 22.1081L39.2371 21.9767C39.6972 21.9349 40.0068 21.6084 40.0068 21.1648V13.2425C40.0068 12.8716 40.153 12.5131 40.4318 12.1896C40.7119 11.8825 41.0599 11.7086 41.4664 11.6718L43.4197 11.495C43.811 11.4596 44.1468 11.5746 44.4284 11.8489C44.7113 12.1082 44.8531 12.43 44.8531 12.8039V20.726C44.8531 21.1696 45.1635 21.4401 45.6237 21.3984L47.1009 21.2648C47.174 21.2581 47.2448 21.2351 47.3116 21.1997C47.752 20.9649 47.8448 20.6659 47.8448 20.4553V12.533C47.8448 12.1607 47.9909 11.8021 48.2704 11.4799C48.5506 11.1728 48.8984 10.999 49.3045 10.9622L51.2574 10.7855C51.6524 10.7497 51.9912 10.8645 52.2919 11.1371C52.5746 11.3964 52.7172 11.7181 52.7172 12.0919V20.0142C52.7172 20.4577 53.027 20.7282 53.487 20.6866L54.9387 20.5553C55.3988 20.5135 55.7083 20.187 55.7083 19.7434V11.8212C55.7083 10.6416 55.2577 9.7103 54.3755 9.05707C53.5219 8.39977 52.4721 8.12378 51.2573 8.23376L49.3044 8.4105C48.1531 8.51472 47.1621 8.92861 46.349 9.64264C45.5398 9.07545 44.5562 8.84039 43.4195 8.94321L41.4662 9.12016C40.2622 9.22904 39.2068 9.694 38.3231 10.5102C37.4678 11.3208 37.0152 12.3595 37.0152 13.5132V21.4355C37.0154 21.8793 37.3246 22.1497 37.7844 22.1081ZM71.977 32.6849C72.239 32.6383 72.5105 32.5536 72.7912 32.4305C73.072 32.3077 73.3153 32.1473 73.5214 31.9494C74.451 31.0871 74.9159 29.696 74.9159 27.7755C74.9159 26.4227 74.7112 25.4263 74.3029 24.7866C73.894 24.1471 73.3902 23.76 72.7912 23.6254C72.1923 23.491 71.4684 23.4587 70.62 23.5287L68.7856 23.68V32.9855L70.8914 32.8117C71.353 32.7738 71.7149 32.7315 71.977 32.6849ZM14.9851 23.4299V15.5076C14.9851 14.3554 14.5327 13.3982 13.6769 12.7413C12.8229 12.0841 11.7731 11.8081 10.5587 11.918C9.03705 12.0557 7.89056 12.2549 7.13241 12.5173C6.59215 12.7238 6.53413 13.1273 6.53413 13.2909V14.2917C6.53413 14.4859 6.58559 14.6459 6.68514 14.7673C6.8134 14.921 7.00554 14.9943 7.2259 14.9744C7.26217 14.9711 7.35079 14.9554 7.38625 14.9448C7.97411 14.7658 9.04083 14.6071 10.5587 14.4697C10.9492 14.4343 11.2861 14.5493 11.5683 14.8235C11.8505 15.0829 11.9929 15.4046 11.9929 15.7785V16.4406L8.60588 16.7471C7.38904 16.8572 6.33175 17.3315 5.46274 18.1582C4.59452 18.9822 4.1543 19.9848 4.1543 21.1388C4.1543 22.3082 4.60306 23.2471 5.48807 23.9279C6.34069 24.582 7.38953 24.8596 8.60588 24.7494L14.2401 24.2396C14.6789 24.1998 14.9851 23.866 14.9851 23.4299ZM11.9928 21.8697L8.60578 22.1763C8.19953 22.2131 7.85131 22.1025 7.57164 21.8442C7.28849 21.5849 7.14603 21.2576 7.14603 20.8679C7.14603 20.4939 7.28849 20.146 7.57164 19.8376C7.85131 19.5305 8.19953 19.3565 8.60578 19.3197L11.9928 19.0131V21.8697ZM88.0842 33.2729C87.2606 33.7151 86.2841 33.9827 85.1549 34.0758C83.8009 34.1876 82.6841 34.024 81.8042 33.5854C81.1802 33.2689 80.6732 32.8199 80.2833 32.2379C79.8933 31.6559 79.6984 31.075 79.6984 30.4952C79.6984 30.1583 79.8153 29.8605 80.0491 29.6011C80.2832 29.3419 80.581 29.1972 80.9431 29.1673C81.2362 29.1432 81.4842 29.2162 81.6871 29.3864C81.8898 29.5568 82.0629 29.8199 82.2066 30.176C82.3812 30.5981 82.57 30.9472 82.7728 31.2235C82.9756 31.5 83.2609 31.7179 83.6292 31.8776C83.9972 32.0374 84.4807 32.0926 85.0799 32.0431C85.9035 31.9751 86.5726 31.7284 87.0873 31.3023C87.6022 30.8763 87.8595 30.3767 87.8595 29.803C87.8595 29.348 87.7206 28.9901 87.4431 28.7292C87.1654 28.4685 86.8066 28.2813 86.3668 28.1681C85.9269 28.0547 85.3386 27.9442 84.6026 27.8366C83.6166 27.6874 82.7916 27.4857 82.127 27.232C81.4626 26.9781 80.9352 26.6008 80.5454 26.0999C80.1552 25.599 79.9603 24.9527 79.9603 24.1609C79.9603 23.4065 80.1661 22.7193 80.5781 22.0992C80.9899 21.4792 81.5857 20.9795 82.3655 20.6003C82.5841 20.4941 82.8146 20.4006 83.0547 20.3173L72.7077 21.2321C73.0866 21.2444 73.4364 21.2779 73.7552 21.3341C74.4291 21.4531 75.0406 21.73 75.5895 22.1647C77.0183 23.2689 77.7328 25.0679 77.7328 27.5618C77.7328 28.3847 77.6608 29.1421 77.5176 29.8334C77.374 30.5248 77.1526 31.1557 76.8531 31.7258C76.5534 32.296 76.1698 32.8157 75.7019 33.2844C75.3336 33.6455 74.9312 33.9436 74.4945 34.1791C74.0577 34.4149 73.5882 34.5938 73.0858 34.716C72.5835 34.8386 72.0174 34.9257 71.3872 34.978L67.765 35.2768C67.2597 35.3186 66.879 35.2736 66.6234 35.1418C66.3675 35.0103 66.2006 34.8088 66.1225 34.538C66.0445 34.2671 66.0056 33.9103 66.0056 33.4675V23.4139C66.0056 22.8153 66.1398 22.3711 66.4082 22.0808C66.5381 21.9402 66.7076 21.8285 66.9151 21.7444L62.5696 22.1287C62.5792 22.1382 62.5895 22.1465 62.5989 22.1565C62.8298 22.4026 62.9451 22.7905 62.9451 23.3204V34.1033C62.9451 35.3068 62.4461 35.9494 61.4478 36.0319C61.1981 36.0525 60.9735 36.035 60.7739 35.98C60.5742 35.9246 60.387 35.8265 60.2125 35.685C60.0375 35.5435 59.8755 35.3747 59.7258 35.1779C59.5759 34.9815 59.4263 34.7803 59.2766 34.5744L54.0635 27.0178V35.0513C54.0635 35.5749 53.9418 35.9809 53.6985 36.269C53.4552 36.5571 53.143 36.717 52.7626 36.7484C52.3694 36.7808 52.0543 36.6712 51.8173 36.4195C51.5801 36.1678 51.4615 35.7834 51.4615 35.2659V24.6888C51.4615 24.2399 51.5115 23.8836 51.6113 23.6196C51.6964 23.4112 51.8225 23.2263 51.988 23.0642L44.2872 23.7452C44.3899 23.83 44.4806 23.926 44.5592 24.0331C44.7182 24.2508 44.8524 24.4875 44.9615 24.7435C45.0707 24.9996 45.2096 25.3418 45.378 25.7706L48.9626 34.3218C49.2433 34.972 49.3837 35.4499 49.3837 35.7554C49.3837 36.0734 49.251 36.3758 48.9859 36.6628C48.7207 36.9494 48.401 37.1085 48.0267 37.1394C47.8082 37.1574 47.6209 37.1337 47.4652 37.0687C47.3091 37.0036 47.1781 36.9087 47.072 36.7833C46.9658 36.6579 46.8522 36.4616 46.7305 36.1941C46.6088 35.927 46.5042 35.6906 46.417 35.4859L45.7618 33.8193L40.1838 34.2794L39.5286 36.0917C39.2727 36.7988 39.0543 37.2798 38.8735 37.5346C38.6924 37.7893 38.3961 37.934 37.9843 37.9678C37.6348 37.9968 37.326 37.8943 37.0577 37.6609C36.7894 37.4274 36.6554 37.1486 36.6554 36.8243C36.6554 36.6373 36.6865 36.4414 36.7489 36.2368C36.8112 36.0322 36.9142 35.7462 37.0577 35.3791L40.5675 26.1861C40.6671 25.9223 40.7874 25.6054 40.9277 25.2352C41.0682 24.8652 41.2178 24.5552 41.377 24.305C41.4519 24.1873 41.5383 24.079 41.6353 23.9795L32.6313 24.7756C32.7076 24.798 32.7827 24.822 32.8554 24.8492C33.286 24.9945 33.6664 25.2218 33.9973 25.5312C34.3279 25.8406 34.5791 26.2113 34.7506 26.6427C34.9222 27.0744 35.0082 27.5396 35.0082 28.0383C35.0082 29.0608 34.7194 29.9014 34.1423 30.56C33.5651 31.2188 32.6901 31.7243 31.5171 32.0767C32.01 32.2977 32.4811 32.6457 32.9303 33.1197C33.3796 33.5939 33.7804 34.1048 34.133 34.6522C34.4854 35.2001 34.7601 35.6981 34.9566 36.1462C35.1532 36.5946 35.2514 36.906 35.2514 37.0805C35.2514 37.2613 35.1936 37.4453 35.0783 37.6325C34.9628 37.8198 34.8053 37.9731 34.6056 38.0924C34.4059 38.2117 34.1751 38.2822 33.9131 38.3039C33.601 38.3296 33.3389 38.2779 33.127 38.1491C32.9147 38.02 32.7321 37.8494 32.5793 37.6376C32.4264 37.4259 32.219 37.1125 31.957 36.6977L30.8432 34.9379C30.4438 34.2913 30.0867 33.8033 29.7716 33.4738C29.4565 33.1444 29.1366 32.9278 28.8123 32.8236C28.4878 32.7194 28.079 32.6876 27.5862 32.7283L26.6129 32.8087V37.2135C26.6129 37.7933 26.4849 38.231 26.2292 38.5264C25.9733 38.822 25.6395 38.9867 25.2277 39.0207C24.7845 39.0571 24.4416 38.9421 24.1982 38.6752C23.9549 38.4088 23.8333 37.9978 23.8333 37.4429V26.8937C23.8333 26.2951 23.9673 25.8508 24.2356 25.5605C24.2508 25.5441 24.2685 25.5294 24.2847 25.5137L18.7915 25.9994C18.9234 26.047 19.0507 26.1017 19.1724 26.1654C19.4966 26.3319 19.7837 26.553 20.0334 26.8284C20.2828 27.1041 20.4732 27.4157 20.6043 27.7633C20.7353 28.111 20.8008 28.4845 20.8008 28.8834C20.8008 30.2551 20.1143 31.3155 18.7418 32.0647C20.5449 32.4894 21.4466 33.5311 21.4466 35.1895C21.4466 35.9564 21.2501 36.6631 20.8569 37.3097C20.4639 37.9562 19.9335 38.4536 19.2659 38.8017C18.8478 39.0108 18.3674 39.1737 17.8246 39.2899C17.2817 39.4065 16.6484 39.4947 15.9247 39.5544L11.7317 39.9003C11.1264 39.9502 10.6943 39.8504 10.4355 39.6003C10.4105 39.5762 10.387 39.55 10.3645 39.5227V40.0656C10.3645 40.0656 10.4164 40.1658 10.5173 40.1921C13.9563 41.0932 74.288 56.8988 74.288 56.8988L90.2709 31.728V30.9562C90.184 31.1647 90.0821 31.3681 89.9608 31.5657C89.5334 32.2619 88.9079 32.8308 88.0842 33.2729ZM90.1397 22.7161C90.0065 22.7161 90.0018 22.811 90.0018 22.811C90.0019 22.8226 90.0028 22.8343 90.0028 22.846C90.0028 23.1764 89.8859 23.4838 89.6518 23.768C89.4179 24.0525 89.1262 24.209 88.7768 24.2378C88.4586 24.264 88.2167 24.2045 88.0514 24.059C87.8861 23.9138 87.7065 23.6683 87.5132 23.3226C87.2635 22.8258 86.9642 22.4468 86.6148 22.1856C86.2653 21.9246 85.7037 21.8259 84.9301 21.8897C84.2125 21.949 83.6339 22.1543 83.1938 22.5053C82.754 22.8565 82.534 23.2534 82.534 23.696C82.534 23.9705 82.609 24.2012 82.7588 24.3883C82.9085 24.5756 83.1144 24.7299 83.3764 24.8516C83.6385 24.9735 83.9037 25.0639 84.172 25.1227C84.4402 25.1817 84.8833 25.2637 85.501 25.3684C86.2746 25.4855 86.9751 25.6271 87.6021 25.7936C88.2293 25.9601 88.7627 26.1811 89.2024 26.4565C89.6425 26.7319 89.9855 27.098 90.2319 27.5546C90.2457 27.5802 90.2578 27.6076 90.2708 27.6338V22.811C90.2709 22.8111 90.2537 22.7161 90.1397 22.7161ZM95.6219 5.32329C94.768 4.66609 93.7188 4.3901 92.5037 4.50008C90.9822 4.63778 89.8358 4.83708 89.0781 5.09946C88.5375 5.30581 88.4794 5.70947 88.4794 5.873V6.87385C88.4794 7.06798 88.5308 7.22803 88.6309 7.34934C88.7591 7.50304 88.9508 7.57636 89.1711 7.55639C89.2076 7.55311 89.2961 7.53751 89.3318 7.52678C89.9188 7.34805 90.986 7.18909 92.5038 7.05179C92.8951 7.01632 93.2313 7.13137 93.513 7.40567C93.7963 7.66488 93.9384 7.98677 93.9384 8.36053V9.0225L90.5509 9.32919C89.3337 9.43937 88.2769 9.91367 87.4073 10.7405C86.5402 11.5643 86.0999 12.5668 86.0999 13.7209C86.0999 14.8902 86.5483 15.8284 87.4329 16.5101C88.286 17.1641 89.3347 17.4416 90.5509 17.3315L96.1853 16.8216C96.6236 16.7819 96.9299 16.4482 96.9299 16.012V8.0895C96.9299 6.93744 96.4773 5.9801 95.6219 5.32329ZM93.9383 14.4517L90.5508 14.7583C90.1447 14.795 89.797 14.6845 89.5167 14.4262C89.2342 14.1668 89.0912 13.8396 89.0912 13.4499C89.0912 13.0759 89.2342 12.7281 89.5167 12.4196C89.797 12.1124 90.1447 11.9385 90.5508 11.9018L93.9383 11.5951V14.4517ZM90.2932 30.9031C90.2851 30.9222 90.2781 30.9391 90.2743 30.9485C90.2813 30.9318 90.2875 30.9166 90.2932 30.9031ZM72.7078 21.2322C72.7013 21.232 72.698 21.2319 72.6926 21.2317C72.701 21.232 72.7078 21.2322 72.7078 21.2322ZM18.4987 23.8541L19.9514 23.7225C20.4113 23.6809 20.7199 23.3543 20.7199 22.9107V14.9885C20.7199 14.6177 20.8661 14.2592 21.1455 13.9355C21.4257 13.6284 21.7734 13.4546 22.1797 13.4178L24.1335 13.241C24.5246 13.2055 24.86 13.3207 25.1421 13.5949C25.4247 13.8542 25.5672 14.176 25.5672 14.5497V22.472C25.5672 22.9155 25.8767 23.1861 26.3367 23.1446L27.8149 23.0107C28.2528 22.9711 28.559 22.6373 28.559 22.2012V14.2788C28.559 13.0994 28.108 12.1681 27.2261 11.5148C26.3728 10.8575 25.3323 10.5807 24.1335 10.6893L22.1797 10.866C20.9766 10.975 19.9207 11.44 19.037 12.2561C18.1816 13.0667 17.7292 14.1054 17.7292 15.2593V23.1815C17.7293 23.625 18.0387 23.8957 18.4987 23.8541ZM67.0757 21.6878C67.02 21.7052 66.9663 21.7237 66.9153 21.7444L67.0757 21.7303V21.6878ZM12.8269 31.7297L15.3725 31.5197C16.0652 31.4627 16.6001 31.353 16.9776 31.1908C17.3551 31.0289 17.6437 30.7557 17.8433 30.3713C17.9992 30.0965 18.0774 29.7971 18.0774 29.4728C18.0774 28.7808 17.8308 28.3414 17.338 28.1544C16.8451 27.9676 16.0932 27.9158 15.0824 27.9992L12.8269 28.1852V31.7297ZM17.8996 33.7708C17.4129 33.4994 16.6859 33.4033 15.7188 33.4832L12.8269 33.7218V37.7243L15.8124 37.478C17.6904 37.323 18.6296 36.5692 18.6296 35.216C18.6296 34.5243 18.3862 34.0426 17.8996 33.7708ZM18.7916 25.9994C18.7858 25.9974 18.7827 25.9963 18.7781 25.9946C18.7856 25.9974 18.7916 25.9994 18.7916 25.9994Z" fill="#18171A"/>
</g>
<mask id="mask2_3641_20338" style="mask-type:luminance" maskUnits="userSpaceOnUse" x="4" y="0" width="93" height="57">
<path d="M96.9298 0.728027H4.1543V56.8989H96.9298V0.728027Z" fill="white"/>
</mask>
<g mask="url(#mask2_3641_20338)">
<path d="M75.7002 4.2479L70.1974 6.60866C69.609 6.30822 69.0345 6.27504 69.0423 6.27405C69.3258 6.2361 69.6876 6.25169 69.8646 6.26322C69.9246 6.26719 69.9816 6.22894 69.9958 6.17599C70.1746 5.50547 70.5249 5.0284 70.7505 4.77466C70.8204 4.69617 70.7482 4.59086 70.6406 4.61619C70.01 4.76502 69.3433 5.16818 68.9829 5.4095C68.8884 5.47289 68.7682 5.39748 68.809 5.30091C68.9579 4.94832 69.2453 4.40358 69.4051 4.10613C69.4499 4.02267 69.3652 3.94021 69.2679 3.9727C68.0446 4.38173 66.9531 5.20266 66.2686 5.80144C66.1607 5.89592 66.0069 5.77481 66.1026 5.67069C66.1074 5.66563 66.1121 5.66046 66.117 5.65539C66.1876 5.57939 66.1223 5.47438 66.0162 5.49316C64.9904 5.67576 61.7042 6.43013 59.7424 8.84543C59.667 8.93802 59.7773 9.04611 59.8877 8.98799C60.4145 8.7111 61.338 8.25787 62.1737 8.01228C62.31 7.97214 62.3787 8.13636 62.2514 8.19866C61.0826 8.77111 58.9891 10.0234 58.4422 11.8534C57.8358 13.8814 58.1728 15.8582 59.8414 17.1495C61.6801 18.5729 64.027 18.823 65.7506 19.5325C65.8375 19.5684 65.9411 19.4936 65.9208 19.4095C65.8286 19.0265 65.5302 18.1699 64.5933 17.1949C64.5349 17.1343 64.5839 17.0341 64.6778 17.0231C65.0102 16.9838 65.7583 17.2289 66.7159 19.6038C66.7415 19.6675 66.8323 19.6855 66.8957 19.6392C67.6341 19.0977 71.1745 16.2453 67.8458 13.559C67.4319 13.225 65.6417 12.444 65.7346 10.7257C65.7404 10.6187 65.9035 10.5777 65.956 10.67C66.1861 11.0777 66.7223 11.7446 67.922 12.2906C68.6239 12.6102 68.9743 12.8918 69.3971 13.8819C69.7428 14.6916 72.5618 14.7067 72.462 13.2019C72.3734 11.8663 71.348 10.384 71.435 8.88487C71.4508 8.61166 71.4321 8.36864 71.3886 8.14968L75.9243 4.5391C76.1337 4.37219 75.954 4.13911 75.7002 4.2479ZM69.7677 9.5674C69.6621 10.0927 69.1712 10.437 68.6717 10.3365C68.1721 10.2359 67.8529 9.72845 67.9585 9.20338C68.0641 8.67832 68.5548 8.33387 69.0545 8.43441C69.5541 8.53486 69.8734 9.04234 69.7677 9.5674Z" fill="#18171A"/>
</g>
</g>
</svg>
