<?xml version="1.0" encoding="utf-8"?>
<!-- Generator: Adobe Illustrator 27.0.0, SVG Export Plug-In . SVG Version: 6.00 Build 0)  -->
<svg version="1.1" id="Layer_1" xmlns="http://www.w3.org/2000/svg" xmlns:xlink="http://www.w3.org/1999/xlink" x="0px" y="0px"
	 viewBox="0 0 99 49" style="enable-background:new 0 0 99 49;" xml:space="preserve">
<style type="text/css">
	.st0{fill:#18171A;stroke:#FFFFFF;stroke-width:0.2;stroke-linejoin:round;stroke-opacity:0.7;}
</style>
<path class="st0" d="M22.9,29.5c-0.1,0-0.3-0.1-0.4-0.1c-0.1-0.1-0.1-0.2-0.1-0.4v-2.5c0-0.3,0.2-0.5,0.5-0.5H29
	c0.3,0,0.5-0.2,0.5-0.5v-2.7c0-0.3-0.2-0.5-0.5-0.5h-6.1c-0.1,0-0.3-0.1-0.4-0.1c-0.1-0.1-0.1-0.2-0.1-0.4v-2.1
	c0-0.3,0.2-0.5,0.5-0.5h6.5c0.3,0,0.5-0.2,0.5-0.5V16c0-0.3-0.2-0.5-0.5-0.5H17.7c-0.1,0-0.1,0-0.2,0c-0.1,0-0.1,0.1-0.2,0.1
	c0,0-0.1,0.1-0.1,0.2c0,0.1,0,0.1,0,0.2v16.7c0,0.3,0.2,0.5,0.5,0.5h11.9c0.3,0,0.5-0.2,0.5-0.5V30c0-0.3-0.2-0.5-0.5-0.5H22.9z
	 M37.2,32.9c0,0.1,0.1,0.2,0.2,0.3c0.1,0.1,0.2,0.1,0.3,0.1h5.4c0.1,0,0.2,0,0.3-0.1c0.1-0.1,0.2-0.2,0.2-0.3l5.5-16.7
	c0-0.1,0-0.2,0-0.2s0-0.2-0.1-0.2s-0.1-0.1-0.2-0.2c-0.1,0-0.2-0.1-0.2-0.1h-4.5c-0.1,0-0.2,0-0.3,0.1c-0.1,0.1-0.2,0.2-0.2,0.3
	l-2.7,10.2c-0.3,1.1-0.4,1.7-0.5,2.4c0,0,0,0,0,0c0,0,0,0,0,0c0,0,0,0,0,0c0,0,0,0,0,0c-0.1-0.7-0.2-1.4-0.5-2.4l-2.7-10.2
	c0-0.1-0.1-0.2-0.2-0.3c-0.1-0.1-0.2-0.1-0.3-0.1h-4.5c-0.1,0-0.2,0-0.2,0.1c-0.1,0-0.1,0.1-0.2,0.2c0,0.1-0.1,0.1-0.1,0.2
	c0,0.1,0,0.2,0,0.2L37.2,32.9z M56.5,29.5c-0.1,0-0.1,0-0.2,0c-0.1,0-0.1-0.1-0.2-0.1c0,0-0.1-0.1-0.1-0.2c0-0.1,0-0.1,0-0.2v-2.5
	c0-0.3,0.2-0.5,0.5-0.5h6.1c0.3,0,0.5-0.2,0.5-0.5v-2.7c0-0.3-0.2-0.5-0.5-0.5h-6.1c-0.1,0-0.1,0-0.2,0c-0.1,0-0.1-0.1-0.2-0.1
	c0,0-0.1-0.1-0.1-0.2c0-0.1,0-0.1,0-0.2v-2.1c0-0.3,0.2-0.5,0.5-0.5h6.5c0.1,0,0.3-0.1,0.4-0.1s0.1-0.2,0.1-0.4V16
	c0-0.3-0.2-0.5-0.5-0.5H51.3c-0.1,0-0.3,0.1-0.4,0.1c-0.1,0.1-0.1,0.2-0.1,0.4v16.7c0,0.3,0.2,0.5,0.5,0.5h11.9
	c0.1,0,0.3-0.1,0.4-0.1c0.1-0.1,0.1-0.2,0.1-0.4V30c0-0.3-0.2-0.5-0.5-0.5H56.5z M66.2,32.8c0,0.3,0.2,0.5,0.5,0.5h3.8
	c0.3,0,0.5-0.2,0.5-0.5V22.4c0,0,0,0,0,0c0,0,0,0,0,0c0.2,0.6,0.6,1.4,1,2.1L77,33c0,0.1,0.1,0.1,0.2,0.2c0.1,0,0.2,0.1,0.3,0.1H82
	c0.3,0,0.5-0.2,0.5-0.5V16c0-0.3-0.2-0.5-0.5-0.5h-3.8c-0.1,0-0.3,0.1-0.4,0.1c-0.1,0.1-0.1,0.2-0.1,0.4v10.3c0,0,0,0,0,0
	c0,0,0,0,0,0c0,0,0,0,0,0c0,0,0,0,0,0c0,0,0,0,0,0c0,0,0,0,0,0c-0.2-0.6-0.7-1.6-1.1-2.3L72,15.8c0-0.1-0.1-0.1-0.2-0.2
	c-0.1,0-0.2-0.1-0.3-0.1h-4.8c-0.1,0-0.3,0.1-0.4,0.1c-0.1,0.1-0.1,0.2-0.1,0.4V32.8z"/>
</svg>
