<?xml version="1.0" encoding="utf-8"?>
<!-- Generator: Adobe Illustrator 27.0.0, SVG Export Plug-In . SVG Version: 6.00 Build 0)  -->
<svg version="1.1" id="Layer_1" xmlns="http://www.w3.org/2000/svg" xmlns:xlink="http://www.w3.org/1999/xlink" x="0px" y="0px"
	 viewBox="0 0 134 20" style="enable-background:new 0 0 134 20;" xml:space="preserve">
<style type="text/css">
	.st0{clip-path:url(#SVGID_00000181058985056221598360000017693176727101466810_);}
	.st1{fill:#18171A;}
</style>
<g>
	<defs>
		<rect id="SVGID_1_" x="0" width="133.8" height="20"/>
	</defs>
	<clipPath id="SVGID_00000109721627352582536030000008376647851447633056_">
		<use xlink:href="#SVGID_1_"  style="overflow:visible;"/>
	</clipPath>
	<g style="clip-path:url(#SVGID_00000109721627352582536030000008376647851447633056_);">
		<path class="st1" d="M10.6,16.1v-2h0.8l0.1-0.1l-2-3.2l-1.6,1.5v1.5l0,0.1l1.2,0.4v1.8H3.8v-2h1.1L5,14V6.4l0-0.1L3.8,5.8V4.1h5.3
			v2H8L7.9,6.2V10l3.8-3.7V6.2L11.1,6l-0.6-0.2V4.1h5.5v2h-0.7l-0.2,0.1l-3.6,3.2l3.2,4.5l0.1,0.1l1.3,0.4v1.8L10.6,16.1L10.6,16.1z
			"/>
		<path class="st1" d="M22.6,16.4c-4.2,0-5.5-2.2-5.5-6c0-5.3,2.6-6.6,6.1-6.6c4.2,0,5.5,2.2,5.5,6C28.7,15.1,26.1,16.4,22.6,16.4z
			 M22.9,5.9c-2.1,0-2.7,1.2-2.7,3.9c0,3.8,0.5,4.6,2.7,4.6c2.1,0,2.7-1.2,2.7-3.9C25.7,6.6,25.2,5.9,22.9,5.9z"/>
		<path class="st1" d="M42.9,6.1h-1.1l-0.1,0.1v10.1h-3.5L33.9,7h-0.3v6.8l0,0.1l1.5,0.5v1.8h-4.9v-2h1.1l0.1-0.1V6.4l0-0.1
			l-1.2-0.5V4.1h5l4.1,8.9h0.3V6.4l0-0.1L38,5.8V4.1h4.9V6.1L42.9,6.1z"/>
		<path class="st1" d="M55.6,11.9h-1.2L54.4,12v1.4l1.1,0.4c0,0,0,1.5,0,1.6c-1.6,0.6-3.4,1-5.6,1c-4.2,0-5.6-2.1-5.6-6
			c0-5.3,2.5-6.6,5.9-6.6c1.1,0,1.6,0.2,2.2,0.4l2-0.6v4.5h-2L52,6.3c-0.6-0.3-1.1-0.4-2-0.4c-1.8,0-2.6,1.3-2.6,3.9
			c0,3.8,0.5,4.5,2.8,4.5c0.6,0,1.1-0.1,1.5-0.3v-2l0-0.1l-1.5-0.4V9.8h5.5L55.6,11.9L55.6,11.9z"/>
		<path class="st1" d="M64.9,16.1l-1-2.1l-1.3-2.7l-1.2,0.2v2.3l0,0.1l1,0.4v1.8h-5.1v-2h1.1l0.1-0.1V6.4l0-0.1l-1.2-0.5V4.1h5.4
			c3.8,0,5,0.8,5,3.4c0,1.9-0.9,3-2.4,3.6l1.9,2.8l0.1,0.1l1.1,0.4v1.8H64.9z M62.2,6.1h-0.9v3.6l1.1,0.2c1.3-0.3,2-0.7,2-2
			C64.5,6.5,64,6.1,62.2,6.1z"/>
		<path class="st1" d="M79.9,16.1H69.3v-2h1.1l0.1-0.1V6.4l0-0.1l-1.2-0.5V4.1h10.8v4.5H78l-0.2-1.4c-0.2-1-0.4-1.1-3.8-1.1h-0.5
			v3.2h0.8c0.6,0,0.7-0.1,0.9-0.6l0.2-0.8h1.7l-0.4,4.4h-1.4l-0.2-0.9c-0.1-0.4-0.3-0.5-0.7-0.5h-0.8v3.2h0.5c3.3,0,3.4-0.1,3.8-1.2
			l0.4-1.3h2.2L79.9,16.1z"/>
		<path class="st1" d="M93,11.9h-1.2L91.8,12v1.4l1.1,0.4c0,0,0,1.5,0,1.6c-1.7,0.6-3.4,1-5.6,1c-4.2,0-5.6-2.1-5.6-6
			c0-5.3,2.5-6.6,5.9-6.6c1.1,0,1.6,0.2,2.2,0.4l2-0.6v4.5h-2l-0.5-1.8c-0.6-0.3-1.1-0.4-2-0.4c-1.8,0-2.6,1.3-2.6,3.9
			c0,3.8,0.5,4.5,2.8,4.5c0.6,0,1.1-0.1,1.5-0.3v-2l0-0.1l-1.5-0.4V9.8H93L93,11.9L93,11.9z"/>
		<path class="st1" d="M100.6,16.1v-2h0.9l0.1-0.1l-0.3-1.6h-3.6l-0.3,1.4l0,0.1l1.1,0.4v1.8h-4.6v-2H95L95,14l2.7-8.8V4.4l4-0.6
			l3,10.1l0.1,0.1l1.2,0.4v1.8H100.6z M99.6,6.1h-0.3l-1.1,4.5h2.4L99.6,6.1z"/>
		<path class="st1" d="M115.5,8.8L115.1,7c-0.1-0.6-0.2-0.9-1.3-0.9h-0.6v7.8l0,0.1l1.6,0.4v1.8h-6.2v-2h1.5l0.1-0.1V6.1h-0.5
			c-1,0-1.1,0.3-1.2,0.8l-0.6,2h-2.2l0.3-4.7h11.4v4.7H115.5z"/>
		<path class="st1" d="M129.7,16.1h-10.6v-2h1.1l0.1-0.1V6.4l0-0.1L119,5.8V4.1h10.8v4.5h-2.1l-0.2-1.4c-0.2-1-0.4-1.1-3.8-1.1h-0.5
			v3.2h0.8c0.6,0,0.7-0.1,0.9-0.6l0.2-0.8h1.7l-0.4,4.4h-1.4l-0.2-0.9c-0.1-0.4-0.3-0.5-0.7-0.5h-0.8v3.2h0.5c3.3,0,3.4-0.1,3.8-1.2
			l0.4-1.3h2.2L129.7,16.1z"/>
	</g>
</g>
</svg>
