<svg width="61" height="33" viewBox="0 0 61 33" fill="none" xmlns="http://www.w3.org/2000/svg">
<path d="M22.5285 20.6262L20.8765 18.4408L19.4128 16.499L20.8765 14.5572L22.5285 12.3718L29.249 3.47504C29.7031 2.87515 29.4594 2.38232 28.7064 2.38232H22.6872C22.2667 2.4063 21.8555 2.51553 21.4785 2.70338C21.1016 2.89123 20.7667 3.15376 20.4944 3.47504L13.772 12.3718L12.1219 14.5572L10.6562 16.499L12.1219 18.4408L13.772 20.6262L20.4944 29.523C20.7667 29.8442 21.1016 30.1068 21.4785 30.2946C21.8555 30.4825 22.2667 30.5917 22.6872 30.6156H28.7119C29.465 30.6156 29.7086 30.1228 29.2546 29.523L22.5285 20.6262Z" fill="#111827"/>
<path d="M9.18993 2.46143H2.5875C2.26843 2.46143 2.00977 2.72008 2.00977 3.03916V30.0358C2.00977 30.3549 2.26843 30.6136 2.5875 30.6136H9.18993C9.50898 30.6136 9.76767 30.3549 9.76767 30.0358V3.03916C9.76767 2.72008 9.50898 2.46143 9.18993 2.46143Z" fill="#111827"/>
<path d="M48.9817 17.2852L50.3661 19.118L51.924 21.1816L58.2717 29.5855C58.7017 30.1522 58.4691 30.6174 57.7585 30.6174H52.0698C51.6726 30.5939 51.2842 30.4904 50.928 30.3131C50.5718 30.1358 50.2551 29.8883 49.9969 29.5855L43.6492 21.1816L42.0914 19.118L40.707 17.2852H48.9817Z" fill="#111827"/>
<path d="M39.6893 29.5843C39.4315 29.8875 39.1149 30.1353 38.7586 30.3127C38.4023 30.49 38.0138 30.5933 37.6164 30.6161H31.9277C31.2171 30.6161 30.9863 30.1509 31.4145 29.5843L50.0054 4.98346C50.2636 4.68071 50.5803 4.43326 50.9365 4.25595C51.2927 4.07865 51.6811 3.97514 52.0783 3.95166H57.7578C58.4684 3.95166 58.701 4.41679 58.2709 4.98346L39.6893 29.5843Z" fill="#4B5563"/>
<path d="M40.7063 17.2848L39.3219 15.4501C38.8919 14.8834 38.1923 13.955 37.7622 13.3865L31.4145 4.98443C30.9863 4.41777 31.2171 3.95264 31.9277 3.95264H37.6164C38.0138 3.97548 38.4023 4.07871 38.7586 4.25605C39.1149 4.43341 39.4315 4.68119 39.6893 4.98443L46.037 13.3865L47.5967 15.4501L48.981 17.2848H40.7063Z" fill="#111827"/>
</svg>
