<?xml version="1.0" encoding="utf-8"?>
<!-- Generator: Adobe Illustrator 27.0.0, SVG Export Plug-In . SVG Version: 6.00 Build 0)  -->
<svg version="1.1" id="Layer_1" xmlns="http://www.w3.org/2000/svg" xmlns:xlink="http://www.w3.org/1999/xlink" x="0px" y="0px"
	 viewBox="0 0 150 41" style="enable-background:new 0 0 150 41;" xml:space="preserve">
<style type="text/css">
	.st0{clip-path:url(#SVGID_00000170245164078371871840000015397087936956769690_);}
	.st1{fill:#18171A;}
</style>
<g>
	<defs>
		<rect id="SVGID_1_" y="0.5" width="150" height="40"/>
	</defs>
	<clipPath id="SVGID_00000134959922975869170000000001967442202527154877_">
		<use xlink:href="#SVGID_1_"  style="overflow:visible;"/>
	</clipPath>
	<g style="clip-path:url(#SVGID_00000134959922975869170000000001967442202527154877_);">
		<path class="st1" d="M16.7,0.5l-3.9,11.8H0l10.3,7.3L6.4,31.5l10.2-7.3L27,31.5l-3.9-11.9l10.2-7.3H20.6L16.7,0.5z"/>
		<path class="st1" d="M69.1,11.3c-0.8-0.8-1.6-1.3-2.7-1.6c-1-0.4-2.2-0.5-3.5-0.5c-1.3,0-2.5,0.2-3.6,0.7c-1.2,0.5-2.1,1.2-2.9,2
			l-0.1,0.1c-0.4,0.4-0.7,0.9-1,1.4c-0.2,0.4-0.4,0.8-0.6,1.1c-0.1-0.2-0.3-0.6-0.5-1c-0.4-0.7-0.7-1.3-1-1.5
			c-0.8-0.9-1.7-1.5-2.8-2c-1.2-0.5-2.4-0.7-3.8-0.7c-0.9,0-2.2,0.1-3.6,0.8c-1.6,0.8-3,2-3.9,3.7V9.7h-1.3v22h1.3V19.2
			c0-1.4,0.2-2.6,0.5-3.7c0.3-1.1,0.8-1.9,1.5-2.8c0.6-0.8,1.4-1.4,2.4-1.8c0.9-0.4,2-0.7,3-0.6c1.3,0.1,2.4,0.3,3.4,0.7
			c0.9,0.4,1.7,1.1,2.4,1.9c0.6,0.8,0.9,1.4,1.2,2.2c0.3,0.9,0.4,2,0.4,3.6v13h1.3V19.3c0-1.5,0.1-2.8,0.3-3.8
			c0.3-1,0.7-1.8,1.5-2.8c0.7-0.9,1.5-1.5,2.7-1.9c0.9-0.3,2-0.5,3-0.5c1.1,0,2.1,0.2,3,0.5c0.9,0.3,1.6,0.8,2.2,1.4
			c0.8,0.8,1.3,1.7,1.7,2.9c0.4,1.2,0.6,2.6,0.6,4.3v12.4h1.3l0.2-12.4c0-1.8-0.2-3.4-0.7-4.7C70.6,13.3,70,12.1,69.1,11.3z"/>
		<path class="st1" d="M94.6,15.3c-0.7-1.5-2-3.1-3.6-4.2c-2-1.3-4.3-2-6.8-2c-4.5,0-7.2,2-8.8,3.7c-1.9,2.1-3,4.9-3,7.9
			c0,2.9,1.1,5.8,3,7.9c1.5,1.6,4.3,3.7,8.8,3.7c2.3,0,4.4-0.5,6.2-1.6c1.7-1.1,3.1-2.5,4.2-4.4v5.6h1.3v-22h-1.3V15.3z M93.9,16.6
			c0.2,0.6,0.4,1.2,0.6,1.8c0.2,0.7,0.2,1.4,0.2,2c0.1,0.7,0,1.4-0.1,2c-0.1,0.7-0.3,1.3-0.5,1.9c-0.7,2-2,3.8-3.8,4.9
			c-1.7,1.2-3.8,1.8-6,1.8c-3.2,0-5.9-1.1-7.9-3.2c-1.7-1.9-2.7-4.4-2.7-7.1c0-2.9,1.1-5.5,3-7.4c2-1.9,4.6-3,7.5-3
			c2.1,0,4.2,0.6,5.9,1.6C91.8,13.1,93.1,14.7,93.9,16.6z"/>
		<path class="st1" d="M100.8,13.1c1.2-1,2.4-1.7,3.5-2.2c1.2-0.4,2.5-0.7,4-0.7h0.1c1.9,0,3.9,0.5,5.5,1.5c1.9,1.2,3.4,2.9,4.1,4.9
			l0.1,0.1h1.5l-0.1-0.2c-0.9-2.5-2.6-4.5-4.8-5.8c-1.8-1.1-4.1-1.6-6.3-1.6c-3.2,0-6.2,1.2-8.4,3.4c-2.2,2.2-3.4,5.1-3.4,8.3
			c0,3,1.2,5.8,3.1,7.9c2.2,2.4,5.3,3.6,9,3.6c2.4,0,4.8-0.7,6.7-2c1.9-1.3,3.4-3.1,4.2-5.3l0.1-0.2h-1.5l-0.1,0.1
			c-0.6,1.6-1.7,3.1-3.3,4.2c-1.8,1.4-4.1,2-6.4,2c-1.4,0-2.7-0.3-4-0.8c-1.3-0.5-2.4-1.3-3.4-2.2c-1-1-1.7-2.1-2.3-3.4
			c-0.6-1.3-0.8-2.7-0.8-4.1c0-1.4,0.3-2.9,0.8-4.2C99.1,15.1,99.9,14,100.8,13.1z M115.9,13c1,0.9,1.8,2.2,2.4,3.6
			C117.7,15.2,116.9,14,115.9,13z"/>
		<path class="st1" d="M137.7,9.7h-1.5l-0.1,0.1c0,0.1-2.2,5.1-4.4,10.2l-4.3,9.9l-4.1-9.9c-2.6-6.6-4.1-10.1-4.1-10.2l-0.1-0.1
			h-1.5l9,21.9l-4,8.9h1.5l0.1-0.1c0,0,0.1-0.3,0.3-0.7c0.7-1.5,2.5-5.8,4.7-10.5c0.6-1.3,1.1-2.6,1.7-3.9l5.3-11.9
			c0.9-2,1.5-3.4,1.5-3.4L137.7,9.7z"/>
		<path class="st1" d="M147.8,21c-1.2-0.9-2.7-1.3-4.3-1.6l-0.2-0.1c-1.7-0.5-2.8-1-3.6-1.5c-0.8-0.7-1.3-1.6-1.4-2.9
			c0-0.6,0.1-1.2,0.3-1.7c0.2-0.5,0.5-1,0.9-1.4c0.4-0.5,1-0.8,1.6-1.1c0.7-0.3,1.4-0.4,2.1-0.4h0.1c0.7,0,1.3,0.1,1.8,0.3
			c0.6,0.2,1.1,0.5,1.5,0.9c0.4,0.4,0.7,0.9,0.9,1.4c0.2,0.5,0.3,1.1,0.3,1.8v0.2h1.3v-0.1c0-1.6-0.6-3-1.6-4.1
			c-1.1-1-2.5-1.5-4.3-1.5c-1.6,0-3.1,0.5-4.2,1.4c-1.3,1-1.9,2.5-1.9,4.3c0.1,1.7,0.7,3,1.8,3.9c1.2,0.9,2.7,1.4,4.3,1.8
			c1.9,0.4,3.2,1,4.1,1.8c0.9,0.9,1.3,1.9,1.3,3.4V26c0,0.7-0.1,1.4-0.4,2c-0.3,0.6-0.6,1.1-1.1,1.6c-0.4,0.5-1.1,0.9-1.7,1.1
			c-0.7,0.3-1.4,0.4-2.1,0.4c-1.6,0-3.1-0.5-4.1-1.4c-1-1-1.5-2.3-1.6-3.9v-0.2l-1.3,0.1v0.3c0,0.1,0,0.1,0,0.2
			c0,0.8,0.2,1.5,0.4,2.2c0.3,0.7,0.7,1.4,1.2,1.9c0.7,0.7,1.5,1.2,2.4,1.5c0.9,0.3,1.8,0.5,2.9,0.5c0.9,0,1.8-0.2,2.7-0.5
			c0.8-0.4,1.6-0.9,2.2-1.5c0.6-0.6,1.1-1.3,1.4-2.1c0.3-0.8,0.4-1.6,0.4-2.5C149.9,23.5,149.1,22,147.8,21z"/>
		<path class="st1" d="M137,8l1.5-1l1.5,1l-0.6-1.8l1.6-1.1h-1.8l-0.6-1.7L138,5.2h-1.8l1.5,1.1L137,8z"/>
	</g>
</g>
</svg>
