<?xml version="1.0" encoding="utf-8"?>
<!-- Generator: Adobe Illustrator 27.0.0, SVG Export Plug-In . SVG Version: 6.00 Build 0)  -->
<svg version="1.1" id="Layer_1" xmlns="http://www.w3.org/2000/svg" xmlns:xlink="http://www.w3.org/1999/xlink" x="0px" y="0px"
	 viewBox="0 0 133 22" style="enable-background:new 0 0 133 22;" xml:space="preserve">
<style type="text/css">
	.st0{fill:#18171A;}
</style>
<path class="st0" d="M103.1,13.5h-2.3c-0.2,0-0.3-0.1-0.5-0.2c-0.1-0.1-0.2-0.3-0.2-0.5v-0.5c0-0.2,0.1-0.3,0.2-0.5
	c0.1-0.1,0.3-0.2,0.5-0.2h2c0.2,0,0.4-0.1,0.5-0.2c0.1-0.1,0.2-0.3,0.2-0.5c0-0.2-0.1-0.3-0.2-0.5c-0.1-0.1-0.3-0.2-0.5-0.2h-2
	c-0.2,0-0.3-0.1-0.5-0.2c-0.1-0.1-0.2-0.3-0.2-0.5V9.1c0-0.2,0.1-0.3,0.2-0.5c0.1-0.1,0.3-0.2,0.5-0.2h2.3c0.2,0,0.4-0.1,0.5-0.2
	c0.1-0.1,0.2-0.3,0.2-0.5c0-0.2-0.1-0.3-0.2-0.5c-0.1-0.1-0.3-0.2-0.5-0.2h-2.7c-0.1,0-0.2,0-0.3,0.1c-0.1,0.1-0.1,0.2-0.2,0.3
	l-1.4,6.6v0.1c0,0.2,0.1,0.3,0.2,0.4c0.1,0.1,0.3,0.1,0.4,0.1h4c0.2,0,0.4-0.1,0.5-0.2s0.2-0.3,0.2-0.5c0-0.2-0.1-0.3-0.2-0.5
	S103.2,13.5,103.1,13.5L103.1,13.5z"/>
<path class="st0" d="M53,7.2h-0.9c-0.1,0-0.3,0-0.4,0.1c-0.1,0.1-0.2,0.2-0.3,0.3l-2,4.7c0,0,0,0,0,0c0,0,0,0,0,0c0,0,0,0,0,0
	l-2-4.7c0-0.1-0.1-0.2-0.2-0.3c-0.2-0.1-0.4,0-0.5,0.3l-1.5,6.7c0,0.1,0,0.2,0,0.2c0.1,0.1,0.1,0.2,0.2,0.3c0.1,0.1,0.2,0.1,0.3,0.1
	h0.3c0.2,0,0.3-0.1,0.5-0.2c0.1-0.1,0.2-0.3,0.2-0.5V9.9c0,0,0,0,0,0c0,0,0,0,0,0c0,0,0,0,0,0c0,0,0,0,0,0l1.8,4.5
	c0,0.1,0.1,0.2,0.2,0.3c0.1,0.1,0.2,0.1,0.4,0.1h0.2c0.1,0,0.3,0,0.4-0.1c0.1-0.1,0.2-0.2,0.3-0.3l1.8-4.5c0,0,0,0,0,0c0,0,0,0,0,0
	c0,0,0,0,0,0c0,0,0,0,0,0v4.3c0,0.2,0.1,0.3,0.2,0.5c0.1,0.1,0.3,0.2,0.5,0.2h0.3c0.2,0,0.3-0.1,0.5-0.2c0.1-0.1,0.2-0.3,0.2-0.5
	V7.9c0-0.2-0.1-0.3-0.3-0.5C53.4,7.3,53.2,7.2,53,7.2z"/>
<path class="st0" d="M73.7,10.8h-2c-0.2,0-0.3,0.1-0.4,0.2c-0.1,0.1-0.2,0.3-0.2,0.4c0,0.2,0.1,0.3,0.2,0.4c0.1,0.1,0.3,0.2,0.4,0.2
	h0.4c0.4,0,0.7,0.3,0.5,0.7c-0.3,0.6-0.8,0.9-1.7,0.9c-1.3,0-2-0.9-2-2.5s0.8-2.5,2-2.5c0.3,0,0.6,0,0.8,0.2C72,8.8,72.2,9,72.4,9.2
	c0.1,0.1,0.2,0.2,0.3,0.3c0.1,0.1,0.3,0.1,0.4,0.1h0.4c0.1,0,0.2,0,0.3,0c0.1,0,0.2-0.1,0.2-0.2c0.1-0.1,0.1-0.2,0.1-0.2
	c0-0.1,0-0.2,0-0.3c-0.3-0.6-0.7-1.1-1.3-1.4c-0.6-0.3-1.2-0.5-1.9-0.5c-2.1,0-3.7,1.5-3.7,3.9c0,2.5,1.5,3.9,3.7,3.9
	c2,0,3.4-1.2,3.4-3.2v-0.3c0-0.1,0-0.2,0-0.3c0-0.1-0.1-0.2-0.1-0.2c-0.1-0.1-0.1-0.1-0.2-0.1C73.9,10.8,73.8,10.8,73.7,10.8z"/>
<path class="st0" d="M62,7.6c0-0.1-0.1-0.2-0.2-0.3c-0.1-0.1-0.2-0.1-0.4-0.1h-1.2c-0.1,0-0.3,0-0.4,0.1c-0.1,0.1-0.2,0.2-0.2,0.3
	L57.3,14c0,0.1,0,0.2,0,0.3c0,0.1,0.1,0.2,0.1,0.3c0.1,0.1,0.1,0.2,0.2,0.2c0.1,0,0.2,0.1,0.3,0.1h0.4c0.1,0,0.3,0,0.4-0.1
	c0.1-0.1,0.2-0.2,0.2-0.3l0.3-0.8c0-0.1,0.1-0.2,0.2-0.3c0.1-0.1,0.2-0.1,0.4-0.1h1.8c0.1,0,0.3,0,0.4,0.1c0.1,0.1,0.2,0.2,0.2,0.3
	l0.3,0.8c0,0.1,0.1,0.2,0.2,0.3c0.1,0.1,0.2,0.1,0.4,0.1h0.4c0.1,0,0.2,0,0.3-0.1c0.1,0,0.2-0.1,0.2-0.2c0.1-0.1,0.1-0.2,0.1-0.3
	c0-0.1,0-0.2,0-0.3L62,7.6z M60.8,11.8h-0.1c-0.1,0-0.2,0-0.3-0.1c-0.1,0-0.2-0.1-0.2-0.2c-0.1-0.1-0.1-0.2-0.1-0.3
	c0-0.1,0-0.2,0-0.3l0.7-2c0,0,0,0,0,0c0,0,0,0,0,0c0,0,0,0,0,0c0,0,0,0,0,0l0.7,2c0,0.1,0,0.2,0,0.3c0,0.1-0.1,0.2-0.1,0.3
	c-0.1,0.1-0.1,0.2-0.2,0.2C61,11.8,60.9,11.8,60.8,11.8z"/>
<path class="st0" d="M78.9,7.2h-0.3c-0.2,0-0.3,0.1-0.5,0.2c-0.1,0.1-0.2,0.3-0.2,0.5v6.3c0,0.2,0.1,0.3,0.2,0.5
	c0.1,0.1,0.3,0.2,0.5,0.2h0.3c0.2,0,0.3-0.1,0.5-0.2c0.1-0.1,0.2-0.3,0.2-0.5V7.9c0-0.2-0.1-0.3-0.2-0.5C79.2,7.3,79.1,7.2,78.9,7.2
	z"/>
<path class="st0" d="M86.8,8.5c0.3,0,0.6,0.1,0.9,0.2c0.3,0.1,0.5,0.3,0.7,0.6c0.1,0.2,0.2,0.3,0.3,0.4c0.1,0.1,0.3,0.1,0.5,0.1h0.3
	c0.1,0,0.2,0,0.3,0c0.1,0,0.2-0.1,0.2-0.2C90,9.6,90,9.5,90,9.4c0-0.1,0-0.2,0-0.3c-0.5-1.3-1.7-2.1-3.2-2.1c-2.1,0-3.7,1.4-3.7,3.9
	c0,2.5,1.5,3.9,3.7,3.9c1.7,0,2.8-0.9,3.2-2c0-0.1,0-0.2,0-0.3c0-0.1-0.1-0.2-0.1-0.2c-0.1-0.1-0.1-0.1-0.2-0.2c-0.1,0-0.2,0-0.3,0
	H89c-0.2,0-0.3,0.1-0.5,0.2c-0.1,0.1-0.2,0.2-0.3,0.4c-0.2,0.3-0.4,0.5-0.6,0.6c-0.3,0.1-0.6,0.2-0.9,0.2c-1.2,0-2-0.9-2-2.5
	C84.8,9.4,85.6,8.5,86.8,8.5z"/>
<path class="st0" d="M110.1,7.2H108c-0.2,0-0.3,0.1-0.5,0.2s-0.2,0.3-0.2,0.5v6.3c0,0.2,0.1,0.3,0.2,0.5s0.3,0.2,0.5,0.2h2.1
	c2.4,0,3.8-1.5,3.8-3.8C114,8.6,112.5,7.2,110.1,7.2z M110.1,13.4h-0.4c-0.2,0-0.3-0.1-0.5-0.2c-0.1-0.1-0.2-0.3-0.2-0.5V9.2
	c0-0.2,0.1-0.3,0.2-0.5c0.1-0.1,0.3-0.2,0.5-0.2h0.4c1.5,0,2.3,0.7,2.3,2.4C112.3,12.6,111.5,13.4,110.1,13.4z"/>
<path class="st0" d="M122.1,13.5h-2.3c-0.2,0-0.3-0.1-0.5-0.2s-0.2-0.3-0.2-0.5v-0.5c0-0.2,0.1-0.3,0.2-0.5s0.3-0.2,0.5-0.2h2
	c0.2,0,0.4-0.1,0.5-0.2c0.1-0.1,0.2-0.3,0.2-0.5c0-0.2-0.1-0.3-0.2-0.5s-0.3-0.2-0.5-0.2h-2c-0.2,0-0.3-0.1-0.5-0.2
	c-0.1-0.1-0.2-0.3-0.2-0.5V9.1c0-0.2,0.1-0.3,0.2-0.5c0.1-0.1,0.3-0.2,0.5-0.2h2.3c0.2,0,0.4-0.1,0.5-0.2c0.1-0.1,0.2-0.3,0.2-0.5
	c0-0.2-0.1-0.3-0.2-0.5c-0.1-0.1-0.3-0.2-0.5-0.2h-3.9c-0.2,0-0.3,0.1-0.5,0.2s-0.2,0.3-0.2,0.5v6.3c0,0.2,0.1,0.3,0.2,0.5
	c0.1,0.1,0.3,0.2,0.5,0.2h4c0.2,0,0.3-0.1,0.5-0.2c0.1-0.1,0.2-0.3,0.2-0.5c0-0.1,0-0.2,0-0.3c0-0.1-0.1-0.2-0.1-0.2
	c-0.1-0.1-0.1-0.1-0.2-0.1C122.3,13.5,122.2,13.5,122.1,13.5z"/>
<path class="st0" d="M132.3,7.2H132c-0.2,0-0.3,0.1-0.5,0.2c-0.1,0.1-0.2,0.3-0.2,0.5v4.1c0,0,0,0,0,0h0L128,7.5
	c-0.1-0.1-0.1-0.2-0.2-0.2c-0.1,0-0.2-0.1-0.3-0.1h-0.4c-0.2,0-0.3,0.1-0.5,0.2c-0.1,0.1-0.2,0.3-0.2,0.5v6.3c0,0.2,0.1,0.3,0.2,0.5
	c0.1,0.1,0.3,0.2,0.5,0.2h0.3c0.2,0,0.3-0.1,0.5-0.2c0.1-0.1,0.2-0.3,0.2-0.5v-4.1c0,0,0,0,0,0c0,0,0,0,0,0h0l3.2,4.5
	c0.1,0.1,0.1,0.2,0.2,0.2c0.1,0,0.2,0.1,0.3,0.1h0.4c0.2,0,0.3-0.1,0.5-0.2c0.1-0.1,0.2-0.3,0.2-0.5V7.8c0-0.2-0.1-0.3-0.2-0.4
	C132.6,7.3,132.4,7.2,132.3,7.2z"/>
<path class="st0" d="M25.8,5.8l2.1,2.4c0.2,0.3,0.5,0.5,0.5,0.6c0.6,0.6,1,1.4,1,2.3c-0.1,1-0.7,1.7-1.4,2.5l-1.5,1.7l-0.8,0.9
	c0,0,0,0.1-0.1,0.1c0,0,0,0.1,0,0.1c0,0,0,0.1,0.1,0.1c0,0,0.1,0,0.1,0h7.6c1.2,0,2.6,1,2.5,2.4c0,0.7-0.3,1.3-0.8,1.8
	c-0.5,0.5-1.1,0.7-1.8,0.7H21.7c-0.8,0-2.9,0.1-3.5-1.7c-0.1-0.4-0.1-0.8,0-1.2c0.2-0.6,0.4-1.1,0.8-1.6c0.6-0.9,1.2-1.8,1.9-2.6
	c0.8-1.1,1.7-2.2,2.5-3.3c0,0,0-0.1,0-0.1c0,0,0-0.1,0-0.1l-3-3.5c0,0,0,0-0.1-0.1c0,0-0.1,0-0.1,0s-0.1,0-0.1,0c0,0-0.1,0-0.1,0.1
	c-0.8,1.1-4.4,5.8-5.1,6.8c-0.8,1-2.6,1-3.7,0L6.4,9.5c0,0-0.1,0-0.1-0.1c0,0-0.1,0-0.1,0c0,0-0.1,0-0.1,0.1c0,0,0,0.1,0,0.1v8.9
	c0,0.6-0.2,1.3-0.5,1.8c-0.4,0.5-0.9,0.9-1.5,1.1c-0.4,0.1-0.8,0.2-1.2,0.1c-0.4-0.1-0.8-0.2-1.1-0.4c-0.3-0.2-0.6-0.5-0.8-0.9
	c-0.2-0.4-0.3-0.8-0.3-1.2V3c0-0.6,0.2-1.1,0.6-1.6C1.6,1,2.1,0.7,2.6,0.5c0.5-0.1,1-0.1,1.5,0c0.5,0.1,0.9,0.4,1.3,0.7l7.3,7.1
	c0,0,0,0,0.1,0c0,0,0.1,0,0.1,0c0,0,0.1,0,0.1,0c0,0,0.1,0,0.1-0.1l5.2-7c0.2-0.3,0.5-0.5,0.9-0.7s0.7-0.2,1.1-0.2h13.5
	c0.4,0,0.7,0.1,1.1,0.2C35,0.8,35.3,1,35.6,1.3c0.2,0.3,0.4,0.6,0.5,0.9s0.1,0.7,0.1,1.1c-0.1,0.6-0.4,1.2-0.9,1.6
	c-0.5,0.4-1.1,0.6-1.8,0.6H26c0,0-0.1,0-0.1,0c0,0-0.1,0-0.1,0.1c0,0,0,0.1,0,0.1C25.8,5.7,25.8,5.8,25.8,5.8z"/>
</svg>
