<?xml version="1.0" encoding="utf-8"?>
<!-- Generator: Adobe Illustrator 27.0.0, SVG Export Plug-In . SVG Version: 6.00 Build 0)  -->
<svg version="1.1" id="Layer_1" xmlns="http://www.w3.org/2000/svg" xmlns:xlink="http://www.w3.org/1999/xlink" x="0px" y="0px"
	 viewBox="0 0 45 44" style="enable-background:new 0 0 45 44;" xml:space="preserve">
<style type="text/css">
	.st0{clip-path:url(#SVGID_00000114775826055945099030000002923117583412518548_);}
	.st1{fill:#77767A;}
	.st2{fill:#18171A;}
	.st3{fill:#FFFFFF;}
</style>
<g>
	<defs>
		<rect id="SVGID_1_" x="0.8" width="44" height="44"/>
	</defs>
	<clipPath id="SVGID_00000171716063858005744870000015370405777247288222_">
		<use xlink:href="#SVGID_1_"  style="overflow:visible;"/>
	</clipPath>
	<g style="clip-path:url(#SVGID_00000171716063858005744870000015370405777247288222_);">
		<path class="st1" d="M3,27l-1.3,1.3L3.5,29L3,27z"/>
		<path class="st1" d="M3.7,29.6l-1,1.5l1.5,0.1L3.7,29.6z"/>
		<path class="st1" d="M2.3,24.5L1,25.7l1.9,0.7L2.3,24.5z"/>
		<path class="st2" d="M5.2,31.3l-3.1-7.7l-1.3-0.7l2-1.3l-2-1.5L3,19l-1.8-1.6l2.4-0.8l-1.6-1.9l2.4-0.5l-1.3-2L5.5,12L4.4,9.7
			l2.5,0.1L6.2,7.6l2.5,0.2L8.1,5.5l2.3,0.7l-0.2-2.4l2.3,1l0.2-2.3l2.1,1.3l0.4-2.4l1.9,1.5l0.7-2.3l1.7,1.7l1-2.1L22.1,2l1.2-2
			l1.3,2L26,0.2l1,2.2l1.8-1.7l0.7,2.4l1.9-1.4L31.8,4l2-1.1l0.1,2.5l2.2-1L36,6.9l2.4-0.6l-0.6,2.3l2.4-0.2l-0.8,2.2l2.5,0.1
			l-1.2,2.1l2.4,0.2l-1.5,1.9l2.4,0.7l-1.6,1.7l2.2,1l-1.8,1.5l2.1,1.4l-1.9,1.1l1.9,1.5l-2.1,1l1.8,1.8L42,27.3l1.5,1.9l-2.3,0.5
			l1.3,2.3L40,32l1,2.2l-2.4-0.1l0.7,2.3L37,36l0.5,2.4l-2.4-0.7l0.2,2.3l-2.2-0.9l0,2.5L31,40.3l-0.4,2.3l-1.9-1.4l-0.8,2.3
			L26,41.7l-0.9,2.1L23.6,42l-1.2,2L21,41.9l-1.5,1.8l-1-2.3l-1.7,1.8l-0.7-2.4l-2,1.6L13.9,40l-2,1.2l0-2.4l-2.3,0.9l0.3-2.4
			l-2.5,0.6l0.7-2.3l-2.4,0.3l0.8-2.3L4,33.5L5.2,31.3z"/>
		<path class="st1" d="M39.5,40.4c0-1.2,1-2.1,2.2-2.1c1.2,0,2.2,0.9,2.2,2.1c0,1.2-1,2.1-2.2,2.1C40.4,42.5,39.5,41.6,39.5,40.4z
			 M41.6,42.2c1,0,1.7-0.8,1.7-1.8c0-1-0.8-1.8-1.7-1.8c-1,0-1.7,0.8-1.7,1.8C39.9,41.4,40.6,42.2,41.6,42.2z M41.2,41.6h-0.4l0-2.5
			h0.9c0.6,0,0.9,0.2,0.9,0.7c0,0.4-0.3,0.6-0.6,0.7l0.7,1.1h-0.4l-0.7-1.1h-0.4V41.6z M41.6,40.2c0.3,0,0.6,0,0.6-0.4
			c0-0.3-0.3-0.4-0.5-0.4h-0.5v0.8H41.6z"/>
		<path class="st3" d="M1.9,22.9L4,22.3l4.1,6.1l0,0l0.5-7.3l2.1-0.5l2.3,8.6l-1.4,0.4l-1.8-6.6l0,0l-0.6,7.3L8,30.5l-4.1-6h0
			l1.8,6.6l-1.4,0.4L1.9,22.9z"/>
		<path class="st3" d="M14.4,19.5l1.6-0.4l5.6,7.7l-1.6,0.4l-1.4-2.1l-3.4,0.9L15,28.6L13.4,29L14.4,19.5z M15.2,24.8l2.6-0.7
			l-2.3-3.4h0l0,0L15.2,24.8z"/>
		<path class="st3" d="M17,18.8l6.8-1.8l0.4,1.3L21.5,19l2,7.3L22,26.7l-2-7.3l-2.7,0.7L17,18.8z"/>
		<path class="st3" d="M22.6,17.3l6.8-1.8l0.3,1.3l-2.7,0.7l2,7.3l-1.5,0.4l-2-7.3L23,18.6L22.6,17.3z"/>
		<path class="st3" d="M30,15.3l5.9-1.6l0.4,1.3l-4.4,1.2l0.6,2.3l4.1-1.1l0.3,1.2l-4.1,1.1l0.7,2.5L38,21l0.4,1.3l-6,1.6L30,15.3z"
			/>
		<path class="st3" d="M36.7,13.6l1.5-0.4l2,7.3l4.3-1.1l0.4,1.3L39,22.1L36.7,13.6z"/>
	</g>
</g>
</svg>
