<?xml version="1.0" encoding="utf-8"?>
<!-- Generator: Adobe Illustrator 27.0.0, SVG Export Plug-In . SVG Version: 6.00 Build 0)  -->
<svg version="1.1" id="Layer_1" xmlns="http://www.w3.org/2000/svg" xmlns:xlink="http://www.w3.org/1999/xlink" x="0px" y="0px"
	 viewBox="0 0 94 24" style="enable-background:new 0 0 94 24;" xml:space="preserve">
<style type="text/css">
	.st0{clip-path:url(#SVGID_00000170244274496855581740000003555053590480700073_);}
	.st1{fill:#18171A;}
</style>
<g>
	<defs>
		<rect id="SVGID_1_" x="0.8" width="93" height="24"/>
	</defs>
	<clipPath id="SVGID_00000047776901441770492150000007995965655431571884_">
		<use xlink:href="#SVGID_1_"  style="overflow:visible;"/>
	</clipPath>
	<g style="clip-path:url(#SVGID_00000047776901441770492150000007995965655431571884_);">
		<path class="st1" d="M14.2,7L9.5,19.5L4.8,7h-4l6.6,16.5h4.2L18.2,7H14.2z M38.1,7h3.6v16.5h-3.6V7z M38.3,0.7
			c-0.8,0.9-0.8,2.2,0.1,3.1c0.9,0.8,2.2,0.9,3.2,0.1c0.4-0.4,0.7-1,0.7-1.6s-0.2-1.2-0.7-1.6C41.2,0.3,40.6,0,40,0
			C39.3,0,38.7,0.2,38.3,0.7z M52.9,20.4c-1.4,0-2.8-0.5-3.7-1.5c-1-1-1.5-2.2-1.5-3.7s0.5-2.7,1.5-3.7s2.3-1.5,3.7-1.5
			c2,0,3.6,1,4.4,2.5l3.1-1.8c-1.3-2.6-4.2-4.3-7.5-4.3c-2.5,0-4.7,0.8-6.4,2.5c-1.7,1.6-2.5,3.7-2.5,6.2c0,2.4,0.8,4.5,2.5,6.2
			c1.7,1.7,3.8,2.5,6.4,2.5c3.3,0,6.1-1.6,7.6-4.3l-3.1-1.8C56.6,19.4,54.9,20.4,52.9,20.4z"/>
		<path class="st1" d="M26.9,6.6c2.5,0,4.6,0.8,6.3,2.5c1.7,1.7,2.6,3.7,2.6,6.2c0,2.4-0.9,4.5-2.6,6.2c-1.7,1.7-3.8,2.5-6.3,2.5
			s-4.6-0.8-6.3-2.5c-1.7-1.7-2.6-3.7-2.6-6.2c0-2.4,0.9-4.5,2.6-6.2C22.3,7.4,24.4,6.6,26.9,6.6z M23.1,19c2.1,2,5.4,2,7.5,0
			c1-1,1.5-2.2,1.5-3.7s-0.5-2.7-1.5-3.7c-2.1-2-5.4-2-7.5,0c-1,1-1.5,2.2-1.5,3.7C21.6,16.7,22.1,18,23.1,19z M76.5,9.1
			c1.6,1.7,2.4,3.8,2.4,6.2c0,0.5,0,1-0.1,1.5H65.4c0.5,2.5,2.6,3.9,5.4,3.9c1.9,0,3.4-0.7,4.3-2l3,1.7C76.4,22.8,74,24,70.7,24
			c-2.7,0-5-0.8-6.6-2.4c-1.7-1.6-2.5-3.7-2.5-6.2s0.8-4.5,2.5-6.2c1.7-1.7,3.8-2.5,6.4-2.5C72.9,6.6,75,7.4,76.5,9.1z M70.5,9.8
			c-2.7,0-4.6,1.5-5.1,4.1h9.9C74.8,11.2,72.9,9.8,70.5,9.8z"/>
		<path class="st1" d="M84.6,23.5h0.7v-4.9h1.8V18h-4.3v0.6h1.8V23.5z M92.8,23.5h0.7V18h-1l-1.8,4.2L89,18h-1v5.5h0.7v-4.6l1.9,4.6
			h0.3l1.9-4.6V23.5z"/>
	</g>
</g>
</svg>
