<?xml version="1.0" encoding="utf-8"?>
<!-- Generator: Adobe Illustrator 27.0.0, SVG Export Plug-In . SVG Version: 6.00 Build 0)  -->
<svg version="1.1" id="Layer_1" xmlns="http://www.w3.org/2000/svg" xmlns:xlink="http://www.w3.org/1999/xlink" x="0px" y="0px"
	 viewBox="0 0 41 40" style="enable-background:new 0 0 41 40;" xml:space="preserve">
<style type="text/css">
	.st0{clip-path:url(#SVGID_00000183243952541997480610000010280158821631357840_);}
	.st1{fill:#18171A;}
	.st2{fill:#F6FAFF;}
</style>
<g>
	<defs>
		<rect id="SVGID_1_" x="0.1" width="40" height="40"/>
	</defs>
	<clipPath id="SVGID_00000142170305719187133160000011970682016139696315_">
		<use xlink:href="#SVGID_1_"  style="overflow:visible;"/>
	</clipPath>
	<g style="clip-path:url(#SVGID_00000142170305719187133160000011970682016139696315_);">
		<path class="st1" d="M40.1,0h-40v40h40V0z"/>
		<path class="st2" d="M28.8,20.8c-0.7,0-1.2,0.6-1.2,1.2c0,0.7,0.5,1.2,1.2,1.2c0.2,0,0.3,0,0.5-0.1c0.1-0.1,0.3-0.1,0.4-0.3
			c0.1-0.1,0.2-0.2,0.3-0.4C30,22.3,30,22.2,30,22C30,21.4,29.5,20.8,28.8,20.8z M28.8,24.5c-1.4,0-2.5-1.1-2.5-2.5
			c0-1.4,1.1-2.5,2.5-2.5c0.3,0,0.6,0.1,1,0.2c0.3,0.1,0.6,0.3,0.8,0.5c0.2,0.2,0.4,0.5,0.5,0.8c0.1,0.3,0.2,0.6,0.2,1
			C31.3,23.4,30.2,24.5,28.8,24.5z M19.8,31h-1.3v-4.5h1.3L19.8,31z M21.7,31h-1.3v-4.5h1.3L21.7,31z M25.8,11.2l1.3-1.3L26.2,9
			l-1.3,1.3L24,11.2l1.7,1.7l-1.3,1.3l0.9,0.9l2.2-2.2L25.8,11.2z M11.3,22l0.6,1.1h-1.2L11.3,22z M11.3,19.5l-2.8,4.8h5.5
			L11.3,19.5z M17.1,10.4l-0.9-0.9l-1.6,1.6L13,9.5L12,10.4l1.6,1.6L12,13.6l0.9,0.9l1.6-1.6l1.6,1.6l0.9-0.9L15.5,12L17.1,10.4z"/>
	</g>
</g>
</svg>
