<svg width="33" height="37" viewBox="0 0 33 37" fill="none" xmlns="http://www.w3.org/2000/svg">
<rect x="2.64941" y="16.1868" width="25.1747" height="19.8747" fill="#C4C4C4"/>
<rect x="1.61157" y="8.67822" width="6.62492" height="27.383" fill="#C4C4C4"/>
<rect x="12.5264" y="8.94751" width="5.36849" height="13.7195" fill="#C4C4C4"/>
<path d="M12.3657 29.6572C12.3657 28.0717 13.651 26.7864 15.2365 26.7864C16.822 26.7864 18.1073 28.0717 18.1073 29.6572V36.0613H12.3657V29.6572Z" fill="#757575"/>
<path d="M22.2385 8.67822H28.8634V36.0612H22.2385V8.67822Z" fill="#C4C4C4"/>
<rect x="21.6423" y="8.67822" width="8.39155" height="3.09162" fill="#C4C4C4"/>
<rect y="8.67822" width="8.39155" height="3.09162" fill="#C4C4C4"/>
<rect y="7.35352" width="0.883317" height="4.41661" fill="#757575"/>
<rect x="3.97412" y="7.35352" width="0.883317" height="2.20831" fill="#757575"/>
<rect x="7.94946" y="7.35352" width="0.883317" height="9.27488" fill="#757575"/>
<rect x="7.94946" y="16.6282" width="0.883322" height="4.4166" transform="rotate(-90 7.94946 16.6282)" fill="#757575"/>
<rect x="12.3655" y="9.42944" width="0.883326" height="5.7416" transform="rotate(-90 12.3655 9.42944)" fill="#757575"/>
<rect x="12.3657" y="7.35352" width="0.883317" height="9.27488" fill="#757575"/>
<rect x="17.2244" y="7.35352" width="0.883317" height="9.27488" fill="#757575"/>
<rect x="21.6423" y="7.35352" width="0.883317" height="9.27488" fill="#757575"/>
<rect x="21.6423" y="16.6282" width="0.883317" height="19.4331" fill="#757575"/>
<rect x="7.94946" y="16.6282" width="0.883317" height="19.4331" fill="#757575"/>
<rect x="3.97412" y="11.77" width="0.883317" height="24.2913" fill="#757575"/>
<rect x="25.1748" y="11.77" width="0.883317" height="24.2913" fill="#757575"/>
<rect x="18.1077" y="16.6282" width="0.883322" height="4.4166" transform="rotate(-90 18.1077 16.6282)" fill="#757575"/>
<rect x="15.4583" y="20.1619" width="1.32498" height="2.20831" transform="rotate(-90 15.4583 20.1619)" fill="#757575"/>
<rect x="17.2244" y="21.4866" width="1.32499" height="2.20831" transform="rotate(-90 17.2244 21.4866)" fill="#757575"/>
<rect x="11.0413" y="23.6948" width="1.32498" height="2.20831" transform="rotate(-90 11.0413 23.6948)" fill="#757575"/>
<rect x="0.883057" y="11.77" width="0.883317" height="7.50823" transform="rotate(-90 0.883057 11.77)" fill="#757575"/>
<rect x="0.44165" y="9.56177" width="0.883322" height="7.50823" transform="rotate(-90 0.44165 9.56177)" fill="#757575"/>
<rect x="29.1501" y="7.35352" width="0.883317" height="4.41661" fill="#757575"/>
<path d="M25.6497 3.53329V0L32.2746 2.06108L25.6497 3.53329Z" fill="#00C988"/>
<rect x="25.1726" width="0.882807" height="8.94749" fill="#757575"/>
<path d="M4.44995 3.53329V0L11.0749 2.06108L4.44995 3.53329Z" fill="#00C988"/>
<rect x="3.9729" width="0.882826" height="8.94749" fill="#757575"/>
<rect x="21.6423" y="11.77" width="0.883317" height="7.50823" transform="rotate(-90 21.6423 11.77)" fill="#757575"/>
<rect x="21.6423" y="9.56177" width="0.883322" height="7.50823" transform="rotate(-90 21.6423 9.56177)" fill="#757575"/>
</svg>
