<svg width="58" height="60" viewBox="0 0 58 60" fill="none" xmlns="http://www.w3.org/2000/svg">
<path fill-rule="evenodd" clip-rule="evenodd" d="M21.9761 59.6514H38.0226V16.0469H21.9761V59.6514Z" fill="#A796FF"/>
<path fill-rule="evenodd" clip-rule="evenodd" d="M35.5811 56.512H32.0928V22.4433C32.0928 21.608 32.8733 20.9307 33.8373 20.9307C34.8006 20.9307 35.5811 21.608 35.5811 22.4433V56.512Z" fill="#3728B7"/>
<path fill-rule="evenodd" clip-rule="evenodd" d="M23.6299 21.5829H26.4873V19.8779H23.6299V21.5829Z" fill="#E2DCFF"/>
<path fill-rule="evenodd" clip-rule="evenodd" d="M23.6299 25.8622H26.4873V24.1572H23.6299V25.8622Z" fill="#4E3BDB"/>
<path fill-rule="evenodd" clip-rule="evenodd" d="M23.6299 30.1415H26.4873V28.4365H23.6299V30.1415Z" fill="#3728B7"/>
<path fill-rule="evenodd" clip-rule="evenodd" d="M24.71 56.1344V33.502H25.4076V56.1344H24.71Z" fill="black"/>
<path fill-rule="evenodd" clip-rule="evenodd" d="M32.0479 8.54932C32.3715 8.72977 32.6702 8.95378 32.9378 9.21512C33.6907 9.97427 34.1574 11.0196 34.1574 12.1708V16.3399H25.813V12.1708C25.813 10.6152 26.6593 9.2649 27.9162 8.54932C27.9162 8.54932 28.6235 7.95703 30.1305 7.95703C31.6376 7.95703 32.0479 8.54932 32.0479 8.54932Z" fill="#A796FF"/>
<path fill-rule="evenodd" clip-rule="evenodd" d="M32.0478 0V8.89194C31.4379 8.54348 30.7348 8.34436 29.9819 8.34436C29.229 8.34436 28.5258 8.54348 27.916 8.89816V0H32.0478Z" fill="#A796FF"/>
<path fill-rule="evenodd" clip-rule="evenodd" d="M34.1573 13.432H25.8135V12.7344H34.1573V13.432Z" fill="black"/>
<path fill-rule="evenodd" clip-rule="evenodd" d="M27.5674 15.9918V13.084H28.2651V15.9918H27.5674Z" fill="black"/>
<path fill-rule="evenodd" clip-rule="evenodd" d="M29.6328 15.9918V13.084H30.3305V15.9918H29.6328Z" fill="black"/>
<path fill-rule="evenodd" clip-rule="evenodd" d="M31.6992 15.9918V13.084H32.3969V15.9918H31.6992Z" fill="black"/>
<path fill-rule="evenodd" clip-rule="evenodd" d="M27.917 5.43464H30.6611V1.92578H27.917V5.43464Z" fill="#4E3BDB"/>
<path fill-rule="evenodd" clip-rule="evenodd" d="M6.73438 59.935H16.6378V44.8359H6.73438V59.935Z" fill="#6851FF"/>
<path fill-rule="evenodd" clip-rule="evenodd" d="M13.6285 59.9351H10.0928V51.5852C10.0928 50.6394 10.8843 49.8721 11.8606 49.8721C12.8369 49.8721 13.6285 50.6394 13.6285 51.5852V59.9351Z" fill="#3728B7"/>
<path fill-rule="evenodd" clip-rule="evenodd" d="M6.73438 47.9117H16.6378V44.8359H6.73438V47.9117Z" fill="#78F2B7"/>
<path fill-rule="evenodd" clip-rule="evenodd" d="M0 35.0491H6.73433V32.2529H0V35.0491Z" fill="#6851FF"/>
<path fill-rule="evenodd" clip-rule="evenodd" d="M16.6377 35.0491H23.372V32.2529H16.6377V35.0491Z" fill="#6851FF"/>
<path fill-rule="evenodd" clip-rule="evenodd" d="M0 39.2434H6.73433V36.4473H0V39.2434Z" fill="#6851FF"/>
<path fill-rule="evenodd" clip-rule="evenodd" d="M16.6377 39.2434H23.372V36.4473H16.6377V39.2434Z" fill="#6851FF"/>
<path fill-rule="evenodd" clip-rule="evenodd" d="M0 43.7173H6.73433V40.6416H0V43.7173Z" fill="#6851FF"/>
<path fill-rule="evenodd" clip-rule="evenodd" d="M16.6377 43.7173H23.372V40.6416H16.6377V43.7173Z" fill="#6851FF"/>
<path fill-rule="evenodd" clip-rule="evenodd" d="M0 47.9117H6.73433V44.8359H0V47.9117Z" fill="#6851FF"/>
<path fill-rule="evenodd" clip-rule="evenodd" d="M10.6955 32.2532H4.75342V25.8489C4.75342 23.5177 7.41417 21.6279 10.6955 21.6279V32.2532Z" fill="#6851FF"/>
<path fill-rule="evenodd" clip-rule="evenodd" d="M18.6188 32.2532H12.6768V21.6279C15.9581 21.6279 18.6188 23.5177 18.6188 25.8489V32.2532Z" fill="#6851FF"/>
<path fill-rule="evenodd" clip-rule="evenodd" d="M16.6377 47.9117H23.372V44.8359H16.6377V47.9117Z" fill="#6851FF"/>
<path fill-rule="evenodd" clip-rule="evenodd" d="M6.73438 35.0491H16.6378V32.2529H6.73438V35.0491Z" fill="#5FEEA4"/>
<path fill-rule="evenodd" clip-rule="evenodd" d="M6.73438 39.2434H16.6378V36.4473H6.73438V39.2434Z" fill="#78F2B7"/>
<path fill-rule="evenodd" clip-rule="evenodd" d="M2.77246 36.4469H20.2025V35.0488H2.77246V36.4469Z" fill="#3728B7"/>
<path fill-rule="evenodd" clip-rule="evenodd" d="M6.73438 43.7173H16.6378V40.6416H6.73438V43.7173Z" fill="#78F2B7"/>
<path fill-rule="evenodd" clip-rule="evenodd" d="M2.77246 40.6412H20.2025V39.2432H2.77246V40.6412Z" fill="#3728B7"/>
<path fill-rule="evenodd" clip-rule="evenodd" d="M2.77246 44.8352H20.2025V43.7168H2.77246V44.8352Z" fill="#3728B7"/>
<path fill-rule="evenodd" clip-rule="evenodd" d="M45.3486 59.9997V6.97656H46.0463V59.9997H45.3486Z" fill="black"/>
<path fill-rule="evenodd" clip-rule="evenodd" d="M57.5578 27.1112H33.8369L45.6974 22.6738L57.5578 27.1112Z" fill="#5FEEA4"/>
<path fill-rule="evenodd" clip-rule="evenodd" d="M33.8369 28.2734H57.5578L45.6974 32.7108L33.8369 28.2734Z" fill="#5FEEA4"/>
<path fill-rule="evenodd" clip-rule="evenodd" d="M36.8081 28.2732H54.5872V27.1113H36.8081V28.2732Z" fill="#00907E"/>
<path fill-rule="evenodd" clip-rule="evenodd" d="M57.5578 40.3964H33.8369L45.6974 35.959L57.5578 40.3964Z" fill="#6851FF"/>
<path fill-rule="evenodd" clip-rule="evenodd" d="M33.8369 41.5586H57.5578L45.6974 45.996L33.8369 41.5586Z" fill="#6851FF"/>
<path fill-rule="evenodd" clip-rule="evenodd" d="M36.8081 41.5584H54.5872V40.3965H36.8081V41.5584Z" fill="#5FEEA4"/>
<path d="M45.9531 13.7206V10.5996L51.8049 12.4202L45.9531 13.7206Z" fill="#00C988"/>
<path d="M45.9541 10.0975V6.97656L51.8059 8.79713L45.9541 10.0975Z" fill="#00C988"/>
<path d="M45.9897 17.3427V14.2217L51.8416 16.0423L45.9897 17.3427Z" fill="#00C988"/>
<path d="M45.9897 20.9647V17.8438L51.8416 19.6643L45.9897 20.9647Z" fill="#00C988"/>
</svg>
