<svg width="35" height="38" viewBox="0 0 35 38" fill="none" xmlns="http://www.w3.org/2000/svg">
<path d="M16.8062 2.75277V0L21.2394 1.60578L16.8062 2.75277Z" fill="#00C988"/>
<path d="M16.7002 5.81673V3.06396L21.1335 4.66975L16.7002 5.81673Z" fill="#00C988"/>
<path d="M16.7002 9.14315V6.39038L21.1335 7.99616L16.7002 9.14315Z" fill="#00C988"/>
<rect x="16.3631" y="0.147776" width="0.295552" height="9.90231" fill="#A47333" stroke="#212121" stroke-width="0.295552"/>
<path d="M6.74951 33.6182H27.3947V37.1347H6.74951V33.6182Z" fill="#00C988"/>
<path d="M9.13184 26.0825H25.0128V29.0967H9.13184V26.0825Z" fill="#00C988"/>
<path d="M11.9106 17.0398H21.8124V21.4249H11.9106V17.0398Z" fill="#00C988"/>
<mask id="mask0" mask-type="alpha" maskUnits="userSpaceOnUse" x="0" y="28" width="35" height="6">
<rect y="28.5945" width="34.161" height="5.36996" fill="#C4C4C4"/>
</mask>
<g mask="url(#mask0)">
<path fill-rule="evenodd" clip-rule="evenodd" d="M5.10312 28.8184H8.0448H23.5161H28.3144C28.3144 28.8184 29.1837 32.888 33.7786 33.9431C36.4683 34.5607 25.7496 34.4553 16.3984 34.2617C7.32856 34.4553 -3.0508 34.5607 -0.361122 33.9431C4.23381 32.888 5.10312 28.8184 5.10312 28.8184Z" fill="#6851FF"/>
</g>
<mask id="mask1" mask-type="alpha" maskUnits="userSpaceOnUse" x="2" y="20" width="30" height="7">
<rect x="2.96973" y="20.7559" width="28.2199" height="5.63805" fill="#C4C4C4"/>
</mask>
<g mask="url(#mask1)">
<path fill-rule="evenodd" clip-rule="evenodd" d="M7.18652 20.9907H9.61592H22.3973H26.3603C26.3603 20.9907 27.0785 25.2636 30.8743 26.3713C33.0962 27.0198 24.2419 26.9091 16.5171 26.7058C9.02467 26.9091 0.450698 27.0198 2.67258 26.3713C6.46839 25.2636 7.18652 20.9907 7.18652 20.9907Z" fill="#6851FF"/>
</g>
<mask id="mask2" mask-type="alpha" maskUnits="userSpaceOnUse" x="7" y="9" width="20" height="9">
<rect x="7.1792" y="9.54492" width="19.5559" height="8.14385" fill="#C4C4C4"/>
</mask>
<g mask="url(#mask2)">
<path fill-rule="evenodd" clip-rule="evenodd" d="M14.0199 9.88428H14.7135H18.6196H20.1285C20.1285 9.88428 24.3393 16.0562 26.9697 17.6563C28.5094 18.5929 22.3735 18.433 17.0203 18.1394C11.8282 18.433 5.88648 18.5929 7.42621 17.6563C10.0566 16.0562 14.0199 9.88428 14.0199 9.88428Z" fill="#6851FF"/>
</g>
<path d="M17.0806 14.5686H19.5924V16.0757H17.0806V14.5686Z" fill="#E2DCFF"/>
<path d="M15.5732 23.1089H18.0851V24.616H15.5732V23.1089Z" fill="#3728B7"/>
<path d="M20.0947 23.1089H22.6066V24.616H20.0947V23.1089Z" fill="#212121"/>
<path d="M9.54541 30.6443H12.0572V32.1514H9.54541V30.6443Z" fill="#A796FF"/>
<path d="M17.583 30.6443H20.0948V32.1514H17.583V30.6443Z" fill="#3728B7"/>
</svg>
