<svg width="22" height="36" viewBox="0 0 22 36" fill="none" xmlns="http://www.w3.org/2000/svg">
<rect x="11.0016" y="0.231089" width="0.462178" height="7.85703" fill="#A47333" stroke="#757575" stroke-width="0.462178"/>
<path d="M11.6947 3.69743V0L18.6274 2.15683L11.6947 3.69743Z" fill="#00C988"/>
<rect x="4.36963" y="12.4841" width="13.7326" height="19.3505" fill="#BDBDBD"/>
<rect x="4.36963" y="27.2922" width="1.38654" height="2.31089" transform="rotate(-90 4.36963 27.2922)" fill="#757575"/>
<rect x="15.6053" y="18.24" width="1.38652" height="2.31089" transform="rotate(-90 15.6053 18.24)" fill="#757575"/>
<path d="M9.36279 20.5989C9.36279 19.5647 10.2012 18.7263 11.2354 18.7263C12.2696 18.7263 13.1081 19.5647 13.1081 20.5989V23.0958H9.36279V20.5989Z" fill="#757575"/>
<path d="M9.36279 29.338C9.36279 28.3037 10.2012 27.4653 11.2354 27.4653C12.2696 27.4653 13.1081 28.3037 13.1081 29.338V31.8348H9.36279V29.338Z" fill="#757575"/>
<path d="M2.39323 31.8347H20.0792L21.8478 35.58H0.624634L2.39323 31.8347Z" fill="#939393"/>
<path d="M11.2358 6.86621L20.9662 14.3567H1.50531L11.2358 6.86621Z" fill="#939393"/>
</svg>
