<svg width="64" height="64" viewBox="0 0 64 64" fill="none" xmlns="http://www.w3.org/2000/svg">
    <path d="M12.8853 51.7173C11.1298 49.9619 10.6314 47.3567 11.6549 45.286L28.9364 10.3227C29.1619 9.8665 29.7524 9.73513 30.2099 10.0309C39.3178 15.9193 47.2915 23.7521 53.2918 32.7921L53.9809 33.8303C54.2736 34.2713 54.1503 34.8389 53.7122 35.0667L19.4065 52.9021C17.3258 53.9838 14.6691 53.5011 12.8853 51.7173Z" fill="black"/>
    <path d="M12.8859 51.7177C11.1304 49.9623 10.6321 47.3571 11.6556 45.2864L29.0114 10.1726C29.155 9.882 29.5811 9.90221 29.744 10.2074C34.6009 19.3073 41.897 27.0038 50.7422 32.3577L53.7824 34.1979C54.1075 34.3947 54.1204 34.8551 53.8055 35.0189L19.4071 52.9025C17.3265 53.9842 14.6697 53.5015 12.8859 51.7177Z" fill="#6851FF"/>
    <mask id="mask0" mask-type="alpha" maskUnits="userSpaceOnUse" x="11" y="9" width="44" height="45">
        <path d="M12.8855 51.7175C11.13 49.962 10.6316 47.3569 11.6551 45.2861L29.3543 9.47778L41.9383 22.0618L54.5223 34.6458L19.4067 52.9022C17.326 53.9839 14.6692 53.5013 12.8855 51.7175Z" fill="#6851FF"/>
    </mask>
    <g mask="url(#mask0)">
        <path d="M20.3033 18.5288L22.478 16.3541C30.7144 25.3144 39.348 33.948 48.3083 42.1844L46.1336 44.3591C37.1733 36.1228 28.5396 27.4891 20.3033 18.5288Z" fill="white"/>
        <path d="M6.6221 32.21L8.79682 30.0353C17.0332 38.9955 25.6668 47.6292 34.6271 55.8656L32.4524 58.0403C23.4921 49.8039 14.8585 41.1703 6.6221 32.21Z" fill="white"/>
    </g>
    <rect x="43.8456" y="3.8374" width="3.98277" height="3.98277" rx="0.995693" transform="rotate(15 43.8456 3.8374)" fill="#6851FF"/>
    <rect x="56.7896" y="0.850098" width="3.98277" height="3.98277" rx="0.995693" transform="rotate(15 56.7896 0.850098)" fill="black"/>
    <rect x="7.96555" y="4.66211" width="3.98277" height="3.98277" rx="0.995693" transform="rotate(-45 7.96555 4.66211)" fill="#6851FF"/>
    <rect x="1.52588e-05" y="21.7598" width="3.98277" height="3.98277" rx="0.995693" fill="black"/>
    <rect x="43.8105" y="47.6475" width="3.98277" height="3.98277" rx="0.995693" fill="black"/>
    <rect x="59.7416" y="42.6689" width="3.98277" height="3.98277" rx="0.995693" fill="#6851FF"/>
    <rect x="59.7416" y="16.7812" width="3.98277" height="3.98277" rx="0.995693" fill="black"/>
    <path fill-rule="evenodd" clip-rule="evenodd" d="M37.8429 7.08816C37.6159 4.66685 36.6996 2.55123 36.1105 1.70027L38.5665 0C39.4709 1.30638 40.546 3.9203 40.8169 6.80935C41.0905 9.728 40.5598 13.1828 37.8967 15.8459L35.7845 13.7337C37.6021 11.9162 38.0671 9.47987 37.8429 7.08816Z" fill="black"/>
    <path fill-rule="evenodd" clip-rule="evenodd" d="M48.6352 26.0268C47.2521 26.3005 46.3601 26.733 45.9226 27.1704L43.8105 25.0582C44.8666 24.0022 46.4513 23.414 48.0553 23.0966C49.7032 22.7704 51.585 22.6885 53.4493 22.8066C55.3167 22.925 57.2181 23.2473 58.9103 23.761C60.5777 24.2672 62.1591 24.9943 63.2834 25.9936L61.2989 28.2262C60.631 27.6325 59.5116 27.0652 58.0426 26.6193C56.5983 26.1808 54.9277 25.8934 53.2604 25.7877C51.59 25.6818 49.9745 25.7617 48.6352 26.0268Z" fill="#6851FF"/>
    <path fill-rule="evenodd" clip-rule="evenodd" d="M58.5643 12.962C58.0897 13.3009 57.4302 13.191 57.0913 12.7164C56.4272 11.7865 55.3974 10.6052 54.4532 9.96542C53.9665 9.63563 53.654 9.5545 53.5083 9.55962C53.5072 9.55965 53.5057 9.55956 53.5038 9.55944C53.4763 9.55767 53.3677 9.55068 53.2068 9.87884C52.203 11.927 52.994 14.0928 53.5142 14.8898C53.8019 15.3305 53.7211 15.9157 53.3248 16.262C52.9286 16.6083 52.3379 16.61 51.9397 16.2659C51.4411 15.8352 50.5614 15.1789 49.5917 14.6513C48.6748 14.1524 47.8241 13.8502 47.1862 13.8299C47.1785 13.8872 47.1719 13.9637 47.1699 14.0631C47.1584 14.6365 47.2951 15.4223 47.4605 16.3723C47.4683 16.4177 47.4763 16.4634 47.4843 16.5095C47.6448 17.433 47.8321 18.5351 47.7619 19.4256C47.7264 19.8762 47.6175 20.4095 47.2918 20.8586C46.9272 21.3614 46.3833 21.6335 45.7565 21.6719C43.0447 21.8383 41.1683 20.042 40.5406 19.1053C40.2159 18.6209 40.3454 17.965 40.8298 17.6403C41.3143 17.3157 41.9702 17.4452 42.2948 17.9296C42.6793 18.5032 43.9224 19.6573 45.6038 19.5654C45.621 19.513 45.6441 19.4175 45.6566 19.2596C45.7017 18.6874 45.5769 17.8678 45.4037 16.871C45.3911 16.7987 45.3782 16.7253 45.3652 16.651C45.2146 15.7911 45.0426 14.8091 45.0585 14.0206C45.0671 13.5941 45.1293 13.0704 45.3945 12.6174C45.7061 12.0849 46.2308 11.7638 46.8734 11.7244C48.1475 11.6462 49.5183 12.2071 50.601 12.7962C50.6192 12.8061 50.6373 12.816 50.6554 12.826C50.5253 11.6456 50.6507 10.2956 51.3105 8.94941C51.7526 8.04743 52.4856 7.48242 53.4342 7.44909C54.2544 7.42027 55.0283 7.80411 55.6379 8.21714C56.8862 9.06301 58.0884 10.4788 58.8099 11.4891C59.1488 11.9636 59.0388 12.6231 58.5643 12.962Z" fill="#6851FF"/>
</svg>
