<svg width="64" height="64" viewBox="0 0 64 64" fill="none" xmlns="http://www.w3.org/2000/svg">
    <path fill-rule="evenodd" clip-rule="evenodd" d="M3 20.8492L27.977 4.22594C30.3938 2.59135 33.6057 2.59135 36.0226 4.22595L60.9995 20.8492V55.158C60.9995 58.3845 58.3015 61 54.9733 61H9.02625C5.69804 61 3 58.3845 3 55.158V20.8492Z" fill="#6851FF"/>
    <path d="M57.1334 50.5048V15.1524C57.1334 12.7119 55.3683 10.7334 53.1909 10.7334H10.8092C8.63181 10.7334 6.8667 12.7119 6.8667 15.1524V50.5048C6.8667 54.1657 9.51436 57.1334 12.7804 57.1334H51.2196C54.4857 57.1334 57.1334 54.1657 57.1334 50.5048Z" fill="white"/>
    <path fill-rule="evenodd" clip-rule="evenodd" d="M3 20.3999V58.8724C3 60.6332 4.91042 61.6291 6.23174 60.5571L32 39.6505L3 20.3999Z" fill="#6851FF"/>
    <path fill-rule="evenodd" clip-rule="evenodd" d="M61 20.3999V58.8724C61 60.6332 59.0896 61.6291 57.7683 60.5571L32 39.6505L61 20.3999Z" fill="#6851FF"/>
    <path fill-rule="evenodd" clip-rule="evenodd" d="M5.21153 61.0003C3.28217 61.0003 2.28149 58.9629 3.59721 57.7136L26.3499 36.1089C29.4043 33.2085 34.5956 33.2085 37.6501 36.1088L60.4028 57.7136C61.7185 58.9629 60.7178 61.0003 58.7885 61.0003H5.21153Z" fill="black"/>
    <path d="M36.8349 18.717C35.5471 17.6165 33.6505 17.8273 32.4564 19.0449L32.0115 19.5132L31.5432 19.0449C30.3724 17.8273 28.4524 17.6165 27.1646 18.717C25.6895 19.9814 25.6192 22.2293 26.9304 23.5873L31.4729 28.2703C31.7539 28.5747 32.2456 28.5747 32.5266 28.2703L37.0691 23.5873C38.3803 22.2293 38.3101 19.9814 36.8349 18.717Z" fill="#6851FF"/>
</svg>
