<svg width="64" height="64" viewBox="0 0 64 64" fill="none" xmlns="http://www.w3.org/2000/svg">
    <rect y="17.5" width="64" height="11" rx="2" fill="#6851FF"/>
    <path d="M5 21.5H59V55.5C59 58.8137 56.3137 61.5 53 61.5H11C7.68629 61.5 5 58.8137 5 55.5V21.5Z" fill="#6851FF"/>
    <rect width="12" height="11" transform="matrix(-1 0 0 1 38 17.5)" fill="white"/>
    <path fill-rule="evenodd" clip-rule="evenodd" d="M22.2389 7.41983L22.239 7.41985C22.2405 7.42072 22.3027 7.45543 22.4257 7.54829C22.5478 7.64055 22.7043 7.77069 22.8935 7.94641C23.2766 8.30222 23.7229 8.77843 24.2169 9.36934C25.2069 10.5537 26.2419 12.0229 27.1814 13.5099C27.3063 13.7076 27.4284 13.904 27.5476 14.0984C27.3081 14.099 27.0651 14.0983 26.8197 14.0959C24.9732 14.0784 23.0954 13.9746 21.5039 13.7648C20.7098 13.6601 20.0457 13.5366 19.5248 13.4042C19.2675 13.3388 19.0688 13.2771 18.9223 13.2243C18.7748 13.1711 18.7116 13.1381 18.71 13.1373L18.71 13.1373C16.7243 12.0649 16.2524 9.92447 17.144 8.47995C18.0356 7.03543 20.2533 6.34747 22.2389 7.41983ZM32 12.5222C29.9122 9.01631 26.9074 4.85887 24.5916 3.6082C20.5017 1.39948 15.3429 2.59537 13.0691 6.2793C10.7953 9.96324 12.2674 14.7402 16.3573 16.9489C18.9615 18.3553 25.4042 18.6295 29.8595 18.4518L29.8632 18.4516C30.6476 18.4203 31.3703 18.3749 31.9995 18.3193C32.6289 18.375 33.3519 18.4204 34.1368 18.4517L34.1405 18.4519C38.5958 18.6296 45.0385 18.3554 47.6427 16.949C51.7326 14.7403 53.2047 9.96333 50.9309 6.2794C48.6571 2.59547 43.4983 1.39958 39.4084 3.6083C37.0926 4.85896 34.0879 9.01633 32 12.5222ZM45.29 13.1374L45.29 13.1374C45.2884 13.1382 45.2252 13.1712 45.0777 13.2244C44.9312 13.2772 44.7325 13.3389 44.4752 13.4043C43.9543 13.5367 43.2902 13.6602 42.4961 13.7649C40.9046 13.9747 39.0268 14.0785 37.1803 14.096C36.9349 14.0984 36.6919 14.0991 36.4524 14.0985C36.5716 13.9041 36.6937 13.7077 36.8186 13.51C37.7581 12.023 38.7931 10.5538 39.7831 9.36944C40.2771 8.77852 40.7234 8.30232 41.1065 7.94651C41.2957 7.77079 41.4522 7.64065 41.5743 7.54838C41.6973 7.45552 41.7595 7.42082 41.761 7.41994L41.7611 7.41993C43.7467 6.34757 45.9644 7.03552 46.856 8.48005C47.7476 9.92457 47.2757 12.065 45.29 13.1374Z" fill="black"/>
    <rect x="5" y="28.5" width="54" height="4" fill="black"/>
    <rect width="8" height="29" transform="matrix(-1 0 0 1 36 32.5)" fill="white"/>
</svg>
