<svg width="714" height="556" viewBox="0 0 714 556" fill="none" xmlns="http://www.w3.org/2000/svg">
    <g filter="url(#filter0_f)">
        <ellipse cx="357" cy="278" rx="257" ry="178" fill="#F1EEFF"/>
    </g>
    <path d="M511 375.001H544C544 380.524 539.523 385.001 534 385.001H530.438C528.502 385.001 526.588 385.415 524.826 386.217L522.05 387.478C520.189 388.324 518.428 389.374 516.798 390.609L511 395.001V375.001Z" fill="#00C988"/>
    <path d="M200 375.001H167C167 380.524 171.477 385.001 177 385.001H180.562C182.498 385.001 184.412 385.415 186.174 386.217L188.95 387.478C190.811 388.324 192.572 389.374 194.202 390.609L200 395.001V375.001Z" fill="#6851FF"/>
    <g opacity="0.6" filter="url(#filter1_f)">
        <ellipse cx="524.5" cy="378.001" rx="2" ry="19.5" transform="rotate(90 524.5 378.001)" fill="#00907E"/>
    </g>
    <g opacity="0.6" filter="url(#filter2_f)">
        <ellipse rx="2" ry="19.5" transform="matrix(4.37114e-08 1 1 -4.37114e-08 186.5 378.001)" fill="#3728B7"/>
    </g>
    <path d="M337.75 268.001H378.25V292.001C378.25 295.315 375.564 298.001 372.25 298.001H343.75C340.436 298.001 337.75 295.315 337.75 292.001V268.001Z" fill="#3728B7"/>
    <rect x="334" y="265.001" width="48" height="8.25" rx="2" fill="#FF5635"/>
    <rect width="9" height="8.25" transform="matrix(-1 0 0 1 362.5 265.001)" fill="white"/>
    <path fill-rule="evenodd" clip-rule="evenodd" d="M350.679 257.441L350.679 257.441C350.68 257.442 350.727 257.468 350.819 257.537C350.911 257.606 351.028 257.704 351.17 257.836C351.457 258.103 351.792 258.46 352.163 258.903C352.905 259.791 353.681 260.893 354.386 262.008C354.48 262.157 354.571 262.304 354.661 262.45C354.481 262.45 354.299 262.45 354.115 262.448C352.73 262.435 351.322 262.357 350.128 262.2C349.532 262.121 349.034 262.028 348.644 261.929C348.451 261.88 348.302 261.834 348.192 261.794C348.081 261.754 348.034 261.73 348.032 261.729L348.032 261.729C346.543 260.925 346.189 259.319 346.858 258.236C347.527 257.153 349.19 256.637 350.679 257.441ZM358 261.268C356.434 258.638 354.181 255.52 352.444 254.582C349.376 252.926 345.507 253.823 343.802 256.585C342.096 259.348 343.201 262.931 346.268 264.588C348.221 265.642 353.053 265.848 356.395 265.715L356.397 265.715C356.986 265.691 357.528 265.657 358 265.615C358.472 265.657 359.014 265.691 359.603 265.715L359.605 265.715C362.947 265.848 367.779 265.643 369.732 264.588C372.799 262.931 373.904 259.348 372.198 256.586C370.493 253.823 366.624 252.926 363.556 254.582C361.819 255.52 359.566 258.638 358 261.268ZM367.968 261.729L367.968 261.729C367.966 261.73 367.919 261.754 367.808 261.794C367.698 261.834 367.549 261.88 367.356 261.929C366.966 262.029 366.468 262.121 365.872 262.2C364.678 262.357 363.27 262.435 361.885 262.448C361.701 262.45 361.519 262.45 361.339 262.45C361.429 262.304 361.52 262.157 361.614 262.008C362.319 260.893 363.095 259.791 363.837 258.903C364.208 258.46 364.543 258.103 364.83 257.836C364.972 257.704 365.089 257.606 365.181 257.537C365.273 257.468 365.32 257.442 365.321 257.441L365.321 257.441C366.81 256.637 368.473 257.153 369.142 258.236C369.811 259.319 369.457 260.925 367.968 261.729Z" fill="black"/>
    <rect x="337.75" y="273.251" width="40.5" height="3" fill="black"/>
    <rect width="6" height="21.75" transform="matrix(-1 0 0 1 361 276.251)" fill="white"/>
    <g filter="url(#filter3_b)">
        <path fill-rule="evenodd" clip-rule="evenodd" d="M137.982 131.001C124.185 131.001 113 142.189 113 155.991V202.847C113 216.649 124.185 227.837 137.982 227.837H275.382L287.873 249.704L300.364 227.837C314.161 227.837 325.346 216.649 325.346 202.847V155.991C325.346 142.189 314.161 131.001 300.364 131.001H137.982Z" fill="white" fill-opacity="0.7"/>
    </g>
    <rect opacity="0.3" x="133.734" y="146.557" width="116.63" height="10.3705" rx="5.18527" fill="#6851FF"/>
    <rect x="133.734" y="198.409" width="36.285" height="10.3705" rx="5.18527" fill="#6851FF"/>
    <rect opacity="0.3" x="180.387" y="198.409" width="121.814" height="10.3705" rx="5.18527" fill="#6851FF"/>
    <rect x="265.916" y="146.557" width="36.285" height="10.3705" rx="5.18527" fill="#6851FF"/>
    <rect x="133.734" y="172.483" width="69.9783" height="10.3705" rx="5.18527" fill="#6851FF"/>
    <rect opacity="0.3" x="214.08" y="172.483" width="31.1014" height="10.3705" rx="5.18527" fill="#6851FF"/>
    <rect x="255.548" y="172.483" width="46.6522" height="10.3705" rx="5.18527" fill="#6851FF"/>
    <g filter="url(#filter4_b)">
        <path fill-rule="evenodd" clip-rule="evenodd" d="M576.018 131.001C589.815 131.001 601 142.189 601 155.991V202.847C601 216.649 589.815 227.837 576.018 227.837H438.618L426.127 249.704L413.636 227.837C399.839 227.837 388.654 216.649 388.654 202.847V155.991C388.654 142.189 399.839 131.001 413.636 131.001H576.018Z" fill="white" fill-opacity="0.7"/>
    </g>
    <rect opacity="0.3" width="116.63" height="10.3705" rx="5.18527" transform="matrix(-1 0 0 1 580.265 146.557)" fill="#00C988"/>
    <rect width="36.285" height="10.3705" rx="5.18527" transform="matrix(-1 0 0 1 580.266 198.409)" fill="#00C988"/>
    <rect opacity="0.3" width="121.814" height="10.3705" rx="5.18527" transform="matrix(-1 0 0 1 533.613 198.409)" fill="#00C988"/>
    <rect width="36.285" height="10.3705" rx="5.18527" transform="matrix(-1 0 0 1 448.084 146.557)" fill="#00C988"/>
    <rect width="69.9783" height="10.3705" rx="5.18527" transform="matrix(-1 0 0 1 580.266 172.483)" fill="#00C988"/>
    <rect opacity="0.3" width="31.1014" height="10.3705" rx="5.18527" transform="matrix(-1 0 0 1 499.92 172.483)" fill="#00C988"/>
    <rect width="46.6522" height="10.3705" rx="5.18527" transform="matrix(-1 0 0 1 458.452 172.483)" fill="#00C988"/>
    <path d="M161.8 282.677L163.581 287.49L168.395 289.271L163.581 291.052L161.8 295.866L160.019 291.052L155.205 289.271L160.019 287.49L161.8 282.677Z" fill="#EBD092"/>
    <path d="M403.335 257.937L405.116 262.75L409.93 264.531L405.116 266.312L403.335 271.126L401.554 266.312L396.74 264.531L401.554 262.75L403.335 257.937Z" fill="#5FEEA4"/>
    <path d="M316.665 240.472L319.158 247.211L325.897 249.704L319.158 252.198L316.665 258.937L314.171 252.198L307.432 249.704L314.171 247.211L316.665 240.472Z" fill="#A796FF"/>
    <path d="M553.519 270.807L556.013 277.545L562.751 280.039L556.013 282.533L553.519 289.272L551.025 282.533L544.286 280.039L551.025 277.545L553.519 270.807Z" fill="#FBA67F"/>
    <path d="M381.73 322.989C380.87 317.254 375.943 313.012 370.144 313.012C362.965 313.012 357.475 319.409 358.564 326.505L361.863 347.989C362.784 353.989 365.481 359.575 369.608 364.026L390.785 386.871V347.304L388.379 344.417C385.639 341.129 383.854 337.152 383.219 332.92L381.73 322.989Z" fill="#00C988"/>
    <g opacity="0.6" filter="url(#filter5_f)">
        <ellipse cx="388" cy="364.501" rx="2" ry="19.5" fill="#00907E"/>
    </g>
    <path d="M389.654 338.637C389.654 301.175 420.022 270.807 457.484 270.807C494.946 270.807 525.314 301.175 525.314 338.637V414.736C525.314 419.643 519.201 421.892 516.021 418.155L495.417 393.941C493.31 391.466 489.488 391.466 487.381 393.941L461.502 424.355C459.395 426.831 455.573 426.831 453.466 424.355L427.587 393.941C425.48 391.466 421.658 391.466 419.551 393.941L398.948 418.155C395.767 421.892 389.654 419.643 389.654 414.736V338.637Z" fill="#00C988"/>
    <path d="M429.716 341.444C427.265 350.591 435.424 349.801 444.571 352.252C453.718 354.703 460.389 359.466 462.84 350.32C465.29 341.173 459.862 331.771 450.716 329.32C441.569 326.869 432.167 332.297 429.716 341.444Z" fill="white"/>
    <path d="M429.375 342.718C428.809 344.829 430.062 346.999 432.173 347.564C434.283 348.13 436.453 346.877 437.019 344.766C437.584 342.655 436.331 340.486 434.221 339.92C432.11 339.355 429.94 340.607 429.375 342.718Z" fill="black"/>
    <path d="M391.467 333.53C389.016 342.677 397.175 341.887 406.322 344.338C415.469 346.789 422.14 351.552 424.591 342.405C427.042 333.259 421.614 323.857 412.467 321.406C403.32 318.955 393.918 324.383 391.467 333.53Z" fill="white"/>
    <path d="M391.126 334.804C390.56 336.915 391.813 339.084 393.924 339.65C396.035 340.216 398.204 338.963 398.77 336.852C399.335 334.741 398.083 332.572 395.972 332.006C393.861 331.441 391.692 332.693 391.126 334.804Z" fill="black"/>
    <path d="M400.431 354.832C409.25 357.092 418.198 353.125 422.633 345.683L427.142 346.838C427.451 355.496 433.387 363.278 442.206 365.538C452.933 368.287 463.857 361.82 466.606 351.093C469.355 340.366 462.888 329.442 452.161 326.693C443.342 324.433 434.395 328.4 429.959 335.843L425.451 334.687C425.141 326.029 419.205 318.247 410.386 315.987C399.66 313.238 388.735 319.706 385.986 330.432C383.237 341.159 389.705 352.083 400.431 354.832Z" stroke="#00907E" stroke-width="6.55928"/>
    <g opacity="0.6" filter="url(#filter6_f)">
        <path d="M528 431.882C528 434.216 490.168 436.107 443.5 436.107C396.832 436.107 359 434.216 359 431.882C359 429.549 396.832 427.657 443.5 427.657C490.168 427.657 528 429.549 528 431.882Z" fill="#00907E"/>
    </g>
    <path fill-rule="evenodd" clip-rule="evenodd" d="M482 372.488C482 370.472 483.634 368.839 485.649 368.839H558.622C560.637 368.839 562.27 370.472 562.27 372.488C562.27 374.503 560.637 376.136 558.622 376.136H485.649C483.634 376.136 482 374.503 482 372.488Z" fill="#00907E"/>
    <path d="M505.292 339.484C505.904 337.418 507.802 336.001 509.957 336.001H565.485C568.737 336.001 571.073 339.13 570.149 342.248L563.302 365.356C562.69 367.422 560.792 368.839 558.638 368.839H501.481C499.042 368.839 497.29 366.492 497.983 364.154L505.292 339.484Z" fill="#00907E"/>
    <line x1="499.216" y1="369.785" x2="558.784" y2="369.785" stroke="#00AC85" stroke-width="2.43243" stroke-linecap="round"/>
    <path d="M530.62 351.098C531.359 348.634 533.626 346.947 536.199 346.947C540.1 346.947 542.899 350.708 541.778 354.446L541.624 354.958C540.885 357.422 538.617 359.109 536.045 359.109C532.143 359.109 529.345 355.348 530.466 351.611L530.62 351.098Z" fill="#5FEEA4"/>
    <path d="M335.401 322.989C336.261 317.254 341.187 313.012 346.986 313.012C354.165 313.012 359.656 319.409 358.566 326.505L355.268 347.989C354.347 353.989 351.649 359.575 347.522 364.026L326.346 386.871V347.304L328.752 344.417C331.492 341.129 333.276 337.152 333.911 332.92L335.401 322.989Z" fill="#6851FF"/>
    <g opacity="0.6" filter="url(#filter7_f)">
        <ellipse cx="330" cy="364.501" rx="2" ry="19.5" fill="#3728B7"/>
    </g>
    <path d="M327.476 338.637C327.476 301.175 297.108 270.807 259.646 270.807C222.185 270.807 191.816 301.175 191.816 338.637V414.736C191.816 419.643 197.93 421.892 201.11 418.155L221.713 393.941C223.82 391.466 227.643 391.466 229.749 393.941L255.628 424.355C257.735 426.831 261.558 426.831 263.664 424.355L289.543 393.941C291.65 391.466 295.473 391.466 297.579 393.941L318.183 418.155C321.363 421.892 327.476 419.643 327.476 414.736V338.637Z" fill="#6851FF"/>
    <path d="M287.414 341.444C289.865 350.591 281.706 349.801 272.559 352.252C263.413 354.703 256.742 359.466 254.291 350.32C251.84 341.173 257.268 331.771 266.415 329.32C275.562 326.869 284.963 332.297 287.414 341.444Z" fill="white"/>
    <path d="M287.756 342.718C288.321 344.829 287.069 346.999 284.958 347.564C282.847 348.13 280.677 346.877 280.112 344.766C279.546 342.655 280.799 340.486 282.91 339.92C285.02 339.355 287.19 340.607 287.756 342.718Z" fill="black"/>
    <path d="M325.663 333.53C328.114 342.677 319.955 341.887 310.808 344.338C301.661 346.789 294.991 351.552 292.54 342.405C290.089 333.259 295.517 323.857 304.664 321.406C313.811 318.955 323.212 324.383 325.663 333.53Z" fill="white"/>
    <path d="M326.005 334.804C326.57 336.915 325.318 339.084 323.207 339.65C321.096 340.216 318.926 338.963 318.361 336.852C317.795 334.741 319.048 332.572 321.159 332.006C323.269 331.441 325.439 332.693 326.005 334.804Z" fill="black"/>
    <g opacity="0.6" filter="url(#filter8_f)">
        <path d="M362 431.883C362 434.23 323.944 436.133 277 436.133C230.056 436.133 192 434.23 192 431.883C192 429.536 230.056 427.633 277 427.633C323.944 427.633 362 429.536 362 431.883Z" fill="#3728B7"/>
    </g>
    <path fill-rule="evenodd" clip-rule="evenodd" d="M231 372.488C231 370.472 229.366 368.839 227.351 368.839H154.378C152.363 368.839 150.73 370.472 150.73 372.488C150.73 374.503 152.363 376.136 154.378 376.136H227.351C229.366 376.136 231 374.503 231 372.488Z" fill="#3728B7"/>
    <path d="M207.708 339.484C207.096 337.418 205.198 336.001 203.043 336.001H147.515C144.263 336.001 141.927 339.13 142.851 342.248L149.698 365.356C150.31 367.422 152.208 368.839 154.362 368.839H211.519C213.958 368.839 215.71 366.492 215.017 364.154L207.708 339.484Z" fill="#3728B7"/>
    <line x1="1.21622" y1="-1.21622" x2="60.7838" y2="-1.21622" transform="matrix(-1 8.74228e-08 8.74228e-08 1 215 371.001)" stroke="#4E3BDB" stroke-width="2.43243" stroke-linecap="round"/>
    <path d="M182.38 351.098C181.641 348.634 179.374 346.947 176.801 346.947C172.9 346.947 170.101 350.708 171.222 354.446L171.376 354.958C172.115 357.422 174.383 359.109 176.955 359.109C180.857 359.109 183.655 355.348 182.534 351.611L182.38 351.098Z" fill="#A796FF"/>
    <defs>
        <filter id="filter0_f" x="0" y="0" width="714" height="556" filterUnits="userSpaceOnUse" color-interpolation-filters="sRGB">
            <feFlood flood-opacity="0" result="BackgroundImageFix"/>
            <feBlend mode="normal" in="SourceGraphic" in2="BackgroundImageFix" result="shape"/>
            <feGaussianBlur stdDeviation="50" result="effect1_foregroundBlur"/>
        </filter>
        <filter id="filter1_f" x="497" y="368.001" width="55" height="20" filterUnits="userSpaceOnUse" color-interpolation-filters="sRGB">
            <feFlood flood-opacity="0" result="BackgroundImageFix"/>
            <feBlend mode="normal" in="SourceGraphic" in2="BackgroundImageFix" result="shape"/>
            <feGaussianBlur stdDeviation="4" result="effect1_foregroundBlur"/>
        </filter>
        <filter id="filter2_f" x="159" y="368.001" width="55" height="20" filterUnits="userSpaceOnUse" color-interpolation-filters="sRGB">
            <feFlood flood-opacity="0" result="BackgroundImageFix"/>
            <feBlend mode="normal" in="SourceGraphic" in2="BackgroundImageFix" result="shape"/>
            <feGaussianBlur stdDeviation="4" result="effect1_foregroundBlur"/>
        </filter>
        <filter id="filter3_b" x="109" y="127.001" width="220.346" height="126.703" filterUnits="userSpaceOnUse" color-interpolation-filters="sRGB">
            <feFlood flood-opacity="0" result="BackgroundImageFix"/>
            <feGaussianBlur in="BackgroundImage" stdDeviation="2"/>
            <feComposite in2="SourceAlpha" operator="in" result="effect1_backgroundBlur"/>
            <feBlend mode="normal" in="SourceGraphic" in2="effect1_backgroundBlur" result="shape"/>
        </filter>
        <filter id="filter4_b" x="384.654" y="127.001" width="220.346" height="126.703" filterUnits="userSpaceOnUse" color-interpolation-filters="sRGB">
            <feFlood flood-opacity="0" result="BackgroundImageFix"/>
            <feGaussianBlur in="BackgroundImage" stdDeviation="2"/>
            <feComposite in2="SourceAlpha" operator="in" result="effect1_backgroundBlur"/>
            <feBlend mode="normal" in="SourceGraphic" in2="effect1_backgroundBlur" result="shape"/>
        </filter>
        <filter id="filter5_f" x="378" y="337.001" width="20" height="55" filterUnits="userSpaceOnUse" color-interpolation-filters="sRGB">
            <feFlood flood-opacity="0" result="BackgroundImageFix"/>
            <feBlend mode="normal" in="SourceGraphic" in2="BackgroundImageFix" result="shape"/>
            <feGaussianBlur stdDeviation="4" result="effect1_foregroundBlur"/>
        </filter>
        <filter id="filter6_f" x="342.1" y="410.757" width="202.8" height="42.25" filterUnits="userSpaceOnUse" color-interpolation-filters="sRGB">
            <feFlood flood-opacity="0" result="BackgroundImageFix"/>
            <feBlend mode="normal" in="SourceGraphic" in2="BackgroundImageFix" result="shape"/>
            <feGaussianBlur stdDeviation="8.45" result="effect1_foregroundBlur"/>
        </filter>
        <filter id="filter7_f" x="320" y="337.001" width="20" height="55" filterUnits="userSpaceOnUse" color-interpolation-filters="sRGB">
            <feFlood flood-opacity="0" result="BackgroundImageFix"/>
            <feBlend mode="normal" in="SourceGraphic" in2="BackgroundImageFix" result="shape"/>
            <feGaussianBlur stdDeviation="4" result="effect1_foregroundBlur"/>
        </filter>
        <filter id="filter8_f" x="175" y="410.633" width="204" height="42.5" filterUnits="userSpaceOnUse" color-interpolation-filters="sRGB">
            <feFlood flood-opacity="0" result="BackgroundImageFix"/>
            <feBlend mode="normal" in="SourceGraphic" in2="BackgroundImageFix" result="shape"/>
            <feGaussianBlur stdDeviation="8.5" result="effect1_foregroundBlur"/>
        </filter>
    </defs>
</svg>
