<svg width="64" height="64" viewBox="0 0 64 64" fill="none" xmlns="http://www.w3.org/2000/svg">
<path d="M18.668 36V40C18.668 42.9455 21.0558 45.3333 24.0013 45.3333H40.0013C42.9468 45.3333 45.3346 42.9455 45.3346 40V36" stroke="white" stroke-width="2" stroke-linecap="round"/>
<path d="M18.668 28V24C18.668 21.0545 21.0558 18.6667 24.0013 18.6667H40.0013C42.9468 18.6667 45.3346 21.0545 45.3346 24V28" stroke="white" stroke-width="2" stroke-linecap="round"/>
<path d="M24.6484 28.3542L31.9953 32.4435L39.2922 28.3783" stroke="white" stroke-width="2" stroke-linecap="round" stroke-linejoin="round"/>
<path d="M31.9961 39.6938V32.4355" stroke="white" stroke-width="2" stroke-linecap="round" stroke-linejoin="round"/>
<path d="M30.2735 24.3851L25.8305 26.7539C24.8237 27.29 24 28.6345 24 29.7388V34.2602C24 35.3646 24.8237 36.709 25.8305 37.2451L30.2735 39.6219C31.222 40.126 32.778 40.126 33.7265 39.6219L38.1695 37.2451C39.1763 36.709 40 35.3646 40 34.2602V29.7388C40 28.6345 39.1763 27.29 38.1695 26.7539L33.7265 24.3771C32.7696 23.873 31.222 23.873 30.2735 24.3851Z" stroke="white" stroke-width="2" stroke-linecap="round" stroke-linejoin="round"/>
<rect x="0.5" y="0.5" width="63" height="63" rx="15.5" stroke="url(#paint0_linear_12934_101416)"/>
<defs>
<linearGradient id="paint0_linear_12934_101416" x1="32" y1="0" x2="32" y2="64" gradientUnits="userSpaceOnUse">
<stop stop-color="white" stop-opacity="0.5"/>
<stop offset="1" stop-color="white" stop-opacity="0"/>
</linearGradient>
</defs>
</svg>
