<svg width="117" height="60" viewBox="0 0 117 60" fill="none" xmlns="http://www.w3.org/2000/svg">
<path d="M91.5748 20.3481C91.8074 20.5173 92.188 20.6019 92.7378 20.6019C93.0338 20.6019 93.2876 20.5384 93.499 20.4327C93.7105 20.3058 93.8796 20.179 94.0277 19.9887C94.1757 19.7983 94.2602 19.6292 94.3237 19.4177C94.3871 19.2063 94.4294 19.016 94.4294 18.8468C94.4294 18.5508 94.3237 18.297 94.1122 18.0856C93.9008 17.8741 93.5413 17.7896 93.0338 17.7896C92.7166 17.7896 92.4418 17.853 92.2303 17.9587C91.9977 18.0856 91.8074 18.2125 91.6594 18.4028C91.5114 18.5719 91.3845 18.7834 91.3211 18.9948C91.2365 19.2063 91.2153 19.4177 91.2153 19.6292C91.2365 19.9464 91.3634 20.179 91.5748 20.3481Z" fill="#231815"/>
<path d="M104.203 26.7363C104.182 26.6517 104.161 26.5883 104.119 26.5248C104.076 26.4614 104.013 26.3979 103.928 26.3557C103.844 26.3134 103.759 26.2922 103.653 26.2922C103.527 26.2922 103.4 26.3345 103.252 26.3979C103.188 26.4402 103.019 26.5248 102.786 26.694C102.554 26.842 102.258 27.0323 101.919 27.2649C101.581 27.4764 101.201 27.7089 100.778 27.9627C100.355 28.2164 99.9107 28.4279 99.4666 28.6393C99.0226 28.8508 98.5574 29.02 98.1133 29.1468C97.6693 29.2737 97.2252 29.3583 96.8235 29.3583C96.4428 29.3583 96.1468 29.2737 95.9354 29.0834C95.7239 28.9142 95.597 28.6605 95.597 28.3433C95.597 28.1319 95.6393 27.8993 95.7451 27.6032C95.7662 27.5609 95.8085 27.4975 95.8296 27.4552C95.8719 27.3495 95.9142 27.2649 95.9354 27.1592C96.02 26.9689 96.1257 26.7997 96.2314 26.6094C96.4217 26.2922 96.6332 25.9539 96.8869 25.6367C97.1195 25.3195 97.3732 25.0446 97.627 24.7909C97.8807 24.5372 98.1345 24.3469 98.3882 24.1777C98.642 24.0297 98.8746 23.9451 99.086 23.9451C99.2552 23.9451 99.382 24.0085 99.4243 24.1143C99.4666 24.22 99.4878 24.368 99.4878 24.516C99.4878 24.664 99.4878 24.8121 99.4878 24.9601C99.4878 25.1081 99.4878 25.235 99.4878 25.3195C99.4878 25.4464 99.5089 25.5521 99.5512 25.5944C99.5935 25.6367 99.7204 25.679 99.8895 25.679C100.228 25.679 100.503 25.5733 100.714 25.383C100.947 25.1927 101.116 24.9389 101.264 24.6429C101.412 24.3469 101.518 24.0297 101.581 23.6914C101.645 23.353 101.666 23.057 101.666 22.7821C101.666 22.5495 101.623 22.3592 101.56 22.2112C101.497 22.0632 101.391 21.9152 101.243 21.8306C101.095 21.746 100.968 21.6614 100.778 21.6191C100.608 21.5768 100.418 21.5557 100.228 21.5557C99.6358 21.5557 99.0649 21.6826 98.4939 21.9363C97.923 22.19 97.3732 22.5284 96.8658 22.9301C96.3371 23.3319 95.8508 23.8182 95.4067 24.3469C94.9627 24.8755 94.5609 25.4041 94.2438 25.9539C93.9054 26.5037 93.6517 27.0323 93.4614 27.5609C93.4402 27.6455 93.3979 27.7301 93.3768 27.8147C93.2499 27.9204 93.1019 28.0473 92.975 28.153C92.7001 28.3645 92.4253 28.5759 92.1504 28.7451C91.8755 28.9142 91.6006 29.0622 91.3257 29.168C91.0508 29.2737 90.7971 29.3371 90.5433 29.3371C90.3107 29.3371 90.1416 29.2948 90.0358 29.2314C89.909 29.1468 89.8455 28.9988 89.8455 28.7451C89.8455 28.6393 90.1416 27.8993 90.4376 27.1169L90.501 26.9689C90.6913 26.5248 90.8605 26.0808 91.0085 25.7424L91.0508 25.6367C91.1354 25.4253 91.1988 25.2561 91.2411 25.1927V25.1715C91.3046 25.0446 91.368 24.8966 91.4314 24.7698C91.4949 24.6217 91.5794 24.4737 91.6429 24.3257C91.7063 24.1777 91.8332 23.9662 91.9601 23.7336C92.0023 23.6491 92.0235 23.5645 92.0446 23.501C92.0658 23.4376 92.0658 23.3319 92.0869 23.2684C92.0869 22.9301 91.9601 22.6552 91.7275 22.4226C91.4737 22.2112 91.1988 22.0843 90.8394 22.0843C90.6279 22.0843 90.4376 22.1477 90.2262 22.2535C90.0147 22.3592 89.8455 22.5495 89.6975 22.7821C89.5284 23.1204 89.3803 23.4165 89.2323 23.7125C89.1055 23.9662 88.9786 24.1988 88.8728 24.4526C88.7671 24.7063 88.6825 24.8755 88.6403 24.9812C88.5134 25.2984 88.3654 25.6156 88.1751 25.975C88.0059 26.3134 87.8156 26.6728 87.6676 27.0534C87.6253 27.1592 87.583 27.286 87.5196 27.3918C87.4138 27.4341 87.287 27.4552 87.1812 27.4975C86.7795 27.6032 86.3566 27.6667 85.9548 27.6667C85.8279 27.6667 85.7222 27.6455 85.6165 27.6244C85.5108 27.6032 85.4473 27.5398 85.3839 27.4341C85.553 27.1592 85.7222 26.8631 85.8702 26.5037C86.0182 26.1442 86.1451 25.8059 86.2508 25.4676C86.3566 25.1292 86.4411 24.8332 86.4834 24.5583C86.5257 24.2834 86.568 24.1143 86.568 24.0297C86.568 23.6279 86.5046 23.2896 86.3566 22.9936C86.2085 22.6975 86.0182 22.4438 85.7857 22.2323C85.5531 22.0209 85.2782 21.8729 85.0033 21.7671C84.7284 21.6614 84.4324 21.598 84.1575 21.598C83.7557 21.598 83.3751 21.6403 82.9945 21.746C82.6139 21.8517 82.2544 21.9786 81.9161 22.1477C81.5566 22.3169 81.2394 22.5072 80.9011 22.7187C80.5839 22.9301 80.2667 23.1416 79.9918 23.3742C80.6474 22.0843 81.2817 20.7945 81.8738 19.4834C82.4658 18.1724 83.1002 16.8826 83.7557 15.6139C83.8614 15.4447 83.9672 15.2333 84.0517 15.0218C84.1363 14.8104 84.1786 14.62 84.1786 14.4297C84.1786 14.1971 84.094 14.0068 83.9249 13.8377C83.7557 13.6685 83.4808 13.6051 83.0579 13.6051C82.8887 13.6051 82.7407 13.6262 82.5716 13.6685C82.4236 13.7108 82.2755 13.7954 82.1275 13.88C82.0641 13.88 81.9372 13.9857 81.8315 14.0914C81.7258 14.1971 81.6412 14.3029 81.5989 14.4297L77.687 23.1416L77.6447 23.2262C77.5602 23.4165 77.4756 23.5856 77.4333 23.7125C77.3698 23.8605 77.3064 23.9874 77.2641 24.0931C77.2218 24.1988 77.1795 24.3046 77.1372 24.4103C77.0949 24.516 77.0527 24.6429 76.9892 24.7698C76.9258 24.9178 76.8624 25.0658 76.7778 25.2772C76.6932 25.4676 76.5875 25.7213 76.4606 26.0173C76.2703 26.4825 76.1223 26.9477 75.9954 27.4341C75.9108 27.7512 75.8685 28.0684 75.8474 28.3645C75.7628 28.4279 75.6571 28.4913 75.5725 28.5548C75.1284 28.8508 74.6844 29.0622 74.2826 29.2314C73.8809 29.4006 73.5214 29.464 73.2465 29.464C72.8448 29.464 72.6544 29.2948 72.6544 28.9777C72.6544 28.6182 72.7179 28.2587 72.8448 27.8358C72.9716 27.4341 73.1196 27.0112 73.31 26.5883C73.5003 26.1653 73.6906 25.7424 73.902 25.3407C74.1135 24.9389 74.3249 24.5372 74.4941 24.1777C74.6632 23.8182 74.8324 23.501 74.9593 23.205C75.0862 22.909 75.1496 22.6975 75.1496 22.5495C75.1496 22.2535 75.065 22.0209 74.8747 21.8094C74.6844 21.598 74.4306 21.4922 74.1135 21.4922C73.8174 21.4922 73.5637 21.598 73.3734 21.7883C73.1831 21.9786 72.9928 22.2323 72.8448 22.5284C72.6967 22.8244 72.5487 23.1416 72.4219 23.501C72.295 23.8605 72.147 24.1777 71.9778 24.4737C71.7452 24.9389 71.428 25.4253 71.0686 25.975C70.7091 26.5248 70.3073 27.0323 69.8633 27.5186C69.4192 28.005 68.9329 28.4067 68.4043 28.7239C67.8756 29.0411 67.3258 29.2103 66.7338 29.2103C66.5223 29.2103 66.3743 29.1468 66.2897 28.9988C66.2052 28.8508 66.1629 28.7239 66.1629 28.5548C66.184 28.1741 66.2474 27.7724 66.3955 27.3706C66.5223 26.9689 66.6915 26.5671 66.8818 26.1653C67.0721 25.7636 67.2836 25.383 67.495 25.0235C67.7065 24.664 67.9179 24.3046 68.1294 23.9874C68.3197 23.6702 68.4888 23.3953 68.6369 23.1416C68.7849 22.8878 68.8906 22.6975 68.9329 22.5495C68.954 22.4649 68.9752 22.3803 68.9752 22.2958C68.9752 22.1689 68.9329 22.042 68.8695 21.9363C68.806 21.8306 68.7003 21.746 68.5946 21.6826C68.4888 21.6191 68.362 21.5557 68.2139 21.5345C68.0871 21.5134 67.9602 21.4922 67.8333 21.4922C67.5373 21.4922 67.2836 21.5557 67.0298 21.7037C66.7761 21.8517 66.5646 22.1055 66.3743 22.4438C65.6342 23.7336 65.0633 24.8332 64.6615 25.7424C64.577 25.9327 64.4924 26.1231 64.4078 26.3134C64.2809 26.3768 64.1541 26.4614 64.006 26.546C63.4774 26.842 62.9276 27.138 62.3356 27.4341C61.7435 27.7301 61.1514 28.0261 60.5594 28.3222C59.9673 28.6182 59.4175 28.8508 58.9523 29.0622C58.8889 29.0622 58.8466 29.0411 58.8255 29.02C58.8043 28.9988 58.8043 28.9354 58.8043 28.8719C58.8043 28.7874 58.91 28.6393 59.1003 28.4279C59.2907 28.2164 59.5444 27.9627 59.8193 27.6667L60.7708 26.7151C61.1091 26.3768 61.4475 26.0385 61.7435 25.679C62.0395 25.3407 62.3144 25.0024 62.5259 24.7063C62.7585 24.3891 62.8853 24.1143 62.9276 23.8817C62.9488 23.7548 62.9699 23.6279 62.9911 23.5222C62.9911 23.4165 63.0122 23.3107 63.0122 23.205C63.0122 22.7398 62.9065 22.4226 62.6739 22.2323C62.4624 22.042 62.1453 21.9363 61.7435 21.9363C61.4898 21.9363 61.2149 21.9786 60.8977 22.042C60.5805 22.1266 60.2422 22.2112 59.9039 22.3592C59.5444 22.4861 59.1849 22.6341 58.8255 22.8244C58.4448 22.9936 58.0854 23.205 57.7471 23.4165L57.7259 23.4376H57.7048C57.7048 23.4376 57.6836 23.4376 57.6836 23.4165C57.6836 23.3953 57.6836 23.353 57.7048 23.3107C57.7259 23.2684 57.7471 23.2262 57.7682 23.1627L57.7893 23.1204C57.8105 23.0781 57.8105 23.057 57.8316 23.0147C57.8528 22.9724 57.8528 22.9301 57.8528 22.909C57.8528 22.761 57.7893 22.6129 57.6836 22.5072C57.5567 22.3803 57.4087 22.2958 57.2396 22.2112C57.0704 22.1266 56.8378 22.0632 56.6052 22.0209C56.3726 21.9786 56.14 21.9574 55.9074 21.9574C55.6748 21.9574 55.4634 21.9786 55.2731 22.0209C55.0616 22.0632 54.8924 22.1477 54.7444 22.2323C54.5964 22.3381 54.4695 22.4649 54.385 22.6129C54.3004 22.761 54.2581 22.9513 54.2581 23.1627C54.2581 23.3953 54.3004 23.5856 54.385 23.7548C54.4695 23.9028 54.5753 24.0508 54.7021 24.1565C54.3215 24.9389 53.9832 25.6156 53.7083 26.2076C53.5814 26.5037 53.4546 26.7574 53.3277 27.0112C53.0951 27.1592 52.8202 27.3072 52.4819 27.4975C52.1224 27.6878 51.7418 27.8993 51.2978 28.1319C50.8537 28.3433 50.4096 28.5548 49.9445 28.7451C49.4793 28.9354 49.0141 29.0834 48.5489 29.2103C48.0837 29.3371 47.6396 29.4006 47.2167 29.4006C46.8361 29.4006 46.5189 29.3371 46.2863 29.1891C46.0537 29.0411 45.9057 28.8296 45.8634 28.5759C47.0898 28.1319 48.0837 27.6878 48.9083 27.2438C49.733 26.7997 50.3674 26.3768 50.8537 25.9327C51.34 25.5098 51.6784 25.0869 51.8687 24.6852C52.059 24.2834 52.1647 23.8817 52.1647 23.501C52.1647 22.8667 51.9744 22.3592 51.6149 22.0209C51.2555 21.6614 50.6845 21.4922 49.9445 21.4922C49.2467 21.4922 48.57 21.598 47.9568 21.8094C47.3436 22.0209 46.7727 22.2958 46.244 22.6341C45.7154 22.9724 45.2502 23.3742 44.8485 23.8182C44.4467 24.2623 44.0872 24.7063 43.7912 25.1715C43.4952 25.6367 43.2837 26.1019 43.1357 26.5671C42.9877 27.0323 42.9031 27.4552 42.9031 27.8358C42.9031 27.8993 42.9031 27.9838 42.9031 28.0473C42.8185 28.1107 42.7339 28.1741 42.6493 28.2164C42.3745 28.4067 42.0784 28.597 41.8035 28.7451C41.5286 28.8931 41.2326 29.02 40.9577 29.1257C40.6828 29.2314 40.4291 29.2737 40.1754 29.2737C39.985 29.2737 39.837 29.2526 39.7102 29.2103C39.5833 29.168 39.5198 29.0622 39.5198 28.8719V28.8508V28.7874V28.7662C39.5621 28.4067 39.6467 28.0684 39.7947 27.7724C39.9428 27.4764 40.1119 27.1803 40.3234 26.8843C40.5348 26.5883 40.7463 26.3345 40.9577 26.0596C41.1903 25.7847 41.3806 25.5098 41.5709 25.1927C41.7612 24.8966 41.9093 24.5795 42.0361 24.2411C42.163 23.9028 42.2264 23.5433 42.2264 23.1416C42.2264 22.8455 42.163 22.5707 42.0573 22.3803C41.9304 22.1689 41.7824 21.9997 41.5921 21.894C41.4018 21.7883 41.1692 21.6826 40.9154 21.6403C40.6617 21.598 40.3868 21.5557 40.0908 21.5557C39.6044 21.5557 39.1604 21.6191 38.7798 21.7671C38.378 21.9152 38.0185 22.0843 37.7014 22.2958C37.3842 22.5072 37.067 22.7398 36.7921 23.0147C36.5384 23.2473 36.3058 23.4588 36.0943 23.6702C36.0943 23.6702 36.0732 23.6914 36.0732 23.7336C36.052 23.7336 36.0309 23.7336 36.0097 23.7548C36.4115 23.0781 36.7921 22.4015 37.1727 21.7248C37.5533 21.0482 37.9128 20.3504 38.2723 19.6526C38.6317 18.9548 38.9912 18.2782 39.3507 17.5804C39.7102 16.8826 40.0908 16.2271 40.4925 15.5504C40.6194 15.3601 40.7251 15.1487 40.8309 14.9372C40.9366 14.7258 40.9789 14.5143 40.9789 14.3029C40.9789 14.0914 40.8943 13.9011 40.7463 13.7531C40.5983 13.6051 40.3234 13.5416 39.9216 13.5416C39.7524 13.5416 39.6044 13.5628 39.4353 13.6051C39.2661 13.6474 39.1181 13.7319 38.9701 13.8165C38.8221 13.9011 38.6952 14.0068 38.5895 14.1126C38.4837 14.2183 38.3992 14.324 38.3357 14.4509L33.8529 23.1204C33.6838 23.4799 33.4723 23.8817 33.2186 24.3891C33.0917 24.664 32.9437 24.9389 32.7957 25.2138C32.7111 25.2561 32.6476 25.2984 32.6054 25.3618C32.0556 26.1442 31.3366 26.9689 30.7657 27.4764C30.1948 27.9838 29.645 28.3856 29.0741 28.6605C28.5243 28.9354 27.9745 29.1468 27.4459 29.2526C26.9173 29.3583 26.4309 29.4006 25.9657 29.4006C25.7331 29.4006 25.5005 29.4006 25.2891 29.3794C25.0776 29.3583 24.8662 29.3371 24.6759 29.2948C24.0838 29.2103 23.5552 29.0411 23.09 28.8296C22.6248 28.6182 22.2019 28.3645 21.8636 28.0473C21.5041 27.7301 21.2081 27.3706 20.9755 26.9689C20.7429 26.5671 20.5526 26.1231 20.4257 25.6579C20.2142 24.9178 20.1297 24.1354 20.1931 23.2896C20.2354 22.4438 20.4045 21.6191 20.7006 20.7733C20.9755 19.9275 21.3772 19.124 21.8847 18.3416C22.3922 17.5592 22.9843 16.8614 23.6821 16.2271C24.3799 15.6139 25.1622 15.0852 26.0503 14.6623C26.9384 14.2394 27.8688 13.9857 28.9049 13.9011C29.3278 13.88 29.7085 13.9011 30.0256 13.9857C30.3428 14.0703 30.6388 14.176 30.8714 14.324C31.0195 14.4297 31.3366 14.7046 31.4212 14.8315C31.5692 15.0218 31.6961 15.2333 31.7595 15.4447C31.8441 15.8253 31.9076 16.1214 31.9076 16.5231C31.9076 16.9249 31.8018 17.4535 31.4212 17.9187C31.0617 18.405 30.6388 18.5953 29.8353 18.8279C29.5816 18.9125 28.8415 19.0183 27.89 19.0183C27.2345 19.0183 26.5578 18.8279 26.0503 18.5953C25.8389 18.5953 25.268 18.3205 24.845 18.0244C24.4221 17.6861 24.105 17.4324 23.9358 17.2632L22.8785 18.3416L23.238 18.6588C24.0627 19.3777 24.9508 19.9275 25.86 20.287C27.0864 20.7945 29.5393 20.7099 30.66 20.287C31.7595 19.8641 32.2459 19.6103 32.8591 18.9548C33.4723 18.2993 33.5569 17.7495 33.7261 17.1363C33.8952 16.5231 33.8318 15.9099 33.7261 15.3601C33.6203 14.9795 33.4089 14.5989 33.134 14.2606C32.9014 13.9645 32.415 13.5839 32.0767 13.3513C31.6538 13.0976 31.1252 12.9073 30.5331 12.7593C29.9411 12.6112 29.2644 12.569 28.5032 12.6112C27.4459 12.6324 26.4098 12.8438 25.3948 13.2245C24.3799 13.6051 23.4283 14.1337 22.5614 14.8104C21.6733 15.487 20.8909 16.2694 20.1719 17.1575C19.453 18.0456 18.9032 19.0183 18.4592 20.0332C18.0151 21.0693 17.7191 22.1266 17.5922 23.2473C17.4654 24.368 17.5076 25.4887 17.7614 26.6094C17.994 27.3918 18.3323 28.1107 18.7552 28.7239C19.1993 29.3371 19.7068 29.8658 20.2777 30.3098C20.8486 30.7539 21.4618 31.0922 22.1385 31.3459C22.8151 31.5997 23.4918 31.7477 24.1684 31.8111C24.2741 31.8111 24.401 31.8323 24.5067 31.8323C24.6125 31.8323 24.7393 31.8323 24.845 31.8323C25.7331 31.8323 26.579 31.7054 27.4036 31.4305C28.2283 31.1768 28.9895 30.8173 29.6662 30.3732C29.7296 30.331 29.7719 30.2887 29.8353 30.2675H29.8565C30.0891 30.1195 30.3217 29.9715 30.5331 29.8023C30.512 29.8658 30.4908 29.9292 30.4697 29.9926C30.4062 30.2252 30.364 30.4367 30.364 30.6481C30.364 30.923 30.4485 31.1556 30.6177 31.3459C30.7869 31.5362 31.0195 31.6208 31.3366 31.6208C31.5269 31.6208 31.7173 31.5574 31.9076 31.4305C32.0979 31.3036 32.267 31.1345 32.4362 30.9442C32.6054 30.7327 32.7534 30.5001 32.9225 30.2464C33.0705 29.9926 33.2186 29.7177 33.3666 29.4429C33.5146 29.168 33.6415 28.9142 33.7683 28.6605C33.8952 28.4067 34.0221 28.1741 34.149 27.9838C34.4238 27.5398 34.7199 27.0957 35.0582 26.6094C35.3754 26.1231 35.7348 25.7002 36.1155 25.2772C36.4961 24.8543 36.8978 24.5372 37.3419 24.2834C37.7859 24.0297 38.2723 23.9028 38.8009 23.9028C38.9489 23.9028 39.0547 23.9451 39.1392 24.0297C39.2027 24.1143 39.245 24.22 39.245 24.368C39.245 24.516 39.2238 24.664 39.1604 24.7909C39.0969 24.9178 39.0124 25.0658 38.9066 25.2138C38.7163 25.5521 38.4837 25.8905 38.23 26.2499C37.9762 26.6094 37.7225 26.9689 37.4899 27.3495C37.2573 27.7301 37.067 28.1319 36.919 28.5336C36.771 28.9354 36.6864 29.3794 36.6864 29.8235C36.6864 30.4578 36.8767 30.9019 37.2573 31.1979C37.6379 31.4939 38.1454 31.642 38.7798 31.642C39.2661 31.642 39.7736 31.5574 40.2811 31.3671C40.7886 31.1979 41.3172 30.9442 41.8247 30.6481C42.2899 30.3732 42.7551 30.0561 43.2203 29.7177C43.3471 30.0138 43.5163 30.2675 43.7066 30.5001C44.0026 30.8596 44.341 31.1345 44.7639 31.3248C45.1868 31.5362 45.652 31.642 46.2017 31.642C46.8361 31.642 47.4705 31.5574 48.1048 31.3882C48.7392 31.2191 49.3735 31.0076 49.9656 30.7539C50.5577 30.5001 51.1286 30.2252 51.6572 29.9292C51.7629 29.8658 51.8687 29.8023 51.9744 29.7389C51.911 29.8446 51.8687 29.9715 51.8052 30.0772C51.6995 30.2464 51.6361 30.4155 51.6149 30.5636C51.5938 30.7116 51.5726 30.8384 51.5726 30.923C51.5726 31.1556 51.6361 31.3459 51.7629 31.4517C51.8898 31.5574 52.0378 31.6208 52.2493 31.6208C52.4184 31.6208 52.6299 31.5785 52.8414 31.4939C53.0528 31.4094 53.2643 31.3036 53.4757 31.1556C53.6872 31.0076 53.8775 30.8384 54.0466 30.627C54.2158 30.4155 54.3638 30.1829 54.4695 29.9292C54.5964 29.6332 54.7656 29.2737 54.9559 28.8719C55.1462 28.4702 55.3365 28.0473 55.5479 27.6244C55.7594 27.2015 55.9497 26.7997 56.14 26.4191C56.3303 26.0385 56.4995 25.7213 56.6264 25.4676C56.7321 25.2772 56.9224 25.0869 57.155 24.9178C57.3876 24.7486 57.6625 24.5795 57.9374 24.4526C58.2122 24.3257 58.466 24.22 58.7197 24.1354C58.9735 24.0508 59.1426 24.0085 59.2484 24.0085C59.3118 24.0085 59.3541 24.0297 59.3752 24.072C59.3964 24.1143 59.3964 24.1565 59.3964 24.1988C59.3964 24.3891 59.3329 24.6006 59.2061 24.812C59.0792 25.0446 58.9312 25.2772 58.7197 25.5521C58.5294 25.8059 58.318 26.1019 58.0854 26.3979C57.8528 26.694 57.6202 27.0112 57.4087 27.3495C57.1973 27.6878 57.007 28.0261 56.8378 28.4067C56.6686 28.7662 56.5418 29.1468 56.4783 29.5486C56.4783 29.5909 56.4572 29.6332 56.4572 29.7177C56.4572 30.1829 56.6052 30.5636 56.9224 30.8596C57.2396 31.1556 57.6836 31.3036 58.318 31.3036C58.5717 31.3036 58.8889 31.2402 59.2272 31.1133C59.5655 30.9865 59.9673 30.8384 60.3691 30.627C60.7708 30.4367 61.1937 30.2041 61.6166 29.9503C62.0607 29.6966 62.4836 29.4429 62.9065 29.1891C63.0757 29.0834 63.2448 28.9777 63.414 28.8719C63.3717 29.02 63.3505 29.1257 63.3505 29.2314C63.3083 29.4851 63.2871 29.6332 63.2871 29.6332C63.2871 30.0138 63.3505 30.331 63.4774 30.5847C63.6043 30.8384 63.7734 31.0499 63.9638 31.1979C64.1752 31.3459 64.4078 31.4517 64.6827 31.5151C64.9576 31.5785 65.2325 31.5997 65.5285 31.5997C66.184 31.5997 66.7761 31.5151 67.347 31.3248C67.8968 31.1345 68.4043 30.9019 68.8483 30.6058C69.2924 30.3098 69.6941 29.9926 70.0324 29.6332C70.3919 29.2737 70.6668 28.9142 70.8994 28.5759C70.7514 29.1257 70.6879 29.5909 70.6879 30.0138C70.6879 30.6058 70.8148 31.0076 71.0897 31.2402C71.3646 31.4728 71.7029 31.5997 72.147 31.5997C72.591 31.5997 73.0562 31.4939 73.606 31.3036C74.1558 31.1133 74.6844 30.8384 75.2342 30.5001C75.4879 30.3521 75.7205 30.2041 75.9531 30.0349C76.0588 30.3732 76.228 30.6693 76.4394 30.923C76.672 31.1979 76.9681 31.4094 77.3487 31.5574C77.7293 31.7054 78.1945 31.79 78.7231 31.79C79.717 31.79 80.6474 31.5785 81.4932 31.1556C82.339 30.7327 83.1636 30.0561 83.9249 29.1468C84.094 29.316 84.3055 29.4429 84.5592 29.5274C84.813 29.612 85.0667 29.6543 85.3416 29.6543C85.7857 29.6543 86.2297 29.612 86.6737 29.5063C86.8006 29.4851 86.9275 29.4429 87.0544 29.4217C87.0755 30.1618 87.287 30.7116 87.6676 31.0499C88.0905 31.4305 88.6614 31.5997 89.3803 31.5997C89.8878 31.5997 90.3953 31.4939 90.9028 31.3036C91.4103 31.1133 91.8966 30.8384 92.4041 30.5213C92.7001 30.331 92.9962 30.1195 93.2922 29.8869C93.2922 29.9081 93.3134 29.9292 93.3134 29.9503C93.4402 30.2887 93.6305 30.5636 93.8631 30.8173C94.0957 31.071 94.3918 31.2614 94.7512 31.4094C95.1107 31.5574 95.5125 31.6208 95.9565 31.6208C96.5486 31.6208 97.1618 31.5362 97.775 31.3459C98.3882 31.1556 98.9803 30.923 99.5723 30.6481C100.143 30.3732 100.693 30.0561 101.201 29.7389C101.708 29.4217 102.152 29.0834 102.533 28.7874C102.913 28.4913 103.23 28.2376 103.484 28.0261C103.738 27.8147 103.886 27.6667 103.928 27.6244C104.055 27.4764 104.119 27.3495 104.14 27.2438C104.161 27.138 104.161 27.0323 104.161 26.9477C104.245 26.8843 104.224 26.7997 104.203 26.7363ZM45.8423 26.4402C45.948 26.1865 46.0749 25.9327 46.2229 25.6579C46.3709 25.383 46.5401 25.1081 46.7304 24.8332C46.9207 24.5583 47.1321 24.3046 47.3859 24.0931C47.6396 23.8817 47.8934 23.6914 48.1894 23.5645C48.4854 23.4376 48.8026 23.353 49.1409 23.353H49.2678C49.3101 23.353 49.3524 23.353 49.3947 23.3742C49.5004 23.3953 49.6061 23.4376 49.6907 23.5222C49.7753 23.6068 49.8176 23.7125 49.8176 23.8394C49.8176 24.0085 49.733 24.1988 49.585 24.4103C49.437 24.6217 49.1621 24.8543 48.7603 25.1081C48.6757 25.1715 48.5066 25.2561 48.2951 25.4253C48.0837 25.5733 47.8088 25.7424 47.5339 25.9327C47.259 26.1231 46.9207 26.3134 46.5824 26.5248C46.244 26.7363 45.9269 26.9054 45.6097 27.0746C45.6731 26.8843 45.7366 26.6728 45.8423 26.4402ZM83.5443 26.5671C83.3117 27.0746 82.9945 27.5186 82.6139 27.9204C82.2332 28.3222 81.7892 28.6393 81.3029 28.8931C80.8165 29.1468 80.309 29.2526 79.8015 29.2526C79.5267 29.2526 79.3152 29.2103 79.1672 29.1257C79.0192 29.0411 78.8923 28.9354 78.8077 28.8085C78.7231 28.6816 78.6597 28.5548 78.6386 28.4067C78.6174 28.2587 78.5963 28.1107 78.5963 27.9627C78.5963 27.4341 78.7231 26.9266 78.9769 26.4191C79.2306 25.9116 79.5689 25.4676 79.9707 25.0658C80.3725 24.664 80.8377 24.3469 81.3451 24.0931C81.8526 23.8394 82.3601 23.7336 82.8676 23.7336C83.1002 23.7336 83.2694 23.7759 83.3962 23.8605C83.5231 23.9451 83.6288 24.0508 83.7134 24.1777C83.7768 24.3046 83.8403 24.4314 83.8614 24.6006C83.8826 24.7486 83.9037 24.8966 83.9037 25.0235C83.8826 25.5521 83.7768 26.0596 83.5443 26.5671Z" fill="#231815"/>
<path d="M15.7907 17.7693C15.0717 17.2196 14.9449 16.9024 14.8814 16.6063C14.818 16.3103 14.7123 15.824 15.1352 15.3376C15.5369 14.8513 15.9176 14.7244 16.3828 14.6398C16.8479 14.5553 17.2709 14.6398 17.6938 14.7244C18.1167 14.809 19.0048 15.253 19.3008 15.4434C19.4911 15.5702 19.7871 15.7605 20.1889 16.0143L21.2039 14.9147L20.9924 14.7879C19.8929 14.0901 19.0893 13.6672 18.5819 13.498C17.7995 13.2442 17.4823 13.1597 16.8057 13.1597C16.129 13.1597 15.3889 13.2654 14.6911 13.7094C14.0145 14.1535 13.5704 14.7879 13.4436 15.4222C13.3378 16.0566 13.4647 16.5641 13.7607 17.0715C14.0779 17.579 14.4585 17.9596 15.2198 18.2768C15.7272 18.4883 16.5096 18.6151 17.6092 18.6574C16.8691 18.4248 16.2559 18.1288 15.7907 17.7693Z" fill="#231815"/>
<path d="M33.6102 42.2819C33.4834 43.2969 33.2508 44.6925 32.9336 45.6017L32.1724 45.2845C32.4895 44.4387 32.7644 43.17 32.8702 42.155L33.6102 42.2819ZM35.027 41.5841V45.5383C35.027 45.9189 35.1116 46.0035 35.5556 46.0035H36.9512C37.4164 46.0035 37.501 45.7286 37.5644 44.3541C37.7547 44.5021 38.093 44.629 38.2833 44.6925C38.1988 46.2572 37.9662 46.7224 37.0146 46.7224H35.4922C34.5195 46.7224 34.2446 46.4475 34.2446 45.5383V41.5841H35.027ZM35.0904 39.4907C35.8516 39.9982 36.8666 40.7383 37.3529 41.2669L36.782 41.859C36.3168 41.3515 35.3441 40.548 34.5618 40.0194L35.0904 39.4907ZM38.6851 41.9013C39.1714 42.8951 39.5943 44.1427 39.7847 44.9885L39.0234 45.3057C38.8754 44.4599 38.4314 43.17 37.9873 42.1762L38.6851 41.9013Z" fill="#231815"/>
<path d="M53.823 45.9835C54.119 45.9835 54.1825 45.7721 54.2036 44.5457C54.3939 44.6937 54.7111 44.8205 54.9225 44.884C54.838 46.3219 54.6476 46.7236 53.8653 46.7236H52.7657C51.9411 46.7236 51.7296 46.4699 51.7296 45.6452V42.8752H50.3129C50.1649 44.6302 49.7842 46.047 47.8389 46.8293C47.7543 46.639 47.5428 46.3641 47.3525 46.2161C49.0864 45.5606 49.3613 44.3342 49.4882 42.8752H47.5006V42.1351H54.7745V42.8752H52.512V45.6241C52.512 45.9201 52.5543 45.9624 52.8503 45.9624H53.823V45.9835ZM54.0767 40.6126H48.2406V39.8726H54.0767V40.6126Z" fill="#231815"/>
<path d="M65.0243 41.4766C64.2842 41.7303 63.523 41.9841 62.9098 42.1744L62.6138 41.5189C63.2058 41.3709 64.0728 41.1171 64.9397 40.8634L65.0243 41.4766ZM67.6886 45.5153C68.5344 45.7902 69.4437 46.1497 70.0146 46.4246L69.3168 46.8475C68.8093 46.5726 67.9424 46.192 67.0966 45.9171L67.5829 45.5365H65.0878L65.7856 45.8537C65.1089 46.2554 64.0728 46.6572 63.2481 46.8898C63.1213 46.7418 62.8464 46.4457 62.6772 46.3189C63.523 46.1497 64.4957 45.8748 65.0666 45.5576H63.7345V42.2378H65.3838C65.2992 42.0898 65.1723 41.8784 65.0666 41.7515C66.0816 41.5823 66.9485 41.1383 67.16 40.4616L67.8578 40.5674C67.8155 40.6519 67.7732 40.7365 67.7521 40.8211C68.2173 41.2863 69.0631 41.6458 69.9723 41.7726C69.8243 41.9206 69.634 42.1532 69.5494 42.3436C69.4225 42.3013 69.2957 42.2801 69.1688 42.2378V45.5576H67.6886V45.5153ZM64.7283 40.6096C64.3477 40.4193 63.5865 40.1022 63.0155 39.933L63.3539 39.4044C63.9248 39.5524 64.686 39.8273 65.0666 40.0176L64.7283 40.6096ZM64.4746 43.1471H68.3441V42.6819H64.4534V43.1471H64.4746ZM64.4746 44.0775H68.3441V43.6123H64.4534V44.0775H64.4746ZM64.4746 45.029H68.3441V44.5427H64.4534V45.029H64.4746ZM66.293 40.3982C66.1027 40.6308 65.8701 40.8845 65.5953 41.096C65.4472 40.948 65.1935 40.8 65.0243 40.7154C65.6375 40.2925 66.0393 39.7427 66.2508 39.2563L66.9485 39.3621C66.864 39.5312 66.8005 39.6793 66.6948 39.8273H69.3591L69.4648 39.8061L69.9723 39.9541C69.7397 40.377 69.4437 40.8634 69.1688 41.1594L68.5556 40.9691C68.7036 40.8211 68.8516 40.6308 68.9785 40.4193H66.293V40.3982ZM69.0842 42.1955C68.4287 41.9841 67.8366 41.6458 67.3926 41.2229C66.9697 41.688 66.3142 42.0052 65.553 42.1955H69.0842Z" fill="#231815"/>
<path d="M82.8486 41.7103C83.4195 43.0213 84.3711 44.2477 85.4283 44.8821C85.238 45.0301 84.9631 45.3473 84.8151 45.5588C84.4556 45.305 84.1173 45.009 83.8213 44.6495V45.3684H81.9816V46.8275H81.1781V45.3684H79.3385V44.6284C79.0002 44.9878 78.6618 45.305 78.3024 45.5799C78.1755 45.3896 77.9218 45.1147 77.7314 44.9455C78.7676 44.29 79.7191 43.0213 80.2689 41.6892H77.9852V40.9068H81.157V39.2363H81.9605V40.9068H85.1746V41.6892H82.8486V41.7103ZM81.1781 44.6072V41.7103H81.0724C80.6706 42.7887 80.0786 43.8037 79.3808 44.6072H81.1781ZM83.7578 44.6072C83.06 43.8037 82.4891 42.7887 82.0662 41.7103H81.9816V44.6072H83.7578Z" fill="#231815"/>
</svg>
