<svg width="165" height="30" viewBox="0 0 165 30" fill="none" xmlns="http://www.w3.org/2000/svg">
<path d="M164.255 29.0598H159.043L158.794 27.2054C158.567 27.4192 158.325 27.6184 158.073 27.8016C157.098 28.3838 156.169 29.1349 155.115 29.4776C153.797 29.8897 152.391 29.9319 151.051 29.5997C148.854 29.1653 146.905 27.9097 145.599 26.0881C143.869 23.6516 143.546 20.6564 144.01 17.7786C144.427 15.22 145.829 12.5628 148.032 11.1169L148.205 11.0042C149.155 10.434 150.208 10.0574 151.304 9.89629C152.4 9.73515 153.516 9.79259 154.59 10.0653C155.936 10.3532 157.186 10.9838 158.218 11.8962L158.382 11.8211V0H164.255V29.0598ZM154.323 14.9759C153.679 14.9625 153.04 15.0804 152.443 15.3226C151.847 15.5647 151.306 15.926 150.854 16.3843C149.283 18.1589 149.199 21.4451 150.812 23.2478C152.34 24.952 155.499 25.0881 157.285 23.7173C159.16 22.2573 159.24 19.4029 158.373 17.3702C157.693 15.7693 156.001 14.9759 154.323 14.9759Z" fill="#18171A"/>
<path d="M97.81 7.28138V1.82621H79.6319V29.0363H85.646V18.4264H96.8725V12.868H85.7022V7.32363L97.81 7.28138Z" fill="#18171A"/>
<path d="M135.188 29.0598C135.188 29.0598 135.188 26.7125 135.188 25.8252C135.132 23.1352 135.132 20.4357 134.987 17.7457C134.874 15.6519 133.276 14.4595 131.11 15.1684C129.474 15.7083 128.818 16.6472 128.799 18.3936C128.771 21.6798 128.771 24.9661 128.762 28.2523V29.0222H123.005V10.4315H128.302C128.396 11.0793 128.49 11.7225 128.569 12.2859C129.357 11.6511 130.187 11.0707 131.054 10.5488C134.176 8.93389 138.952 9.90568 140.223 13.4501C140.428 14.0362 140.565 14.6444 140.63 15.2623C140.823 16.8584 140.912 18.5062 140.954 20.1071C141.033 23.0178 140.996 29.0598 140.996 29.0598H135.188Z" fill="#18171A"/>
<path d="M118.594 10.4268V29.0598H113.368C113.265 28.4166 113.166 27.8814 113.063 27.2195C112.463 27.7124 111.919 28.2007 111.333 28.6279C108.849 30.4494 104.41 30.1349 102.357 27.7735C101.362 26.5521 100.834 25.0161 100.866 23.4403C100.754 20.1541 100.721 16.8678 100.665 13.5816C100.665 12.7225 100.665 11.8586 100.665 10.9995C100.665 10.685 100.712 10.3892 101.133 10.3892H106.44C106.487 10.6721 106.52 10.9573 106.538 11.2436C106.571 14.5064 106.585 17.7739 106.623 21.0414C106.623 21.9803 106.744 22.9755 107.405 23.722C108.53 24.9895 111.277 25.0975 112.271 23.1915C112.628 22.4683 112.821 21.6745 112.833 20.8677C112.913 17.9147 112.913 10.4174 112.913 10.4174" fill="#18171A"/>
<path d="M45.9381 20.0602C46.0553 25.6562 41.621 29.7405 36.1225 29.7546C34.8442 29.772 33.5754 29.5311 32.3921 29.0462C31.2088 28.5614 30.1353 27.8426 29.2357 26.9329C28.336 26.0231 27.6288 24.941 27.1562 23.7513C26.6835 22.5616 26.4553 21.2886 26.485 20.0085C26.5225 14.4595 30.6803 10.3751 36.3288 10.3611C37.6007 10.3477 38.8625 10.5899 40.0393 11.0736C41.2162 11.5572 42.2842 12.2724 43.1801 13.1767C44.0761 14.081 44.7818 15.1562 45.2556 16.3385C45.7293 17.5209 45.9614 18.7864 45.9381 20.0602ZM36.2256 13.7459C34.7861 13.6822 33.3759 14.167 32.2788 15.1026C30.085 16.9429 29.6772 20.478 30.746 22.9286C32.4381 26.7829 36.971 27.1162 39.5725 25.4261C41.4475 24.2196 42.1506 22.4028 42.235 20.262C42.3897 16.7035 40.0085 13.6802 36.2397 13.7459H36.2256Z" fill="#18171A"/>
<path d="M70.6272 29.0598V28.4213C70.6272 24.8628 70.6741 21.3042 70.6272 17.7457C70.5991 16.2387 70.0553 14.8773 68.5647 14.1919C66.221 13.1215 63.1506 13.7975 62.0866 16.6143C61.5006 18.1682 61.4772 19.7832 61.4444 21.3935C61.3975 23.9333 61.4444 29.1255 61.4444 29.1255H57.971V11.7554C57.971 10.9854 57.9944 10.9573 58.7491 10.9526H61.4069V13.206C61.5944 13.1121 61.721 13.0933 61.7866 13.0135C63.3803 11.0887 65.4475 10.3235 67.9178 10.3376C69.284 10.3196 70.6157 10.7669 71.6947 11.6062C72.7738 12.4455 73.5362 13.627 73.8569 14.9571C74.0668 15.8189 74.1893 16.6997 74.2225 17.5861C74.2647 21.1869 74.2225 29.088 74.2225 29.088L70.6272 29.0598Z" fill="#18171A"/>
<path d="M52.8663 10.8822V29.0598H49.6506V10.8822H52.8663Z" fill="#18171A"/>
<path d="M53.7991 4.26272C53.7991 5.89645 52.7257 6.70393 51.31 6.78843C50.6343 6.78362 49.9872 6.51423 49.5072 6.03786C49.0272 5.5615 48.7523 4.91596 48.7413 4.23925C48.7341 3.90032 48.7959 3.56348 48.9227 3.24916C49.0495 2.93485 49.2388 2.64961 49.479 2.41078C49.7192 2.17195 50.0054 1.9845 50.3201 1.8598C50.6349 1.7351 50.9717 1.67575 51.31 1.68537C51.6501 1.66248 51.9911 1.71416 52.3092 1.8368C52.6273 1.95945 52.9148 2.15012 53.1518 2.39549C53.3888 2.64087 53.5695 2.93505 53.6813 3.25754C53.793 3.58003 53.8333 3.92306 53.7991 4.26272Z" fill="#18171A"/>
<path d="M20.9585 23.3652C20.8366 23.506 20.7053 23.6469 20.5694 23.7783C17.6819 26.4308 14.3538 26.9942 10.6975 25.797C8.67833 25.1763 6.94641 23.8546 5.81314 22.0695C4.83463 20.5165 4.23116 18.7563 4.05065 16.9289C3.6194 12.7741 5.50846 8.21562 9.16471 6.0467C11.7663 4.50216 15.0991 4.16884 17.8366 5.57724C19.1581 6.28567 20.3563 7.20359 21.385 8.29542C21.4506 8.35645 24.296 6.13119 24.5585 5.9481C24.0838 5.41948 23.5798 4.91794 23.0491 4.44583C21.0312 2.54404 18.4206 1.39674 15.6569 1.19713C13.2118 0.961314 10.7467 1.34053 8.48502 2.30037C5.42055 3.5631 2.93328 5.92031 1.50533 8.91512C0.237797 11.5575 -0.244359 14.5091 0.11634 17.4182C0.477039 20.3274 1.66538 23.0713 3.53971 25.3229C6.11784 28.4073 9.5819 29.6795 13.4725 29.9659C15.6992 30.1241 17.9305 29.7307 19.9694 28.8204C21.7548 27.9719 23.3241 26.7277 24.5585 25.182L21.3803 22.8347C21.1975 23.0601 21.0944 23.215 20.9585 23.3652Z" fill="#18171A"/>
</svg>
