<svg width="85" height="60" viewBox="0 0 85 60" fill="none" xmlns="http://www.w3.org/2000/svg">
<g clip-path="url(#clip0)">
<path d="M15.773 19.311V14.8868H16.7755C18.1093 14.8868 18.9106 15.9603 18.9106 17.1048C18.9106 18.2493 18.1093 19.3228 16.7755 19.3228C16.7636 19.311 15.773 19.311 15.773 19.311ZM21.6138 17.093C21.6138 14.7803 19.903 12.6452 16.953 12.6452H13.1171V21.5543H16.953C19.9385 21.5543 21.6138 19.4175 21.6138 17.093ZM22.7465 12.6452H25.4243V21.5543H22.7465V12.6452ZM31.3479 21.7978C33.8736 21.7978 35.4661 20.4065 35.7856 18.3643H36.5413V16.6095H31.6201V18.3558H33.0943C32.9658 19.0405 32.435 19.6187 31.3953 19.6187C29.9448 19.6187 29.2365 18.4978 29.2365 17.1758C29.2365 15.8538 29.9127 14.6738 31.2769 14.6738C32.1983 14.6738 32.6936 15.2283 32.7765 15.749H35.7028C35.5337 13.9198 33.8026 12.4085 31.3074 12.4085C28.2762 12.4085 26.5417 14.6062 26.5417 17.1522C26.5417 19.6542 28.2323 21.7893 31.3429 21.7893L31.3479 21.7978ZM37.4728 12.6536H40.1506V21.5628H37.4728V12.6536ZM43.432 21.5628H46.0743V14.919H48.0928V12.6536H41.4134V14.919H43.432V21.5628ZM52.5068 15.3196L53.4501 18.5857H51.5567L52.5017 15.3044L52.5068 15.3196ZM50.7013 21.5628L51.0073 20.5349H54.0046L54.3106 21.5628H57.2606L53.8981 12.6536H51.1256L47.8375 21.5543L50.7013 21.5628ZM58.2411 12.6536V21.5628H63.2215V19.2975H60.8953V12.6536H58.2411ZM17.5075 34.3213C20.2681 34.3213 21.9029 32.5632 22.1801 30.5683H19.384C19.2065 31.3358 18.5387 31.9208 17.5244 31.9208C16.2024 31.9208 15.3537 30.9301 15.3537 29.6318C15.3537 28.4281 16.0959 27.3428 17.5007 27.3428C18.6097 27.3428 19.247 28.0038 19.4009 28.8406H22.1734C21.9485 26.7054 20.2732 24.9354 17.5007 24.9354C14.3969 24.9354 12.6387 27.1653 12.6387 29.6318C12.6387 32.0983 14.4205 34.3281 17.5125 34.3281L17.5075 34.3213ZM27.054 34.3213C29.3666 34.3213 30.7732 32.9165 30.7732 30.9825V25.1653H28.1275V30.9588C28.1332 31.1042 28.1096 31.2492 28.0579 31.3852C28.0062 31.5211 27.9277 31.6453 27.8269 31.7502C27.7261 31.855 27.6051 31.9385 27.4713 31.9955C27.3375 32.0524 27.1935 32.0818 27.048 32.0818C26.9026 32.0818 26.7586 32.0524 26.6248 31.9955C26.491 31.9385 26.37 31.855 26.2692 31.7502C26.1684 31.6453 26.0898 31.5211 26.0382 31.3852C25.9865 31.2492 25.9629 31.1042 25.9686 30.9588V25.1653H23.3246V30.9825C23.3246 32.9165 24.7413 34.3213 27.054 34.3213ZM36.0679 29.7433H34.9708V27.2295H36.0798C36.7881 27.2295 37.2479 27.8077 37.2479 28.4923C37.2479 29.177 36.7881 29.7433 36.0646 29.7433H36.0679ZM39.9562 28.4923C39.9562 26.6987 38.646 25.1653 36.6038 25.1653H32.3285V34.0728H34.9708V31.7957H35.4661L36.9876 34.0728H40.1033L38.3214 31.3595C38.8247 31.0695 39.2411 30.65 39.5274 30.1446C39.8137 29.6392 39.9594 29.0663 39.9494 28.4856L39.9562 28.4923ZM43.8614 27.2295H44.9636C45.6719 27.2295 46.1318 27.8077 46.1318 28.4923C46.1318 29.177 45.6601 29.7552 44.9484 29.7552H43.8512L43.8614 27.2295ZM43.8614 31.794H44.3567L45.868 34.0711H48.9837L47.2019 31.3578C47.7048 31.0674 48.1209 30.6478 48.4071 30.1425C48.6933 29.6372 48.8393 29.0645 48.8299 28.4839C48.8299 26.6902 47.5197 25.1569 45.4775 25.1569H41.2021V34.0762H43.8445V31.7957L43.8614 31.794ZM55.8389 27.145V25.1653H50.0995V34.0728H55.8338V32.0915H52.7401V30.6038H55.8338V28.7053H52.7401V27.1467L55.8389 27.145ZM62.9544 30.45L60.0517 25.1637H57.3468V34.0711H60.0027V28.964L62.9172 34.0728H65.622V25.1653H62.9493L62.9544 30.45ZM71.6269 31.9123C70.3049 31.9123 69.4562 30.9216 69.4562 29.6233C69.4562 28.4196 70.2 27.3343 71.6032 27.3343C72.7122 27.3343 73.3495 27.9953 73.5034 28.8321H76.2758C76.0527 26.697 74.3757 24.927 71.6032 24.927C68.4994 24.927 66.7412 27.1568 66.7412 29.6233C66.7412 32.0898 68.5349 34.3196 71.6269 34.3196C74.3875 34.3196 76.0223 32.5615 76.2995 30.5666H73.4983C73.3208 31.3223 72.6361 31.9191 71.6218 31.9191L71.6269 31.9123ZM82.0339 25.1637L80.6814 28.3368L79.2411 25.1637H76.1406L79.1261 30.9335L77.581 34.0711H80.5546L84.9686 25.1637H82.0339ZM17.6968 43.408H19.171C19.0408 44.0842 18.51 44.6708 17.4804 44.6708C16.0282 44.6708 15.3216 43.5483 15.3216 42.228C15.3216 40.9077 15.9978 39.726 17.3621 39.726C18.2834 39.726 18.7787 40.2923 18.8616 40.7995H21.7879C21.6189 38.9703 19.8877 37.4607 17.3925 37.4607C14.3597 37.4607 12.6133 39.6668 12.6133 42.2043C12.6133 44.7047 14.2887 46.8533 17.4162 46.8533C19.93 46.8533 21.5343 45.4603 21.8522 43.4198H22.6078V41.6735H17.6883V43.408H17.6968ZM27.2889 42.2753H26.1985V39.7497H27.3075C28.0159 39.7497 28.4757 40.3278 28.4757 41.0125C28.4757 41.6972 28.004 42.2753 27.2923 42.2753H27.2889ZM31.1603 41.0125C31.1603 39.2188 29.8501 37.6957 27.8079 37.6957H23.5376V46.6048H26.18V44.3277H26.6753L28.1866 46.6048H31.3006L29.5188 43.8915C30.025 43.6038 30.4445 43.1851 30.7334 42.6795C31.0222 42.1738 31.1696 41.5998 31.1603 41.0176V41.0125ZM36.7999 44.4223C35.4475 44.4223 34.653 43.3252 34.653 42.1452C34.653 40.9652 35.4543 39.868 36.7999 39.868C38.1456 39.868 38.9486 40.9652 38.9486 42.1452C38.9486 43.3252 38.1575 44.4223 36.7999 44.4223ZM36.7999 37.4488C33.7434 37.4488 31.9734 39.6905 31.9734 42.1452C31.9734 44.5998 33.7434 46.8415 36.7999 46.8415C39.8565 46.8415 41.6383 44.5998 41.6383 42.1452C41.6383 39.6905 39.8683 37.4488 36.7999 37.4488ZM50.2871 43.501V37.6889H47.6448V43.4841C47.65 43.6287 47.6261 43.7729 47.5746 43.9081C47.5231 44.0433 47.445 44.1669 47.3449 44.2714C47.2448 44.3759 47.1248 44.4592 46.9919 44.5165C46.859 44.5738 46.716 44.6039 46.5713 44.6049C46.4259 44.6043 46.282 44.5746 46.1482 44.5177C46.0144 44.4607 45.8933 44.3775 45.792 44.2731C45.6908 44.1687 45.6114 44.0452 45.5585 43.9097C45.5057 43.7742 45.4804 43.6295 45.4843 43.4841V37.6889H42.842V43.5061C42.842 45.4417 44.2586 46.8466 46.5713 46.8466C48.884 46.8466 50.2905 45.4417 50.2905 43.5061L50.2871 43.501ZM55.5971 42.2753H54.5V39.7497H55.614C56.3224 39.7497 56.7822 40.3278 56.7822 41.0125C56.7822 41.6972 56.3105 42.2753 55.5988 42.2753H55.5971ZM56.1212 37.6889H51.8576V46.5981H54.5V44.3158H56.1212C58.1498 44.3158 59.4735 42.7943 59.4735 41.0125C59.4735 39.2307 58.1583 37.6889 56.1212 37.6889ZM0.598633 12.6452H9.50611V21.5543H0.598633V12.6452ZM45.5908 50.2158H54.5V59.125H45.5908V50.2158ZM51.9743 0.125H60.8834V9.03417H51.9743V0.125Z" fill="black"/>
</g>
<defs>
<clipPath id="clip0">
<rect width="84.37" height="59" fill="white" transform="translate(0.598633 0.125)"/>
</clipPath>
</defs>
</svg>
