<?xml version="1.0" encoding="utf-8"?>
<!-- Generator: Adobe Illustrator 27.0.0, SVG Export Plug-In . SVG Version: 6.00 Build 0)  -->
<svg version="1.1" id="Layer_1" xmlns="http://www.w3.org/2000/svg" xmlns:xlink="http://www.w3.org/1999/xlink" x="0px" y="0px"
	 viewBox="0 0 600 211" style="enable-background:new 0 0 600 211;" xml:space="preserve">
<style type="text/css">
	.st0{fill:#061735;}
</style>
<g>
	<g>
		<path class="st0" d="M288.22,50.49l3.65-23.1c0.2-1.22,0.88-2.45,2.48-2.45h20.38c3.88,0.03,7.96,0.38,10.98,1.97
			c-0.02,0.87-0.09,2.28-0.23,3.17c-1.84,11.74-11.92,20.41-23.8,20.41L288.22,50.49z"/>
		<path class="st0" d="M330.68,29.7c-0.05,1.05-0.1,1.99-0.26,3c-2.08,13.29-13.65,23.1-27.1,23.1l-13.34,0
			c-1.48,0-2.75,1.08-2.99,2.55l-6.49,40.91c-0.24,1.49,0.92,2.84,2.43,2.84l14.29,0c1.54,0,2.73-1.13,2.98-2.5l3.54-22.17
			c0.21-1.35,1.38-2.34,2.74-2.34l8.5,0c13.44,0,25.01-9.81,27.1-23.1C343.55,42.54,338.8,33.95,330.68,29.7z"/>
		<path class="st0" d="M287.35,21.99c0.21-1.35,1.38-2.34,2.74-2.34h24.16c4.39,0.01,8.58,0.3,11.83,1.98
			c0.04-12.25-10.85-21.3-23.48-21.24h-29.23c-1.35,0.06-2.59,1.06-2.82,2.55L258.4,79.91c-0.31,1.57,0.9,2.91,2.37,2.91l16.96,0
			L287.35,21.99z"/>
	</g>
	<g>
		<g>
			<path class="st0" d="M21.15,209.82L0.34,159.59h4.59l18.3,44.7l18.3-44.7h4.38l-20.74,50.23H21.15z"/>
			<path class="st0" d="M88.09,159.59h30.28v3.87h-25.9v18.66h23.32v3.8H92.46v20.02h26.77v3.87H88.09V159.59z"/>
			<path class="st0" d="M169.37,165.83v43.99h-4.23v-50.23h4.88l29.42,43.05v-43.05h4.23v50.23h-3.87L169.37,165.83z"/>
			<path class="st0" d="M246.14,159.59h43.13v3.87h-19.3v46.35h-4.38v-46.35h-19.45V159.59z"/>
			<path class="st0" d="M329.72,189.15v-29.56h4.38v29.06c0,12.2,5.96,17.94,15.64,17.94s15.64-5.74,15.64-17.94v-29.06h4.38v29.56
				c0,14.28-8.32,21.46-20.02,21.46S329.72,203.43,329.72,189.15z"/>
			<path class="st0" d="M448.25,209.82c-6.03-6.17-12.34-15.28-16.22-21.6h-12.06v21.6h-4.38v-50.23h13.35
				c11.55,0,18.08,4.74,18.08,13.99c0,6.96-4.81,11.77-10.55,13.71c4.02,6.82,11.19,16.15,17.44,22.53H448.25z M419.97,184.49h13.35
				c4.74-1,9.04-4.45,9.04-10.91s-4.52-10.12-13.35-10.12h-9.04V184.49z"/>
			<path class="st0" d="M495.66,159.59h30.28v3.87h-25.9v18.66h23.32v3.8h-23.32v20.02h26.77v3.87h-31.14V159.59z"/>
			<path class="st0" d="M567.26,201.35c5.53,4.09,11.05,5.31,15.57,5.31c7.89,0,13.06-3.8,13.06-9.69c0-12.7-25.9-9.26-25.9-24.9
				c0-8.11,7.53-13.27,15.86-13.27c4.02,0,8.11,0.65,12.2,2.8v4.59c-4.38-2.65-7.75-3.52-12.2-3.52c-6.46,0-11.48,3.3-11.48,9.18
				c0,12.27,25.98,9.04,25.98,24.9c0,8.04-7.61,13.85-17.44,13.85c-5.53,0-12.13-1.79-15.64-4.45V201.35z"/>
		</g>
	</g>
</g>
</svg>
