<svg width="237" height="38" viewBox="0 0 237 38" fill="none" xmlns="http://www.w3.org/2000/svg">
<path d="M180.457 0.558542V0H186.838C186.838 8.39711 186.838 26.8954 186.838 26.8954H189.508V27.4444H183.496V25.0209C183.496 25.57 181.432 26.9143 180.988 27.1604C180.07 27.7694 178.967 28.0343 177.873 27.9083C175.648 27.5826 173.624 26.4423 172.193 24.7085C168.501 20.1455 170.243 12.9223 175.838 10.8964C177.196 10.3512 178.701 10.2949 180.097 10.7369C181.492 11.179 182.69 12.092 183.487 13.3199V0.558542H180.457ZM173.85 19.0757C173.808 20.9787 174.18 22.8681 174.938 24.6139C175.228 25.3174 175.682 25.9409 176.264 26.4315C178.63 28.3249 182.436 26.299 183.004 23.5914C183.588 20.9484 183.633 18.2149 183.137 15.5541C183.048 14.7461 182.767 13.9712 182.318 13.2942C181.868 12.6172 181.263 12.0579 180.552 11.6632C179.667 11.2006 178.648 11.06 177.671 11.2655C176.693 11.471 175.818 12.0099 175.194 12.7897C174.647 13.65 174.295 14.6193 174.162 15.6298C173.962 16.7678 173.858 17.9204 173.85 19.0757Z" fill="#18171A"/>
<path d="M129.213 27.4444V26.8954H126.496V16.3303C126.546 15.3711 126.43 14.4106 126.155 13.4903C126.026 13.1522 125.851 12.8337 125.635 12.5436C124.771 11.4834 123.542 10.7844 122.189 10.5839C120.716 10.2854 119.185 10.5132 117.862 11.2277C116.369 12.1386 115.101 13.3748 114.151 14.844V0H107.951V0.558542H110.971V26.8954H107.951V27.4444H116.982V26.8954H114.142V17.6273C114.142 16.7303 114.359 15.8466 114.776 15.0523C115.02 14.5867 115.308 14.146 115.638 13.7364C116.485 12.6324 117.652 11.816 118.98 11.3981C120.182 11.0668 121.82 11.1709 122.653 12.2596C123.034 12.9037 123.194 13.6554 123.107 14.3991V26.8954H120.381V27.4444H129.213Z" fill="#18171A"/>
<path d="M15.5446 10.8964V13.6418C15.5446 13.6418 16.2736 12.6951 16.586 12.3164C18.9243 9.76034 22.2661 9.82659 25.3144 11.9377C26.9404 13.1111 28.1112 14.8101 28.6287 16.7473C29.1463 18.6846 28.9787 20.7411 28.1545 22.569C26.7628 25.5984 23.724 28.0693 20.2496 27.8231C19.5928 27.7815 18.9501 27.6144 18.3563 27.3308C17.1924 26.6748 16.2275 25.7164 15.5635 24.557V37.3089H18.4793V37.8675H9.47633V37.3089H12.2312V11.4549H9.48581V10.8964H15.5446ZM25.1345 19.4165C25.1473 18.3374 25.084 17.2586 24.9452 16.1883C24.7653 14.6926 24.434 12.9033 23.1086 11.9472C22.4143 11.4877 21.6111 11.2196 20.78 11.1697C19.949 11.1198 19.1195 11.2901 18.3752 11.6632C17.6458 12.075 17.0346 12.6675 16.6002 13.3837C16.1659 14.0999 15.923 14.9157 15.8949 15.7529C15.6235 17.8824 15.5981 20.0361 15.8191 22.1714C15.9102 23.6432 16.5484 25.0277 17.6084 26.0528C18.2061 26.5322 18.9095 26.8622 19.6603 27.0153C20.4111 27.1684 21.1875 27.1403 21.9253 26.9332C23.8186 26.3652 24.5003 24.5192 24.7653 22.7394C24.9781 21.6436 25.1015 20.5323 25.1345 19.4165Z" fill="#18171A"/>
<path d="M33.721 27.4444V26.8954H36.7314V0.558542H33.721V0H40.1016C40.1016 8.39711 40.1016 26.8954 40.1016 26.8954H42.7713V27.4444H33.721Z" fill="#18171A"/>
<path d="M156.052 27.4444V26.8954H159.062V0.558542H156.052V0H162.432C162.432 8.39711 162.432 26.8954 162.432 26.8954H165.093V27.4444H156.052Z" fill="#18171A"/>
<path d="M57.3692 25.428C57.2312 25.6131 57.0827 25.7902 56.9243 25.9582L56.4036 26.4788C56.0409 26.7938 55.644 27.0669 55.2202 27.293C54.2323 27.7958 53.1265 28.0216 52.0204 27.9462C50.9445 27.925 49.8893 27.6458 48.9437 27.132C48.1963 26.6492 47.6587 25.902 47.4385 25.0399C47.2131 24.2622 47.243 23.4327 47.5237 22.6732C47.7482 22.1444 48.078 21.667 48.4931 21.2699C48.9081 20.8727 49.3996 20.5643 49.9377 20.3632C51.1684 19.8994 52.418 19.4828 53.6582 19.0473C54.7017 18.8149 55.6751 18.338 56.4983 17.6557C57.0783 17.0157 57.4553 16.218 57.5817 15.3636C57.7081 14.5092 57.5782 13.6365 57.2083 12.856C57.0413 12.4884 56.7979 12.1607 56.4943 11.8946C56.1906 11.6285 55.8338 11.4302 55.4474 11.3129C55.2295 11.2574 55.0081 11.2162 54.7848 11.1898C54.3508 11.1171 53.9064 11.1368 53.4806 11.2478C53.0548 11.3587 52.6572 11.5583 52.3139 11.8336C51.5566 12.5625 51.9163 13.8122 52.011 14.721C52.153 16.1883 49.8904 17.3149 49.0384 15.9327C48.6454 15.1133 48.5843 14.1738 48.868 13.3104C49.5022 11.417 51.5471 10.707 53.3269 10.4704C55.4001 10.1485 58.0603 10.5556 59.5371 12.1839C61.014 13.8122 60.8625 16.6049 60.872 18.8107C60.8814 21.0164 60.872 23.1465 60.872 25.3144C60.872 26.9332 62.4624 27.1037 63.9487 26.5167C63.9487 26.5167 64.2327 26.5167 64.3652 26.5167C64.0307 26.9171 63.6266 27.2538 63.1724 27.5107C62.3264 27.8899 61.3984 28.0494 60.4744 27.9746C59.9849 27.9062 59.5144 27.7392 59.0913 27.4837C58.6682 27.2282 58.3014 26.8896 58.013 26.4883C57.7574 26.1096 57.5964 25.7404 57.3692 25.428ZM57.7006 18.5645L53.8286 19.9088C53.2709 20.0493 52.7495 20.307 52.299 20.6646C51.8486 21.0223 51.4795 21.4717 51.2162 21.9831C50.9529 22.4944 50.8015 23.0559 50.772 23.6303C50.7426 24.2047 50.8358 24.7788 51.0453 25.3144C51.1813 25.7627 51.4508 26.1588 51.8179 26.4498C52.185 26.7408 52.6322 26.9127 53.0997 26.9427C53.9165 27.0665 54.7517 26.9346 55.4906 26.5652C56.2296 26.1957 56.8361 25.6067 57.2272 24.8789C57.8994 23.4305 57.7006 18.5645 57.7006 18.5645Z" fill="#18171A"/>
<path d="M133.776 19.1515C133.53 14.7399 138.245 10.3378 142.694 10.4419C147.144 10.5461 151.565 14.2287 151.536 19.1893C151.508 24.15 147.039 27.8231 142.666 27.8988C138.292 27.9746 133.577 23.6293 133.776 19.1515ZM147.579 19.1515C147.635 17.8063 147.533 16.4591 147.276 15.1375C146.85 13.2441 145.837 11.578 143.764 11.2656C142.909 11.098 142.025 11.1519 141.197 11.4219C140.368 11.692 139.622 12.1694 139.03 12.8087C138.456 13.5817 138.097 14.493 137.989 15.4499C137.513 18.1449 137.565 20.9066 138.14 23.582C138.23 24.199 138.457 24.7879 138.807 25.3044C139.156 25.8209 139.617 26.2515 140.157 26.564C141.662 27.3024 144.36 27.4539 145.705 26.2989C147.049 25.144 147.304 23.2885 147.465 21.7075C147.465 21.3667 147.522 21.0259 147.541 20.6851C147.56 20.1928 147.579 19.6437 147.598 19.1704L147.579 19.1515Z" fill="#18171A"/>
<path d="M91.9233 17.9776V20.9597C91.9233 22.5122 91.9233 24.434 92.87 25.7593C93.9871 27.3119 96.4768 27.2551 98.1525 26.9333C99.5207 26.7141 100.748 25.9661 101.57 24.8505C101.737 24.5805 101.92 24.3212 102.119 24.0742C102.327 23.8565 102.715 23.6577 102.801 24.0742C102.943 24.7843 102.081 25.6647 101.608 26.0812C100.889 26.6859 100.059 27.1456 99.1654 27.435C97.2491 28.0952 95.1617 28.0617 93.2676 27.3403L93.0688 27.2172C91.0777 26.3972 89.471 24.8537 88.5718 22.8972C87.6725 20.9406 87.5475 18.7162 88.2217 16.6711C88.6678 15.2334 89.4687 13.9311 90.5506 12.8844C93.4758 10.0443 98.5501 9.45741 101.523 12.5436C102.729 14.0927 103.424 15.9784 103.511 17.9397L91.9233 17.9776ZM99.4968 17.2297C99.4968 17.2297 99.4968 16.1789 99.4968 16.0085C99.6002 14.9861 99.4574 13.9539 99.0802 12.998C98.0389 11.0289 95.4734 10.9248 93.8451 11.7957C91.7434 12.9128 91.8665 17.2297 91.8665 17.2297H99.4968Z" fill="#18171A"/>
<path d="M71.6926 19.3503C71.6926 19.7952 71.6926 20.2402 71.6926 20.6851C71.6997 22.1305 71.9857 23.5609 72.5351 24.8978C72.8161 25.5593 73.2831 26.125 73.8794 26.5261C75.1764 27.2835 76.852 27.0752 78.2626 26.8764C79.0129 26.7662 79.7232 26.468 80.3274 26.0095C80.9315 25.551 81.4099 24.9471 81.718 24.2541C81.86 23.9417 82.0304 23.3074 82.4469 23.3074C83.0434 23.2601 82.4469 24.6991 82.3049 24.8884C80.5536 28.2113 75.7539 28.5994 72.6487 27.1888C71.2573 26.5468 70.0647 25.5414 69.1967 24.2785C68.3287 23.0157 67.8173 21.5421 67.7165 20.013C67.6394 18.9283 67.7548 17.8386 68.0573 16.7942C68.6012 15.0411 69.6626 13.4936 71.1021 12.3548C72.5416 11.216 74.2919 10.5393 76.1231 10.4135C78.3478 10.2999 81.5571 11.0573 82.3996 13.4335C82.6079 13.9692 82.6826 14.5475 82.6173 15.1186C82.3712 16.6522 80.014 17.4758 79.0578 16.0653C78.8916 15.8055 78.7986 15.5056 78.7886 15.1974C78.7786 14.8891 78.852 14.5839 79.001 14.3139C79.1515 14.0896 79.2523 13.8356 79.2966 13.5691C79.3408 13.3026 79.3275 13.0297 79.2576 12.7687C79.1876 12.5078 79.0627 12.2648 78.8911 12.0562C78.7194 11.8475 78.5051 11.678 78.2626 11.559C77.5919 11.2934 76.8731 11.1713 76.1523 11.2006C75.4316 11.23 74.725 11.4101 74.0782 11.7295C72.7245 12.4679 72.2511 14.0109 71.9955 15.431C71.7725 16.7251 71.6711 18.0373 71.6926 19.3503Z" fill="#18171A"/>
<path d="M220.871 10.8964V13.4524C220.871 13.3104 221.25 12.9507 221.345 12.8371C221.439 12.7235 221.695 12.4395 221.875 12.2501C222.228 11.8941 222.619 11.5767 223.039 11.3034C223.912 10.6993 224.962 10.4059 226.021 10.4703C226.778 10.5544 227.493 10.8608 228.076 11.3508C228.542 11.7403 228.859 12.2786 228.975 12.8749C229.143 13.4949 229.143 14.1484 228.975 14.7683C228.833 15.0849 228.608 15.3566 228.322 15.5536C228.037 15.7505 227.703 15.8653 227.356 15.8854C227.082 15.9198 226.803 15.8917 226.54 15.8032C226.278 15.7147 226.039 15.568 225.842 15.3742C225.697 15.1426 225.612 14.8788 225.593 14.6062C225.575 14.3337 225.625 14.0609 225.737 13.8121C225.898 13.1589 225.974 12.0797 225.311 11.6537C225.033 11.5261 224.725 11.4755 224.421 11.5071C224.116 11.5387 223.825 11.6515 223.579 11.8336C221.686 13.0264 221.061 15.3647 220.928 17.5137C220.928 17.6652 220.928 17.8261 220.928 17.9776V26.8859H223.816V27.435H214.813V26.8859H217.511V11.4549H214.813V10.8964" fill="#18171A"/>
<path d="M4.6861 38H0L0.0568012 0.132536H4.7713V1.07922H1.00349L0.946687 37.0533H4.6861V38Z" fill="#18171A"/>
<path d="M236.804 37.9527H232.118V37.006H235.857L235.801 1.02242H232.033V0.0757349H236.747L236.804 37.9527Z" fill="#18171A"/>
<path d="M198.407 17.9776V20.9597C198.407 22.5122 198.407 24.434 199.353 25.7593C200.47 27.3119 202.96 27.2551 204.626 26.9333C205.997 26.7145 207.228 25.9667 208.053 24.8505C208.213 24.5764 208.397 24.3166 208.602 24.0742C208.811 23.8565 209.189 23.6577 209.284 24.0742C209.426 24.7843 208.565 25.6647 208.091 26.0812C207.372 26.6859 206.543 27.1456 205.649 27.435C203.732 28.0952 201.645 28.0617 199.751 27.3403L199.543 27.2551C198.828 26.9619 198.156 26.5734 197.545 26.1002C196.183 25.0014 195.183 23.5177 194.677 21.8425C194.17 20.1674 194.18 18.3785 194.705 16.709C195.151 15.2713 195.952 13.969 197.034 12.9223C199.959 10.0822 205.033 9.49528 208.006 12.5815C209.212 14.1305 209.907 16.0162 209.994 17.9776H198.407ZM206.027 17.2297C206.027 17.2297 206.027 16.1789 206.027 16.0085C206.126 14.9862 205.983 13.9552 205.611 12.998C204.57 11.0289 202.004 10.9248 200.366 11.7957C198.274 12.9128 198.397 17.2297 198.397 17.2297H206.027Z" fill="#18171A"/>
</svg>
