<svg width="129" height="28" viewBox="0 0 129 28" fill="none" xmlns="http://www.w3.org/2000/svg">
<g clip-path="url(#clip0_3135_30410)">
<path d="M13.2814 27.4639H8.0044C8.0044 26.7971 8.0044 0.869433 8.0044 0.126465H13.2814C13.2814 0.717029 13.2814 26.7399 13.2814 27.4639ZM5.50879 13.7856H0.231812C0.231812 14.681 0.231812 26.8733 0.231812 27.4639H5.50879C5.50879 26.7018 5.50879 14.6239 5.50879 13.7856ZM21.0349 0.126465H15.7579C15.7579 0.736079 15.7579 13.3665 15.7579 13.8047H21.0349C21.0349 13.0617 21.0349 0.678928 21.0349 0.126465Z" fill="black"/>
<path d="M59.3834 12.4712V19.8247H57.6879V12.4522C57.6879 10.2042 56.7735 9.17551 54.8113 9.17551C52.4681 9.17551 51.2489 10.9091 51.2489 12.6046V19.8247H49.5534V7.74672H51.2489V9.06121C52.0871 8.22299 53.3444 7.57527 54.9066 7.57527C57.8022 7.57527 59.3834 9.30886 59.3834 12.4712ZM79.4245 7.57527C77.8433 7.57527 76.586 8.22299 75.7668 9.06121V2.4126H74.0713V19.8247H75.7668V12.6046C75.7668 10.9091 76.986 9.17551 79.3293 9.17551C81.2915 9.17551 82.2059 10.2233 82.2059 12.4522V19.8247H83.9014V12.4712C83.8823 9.30886 82.3011 7.57527 79.4245 7.57527ZM104.571 13.6905V13.8619C104.571 17.3672 102.075 20.0152 98.7607 20.0152C95.5221 20.0152 92.9694 17.3291 92.9694 13.9V13.7286C92.9694 10.2423 95.465 7.61337 98.7988 7.61337C102.152 7.59432 104.571 10.1661 104.571 13.6905ZM102.857 13.8619V13.6905C102.857 11.0234 101.199 9.17551 98.8179 9.17551C96.4366 9.17551 94.703 11.0806 94.703 13.7095V13.881C94.703 16.4909 96.4175 18.3959 98.7988 18.3959C101.199 18.3959 102.857 16.529 102.857 13.8619ZM111.829 7.57527C110.248 7.57527 108.991 8.22299 108.172 9.06121V7.74672H106.476V19.8438H108.172V12.6046C108.172 10.9091 109.391 9.17551 111.734 9.17551C113.696 9.17551 114.611 10.2233 114.611 12.4522V19.8247H116.306V12.4712C116.306 9.30886 114.725 7.57527 111.829 7.57527ZM66.8512 18.3959C64.489 18.3959 62.7554 16.4909 62.7554 13.881V13.7095C62.7554 11.0806 64.4889 9.17551 66.8703 9.17551C68.5276 9.17551 69.8231 10.0709 70.4708 11.4997H72.2806C71.4995 9.13741 69.4611 7.59432 66.8512 7.59432C63.5364 7.59432 61.0218 10.2233 61.0218 13.7095V13.881C61.0218 17.3101 63.5555 19.9962 66.8131 19.9962C69.6135 19.9962 71.8424 18.0911 72.452 15.3669H70.7184C70.2041 17.2148 68.7563 18.3959 66.8512 18.3959ZM91.7121 7.57527C90.1309 7.57527 88.8735 8.22299 88.0544 9.06121V7.74672H86.3589V19.8438H88.0544V12.6046C88.0544 10.9091 89.2736 9.17551 91.6168 9.17551C92.074 9.17551 92.455 9.23266 92.7979 9.34696V7.67052C92.455 7.59432 92.0931 7.57527 91.7121 7.57527ZM32.1984 12.8332C29.5123 12.395 29.0361 11.8997 29.0361 10.9282C29.0361 9.88038 30.1219 9.17551 31.7031 9.17551C33.3415 9.17551 34.2749 9.76607 34.5416 11.0615L34.5607 11.1377H36.3324L36.2943 10.9091C35.9323 8.77545 34.313 7.61337 31.7412 7.61337C29.1885 7.61337 27.3215 9.0231 27.3215 10.9472C27.3215 13.4809 29.4742 14.0524 31.8555 14.4525C34.1035 14.8335 34.7893 15.1574 34.7893 16.4909C34.7893 17.7101 33.6844 18.4721 31.9698 18.4721C29.6266 18.4721 28.9027 17.2339 28.7122 16.148H26.9024C27.112 18.5674 29.0551 20.0533 31.9508 20.0533C34.6559 20.0533 36.561 18.5674 36.561 16.4337C36.5419 13.7857 34.4845 13.2333 32.1984 12.8332ZM126.498 7.74672L122.821 17.6911L118.554 7.74672H116.801L121.907 19.7866L120.307 24.5111H122.078L128.232 7.74672H126.498ZM46.391 7.74672L42.7143 17.6911L38.447 7.74672H36.6943L41.7999 19.7866L40.1996 24.5111H41.9713L48.1246 7.74672H46.391Z" fill="#1F2937"/>
</g>
<defs>
<clipPath id="clip0_3135_30410">
<rect width="128" height="27.3946" fill="white" transform="translate(0.231812 0.126465)"/>
</clipPath>
</defs>
</svg>
