<svg width="152" height="39" viewBox="0 0 152 39" fill="none" xmlns="http://www.w3.org/2000/svg"> <path d="M20.1233 15.7034V22.282C20.0602 22.9966 20.2074 23.7323 20.5436 24.3838C20.922 24.8252 21.4684 25.0984 22.0569 25.0774C22.2671 25.0984 22.3722 25.2035 22.3722 25.3927C22.3722 25.5188 22.2881 25.6029 22.099 25.6029C22.0569 25.6029 21.9939 25.6029 21.8888 25.6029L21.2372 25.5818L20.1443 25.5188C20.0602 25.5188 19.9341 25.5188 19.787 25.5188C19.4507 25.5188 19.1354 25.5188 18.8832 25.5398L16.9496 25.6449C16.7394 25.6659 16.6133 25.6869 16.5292 25.6869C16.34 25.6869 16.256 25.6028 16.256 25.4557C16.256 25.3717 16.277 25.2666 16.34 25.2035C16.4451 25.1615 16.5712 25.1194 16.6763 25.1194C17.0757 25.1194 17.454 24.9303 17.7272 24.636C18.0005 24.2787 18.1266 23.8584 18.1056 23.417V22.9966V15.199C18.1056 14.7366 17.8533 14.5054 17.3699 14.5054C16.5712 14.4633 15.7515 14.5474 14.9949 14.7576C14.7427 14.8416 14.5325 14.9888 14.3854 15.199C14.1962 15.5773 14.0701 15.9766 13.965 16.397L13.902 16.6492C13.8389 16.8804 13.7338 17.0065 13.6077 17.0065C13.4185 17.0065 13.3345 16.9224 13.3345 16.7333C13.3555 16.5021 13.3765 16.2709 13.4185 16.0607L13.5026 15.304L13.6077 14.5264L13.6708 14.0009C13.6708 13.8118 13.8179 13.6646 13.986 13.6646C14.007 13.6646 14.007 13.6646 14.0281 13.6646C14.0911 13.6646 14.1962 13.6646 14.3223 13.6857C14.5535 13.7067 14.8688 13.7067 15.2891 13.7067L17.0757 13.7277L19.1985 13.7487C20.5647 13.7487 22.0149 13.7067 23.5492 13.6436C23.8435 13.6226 24.0536 13.6226 24.1377 13.6226C24.453 13.6226 24.6211 13.7487 24.6421 14.0219L24.6842 14.6525C24.6842 14.7576 24.7262 14.9888 24.7683 15.3671C24.8103 15.6193 24.8313 15.8715 24.8313 16.1027C24.8313 16.2919 24.7472 16.397 24.6001 16.397C24.474 16.397 24.3689 16.2919 24.3269 16.0607C24.2428 15.5983 24.0116 15.1779 23.6333 14.8837C23.1709 14.6104 22.6454 14.4843 22.12 14.5264C21.5525 14.4843 21.006 14.5474 20.4596 14.7366C20.2284 14.8206 20.1233 15.1569 20.1233 15.7034ZM28.9508 22.8285L29.0139 23.7112C29.0559 24.1106 29.2451 24.4679 29.5183 24.7411C29.8126 24.9933 30.1909 25.1194 30.5692 25.0984C30.8635 25.0984 30.9896 25.1825 30.9896 25.3717C30.9896 25.5398 30.8004 25.6239 30.4221 25.6239C30.2539 25.6239 30.0227 25.6028 29.7285 25.5818C29.119 25.4978 28.5095 25.4557 27.8789 25.4557C27.4165 25.4557 26.9541 25.4767 26.4917 25.5398C26.2815 25.5818 26.0714 25.6029 25.8612 25.6239C25.7351 25.6239 25.63 25.5608 25.609 25.4347L25.588 25.3717L25.8402 25.1615C26.1765 25.0774 26.4707 24.8882 26.6809 24.615C26.849 24.2787 26.9121 23.9004 26.8911 23.5221V22.7444V15.8085C26.9331 15.4091 26.828 15.0098 26.6178 14.6735C26.3446 14.4003 25.9873 14.2321 25.588 14.2111C25.3988 14.1901 25.2096 14.1481 25.0205 14.085C24.9364 14.043 24.8944 13.9589 24.8944 13.8538C24.8944 13.6857 24.9574 13.6016 25.1045 13.6226C25.2727 13.6436 25.4198 13.6646 25.5669 13.6857C25.9242 13.7487 26.2605 13.7697 26.6178 13.7487C26.9331 13.7487 27.3535 13.7277 27.8369 13.6857L28.4674 13.6436C29.0559 13.6016 29.5183 13.5806 29.8546 13.5806C30.0438 13.5806 30.1489 13.6436 30.1489 13.7907C30.1489 13.8748 30.1489 13.9379 30.1068 14.0009C30.0438 14.043 29.9597 14.085 29.8966 14.085C29.6024 14.106 29.3081 14.2321 29.098 14.4423C28.9508 14.7576 28.8878 15.0939 28.9298 15.4302L28.9508 22.8285ZM37.7363 13.3914C38.9134 13.4334 40.0693 13.7277 41.1413 14.2321C41.3514 14.3372 41.5616 14.4003 41.7718 14.4423C41.8559 14.4423 41.9399 14.4213 41.982 14.3582L42.0871 14.2742C42.1501 14.2111 42.2132 14.1901 42.2972 14.1901C42.4654 14.1901 42.5495 14.2952 42.5495 14.5054V15.1149L42.5074 16.3129L42.5284 16.9434C42.5495 17.0906 42.5495 17.2587 42.5915 17.4479C42.5915 17.5109 42.5915 17.574 42.5915 17.595C42.5915 17.7842 42.5074 17.8682 42.3183 17.8682C42.1922 17.8682 42.1081 17.7421 42.066 17.5109C41.8979 16.7333 41.5196 16.0186 40.9521 15.4722C40.1534 14.5684 38.9764 14.043 37.7784 14.064C36.6644 14.0219 35.5925 14.5474 34.941 15.4722C34.1843 16.5651 33.806 17.8682 33.869 19.1924C33.827 20.6636 34.2053 22.1349 34.962 23.396C35.6976 24.5309 36.6014 25.0984 37.6733 25.0984C38.0937 25.0774 38.493 25.0143 38.8923 24.8882C39.2917 24.7832 39.67 24.636 40.0063 24.4258C40.2375 24.2787 40.4056 24.0265 40.4897 23.7743C40.5948 23.3329 40.6368 22.8705 40.6158 22.4291C40.6789 21.9247 40.5317 21.3993 40.2375 20.9789C39.8381 20.6636 39.3337 20.4955 38.8293 20.5165C38.6401 20.4955 38.556 20.4114 38.556 20.2643C38.556 20.0961 38.6611 20.0121 38.8713 20.0121C38.9344 20.0121 39.0395 20.0121 39.1866 20.0331C39.7541 20.0751 40.4056 20.1172 41.1202 20.1172C41.6667 20.1172 42.2132 20.0961 42.7596 20.0541C42.9698 20.0121 43.201 20.0121 43.4112 19.991C43.6214 19.991 43.7265 20.0751 43.7265 20.2222C43.7265 20.3694 43.6214 20.4534 43.4112 20.4955C43.0959 20.5375 42.8437 20.7477 42.7176 21.0419C42.5705 21.5254 42.5074 22.0088 42.5284 22.5132C42.5284 22.7024 42.5284 22.8915 42.5495 23.0807C42.5705 23.3749 42.5915 23.5641 42.5915 23.6902C42.6125 23.8373 42.5705 23.9634 42.4864 24.0896C42.3603 24.2157 42.2132 24.2997 42.045 24.3418C41.9189 24.3838 41.4565 24.594 40.6578 24.9303C39.5229 25.4767 38.2828 25.771 37.0217 25.834C35.5715 25.8761 34.1633 25.3086 33.1754 24.2367C32.1456 23.1017 31.6201 21.6305 31.6832 20.1172C31.6411 18.3727 32.2507 16.6702 33.4066 15.3671C34.5206 14.064 36.0969 13.3494 37.7363 13.3914ZM48.3714 15.6193V17.5109C48.3504 17.8682 48.3925 18.2045 48.4976 18.5408C48.5816 18.6879 48.7708 18.751 49.065 18.751H49.3383H49.7166H50.4522C51.0407 18.73 51.5872 18.3516 51.7974 17.8052L52.0076 17.3848C52.0496 17.2797 52.1547 17.2167 52.2598 17.2167C52.3859 17.2167 52.4489 17.3008 52.4489 17.4479C52.4489 17.4899 52.4489 17.616 52.4279 17.8262C52.4069 17.9733 52.4069 18.0994 52.4069 18.2045C52.4069 18.3937 52.4279 18.8351 52.491 19.5076C52.533 19.949 52.533 20.3484 52.533 20.6846L52.554 21.126C52.554 21.1891 52.554 21.2311 52.533 21.2942C52.491 21.3362 52.4489 21.3572 52.3859 21.3572C52.2388 21.3782 52.1547 21.2521 52.1126 21.0209C52.0706 20.6006 51.8814 20.2012 51.5872 19.886C51.4401 19.7388 51.2299 19.6548 51.0407 19.6127C50.6414 19.5707 50.221 19.5497 49.8217 19.5497H49.2332C49.044 19.5287 48.8338 19.5707 48.6657 19.6758C48.5396 19.8229 48.4765 19.9911 48.4555 20.1802C48.4135 20.6426 48.3925 21.105 48.3925 21.5674V22.3451C48.3714 22.9336 48.4345 23.5431 48.5816 24.1106C48.6657 24.552 49.1071 24.8462 49.5484 24.7832C51.9025 24.7832 53.4578 24.0685 54.1724 22.6183C54.2144 22.5552 54.2565 22.5132 54.2775 22.5132C54.3405 22.4922 54.4036 22.5342 54.4456 22.5763C54.4877 22.6183 54.5297 22.7024 54.5297 22.7654C54.5297 23.3539 54.3616 23.9214 54.0673 24.4258C53.8571 24.8462 53.5208 25.1825 53.1005 25.3927C52.6171 25.6029 52.0916 25.7079 51.5662 25.6869C51.1458 25.6869 50.7465 25.6659 50.3261 25.6239L49.3173 25.5398C48.9389 25.4978 48.4345 25.4767 47.804 25.4767C47.3836 25.4767 46.732 25.4978 45.8703 25.5608C45.6391 25.5818 45.471 25.5818 45.3659 25.5818C45.2608 25.6028 45.1557 25.5188 45.1347 25.4137V25.3927C45.1347 25.2876 45.1977 25.2035 45.3238 25.1405C45.5761 25.0564 45.8072 24.9303 45.9964 24.7411C46.1435 24.5099 46.2486 24.2577 46.2696 23.9845C46.3537 23.5641 46.3747 23.1437 46.3747 22.7234V15.8295C46.4168 15.3671 46.3117 14.9047 46.0595 14.5054C45.6811 14.2111 45.2187 14.043 44.7353 14.0219C44.6092 14.0219 44.5041 13.9169 44.5041 13.7697C44.5041 13.6436 44.6092 13.5596 44.7984 13.5596C44.8404 13.5596 44.9245 13.5595 45.0716 13.5806C45.1767 13.5806 45.3238 13.5806 45.492 13.5806L46.3747 13.6226L49.6746 13.6646C51.5872 13.6646 52.7432 13.6436 53.1846 13.5806C53.2266 13.5806 53.2686 13.5806 53.3107 13.5806C53.4788 13.5806 53.5629 13.6857 53.5629 13.8748C53.5629 14.0009 53.5839 14.2531 53.6259 14.5894C53.668 15.0939 53.689 15.4722 53.689 15.6824C53.689 16.1237 53.5839 16.3549 53.3527 16.3549C53.2476 16.3549 53.1846 16.2288 53.1846 15.9766C53.2266 15.4722 52.9744 14.9888 52.554 14.7155C51.9235 14.4213 51.2089 14.2742 50.5153 14.3372H49.4434L48.8549 14.4003C48.5606 14.4843 48.4135 14.7786 48.4135 15.283L48.3714 15.6193ZM58.9014 22.1349C58.8384 22.8915 58.9435 23.6692 59.2167 24.3838C59.4689 24.8042 59.9313 25.0564 60.4147 25.0564C60.667 25.0774 60.772 25.1825 60.772 25.3506C60.772 25.5188 60.667 25.6029 60.4778 25.6029C60.4147 25.6029 60.2886 25.6028 60.1205 25.5818C59.6161 25.5398 59.1326 25.5188 58.6703 25.5188C58.2919 25.5188 57.9346 25.5398 57.6404 25.5608L56.9047 25.6239L56.3162 25.6659C56.1481 25.6869 56.043 25.6869 55.9799 25.6869C55.7698 25.6869 55.6647 25.6028 55.6647 25.4557C55.6437 25.3506 55.7277 25.2455 55.8328 25.2035C56.1481 25.1405 56.4423 24.9513 56.6525 24.7201C56.8207 24.4469 56.9047 24.1106 56.8837 23.7743V22.9546L56.9047 22.6183V16.3129C56.9468 15.8295 56.8627 15.3461 56.6315 14.9047C56.2952 14.4843 55.7698 14.2321 55.2443 14.2111C55.0131 14.1691 54.887 14.064 54.887 13.9169C54.866 13.7907 54.9501 13.6857 55.0762 13.6646C55.0972 13.6646 55.1182 13.6646 55.1392 13.6646C55.2443 13.6646 55.3494 13.6646 55.4545 13.6857C55.9379 13.7277 56.4423 13.7697 56.9258 13.7487C57.5143 13.7487 58.2289 13.7067 59.0696 13.6436C60.0574 13.5595 60.73 13.5385 61.1083 13.5385C62.0962 13.4965 63.084 13.8328 63.8617 14.4423C64.5553 14.9888 64.9756 15.8295 64.9546 16.7122C64.9546 17.2797 64.7865 17.8262 64.4712 18.2886C64.1349 18.772 63.6725 19.1503 63.1471 19.3605C63.042 19.4025 62.9789 19.4656 62.9789 19.5287C63 19.6127 63.021 19.6758 63.063 19.7388C63.105 19.8229 63.1891 19.949 63.2942 20.1382L64.0719 21.5254L64.9756 23.1227C65.1858 23.5431 65.4591 23.9214 65.7953 24.2367C66.0265 24.4469 66.3418 24.552 66.6571 24.552C66.7832 24.552 66.9093 24.5519 67.0354 24.5099C67.0985 24.4889 67.1615 24.4889 67.2246 24.4889C67.3297 24.4889 67.3927 24.552 67.3927 24.6991C67.3927 24.8672 67.1615 25.0564 66.6781 25.2666C66.2788 25.4557 65.8584 25.5818 65.417 25.5818C64.7655 25.5608 64.1559 25.2245 63.7566 24.6991C62.9789 23.6692 62.3274 22.5552 61.7809 21.3572C61.5918 20.9158 61.3395 20.4955 61.0032 20.1382C60.709 19.949 60.3517 19.8439 60.0154 19.886H59.4689L59.0696 19.949C58.9855 19.9911 58.9435 20.1382 58.9435 20.3694L58.9014 22.1349ZM58.9014 15.3251V18.3516C58.8804 18.6039 58.9225 18.8351 59.0486 19.0663C59.2588 19.1924 59.49 19.2554 59.7422 19.2134C60.3937 19.2344 61.0243 19.2134 61.6758 19.1503C61.928 19.1083 62.1803 18.9822 62.3694 18.793C62.8108 18.3937 63.042 17.8052 63 17.1957C63.042 15.5773 61.7809 14.2111 60.1415 14.1691C60.0785 14.1691 60.0154 14.1691 59.9313 14.1691C59.6371 14.127 59.3428 14.2321 59.1116 14.4213C58.9435 14.6735 58.8594 15.0098 58.9014 15.3251Z" fill="black"/> <path d="M74.342 13.4154C75.519 13.4574 76.696 13.7517 77.7469 14.2561C77.957 14.3612 78.1672 14.4243 78.3774 14.4663C78.4615 14.4663 78.5455 14.4453 78.5876 14.3822L78.6927 14.2982C78.7557 14.2351 78.8188 14.2141 78.9029 14.2141C79.071 14.2141 79.1551 14.3192 79.1551 14.5294V15.1389L79.113 16.3369L79.1341 16.9674C79.1551 17.1146 79.1551 17.2827 79.1761 17.4719C79.1761 17.5349 79.1761 17.598 79.1761 17.619C79.1761 17.8082 79.092 17.8922 78.9029 17.8922C78.7767 17.8922 78.6927 17.7661 78.6506 17.5349C78.5035 16.7573 78.1042 16.0427 77.5367 15.4962C76.738 14.5924 75.561 14.067 74.363 14.088C73.249 14.067 72.1771 14.5714 71.5255 15.4962C70.7689 16.5891 70.3906 17.8922 70.4536 19.2164C70.4116 20.6876 70.7899 22.1589 71.5466 23.42C72.2822 24.5549 73.186 25.1224 74.2579 25.1224C74.6782 25.1014 75.0776 25.0384 75.4769 24.9122C75.8763 24.8072 76.2546 24.66 76.6119 24.4499C76.8431 24.3027 77.0112 24.0505 77.0953 23.7983C77.2004 23.3569 77.2424 22.8945 77.2214 22.4531C77.2845 21.9487 77.1373 21.4233 76.8431 21.0029C76.4437 20.6876 75.9393 20.5195 75.4349 20.5405C75.2457 20.5195 75.1617 20.4354 75.1617 20.2883C75.1617 20.1202 75.2667 20.0361 75.4769 20.0361C75.54 20.0361 75.6451 20.0361 75.7922 20.0571C76.3597 20.0991 77.0112 20.1412 77.7258 20.1412C78.2723 20.1412 78.8188 20.1202 79.3652 20.0781C79.5754 20.0361 79.8066 20.0361 80.0168 20.0151C80.227 20.0151 80.3321 20.0991 80.3321 20.2463C80.3321 20.3934 80.227 20.4775 80.0168 20.5195C79.7015 20.5615 79.4493 20.7717 79.3232 21.066C79.1761 21.5494 79.092 22.0328 79.1341 22.5372C79.1341 22.7264 79.1341 22.9155 79.1551 23.1047C79.1761 23.399 79.1971 23.5881 79.1971 23.7142C79.2181 23.8613 79.1761 23.9875 79.092 24.1136C78.9659 24.2397 78.8188 24.3237 78.6506 24.3658C78.5245 24.4078 78.0621 24.618 77.2635 24.9543C76.1285 25.5007 74.8884 25.795 73.6273 25.8581C72.1771 25.9001 70.7689 25.3326 69.781 24.2607C68.7512 23.1257 68.2257 21.6545 68.2888 20.1412C68.2467 18.3967 68.8563 16.6942 70.0122 15.3911C71.1052 14.088 72.6815 13.3734 74.342 13.4154ZM84.9771 22.8315C84.9771 23.9244 85.1032 24.5339 85.3764 24.66C85.6496 24.7651 85.9439 24.7861 86.2381 24.7651C88.2138 24.7651 89.601 24.1766 90.4207 23.0206C90.6729 22.6633 90.8411 22.4952 90.9041 22.4952C91.0092 22.4952 91.0723 22.6213 91.0723 22.8525C91.0723 23.5881 90.82 24.2817 90.3576 24.8282C89.9373 25.3326 89.2857 25.6269 88.6132 25.6058C88.466 25.6058 88.1928 25.5848 87.7935 25.5638L86.7426 25.5008L85.7968 25.4587C85.4815 25.4377 85.1032 25.4377 84.7038 25.4377C83.9682 25.4377 83.2536 25.4797 82.5179 25.5638C82.2867 25.5848 82.1186 25.6058 82.0345 25.6058C81.8664 25.6058 81.7823 25.5218 81.7823 25.3746C81.7823 25.2696 81.8664 25.1855 82.0135 25.1434C82.3498 25.0594 82.623 24.8492 82.7912 24.5339C82.9593 24.0715 83.0434 23.5671 83.0014 23.0627V15.7904C83.0014 14.8657 82.623 14.3402 81.8454 14.2141L81.3199 14.13C81.1097 14.088 80.9836 14.0039 80.9836 13.8568C80.9626 13.7307 81.0467 13.6046 81.1728 13.5836C81.1938 13.5836 81.2148 13.5836 81.2358 13.5836C81.3199 13.5836 81.404 13.6046 81.4881 13.6046C81.5721 13.6046 81.6772 13.6256 81.8244 13.6466L82.2027 13.6676C82.56 13.7097 82.8332 13.7307 83.0014 13.7307C83.4427 13.7097 83.8841 13.6886 84.3465 13.6256C84.8089 13.5836 85.2713 13.5625 85.7337 13.5625C86.091 13.5625 86.2591 13.6466 86.2591 13.8148C86.2591 13.9619 86.133 14.046 85.8808 14.046C85.2923 14.088 84.9981 14.4873 84.9981 15.265L84.9771 22.8315ZM98.1974 13.3944C99.8157 13.3313 101.392 13.8988 102.59 14.9707C103.725 16.0637 104.335 17.577 104.272 19.1323C104.314 20.8768 103.704 22.5793 102.548 23.8824C101.434 25.1434 99.8788 25.795 97.9031 25.795C96.2427 25.8791 94.6033 25.2696 93.3842 24.1346C92.2283 22.9576 91.6187 21.3602 91.6818 19.7208C91.6818 18.9221 91.8289 18.1234 92.1021 17.3668C92.6486 15.7904 93.8466 14.5294 95.423 13.9409C96.3057 13.5625 97.2516 13.3944 98.1974 13.3944ZM97.5668 14.046C96.4949 14.0039 95.465 14.4873 94.8345 15.3491C94.1829 16.2108 93.8466 17.4298 93.8466 18.9642C93.7836 20.5405 94.2039 22.0958 95.0867 23.42C95.8013 24.4919 97.0204 25.1434 98.3025 25.1434C99.4374 25.1645 100.509 24.639 101.161 23.7352C101.918 22.6213 102.296 21.2972 102.233 19.952C102.233 19.0272 102.065 18.1234 101.728 17.2827C101.455 16.5051 100.993 15.7904 100.404 15.2019C99.6476 14.4453 98.6177 14.0249 97.5668 14.046ZM107.046 16.1477C107.046 14.9707 106.563 14.3402 105.617 14.2141L105.217 14.1721C105.091 14.151 105.028 14.067 105.028 13.9198C105.028 13.7517 105.112 13.6676 105.28 13.6676H105.491L106.142 13.7097C106.689 13.7307 107.025 13.7517 107.172 13.7517C107.592 13.7517 108.349 13.7097 109.463 13.6046C110.157 13.5415 110.724 13.4995 111.207 13.4995C112.258 13.4574 113.309 13.7307 114.192 14.2982C114.907 14.7606 115.327 15.5803 115.306 16.421C115.369 17.3668 114.802 18.2285 113.919 18.5648C113.709 18.6489 113.604 18.733 113.583 18.796C113.583 18.9011 113.688 18.9642 113.919 19.0062C114.591 19.1113 115.201 19.4476 115.642 19.952C116.063 20.4775 116.294 21.15 116.273 21.8436C116.315 22.8735 115.894 23.8824 115.117 24.576C114.234 25.2906 113.12 25.6479 111.985 25.5848L110.22 25.5428L108.853 25.5218C108.097 25.5218 107.34 25.5428 106.584 25.6269C106.394 25.6479 106.205 25.6689 106.037 25.6689C105.869 25.6689 105.764 25.5848 105.764 25.4377C105.764 25.3116 105.848 25.2275 105.995 25.1855C106.689 25.0594 107.046 24.4709 107.046 23.3779V16.1477ZM109.043 15.3911V17.8922C109.022 18.1655 109.106 18.4177 109.295 18.6069C109.547 18.775 109.841 18.8381 110.157 18.817L111.355 18.8381L111.901 18.817C112.889 18.6909 113.393 18.1024 113.393 17.0305C113.435 16.2528 113.12 15.4752 112.574 14.9287C111.985 14.3822 111.186 14.088 110.388 14.13C110.009 14.088 109.631 14.1721 109.337 14.3822C109.106 14.6765 109.001 15.0338 109.043 15.3911ZM109.043 21.1921V22.6423L109.064 22.9786L109.127 23.7142C109.19 24.5549 109.862 24.9753 111.123 24.9753C112.363 24.9753 113.204 24.6811 113.667 24.0715C114.045 23.5461 114.234 22.9155 114.234 22.285C114.234 20.9188 113.625 20.0781 112.406 19.7628C111.628 19.5737 110.808 19.4896 110.009 19.4896C109.589 19.4896 109.316 19.5947 109.211 19.7839C109.064 20.2463 109.022 20.7297 109.043 21.1921ZM123.629 14.6134L127.602 23.7352C127.749 24.1346 128.001 24.4709 128.295 24.7651C128.589 24.9963 128.947 25.1645 129.325 25.2275C129.43 25.2485 129.472 25.3326 129.472 25.4797C129.472 25.6479 129.409 25.7109 129.262 25.7109C129.157 25.7109 129.031 25.6899 128.926 25.6689C128.211 25.5428 127.475 25.5008 126.761 25.5218C126.067 25.5008 125.395 25.5428 124.722 25.6689C124.659 25.6899 124.575 25.7109 124.491 25.7109C124.365 25.7319 124.26 25.6479 124.239 25.5218C124.239 25.5008 124.239 25.4797 124.239 25.4587C124.239 25.3746 124.302 25.3116 124.428 25.2696C124.701 25.1855 124.932 25.0384 125.121 24.8282C125.29 24.639 125.395 24.4078 125.395 24.1556C125.247 23.399 124.995 22.6843 124.638 22.0118C124.47 21.6755 124.302 21.4863 124.113 21.4233C123.44 21.3392 122.767 21.3182 122.116 21.3392H120.981L120.203 21.4863C119.993 21.5914 119.741 21.9697 119.468 22.6423L119.194 23.3149C119.11 23.504 119.068 23.6932 119.068 23.9034C119.068 24.639 119.573 25.0594 120.603 25.1855C120.813 25.2065 120.939 25.2906 120.918 25.4377C120.897 25.5848 120.792 25.6689 120.603 25.6689C120.455 25.6689 120.308 25.6479 120.161 25.6269C119.825 25.5638 119.468 25.5218 119.131 25.5008C118.858 25.5008 118.417 25.5218 117.807 25.5848C117.345 25.6269 117.072 25.6479 116.966 25.6479C116.798 25.6479 116.714 25.5848 116.714 25.4377C116.714 25.3116 116.798 25.2275 116.966 25.1645C117.261 25.0804 117.534 24.8702 117.723 24.618C118.059 24.0926 118.333 23.5251 118.564 22.9576L120.939 17.4719C121.128 17.0305 121.254 16.7363 121.338 16.5681L122.158 14.9077L122.578 14.088V14.109C122.767 13.6676 122.893 13.4364 122.957 13.4364C123.041 13.4364 123.209 13.6886 123.44 14.1721L123.629 14.6134ZM123.965 20.0571L122.83 17.3878C122.557 16.7573 122.368 16.442 122.242 16.442C122.179 16.442 122.053 16.6522 121.864 17.0515L121.695 17.4088L120.687 19.7418L120.582 19.952C120.539 20.0151 120.518 20.0991 120.518 20.1832C120.518 20.3724 120.729 20.4775 121.149 20.4775H123.713C123.923 20.4775 124.049 20.4144 124.049 20.2883C124.049 20.2463 124.028 20.1832 124.007 20.1412L123.965 20.0571ZM133.402 22.8315C133.402 23.9244 133.529 24.5339 133.802 24.66C134.075 24.7651 134.369 24.7861 134.643 24.7651C136.618 24.7651 138.005 24.1766 138.825 23.0206C139.077 22.6633 139.245 22.4952 139.309 22.4952C139.414 22.4952 139.477 22.6213 139.477 22.8525C139.477 23.5881 139.224 24.2817 138.762 24.8282C138.342 25.3326 137.69 25.6269 137.018 25.6058C136.87 25.6058 136.597 25.5848 136.177 25.5638L135.126 25.5008L134.18 25.4587C133.865 25.4377 133.487 25.4377 133.087 25.4377C132.352 25.4377 131.637 25.4797 130.901 25.5638C130.67 25.5848 130.502 25.6058 130.418 25.6058C130.25 25.6058 130.166 25.5218 130.166 25.3746C130.166 25.2696 130.25 25.1855 130.397 25.1434C130.733 25.0594 131.006 24.8492 131.175 24.5339C131.343 24.0715 131.406 23.5671 131.385 23.0627V15.7904C131.385 14.8657 131.006 14.3402 130.229 14.2141L129.703 14.13C129.472 14.088 129.367 14.0039 129.367 13.8568C129.346 13.7307 129.43 13.6046 129.556 13.5836C129.577 13.5836 129.598 13.5836 129.619 13.5836C129.703 13.5836 129.787 13.6046 129.871 13.6046C129.956 13.6046 130.061 13.6256 130.208 13.6466L130.586 13.6676C130.943 13.7097 131.217 13.7307 131.385 13.7307C131.658 13.7307 132.12 13.6886 132.73 13.6256C133.192 13.5836 133.655 13.5625 134.117 13.5625C134.474 13.5625 134.643 13.6466 134.643 13.8148C134.643 13.9619 134.516 14.046 134.264 14.046C133.676 14.088 133.381 14.4873 133.381 15.265L133.402 22.8315Z" fill="black"/> </svg>
