<svg width="131" height="14" viewBox="0 0 131 14" fill="none" xmlns="http://www.w3.org/2000/svg">
<path d="M13.3474 0.352226L7.68731 13.1331H6.35445L0.694336 0.352226H2.15501L7.04827 11.4534L11.978 0.352226H13.3474Z" fill="#18171A"/>
<path d="M20.6646 13.2427C19.3987 13.2427 18.2484 12.9627 17.2138 12.4028C16.1913 11.8307 15.3879 11.0517 14.8037 10.0657C14.2316 9.07975 13.9455 7.97208 13.9455 6.74268C13.9455 5.51328 14.2316 4.4056 14.8037 3.41964C15.3879 2.43369 16.1913 1.66075 17.2138 1.10082C18.2484 0.528724 19.3987 0.242676 20.6646 0.242676C21.9306 0.242676 23.0687 0.522638 24.079 1.08256C25.1014 1.64249 25.9048 2.42152 26.4891 3.41964C27.0733 4.4056 27.3655 5.51328 27.3655 6.74268C27.3655 7.97208 27.0733 9.08584 26.4891 10.084C25.9048 11.0699 25.1014 11.8429 24.079 12.4028C23.0687 12.9627 21.9306 13.2427 20.6646 13.2427ZM20.6646 12.0376C21.6749 12.0376 22.5879 11.8124 23.4034 11.3621C24.2189 10.8995 24.858 10.2666 25.3205 9.46318C25.7831 8.64764 26.0144 7.7408 26.0144 6.74268C26.0144 5.74455 25.7831 4.8438 25.3205 4.04043C24.858 3.22489 24.2189 2.59193 23.4034 2.14155C22.5879 1.679 21.6749 1.44773 20.6646 1.44773C19.6543 1.44773 18.7353 1.679 17.9076 2.14155C17.0921 2.59193 16.4469 3.22489 15.9722 4.04043C15.5097 4.8438 15.2784 5.74455 15.2784 6.74268C15.2784 7.7408 15.5097 8.64764 15.9722 9.46318C16.4469 10.2666 17.0921 10.8995 17.9076 11.3621C18.7353 11.8124 19.6543 12.0376 20.6646 12.0376Z" fill="#18171A"/>
<path d="M30.394 0.352226H31.7451V11.9646H38.9024V13.1331H30.394V0.352226Z" fill="#18171A"/>
<path d="M42.4342 1.52077H37.9427V0.352226H48.2769V1.52077H43.7854V13.1331H42.4342V1.52077Z" fill="#18171A"/>
<path d="M60.7646 13.2427C59.4986 13.2427 58.3545 12.9627 57.332 12.4028C56.3217 11.8429 55.5244 11.0699 54.9401 10.084C54.368 9.08584 54.082 7.97208 54.082 6.74268C54.082 5.51328 54.368 4.4056 54.9401 3.41964C55.5244 2.42152 56.3278 1.64249 57.3502 1.08256C58.3727 0.522638 59.5169 0.242676 60.7828 0.242676C61.7323 0.242676 62.6087 0.400916 63.412 0.717395C64.2154 1.03387 64.897 1.49642 65.457 2.10504L64.5988 2.96318C63.6007 1.95288 62.3409 1.44773 60.8193 1.44773C59.809 1.44773 58.89 1.679 58.0623 2.14155C57.2346 2.6041 56.5834 3.23706 56.1087 4.04043C55.6461 4.8438 55.4148 5.74455 55.4148 6.74268C55.4148 7.7408 55.6461 8.64155 56.1087 9.44492C56.5834 10.2483 57.2346 10.8813 58.0623 11.3438C58.89 11.8063 59.809 12.0376 60.8193 12.0376C62.3531 12.0376 63.6129 11.5264 64.5988 10.5039L65.457 11.3621C64.897 11.9707 64.2093 12.4393 63.3938 12.768C62.5904 13.0844 61.714 13.2427 60.7646 13.2427Z" fill="#18171A"/>
<path d="M76.0318 9.7188H68.911L67.3773 13.1331H65.9714L71.814 0.352226H73.1469L78.9896 13.1331H77.5655L76.0318 9.7188ZM75.5388 8.62329L72.4714 1.75813L69.4039 8.62329H75.5388Z" fill="#18171A"/>
<path d="M85.8876 0.352226C87.5187 0.352226 88.7968 0.741739 89.7219 1.52077C90.647 2.29979 91.1095 3.37095 91.1095 4.73425C91.1095 6.09755 90.647 7.16871 89.7219 7.94773C88.7968 8.71459 87.5187 9.09801 85.8876 9.09801H82.455V13.1331H81.1039V0.352226H85.8876ZM85.8511 7.91122C87.117 7.91122 88.0847 7.63734 88.7542 7.08959C89.4236 6.52966 89.7584 5.74455 89.7584 4.73425C89.7584 3.69961 89.4236 2.90841 88.7542 2.36065C88.0847 1.80073 87.117 1.52077 85.8511 1.52077H82.455V7.91122H85.8511Z" fill="#18171A"/>
<path d="M94.031 0.352226H95.3821V13.1331H94.031V0.352226Z" fill="#18171A"/>
<path d="M102.024 1.52077H97.5322V0.352226H107.866V1.52077H103.375V13.1331H102.024V1.52077Z" fill="#18171A"/>
<path d="M117.398 9.7188H110.278L108.744 13.1331H107.338L113.181 0.352226H114.514L120.356 13.1331H118.932L117.398 9.7188ZM116.906 8.62329L113.838 1.75813L110.771 8.62329H116.906Z" fill="#18171A"/>
<path d="M122.471 0.352226H123.822V11.9646H130.979V13.1331H122.471V0.352226Z" fill="#18171A"/>
</svg>
