<svg width="49" height="48" viewBox="0 0 49 48" fill="none" xmlns="http://www.w3.org/2000/svg">
<rect x="0.5" width="48" height="48" rx="16" fill="#EDEBFF"/>
<path d="M34.75 35.25H15.25C14.4227 35.25 13.75 34.5773 13.75 33.75V29.25C13.75 28.4227 14.4227 27.75 15.25 27.75H34.75C35.5773 27.75 36.25 28.4227 36.25 29.25V33.75C36.25 34.5773 35.5773 35.25 34.75 35.25ZM15.25 29.25V33.75H34.7507L34.75 29.25H15.25Z" fill="#522FD4"/>
<path d="M22.75 32.25H17.5C17.086 32.25 16.75 31.914 16.75 31.5C16.75 31.086 17.086 30.75 17.5 30.75H22.75C23.164 30.75 23.5 31.086 23.5 31.5C23.5 31.914 23.164 32.25 22.75 32.25ZM32.5 32.25C32.305 32.25 32.11 32.1675 31.9675 32.0325C31.8325 31.89 31.75 31.7025 31.75 31.5C31.75 31.305 31.8325 31.11 31.9675 30.9675C32.1775 30.7575 32.515 30.69 32.785 30.81C32.875 30.8475 32.9575 30.9 33.0325 30.9675C33.1675 31.11 33.25 31.305 33.25 31.5C33.25 31.5525 33.2425 31.5975 33.235 31.65C33.2275 31.695 33.2125 31.74 33.19 31.785C33.175 31.83 33.1525 31.875 33.1225 31.92C33.0925 31.9575 33.0625 31.995 33.0325 32.0325C32.9575 32.1 32.875 32.1525 32.785 32.19C32.695 32.235 32.5975 32.25 32.5 32.25ZM29.5 32.25C29.4025 32.25 29.305 32.235 29.215 32.19C29.125 32.1525 29.0425 32.1 28.9675 32.0325C28.8325 31.89 28.75 31.7025 28.75 31.5C28.75 31.305 28.8325 31.11 28.9675 30.9675C29.0425 30.9 29.125 30.8475 29.215 30.81C29.4925 30.69 29.8225 30.7575 30.0325 30.9675C30.1675 31.11 30.25 31.305 30.25 31.5C30.25 31.7025 30.1675 31.89 30.0325 32.0325C29.89 32.1675 29.695 32.25 29.5 32.25ZM25 29.25C20.4512 29.25 16.75 25.5488 16.75 21C16.75 16.4512 20.4512 12.75 25 12.75C29.5488 12.75 33.25 16.4512 33.25 21C33.25 25.5488 29.5488 29.25 25 29.25ZM25 14.25C21.2785 14.25 18.25 17.2785 18.25 21C18.25 24.7215 21.2785 27.75 25 27.75C28.7215 27.75 31.75 24.7215 31.75 21C31.75 17.2785 28.7215 14.25 25 14.25Z" fill="#522FD4"/>
<path d="M25 29.25C22.564 29.25 21.25 24.9998 21.25 21C21.25 17.0002 22.564 12.75 25 12.75C27.436 12.75 28.75 17.0002 28.75 21C28.75 24.9998 27.436 29.25 25 29.25ZM25 14.25C24.0827 14.25 22.75 16.8795 22.75 21C22.75 25.1205 24.0827 27.75 25 27.75C25.9173 27.75 27.25 25.1205 27.25 21C27.25 16.8795 25.9173 14.25 25 14.25Z" fill="#522FD4"/>
<path d="M25 24.75C21.0002 24.75 16.75 23.436 16.75 21C16.75 18.564 21.0002 17.25 25 17.25C28.9998 17.25 33.25 18.564 33.25 21C33.25 23.436 28.9998 24.75 25 24.75ZM25 18.75C20.8795 18.75 18.25 20.0827 18.25 21C18.25 21.9173 20.8795 23.25 25 23.25C29.1205 23.25 31.75 21.9173 31.75 21C31.75 20.0827 29.1205 18.75 25 18.75Z" fill="#522FD4"/>
</svg>
