<svg width="48" height="48" viewBox="0 0 48 48" fill="none" xmlns="http://www.w3.org/2000/svg">
<rect width="48" height="48" rx="16" fill="#EDEBFF"/>
<path d="M33.0035 16.4102L33.7135 15.7102C33.9018 15.5219 34.0076 15.2665 34.0076 15.0002C34.0076 14.7339 33.9018 14.4785 33.7135 14.2902C33.5252 14.1019 33.2698 13.9961 33.0035 13.9961C32.7372 13.9961 32.4818 14.1019 32.2935 14.2902L30.8935 15.7002L28.0635 18.5302L21.7535 24.8302C20.7196 24.148 19.4692 23.8739 18.2447 24.0611C17.0202 24.2482 15.9087 24.8832 15.1257 25.843C14.3427 26.8029 13.9438 28.0192 14.0064 29.2563C14.069 30.4935 14.5886 31.6633 15.4645 32.5392C16.3404 33.4151 17.5102 33.9347 18.7474 33.9973C19.9845 34.0599 21.2008 33.661 22.1607 32.878C23.1205 32.095 23.7555 30.9835 23.9426 29.759C24.1298 28.5345 23.8557 27.2841 23.1735 26.2502L28.7635 20.6502L30.8835 22.7802C30.9768 22.8728 31.0873 22.9461 31.2089 22.9959C31.3305 23.0458 31.4607 23.0712 31.5921 23.0707C31.7234 23.0703 31.8535 23.0439 31.9747 22.9932C32.0959 22.9425 32.2059 22.8684 32.2985 22.7752C32.3911 22.6819 32.4644 22.5714 32.5143 22.4498C32.5641 22.3282 32.5895 22.198 32.5891 22.0666C32.5886 21.9353 32.5623 21.8052 32.5116 21.684C32.4608 21.5628 32.3868 21.4528 32.2935 21.3602L30.1735 19.2402L31.5935 17.8302L32.2935 18.5302C32.3861 18.6234 32.4961 18.6975 32.6174 18.7482C32.7386 18.7989 32.8686 18.8253 33 18.8257C33.1314 18.8262 33.2616 18.8008 33.3831 18.7509C33.5047 18.7011 33.6153 18.6278 33.7085 18.5352C33.8018 18.4426 33.8758 18.3326 33.9266 18.2113C33.9773 18.0901 34.0036 17.9601 34.0041 17.8287C34.0045 17.6973 33.9791 17.5671 33.9293 17.4456C33.8794 17.324 33.8061 17.2134 33.7135 17.1202L33.0035 16.4102ZM19.0035 32.0002C18.4102 32.0002 17.8302 31.8242 17.3368 31.4946C16.8435 31.165 16.4589 30.6964 16.2319 30.1482C16.0048 29.6001 15.9454 28.9969 16.0612 28.4149C16.1769 27.833 16.4626 27.2984 16.8822 26.8789C17.3018 26.4593 17.8363 26.1736 18.4182 26.0578C19.0002 25.9421 19.6034 26.0015 20.1516 26.2285C20.6997 26.4556 21.1683 26.8401 21.4979 27.3335C21.8276 27.8268 22.0035 28.4068 22.0035 29.0002C22.0035 29.7958 21.6874 30.5589 21.1248 31.1215C20.5622 31.6841 19.7992 32.0002 19.0035 32.0002Z" fill="#522FD4"/>
</svg>
