<svg width="48" height="48" viewBox="0 0 48 48" fill="none" xmlns="http://www.w3.org/2000/svg">
<rect width="48" height="48" rx="16" fill="#EDEBFF"/>
<path d="M33.28 17.52C32.9638 16.4996 32.3291 15.6073 31.4689 14.9739C30.6087 14.3404 29.5683 13.9991 28.5 14H18.5C17.4317 13.9991 16.3913 14.3404 15.5311 14.9739C14.6709 15.6073 14.0362 16.4996 13.72 17.52C13.5757 18.0001 13.5016 18.4986 13.5 19V27C13.5005 28.3259 14.0274 29.5974 14.965 30.535C15.9026 31.4726 17.1741 31.9995 18.5 32H19.5V33C19.4991 33.171 19.5424 33.3393 19.6255 33.4887C19.7086 33.6381 19.8288 33.7636 19.9745 33.8531C20.1203 33.9425 20.2866 33.9929 20.4574 33.9994C20.6283 34.0058 20.7979 33.9682 20.95 33.89L24.74 32H28.5C29.8259 31.9995 31.0974 31.4726 32.035 30.535C32.9726 29.5974 33.4995 28.3259 33.5 27V19C33.4984 18.4986 33.4243 18.0001 33.28 17.52ZM18.5 16H28.5C29.2117 16.002 29.8997 16.2563 30.4417 16.7177C30.9836 17.1791 31.3444 17.8177 31.46 18.52L23.5 22.86L15.54 18.52C15.6556 17.8177 16.0164 17.1791 16.5583 16.7177C17.1003 16.2563 17.7883 16.002 18.5 16ZM31.5 27C31.4977 27.7949 31.1809 28.5567 30.6188 29.1188C30.0566 29.6809 29.2949 29.9977 28.5 30H24.5C24.3434 30.0008 24.1893 30.0385 24.05 30.11L21.5 31.38V31C21.4992 30.735 21.3936 30.4811 21.2062 30.2938C21.0189 30.1064 20.765 30.0008 20.5 30H18.5C17.7051 29.9977 16.9434 29.6809 16.3812 29.1188C15.8191 28.5567 15.5023 27.7949 15.5 27V20.78L23.02 24.88C23.1677 24.959 23.3325 25.0003 23.5 25.0003C23.6675 25.0003 23.8323 24.959 23.98 24.88L31.5 20.78V27Z" fill="#522FD4"/>
</svg>
