<svg width="49" height="48" viewBox="0 0 49 48" fill="none" xmlns="http://www.w3.org/2000/svg">
<rect x="0.5" width="48" height="48" rx="16" fill="#EDEBFF"/>
<g clip-path="url(#clip0_8929_81816)">
<path d="M22.7468 14.0005H14.0447C13.8339 14.0005 13.6318 14.0842 13.4828 14.2332C13.3337 14.3823 13.25 14.5844 13.25 14.7952V23.4978C13.25 23.7085 13.3337 23.9107 13.4828 24.0597C13.6318 24.2087 13.8339 24.2924 14.0447 24.2924H22.7468C22.9575 24.2924 23.1596 24.2087 23.3087 24.0597C23.4577 23.9107 23.5414 23.7085 23.5414 23.4978V14.7952C23.5414 14.5844 23.4577 14.3823 23.3087 14.2332C23.1596 14.0842 22.9575 14.0005 22.7468 14.0005ZM21.9521 22.7031H14.8393V15.5898H21.9521V22.7031ZM22.7468 25.7107H14.0447C13.8339 25.7107 13.6318 25.7944 13.4828 25.9434C13.3337 26.0924 13.25 26.2946 13.25 26.5053V35.2058C13.25 35.4166 13.3337 35.6187 13.4828 35.7677C13.6318 35.9168 13.8339 36.0005 14.0447 36.0005H22.7468C22.9575 36.0005 23.1596 35.9168 23.3087 35.7677C23.4577 35.6187 23.5414 35.4166 23.5414 35.2058V26.5043C23.5414 26.2935 23.4577 26.0914 23.3087 25.9423C23.1596 25.7933 22.9575 25.7096 22.7468 25.7096V25.7107ZM21.9521 34.4112H14.8393V27.2989H21.9521V34.4112ZM34.4548 25.7096H25.7538C25.543 25.7096 25.3409 25.7933 25.1919 25.9423C25.0428 26.0914 24.9591 26.2935 24.9591 26.5043V35.2058C24.9591 35.4166 25.0428 35.6187 25.1919 35.7677C25.3409 35.9168 25.543 36.0005 25.7538 36.0005H34.4553C34.6661 36.0005 34.8682 35.9168 35.0172 35.7677C35.1663 35.6187 35.25 35.4166 35.25 35.2058V26.5043C35.25 26.2935 35.1663 26.0914 35.0172 25.9423C34.8682 25.7933 34.6661 25.7096 34.4553 25.7096H34.4548ZM33.6607 34.4112H26.5484V27.2989H33.6607V34.4112ZM26.3948 18.5762L26.4266 19.8847C26.1352 19.9536 25.8544 20.584 25.7644 20.886L26.5643 22.2051C26.8769 22.2634 27.5603 22.3005 27.7563 22.0727L28.9059 22.7031C28.8212 22.9892 29.2238 23.5455 29.441 23.7733L30.9827 23.7362C31.1893 23.5031 31.5654 22.9256 31.4648 22.6448L32.5879 21.9614C32.7892 22.1786 33.4726 22.1098 33.7799 22.0356L34.5216 20.6794C34.4209 20.3827 34.1083 19.7682 33.8117 19.7152L33.7852 18.4066C34.0765 18.3378 34.3573 17.7073 34.4474 17.4107L33.6421 16.0915C33.3349 16.0279 32.6462 15.9909 32.4554 16.2187L31.3005 15.5882C31.3906 15.3021 30.988 14.7459 30.7707 14.5181L29.2238 14.5552C29.0225 14.7883 28.641 15.3657 28.7417 15.6465L27.6239 16.3299C27.4173 16.1127 26.7339 16.1816 26.4319 16.2557L25.6902 17.612C25.7909 17.9086 26.1034 18.5232 26.3948 18.5762ZM28.8953 18.4861C29.0252 18.2464 29.2232 18.0505 29.4644 17.9235C29.7056 17.7964 29.9791 17.7437 30.2503 17.7721C30.5214 17.8006 30.778 17.9089 30.9876 18.0832C31.1972 18.2576 31.3503 18.4903 31.4275 18.7518C31.5048 19.0132 31.5027 19.2917 31.4215 19.552C31.3404 19.8123 31.1838 20.0426 30.9717 20.2139C30.7595 20.3851 30.5013 20.4895 30.2298 20.5139C29.9583 20.5383 29.6856 20.4816 29.4463 20.3509C29.1264 20.1762 28.8888 19.8819 28.7856 19.5323C28.6823 19.1828 28.7218 18.8066 28.8953 18.4861V18.4861Z" fill="#522FD4"/>
</g>
<defs>
<clipPath id="clip0_8929_81816">
<rect width="24" height="24" fill="white" transform="translate(12.25 12)"/>
</clipPath>
</defs>
</svg>
