<svg width="49" height="48" viewBox="0 0 49 48" fill="none" xmlns="http://www.w3.org/2000/svg">
<rect x="0.5" width="48" height="48" rx="16" fill="#EDEBFF"/>
<path d="M33.4415 23.3559V18.4505L28.5361 13H17.0901C16.801 13 16.5237 13.1148 16.3193 13.3193C16.1148 13.5237 16 13.801 16 14.0901V33.7118C16 34.0009 16.1148 34.2782 16.3193 34.4826C16.5237 34.6871 16.801 34.8019 17.0901 34.8019H23.6307" stroke="#522FD4" stroke-width="1.8" stroke-linecap="round" stroke-linejoin="round"/>
<path d="M20.2129 22.8535H27.9547" stroke="#522FD4" stroke-width="1.8" stroke-linecap="round"/>
<path d="M20.2129 26.3723H24.4357" stroke="#522FD4" stroke-width="1.8" stroke-linecap="round"/>
<path d="M29.0728 34.8034V35.7034C29.3216 35.7034 29.5593 35.6004 29.7295 35.4188L29.0728 34.8034ZM26.8926 32.6232L26.2359 32.0078C26.0796 32.1746 25.9926 32.3946 25.9926 32.6232H26.8926ZM26.8926 34.8034H25.9926C25.9926 35.3005 26.3955 35.7034 26.8926 35.7034V34.8034ZM29.7295 35.4188L34.6312 30.1885L33.3178 28.9576L28.4161 34.188L29.7295 35.4188ZM31.0693 26.8503L26.2359 32.0078L27.5493 33.2386L32.3827 28.0812L31.0693 26.8503ZM25.9926 32.6232V34.8034H27.7926V32.6232H25.9926ZM26.8926 35.7034H29.0728V33.9034H26.8926V35.7034ZM34.5762 26.7935C33.6011 25.8184 32.0123 25.8441 31.0693 26.8503L32.3827 28.0812C32.6303 27.817 33.0474 27.8103 33.3034 28.0663L34.5762 26.7935ZM34.6312 30.1885C35.532 29.2273 35.5076 27.7249 34.5762 26.7935L33.3034 28.0663C33.5479 28.3108 33.5543 28.7053 33.3178 28.9576L34.6312 30.1885Z" fill="#522FD4"/>
<path d="M27.9863 13V18.4505H33.4368" stroke="#522FD4" stroke-width="1.8" stroke-linecap="round" stroke-linejoin="round"/>
</svg>
