<svg width="52" height="49" viewBox="0 0 52 49" fill="none" xmlns="http://www.w3.org/2000/svg">
<g filter="url(#filter0_d_10477_34305)">
<path d="M16.9059 36.0683C16.6105 36.4603 16.0513 36.5405 15.6762 36.2238C13.3312 34.2433 11.6002 31.6252 10.6991 28.678C9.71124 25.4467 9.77165 21.9857 10.8717 18.7909C11.9718 15.5961 14.055 12.8316 16.8228 10.8936C19.5906 8.95553 22.9009 7.94347 26.2792 8.00244C29.6576 8.06141 32.9306 9.18838 35.629 11.2218C38.3275 13.2553 40.313 16.0908 41.3009 19.3221C42.2888 22.5533 42.2283 26.0143 41.1283 29.2091C40.1249 32.1231 38.3036 34.6792 35.8909 36.5766C35.505 36.8801 34.949 36.7804 34.6674 36.3783L32.2915 32.9852C32.0099 32.5831 32.1106 32.0317 32.4864 31.7158C33.8798 30.5444 34.9346 29.0134 35.5308 27.2817C36.2239 25.269 36.2619 23.0886 35.6395 21.0529C35.0172 19.0172 33.7663 17.2308 32.0663 15.9498C30.3662 14.6687 28.3043 13.9587 26.1759 13.9215C24.0476 13.8844 21.9621 14.522 20.2183 15.7429C18.4746 16.9639 17.1622 18.7056 16.4692 20.7183C15.7761 22.731 15.7381 24.9114 16.3604 26.9471C16.8959 28.6985 17.8966 30.2654 19.2483 31.4847C19.6128 31.8135 19.6942 32.3681 19.3988 32.7601L16.9059 36.0683Z" fill="white"/>
<path d="M16.9059 36.0683C16.6105 36.4603 16.0513 36.5405 15.6762 36.2238C13.3312 34.2433 11.6002 31.6252 10.6991 28.678C9.71124 25.4467 9.77165 21.9857 10.8717 18.7909C11.9718 15.5961 14.055 12.8316 16.8228 10.8936C19.5906 8.95553 22.9009 7.94347 26.2792 8.00244C29.6576 8.06141 32.9306 9.18838 35.629 11.2218C38.3275 13.2553 40.313 16.0908 41.3009 19.3221C42.2888 22.5533 42.2283 26.0143 41.1283 29.2091C40.1249 32.1231 38.3036 34.6792 35.8909 36.5766C35.505 36.8801 34.949 36.7804 34.6674 36.3783L32.2915 32.9852C32.0099 32.5831 32.1106 32.0317 32.4864 31.7158C33.8798 30.5444 34.9346 29.0134 35.5308 27.2817C36.2239 25.269 36.2619 23.0886 35.6395 21.0529C35.0172 19.0172 33.7663 17.2308 32.0663 15.9498C30.3662 14.6687 28.3043 13.9587 26.1759 13.9215C24.0476 13.8844 21.9621 14.522 20.2183 15.7429C18.4746 16.9639 17.1622 18.7056 16.4692 20.7183C15.7761 22.731 15.7381 24.9114 16.3604 26.9471C16.8959 28.6985 17.8966 30.2654 19.2483 31.4847C19.6128 31.8135 19.6942 32.3681 19.3988 32.7601L16.9059 36.0683Z" fill="url(#paint0_linear_10477_34305)"/>
<path d="M20.8318 30.9051C20.5364 31.2971 20.6128 31.8585 21.0308 32.1159C22.4733 33.0044 24.1328 33.493 25.8375 33.5228C27.5422 33.5525 29.2177 33.1221 30.6904 32.2845C31.1171 32.0418 31.2131 31.4835 30.9315 31.0814L26.3538 24.5438C26.1807 24.2965 25.8165 24.2901 25.6348 24.5313L20.8318 30.9051Z" fill="white"/>
<path d="M20.8318 30.9051C20.5364 31.2971 20.6128 31.8585 21.0308 32.1159C22.4733 33.0044 24.1328 33.493 25.8375 33.5228C27.5422 33.5525 29.2177 33.1221 30.6904 32.2845C31.1171 32.0418 31.2131 31.4835 30.9315 31.0814L26.3538 24.5438C26.1807 24.2965 25.8165 24.2901 25.6348 24.5313L20.8318 30.9051Z" fill="url(#paint1_linear_10477_34305)"/>
</g>
<defs>
<filter id="filter0_d_10477_34305" x="0" y="0" width="52" height="48.7538" filterUnits="userSpaceOnUse" color-interpolation-filters="sRGB">
<feFlood flood-opacity="0" result="BackgroundImageFix"/>
<feColorMatrix in="SourceAlpha" type="matrix" values="0 0 0 0 0 0 0 0 0 0 0 0 0 0 0 0 0 0 127 0" result="hardAlpha"/>
<feOffset dy="2"/>
<feGaussianBlur stdDeviation="5"/>
<feComposite in2="hardAlpha" operator="out"/>
<feColorMatrix type="matrix" values="0 0 0 0 0 0 0 0 0 0 0 0 0 0 0 0 0 0 0.2 0"/>
<feBlend mode="color-burn" in2="BackgroundImageFix" result="effect1_dropShadow_10477_34305"/>
<feBlend mode="normal" in="SourceGraphic" in2="effect1_dropShadow_10477_34305" result="shape"/>
</filter>
<linearGradient id="paint0_linear_10477_34305" x1="37.3736" y1="18.0836" x2="37.3736" y2="37.1064" gradientUnits="userSpaceOnUse">
<stop stop-color="#6851FF"/>
<stop offset="1" stop-color="#90DEF0"/>
</linearGradient>
<linearGradient id="paint1_linear_10477_34305" x1="29.8301" y1="27.3275" x2="29.8301" y2="33.5242" gradientUnits="userSpaceOnUse">
<stop stop-color="#6851FF"/>
<stop offset="1" stop-color="#90DEF0"/>
</linearGradient>
</defs>
</svg>
