<svg width="51" height="51" viewBox="0 0 51 51" fill="none" xmlns="http://www.w3.org/2000/svg">
<g filter="url(#filter0_d_10477_34301)">
<path fill-rule="evenodd" clip-rule="evenodd" d="M40.0606 24.3621C40.1282 23.6145 39.5134 23.0048 38.7628 23.0048L35.4565 23.0048C34.706 23.0048 34.108 23.6167 33.9955 24.3588C33.7975 25.665 33.3146 26.9176 32.5746 28.0253C31.5816 29.5113 30.1703 30.6696 28.5191 31.3535C26.8679 32.0375 25.0509 32.2164 23.298 31.8678C21.5451 31.5191 19.9349 30.6584 18.6711 29.3946C17.4073 28.1309 16.5467 26.5207 16.198 24.7678C15.8493 23.0148 16.0283 21.1979 16.7122 19.5467C17.3962 17.8955 18.5544 16.4841 20.0405 15.4912C21.1481 14.7511 22.4008 14.2682 23.707 14.0703C24.4491 13.9578 25.0609 13.3598 25.0609 12.6092V9.30294C25.0609 8.55236 24.4512 7.93752 23.7037 8.00516C21.2039 8.23134 18.7925 9.07965 16.6935 10.4821C14.2168 12.137 12.2864 14.4892 11.1465 17.2413C10.0065 19.9933 9.70827 23.0215 10.2894 25.9431C10.8705 28.8646 12.3049 31.5482 14.4113 33.6545C16.5176 35.7608 19.2012 37.1952 22.1227 37.7764C25.0442 38.3575 28.0725 38.0592 30.8245 36.9193C33.5765 35.7794 35.9287 33.849 37.5836 31.3722C38.9861 29.2733 39.8344 26.8619 40.0606 24.3621ZM38.9116 13.6668C38.9116 11.1715 36.8887 9.14855 34.3933 9.14855C31.8979 9.14855 29.875 11.1715 29.875 13.6668C29.875 16.1622 31.8979 18.1851 34.3933 18.1851C36.8887 18.1851 38.9116 16.1622 38.9116 13.6668Z" fill="white"/>
<path fill-rule="evenodd" clip-rule="evenodd" d="M40.0606 24.3621C40.1282 23.6145 39.5134 23.0048 38.7628 23.0048L35.4565 23.0048C34.706 23.0048 34.108 23.6167 33.9955 24.3588C33.7975 25.665 33.3146 26.9176 32.5746 28.0253C31.5816 29.5113 30.1703 30.6696 28.5191 31.3535C26.8679 32.0375 25.0509 32.2164 23.298 31.8678C21.5451 31.5191 19.9349 30.6584 18.6711 29.3946C17.4073 28.1309 16.5467 26.5207 16.198 24.7678C15.8493 23.0148 16.0283 21.1979 16.7122 19.5467C17.3962 17.8955 18.5544 16.4841 20.0405 15.4912C21.1481 14.7511 22.4008 14.2682 23.707 14.0703C24.4491 13.9578 25.0609 13.3598 25.0609 12.6092V9.30294C25.0609 8.55236 24.4512 7.93752 23.7037 8.00516C21.2039 8.23134 18.7925 9.07965 16.6935 10.4821C14.2168 12.137 12.2864 14.4892 11.1465 17.2413C10.0065 19.9933 9.70827 23.0215 10.2894 25.9431C10.8705 28.8646 12.3049 31.5482 14.4113 33.6545C16.5176 35.7608 19.2012 37.1952 22.1227 37.7764C25.0442 38.3575 28.0725 38.0592 30.8245 36.9193C33.5765 35.7794 35.9287 33.849 37.5836 31.3722C38.9861 29.2733 39.8344 26.8619 40.0606 24.3621ZM38.9116 13.6668C38.9116 11.1715 36.8887 9.14855 34.3933 9.14855C31.8979 9.14855 29.875 11.1715 29.875 13.6668C29.875 16.1622 31.8979 18.1851 34.3933 18.1851C36.8887 18.1851 38.9116 16.1622 38.9116 13.6668Z" fill="url(#paint0_linear_10477_34301)"/>
</g>
<defs>
<filter id="filter0_d_10477_34301" x="0" y="6.10352e-05" width="50.0659" height="50.0657" filterUnits="userSpaceOnUse" color-interpolation-filters="sRGB">
<feFlood flood-opacity="0" result="BackgroundImageFix"/>
<feColorMatrix in="SourceAlpha" type="matrix" values="0 0 0 0 0 0 0 0 0 0 0 0 0 0 0 0 0 0 127 0" result="hardAlpha"/>
<feOffset dy="2"/>
<feGaussianBlur stdDeviation="5"/>
<feComposite in2="hardAlpha" operator="out"/>
<feColorMatrix type="matrix" values="0 0 0 0 0 0 0 0 0 0 0 0 0 0 0 0 0 0 0.2 0"/>
<feBlend mode="color-burn" in2="BackgroundImageFix" result="effect1_dropShadow_10477_34301"/>
<feBlend mode="normal" in="SourceGraphic" in2="effect1_dropShadow_10477_34301" result="shape"/>
</filter>
<linearGradient id="paint0_linear_10477_34301" x1="25.0328" y1="8.61218" x2="25.0328" y2="42.8911" gradientUnits="userSpaceOnUse">
<stop stop-color="#6851FF"/>
<stop offset="1" stop-color="#CE99FF"/>
</linearGradient>
</defs>
</svg>
