<svg width="24" height="24" viewBox="0 0 24 24" fill="none" xmlns="http://www.w3.org/2000/svg">
  <path d="M3 6C3 3.79086 4.79086 2 7 2H19C20.1046 2 21 2.89543 21 4V16.945C21 16.9803 20.9867 17.0144 20.9627 17.0404V17.0404C19.8925 18.1991 19.7243 19.9284 20.5514 21.2715L20.9167 21.8648C20.9531 21.9239 20.9106 22 20.8412 22H7C4.79086 22 3 20.2091 3 18V6Z" stroke="#6851FF" stroke-width="2"/>
  <path d="M3 19.5C3 18.1193 4.11929 17 5.5 17H21V17C19.8796 18.4784 19.8796 20.5216 21 22V22H5.5C4.11929 22 3 20.8807 3 19.5V19.5Z" stroke="#6851FF" stroke-width="2"/>
  <path d="M6 17C6 17.5523 6.44771 18 7 18C7.55228 18 8 17.5523 8 17L6 17ZM8 2C8 1.44772 7.55228 1 7 1C6.44772 1 6 1.44772 6 2L8 2ZM8 17L8 2L6 2L6 17L8 17Z" fill="#6851FF"/>
  <path d="M17 8C17.5523 8 18 7.55228 18 7C18 6.44771 17.5523 6 17 6L17 8ZM11 6C10.4477 6 10 6.44772 10 7C10 7.55228 10.4477 8 11 8L11 6ZM17 6L11 6L11 8L17 8L17 6Z" fill="#6851FF"/>
  <path d="M17 12C17.5523 12 18 11.5523 18 11C18 10.4477 17.5523 10 17 10L17 12ZM11 10C10.4477 10 10 10.4477 10 11C10 11.5523 10.4477 12 11 12L11 10ZM17 10L11 10L11 12L17 12L17 10Z" fill="#6851FF"/>
</svg>
