<svg width="24" height="24" viewBox="0 0 24 24" fill="none" xmlns="http://www.w3.org/2000/svg">
<path d="M9.14267 21.5831C10.2766 21.9212 11.4535 22.0531 12.619 21.9808C14.2727 21.8783 15.0653 20.096 14.4786 18.5465L13.7935 16.7369C12.9862 14.6048 14.7582 12.387 17.0159 12.7037L18.9321 12.9725C20.5729 13.2027 22.1363 12.0362 21.8713 10.4007C21.6845 9.24794 21.2961 8.12919 20.716 7.09788C19.6416 5.18749 17.9692 3.68302 15.9563 2.81588C13.9433 1.94875 11.7012 1.76698 9.57478 2.29854C7.4484 2.8301 5.55556 4.04555 4.18742 5.75792C2.81927 7.47029 2.05161 9.58473 2.00251 11.776C1.95341 13.9672 2.62559 16.1139 3.91567 17.8859C5.20574 19.6578 7.04224 20.9568 9.14267 21.5831Z" stroke="#6851FF" stroke-width="2"/>
<path d="M7.991 8H8.009" stroke="#6851FF" stroke-width="3" stroke-linecap="round" stroke-linejoin="round"/>
<path d="M6.991 14H7.009" stroke="#6851FF" stroke-width="3" stroke-linecap="round" stroke-linejoin="round"/>
<path d="M13.991 7H14.009" stroke="#6851FF" stroke-width="3" stroke-linecap="round" stroke-linejoin="round"/>
</svg>
