<svg width="24" height="24" viewBox="0 0 24 24" fill="none" xmlns="http://www.w3.org/2000/svg">
<path d="M3 8.29066C3 7.49406 3.43188 6.76007 4.12824 6.3732L10.2813 2.95484C11.3502 2.36102 12.6498 2.36102 13.7187 2.95484L19.8718 6.3732C20.5681 6.76007 21 7.49405 21 8.29066V13C21 17.9706 16.9706 22 12 22V22C7.02944 22 3 17.9706 3 13V8.29066Z" stroke="#6851FF" stroke-width="2"/>
<path d="M11 16C11 16.5523 11.4477 17 12 17C12.5523 17 13 16.5523 13 16L11 16ZM13 12C13 11.4477 12.5523 11 12 11C11.4477 11 11 11.4477 11 12L13 12ZM13 16L13 12L11 12L11 16L13 16Z" fill="#6851FF"/>
<path d="M11.9955 11.5H12.0045" stroke="#6851FF" stroke-width="4" stroke-linecap="round" stroke-linejoin="round"/>
</svg>
