<svg width="24" height="24" viewBox="0 0 24 24" fill="none" xmlns="http://www.w3.org/2000/svg">
<path d="M7.70721 9.22477C8.24068 9.36772 8.78902 9.05113 8.93196 8.51767C9.0749 7.9842 8.75832 7.43587 8.22485 7.29292L7.70721 9.22477ZM6.293 6.77529C5.75953 6.63234 5.2112 6.94893 5.06825 7.48239C4.92531 8.01586 5.24189 8.56419 5.77536 8.70714L6.293 6.77529ZM8.22485 7.29292L6.293 6.77529L5.77536 8.70714L7.70721 9.22477L8.22485 7.29292Z" fill="#6851FF"/>
<path d="M7.70721 13.2248C8.24068 13.3677 8.78902 13.0511 8.93196 12.5177C9.0749 11.9842 8.75832 11.4359 8.22485 11.2929L7.70721 13.2248ZM6.293 10.7753C5.75953 10.6323 5.2112 10.9489 5.06825 11.4824C4.92531 12.0159 5.24189 12.5642 5.77536 12.7071L6.293 10.7753ZM8.22485 11.2929L6.293 10.7753L5.77536 12.7071L7.70721 13.2248L8.22485 11.2929Z" fill="#6851FF"/>
<path d="M22 16.7399V4.66994C22 3.46994 21.02 2.57994 19.83 2.67994H19.77C17.67 2.85994 14.48 3.92994 12.7 5.04994L12.53 5.15994C12.24 5.33994 11.76 5.33994 11.47 5.15994L11.22 5.00994C9.44 3.89994 6.26 2.83994 4.16 2.66994C2.97 2.56994 2 3.46994 2 4.65994V16.7399C2 17.6999 2.78 18.5999 3.74 18.7199L4.03 18.7599C6.2 19.0499 9.55 20.1499 11.47 21.1999L11.51 21.2199C11.78 21.3699 12.21 21.3699 12.47 21.2199C14.39 20.1599 17.75 19.0499 19.93 18.7599L20.26 18.7199C21.22 18.5999 22 17.6999 22 16.7399Z" stroke="#6851FF" stroke-width="2" stroke-linecap="round" stroke-linejoin="round"/>
<path d="M12 5.48999V20.49" stroke="#6851FF" stroke-width="2" stroke-linecap="round" stroke-linejoin="round"/>
</svg>
