<svg width="24" height="24" viewBox="0 0 24 24" fill="none" xmlns="http://www.w3.org/2000/svg">
<path d="M20 9V7.65685C20 6.59599 19.5786 5.57857 18.8284 4.82843L17.1716 3.17157C16.4214 2.42143 15.404 2 14.3431 2H13M20 9V18C20 20.2091 18.2091 22 16 22H8C5.79086 22 4 20.2091 4 18V6C4 3.79086 5.79086 2 8 2H13M20 9H15C13.8954 9 13 8.10457 13 7V2" stroke="#6851FF" stroke-width="2"/>
<path d="M16 14C16.5523 14 17 13.5523 17 13C17 12.4477 16.5523 12 16 12L16 14ZM8 12C7.44772 12 7 12.4477 7 13C7 13.5523 7.44772 14 8 14L8 12ZM16 12L8 12L8 14L16 14L16 12Z" fill="#6851FF"/>
<path d="M16 18C16.5523 18 17 17.5523 17 17C17 16.4477 16.5523 16 16 16L16 18ZM8 16C7.44772 16 7 16.4477 7 17C7 17.5523 7.44772 18 8 18L8 16ZM16 16L8 16L8 18L16 18L16 16Z" fill="#6851FF"/>
</svg>
