<svg width="24" height="24" viewBox="0 0 24 24" fill="none" xmlns="http://www.w3.org/2000/svg">
<path d="M12 18H12.009" stroke="#6851FF" stroke-width="2.5" stroke-linecap="round" stroke-linejoin="round"/>
<circle cx="12" cy="12" r="11" stroke="#6851FF" stroke-width="2"/>
<path d="M8 9.5C8 10.0523 8.44772 10.5 9 10.5C9.55228 10.5 10 10.0523 10 9.5H8ZM11 14C11 14.5523 11.4477 15 12 15C12.5523 15 13 14.5523 13 14H11ZM10 9.5V9H8V9.5H10ZM11 11.9605V14H13V11.9605H11ZM12.0588 10.9016C11.4741 10.9016 11 11.3757 11 11.9605H13C13 12.4803 12.5786 12.9016 12.0588 12.9016V10.9016ZM14 8.95565C14 10.0299 13.1288 10.9016 12.0588 10.9016V12.9016C14.2376 12.9016 16 11.1302 16 8.95565H14ZM12.0248 7C13.1108 7 14 7.8868 14 8.95565H16C16 6.76512 14.1982 5 12.0248 5V7ZM10 9C10 7.9061 10.9095 7 12.0248 7V5C9.82639 5 8 6.78019 8 9H10Z" fill="#6851FF"/>
</svg>
