<svg width="41" height="40" viewBox="0 0 41 40" fill="none" xmlns="http://www.w3.org/2000/svg">
<g filter="url(#filter0_i_11997_101224)">
<path d="M40.0036 12.0011V20.3018L20.0018 28.0025L0 20.3018V12.0011C0 10.9401 0.421465 9.92262 1.17168 9.17241C1.92189 8.4222 2.9394 8.00073 4.00036 8.00073H36.0033C37.0642 8.00073 38.0817 8.4222 38.8319 9.17241C39.5821 9.92262 40.0036 10.9401 40.0036 12.0011Z" fill="url(#paint0_linear_11997_101224)"/>
</g>
<path d="M31.9986 0H7.99646C5.78712 0 3.99609 1.89052 3.99609 4.2226V33.7808C3.99609 36.1129 5.78712 38.0034 7.99646 38.0034H31.9986C34.208 38.0034 35.999 36.1129 35.999 33.7808V4.2226C35.999 1.89052 34.208 0 31.9986 0Z" fill="url(#paint1_linear_11997_101224)"/>
<path d="M40.0036 20.2982V35.9996C40.0036 37.0606 39.5821 38.0781 38.8319 38.8283C38.0817 39.5785 37.0642 40 36.0033 40H4.00036C2.9394 40 1.92189 39.5785 1.17168 38.8283C0.421465 38.0781 0 37.0606 0 35.9996V20.2982L17.1215 26.8988C18.9779 27.5991 21.0257 27.5991 22.8821 26.8988L40.0036 20.2982Z" fill="url(#paint2_linear_11997_101224)"/>
<path d="M8.99609 15.0012H22.9974" stroke="url(#paint3_linear_11997_101224)" stroke-width="2.70025" stroke-miterlimit="10" stroke-linecap="round"/>
<path d="M8.99609 9.00122H26.9977" stroke="url(#paint4_linear_11997_101224)" stroke-width="2.70025" stroke-miterlimit="10" stroke-linecap="round"/>
<defs>
<filter id="filter0_i_11997_101224" x="0" y="8.00073" width="41.8036" height="23.6022" filterUnits="userSpaceOnUse" color-interpolation-filters="sRGB">
<feFlood flood-opacity="0" result="BackgroundImageFix"/>
<feBlend mode="normal" in="SourceGraphic" in2="BackgroundImageFix" result="shape"/>
<feColorMatrix in="SourceAlpha" type="matrix" values="0 0 0 0 0 0 0 0 0 0 0 0 0 0 0 0 0 0 127 0" result="hardAlpha"/>
<feOffset dx="1.80017" dy="3.60034"/>
<feGaussianBlur stdDeviation="3.60034"/>
<feComposite in2="hardAlpha" operator="arithmetic" k2="-1" k3="1"/>
<feColorMatrix type="matrix" values="0 0 0 0 0 0 0 0 0 0 0 0 0 0 0 0 0 0 0.25 0"/>
<feBlend mode="normal" in2="shape" result="effect1_innerShadow_11997_101224"/>
</filter>
<linearGradient id="paint0_linear_11997_101224" x1="20.0018" y1="8.00073" x2="20.0018" y2="28.0025" gradientUnits="userSpaceOnUse">
<stop stop-color="#BDB2FF"/>
<stop offset="0.40625" stop-color="#6851FF"/>
</linearGradient>
<linearGradient id="paint1_linear_11997_101224" x1="19.9975" y1="0" x2="19.9975" y2="38.0034" gradientUnits="userSpaceOnUse">
<stop stop-color="white"/>
<stop offset="0.578125" stop-color="#BDB2FF"/>
</linearGradient>
<linearGradient id="paint2_linear_11997_101224" x1="20.0018" y1="14.9977" x2="20.0018" y2="35.9996" gradientUnits="userSpaceOnUse">
<stop stop-color="#BDB2FF"/>
<stop offset="1" stop-color="#6851FF"/>
</linearGradient>
<linearGradient id="paint3_linear_11997_101224" x1="15.9967" y1="15.0012" x2="15.9967" y2="16.0012" gradientUnits="userSpaceOnUse">
<stop stop-color="#BDB2FF"/>
<stop offset="1" stop-color="#522FD4"/>
</linearGradient>
<linearGradient id="paint4_linear_11997_101224" x1="17.9969" y1="9.00122" x2="17.9969" y2="10.0012" gradientUnits="userSpaceOnUse">
<stop stop-color="#BDB2FF"/>
<stop offset="1" stop-color="#522FD4"/>
</linearGradient>
</defs>
</svg>
