<svg width="300" height="247" viewBox="0 0 300 247" fill="none" xmlns="http://www.w3.org/2000/svg">
<path d="M0 10C0 4.47716 4.47715 0 10 0H290C295.523 0 300 4.47715 300 10V247H0V10Z" fill="#18171A" fill-opacity="0.7"/>
<rect opacity="0.8" y="24" width="300" height="223" fill="#18171A"/>
<circle cx="16" cy="12" r="5" fill="#FFB5A1"/>
<circle cx="32" cy="12" r="5" fill="#FADEA7"/>
<circle cx="48" cy="12" r="5" fill="#90F0D3"/>
<g opacity="0.2">
<rect x="11" y="39" width="56" height="6" rx="3" fill="white"/>
</g>
<g opacity="0.2">
<rect x="11" y="82" width="94" height="6" rx="3" fill="white"/>
</g>
<g opacity="0.2">
<rect x="11" y="136" width="64" height="6" rx="3" fill="white"/>
</g>
<g opacity="0.2">
<rect x="11" y="147" width="38" height="6" rx="3" fill="white"/>
</g>
<g opacity="0.2">
<rect x="11" y="158" width="49" height="6" rx="3" fill="white"/>
</g>
<g opacity="0.2">
<rect x="11" y="169" width="78" height="6" rx="3" fill="white"/>
</g>
<g opacity="0.2">
<rect x="11" y="52" width="30" height="6" rx="3" fill="white"/>
</g>
<rect x="28" y="67" width="36" height="6" rx="3" fill="#90F0D3"/>
<g opacity="0.4">
<rect x="47" y="52" width="30" height="6" rx="3" fill="#BDB2FF"/>
</g>
<g opacity="0.4">
<rect x="28" y="101" width="37" height="6" rx="3" fill="#BDB2FF"/>
</g>
<g opacity="0.4">
<rect x="28" y="123" width="37" height="6" rx="3" fill="#FADEA7"/>
</g>
<path fill-rule="evenodd" clip-rule="evenodd" d="M21.1549 66.8017C21.3475 66.9892 21.3574 67.2955 21.1772 67.4951L15.9005 73.339C15.702 73.5589 15.3569 73.5589 15.1583 73.339L12.8228 70.7524C12.6426 70.5528 12.6525 70.2465 12.8451 70.059L13.0399 69.8694C13.2431 69.6716 13.5698 69.6822 13.7598 69.8926L15.5294 71.8524L20.2402 66.6353C20.4302 66.4249 20.7569 66.4143 20.9601 66.6121L21.1549 66.8017Z" fill="#90F0D3"/>
<path d="M14.068 104.906C14.016 104.603 14.029 104.334 14.107 104.1C14.185 103.857 14.2977 103.641 14.445 103.45C14.5923 103.251 14.757 103.069 14.939 102.904C15.121 102.731 15.29 102.562 15.446 102.397C15.6107 102.232 15.7493 102.068 15.862 101.903C15.9747 101.73 16.031 101.539 16.031 101.331C16.031 101.002 15.9183 100.729 15.693 100.512C15.4677 100.295 15.1427 100.187 14.718 100.187C14.406 100.187 14.1157 100.252 13.847 100.382C13.587 100.512 13.3443 100.685 13.119 100.902L12.378 100.226C12.6813 99.9053 13.0323 99.6453 13.431 99.446C13.8383 99.238 14.2977 99.134 14.809 99.134C15.173 99.134 15.5067 99.1817 15.81 99.277C16.1133 99.3723 16.3733 99.5067 16.59 99.68C16.8067 99.8533 16.9757 100.07 17.097 100.33C17.2183 100.581 17.279 100.867 17.279 101.188C17.279 101.483 17.2227 101.743 17.11 101.968C16.9973 102.185 16.8587 102.384 16.694 102.566C16.5293 102.748 16.3517 102.921 16.161 103.086C15.9703 103.251 15.797 103.424 15.641 103.606C15.4937 103.779 15.3723 103.974 15.277 104.191C15.1903 104.399 15.1643 104.637 15.199 104.906H14.068ZM14.718 108.156C14.432 108.156 14.185 108.056 13.977 107.857C13.7777 107.658 13.678 107.393 13.678 107.064C13.678 106.735 13.7777 106.475 13.977 106.284C14.185 106.085 14.432 105.985 14.718 105.985C15.004 105.985 15.2467 106.085 15.446 106.284C15.654 106.475 15.758 106.735 15.758 107.064C15.758 107.393 15.654 107.658 15.446 107.857C15.2467 108.056 15.004 108.156 14.718 108.156Z" fill="#BDB2FF"/>
<path d="M12.352 129.428V128.219L16.148 125.71V125.658L12.352 123.149V121.94L17.253 125.216V126.152L12.352 129.428Z" fill="white"/>
</svg>
