<?xml version="1.0" encoding="utf-8"?>
<!-- Generator: Adobe Illustrator 27.0.0, SVG Export Plug-In . SVG Version: 6.00 Build 0)  -->
<svg version="1.1" id="Layer_1" xmlns="http://www.w3.org/2000/svg" xmlns:xlink="http://www.w3.org/1999/xlink" x="0px" y="0px"
	 viewBox="0 0 48 48" style="enable-background:new 0 0 48 48;" xml:space="preserve">
<style type="text/css">
	.st0{fill-rule:evenodd;clip-rule:evenodd;fill:url(#SVGID_1_);}
	.st1{fill:url(#SVGID_00000057834875919324616800000011950952146179757737_);}
	.st2{fill:url(#SVGID_00000151509707167556157440000002241433074583753388_);}
	.st3{fill:url(#SVGID_00000015353332701412189480000005252387673171683511_);}
	.st4{fill:url(#SVGID_00000066509738924963887780000007112219390973137323_);}
	.st5{fill:url(#SVGID_00000151540925556495217240000001560303730326933132_);}
	.st6{fill:url(#SVGID_00000060726247242749976790000006506265378428290219_);}
</style>
<g>
	<g>
		
			<linearGradient id="SVGID_1_" gradientUnits="userSpaceOnUse" x1="27.2457" y1="46.6067" x2="19.7436" y2="35.2954" gradientTransform="matrix(1 0 0 -1 0 63.8885)">
			<stop  offset="0" style="stop-color:#6851FF"/>
			<stop  offset="0.4792" style="stop-color:#522FD4"/>
			<stop  offset="1" style="stop-color:#522FD4"/>
		</linearGradient>
		<path class="st0" d="M14.6,19.5c-2,1.9-5.1,2.3-7.5,0.7c-3-2-4-6.3-2.1-9.5c1.8-3.3,5.8-4.3,8.8-2.3c2.4,1.6,3.5,4.7,2.9,7.6
			l20.1,13.4l1.2-2.2c0.3-0.5,0.9-0.6,1.3-0.3c0.5,0.3,0.6,0.9,0.3,1.4l-1.2,2.2l1.2,0.8l1.2-2.2c0.3-0.5,0.9-0.6,1.3-0.3
			c0.5,0.3,0.6,0.9,0.3,1.4l-1.2,2.2l0,0c0.9,0.6,1.2,1.9,0.7,2.9c-0.6,1-1.7,1.3-2.7,0.7L14.6,19.5z"/>
		
			<linearGradient id="SVGID_00000003809965747206709960000006922159166175587513_" gradientUnits="userSpaceOnUse" x1="9.9487" y1="55.3676" x2="11.2537" y2="43.6099" gradientTransform="matrix(1 0 0 -1 0 63.8885)">
			<stop  offset="0" style="stop-color:#EDEBFF"/>
			<stop  offset="1" style="stop-color:#A799FF"/>
		</linearGradient>
		<path style="fill:url(#SVGID_00000003809965747206709960000006922159166175587513_);" d="M9.4,11.5c0.2-0.9,1.4-1.1,1.7-0.2
			l0.2,0.5c0.2,0.4,0.5,0.6,0.9,0.6l0.5-0.1c0.9-0.1,1.4,1.1,0.7,1.7l-0.4,0.4c-0.3,0.3-0.4,0.7-0.2,1.1l0.2,0.5
			c0.4,0.9-0.5,1.7-1.3,1.3L11.4,17c-0.3-0.2-0.8-0.2-1.1,0.1l-0.4,0.3c-0.7,0.6-1.7,0-1.5-0.9L8.5,16c0.1-0.4-0.1-0.8-0.4-1.1
			l-0.4-0.3c-0.8-0.5-0.5-1.7,0.4-1.8l0.5-0.1c0.4,0,0.7-0.4,0.8-0.8L9.4,11.5z"/>
	</g>
	
		<radialGradient id="SVGID_00000111870475814644233100000016961402143870319234_" cx="-788.563" cy="900.0825" r="1" gradientTransform="matrix(14.7524 16.6752 12.9423 -11.45 5.0347 23474.0215)" gradientUnits="userSpaceOnUse">
		<stop  offset="0" style="stop-color:#EDEBFF"/>
		<stop  offset="1" style="stop-color:#A799FF"/>
	</radialGradient>
	<path style="fill:url(#SVGID_00000111870475814644233100000016961402143870319234_);" d="M33.4,35.4l4-5.8c0.7-0.7,1-2.4,1-3.5V19
		c0-2.2-1.5-4.6-3.5-5.2L22,11.6c-3.2-0.5-4.5,1.7-4.5,4.4l1,4.3c0,1.1-0.3,1.3-1.5,1.1l-1.4-1.1c-1.5-0.4-3.1,0.7-3.6,2.4
		c-0.5,1.5,0.5,2.7,1.2,4.1l5.7,8.5"/>
	
		<radialGradient id="SVGID_00000107547925390208684400000004054916767698066356_" cx="-591.8246" cy="1162.9568" r="1" gradientTransform="matrix(1.982771e-16 3.2381 3.0148 -1.846057e-16 -3489.5669 1920.9093)" gradientUnits="userSpaceOnUse">
		<stop  offset="0" style="stop-color:#6851FF"/>
		<stop  offset="1" style="stop-color:#D4CFFF"/>
	</radialGradient>
	<path style="fill:url(#SVGID_00000107547925390208684400000004054916767698066356_);" d="M16.6,1.3L17,4.1l2.6,0.5L17,5l-0.4,2.8
		L16.1,5l-2.6-0.5l2.6-0.5L16.6,1.3z"/>
	
		<radialGradient id="SVGID_00000016049296198105416470000008845301276471523723_" cx="-509.2659" cy="1251.9609" r="1" gradientTransform="matrix(1.487076e-16 2.4286 2.2611 -1.384543e-16 -2789.269 1259.929)" gradientUnits="userSpaceOnUse">
		<stop  offset="0" style="stop-color:#6851FF"/>
		<stop  offset="1" style="stop-color:#D4CFFF"/>
	</radialGradient>
	<path style="fill:url(#SVGID_00000016049296198105416470000008845301276471523723_);" d="M41.6,20.7l0.3,2.1l1.9,0.3l-1.9,0.3
		l-0.3,2.1l-0.3-2.1l-1.9-0.3l1.9-0.3L41.6,20.7z"/>
	
		<radialGradient id="SVGID_00000058554108595310418220000002275030289986593203_" cx="-509.2659" cy="1251.9609" r="1" gradientTransform="matrix(1.487076e-16 2.4286 2.2611 -1.384543e-16 -2823.9917 1264.7874)" gradientUnits="userSpaceOnUse">
		<stop  offset="0" style="stop-color:#6851FF"/>
		<stop  offset="1" style="stop-color:#D4CFFF"/>
	</radialGradient>
	<path style="fill:url(#SVGID_00000058554108595310418220000002275030289986593203_);" d="M6.9,25.6l0.3,2.1L9.1,28l-1.9,0.3
		l-0.3,2.1l-0.3-2.1L4.6,28l1.9-0.3L6.9,25.6z"/>
	
		<linearGradient id="SVGID_00000122001622381396148040000003643065930578333883_" gradientUnits="userSpaceOnUse" x1="14.2852" y1="22.9044" x2="36.6208" y2="22.9044" gradientTransform="matrix(1 0 0 -1 0 63.8885)">
		<stop  offset="0" style="stop-color:#8A78FF"/>
		<stop  offset="1" style="stop-color:#6851FF"/>
	</linearGradient>
	<path style="fill:url(#SVGID_00000122001622381396148040000003643065930578333883_);" d="M33.5,46.6H17.4c-2.3,0-3.1-1.4-3.1-4.5
		v-2.3c0-3.2,0.8-4.5,3.1-4.5h16.1c2.3,0,3.1,1.4,3.1,4.5v2.3C36.6,45.3,35.8,46.6,33.5,46.6z"/>
</g>
</svg>
