<svg width="48" height="50" viewBox="0 0 48 50" fill="none" xmlns="http://www.w3.org/2000/svg">
<g clip-path="url(#clip0_2853_24009)">
<g filter="url(#filter0_d_2853_24009)">
<path d="M20.8456 12.0516L13.3609 16.0809C11.665 16.9929 10.2773 19.2798 10.2773 21.1584V28.8494C10.2773 30.7279 11.665 33.0148 13.3609 33.9269L20.8456 37.9698C22.4435 38.8274 25.0645 38.8274 26.6624 37.9698L34.147 33.9269C35.843 33.0148 37.2307 30.7279 37.2307 28.8494V21.1584C37.2307 19.2798 35.843 16.9929 34.147 16.0809L26.6624 12.038C25.0505 11.1804 22.4435 11.1804 20.8456 12.0516Z" fill="url(#paint0_linear_2853_24009)"/>
</g>
<path d="M19.6108 6.54683L8.94496 12.2887C6.52816 13.5883 4.55078 16.8472 4.55078 19.5242V30.4841C4.55078 33.1611 6.52816 36.42 8.94496 37.7196L19.6108 43.4809C21.8878 44.703 25.6228 44.703 27.8998 43.4809L38.5657 37.7196C40.9824 36.42 42.9598 33.1611 42.9598 30.4841V19.5242C42.9598 16.8472 40.9824 13.5883 38.5657 12.2887L27.8998 6.52743C25.6028 5.30535 21.8878 5.30535 19.6108 6.54683Z" stroke="url(#paint1_linear_2853_24009)" stroke-width="4.5" stroke-linecap="round" stroke-linejoin="round"/>
<path fill-rule="evenodd" clip-rule="evenodd" d="M43.9644 16.1483C44.7044 15.7342 44.9719 14.7928 44.5618 14.0454C44.1518 13.2982 43.2195 13.0281 42.4793 13.4422L23.7744 23.9078L5.57094 13.4507C4.83555 13.0282 3.90027 13.2877 3.48191 14.0303C3.06355 14.7729 3.32054 15.7173 4.05592 16.1397L22.2351 26.583V45.4129C22.2351 46.2672 22.9209 46.9597 23.767 46.9597C24.613 46.9597 25.2989 46.2672 25.2989 45.4129V26.5917L43.9644 16.1483Z" fill="url(#paint2_linear_2853_24009)"/>
<path d="M4.54837 19.9024C7.06036 19.9024 9.09674 17.8461 9.09674 15.3096C9.09674 12.7731 7.06036 10.7168 4.54837 10.7168C2.03637 10.7168 0 12.7731 0 15.3096C0 17.8461 2.03637 19.9024 4.54837 19.9024Z" fill="url(#paint3_radial_2853_24009)"/>
<path d="M42.9585 19.9024C45.4705 19.9024 47.5069 17.8461 47.5069 15.3096C47.5069 12.7731 45.4705 10.7168 42.9585 10.7168C40.4465 10.7168 38.4102 12.7731 38.4102 15.3096C38.4102 17.8461 40.4465 19.9024 42.9585 19.9024Z" fill="url(#paint4_radial_2853_24009)"/>
<path d="M23.7554 9.18557C26.2674 9.18557 28.3038 7.12931 28.3038 4.59279C28.3038 2.05626 26.2674 0 23.7554 0C21.2434 0 19.207 2.05626 19.207 4.59279C19.207 7.12931 21.2434 9.18557 23.7554 9.18557Z" fill="url(#paint5_radial_2853_24009)"/>
<path d="M23.7554 49.5039C26.2674 49.5039 28.3038 47.4477 28.3038 44.9111C28.3038 42.3746 26.2674 40.3184 23.7554 40.3184C21.2434 40.3184 19.207 42.3746 19.207 44.9111C19.207 47.4477 21.2434 49.5039 23.7554 49.5039Z" fill="url(#paint6_radial_2853_24009)"/>
<path d="M4.54837 38.7818C7.06036 38.7818 9.09674 36.7255 9.09674 34.189C9.09674 31.6525 7.06036 29.5962 4.54837 29.5962C2.03637 29.5962 0 31.6525 0 34.189C0 36.7255 2.03637 38.7818 4.54837 38.7818Z" fill="url(#paint7_radial_2853_24009)"/>
<path d="M42.9585 38.7871C45.4705 38.7871 47.5069 36.7309 47.5069 34.1943C47.5069 31.6578 45.4705 29.6016 42.9585 29.6016C40.4465 29.6016 38.4102 31.6578 38.4102 34.1943C38.4102 36.7309 40.4465 38.7871 42.9585 38.7871Z" fill="url(#paint8_radial_2853_24009)"/>
</g>
<defs>
<filter id="filter0_d_2853_24009" x="-1.72266" y="4.19648" width="50.9534" height="51.2163" filterUnits="userSpaceOnUse" color-interpolation-filters="sRGB">
<feFlood flood-opacity="0" result="BackgroundImageFix"/>
<feColorMatrix in="SourceAlpha" type="matrix" values="0 0 0 0 0 0 0 0 0 0 0 0 0 0 0 0 0 0 127 0" result="hardAlpha"/>
<feOffset dy="4.8"/>
<feGaussianBlur stdDeviation="6"/>
<feComposite in2="hardAlpha" operator="out"/>
<feColorMatrix type="matrix" values="0 0 0 0 0.207843 0 0 0 0 0.0705882 0 0 0 0 0.698039 0 0 0 0.1 0"/>
<feBlend mode="normal" in2="BackgroundImageFix" result="effect1_dropShadow_2853_24009"/>
<feBlend mode="normal" in="SourceGraphic" in2="effect1_dropShadow_2853_24009" result="shape"/>
</filter>
<linearGradient id="paint0_linear_2853_24009" x1="23.5012" y1="15.2621" x2="32.2199" y2="34.5865" gradientUnits="userSpaceOnUse">
<stop stop-color="white"/>
<stop offset="0.811927" stop-color="#A799FF"/>
</linearGradient>
<linearGradient id="paint1_linear_2853_24009" x1="23.7553" y1="0.825216" x2="23.7553" y2="37.5377" gradientUnits="userSpaceOnUse">
<stop stop-color="#A799FF"/>
<stop offset="1" stop-color="#522FD4"/>
</linearGradient>
<linearGradient id="paint2_linear_2853_24009" x1="24.0176" y1="13.2481" x2="24.0176" y2="46.9597" gradientUnits="userSpaceOnUse">
<stop stop-color="#9888FF"/>
<stop offset="1" stop-color="#522FD4"/>
</linearGradient>
<radialGradient id="paint3_radial_2853_24009" cx="0" cy="0" r="1" gradientUnits="userSpaceOnUse" gradientTransform="translate(2.43662 12.8602) rotate(73.3077) scale(7.35207 7.21382)">
<stop stop-color="#D2CAFF"/>
<stop offset="1" stop-color="#715CFF"/>
</radialGradient>
<radialGradient id="paint4_radial_2853_24009" cx="0" cy="0" r="1" gradientUnits="userSpaceOnUse" gradientTransform="translate(40.8467 12.8602) rotate(73.3077) scale(7.35207 7.21382)">
<stop stop-color="#D2CAFF"/>
<stop offset="1" stop-color="#715CFF"/>
</radialGradient>
<radialGradient id="paint5_radial_2853_24009" cx="0" cy="0" r="1" gradientUnits="userSpaceOnUse" gradientTransform="translate(21.6436 2.1433) rotate(73.3077) scale(7.35207 7.21382)">
<stop stop-color="#D2CAFF"/>
<stop offset="1" stop-color="#715CFF"/>
</radialGradient>
<radialGradient id="paint6_radial_2853_24009" cx="0" cy="0" r="1" gradientUnits="userSpaceOnUse" gradientTransform="translate(21.6436 42.4616) rotate(73.3077) scale(7.35207 7.21382)">
<stop stop-color="#D2CAFF"/>
<stop offset="1" stop-color="#715CFF"/>
</radialGradient>
<radialGradient id="paint7_radial_2853_24009" cx="0" cy="0" r="1" gradientUnits="userSpaceOnUse" gradientTransform="translate(2.43662 31.7396) rotate(73.3077) scale(7.35207 7.21382)">
<stop stop-color="#D2CAFF"/>
<stop offset="1" stop-color="#715CFF"/>
</radialGradient>
<radialGradient id="paint8_radial_2853_24009" cx="0" cy="0" r="1" gradientUnits="userSpaceOnUse" gradientTransform="translate(40.8467 31.7449) rotate(73.3077) scale(7.35207 7.21382)">
<stop stop-color="#D2CAFF"/>
<stop offset="1" stop-color="#715CFF"/>
</radialGradient>
<clipPath id="clip0_2853_24009">
<rect width="48" height="49.5" fill="white"/>
</clipPath>
</defs>
</svg>
