<svg width="32" height="32" viewBox="0 0 32 32" fill="none" xmlns="http://www.w3.org/2000/svg">
<path fill-rule="evenodd" clip-rule="evenodd" d="M18.2707 2.88713C17.114 1.41653 14.8859 1.41653 13.7292 2.88713L12.6616 4.24456C12.0388 5.03643 11.0484 5.44665 10.0481 5.32711L8.33333 5.12219C6.47559 4.90019 4.90007 6.47571 5.12207 8.33345L5.32699 10.0482C5.44652 11.0486 5.03631 12.0389 4.24444 12.6617L2.88701 13.7294C1.41641 14.886 1.41641 17.1141 2.88701 18.2708L4.24444 19.3384C5.03631 19.9612 5.44652 20.9516 5.32699 21.9519L5.12207 23.6667C4.90007 25.5244 6.47559 27.1 8.33333 26.878L10.0481 26.673C11.0484 26.5535 12.0388 26.9637 12.6616 27.7556L13.7292 29.113C14.8859 30.5836 17.114 30.5836 18.2707 29.113L19.3383 27.7556C19.9611 26.9637 20.9515 26.5535 21.9518 26.673L23.6666 26.878C25.5243 27.1 27.0998 25.5244 26.8778 23.6667L26.6729 21.9519C26.5534 20.9516 26.9636 19.9612 27.7555 19.3384L29.1129 18.2708C30.5835 17.1141 30.5835 14.886 29.1129 13.7294L27.7555 12.6617C26.9636 12.0389 26.5534 11.0486 26.6729 10.0482L26.8778 8.33345C27.0998 6.47571 25.5243 4.90019 23.6666 5.12219L21.9518 5.32711C20.9515 5.44665 19.9611 5.03643 19.3383 4.24456L18.2707 2.88713ZM21.4179 12.0001C21.118 11.9978 20.8291 12.1121 20.6119 12.3189H20.6134C20.6025 12.3296 20.5922 12.3409 20.5826 12.3528L15.2284 19.1747L12.0002 15.948C11.8943 15.8344 11.7667 15.7432 11.6248 15.6801C11.483 15.6169 11.3299 15.5829 11.1746 15.5801C11.0194 15.5774 10.8652 15.606 10.7212 15.6641C10.5772 15.7223 10.4464 15.8088 10.3367 15.9186C10.2269 16.0284 10.1403 16.1592 10.0822 16.3032C10.024 16.4471 9.99544 16.6014 9.99818 16.7566C10.0009 16.9118 10.0349 17.065 10.0981 17.2068C10.1613 17.3486 10.2524 17.4763 10.366 17.5821L14.4452 21.6614C14.5552 21.7713 14.6861 21.8579 14.8303 21.9161C14.9744 21.9743 15.1289 22.0028 15.2843 21.9999C15.4397 21.997 15.593 21.9628 15.7349 21.8993C15.8768 21.8359 16.0045 21.7445 16.1102 21.6305L22.2615 13.9376C22.4641 13.7166 22.5729 13.4255 22.565 13.1258C22.5571 12.826 22.433 12.5411 22.219 12.3311C22.005 12.121 21.7177 12.0024 21.4179 12.0001Z" fill="url(#paint0_linear_2853_24001)"/>
<defs>
<linearGradient id="paint0_linear_2853_24001" x1="5.86128" y1="3.95902" x2="26.1409" y2="32.4773" gradientUnits="userSpaceOnUse">
<stop stop-color="white"/>
<stop offset="1" stop-color="#5C46E1"/>
</linearGradient>
</defs>
</svg>
