<svg width="192" height="219" viewBox="0 0 192 219" fill="none" xmlns="http://www.w3.org/2000/svg">
<path d="M95.7485 0.857666C105.691 12.4008 116.658 23.1206 128.516 32.8926C120.615 57.1861 116.361 82.996 116.361 109.748C116.361 136.499 120.615 162.309 128.516 186.603C116.658 196.375 105.691 207.095 95.7485 218.638C85.8058 207.095 74.8395 196.375 62.9808 186.603C70.8825 162.309 75.1365 136.499 75.1365 109.748C75.1365 82.996 70.8825 57.1861 62.9808 32.8927C74.8395 23.1206 85.8058 12.4008 95.7485 0.857666Z" fill="url(#paint0_linear_3061_26601)"/>
<path d="M40.3142 169.807C27.7617 161.467 14.4399 154.097 0.469746 147.811C4.34498 135.771 6.42965 122.99 6.42965 109.748C6.42965 96.5056 4.34497 83.7249 0.469727 71.6846C14.4399 65.3985 27.7617 58.0283 40.3142 49.6886C45.114 68.9693 47.6537 89.0774 47.6537 109.748C47.6537 130.418 45.114 150.526 40.3142 169.807Z" fill="url(#paint1_linear_3061_26601)"/>
<path d="M143.843 109.748C143.843 130.418 146.383 150.526 151.183 169.807C163.735 161.467 177.057 154.097 191.027 147.811C187.152 135.771 185.067 122.99 185.067 109.748C185.067 96.5055 187.152 83.7249 191.027 71.6846C177.057 65.3985 163.735 58.0282 151.183 49.6885C146.383 68.9692 143.843 89.0773 143.843 109.748Z" fill="url(#paint2_linear_3061_26601)"/>
<defs>
<linearGradient id="paint0_linear_3061_26601" x1="95.7485" y1="0.857666" x2="95.7485" y2="218.638" gradientUnits="userSpaceOnUse">
<stop stop-color="#E024FF" stop-opacity="0.94"/>
<stop offset="1" stop-color="#874FFF"/>
</linearGradient>
<linearGradient id="paint1_linear_3061_26601" x1="95.7485" y1="0.857666" x2="95.7485" y2="218.638" gradientUnits="userSpaceOnUse">
<stop stop-color="#E024FF" stop-opacity="0.94"/>
<stop offset="1" stop-color="#874FFF"/>
</linearGradient>
<linearGradient id="paint2_linear_3061_26601" x1="95.7485" y1="0.857666" x2="95.7485" y2="218.638" gradientUnits="userSpaceOnUse">
<stop stop-color="#E024FF" stop-opacity="0.94"/>
<stop offset="1" stop-color="#874FFF"/>
</linearGradient>
</defs>
</svg>
