<svg width="98" height="13" viewBox="0 0 98 13" fill="none" xmlns="http://www.w3.org/2000/svg">
<path d="M0.211914 12.4517H3.0188V8.337H7.28648V6.18786H3.0188V3.67161H7.72243V1.41539H0.211914V12.4517Z" fill="white"/>
<path d="M12.5658 12.6506C15.2962 12.6506 16.9023 10.9986 16.9023 8.19933V8.18403C16.9023 5.42304 15.2579 3.74044 12.5658 3.74044C9.88889 3.74044 8.22923 5.43834 8.22923 8.18403V8.19933C8.22923 10.9909 9.843 12.6506 12.5658 12.6506ZM12.5658 10.5932C11.5715 10.5932 11.0055 9.71367 11.0055 8.19933V8.18403C11.0055 6.70793 11.5868 5.7978 12.5658 5.7978C13.5447 5.7978 14.126 6.70793 14.126 8.18403V8.19933C14.126 9.70602 13.56 10.5932 12.5658 10.5932Z" fill="white"/>
<path d="M20.4836 12.6506C21.6844 12.6506 22.5563 12.054 22.9234 11.1209H23.0687V12.4517H25.7762V3.93929H23.0687V8.80354C23.0687 9.77486 22.5639 10.4402 21.6462 10.4402C20.7284 10.4402 20.3307 9.86663 20.3307 8.83413V3.93929H17.6232V9.43834C17.6232 11.4804 18.5945 12.6506 20.4836 12.6506Z" fill="white"/>
<path d="M26.9943 12.4517H29.7017V7.58748C29.7017 6.60851 30.2218 5.94312 31.1013 5.94312C32.0191 5.94312 32.4398 6.52438 32.4398 7.55688V12.4517H35.1472V6.95268C35.1472 4.91061 34.1606 3.74044 32.2715 3.74044C31.0707 3.74044 30.2141 4.337 29.847 5.27008H29.7017V3.93929H26.9943V12.4517Z" fill="white"/>
<path d="M39.264 12.5817C40.48 12.5817 41.3596 12.054 41.7573 11.1515H41.9026V12.4517H44.6177V0.75H41.9026V5.30832H41.7573C41.3519 4.36759 40.4341 3.80927 39.264 3.80927C37.1148 3.80927 35.8682 5.41539 35.8682 8.18403V8.19933C35.8682 10.9527 37.1531 12.5817 39.264 12.5817ZM40.2659 10.3714C39.2563 10.3714 38.6215 9.55306 38.6215 8.19933V8.18403C38.6215 6.8456 39.264 6.0196 40.2659 6.0196C41.2678 6.0196 41.9255 6.83795 41.9255 8.19168V8.20698C41.9255 9.56071 41.2831 10.3714 40.2659 10.3714Z" fill="white"/>
<path d="M49.7822 12.6506C52.5126 12.6506 53.5528 11.0521 53.7975 10.0349L53.8205 9.94312L51.3425 9.95076L51.3272 9.98136C51.2048 10.2032 50.7383 10.7232 49.8358 10.7232C48.7956 10.7232 48.1685 10.0196 48.1455 8.80354H53.874V8.02342C53.874 5.42304 52.245 3.74044 49.6828 3.74044C47.113 3.74044 45.484 5.44598 45.484 8.19168V8.19933C45.484 10.9603 47.113 12.6506 49.7822 12.6506ZM49.744 5.66778C50.5853 5.66778 51.1819 6.2108 51.3119 7.22801H48.1761C48.3061 6.2261 48.9103 5.66778 49.744 5.66778Z" fill="white"/>
<path d="M54.6638 12.4517H57.3713V7.94694C57.3713 6.76912 58.1131 6.08843 59.3827 6.08843C59.7651 6.08843 60.1552 6.14197 60.5147 6.23375V3.94694C60.2546 3.85516 59.9258 3.80927 59.5969 3.80927C58.5108 3.80927 57.7613 4.35229 57.5166 5.29302H57.3713V3.93929H54.6638V12.4517Z" fill="white"/>
<path d="M69.0617 12.75C71.8915 12.75 73.8495 11.0292 74.033 8.56644V8.44407H71.3332L71.3179 8.5282C71.1267 9.66778 70.2778 10.425 69.0694 10.425C67.5244 10.425 66.5837 9.10182 66.5837 6.92973V6.91444C66.5837 4.75765 67.5244 3.44216 69.0617 3.44216C70.2701 3.44216 71.1573 4.25287 71.3179 5.40774L71.3256 5.47658H74.0254V5.33891C73.8648 2.89914 71.838 1.11711 69.0617 1.11711C65.7501 1.11711 63.7233 3.32744 63.7233 6.92208V6.93738C63.7233 10.532 65.7577 12.75 69.0617 12.75Z" fill="white"/>
<path d="M75.0064 12.4517H77.7138V0.75H75.0064V12.4517Z" fill="white"/>
<path d="M81.7923 12.6506C82.9931 12.6506 83.865 12.054 84.2321 11.1209H84.3774V12.4517H87.0849V3.93929H84.3774V8.80354C84.3774 9.77486 83.8726 10.4402 82.9549 10.4402C82.0371 10.4402 81.6394 9.86663 81.6394 8.83413V3.93929H78.9319V9.43834C78.9319 11.4804 79.9032 12.6506 81.7923 12.6506Z" fill="white"/>
<path d="M93.7255 12.5817C95.8364 12.5817 97.1213 10.9527 97.1213 8.19933V8.18403C97.1213 5.41539 95.8823 3.80927 93.7255 3.80927C92.5554 3.80927 91.6452 4.36759 91.2322 5.30832H91.0869V0.75H88.3794V12.4517H91.0869V11.1515H91.2322C91.6299 12.054 92.5171 12.5817 93.7255 12.5817ZM92.7236 10.3714C91.7064 10.3714 91.064 9.56071 91.064 8.20698V8.19168C91.064 6.83795 91.7217 6.0196 92.7236 6.0196C93.7255 6.0196 94.3756 6.8456 94.3756 8.18403V8.19933C94.3756 9.55306 93.7332 10.3714 92.7236 10.3714Z" fill="white"/>
</svg>
