<svg width="282" height="26" viewBox="0 0 282 26" fill="none" xmlns="http://www.w3.org/2000/svg">
  <path d="M6.88824 25.5439C6.51791 25.5439 6.22164 25.4513 5.9624 25.4235C5.1363 25.3393 4.33652 25.0853 3.61321 24.6775C2.8899 24.2696 2.25866 23.7167 1.7591 23.0534C1.02905 21.9145 0.49107 20.6634 0.166658 19.35L0 18.6279C0 18.6279 2.5831 18.0724 3.43487 17.8687C3.68726 18.6765 3.99665 19.4655 4.36071 20.2296C4.58373 20.7045 4.92292 21.1156 5.34691 21.4247C5.7709 21.7337 6.266 21.9309 6.7864 21.9979C7.33989 22.1047 7.90867 22.1047 8.46216 21.9979C9.49218 21.8456 10.4222 21.2975 11.0545 20.4703C11.3728 20.0097 11.5803 19.4816 11.6606 18.9275C11.7409 18.3734 11.6919 17.8082 11.5174 17.2761C11.3478 16.6619 10.992 16.1152 10.499 15.7115C9.54512 14.9184 8.44836 14.315 7.26784 13.9339C5.63101 13.4789 4.1244 12.6448 2.87011 11.4989C1.40728 9.95278 0.490703 8.14739 1.29618 5.79576C1.64212 4.78763 2.21789 3.8738 2.97795 3.1266C3.73801 2.37939 4.66151 1.81928 5.67539 1.49059C6.8244 1.06007 8.0663 0.938779 9.27691 1.13879C10.2704 1.26936 11.2251 1.60817 12.0787 2.13306C12.9322 2.65795 13.6654 3.35709 14.2301 4.18478C14.332 4.32366 14.8227 4.83287 14.7856 4.99952C14.7486 5.16617 14.5542 5.17545 14.4709 5.24952C14.1454 5.47071 13.8085 5.67465 13.4617 5.86055L11.8507 6.83269L11.1286 5.90685C10.7761 5.44866 10.3198 5.08078 9.79728 4.83356C9.27474 4.58634 8.70092 4.46684 8.12313 4.48493C7.54533 4.50301 6.98012 4.65817 6.47406 4.93759C5.968 5.217 5.53559 5.61266 5.21248 6.09201C4.9748 6.45013 4.84804 6.87043 4.84804 7.30025C4.84804 7.73007 4.9748 8.15033 5.21248 8.50846C6.07738 9.51129 7.22173 10.2333 8.4992 10.5823C10.8323 11.5082 13.3598 12.5173 14.582 14.906C15.0773 15.9117 15.3426 17.0151 15.3586 18.136C15.3746 19.257 15.1409 20.3674 14.6745 21.3869C14.0302 22.8205 12.9077 23.9857 11.4989 24.6829C10.8176 25.0204 10.091 25.2574 9.34172 25.3865C9.12878 25.3865 8.4992 25.4976 8.12886 25.5346C7.7165 25.5762 7.30117 25.5793 6.88824 25.5439Z" fill="#fff"/>
  <path d="M237.422 5.03656L238.839 1.62022H220.192V5.03656H227.377V25.2384H230.997V5.01804L237.422 5.03656Z" fill="#fff"/>
  <path d="M267.623 25.2384H281.427V21.9146H271.308L271.298 1.62022H267.632L267.623 25.2384Z" fill="#fff"/>
  <path d="M78.15 25.2291V1.62022H81.9089V25.2291H78.15Z" fill="#fff"/>
  <path d="M210.036 25.2291V1.62022H213.795V25.2291H210.036Z" fill="#fff"/>
  <path d="M250.023 0L238.709 25.2013H242.69L245.338 19.3593H254.717L257.365 25.2013H261.346L250.023 0ZM246.829 16.0633L250.106 8.39736L253.383 16.0633H246.829Z" fill="#fff"/>
  <path d="M172.53 0L161.216 25.2013H165.197L167.845 19.3593H177.215L179.863 25.2013H183.872L172.53 0ZM169.317 16.0633L172.595 8.39736L175.872 16.0633H169.317Z" fill="#fff"/>
  <path d="M99.6202 0L88.3065 25.2013H92.2876L94.9355 19.3593H104.342L106.99 25.2013H110.971L99.6202 0ZM96.4076 16.0633L99.685 8.39736L102.962 16.0633H96.4076Z" fill="#fff"/>
  <path d="M117.165 25.2384H130.96V21.9146H120.84L120.831 1.62022H117.165V25.2384Z" fill="#fff"/>
  <path d="M196.63 1.64799H190.426V25.2291H193.889L193.769 15.6837H196.546C198.408 15.6837 200.193 14.9443 201.509 13.6282C202.825 12.3121 203.564 10.5271 203.564 8.66583C203.564 6.80458 202.825 5.01957 201.509 3.70347C200.193 2.38736 198.408 1.64799 196.546 1.64799H196.63ZM196.491 12.2581H193.908V4.99952H196.491C197.453 4.99952 198.376 5.38188 199.057 6.06251C199.738 6.74313 200.12 7.66627 200.12 8.62882C200.12 9.59137 199.738 10.5145 199.057 11.1951C198.376 11.8757 197.453 12.2581 196.491 12.2581Z" fill="#fff"/>
  <path d="M33.2006 0.833252C30.7259 0.831421 28.3063 1.56368 26.248 2.93738C24.1896 4.31108 22.585 6.26449 21.6371 8.55042C20.6893 10.8363 20.4408 13.3521 20.9231 15.7793C21.4055 18.2065 22.5969 20.436 24.3468 22.1859C26.0966 23.9357 28.3262 25.1272 30.7534 25.6095C33.1806 26.0919 35.6963 25.8434 37.9822 24.8955C40.2681 23.9477 42.2216 22.343 43.5953 20.2847C44.969 18.2263 45.7012 15.8067 45.6994 13.3321C45.6994 10.0172 44.3825 6.83807 42.0386 4.49408C39.6946 2.1501 36.5155 0.833252 33.2006 0.833252ZM33.2006 22.3775C31.4104 22.383 29.6588 21.8572 28.1676 20.8666C26.6765 19.876 25.5128 18.4652 24.8239 16.8129C24.135 15.1605 23.9519 13.341 24.2978 11.5845C24.6437 9.82801 25.503 8.21369 26.7669 6.94588C28.0308 5.67808 29.6425 4.8138 31.3979 4.46252C33.1533 4.11125 34.9734 4.28874 36.6279 4.97254C38.2823 5.65635 39.6967 6.8157 40.6919 8.30381C41.687 9.79193 42.2182 11.5419 42.2182 13.3321C42.2207 15.727 41.2723 18.025 39.5814 19.7211C37.8906 21.4171 35.5955 22.3726 33.2006 22.3775Z" fill="#fff"/>
  <path d="M70.3082 19.4426C69.1198 20.8032 67.5509 21.7764 65.804 22.2366C64.0571 22.6967 62.2124 22.6227 60.5079 22.024C58.8035 21.4254 57.3176 20.3296 56.2421 18.8781C55.1666 17.4267 54.5508 15.6862 54.4743 13.8813C54.3977 12.0764 54.8639 10.29 55.8127 8.75272C56.7615 7.21541 58.1492 5.99778 59.7968 5.25698C61.4445 4.51617 63.2763 4.2862 65.0559 4.59678C66.8355 4.90737 68.4812 5.74423 69.7805 6.99934L71.5488 3.93481C69.7023 2.38217 67.4459 1.39709 65.0519 1.09847C62.658 0.799857 60.2287 1.20048 58.0574 2.25196C55.886 3.30343 54.0654 4.96085 52.8152 7.02417C51.565 9.08749 50.9387 11.4685 51.0118 13.8799C51.0849 16.2914 51.8543 18.6301 53.2272 20.6139C54.6001 22.5977 56.5178 24.1418 58.7489 25.0598C60.9799 25.9778 63.429 26.2305 65.8005 25.7874C68.1719 25.3443 70.3645 24.2243 72.1136 22.5627L70.3082 19.4426Z" fill="#fff"/>
  <path d="M155.356 19.4426C154.167 20.8032 152.598 21.7764 150.852 22.2366C149.105 22.6967 147.26 22.6227 145.555 22.024C143.851 21.4254 142.365 20.3296 141.29 18.8781C140.214 17.4267 139.598 15.6862 139.522 13.8813C139.445 12.0764 139.911 10.29 140.86 8.75272C141.809 7.21541 143.197 5.99778 144.844 5.25698C146.492 4.51617 148.324 4.2862 150.103 4.59679C151.883 4.90737 153.529 5.74423 154.828 6.99934L156.596 3.93481C154.751 2.38121 152.495 1.39497 150.101 1.09514C147.707 0.795303 145.278 1.19467 143.106 2.24506C140.934 3.29545 139.112 4.95197 137.861 7.01468C136.61 9.07739 135.982 11.4581 136.054 13.8696C136.126 16.2811 136.894 18.6202 138.266 20.6047C139.638 22.5892 141.555 24.1342 143.786 25.0533C146.016 25.9724 148.465 26.2263 150.837 25.7844C153.209 25.3424 155.402 24.2235 157.152 22.5627L155.356 19.4426Z" fill="#fff"/>
</svg>
