<svg width="94" height="22" viewBox="0 0 94 22" fill="none" xmlns="http://www.w3.org/2000/svg">
<path fill-rule="evenodd" clip-rule="evenodd" d="M22 0H0V22H22V0ZM6.45652 5.35288L10.2689 12.4662L10.2724 17.0874H11.7388V12.5405L15.5512 5.35288H13.9379L11.7379 9.82633L11.7345 9.83151C11.5887 10.0501 11.4435 10.2679 11.3707 10.4865C11.3289 10.6553 11.2624 10.7756 11.1995 10.8894C11.1532 10.9731 11.1089 11.0533 11.0777 11.1467C11.041 11.1103 11.0226 11.0554 11.0042 11.0003C10.9859 10.9454 10.9675 10.8904 10.9308 10.8538C10.8941 10.7803 10.8758 10.7252 10.8574 10.6701C10.839 10.615 10.8207 10.56 10.7839 10.4865V10.4131L10.7105 10.3396C10.6823 10.2836 10.665 10.2383 10.6501 10.1996C10.6263 10.1373 10.6089 10.092 10.5636 10.0467L10.5636 10.0467C10.4901 9.97322 10.4167 9.89978 10.4167 9.82633L8.2167 5.35288H6.45652Z" fill="white"/>
<path d="M30.8325 6.32499C31.7594 6.32499 32.5638 6.57245 33.1829 7.06823L32.5647 7.81148C32.0077 7.44073 31.4516 7.19327 30.7722 7.19327C29.7203 7.19327 28.9167 7.75027 28.4839 8.80218C28.2364 9.42038 28.1131 10.2248 28.1131 11.2767C28.1131 12.0812 28.2355 12.7615 28.4227 13.2564C28.9176 14.4316 29.722 14.9877 30.9584 14.9877C31.6387 14.9877 32.2578 14.8023 32.8139 14.3695L33.4321 15.174C32.6277 15.6689 31.7707 15.9172 30.8351 15.9172C29.722 15.9172 28.7943 15.4844 28.0519 14.5566C27.3087 13.6822 27 12.5158 27 11.094C27 9.67221 27.3707 8.55822 28.1131 7.63135C28.7934 6.8269 29.722 6.33199 30.8351 6.33199L30.8325 6.32499ZM34.3581 12.4484C34.3581 11.3353 34.6056 10.4688 35.1626 9.85146C35.7196 9.23413 36.3998 8.86164 37.2655 8.86164C38.2553 8.86164 39.058 9.23238 39.6159 10.0368C40.0487 10.655 40.2341 11.5216 40.2341 12.5726C40.2341 13.8099 39.8634 14.7997 39.1822 15.4179C38.67 15.8679 38.0083 16.1105 37.3267 16.0982C36.3998 16.0982 35.7178 15.7887 35.1617 15.1084C34.6047 14.4902 34.3572 13.5624 34.3572 12.4484H34.3581ZM38.6882 10.6559C38.3786 10.0989 37.9449 9.78151 37.2655 9.78151C36.5861 9.78151 36.1524 10.029 35.8428 10.5248C35.5954 10.8955 35.5333 11.5146 35.5333 12.3173C35.5333 13.3692 35.6557 14.1098 35.9661 14.5444C36.2765 14.979 36.7094 15.2247 37.3267 15.2247C38.0699 15.2247 38.564 14.8539 38.8114 14.1728C38.9339 13.802 38.9968 13.2984 38.9968 12.688C39.058 11.7612 38.9356 11.0791 38.6873 10.6472L38.6882 10.6559ZM42.212 10.7783C42.212 10.098 42.1508 9.54105 41.9645 9.11696L43.0165 8.86951C43.2018 9.17904 43.2639 9.54979 43.2639 9.85933V9.92054C43.5114 9.67308 43.7588 9.42563 44.1383 9.24025C44.5711 8.9928 44.9428 8.86951 45.3135 8.86951C45.8705 8.86951 46.3654 9.11696 46.6741 9.54979C46.7353 9.67221 46.8595 9.85933 46.9215 9.98262C47.6648 9.23938 48.3442 8.86951 49.0866 8.86951C49.5815 8.86951 50.0134 9.05488 50.3238 9.36442C50.6334 9.73517 50.8188 10.1689 50.8188 10.6638V15.7965H49.689V10.725C49.689 10.0447 49.3795 9.73517 48.8146 9.73517C48.5051 9.73517 48.1343 9.85758 47.8248 10.1059C47.7024 10.2283 47.4541 10.4155 47.1445 10.6629L47.0221 10.7853V15.7957H45.8469V10.9637C45.8469 10.5309 45.7857 10.2205 45.6615 10.0893C45.4761 9.90393 45.2908 9.84184 44.9812 9.84184C44.4863 9.84184 43.9293 10.1514 43.2499 10.7687V15.8403H42.2129L42.212 10.7783ZM52.7285 6.07754L53.8416 5.83008C53.964 6.32499 54.0269 6.88199 54.0269 7.5614V9.84971C54.6451 9.23151 55.3263 8.92285 56.0066 8.92285C56.811 8.92285 57.4913 9.23238 57.9242 9.84971C58.4191 10.4679 58.6674 11.3345 58.6674 12.3855C58.6674 13.4986 58.4199 14.3651 57.9242 15.0454C57.4284 15.7257 56.749 16.0352 55.9445 16.0352C55.5787 16.0421 55.217 15.957 54.8926 15.7878C54.5219 15.6024 54.2744 15.417 54.0882 15.1696L53.9028 15.9128H52.8509C52.9733 15.6033 53.0362 15.0384 53.0362 14.1815V7.68469C52.975 6.94145 52.9138 6.38532 52.7267 6.07579L52.7285 6.07754ZM54.521 10.2747C54.3356 10.3971 54.1502 10.5842 54.0261 10.7696V14.3127C54.4589 14.8697 55.0159 15.1171 55.6874 15.1171C56.2444 15.1171 56.6773 14.9317 56.9247 14.4989C57.2343 14.004 57.4196 13.3237 57.4196 12.3339C57.4196 11.4595 57.2972 10.8492 56.9868 10.4784C56.7393 10.1077 56.3065 9.92141 55.6874 9.92141C55.3167 9.86021 54.883 9.98262 54.5122 10.2922L54.521 10.2747ZM60.2746 6.95194C60.2746 6.70448 60.3358 6.51911 60.522 6.33373C60.7083 6.14836 60.8928 6.08628 61.1402 6.08628C61.3877 6.08628 61.573 6.14749 61.7584 6.33373C61.9438 6.51998 62.0059 6.70448 62.0059 6.95194C62.0059 7.1994 61.9447 7.38477 61.7584 7.57014C61.5722 7.75552 61.3877 7.8176 61.1402 7.8176C60.8928 7.8176 60.7074 7.75639 60.522 7.57014C60.3366 7.38389 60.2746 7.1994 60.2746 6.95194ZM60.5316 15.8516V9.04876L61.6447 8.86338V15.8534L60.5316 15.8516ZM64.0485 10.7783C64.0485 10.2834 64.0485 9.97388 63.9873 9.85146C63.9873 9.66609 63.8649 9.48072 63.7398 9.17118L64.7917 8.86164C64.9609 9.18604 65.046 9.54772 65.0392 9.91354C65.7195 9.23326 66.4618 8.86164 67.2042 8.86164C67.575 8.86164 67.8845 8.92284 68.194 9.10909C68.5036 9.29534 68.751 9.54192 68.8743 9.85234C68.9967 10.0998 69.0597 10.3472 69.0597 10.6568V15.8525H68.0078V11.2138C68.0078 10.6568 67.9466 10.2869 67.7603 10.1007C67.6639 10.0016 67.5484 9.92308 67.4208 9.86988C67.2932 9.81668 67.1562 9.78989 67.018 9.79113C66.7705 9.79113 66.3998 9.91354 66.0281 10.1007C65.6844 10.2763 65.3712 10.506 65.1004 10.781V15.8525H64.0485V10.7783ZM71.5334 10.5309L70.9764 9.78763C71.9032 9.16943 72.8319 8.86076 73.8217 8.86076C74.8115 8.86076 75.4306 9.23151 75.7393 9.91267C75.8617 10.1601 75.8617 10.5309 75.8617 11.0879V11.4586L75.8005 13.6857V13.9953C75.8005 14.366 75.8005 14.6135 75.8617 14.7997C75.9229 15.0472 76.1091 15.2325 76.3566 15.3567L75.7996 16.1C75.3047 15.9146 74.9951 15.605 74.8727 15.1101C74.2545 15.7283 73.5734 16.037 72.8931 16.037C72.2128 16.037 71.6558 15.8516 71.2317 15.48C70.861 15.1705 70.6747 14.6755 70.6747 14.0573C70.6584 13.7033 70.7356 13.3512 70.8984 13.0364C71.0613 12.7216 71.3041 12.4552 71.6025 12.2639C72.2207 11.8311 73.1484 11.6457 74.2624 11.6457H74.7573V11.1508C74.7573 10.5938 74.6961 10.224 74.5098 10.0989C74.3926 9.97219 74.2485 9.87316 74.0882 9.80904C73.9279 9.74491 73.7553 9.71728 73.583 9.72817C73.2122 9.72817 72.7785 9.85059 72.2836 10.0377L71.5404 10.5326L71.5334 10.5309ZM74.8124 14.1806L74.8736 12.3881H74.3166C73.3268 12.3881 72.7077 12.5735 72.337 12.9451C72.0895 13.1926 71.9662 13.5633 71.9662 14.0582C71.9662 14.8627 72.337 15.2955 73.1414 15.2955C73.4925 15.2754 73.8319 15.1615 74.1241 14.9658C74.4163 14.77 74.6506 14.4995 74.8028 14.1824L74.8124 14.1806ZM79.389 9.04614H81.1203L80.8108 9.92054H79.3881V14.3127C79.3881 14.6834 79.4494 14.9309 79.5735 15.1171C79.6959 15.2395 79.9443 15.3646 80.2538 15.3646C80.5013 15.3646 80.7487 15.3034 80.9341 15.2422L81.0565 15.9224C80.6858 16.1078 80.3133 16.1699 79.8813 16.1699C78.8294 16.1699 78.3354 15.675 78.3354 14.624V9.92316H77.4076V9.04876H78.282V8.92634C78.282 8.80393 78.3432 8.30814 78.4044 7.50369V7.31744L79.5176 7.06998C79.3951 7.81323 79.3951 8.49264 79.3951 9.04963L79.389 9.04614ZM82.2343 12.4476C82.2343 11.3344 82.4818 10.4679 83.0388 9.85059C83.5337 9.23238 84.2761 8.86076 85.1417 8.86076C86.1315 8.86076 86.9343 9.23151 87.4921 10.036C87.925 10.6542 88.1103 11.5207 88.1103 12.5717C88.1103 13.809 87.7396 14.7988 87.0584 15.417C86.5462 15.867 85.8846 16.1096 85.2029 16.0973C84.2761 16.0973 83.594 15.7878 83.0379 15.1075C82.543 14.4893 82.2335 13.5616 82.2335 12.4476H82.2343ZM86.6265 10.655C86.3169 10.098 85.8832 9.78063 85.2038 9.78063C84.5244 9.78063 84.0907 10.0281 83.7812 10.5239C83.5337 10.8946 83.4716 11.5137 83.4716 12.3164C83.4716 13.3683 83.594 14.1089 83.9044 14.5435C84.2149 14.9781 84.6477 15.2238 85.265 15.2238C86.0083 15.2238 86.5023 14.8531 86.7498 14.1719C86.8722 13.8011 86.9351 13.2975 86.9351 12.6872C86.9351 11.7603 86.8127 11.0783 86.6256 10.6463L86.6265 10.655ZM90.1503 10.6533C90.1503 10.0351 90.0891 9.54017 89.9029 9.16855L90.9548 8.85901C91.124 9.18342 91.2091 9.5451 91.2022 9.91092V10.0333C91.7592 9.2901 92.3774 8.92022 93.1198 8.92022C93.2422 8.92022 93.3672 8.92022 93.4905 8.98143L93.0577 10.1566C92.9353 10.0954 92.8102 10.0954 92.7482 10.0954C92.5007 10.0954 92.1912 10.1566 91.9437 10.3429C91.6963 10.5291 91.4488 10.7136 91.3255 10.9611C91.2441 11.2001 91.2024 11.4509 91.2022 11.7034V15.9705H90.1503V10.6533Z" fill="white"/>
</svg>
