<svg width="24" height="24" viewBox="0 0 24 24" fill="none" xmlns="http://www.w3.org/2000/svg">
<path d="M22 12C22 17.52 17.52 22 12 22C6.48 22 3.11 16.44 3.11 16.44M3.11 16.44H7.63M3.11 16.44V21.44M2 12C2 6.48 6.44 2 12 2C18.67 2 22 7.56 22 7.56M22 7.56V2.56M22 7.56H17.56" stroke="#6851FF" stroke-width="2" stroke-linecap="round" stroke-linejoin="round"/>
<path fill-rule="evenodd" clip-rule="evenodd" d="M11.1368 8.19256L8.91524 9.37693C8.41186 9.64502 8 10.3172 8 10.8694V13.1301C8 13.6823 8.41186 14.3545 8.91524 14.6226L11.1368 15.8109C11.611 16.063 12.389 16.063 12.8632 15.8109L15.0848 14.6226C15.5881 14.3545 16 13.6823 16 13.1301V10.8694C16 10.3172 15.5881 9.64502 15.0848 9.37693L12.8632 8.18856C12.3848 7.93648 11.611 7.93648 11.1368 8.19256ZM9.00628 10.7713C9.13261 10.5443 9.41901 10.4627 9.64598 10.589L12.0087 11.9041L14.3539 10.5976C14.5808 10.4712 14.8672 10.5527 14.9936 10.7796C15.1201 11.0065 15.0386 11.2929 14.8117 11.4193L12.4792 12.7188V15C12.4792 15.2598 12.2686 15.4703 12.0089 15.4703C11.7491 15.4703 11.5385 15.2598 11.5385 15V12.719L9.1885 11.411C8.96153 11.2846 8.87995 10.9982 9.00628 10.7713Z" fill="#6851FF"/>
</svg>
