<svg width="24" height="24" viewBox="0 0 24 24" fill="none" xmlns="http://www.w3.org/2000/svg">
<path d="M16.5 14C16.3674 14 16.2402 13.9473 16.1464 13.8536C16.0527 13.7598 16 13.6326 16 13.5C16 13.3674 16.0527 13.2402 16.1464 13.1464C16.2402 13.0527 16.3674 13 16.5 13C16.6326 13 16.7598 13.0527 16.8536 13.1464C16.9473 13.2402 17 13.3674 17 13.5C17 13.6326 16.9473 13.7598 16.8536 13.8536C16.7598 13.9473 16.6326 14 16.5 14Z" fill="#6851FF" stroke="#6851FF" stroke-width="2" stroke-linecap="round" stroke-linejoin="round"/>
<path fill-rule="evenodd" clip-rule="evenodd" d="M16.5881 3.0582C16.1373 2.96808 15.6717 2.98278 15.2275 3.10117L15.2274 3.1012L4.2275 6.03417L4.22736 6.0342C3.5885 6.20448 3.02378 6.58104 2.62098 7.10536C2.21821 7.62965 1.9999 8.2723 2 8.93344V8.93366V9.39644C2 9.46505 2.00691 9.53205 2.02007 9.59678C2.0068 9.72938 2 9.8639 2 10V18C2 20.2091 3.79086 22 6 22H18C20.2091 22 22 20.2091 22 18V10C22 8.4503 21.1187 7.10644 19.83 6.44222L18.6631 4.6188C18.4611 4.22927 18.176 3.88855 17.8276 3.62093C17.463 3.34086 17.0389 3.14833 16.5881 3.0582ZM17.1726 6L16.9516 5.65468L16.9216 5.60777L16.8969 5.55783C16.8292 5.42038 16.7307 5.30034 16.6092 5.20698C16.4877 5.11362 16.3463 5.04944 16.196 5.0194C16.0458 4.98937 15.8907 4.99426 15.7426 5.03369L15.7425 5.03372L12.1185 6H17.1726ZM4 10C4 8.89543 4.89543 8 6 8H18C19.1046 8 20 8.89543 20 10V18C20 19.1046 19.1046 20 18 20H6C4.89543 20 4 19.1046 4 18V10Z" fill="#6851FF"/>
</svg>
