<svg width="459" height="167" viewBox="0 0 459 167" fill="none" xmlns="http://www.w3.org/2000/svg">
<g opacity="0.3" filter="url(#filter0_f_8929_81697)">
<path d="M447.5 151.783C447.5 154.111 360.29 155.999 252.711 155.999C145.132 155.999 57.9219 154.111 57.9219 151.783C57.9219 149.454 145.132 147.566 252.711 147.566C360.29 147.566 447.5 149.454 447.5 151.783Z" fill="url(#paint0_linear_8929_81697)"/>
</g>
<path fill-rule="evenodd" clip-rule="evenodd" d="M178.315 91.4339C181.464 93.4523 185.582 93.0699 188.306 90.5062L194.231 84.9298L205.79 97.2108L193.545 108.736C189.847 112.216 184.739 113.776 179.728 112.955L153.711 108.696L159.456 79.3477L178.315 91.4339Z" fill="url(#paint1_linear_8929_81697)"/>
<g style="mix-blend-mode:multiply" opacity="0.3" filter="url(#filter1_f_8929_81697)">
<path d="M277.167 151.783C277.167 154.111 257.913 155.999 234.162 155.999C210.41 155.999 191.156 154.111 191.156 151.783C191.156 149.454 210.41 147.566 234.162 147.566C257.913 147.566 277.167 149.454 277.167 151.783Z" fill="url(#paint2_linear_8929_81697)"/>
</g>
<g style="mix-blend-mode:multiply" opacity="0.3" filter="url(#filter2_f_8929_81697)">
<path d="M199.59 151.783C199.59 154.111 157.495 155.999 105.568 155.999C53.6418 155.999 11.5469 154.111 11.5469 151.783C11.5469 149.454 53.6418 147.566 105.568 147.566C157.495 147.566 199.59 149.454 199.59 151.783Z" fill="url(#paint3_linear_8929_81697)"/>
</g>
<g style="mix-blend-mode:multiply" opacity="0.3" filter="url(#filter3_f_8929_81697)">
<path d="M408.716 151.783C408.716 154.111 378.702 155.999 341.678 155.999C304.654 155.999 274.641 154.111 274.641 151.783C274.641 149.454 304.654 147.566 341.678 147.566C378.702 147.566 408.716 149.454 408.716 151.783Z" fill="url(#paint4_linear_8929_81697)"/>
</g>
<path d="M52.0156 70.0512C52.0156 35.0887 80.3306 6.74609 115.259 6.74609C150.187 6.74609 178.502 35.0887 178.502 70.0512L178.691 146.86C178.691 151.44 172.991 153.539 170.026 150.051L150.627 121.666C148.663 119.356 145.098 119.356 143.134 121.666L119.005 150.051C117.041 152.362 113.477 152.362 111.513 150.051L87.3835 121.666C85.4193 119.356 81.8551 119.356 79.891 121.666L60.8697 150.051C57.9045 153.539 52.2045 151.44 52.2045 146.86L52.0156 70.0512Z" fill="url(#paint5_radial_8929_81697)"/>
<g filter="url(#filter4_f_8929_81697)">
<path d="M177.649 75.4423C177.649 70.7591 163.492 75.4423 146.028 75.4423C128.564 75.4423 114.406 70.7591 114.406 75.4423C114.406 80.1254 128.564 83.9219 146.028 83.9219C163.492 83.9219 177.649 80.1254 177.649 75.4423Z" fill="url(#paint6_linear_8929_81697)"/>
</g>
<g filter="url(#filter5_i_8929_81697)">
<path d="M177.2 84.4566C178.397 80.0106 173.87 75.9221 169.499 77.3697C162.483 79.6934 153.231 82.1649 145.615 82.1649C137.998 82.1649 128.746 79.6934 121.73 77.3697C117.359 75.9221 112.832 80.0106 114.029 84.4566C117.87 98.7197 130.843 108.779 145.615 108.779C160.386 108.779 173.359 98.7197 177.2 84.4566Z" fill="#3512B2"/>
</g>
<path opacity="0.3" d="M149.832 58.6367C149.832 67.6984 157.005 75.0444 165.853 75.0444C174.702 75.0444 181.875 67.6984 181.875 58.6367C181.875 49.575 174.702 51.6348 165.853 51.6348C157.005 51.6348 149.832 49.575 149.832 58.6367Z" fill="#3512B2"/>
<path d="M150.201 59.2884C150.201 67.8186 157.102 74.7336 165.616 74.7336C174.13 74.7336 181.031 67.8186 181.031 59.2884C181.031 50.7582 174.13 52.6972 165.616 52.6972C157.102 52.6972 150.201 50.7582 150.201 59.2884Z" fill="white"/>
<path d="M170.541 67.6463C170.541 69.6148 172.134 71.2106 174.099 71.2106C176.064 71.2106 177.656 69.6148 177.656 67.6463C177.656 65.6778 176.064 64.082 174.099 64.082C172.134 64.082 170.541 65.6778 170.541 67.6463Z" fill="#18171A"/>
<path opacity="0.3" d="M115.261 58.1779C115.261 67.0264 122.435 74.1995 131.283 74.1995C140.132 74.1995 147.305 67.0264 147.305 58.1779C147.305 49.3294 140.132 42.1562 131.283 42.1562C122.435 42.1562 115.261 49.3294 115.261 58.1779Z" fill="#3512B2"/>
<path d="M115.63 59.4999C115.63 68.0301 122.532 74.9452 131.046 74.9452C139.559 74.9452 146.461 68.0301 146.461 59.4999C146.461 50.9698 139.559 44.0547 131.046 44.0547C122.532 44.0547 115.63 50.9698 115.63 59.4999Z" fill="white"/>
<path d="M135.971 67.6461C135.971 69.6146 137.564 71.2104 139.529 71.2104C141.493 71.2104 143.086 69.6146 143.086 67.6461C143.086 65.6776 141.493 64.0818 139.529 64.0818C137.564 64.0818 135.971 65.6776 135.971 67.6461Z" fill="#18171A"/>
<path d="M258.202 51.0178C272.934 54.3772 273.802 96.552 290.245 94.8655C292.775 105.828 295.685 116.368 290.245 116.368C270.588 116.368 260.195 114.202 259.615 72.5199C259.588 70.5721 257.792 69.1109 255.888 69.52L253.117 70.1152C251.607 70.4398 250.298 69.0313 250.732 67.5482L253.109 59.4325L242.502 60.4632C240.239 60.6831 239.368 57.5945 241.412 56.5998L246.818 53.9697C250.191 51.8623 253.986 50.0564 258.202 51.0178Z" fill="url(#paint7_linear_8929_81697)"/>
<path d="M405.344 70.0505C405.344 35.088 377.029 6.74536 342.101 6.74536C307.172 6.74536 278.857 35.088 278.857 70.0505L278.668 146.859C278.668 151.439 284.368 153.538 287.334 150.05L306.733 121.666C308.697 119.355 312.261 119.355 314.225 121.666L338.354 150.05C340.318 152.361 343.883 152.361 345.847 150.05L369.976 121.666C371.94 119.355 375.504 119.355 377.468 121.666L396.49 150.05C399.455 153.538 405.155 151.439 405.155 146.859L405.344 70.0505Z" fill="url(#paint8_radial_8929_81697)"/>
<g filter="url(#filter6_f_8929_81697)">
<path d="M283.907 75.5218C283.907 70.6607 295.988 75.5218 310.891 75.5218C325.794 75.5218 337.875 70.6608 337.875 75.5218C337.875 80.3828 325.794 84.3235 310.891 84.3235C295.988 84.3235 283.907 80.3828 283.907 75.5218Z" fill="url(#paint9_linear_8929_81697)"/>
</g>
<g filter="url(#filter7_i_8929_81697)">
<path d="M278.842 84.3332C277.843 79.9871 282.47 76.2632 286.646 77.8274C292.464 80.0064 299.759 82.1644 305.834 82.1644C311.909 82.1644 319.204 80.0064 325.021 77.8274C329.197 76.2632 333.824 79.9871 332.825 84.3332L331.994 87.9502C329.192 100.14 318.342 108.779 305.834 108.779C293.326 108.779 282.476 100.14 279.674 87.9502L278.842 84.3332Z" fill="#3512B2"/>
</g>
<path opacity="0.3" d="M306.676 68.9835C306.676 78.2084 299.503 74.1664 290.654 74.1664C281.806 74.1664 274.633 78.2084 274.633 68.9835C274.633 59.7587 281.806 52.2805 290.654 52.2805C299.503 52.2805 306.676 59.7587 306.676 68.9835Z" fill="#3512B2"/>
<path d="M305.471 68.5703C305.471 77.1004 298.57 73.3628 290.056 73.3628C281.542 73.3628 274.641 77.1004 274.641 68.5703C274.641 60.0401 281.542 53.125 290.056 53.125C298.57 53.125 305.471 60.0401 305.471 68.5703Z" fill="white"/>
<path d="M285.13 70.1807C285.13 72.1492 283.538 73.745 281.573 73.745C279.608 73.745 278.016 72.1492 278.016 70.1807C278.016 68.2122 279.608 66.6165 281.573 66.6165C283.538 66.6165 285.13 68.2122 285.13 70.1807Z" fill="#18171A"/>
<path opacity="0.3" d="M341.245 68.8914C341.245 78.0654 333.695 74.27 324.38 74.27C315.066 74.27 307.516 78.0654 307.516 68.8914C307.516 59.7175 315.066 52.2805 324.38 52.2805C333.695 52.2805 341.245 59.7175 341.245 68.8914Z" fill="#3512B2"/>
<path d="M340.042 68.7805C340.042 77.3106 333.14 73.7815 324.626 73.7815C316.113 73.7815 309.211 77.3106 309.211 68.7805C309.211 60.2503 316.113 53.3352 324.626 53.3352C333.14 53.3352 340.042 60.2503 340.042 68.7805Z" fill="white"/>
<path d="M319.701 70.1807C319.701 72.1492 318.108 73.745 316.143 73.745C314.179 73.745 312.586 72.1492 312.586 70.1807C312.586 68.2122 314.179 66.6165 316.143 66.6165C318.108 66.6165 319.701 68.2122 319.701 70.1807Z" fill="#18171A"/>
<path d="M438.436 88.8778C440.065 87.9729 440.789 85.9822 440.065 84.1725L437.169 78.3813C436.265 76.7525 434.274 76.0286 432.464 76.7525C430.835 77.6574 430.111 79.6481 430.835 81.4579L433.731 87.2491C434.636 89.0588 436.807 89.7827 438.436 88.8778Z" fill="#6851FF"/>
<path d="M435.906 90.6857C437.716 91.2287 439.707 90.3238 440.25 88.514L443.145 79.8273C443.688 78.0175 442.783 76.0268 440.974 75.4839C439.164 74.9409 437.173 75.8458 436.63 77.6556L433.735 86.3424C433.192 88.1521 434.097 90.1428 435.906 90.6857Z" fill="#6851FF"/>
<path d="M389.027 100.099L389.208 96.479L389.57 81.8201L398.257 83.4488L407.668 92.8595C407.668 86.5254 410.201 80.1913 416.535 80.1913H417.44C417.44 80.0103 417.621 79.8294 417.802 79.6484L419.612 76.7528C420.517 75.124 422.689 74.5811 424.317 75.486C425.946 76.3908 426.489 78.5625 425.584 80.1913L425.403 80.3723L436.081 80.5533C438.976 80.5533 441.329 82.9059 441.329 85.9825C441.329 88.8781 439.157 91.0498 436.262 91.2307L430.29 91.4117C426.308 91.5927 426.851 93.5834 424.86 97.0219L422.146 107.338C420.698 112.948 415.45 116.748 409.658 116.567L388.484 112.224L389.027 100.099Z" fill="#6851FF"/>
<path d="M426.855 85.9821C430.753 85.9821 433.913 85.415 433.913 84.7153C433.913 84.0157 430.753 83.4485 426.855 83.4485C422.957 83.4485 419.797 84.0157 419.797 84.7153C419.797 85.415 422.957 85.9821 426.855 85.9821Z" fill="#3512B2"/>
<rect width="3.98741" height="19.7842" transform="matrix(-0.707107 0.707107 0.707107 0.707107 183.531 80)" fill="url(#paint10_linear_8929_81697)"/>
<path d="M193.289 86.9404L187.65 92.5795L196.813 101.743C198.371 103.3 200.895 103.3 202.453 101.743C204.01 100.186 204.01 97.6611 202.453 96.1039L193.289 86.9404Z" fill="url(#paint11_linear_8929_81697)"/>
<g filter="url(#filter8_d_8929_81697)">
<path fill-rule="evenodd" clip-rule="evenodd" d="M205.087 84.6022C210.147 89.663 210.147 97.8683 205.087 102.929L204.925 103.091C204.625 103.391 204.138 103.391 203.838 103.091L201.562 100.814C200.784 100.036 200.784 98.7735 201.562 97.9949C201.951 97.6056 201.951 96.9745 201.562 96.5852C201.173 96.1959 200.542 96.1959 200.152 96.5852C199.374 97.3637 198.111 97.3637 197.333 96.5852C196.554 95.8066 196.554 94.5442 197.333 93.7656C197.722 93.3763 197.722 92.7452 197.333 92.3559C196.944 91.9666 196.312 91.9666 195.923 92.3559C195.144 93.1345 193.882 93.1345 193.104 92.3559C192.325 91.5773 192.325 90.3149 193.104 89.5363C193.493 89.147 193.493 88.5159 193.104 88.1266C192.714 87.7373 192.083 87.7373 191.694 88.1266C190.915 88.9052 189.653 88.9052 188.874 88.1266L186.598 85.8503C186.298 85.5502 186.298 85.0638 186.598 84.7638L186.76 84.6022C191.82 79.5413 200.026 79.5413 205.087 84.6022Z" fill="url(#paint12_linear_8929_81697)"/>
</g>
<g filter="url(#filter9_df_8929_81697)">
<path fill-rule="evenodd" clip-rule="evenodd" d="M185.782 71.9426C183.422 60.5697 173.886 51.8252 162.12 50.6571C164.075 49.9267 166.191 49.5273 168.4 49.5273C178.31 49.5273 186.344 57.5609 186.344 67.4707C186.344 69.0147 186.149 70.5131 185.782 71.9426Z" fill="url(#paint13_linear_8929_81697)"/>
</g>
<path fill-rule="evenodd" clip-rule="evenodd" d="M168.397 85.4093C158.487 85.4093 150.454 77.3758 150.454 67.4659C150.454 57.5561 158.487 49.5226 168.397 49.5226C178.307 49.5226 186.341 57.5561 186.341 67.4659C186.341 77.3758 178.307 85.4093 168.397 85.4093ZM168.397 89.3967C156.285 89.3967 146.467 79.578 146.467 67.4659C146.467 55.3539 156.285 45.5352 168.397 45.5352C180.509 45.5352 190.328 55.3539 190.328 67.4659C190.328 79.578 180.509 89.3967 168.397 89.3967Z" fill="url(#paint14_linear_8929_81697)"/>
<rect x="204.594" y="61.3196" width="47.842" height="63.2547" stroke="url(#paint15_linear_8929_81697)" stroke-width="2.03922" stroke-dasharray="4.08 4.08"/>
<ellipse cx="204.599" cy="61.3184" rx="2.46608" ry="2.29184" fill="#A36B14"/>
<ellipse cx="251.95" cy="61.3184" rx="2.46608" ry="2.29184" fill="#A36B14"/>
<ellipse cx="204.599" cy="124.112" rx="2.46608" ry="2.29184" fill="#A36B14"/>
<ellipse cx="251.95" cy="124.112" rx="2.46608" ry="2.29184" fill="#A36B14"/>
<path d="M251.034 93.762L228.89 63.1633L206.344 93.762L228.89 123.958L251.034 93.762Z" fill="url(#paint16_angular_8929_81697)"/>
<path d="M251.034 93.7634L228.89 102.317L206.344 93.7634L228.89 123.959L251.034 93.7634Z" fill="url(#paint17_angular_8929_81697)"/>
<path d="M207.432 121.453C207.525 122.008 208.05 122.383 208.606 122.29L217.656 120.775C218.212 120.682 218.587 120.157 218.494 119.601C218.401 119.046 217.875 118.671 217.32 118.764L209.275 120.11L207.928 112.066C207.835 111.51 207.31 111.135 206.754 111.228C206.199 111.321 205.824 111.847 205.917 112.402L207.432 121.453ZM250.34 63.7755C250.247 63.2201 249.722 62.8453 249.166 62.9382L240.116 64.4531C239.561 64.5461 239.186 65.0717 239.279 65.6271C239.372 66.1825 239.897 66.5573 240.453 66.4644L248.498 65.1178L249.844 73.1627C249.937 73.7181 250.463 74.093 251.018 74C251.573 73.9071 251.948 73.3815 251.855 72.8261L250.34 63.7755ZM209.268 121.876L250.165 64.5359L248.505 63.3518L207.607 120.692L209.268 121.876Z" fill="#8A5A03"/>
<g filter="url(#filter10_f_8929_81697)">
<path d="M248.3 114.68C250.926 118.141 248.462 123.113 244.118 123.113C239.9 123.113 234.711 123.113 229.102 123.113C223.492 123.113 218.304 123.113 214.086 123.113C209.741 123.113 207.277 118.141 209.903 114.68L202.961 89.3828L222.702 97.8157L229.102 89.3834L235.501 97.8157L255.242 89.3828L248.3 114.68Z" fill="url(#paint18_linear_8929_81697)" fill-opacity="0.7" style="mix-blend-mode:hard-light"/>
</g>
<path fill-rule="evenodd" clip-rule="evenodd" d="M126.651 25.896L134.377 21.6036C135.901 20.7571 135.822 18.5402 134.243 17.8037L129.165 15.4365L132.601 9.57534C132.675 9.44907 132.739 9.31761 132.795 9.18201C133.494 7.45958 131.554 5.86393 129.999 6.88337L119.675 13.6527C117.908 14.8113 116.561 16.5086 115.835 18.4929L103.145 53.1594C101.722 57.045 98.8818 60.2483 95.1943 62.1255L66.2198 76.8759C60.839 79.6152 60.196 87.0479 65.0263 90.6706L91.6559 110.642L123.99 71.1131C126.49 68.056 127.802 64.1984 127.683 60.2506L126.651 25.896Z" fill="url(#paint19_linear_8929_81697)"/>
<defs>
<filter id="filter0_f_8929_81697" x="47.0462" y="136.691" width="411.33" height="30.1838" filterUnits="userSpaceOnUse" color-interpolation-filters="sRGB">
<feFlood flood-opacity="0" result="BackgroundImageFix"/>
<feBlend mode="normal" in="SourceGraphic" in2="BackgroundImageFix" result="shape"/>
<feGaussianBlur stdDeviation="5.43785" result="effect1_foregroundBlur_8929_81697"/>
</filter>
<filter id="filter1_f_8929_81697" x="180.281" y="136.691" width="107.763" height="30.1838" filterUnits="userSpaceOnUse" color-interpolation-filters="sRGB">
<feFlood flood-opacity="0" result="BackgroundImageFix"/>
<feBlend mode="normal" in="SourceGraphic" in2="BackgroundImageFix" result="shape"/>
<feGaussianBlur stdDeviation="5.43785" result="effect1_foregroundBlur_8929_81697"/>
</filter>
<filter id="filter2_f_8929_81697" x="0.671167" y="136.691" width="209.794" height="30.1838" filterUnits="userSpaceOnUse" color-interpolation-filters="sRGB">
<feFlood flood-opacity="0" result="BackgroundImageFix"/>
<feBlend mode="normal" in="SourceGraphic" in2="BackgroundImageFix" result="shape"/>
<feGaussianBlur stdDeviation="5.43785" result="effect1_foregroundBlur_8929_81697"/>
</filter>
<filter id="filter3_f_8929_81697" x="263.765" y="136.691" width="155.828" height="30.1838" filterUnits="userSpaceOnUse" color-interpolation-filters="sRGB">
<feFlood flood-opacity="0" result="BackgroundImageFix"/>
<feBlend mode="normal" in="SourceGraphic" in2="BackgroundImageFix" result="shape"/>
<feGaussianBlur stdDeviation="5.43785" result="effect1_foregroundBlur_8929_81697"/>
</filter>
<filter id="filter4_f_8929_81697" x="94.0141" y="52.9687" width="104.028" height="51.3453" filterUnits="userSpaceOnUse" color-interpolation-filters="sRGB">
<feFlood flood-opacity="0" result="BackgroundImageFix"/>
<feBlend mode="normal" in="SourceGraphic" in2="BackgroundImageFix" result="shape"/>
<feGaussianBlur stdDeviation="10.1961" result="effect1_foregroundBlur_8929_81697"/>
</filter>
<filter id="filter5_i_8929_81697" x="113.834" y="77.073" width="63.5605" height="39.8632" filterUnits="userSpaceOnUse" color-interpolation-filters="sRGB">
<feFlood flood-opacity="0" result="BackgroundImageFix"/>
<feBlend mode="normal" in="SourceGraphic" in2="BackgroundImageFix" result="shape"/>
<feColorMatrix in="SourceAlpha" type="matrix" values="0 0 0 0 0 0 0 0 0 0 0 0 0 0 0 0 0 0 127 0" result="hardAlpha"/>
<feOffset dy="8.15686"/>
<feGaussianBlur stdDeviation="8.15686"/>
<feComposite in2="hardAlpha" operator="arithmetic" k2="-1" k3="1"/>
<feColorMatrix type="matrix" values="0 0 0 0 0 0 0 0 0 0 0 0 0 0 0 0 0 0 0.6 0"/>
<feBlend mode="normal" in2="shape" result="effect1_innerShadow_8929_81697"/>
</filter>
<filter id="filter6_f_8929_81697" x="263.516" y="52.9692" width="94.7511" height="51.7465" filterUnits="userSpaceOnUse" color-interpolation-filters="sRGB">
<feFlood flood-opacity="0" result="BackgroundImageFix"/>
<feBlend mode="normal" in="SourceGraphic" in2="BackgroundImageFix" result="shape"/>
<feGaussianBlur stdDeviation="10.1961" result="effect1_foregroundBlur_8929_81697"/>
</filter>
<filter id="filter7_i_8929_81697" x="278.705" y="77.4636" width="54.2578" height="39.472" filterUnits="userSpaceOnUse" color-interpolation-filters="sRGB">
<feFlood flood-opacity="0" result="BackgroundImageFix"/>
<feBlend mode="normal" in="SourceGraphic" in2="BackgroundImageFix" result="shape"/>
<feColorMatrix in="SourceAlpha" type="matrix" values="0 0 0 0 0 0 0 0 0 0 0 0 0 0 0 0 0 0 127 0" result="hardAlpha"/>
<feOffset dy="8.15686"/>
<feGaussianBlur stdDeviation="8.15686"/>
<feComposite in2="hardAlpha" operator="arithmetic" k2="-1" k3="1"/>
<feColorMatrix type="matrix" values="0 0 0 0 0 0 0 0 0 0 0 0 0 0 0 0 0 0 0.6 0"/>
<feBlend mode="normal" in2="shape" result="effect1_innerShadow_8929_81697"/>
</filter>
<filter id="filter8_d_8929_81697" x="184.334" y="80.8066" width="24.549" height="24.5482" filterUnits="userSpaceOnUse" color-interpolation-filters="sRGB">
<feFlood flood-opacity="0" result="BackgroundImageFix"/>
<feColorMatrix in="SourceAlpha" type="matrix" values="0 0 0 0 0 0 0 0 0 0 0 0 0 0 0 0 0 0 127 0" result="hardAlpha"/>
<feOffset dx="-1.01961" dy="1.01961"/>
<feGaussianBlur stdDeviation="0.509804"/>
<feComposite in2="hardAlpha" operator="out"/>
<feColorMatrix type="matrix" values="0 0 0 0 0 0 0 0 0 0 0 0 0 0 0 0 0 0 0.5 0"/>
<feBlend mode="normal" in2="BackgroundImageFix" result="effect1_dropShadow_8929_81697"/>
<feBlend mode="normal" in="SourceGraphic" in2="effect1_dropShadow_8929_81697" result="shape"/>
</filter>
<filter id="filter9_df_8929_81697" x="156.003" y="43.4097" width="36.4579" height="34.6506" filterUnits="userSpaceOnUse" color-interpolation-filters="sRGB">
<feFlood flood-opacity="0" result="BackgroundImageFix"/>
<feColorMatrix in="SourceAlpha" type="matrix" values="0 0 0 0 0 0 0 0 0 0 0 0 0 0 0 0 0 0 127 0" result="hardAlpha"/>
<feOffset dx="2.03922" dy="2.03922"/>
<feGaussianBlur stdDeviation="1.01961"/>
<feColorMatrix type="matrix" values="0 0 0 0 0.207843 0 0 0 0 0.0705882 0 0 0 0 0.698039 0 0 0 0.5 0"/>
<feBlend mode="normal" in2="BackgroundImageFix" result="effect1_dropShadow_8929_81697"/>
<feBlend mode="normal" in="SourceGraphic" in2="effect1_dropShadow_8929_81697" result="shape"/>
<feGaussianBlur stdDeviation="3.05882" result="effect2_foregroundBlur_8929_81697"/>
</filter>
<filter id="filter10_f_8929_81697" x="178.895" y="65.3167" width="100.413" height="81.8619" filterUnits="userSpaceOnUse" color-interpolation-filters="sRGB">
<feFlood flood-opacity="0" result="BackgroundImageFix"/>
<feBlend mode="normal" in="SourceGraphic" in2="BackgroundImageFix" result="shape"/>
<feGaussianBlur stdDeviation="12.033" result="effect1_foregroundBlur_8929_81697"/>
</filter>
<linearGradient id="paint0_linear_8929_81697" x1="-19.2919" y1="152.166" x2="496.636" y2="152.166" gradientUnits="userSpaceOnUse">
<stop stop-color="#3512B2" stop-opacity="0.8"/>
<stop offset="0.493579" stop-color="#3512B2"/>
<stop offset="1" stop-color="#3512B2" stop-opacity="0.8"/>
</linearGradient>
<linearGradient id="paint1_linear_8929_81697" x1="198.324" y1="87.6973" x2="165.016" y2="108.778" gradientUnits="userSpaceOnUse">
<stop stop-color="#6851FF"/>
<stop offset="1" stop-color="#522FD4"/>
</linearGradient>
<linearGradient id="paint2_linear_8929_81697" x1="174.109" y1="152.166" x2="288.015" y2="152.166" gradientUnits="userSpaceOnUse">
<stop stop-color="#3E2903" stop-opacity="0"/>
<stop offset="0.550872" stop-color="#8A5A03"/>
<stop offset="1" stop-color="#342201" stop-opacity="0"/>
</linearGradient>
<linearGradient id="paint3_linear_8929_81697" x1="-25.723" y1="152.166" x2="223.307" y2="152.166" gradientUnits="userSpaceOnUse">
<stop stop-color="#3E2903" stop-opacity="0"/>
<stop offset="0.550872" stop-color="#3512B2"/>
<stop offset="1" stop-color="#342201" stop-opacity="0"/>
</linearGradient>
<linearGradient id="paint4_linear_8929_81697" x1="248.067" y1="152.166" x2="425.627" y2="152.166" gradientUnits="userSpaceOnUse">
<stop stop-color="#3E2903" stop-opacity="0"/>
<stop offset="0.550872" stop-color="#3512B2"/>
<stop offset="1" stop-color="#342201" stop-opacity="0"/>
</linearGradient>
<radialGradient id="paint5_radial_8929_81697" cx="0" cy="0" r="1" gradientUnits="userSpaceOnUse" gradientTransform="translate(88.6959 22.3461) rotate(56.984) scale(129.224 112.728)">
<stop stop-color="#BDB2FF"/>
<stop offset="1" stop-color="#6851FF"/>
</radialGradient>
<linearGradient id="paint6_linear_8929_81697" x1="146.028" y1="85.6885" x2="146.028" y2="66.9627" gradientUnits="userSpaceOnUse">
<stop stop-color="white"/>
<stop offset="1" stop-color="white" stop-opacity="0"/>
</linearGradient>
<linearGradient id="paint7_linear_8929_81697" x1="262.724" y1="50.0228" x2="282.234" y2="108.36" gradientUnits="userSpaceOnUse">
<stop stop-color="#A799FF"/>
<stop offset="1" stop-color="#7B66FF"/>
</linearGradient>
<radialGradient id="paint8_radial_8929_81697" cx="0" cy="0" r="1" gradientUnits="userSpaceOnUse" gradientTransform="translate(302.332 21.4753) rotate(67.2637) scale(113.318 98.8526)">
<stop stop-color="#BDB2FF"/>
<stop offset="1" stop-color="#6851FF"/>
</radialGradient>
<linearGradient id="paint9_linear_8929_81697" x1="310.891" y1="86.1572" x2="310.891" y2="66.7201" gradientUnits="userSpaceOnUse">
<stop stop-color="white"/>
<stop offset="1" stop-color="white" stop-opacity="0"/>
</linearGradient>
<linearGradient id="paint10_linear_8929_81697" x1="3.98741" y1="5.27578" x2="-0.498427" y2="5.27578" gradientUnits="userSpaceOnUse">
<stop stop-color="#77767A"/>
<stop offset="0.0001" stop-color="#77767A"/>
<stop offset="1" stop-color="white"/>
</linearGradient>
<linearGradient id="paint11_linear_8929_81697" x1="200.69" y1="92.227" x2="193.994" y2="98.9234" gradientUnits="userSpaceOnUse">
<stop stop-color="#BDB2FF"/>
<stop offset="1" stop-color="#3512B2"/>
</linearGradient>
<linearGradient id="paint12_linear_8929_81697" x1="209.266" y1="80.9214" x2="195.218" y2="94.4705" gradientUnits="userSpaceOnUse">
<stop stop-color="#BDB2FF"/>
<stop offset="1" stop-color="#6851FF"/>
</linearGradient>
<linearGradient id="paint13_linear_8929_81697" x1="177.372" y1="60.9459" x2="157.39" y2="80.1126" gradientUnits="userSpaceOnUse">
<stop stop-color="white"/>
<stop offset="1" stop-color="white" stop-opacity="0"/>
</linearGradient>
<linearGradient id="paint14_linear_8929_81697" x1="187.338" y1="43.5414" x2="165.905" y2="78.4313" gradientUnits="userSpaceOnUse">
<stop stop-color="white"/>
<stop offset="1" stop-color="#BDB2FF"/>
</linearGradient>
<linearGradient id="paint15_linear_8929_81697" x1="228.515" y1="61.3196" x2="228.515" y2="124.574" gradientUnits="userSpaceOnUse">
<stop stop-color="#FFD594"/>
<stop offset="1" stop-color="#DBA550"/>
</linearGradient>
<radialGradient id="paint16_angular_8929_81697" cx="0" cy="0" r="1" gradientUnits="userSpaceOnUse" gradientTransform="translate(229.11 63.2428) rotate(90.3972) scale(60.7166 44.6328)">
<stop stop-color="#FCF4E5"/>
<stop offset="0.451912" stop-color="#FFD594"/>
<stop offset="1" stop-color="#DBA550"/>
</radialGradient>
<radialGradient id="paint17_angular_8929_81697" cx="0" cy="0" r="1" gradientUnits="userSpaceOnUse" gradientTransform="translate(228.865 101.167) rotate(90) scale(29.161 31.595)">
<stop stop-color="#DBA550"/>
<stop offset="1" stop-color="#A36B14"/>
</radialGradient>
<linearGradient id="paint18_linear_8929_81697" x1="229.1" y1="92.2818" x2="229.1" y2="123.112" gradientUnits="userSpaceOnUse">
<stop stop-color="#FF75E1" stop-opacity="0"/>
<stop offset="0.811293" stop-color="#FFC700"/>
</linearGradient>
<linearGradient id="paint19_linear_8929_81697" x1="110.208" y1="68.4798" x2="80.6941" y2="89.1392" gradientUnits="userSpaceOnUse">
<stop stop-color="#8471FF"/>
<stop offset="1" stop-color="#8774FF" stop-opacity="0"/>
</linearGradient>
</defs>
</svg>
