<svg width="65" height="64" viewBox="0 0 65 64" fill="none" xmlns="http://www.w3.org/2000/svg">
<rect x="0.638672" y="0.122299" width="63.7416" height="63.7416" rx="31.8708" fill="#18171A"/>
<path d="M45.5142 27.012C44.7065 27.8197 43.6969 28.3581 42.6199 28.5601C44.1007 32.5313 43.1247 37.0746 40.0958 40.1035C38.0093 42.1901 35.1823 43.3007 32.3217 43.3007C31.0428 43.3007 29.764 43.0651 28.5187 42.6276C28.3168 43.7045 27.812 44.7142 26.9706 45.5219C24.7831 47.7094 21.2157 47.7094 18.9946 45.5219C16.807 43.3343 16.807 39.767 18.9946 37.5458C19.8023 36.7381 20.8119 36.1996 21.8888 35.9977C20.3744 31.9928 21.3504 27.4158 24.3793 24.3869C27.4081 21.358 31.9851 20.3821 35.99 21.8965C36.1919 20.8532 36.6968 19.8436 37.5381 19.0359C39.7256 16.8483 43.293 16.8483 45.5142 19.0359C47.7017 21.2571 47.7017 24.8244 45.5142 27.012ZM32.2544 7.42512C18.5234 7.42512 7.38379 18.5647 7.38379 32.2957C7.38379 46.0267 18.5234 57.1663 32.2544 57.1663C45.9854 57.1663 57.125 46.0267 57.125 32.2957C57.125 18.5647 45.9854 7.42512 32.2544 7.42512ZM35.216 35.2236C33.6005 36.839 31.0092 36.839 29.3938 35.2236C27.7783 33.6082 27.7783 31.0168 29.3938 29.4014C31.0092 27.786 33.6005 27.786 35.216 29.4014C36.7977 31.0168 36.7977 33.6082 35.216 35.2236ZM38.8843 20.3821C38.0429 21.2234 37.6391 22.435 37.841 23.6129C37.9083 24.0167 37.8747 24.3869 37.7064 24.7571C37.4708 25.2283 37.1006 25.5648 36.6294 25.7668C36.1583 25.935 35.6535 25.935 35.1487 25.6995C32.4563 24.4542 29.2255 25.0264 27.1389 27.1129C25.0523 29.1995 24.4802 32.4303 25.7254 35.1227C25.961 35.5938 25.961 36.1323 25.7927 36.6035C25.6245 37.041 25.2879 37.4448 24.8168 37.6468C24.5475 37.7814 24.2783 37.815 24.0091 37.815C23.8744 37.815 23.7398 37.7814 23.6389 37.7814C22.3936 37.6131 21.2494 37.9833 20.408 38.8247C19.7013 39.5314 19.3311 40.4737 19.3311 41.4497C19.3311 42.4593 19.7013 43.368 20.408 44.0747C21.8552 45.5219 24.211 45.5219 25.6581 44.0747C26.4995 43.2334 26.9033 42.0218 26.7014 40.8439C26.7014 40.7766 26.7014 40.7093 26.7014 40.642C26.6678 40.3391 26.7351 40.0026 26.8697 39.6997C27.1053 39.2285 27.4755 38.892 27.9466 38.7237C28.4178 38.5554 28.9226 38.5554 29.4274 38.791C32.1198 40.0362 35.3506 39.4641 37.4372 37.3775C39.5237 35.2909 40.1295 32.0601 38.8506 29.3678C38.6151 28.8966 38.6151 28.3581 38.7833 27.9206C38.9516 27.4495 39.2881 27.0456 39.793 26.8437C40.1295 26.6754 40.4997 26.6418 40.8362 26.6754C40.9036 26.6754 40.9372 26.6754 41.0045 26.6754C42.1824 26.8437 43.3267 26.4735 44.168 25.6321C45.6152 24.185 45.6152 21.8292 44.168 20.3821C42.6872 18.9349 40.3314 18.9349 38.8843 20.3821Z" fill="white"/>
</svg>
