<svg width="80" height="80" viewBox="0 0 80 80" fill="none" xmlns="http://www.w3.org/2000/svg">
<g clip-path="url(#clip0_15628_26674)">
<path d="M4.09533 49.1265L1.64771 51.5682L4.97139 52.6604L4.09533 49.1265Z" fill="#EA0029"/>
<path d="M5.30783 53.8848L3.42334 56.5615L6.13327 56.7447L5.30783 53.8848Z" fill="#EA0029"/>
<path d="M2.85357 44.5879L0.362549 46.7665L3.77455 48.0341L2.85357 44.5879Z" fill="#EA0029"/>
<path d="M8.02448 56.8936L2.43864 42.9076L0 41.6394L3.71026 39.2961L0.130836 36.5503L4.07798 34.6092L0.745388 31.6174L5.09547 30.2537L2.12322 26.8764L6.52479 25.9048L4.13124 22.1885L8.52464 21.7426L6.55255 17.6677L11.1731 17.7892L9.83933 13.7573L14.3652 14.1338L13.419 9.99696L17.662 11.2561L17.3383 6.82232L21.557 8.61448L21.8642 4.34712L25.679 6.72552L26.3711 2.3352L29.8696 5.08096L31.2042 0.9796L34.3089 4.13616L36.0537 0.27048L38.8248 3.65552L41.0267 0L43.3499 3.70016L45.9462 0.38472L47.7181 4.33752L50.9271 1.25912L52.1644 5.54552L55.6631 2.92168L56.4263 7.25848L60.1267 5.16816L60.2755 9.66424L64.3453 7.91552L63.9758 12.4971L68.3799 11.3602L67.2219 15.5942L71.5018 15.1828L69.9929 19.1706L74.5622 19.3466L72.4049 23.1341L76.7287 23.4646L74.0441 26.9294L78.3255 28.1877L75.4121 31.3451L79.3765 33.2178L76.1231 35.9809L79.8595 38.4387L76.3862 40.4594L79.8505 43.2408L75.9834 45.0511L79.1925 48.3753L75.0452 49.6958L77.6931 53.1857L73.5014 54.1377L75.9483 58.2493L71.2998 58.2403L73.1859 62.2549L68.7829 62.1066L70.142 66.2947L65.8989 65.369L66.8452 69.7506L62.477 68.4905L62.7941 72.6967L58.7408 71.0357L58.6534 75.5922L54.9097 73.2654L54.0931 77.4026L50.6028 74.8231L49.216 78.9243L45.9641 75.8549L44.3755 79.7466L41.4376 76.3789L39.245 80L36.8684 76.2396L34.1855 79.5713L32.4227 75.435L29.3353 78.6527L28.0113 74.3252L24.4335 77.157L23.8451 72.6886L20.215 74.9544L20.1889 70.5111L15.9963 72.1997L16.5309 67.8084L12.0575 68.9193L13.2522 64.7645L8.84904 65.3071L10.3134 61.1953L5.82369 60.9769L8.02448 56.8936Z" fill="#EA0029"/>
<path d="M70.3338 73.4395C70.3257 71.2178 72.1325 69.5823 74.2638 69.5739C76.3773 69.5739 78.1825 71.2098 78.1825 73.4395C78.1923 75.6781 76.3854 77.3131 74.2721 77.3131C72.1416 77.3131 70.3338 75.6781 70.3338 73.4395ZM74.2721 76.6668C76.0259 76.6668 77.411 75.2938 77.411 73.4395C77.411 71.5943 76.0176 70.2211 74.2639 70.2211C72.4913 70.2211 71.1055 71.6027 71.1055 73.4395C71.1054 75.3024 72.4913 76.6668 74.2721 76.6668ZM73.4474 75.6781H72.7724L72.7634 71.2177H74.4649C75.5265 71.2177 76.052 71.5942 76.052 72.4865C76.052 73.282 75.5519 73.6318 74.8956 73.7099L76.1745 75.6781H75.4128L74.2294 73.7461H73.4474V75.6781ZM74.254 73.1779C74.8334 73.1779 75.3516 73.1247 75.3516 72.4338C75.3427 71.8918 74.8334 71.7875 74.3685 71.7875H73.4475V73.1779H74.254Z" fill="#EA0029"/>
<path d="M2.02417 41.5958L5.80365 40.581L13.3369 51.6798L13.3885 51.6611L14.2138 38.3153L17.9493 37.3187L22.1589 52.948L19.6075 53.6384L16.3615 41.5608L16.3091 41.5781L15.2925 54.7923L13.0917 55.3792L5.58394 44.463H5.54054L8.784 56.5341L6.22464 57.2154L2.02417 41.5958Z" fill="white"/>
<path d="M24.7302 35.4986L27.5988 34.7479L37.7194 48.7765L34.8427 49.5452L32.2823 45.8036L26.1522 47.4383L25.8171 51.9769L23.0469 52.712L24.7302 35.4986ZM26.3272 45.1635L31.018 43.9046L26.8967 37.8093H26.8787L26.8353 37.8262L26.3272 45.1635Z" fill="white"/>
<path d="M29.5813 34.2044L42.0161 30.8629L42.6568 33.2249L37.7713 34.5378L41.35 47.7956L38.6572 48.5216L35.0795 35.2622L30.221 36.5664L29.5813 34.2044Z" fill="white"/>
<path d="M39.7798 31.4699L52.2245 28.1464L52.8554 30.5072L47.971 31.8105L51.5496 45.0688L48.8558 45.7869L45.287 32.5366L40.4286 33.8388L39.7798 31.4699Z" fill="white"/>
<path d="M53.2244 27.8831L63.9081 24.9965L64.5471 27.3591L56.5391 29.518L57.6455 33.6128L65.0292 31.6265L65.6257 33.8572L58.2504 35.8418L59.4778 40.4073L67.6248 38.2128L68.2744 40.5828L57.4339 43.4947L53.2244 27.8831Z" fill="white"/>
<path d="M65.2844 24.6377L67.9683 23.9203L71.5451 37.1789L79.3513 35.0886L80.0002 37.4501L69.4851 40.2661L65.2844 24.6377Z" fill="white"/>
</g>
<defs>
<clipPath id="clip0_15628_26674">
<rect width="80" height="80" fill="white"/>
</clipPath>
</defs>
</svg>
