<svg width="24" height="24" viewBox="0 0 24 24" fill="none" xmlns="http://www.w3.org/2000/svg">
<path d="M5.44738 12.3646C4.8097 12.3646 4.35422 12.8659 4.35422 13.4584C4.35422 14.0964 4.8097 14.5521 5.44738 14.5521C6.03951 14.5521 6.54054 14.0964 6.54054 13.4584C6.54054 12.8659 6.03951 12.3646 5.44738 12.3646ZM6.90492 7.26046C6.26725 7.26046 5.81176 7.76176 5.81176 8.35421C5.81176 8.99223 6.26725 9.44796 6.90492 9.44796C7.49705 9.44796 7.99808 8.99223 7.99808 8.35421C7.99808 7.76176 7.49705 7.26046 6.90492 7.26046ZM12.0063 0.333374C11.232 0.333374 10.4121 0.42452 9.63782 0.561239C5.08299 1.4727 1.43913 5.11853 0.573715 9.63025C-1.02047 17.6055 5.62957 23.6667 11.232 23.6667C11.5964 23.6667 12.0063 23.6667 12.3707 23.6211C14.2382 23.3021 15.1492 21.1146 14.2837 19.4284C13.2361 17.3321 14.7392 14.9167 17.0622 14.9167H20.706C22.3458 14.9167 23.6667 13.5951 23.6667 11.9545C23.6211 5.52869 18.4286 0.333374 12.0063 0.333374ZM20.706 13.4584H17.0622C15.468 13.4584 14.0104 14.2787 13.145 15.6459C12.3252 17.0131 12.2796 18.6537 13.0084 20.0664C13.1906 20.5222 13.1906 21.0691 12.9628 21.5248C12.8717 21.7071 12.644 22.0717 12.143 22.1628C11.8241 22.2084 11.5508 22.2539 11.232 22.2539C8.72685 22.2539 6.03951 20.7956 4.17203 18.517C2.1679 16.056 1.39358 13.0026 1.98571 9.90369C2.76003 5.98442 5.94841 2.79431 9.91111 2.01957C10.5943 1.88285 11.3231 1.83728 12.0063 1.83728C17.6088 1.83728 22.1636 6.349 22.2091 11.9545C22.2091 12.7748 21.5259 13.4584 20.706 13.4584ZM17.1077 6.53129C16.4701 6.53129 16.0146 7.03259 16.0146 7.62504C16.0146 8.26306 16.4701 8.71879 17.1077 8.71879C17.6999 8.71879 18.2009 8.26306 18.2009 7.62504C18.2009 7.03259 17.6999 6.53129 17.1077 6.53129ZM11.2776 4.34379C10.6399 4.34379 10.1844 4.84509 10.1844 5.43754C10.1844 6.07556 10.6399 6.53129 11.2776 6.53129C11.8697 6.53129 12.3707 6.07556 12.3707 5.43754C12.3707 4.84509 11.8697 4.34379 11.2776 4.34379Z" fill="#6851FF"/>
</svg>
