<svg width="24" height="24" viewBox="0 0 24 24" fill="none" xmlns="http://www.w3.org/2000/svg">
<path d="M21.5054 0.543141L1.07111 12.2941C0.0220318 12.8862 0.113256 14.4348 1.20795 14.8903L7.63926 17.532V22.1777C7.63926 23.5897 9.32691 24.1818 10.1935 23.1342L12.9759 19.7638L18.723 22.1322C19.5897 22.4965 20.5931 21.95 20.73 20.9935L23.6491 2.00063C23.8316 0.81642 22.5544 -0.0945095 21.5054 0.543141ZM9.09885 22.1777V18.1696L11.5619 19.1716L9.09885 22.1777ZM19.316 20.8113L9.87426 16.8943L18.9967 6.1909C19.2248 5.91762 18.8599 5.55325 18.5862 5.78098L6.95508 15.7101L1.80091 13.5694L22.2352 1.7729L19.316 20.8113Z" fill="#6851FF"/>
</svg>
