<svg width="20" height="22" viewBox="0 0 20 22" fill="none" xmlns="http://www.w3.org/2000/svg">
<path d="M15.3333 13.625C14.125 13.625 13.0417 14.1582 12.3333 14.9785L8.33332 12.5176C8.74999 11.5742 8.74999 10.4668 8.33332 9.52344L12.3333 7.0625C13.0417 7.88281 14.125 8.375 15.3333 8.375C17.5417 8.375 19.3333 6.61133 19.3333 4.4375C19.3333 2.26367 17.5417 0.5 15.3333 0.5C13.125 0.5 11.3333 2.26367 11.3333 4.4375C11.3333 4.9707 11.4167 5.50391 11.625 5.95508L7.62499 8.41602C6.91666 7.5957 5.83332 7.0625 4.66666 7.0625C2.45832 7.0625 0.666656 8.82617 0.666656 11C0.666656 13.1738 2.45832 14.9375 4.66666 14.9375C5.83332 14.9375 6.91666 14.4453 7.62499 13.625L11.625 16.0859C11.4167 16.5371 11.3333 17.0293 11.3333 17.5625C11.3333 19.7363 13.125 21.5 15.3333 21.5C17.5417 21.5 19.3333 19.7363 19.3333 17.5625C19.3333 15.3887 17.5417 13.625 15.3333 13.625ZM15.3333 1.8125C16.7917 1.8125 18 3.00195 18 4.4375C18 5.91406 16.7917 7.0625 15.3333 7.0625C13.8333 7.0625 12.6667 5.91406 12.6667 4.4375C12.6667 3.00195 13.8333 1.8125 15.3333 1.8125ZM4.66666 13.625C3.16666 13.625 1.99999 12.4766 1.99999 11C1.99999 9.56445 3.16666 8.375 4.66666 8.375C6.12499 8.375 7.33332 9.56445 7.33332 11C7.33332 12.4766 6.12499 13.625 4.66666 13.625ZM15.3333 20.1875C13.8333 20.1875 12.6667 19.0391 12.6667 17.5625C12.6667 16.127 13.8333 14.9375 15.3333 14.9375C16.7917 14.9375 18 16.127 18 17.5625C18 19.0391 16.7917 20.1875 15.3333 20.1875Z" fill="#6851FF"/>
</svg>
