<svg width="22" height="24" viewBox="0 0 22 24" fill="none" xmlns="http://www.w3.org/2000/svg">
<path d="M11 19.474C11.5156 19.474 11.9375 19.0638 11.9375 18.5625V15.6459C11.9375 15.1446 11.5156 14.7344 11 14.7344C10.4844 14.7344 10.0625 15.1446 10.0625 15.6459V18.5625C10.0625 19.0638 10.4844 19.474 11 19.474ZM21.5 12.7292C21.5 11.5443 20.4688 10.5417 19.25 10.5417H18.5V7.71619C18.5 3.70577 15.125 0.378947 11 0.333374C6.875 0.333374 3.5 3.61462 3.5 7.62504V10.5417H2.75C1.48438 10.5417 0.5 11.5443 0.5 12.7292V21.4792C0.5 22.7097 1.48438 23.6667 2.75 23.6667H19.25C20.4688 23.6667 21.5 22.7097 21.5 21.4792V12.7292ZM5 10.5417V7.62504C5 4.43494 7.67188 1.79171 11 1.79171C14.2812 1.79171 17 4.43494 17 7.62504V10.5417H5ZM20 21.4792C20 21.8894 19.625 22.2084 19.25 22.2084H2.75C2.32812 22.2084 2 21.8894 2 21.4792V12.7292C2 12.3646 2.32812 12 2.75 12H19.25C19.625 12 20 12.3646 20 12.7292V21.4792Z" fill="#6851FF"/>
</svg>
