<svg width="26" height="12" viewBox="0 0 26 12" fill="none" xmlns="http://www.w3.org/2000/svg">
<path d="M25.9056 6C25.9056 7.16816 25.5592 8.31008 24.9102 9.28137C24.2612 10.2527 23.3388 11.0097 22.2596 11.4567C21.1804 11.9038 19.9928 12.0207 18.8471 11.7928C17.7014 11.5649 16.649 11.0024 15.823 10.1764C15.8136 10.167 15.8045 10.1573 15.7957 10.1474L9.23401 2.73811C8.59004 2.09951 7.77146 1.66581 6.88141 1.49168C5.99137 1.31754 5.06969 1.41075 4.23253 1.75956C3.39538 2.10838 2.6802 2.69719 2.17713 3.4518C1.67406 4.2064 1.40561 5.09303 1.40561 5.99995C1.40561 6.90687 1.67406 7.7935 2.17713 8.5481C2.6802 9.30271 3.39538 9.89152 4.23253 10.2403C5.06969 10.5892 5.99137 10.6824 6.88141 10.5082C7.77146 10.3341 8.59004 9.90039 9.23401 9.26179L10.1705 8.20446C10.2274 8.13922 10.2967 8.08589 10.3743 8.04755C10.452 8.0092 10.5364 7.9866 10.6228 7.98104C10.7092 7.97549 10.7959 7.98708 10.8778 8.01517C10.9597 8.04325 11.0352 8.08726 11.1 8.14467C11.1649 8.20208 11.2177 8.27175 11.2554 8.34966C11.2932 8.42757 11.3152 8.51219 11.3201 8.59863C11.325 8.68508 11.3128 8.77164 11.2841 8.85334C11.2554 8.93504 11.2109 9.01025 11.153 9.07465L10.203 10.1474C10.1941 10.1572 10.185 10.167 10.1756 10.1764C9.34961 11.0024 8.29722 11.5649 7.15152 11.7928C6.00583 12.0207 4.81828 11.9037 3.73906 11.4567C2.65983 11.0096 1.73741 10.2526 1.08843 9.28133C0.439442 8.31006 0.0930481 7.16815 0.0930481 6C0.0930481 4.83186 0.439442 3.68995 1.08843 2.71867C1.73741 1.7474 2.65983 0.990378 3.73906 0.543346C4.81828 0.0963138 6.00583 -0.0206538 7.15152 0.207234C8.29722 0.435122 9.34961 0.997632 10.1756 1.82363C10.185 1.83303 10.1942 1.84266 10.203 1.85261L16.7647 9.2619C17.4087 9.9005 18.2273 10.3342 19.1173 10.5083C20.0073 10.6825 20.929 10.5893 21.7662 10.2404C22.6033 9.89163 23.3185 9.30282 23.8216 8.54821C24.3246 7.79361 24.5931 6.90698 24.5931 6.00006C24.5931 5.09314 24.3246 4.20651 23.8216 3.4519C23.3185 2.6973 22.6033 2.10849 21.7662 1.75967C20.929 1.41086 20.0073 1.31765 19.1173 1.49179C18.2273 1.66592 17.4087 2.09962 16.7647 2.73822L15.8282 3.79555C15.7713 3.86079 15.702 3.91412 15.6244 3.95246C15.5468 3.9908 15.4623 4.01341 15.3759 4.01896C15.2895 4.02452 15.2028 4.01292 15.1209 3.98484C15.039 3.95676 14.9635 3.91275 14.8987 3.85534C14.8338 3.79793 14.781 3.72826 14.7433 3.65035C14.7055 3.57244 14.6835 3.48782 14.6786 3.40137C14.6737 3.31493 14.6859 3.22836 14.7146 3.14667C14.7433 3.06497 14.7878 2.98976 14.8457 2.92536L15.7957 1.85261C15.8046 1.84277 15.8137 1.83303 15.8231 1.82363C16.6491 0.997652 17.7015 0.43516 18.8472 0.207284C19.9929 -0.020593 21.1804 0.0963796 22.2596 0.543409C23.3388 0.990439 24.2612 1.74745 24.9102 2.71871C25.5592 3.68998 25.9056 4.83187 25.9056 6Z" fill="#6851FF"/>
</svg>
