<svg width="24" height="20" viewBox="0 0 24 20" fill="none" xmlns="http://www.w3.org/2000/svg">
<path d="M10.0313 10.2333L10.4323 9.80551C10.5417 9.68885 10.5417 9.4944 10.4323 9.37774L8.71876 7.51107L10.4323 5.68329C10.5417 5.56663 10.5417 5.37218 10.4323 5.25551L10.0313 4.82774C9.92189 4.71107 9.73959 4.71107 9.63022 4.82774L7.29689 7.31663C7.15105 7.43329 7.15105 7.62774 7.29689 7.7444L9.63022 10.2333C9.73959 10.35 9.92189 10.35 10.0313 10.2333ZM13.5313 9.80551L13.9323 10.2333C14.0417 10.35 14.224 10.35 14.3333 10.2333L16.6667 7.7444C16.8125 7.62774 16.8125 7.43329 16.6667 7.31663L14.3333 4.82774C14.224 4.71107 14.0417 4.71107 13.9323 4.82774L13.5313 5.25551C13.4219 5.37218 13.4219 5.56663 13.5313 5.68329L15.2448 7.51107L13.5313 9.37774C13.4583 9.41663 13.4583 9.4944 13.4583 9.57218C13.4583 9.64996 13.4583 9.72774 13.5313 9.80551ZM23.0833 13.7333H21.3333V3.15551C21.3333 1.7944 20.2761 0.666626 19 0.666626H5.00001C3.68751 0.666626 2.66668 1.7944 2.66668 3.15551V13.7333H0.916677C0.588552 13.7333 0.333344 14.0444 0.333344 14.3555V16.2222C0.333344 17.9722 1.60939 19.3333 3.25001 19.3333H20.75C22.3542 19.3333 23.6667 17.9722 23.6667 16.2222V14.3555C23.6667 14.0444 23.375 13.7333 23.0833 13.7333ZM3.83334 3.15551C3.83334 2.4944 4.34376 1.91107 5.00001 1.91107H19C19.6198 1.91107 20.1667 2.4944 20.1667 3.15551V13.7333H14.5886C14.4427 13.7333 14.3333 13.8888 14.2969 14.0444C14.1511 14.5888 13.7136 14.9777 13.1667 14.9777H10.8333C10.25 14.9777 9.81251 14.5888 9.66668 14.0444C9.63022 13.8888 9.52084 13.7333 9.37501 13.7333H3.83334V3.15551ZM22.5 16.2222C22.5 17.2722 21.6979 18.0888 20.75 18.0888H3.25001C2.26564 18.0888 1.50001 17.2722 1.50001 16.2222V14.9777H8.57293C8.82814 15.7166 9.48439 16.2222 10.25 16.2222H13.75C14.4792 16.2222 15.1354 15.7166 15.3906 14.9777H22.5V16.2222Z" fill="#6851FF"/>
</svg>
