<svg width="92" height="56" viewBox="0 0 92 56" fill="none" xmlns="http://www.w3.org/2000/svg">
<g clip-path="url(#clip0_3383_37979)">
<path d="M79.0919 18.6054C79.3245 18.7746 79.7051 18.8592 80.2549 18.8592C80.5509 18.8592 80.8047 18.7958 81.0161 18.69C81.2276 18.5632 81.3967 18.4363 81.5447 18.246C81.6928 18.0557 81.7773 17.8865 81.8408 17.6751C81.9042 17.4636 81.9465 17.2733 81.9465 17.1041C81.9465 16.8081 81.8408 16.5544 81.6293 16.3429C81.4179 16.1315 81.0584 16.0469 80.5509 16.0469C80.2337 16.0469 79.9588 16.1103 79.7474 16.216C79.5148 16.3429 79.3245 16.4698 79.1765 16.6601C79.0285 16.8292 78.9016 17.0407 78.8381 17.2522C78.7536 17.4636 78.7324 17.6751 78.7324 17.8865C78.7536 18.2037 78.8804 18.4363 79.0919 18.6054Z" fill="black"/>
<path d="M91.7212 24.9936C91.7001 24.909 91.6789 24.8456 91.6366 24.7821C91.5944 24.7187 91.5309 24.6553 91.4463 24.613C91.3618 24.5707 91.2772 24.5495 91.1715 24.5495C91.0446 24.5495 90.9177 24.5918 90.7697 24.6553C90.7062 24.6976 90.5371 24.7821 90.3045 24.9513C90.0719 25.0993 89.7759 25.2896 89.4375 25.5222C89.0992 25.7337 88.7186 25.9663 88.2957 26.22C87.8728 26.4738 87.4287 26.6852 86.9847 26.8967C86.5406 27.1081 86.0754 27.2773 85.6314 27.4041C85.1873 27.531 84.7433 27.6156 84.3415 27.6156C83.9609 27.6156 83.6649 27.531 83.4534 27.3407C83.242 27.1716 83.1151 26.9178 83.1151 26.6006C83.1151 26.3892 83.1574 26.1566 83.2631 25.8605C83.2843 25.8183 83.3266 25.7548 83.3477 25.7125C83.39 25.6068 83.4323 25.5222 83.4534 25.4165C83.538 25.2262 83.6437 25.057 83.7495 24.8667C83.9398 24.5495 84.1512 24.2112 84.405 23.894C84.6376 23.5769 84.8913 23.302 85.1451 23.0482C85.3988 22.7945 85.6525 22.6042 85.9063 22.435C86.16 22.287 86.3926 22.2024 86.6041 22.2024C86.7732 22.2024 86.9001 22.2659 86.9424 22.3716C86.9847 22.4773 87.0058 22.6253 87.0058 22.7733C87.0058 22.9214 87.0058 23.0694 87.0058 23.2174C87.0058 23.3654 87.0058 23.4923 87.0058 23.5769C87.0058 23.7037 87.027 23.8095 87.0693 23.8517C87.1116 23.894 87.2384 23.9363 87.4076 23.9363C87.7459 23.9363 88.0208 23.8306 88.2323 23.6403C88.4649 23.45 88.634 23.1962 88.782 22.9002C88.9301 22.6042 89.0358 22.287 89.0992 21.9487C89.1626 21.6104 89.1838 21.3143 89.1838 21.0394C89.1838 20.8068 89.1415 20.6165 89.0781 20.4685C89.0146 20.3205 88.9089 20.1725 88.7609 20.0879C88.6129 20.0033 88.486 19.9187 88.2957 19.8764C88.1265 19.8342 87.9362 19.813 87.7459 19.813C87.1539 19.813 86.5829 19.9399 86.012 20.1936C85.4411 20.4474 84.8913 20.7857 84.3838 21.1874C83.8552 21.5892 83.3689 22.0755 82.9248 22.6042C82.4808 23.1328 82.079 23.6614 81.7618 24.2112C81.4235 24.761 81.1697 25.2896 80.9794 25.8183C80.9583 25.9028 80.916 25.9874 80.8949 26.072C80.768 26.1777 80.62 26.3046 80.4931 26.4103C80.2182 26.6218 79.9433 26.8332 79.6684 27.0024C79.3935 27.1716 79.1187 27.3196 78.8438 27.4253C78.5689 27.531 78.3151 27.5945 78.0614 27.5945C77.8288 27.5945 77.6596 27.5522 77.5539 27.4887C77.427 27.4041 77.3636 27.2561 77.3636 27.0024C77.3636 26.8967 77.6596 26.1566 77.9557 25.3742L78.0191 25.2262C78.2094 24.7821 78.3786 24.3381 78.5266 23.9998L78.5689 23.894C78.6535 23.6826 78.7169 23.5134 78.7592 23.45V23.4288C78.8226 23.302 78.8861 23.154 78.9495 23.0271C79.0129 22.8791 79.0975 22.7311 79.1609 22.583C79.2244 22.435 79.3513 22.2236 79.4781 21.991C79.5204 21.9064 79.5416 21.8218 79.5627 21.7584C79.5838 21.6949 79.5839 21.5892 79.605 21.5258C79.605 21.1874 79.4781 20.9126 79.2455 20.68C78.9918 20.4685 78.7169 20.3416 78.3574 20.3416C78.146 20.3416 77.9557 20.4051 77.7442 20.5108C77.5328 20.6165 77.3636 20.8068 77.2156 21.0394C77.0464 21.3778 76.8984 21.6738 76.7504 21.9698C76.6235 22.2236 76.4966 22.4562 76.3909 22.7099C76.2852 22.9636 76.2006 23.1328 76.1583 23.2385C76.0315 23.5557 75.8834 23.8729 75.6931 24.2324C75.524 24.5707 75.3337 24.9302 75.1856 25.3108C75.1434 25.4165 75.1011 25.5434 75.0376 25.6491C74.9319 25.6914 74.805 25.7125 74.6993 25.7548C74.2975 25.8605 73.8746 25.924 73.4729 25.924C73.346 25.924 73.2403 25.9028 73.1346 25.8817C73.0288 25.8605 72.9654 25.7971 72.902 25.6914C73.0711 25.4165 73.2403 25.1205 73.3883 24.761C73.5363 24.4015 73.6632 24.0632 73.7689 23.7249C73.8746 23.3866 73.9592 23.0905 74.0015 22.8156C74.0438 22.5407 74.0861 22.3716 74.0861 22.287C74.0861 21.8852 74.0227 21.5469 73.8746 21.2509C73.7266 20.9548 73.5363 20.7011 73.3037 20.4897C73.0711 20.2782 72.7962 20.1302 72.5213 20.0245C72.2465 19.9187 71.9504 19.8553 71.6755 19.8553C71.2738 19.8553 70.8932 19.8976 70.5125 20.0033C70.1319 20.109 69.7725 20.2359 69.4341 20.4051C69.0747 20.5742 68.7575 20.7645 68.4192 20.976C68.102 21.1874 67.7848 21.3989 67.5099 21.6315C68.1654 20.3416 68.7998 19.0518 69.3918 17.7408C69.9839 16.4298 70.6183 15.1399 71.2738 13.8712C71.3795 13.702 71.4852 13.4906 71.5698 13.2791C71.6544 13.0677 71.6967 12.8774 71.6967 12.6871C71.6967 12.4545 71.6121 12.2642 71.4429 12.095C71.2738 11.9258 70.9989 11.8624 70.576 11.8624C70.4068 11.8624 70.2588 11.8835 70.0896 11.9258C69.9416 11.9681 69.7936 12.0527 69.6456 12.1373C69.5821 12.1373 69.4553 12.243 69.3496 12.3487C69.2438 12.4545 69.1592 12.5602 69.117 12.6871L65.2051 21.3989L65.1628 21.4835C65.0782 21.6738 64.9936 21.843 64.9513 21.9698C64.8879 22.1178 64.8245 22.2447 64.7822 22.3504C64.7399 22.4562 64.6976 22.5619 64.6553 22.6676C64.613 22.7733 64.5707 22.9002 64.5073 23.0271C64.4439 23.1751 64.3804 23.3231 64.2958 23.5346C64.2113 23.7249 64.1055 23.9786 63.9787 24.2747C63.7884 24.7398 63.6403 25.205 63.5135 25.6914C63.4289 26.0086 63.3866 26.3257 63.3655 26.6218C63.2809 26.6852 63.1751 26.7486 63.0906 26.8121C62.6465 27.1081 62.2025 27.3196 61.8007 27.4887C61.3989 27.6579 61.0395 27.7213 60.7646 27.7213C60.3628 27.7213 60.1725 27.5522 60.1725 27.235C60.1725 26.8755 60.236 26.516 60.3628 26.0931C60.4897 25.6914 60.6377 25.2685 60.828 24.8456C61.0183 24.4227 61.2086 23.9998 61.4201 23.598C61.6315 23.1962 61.843 22.7945 62.0121 22.435C62.1813 22.0755 62.3505 21.7584 62.4773 21.4623C62.6042 21.1663 62.6677 20.9549 62.6677 20.8068C62.6677 20.5108 62.5831 20.2782 62.3928 20.0668C62.2025 19.8553 61.9487 19.7496 61.6315 19.7496C61.3355 19.7496 61.0818 19.8553 60.8915 20.0456C60.7011 20.2359 60.5108 20.4897 60.3628 20.7857C60.2148 21.0817 60.0668 21.3989 59.9399 21.7584C59.813 22.1178 59.665 22.435 59.4959 22.7311C59.2633 23.1962 58.9461 23.6826 58.5866 24.2324C58.2272 24.7821 57.8254 25.2896 57.3813 25.776C56.9373 26.2623 56.451 26.6641 55.9223 26.9812C55.3937 27.2984 54.8439 27.4676 54.2518 27.4676C54.0404 27.4676 53.8924 27.4041 53.8078 27.2561C53.7232 27.1081 53.6809 26.9812 53.6809 26.8121C53.7021 26.4315 53.7655 26.0297 53.9135 25.6279C54.0404 25.2262 54.2096 24.8244 54.3999 24.4227C54.5902 24.0209 54.8016 23.6403 55.0131 23.2808C55.2245 22.9214 55.436 22.5619 55.6474 22.2447C55.8377 21.9275 56.0069 21.6526 56.1549 21.3989C56.3029 21.1452 56.4087 20.9549 56.451 20.8068C56.4721 20.7223 56.4932 20.6377 56.4932 20.5531C56.4932 20.4262 56.451 20.2993 56.3875 20.1936C56.3241 20.0879 56.2184 20.0033 56.1126 19.9399C56.0069 19.8764 55.88 19.813 55.732 19.7919C55.6051 19.7707 55.4783 19.7496 55.3514 19.7496C55.0554 19.7496 54.8016 19.813 54.5479 19.961C54.2941 20.109 54.0827 20.3628 53.8924 20.7011C53.1523 21.991 52.5814 23.0905 52.1796 23.9998C52.095 24.1901 52.0105 24.3804 51.9259 24.5707C51.799 24.6341 51.6721 24.7187 51.5241 24.8033C50.9955 25.0993 50.4457 25.3954 49.8536 25.6914C49.2616 25.9874 48.6695 26.2835 48.0774 26.5795C47.4854 26.8755 46.9356 27.1081 46.4704 27.3196C46.407 27.3196 46.3647 27.2984 46.3435 27.2773C46.3224 27.2561 46.3224 27.1927 46.3224 27.1293C46.3224 27.0447 46.4281 26.8967 46.6184 26.6852C46.8087 26.4738 47.0625 26.22 47.3373 25.924L48.2889 24.9724C48.6272 24.6341 48.9655 24.2958 49.2616 23.9363C49.5576 23.598 49.8325 23.2597 50.0439 22.9636C50.2765 22.6465 50.4034 22.3716 50.4457 22.139C50.4668 22.0121 50.488 21.8852 50.5091 21.7795C50.5091 21.6738 50.5303 21.5681 50.5303 21.4623C50.5303 20.9971 50.4246 20.68 50.192 20.4897C49.9805 20.2993 49.6633 20.1936 49.2616 20.1936C49.0078 20.1936 48.7329 20.2359 48.4158 20.2993C48.0986 20.3839 47.7603 20.4685 47.4219 20.6165C47.0625 20.7434 46.703 20.8914 46.3435 21.0817C45.9629 21.2509 45.6034 21.4623 45.2651 21.6738L45.244 21.6949H45.2228C45.2228 21.6949 45.2017 21.6949 45.2017 21.6738C45.2017 21.6526 45.2017 21.6104 45.2228 21.5681C45.244 21.5258 45.2651 21.4835 45.2863 21.42L45.3074 21.3778C45.3286 21.3355 45.3286 21.3143 45.3497 21.272C45.3708 21.2297 45.3708 21.1874 45.3708 21.1663C45.3708 21.0183 45.3074 20.8703 45.2017 20.7645C45.0748 20.6377 44.9268 20.5531 44.7576 20.4685C44.5885 20.3839 44.3559 20.3205 44.1233 20.2782C43.8907 20.2359 43.6581 20.2148 43.4255 20.2148C43.1929 20.2148 42.9814 20.2359 42.7911 20.2782C42.5797 20.3205 42.4105 20.4051 42.2625 20.4897C42.1145 20.5954 41.9876 20.7223 41.903 20.8703C41.8184 21.0183 41.7762 21.2086 41.7762 21.42C41.7762 21.6526 41.8184 21.843 41.903 22.0121C41.9876 22.1601 42.0933 22.3081 42.2202 22.4139C41.8396 23.1962 41.5013 23.8729 41.2264 24.465C41.0995 24.761 40.9726 25.0147 40.8458 25.2685C40.6132 25.4165 40.3383 25.5645 39.9999 25.7548C39.6405 25.9451 39.2599 26.1566 38.8158 26.3892C38.3718 26.6006 37.9277 26.8121 37.4625 27.0024C36.9973 27.1927 36.5321 27.3407 36.0669 27.4676C35.6017 27.5945 35.1577 27.6579 34.7348 27.6579C34.3542 27.6579 34.037 27.5945 33.8044 27.4464C33.5718 27.2984 33.4238 27.087 33.3815 26.8332C34.6079 26.3892 35.6017 25.9451 36.4264 25.5011C37.2511 25.057 37.8854 24.6341 38.3718 24.1901C38.8581 23.7672 39.1964 23.3443 39.3867 22.9425C39.577 22.5407 39.6828 22.139 39.6828 21.7584C39.6828 21.124 39.4925 20.6165 39.133 20.2782C38.7735 19.9187 38.2026 19.7496 37.4625 19.7496C36.7647 19.7496 36.0881 19.8553 35.4749 20.0668C34.8617 20.2782 34.2907 20.5531 33.7621 20.8914C33.2335 21.2297 32.7683 21.6315 32.3665 22.0755C31.9648 22.5196 31.6053 22.9636 31.3093 23.4288C31.0132 23.894 30.8018 24.3592 30.6538 24.8244C30.5057 25.2896 30.4212 25.7125 30.4212 26.0931C30.4212 26.1566 30.4212 26.2412 30.4212 26.3046C30.3366 26.368 30.252 26.4315 30.1674 26.4738C29.8925 26.6641 29.5965 26.8544 29.3216 27.0024C29.0467 27.1504 28.7507 27.2773 28.4758 27.383C28.2009 27.4887 27.9472 27.531 27.6934 27.531C27.5031 27.531 27.3551 27.5099 27.2282 27.4676C27.1014 27.4253 27.0379 27.3196 27.0379 27.1293V27.1081V27.0447V27.0235C27.0802 26.6641 27.1648 26.3257 27.3128 26.0297C27.4608 25.7337 27.63 25.4376 27.8414 25.1416C28.0529 24.8456 28.2643 24.5918 28.4758 24.3169C28.7084 24.0421 28.8987 23.7672 29.089 23.45C29.2793 23.154 29.4273 22.8368 29.5542 22.4985C29.6811 22.1601 29.7445 21.8007 29.7445 21.3989C29.7445 21.1029 29.6811 20.828 29.5753 20.6377C29.4485 20.4262 29.3005 20.2571 29.1101 20.1513C28.9198 20.0456 28.6872 19.9399 28.4335 19.8976C28.1798 19.8553 27.9049 19.813 27.6088 19.813C27.1225 19.813 26.6784 19.8764 26.2978 20.0245C25.8961 20.1725 25.5366 20.3416 25.2194 20.5531C24.9022 20.7645 24.5851 20.9971 24.3102 21.272C24.0564 21.5046 23.8238 21.7161 23.6124 21.9275C23.6124 21.9275 23.5912 21.9487 23.5912 21.991C23.5701 21.991 23.549 21.991 23.5278 22.0121C23.9296 21.3355 24.3102 20.6588 24.6908 19.9822C25.0714 19.3055 25.4309 18.6077 25.7903 17.9099C26.1498 17.2121 26.5093 16.5355 26.8688 15.8377C27.2282 15.1399 27.6088 14.4844 28.0106 13.8078C28.1375 13.6175 28.2432 13.406 28.3489 13.1945C28.4546 12.9831 28.4969 12.7716 28.4969 12.5602C28.4969 12.3487 28.4124 12.1584 28.2643 12.0104C28.1163 11.8624 27.8414 11.799 27.4397 11.799C27.2705 11.799 27.1225 11.8201 26.9533 11.8624C26.7842 11.9047 26.6362 11.9893 26.4881 12.0738C26.3401 12.1584 26.2133 12.2642 26.1075 12.3699C26.0018 12.4756 25.9172 12.5813 25.8538 12.7082L21.371 21.3778C21.2018 21.7372 20.9904 22.139 20.7366 22.6465C20.6098 22.9214 20.4617 23.1962 20.3137 23.4711C20.2291 23.5134 20.1657 23.5557 20.1234 23.6192C19.5736 24.4015 18.8547 25.2262 18.2838 25.7337C17.7129 26.2412 17.1631 26.6429 16.5922 26.9178C16.0424 27.1927 15.4926 27.4041 14.964 27.5099C14.4353 27.6156 13.949 27.6579 13.4838 27.6579C13.2512 27.6579 13.0186 27.6579 12.8072 27.6367C12.5957 27.6156 12.3843 27.5945 12.194 27.5522C11.6019 27.4676 11.0733 27.2984 10.6081 27.087C10.1429 26.8755 9.71996 26.6218 9.38163 26.3046C9.02217 25.9874 8.72613 25.6279 8.49353 25.2262C8.26094 24.8244 8.07063 24.3804 7.94376 23.9152C7.7323 23.1751 7.64772 22.3927 7.71116 21.5469C7.75345 20.7011 7.92261 19.8764 8.21865 19.0306C8.49353 18.1848 8.89529 17.3813 9.40278 16.5989C9.91027 15.8166 10.5023 15.1188 11.2001 14.4844C11.8979 13.8712 12.6803 13.3426 13.5684 12.9197C14.4565 12.4968 15.3869 12.243 16.423 12.1584C16.8459 12.1373 17.2265 12.1584 17.5437 12.243C17.8609 12.3276 18.1569 12.4333 18.3895 12.5813C18.5375 12.6871 18.8547 12.9619 18.9393 13.0888C19.0873 13.2791 19.2142 13.4906 19.2776 13.702C19.3622 14.0826 19.4256 14.3787 19.4256 14.7804C19.4256 15.1822 19.3199 15.7108 18.9393 16.176C18.5798 16.6624 18.1569 16.8527 17.3534 17.0853C17.0996 17.1699 16.3596 17.2756 15.408 17.2756C14.7525 17.2756 14.0759 17.0853 13.5684 16.8527C13.3569 16.8527 12.786 16.5778 12.3631 16.2818C11.9402 15.9434 11.623 15.6897 11.4539 15.5205L10.3966 16.5989L10.7561 16.9161C11.5807 17.635 12.4688 18.1848 13.3781 18.5443C14.6045 19.0518 17.0574 18.9672 18.1781 18.5443C19.2776 18.1214 19.764 17.8676 20.3772 17.2121C20.9904 16.5566 21.075 16.0069 21.2441 15.3937C21.4133 14.7804 21.3498 14.1672 21.2441 13.6175C21.1384 13.2368 20.9269 12.8562 20.6521 12.5179C20.4195 12.2219 19.9331 11.8413 19.5948 11.6087C19.1719 11.3549 18.6433 11.1646 18.0512 11.0166C17.4591 10.8686 16.7825 10.8263 16.0212 10.8686C14.964 10.8897 13.9279 11.1012 12.9129 11.4818C11.8979 11.8624 10.9464 12.391 10.0794 13.0677C9.19133 13.7443 8.40895 14.5267 7.69001 15.4148C6.97108 16.3029 6.4213 17.2756 5.97725 18.2905C5.5332 19.3267 5.23717 20.3839 5.11029 21.5046C4.98342 22.6253 5.02571 23.746 5.27946 24.8667C5.51205 25.6491 5.85038 26.368 6.27328 26.9812C6.71733 27.5945 7.22482 28.1231 7.79574 28.5671C8.36666 29.0112 8.97987 29.3495 9.65652 29.6033C10.3332 29.857 11.0098 30.005 11.6865 30.0685C11.7922 30.0685 11.9191 30.0896 12.0248 30.0896C12.1305 30.0896 12.2574 30.0896 12.3631 30.0896C13.2512 30.0896 14.097 29.9627 14.9217 29.6878C15.7464 29.4341 16.5076 29.0746 17.1842 28.6306C17.2477 28.5883 17.29 28.546 17.3534 28.5248H17.3745C17.6071 28.3768 17.8397 28.2288 18.0512 28.0597C18.03 28.1231 18.0089 28.1865 17.9877 28.25C17.9243 28.4826 17.882 28.694 17.882 28.9055C17.882 29.1804 17.9666 29.4129 18.1358 29.6033C18.3049 29.7936 18.5375 29.8781 18.8547 29.8781C19.045 29.8781 19.2353 29.8147 19.4256 29.6878C19.6159 29.561 19.7851 29.3918 19.9543 29.2015C20.1234 28.99 20.2714 28.7574 20.4406 28.5037C20.5886 28.25 20.7366 27.9751 20.8846 27.7002C21.0327 27.4253 21.1595 27.1716 21.2864 26.9178C21.4133 26.6641 21.5402 26.4315 21.667 26.2412C21.9419 25.7971 22.2379 25.3531 22.5763 24.8667C22.8934 24.3804 23.2529 23.9575 23.6335 23.5346C24.0141 23.1117 24.4159 22.7945 24.86 22.5407C25.304 22.287 25.7903 22.1601 26.319 22.1601C26.467 22.1601 26.5727 22.2024 26.6573 22.287C26.7207 22.3716 26.763 22.4773 26.763 22.6253C26.763 22.7733 26.7419 22.9214 26.6784 23.0482C26.615 23.1751 26.5304 23.3231 26.4247 23.4711C26.2344 23.8095 26.0018 24.1478 25.7481 24.5073C25.4943 24.8667 25.2406 25.2262 25.008 25.6068C24.7754 25.9874 24.5851 26.3892 24.437 26.7909C24.289 27.1927 24.2045 27.6367 24.2045 28.0808C24.2045 28.7152 24.3948 29.1592 24.7754 29.4552C25.156 29.7513 25.6635 29.8993 26.2978 29.8993C26.7842 29.8993 27.2917 29.8147 27.7991 29.6244C28.3066 29.4552 28.8353 29.2015 29.3427 28.9055C29.8079 28.6306 30.2731 28.3134 30.7383 27.9751C30.8652 28.2711 31.0344 28.5248 31.2247 28.7574C31.5207 29.1169 31.859 29.3918 32.2819 29.5821C32.7048 29.7936 33.17 29.8993 33.7198 29.8993C34.3542 29.8993 34.9885 29.8147 35.6229 29.6455C36.2572 29.4764 36.8916 29.2649 37.4837 29.0112C38.0757 28.7574 38.6467 28.4826 39.1753 28.1865C39.281 28.1231 39.3867 28.0597 39.4925 27.9962C39.429 28.1019 39.3867 28.2288 39.3233 28.3345C39.2176 28.5037 39.1541 28.6729 39.133 28.8209C39.1119 28.9689 39.0907 29.0958 39.0907 29.1803C39.0907 29.4129 39.1541 29.6033 39.281 29.709C39.4079 29.8147 39.5559 29.8781 39.7674 29.8781C39.9365 29.8781 40.148 29.8359 40.3594 29.7513C40.5709 29.6667 40.7823 29.561 40.9938 29.4129C41.2052 29.2649 41.3955 29.0958 41.5647 28.8843C41.7339 28.6729 41.8819 28.4403 41.9876 28.1865C42.1145 27.8905 42.2836 27.531 42.4739 27.1293C42.6642 26.7275 42.8546 26.3046 43.066 25.8817C43.2775 25.4588 43.4678 25.057 43.6581 24.6764C43.8484 24.2958 44.0175 23.9786 44.1444 23.7249C44.2501 23.5346 44.4405 23.3443 44.6731 23.1751C44.9056 23.0059 45.1805 22.8368 45.4554 22.7099C45.7303 22.583 45.9841 22.4773 46.2378 22.3927C46.4915 22.3081 46.6607 22.2659 46.7664 22.2659C46.8299 22.2659 46.8722 22.287 46.8933 22.3293C46.9144 22.3716 46.9144 22.4139 46.9144 22.4562C46.9144 22.6465 46.851 22.8579 46.7241 23.0694C46.5973 23.302 46.4492 23.5346 46.2378 23.8095C46.0475 24.0632 45.836 24.3592 45.6034 24.6553C45.3708 24.9513 45.1382 25.2685 44.9268 25.6068C44.7153 25.9451 44.525 26.2835 44.3559 26.6641C44.1867 27.0235 44.0598 27.4041 43.9964 27.8059C43.9964 27.8482 43.9753 27.8905 43.9753 27.9751C43.9753 28.4403 44.1233 28.8209 44.4405 29.1169C44.7576 29.4129 45.2017 29.561 45.836 29.561C46.0898 29.561 46.407 29.4975 46.7453 29.3707C47.0836 29.2438 47.4854 29.0958 47.8871 28.8843C48.2889 28.694 48.7118 28.4614 49.1347 28.2077C49.5787 27.9539 50.0017 27.7002 50.4246 27.4464C50.5937 27.3407 50.7629 27.235 50.932 27.1293C50.8898 27.2773 50.8686 27.383 50.8686 27.4887C50.8263 27.7425 50.8052 27.8905 50.8052 27.8905C50.8052 28.2711 50.8686 28.5883 50.9955 28.842C51.1223 29.0958 51.2915 29.3072 51.4818 29.4552C51.6933 29.6033 51.9259 29.709 52.2008 29.7724C52.4756 29.8359 52.7505 29.857 53.0466 29.857C53.7021 29.857 54.2941 29.7724 54.8651 29.5821C55.4148 29.3918 55.9223 29.1592 56.3664 28.8632C56.8104 28.5671 57.2122 28.25 57.5505 27.8905C57.91 27.531 58.1849 27.1716 58.4175 26.8332C58.2694 27.383 58.206 27.8482 58.206 28.2711C58.206 28.8632 58.3329 29.2649 58.6078 29.4975C58.8827 29.7301 59.221 29.857 59.665 29.857C60.1091 29.857 60.5743 29.7513 61.1241 29.561C61.6738 29.3707 62.2025 29.0958 62.7522 28.7574C63.006 28.6094 63.2386 28.4614 63.4712 28.2922C63.5769 28.6306 63.7461 28.9266 63.9575 29.1803C64.1901 29.4552 64.4861 29.6667 64.8668 29.8147C65.2474 29.9627 65.7126 30.0473 66.2412 30.0473C67.235 30.0473 68.1654 29.8359 69.0112 29.4129C69.857 28.99 70.6817 28.3134 71.4429 27.4041C71.6121 27.5733 71.8235 27.7002 72.0773 27.7848C72.331 27.8693 72.5848 27.9116 72.8597 27.9116C73.3037 27.9116 73.7478 27.8693 74.1918 27.7636C74.3187 27.7425 74.4456 27.7002 74.5724 27.679C74.5936 28.4191 74.805 28.9689 75.1856 29.3072C75.6085 29.6878 76.1795 29.857 76.8984 29.857C77.4059 29.857 77.9134 29.7513 78.4209 29.561C78.9283 29.3707 79.4147 29.0958 79.9222 28.7786C80.2182 28.5883 80.5142 28.3768 80.8103 28.1442C80.8103 28.1654 80.8314 28.1865 80.8314 28.2077C80.9583 28.546 81.1486 28.8209 81.3812 29.0746C81.6138 29.3284 81.9098 29.5187 82.2693 29.6667C82.6288 29.8147 83.0305 29.8781 83.4746 29.8781C84.0666 29.8781 84.6799 29.7936 85.2931 29.6033C85.9063 29.4129 86.4983 29.1804 87.0904 28.9055C87.6613 28.6306 88.2111 28.3134 88.7186 27.9962C89.2261 27.679 89.6701 27.3407 90.0507 27.0447C90.4314 26.7486 90.7485 26.4949 91.0023 26.2835C91.256 26.072 91.404 25.924 91.4463 25.8817C91.5732 25.7337 91.6366 25.6068 91.6578 25.5011C91.6789 25.3954 91.6789 25.2896 91.6789 25.205C91.7635 25.1416 91.7424 25.057 91.7212 24.9936ZM33.3603 24.6976C33.4661 24.4438 33.5929 24.1901 33.741 23.9152C33.889 23.6403 34.0581 23.3654 34.2484 23.0905C34.4388 22.8156 34.6502 22.5619 34.9039 22.3504C35.1577 22.139 35.4114 21.9487 35.7075 21.8218C36.0035 21.6949 36.3207 21.6104 36.659 21.6104H36.7859C36.8282 21.6104 36.8705 21.6104 36.9127 21.6315C37.0185 21.6526 37.1242 21.6949 37.2088 21.7795C37.2934 21.8641 37.3357 21.9698 37.3357 22.0967C37.3357 22.2659 37.2511 22.4562 37.1031 22.6676C36.955 22.8791 36.6801 23.1117 36.2784 23.3654C36.1938 23.4288 36.0246 23.5134 35.8132 23.6826C35.6017 23.8306 35.3269 23.9998 35.052 24.1901C34.7771 24.3804 34.4388 24.5707 34.1004 24.7821C33.7621 24.9936 33.4449 25.1628 33.1277 25.3319C33.1912 25.1416 33.2546 24.9302 33.3603 24.6976ZM71.0623 24.8244C70.8297 25.3319 70.5125 25.776 70.1319 26.1777C69.7513 26.5795 69.3073 26.8967 68.8209 27.1504C68.3346 27.4041 67.8271 27.5099 67.3196 27.5099C67.0447 27.5099 66.8333 27.4676 66.6853 27.383C66.5372 27.2984 66.4104 27.1927 66.3258 27.0658C66.2412 26.939 66.1778 26.8121 66.1566 26.6641C66.1355 26.516 66.1143 26.368 66.1143 26.22C66.1143 25.6914 66.2412 25.1839 66.4949 24.6764C66.7487 24.1689 67.087 23.7249 67.4888 23.3231C67.8905 22.9214 68.3557 22.6042 68.8632 22.3504C69.3707 22.0967 69.8782 21.991 70.3857 21.991C70.6183 21.991 70.7874 22.0333 70.9143 22.1178C71.0412 22.2024 71.1469 22.3081 71.2315 22.435C71.2949 22.5619 71.3584 22.6888 71.3795 22.8579C71.4006 23.0059 71.4218 23.154 71.4218 23.2808C71.4006 23.8095 71.2949 24.3169 71.0623 24.8244Z" fill="black"/>
<path d="M3.30777 16.0267C2.58884 15.4769 2.46197 15.1597 2.39853 14.8637C2.33509 14.5676 2.22937 14.0813 2.65227 13.595C3.05403 13.1086 3.43465 12.9817 3.89984 12.8972C4.36504 12.8126 4.78794 12.8972 5.21085 12.9817C5.63375 13.0663 6.52185 13.5104 6.81788 13.7007C7.00819 13.8276 7.30423 14.0179 7.70599 14.2716L8.72096 13.172L8.5095 13.0452C7.40995 12.3474 6.60643 11.9245 6.09895 11.7553C5.31657 11.5016 4.99939 11.417 4.32275 11.417C3.6461 11.417 2.90602 11.5227 2.20822 11.9668C1.53157 12.4108 1.08752 13.0452 0.960653 13.6795C0.854927 14.3139 0.981798 14.8214 1.27783 15.3289C1.59501 15.8363 1.97562 16.217 2.73685 16.5341C3.24434 16.7456 4.02671 16.8725 5.12627 16.9148C4.38618 16.6822 3.77297 16.3861 3.30777 16.0267Z" fill="black"/>
<path d="M21.1273 40.5392C21.0005 41.5542 20.7679 42.9498 20.4507 43.859L19.6895 43.5418C20.0066 42.696 20.2815 41.4273 20.3872 40.4123L21.1273 40.5392ZM22.5441 39.8414V43.7956C22.5441 44.1762 22.6286 44.2608 23.0727 44.2608H24.4683C24.9335 44.2608 25.0181 43.9859 25.0815 42.6115C25.2718 42.7595 25.6101 42.8863 25.8004 42.9498C25.7158 44.5145 25.4833 44.9797 24.5317 44.9797H23.0093C22.0366 44.9797 21.7617 44.7048 21.7617 43.7956V39.8414H22.5441V39.8414ZM22.6075 37.748C23.3687 38.2555 24.3837 38.9956 24.87 39.5242L24.2991 40.1163C23.8339 39.6088 22.8612 38.8053 22.0789 38.2767L22.6075 37.748ZM26.2022 40.1586C26.6885 41.1524 27.1114 42.4 27.3017 43.2458L26.5405 43.563C26.3925 42.7172 25.9484 41.4273 25.5044 40.4335L26.2022 40.1586Z" fill="black"/>
<path d="M41.3396 44.2409C41.6356 44.2409 41.6991 44.0294 41.7202 42.803C41.9105 42.951 42.2277 43.0779 42.4391 43.1413C42.3546 44.5792 42.1643 44.9809 41.3819 44.9809H40.2823C39.4577 44.9809 39.2462 44.7272 39.2462 43.9025V41.1325H37.8295C37.6815 42.8876 37.3008 44.3043 35.3555 45.0867C35.2709 44.8964 35.0594 44.6215 34.8691 44.4735C36.6031 43.818 36.8779 42.5915 37.0048 41.1325H35.0172V40.3924H42.2911V41.1325H40.0286V43.8814C40.0286 44.1774 40.0709 44.2197 40.3669 44.2197H41.3396V44.2409ZM41.5933 38.87H35.7572V38.1299H41.5933V38.87Z" fill="black"/>
<path d="M52.5414 39.7339C51.8013 39.9877 51.0401 40.2414 50.4269 40.4317L50.1309 39.7762C50.7229 39.6282 51.5899 39.3745 52.4568 39.1207L52.5414 39.7339ZM55.2057 43.7727C56.0515 44.0476 56.9608 44.407 57.5317 44.6819L56.8339 45.1048C56.3264 44.8299 55.4595 44.4493 54.6137 44.1744L55.1 43.7938H52.6049L53.3026 44.111C52.626 44.5127 51.5899 44.9145 50.7652 45.1471C50.6383 44.9991 50.3635 44.7031 50.1943 44.5762C51.0401 44.407 52.0128 44.1321 52.5837 43.815H51.2516V40.4952H52.9009C52.8163 40.3471 52.6894 40.1357 52.5837 40.0088C53.5987 39.8396 54.4656 39.3956 54.6771 38.719L55.3749 38.8247C55.3326 38.9093 55.2903 38.9938 55.2692 39.0784C55.7344 39.5436 56.5802 39.9031 57.4894 40.03C57.3414 40.178 57.1511 40.4106 57.0665 40.6009C56.9396 40.5586 56.8128 40.5374 56.6859 40.4952V43.815H55.2057V43.7727ZM52.2454 38.867C51.8648 38.6767 51.1035 38.3595 50.5326 38.1903L50.8709 37.6617C51.4419 37.8097 52.2031 38.0846 52.5837 38.2749L52.2454 38.867ZM51.9916 41.4044H55.8612V40.9392H51.9705V41.4044H51.9916ZM51.9916 42.3348H55.8612V41.8696H51.9705V42.3348H51.9916ZM51.9916 43.2863H55.8612V42.8H51.9705V43.2863H51.9916ZM53.8101 38.6555C53.6198 38.8881 53.3872 39.1419 53.1123 39.3533C52.9643 39.2053 52.7106 39.0573 52.5414 38.9727C53.1546 38.5498 53.5564 38 53.7678 37.5137L54.4656 37.6194C54.3811 37.7886 54.3176 37.9366 54.2119 38.0846H56.8762L56.9819 38.0634L57.4894 38.2115C57.2568 38.6344 56.9608 39.1207 56.6859 39.4167L56.0727 39.2264C56.2207 39.0784 56.3687 38.8881 56.4956 38.6767H53.8101V38.6555ZM56.6013 40.4529C55.9458 40.2414 55.3537 39.9031 54.9097 39.4802C54.4868 39.9454 53.8313 40.2626 53.0701 40.4529H56.6013Z" fill="black"/>
<path d="M70.3652 39.9676C70.9361 41.2786 71.8877 42.5051 72.9449 43.1394C72.7546 43.2874 72.4797 43.6046 72.3317 43.8161C71.9722 43.5623 71.6339 43.2663 71.3379 42.9068V43.6258H69.4982V45.0848H68.6947V43.6258H66.8551V42.8857C66.5168 43.2452 66.1784 43.5623 65.819 43.8372C65.6921 43.6469 65.4384 43.372 65.248 43.2029C66.2842 42.5474 67.2357 41.2787 67.7855 39.9465H65.5018V39.1641H68.6736V37.4937H69.4771V39.1641H72.6912V39.9465H70.3652V39.9676ZM68.6947 42.8645V39.9676H68.589C68.1872 41.0461 67.5952 42.061 66.8974 42.8645H68.6947ZM71.2744 42.8645C70.5766 42.061 70.0057 41.0461 69.5828 39.9676H69.4982V42.8645H71.2744Z" fill="black"/>
</g>
<defs>
<clipPath id="clip0_3383_37979">
<rect width="90.8163" height="56" fill="white" transform="translate(0.923828)"/>
</clipPath>
</defs>
</svg>
