<svg width="83" height="56" viewBox="0 0 83 56" fill="none" xmlns="http://www.w3.org/2000/svg">
<g filter="url(#filter0_b_3383_38021)">
<g clip-path="url(#clip0_3383_38021)">
<path d="M82.3152 35.0299H79.7089L79.5847 34.1027C79.4708 34.2096 79.3502 34.3092 79.2238 34.4008C78.7363 34.6919 78.2722 35.0675 77.7449 35.2388C77.0858 35.4448 76.383 35.4659 75.7128 35.2998C74.6145 35.0826 73.6399 34.4549 72.987 33.544C72.1222 32.3258 71.9605 30.8282 72.1925 29.3893C72.4011 28.11 73.1019 26.7814 74.2035 26.0584L74.2902 26.0021C74.7651 25.717 75.2916 25.5287 75.8395 25.4481C76.3873 25.3676 76.9456 25.3963 77.4824 25.5327C78.1556 25.6766 78.7803 25.9919 79.2964 26.4481L79.3785 26.4105V20.5H82.3152V35.0299ZM77.3488 27.9879C77.0271 27.9812 76.7074 28.0402 76.4092 28.1613C76.111 28.2824 75.8406 28.463 75.6144 28.6921C74.8292 29.5794 74.7871 31.2225 75.5933 32.1239C76.3574 32.976 77.9371 33.0441 78.83 32.3586C79.7675 31.6286 79.8074 30.2015 79.3738 29.1851C79.0339 28.3846 78.1878 27.9879 77.3488 27.9879Z" fill="black"/>
<path d="M49.0925 24.1407V21.4131H40.0035V35.0182H43.0105V29.7132H48.6238V26.934H43.0386V24.1618L49.0925 24.1407Z" fill="black"/>
<path d="M67.7816 35.0299C67.7816 35.0299 67.7816 33.8562 67.7816 33.4126C67.7535 32.0676 67.7535 30.7179 67.6808 29.3729C67.6246 28.326 66.8253 27.7297 65.7425 28.0842C64.9246 28.3541 64.5964 28.8236 64.587 29.6968C64.573 31.3399 64.573 32.983 64.5683 34.6262V35.0111H61.6902V25.7157H64.3386C64.3855 26.0397 64.4324 26.3612 64.4722 26.6429C64.8661 26.3255 65.2811 26.0354 65.7144 25.7744C67.2753 24.9669 69.6636 25.4528 70.2988 27.2251C70.4017 27.5181 70.4702 27.8222 70.5027 28.1311C70.5988 28.9292 70.6433 29.7531 70.6644 30.5536C70.7042 32.0089 70.6855 35.0299 70.6855 35.0299H67.7816Z" fill="black"/>
<path d="M59.4847 25.7134V35.0299H56.8714C56.8199 34.7083 56.7706 34.4407 56.7191 34.1097C56.4191 34.3562 56.1472 34.6003 55.8542 34.8139C54.612 35.7247 52.3925 35.5674 51.3659 34.3867C50.8686 33.7761 50.6044 33.0081 50.6206 32.2202C50.5644 30.577 50.548 28.9339 50.5199 27.2908C50.5199 26.8612 50.5199 26.4293 50.5199 25.9998C50.5199 25.8425 50.5433 25.6946 50.7542 25.6946H53.4074C53.4312 25.8361 53.4476 25.9787 53.4566 26.1218C53.473 27.7532 53.48 29.3869 53.4988 31.0207C53.4988 31.4901 53.5597 31.9878 53.8902 32.361C54.4527 32.9948 55.8261 33.0488 56.323 32.0958C56.5017 31.7342 56.5978 31.3372 56.6042 30.9338C56.6441 29.4574 56.6441 25.7087 56.6441 25.7087" fill="black"/>
<path d="M23.1566 30.5301C23.2152 33.3281 20.998 35.3703 18.2488 35.3773C17.6096 35.386 16.9752 35.2655 16.3836 35.0231C15.7919 34.7807 15.2552 34.4213 14.8053 33.9664C14.3555 33.5115 14.0019 32.9705 13.7656 32.3756C13.5293 31.7808 13.4151 31.1443 13.43 30.5043C13.4488 27.7297 15.5277 25.6876 18.3519 25.6805C18.9879 25.6738 19.6188 25.795 20.2072 26.0368C20.7956 26.2786 21.3296 26.6362 21.7776 27.0883C22.2256 27.5405 22.5784 28.0781 22.8153 28.6693C23.0522 29.2604 23.1682 29.8932 23.1566 30.5301ZM18.3003 27.3729C17.5805 27.3411 16.8754 27.5835 16.3269 28.0513C15.23 28.9715 15.0261 30.739 15.5605 31.9643C16.4066 33.8914 18.673 34.0581 19.9738 33.2131C20.9113 32.6098 21.2628 31.7014 21.305 30.631C21.3824 28.8518 20.1917 27.3401 18.3074 27.3729H18.3003Z" fill="black"/>
<path d="M35.5011 35.0299V34.7107C35.5011 32.9314 35.5245 31.1521 35.5011 29.3729C35.487 28.6194 35.2152 27.9386 34.4699 27.5959C33.298 27.0607 31.7628 27.3988 31.2308 28.8072C30.9378 29.5841 30.9261 30.3916 30.9097 31.1967C30.8863 32.4666 30.9097 35.0628 30.9097 35.0628H29.173V26.3777C29.173 25.9927 29.1847 25.9786 29.562 25.9763H30.891V27.103C30.9847 27.0561 31.048 27.0467 31.0808 27.0068C31.8777 26.0444 32.9113 25.6617 34.1464 25.6688C34.8295 25.6598 35.4954 25.8834 36.0349 26.3031C36.5744 26.7227 36.9556 27.3135 37.116 27.9785C37.2209 28.4094 37.2821 28.8498 37.2988 29.293C37.3199 31.0934 37.2988 35.044 37.2988 35.044L35.5011 35.0299Z" fill="black"/>
<path d="M26.6206 25.9411V35.0299H25.0128V25.9411H26.6206Z" fill="black"/>
<path d="M27.087 22.6314C27.087 23.4482 26.5503 23.852 25.8425 23.8942C25.5046 23.8918 25.1811 23.7571 24.9411 23.5189C24.7011 23.2807 24.5636 22.958 24.5581 22.6196C24.5546 22.4502 24.5854 22.2817 24.6488 22.1246C24.7122 21.9674 24.8069 21.8248 24.927 21.7054C25.0471 21.586 25.1902 21.4922 25.3476 21.4299C25.5049 21.3675 25.6733 21.3379 25.8425 21.3427C26.0126 21.3312 26.183 21.3571 26.3421 21.4184C26.5011 21.4797 26.6449 21.5751 26.7634 21.6977C26.8819 21.8204 26.9722 21.9675 27.0281 22.1288C27.084 22.29 27.1041 22.4615 27.087 22.6314Z" fill="black"/>
<path d="M10.6667 32.1826C10.6058 32.253 10.5402 32.3234 10.4722 32.3892C9.02845 33.7154 7.36439 33.9971 5.53626 33.3985C4.52666 33.0882 3.66071 32.4273 3.09407 31.5347C2.60481 30.7582 2.30308 29.8782 2.21282 28.9644C1.9972 26.8871 2.94173 24.6078 4.76986 23.5233C6.07064 22.7511 7.73704 22.5844 9.10579 23.2886C9.76653 23.6428 10.3657 24.1018 10.88 24.6477C10.9128 24.6782 12.3355 23.5656 12.4667 23.4741C12.2294 23.2097 11.9774 22.959 11.712 22.7229C10.7031 21.772 9.39779 21.1984 8.01595 21.0986C6.79342 20.9807 5.56085 21.1703 4.43001 21.6502C2.89777 22.2816 1.65414 23.4602 0.940167 24.9576C0.306399 26.2787 0.0653204 27.7546 0.24567 29.2091C0.426019 30.6637 1.02019 32.0356 1.95736 33.1614C3.24642 34.7036 4.97845 35.3397 6.92376 35.4829C8.03711 35.562 9.15277 35.3653 10.1722 34.9102C11.0649 34.486 11.8496 33.8639 12.4667 33.091L10.8777 31.9174C10.7863 32.03 10.7347 32.1075 10.6667 32.1826Z" fill="black"/>
</g>
</g>
<defs>
<filter id="filter0_b_3383_38021" x="-15.4007" y="-15.5882" width="113.303" height="87.1765" filterUnits="userSpaceOnUse" color-interpolation-filters="sRGB">
<feFlood flood-opacity="0" result="BackgroundImageFix"/>
<feGaussianBlur in="BackgroundImageFix" stdDeviation="7.79412"/>
<feComposite in2="SourceAlpha" operator="in" result="effect1_backgroundBlur_3383_38021"/>
<feBlend mode="normal" in="SourceGraphic" in2="effect1_backgroundBlur_3383_38021" result="shape"/>
</filter>
<clipPath id="clip0_3383_38021">
<rect x="0.1875" width="82.1277" height="56" rx="9.35294" fill="white"/>
</clipPath>
</defs>
</svg>
