<svg width="74" height="56" viewBox="0 0 74 56" fill="none" xmlns="http://www.w3.org/2000/svg">
<g clip-path="url(#clip0_3383_38019)">
<path d="M13.3169 18.9097V15.0104H14.1843C15.3384 15.0104 16.0317 15.9566 16.0317 16.9653C16.0317 17.974 15.3384 18.9201 14.1843 18.9201C14.174 18.9097 13.3169 18.9097 13.3169 18.9097ZM18.3706 16.9548C18.3706 14.9166 16.8903 13.0347 14.3379 13.0347H11.0189V20.8869H14.3379C16.921 20.8869 18.3706 19.0036 18.3706 16.9548ZM19.3506 13.0347H21.6676V20.8869H19.3506V13.0347ZM26.7929 21.1014C28.9782 21.1014 30.3561 19.8752 30.6326 18.0753H31.2864V16.5287H27.0284V18.0678H28.3039C28.1927 18.6713 27.7335 19.1809 26.8339 19.1809C25.5789 19.1809 24.966 18.193 24.966 17.0279C24.966 15.8627 25.5511 14.8227 26.7315 14.8227C27.5287 14.8227 27.9573 15.3114 28.0289 15.7703H30.5609C30.4146 14.1582 28.9168 12.8261 26.7578 12.8261C24.1352 12.8261 22.6344 14.7631 22.6344 17.007C22.6344 19.2121 24.0971 21.094 26.7885 21.094L26.7929 21.1014ZM32.0924 13.0422H34.4093V20.8943H32.0924V13.0422ZM37.2485 20.8943H39.5347V15.0387H41.2812V13.0422H35.502V15.0387H37.2485V20.8943ZM45.1003 15.3919L45.9165 18.2705H44.2783L45.0959 15.3785L45.1003 15.3919ZM43.5382 20.8943L43.8029 19.9884H46.3963L46.6611 20.8943H49.2135L46.3042 13.0422H43.9053L41.0603 20.8869L43.5382 20.8943ZM50.0619 13.0422V20.8943H54.3711V18.8978H52.3584V13.0422H50.0619ZM14.8176 32.1391C17.2063 32.1391 18.6207 30.5896 18.8606 28.8314H16.4413C16.2877 29.5079 15.7099 30.0234 14.8323 30.0234C13.6884 30.0234 12.9541 29.1503 12.9541 28.006C12.9541 26.9451 13.5963 25.9885 14.8118 25.9885C15.7713 25.9885 16.3228 26.5711 16.4559 27.3087H18.8547C18.6602 25.4268 17.2106 23.8668 14.8118 23.8668C12.1262 23.8668 10.605 25.8321 10.605 28.006C10.605 30.1798 12.1467 32.1451 14.822 32.1451L14.8176 32.1391ZM23.0776 32.1391C25.0786 32.1391 26.2956 30.901 26.2956 29.1964V24.0695H24.0064V29.1756C24.0114 29.3037 23.9909 29.4315 23.9463 29.5513C23.9016 29.6712 23.8336 29.7806 23.7464 29.873C23.6591 29.9655 23.5545 30.039 23.4387 30.0892C23.3229 30.1394 23.1983 30.1653 23.0725 30.1653C22.9466 30.1653 22.8221 30.1394 22.7063 30.0892C22.5905 30.039 22.4859 29.9655 22.3986 29.873C22.3114 29.7806 22.2434 29.6712 22.1987 29.5513C22.154 29.4315 22.1336 29.3037 22.1385 29.1756V24.0695H19.8509V29.1964C19.8509 30.901 21.0766 32.1391 23.0776 32.1391V32.1391ZM30.8768 28.1043H29.9275V25.8887H30.8871C31.5 25.8887 31.8978 26.3983 31.8978 27.0017C31.8978 27.6052 31.5 28.1043 30.8739 28.1043H30.8768ZM34.2411 27.0017C34.2411 25.4209 33.1075 24.0695 31.3405 24.0695H27.6413V31.9201H29.9275V29.9131H30.3561L31.6726 31.9201H34.3684L32.8266 29.5287C33.2621 29.2731 33.6224 28.9033 33.8701 28.4579C34.1178 28.0125 34.2439 27.5076 34.2352 26.9958L34.2411 27.0017ZM37.62 25.8887H38.5737C39.1866 25.8887 39.5844 26.3983 39.5844 27.0017C39.5844 27.6052 39.1763 28.1147 38.5605 28.1147H37.6112L37.62 25.8887ZM37.62 29.9116H38.0486L39.3562 31.9186H42.052L40.5103 29.5272C40.9454 29.2712 41.3055 28.9014 41.5531 28.4561C41.8008 28.0107 41.9271 27.506 41.9189 26.9943C41.9189 25.4134 40.7853 24.062 39.0183 24.062H35.3191V31.9231H37.6054V29.9131L37.62 29.9116ZM47.9834 25.8142V24.0695H43.0174V31.9201H47.979V30.1739H45.3022V28.8627H47.979V27.1895H45.3022V25.8157L47.9834 25.8142ZM54.14 28.7271L51.6285 24.068H49.2881V31.9186H51.586V27.4174L54.1078 31.9201H56.4481V24.0695H54.1356L54.14 28.7271ZM61.6437 30.0159C60.4999 30.0159 59.7656 29.1428 59.7656 27.9985C59.7656 26.9377 60.4092 25.9811 61.6232 25.9811C62.5828 25.9811 63.1342 26.5637 63.2673 27.3012H65.6662C65.4731 25.4194 64.0221 23.8594 61.6232 23.8594C58.9377 23.8594 57.4164 25.8246 57.4164 27.9985C57.4164 30.1724 58.9684 32.1376 61.6437 32.1376C64.0323 32.1376 65.4468 30.5881 65.6867 28.8299H63.2629C63.1094 29.4959 62.517 30.0219 61.6393 30.0219L61.6437 30.0159ZM70.6482 24.068L69.478 26.8646L68.2318 24.068H65.5492L68.1323 29.1532L66.7954 31.9186H69.3683L73.1875 24.068H70.6482ZM14.9815 40.1477H16.2569C16.1443 40.7437 15.685 41.2607 14.7942 41.2607C13.5378 41.2607 12.9263 40.2714 12.9263 39.1077C12.9263 37.9441 13.5114 36.9026 14.6918 36.9026C15.489 36.9026 15.9176 37.4017 15.9893 37.8487H18.5212C18.375 36.2366 16.8771 34.906 14.7182 34.906C12.094 34.906 10.5831 36.8504 10.5831 39.0869C10.5831 41.2905 12.0326 43.1843 14.7386 43.1843C16.9137 43.1843 18.3018 41.9566 18.5768 40.1582H19.2307V38.619H14.9741V40.1477H14.9815ZM23.2809 39.1495H22.3375V36.9234H23.297C23.9099 36.9234 24.3078 37.433 24.3078 38.0364C24.3078 38.6399 23.8997 39.1495 23.2839 39.1495H23.2809ZM26.6306 38.0364C26.6306 36.4556 25.497 35.1131 23.73 35.1131H20.0352V42.9653H22.3214V40.9583H22.75L24.0576 42.9653H26.752L25.2103 40.5739C25.6483 40.3203 26.0113 39.9513 26.2612 39.5056C26.5111 39.06 26.6386 38.5541 26.6306 38.0409V38.0364ZM31.5102 41.0417C30.34 41.0417 29.6525 40.0747 29.6525 39.0347C29.6525 37.9947 30.3459 37.0277 31.5102 37.0277C32.6745 37.0277 33.3693 37.9947 33.3693 39.0347C33.3693 40.0747 32.6848 41.0417 31.5102 41.0417ZM31.5102 34.8956C28.8656 34.8956 27.3341 36.8713 27.3341 39.0347C27.3341 41.1982 28.8656 43.1739 31.5102 43.1739C34.1548 43.1739 35.6965 41.1982 35.6965 39.0347C35.6965 36.8713 34.165 34.8956 31.5102 34.8956V34.8956ZM43.1798 40.2297V35.1072H40.8935V40.2148C40.8981 40.3422 40.8774 40.4693 40.8328 40.5885C40.7883 40.7077 40.7207 40.8166 40.6341 40.9087C40.5475 41.0008 40.4436 41.0742 40.3287 41.1247C40.2137 41.1752 40.0899 41.2017 39.9647 41.2026C39.8389 41.2021 39.7144 41.1759 39.5986 41.1257C39.4829 41.0755 39.3781 41.0022 39.2905 40.9102C39.2029 40.8182 39.1342 40.7093 39.0885 40.5899C39.0427 40.4704 39.0209 40.3429 39.0242 40.2148V35.1072H36.738V40.2342C36.738 41.9402 37.9637 43.1783 39.9647 43.1783C41.9657 43.1783 43.1827 41.9402 43.1827 40.2342L43.1798 40.2297ZM47.7742 39.1495H46.8249V36.9234H47.7888C48.4017 36.9234 48.7996 37.433 48.7996 38.0364C48.7996 38.6399 48.3915 39.1495 47.7757 39.1495H47.7742ZM48.2276 35.1072H44.5387V42.9593H46.8249V40.9479H48.2276C49.9829 40.9479 51.1282 39.6069 51.1282 38.0364C51.1282 36.466 49.9902 35.1072 48.2276 35.1072ZM0.1875 13.0347H7.89458V20.8869H0.1875V13.0347ZM39.1163 46.1478H46.8249V54H39.1163V46.1478ZM44.6396 2H52.3481V9.85215H44.6396V2Z" fill="black"/>
</g>
<defs>
<clipPath id="clip0_3383_38019">
<rect width="73" height="56" fill="white" transform="translate(0.1875)"/>
</clipPath>
</defs>
</svg>
