<svg width="53" height="56" viewBox="0 0 53 56" fill="none" xmlns="http://www.w3.org/2000/svg">
<g clip-path="url(#clip0_3384_38443)">
<path d="M20.112 31.6104L18.6889 29.6981L17.428 27.9991L18.6889 26.3L20.112 24.3878L25.9014 16.6031C26.2926 16.0782 26.0827 15.647 25.434 15.647H20.2487C19.8866 15.668 19.5323 15.7635 19.2076 15.9279C18.8828 16.0923 18.5944 16.322 18.3598 16.6031L12.5688 24.3878L11.1473 26.3L9.88477 27.9991L11.1473 29.6981L12.5688 31.6104L18.3598 39.3951C18.5944 39.6761 18.8828 39.9059 19.2076 40.0702C19.5323 40.2346 19.8866 40.3302 20.2487 40.3511H25.4387C26.0875 40.3511 26.2973 39.9199 25.9062 39.3951L20.112 31.6104Z" fill="#111827"/>
<path d="M8.62087 15.7163H2.93324C2.65837 15.7163 2.43555 15.9426 2.43555 16.2218V39.8439C2.43555 40.1231 2.65837 40.3495 2.93324 40.3495H8.62087C8.89571 40.3495 9.11856 40.1231 9.11856 39.8439V16.2218C9.11856 15.9426 8.89571 15.7163 8.62087 15.7163Z" fill="#111827"/>
<path d="M42.8997 28.687L44.0922 30.2908L45.4343 32.0964L50.9025 39.4498C51.2729 39.9457 51.0726 40.3527 50.4604 40.3527H45.5599C45.2177 40.3321 44.8831 40.2416 44.5763 40.0864C44.2695 39.9313 43.9966 39.7147 43.7742 39.4498L38.306 32.0964L36.964 30.2908L35.7715 28.687H42.8997Z" fill="#111827"/>
<path d="M34.8958 39.4486C34.6737 39.7139 34.4009 39.9307 34.094 40.0859C33.7871 40.2411 33.4524 40.3314 33.1101 40.3514H28.2096C27.5974 40.3514 27.3986 39.9444 27.7675 39.4486L43.7826 17.9228C44.005 17.6579 44.2778 17.4414 44.5847 17.2863C44.8915 17.1311 45.226 17.0406 45.5682 17.02H50.4608C51.073 17.02 51.2733 17.427 50.9029 17.9228L34.8958 39.4486Z" fill="#4B5563"/>
<path d="M35.7719 28.6871L34.5793 27.0818C34.2089 26.5859 33.6062 25.7736 33.2357 25.2761L27.7675 17.9243C27.3986 17.4285 27.5974 17.0215 28.2096 17.0215H33.1101C33.4524 17.0415 33.7871 17.1318 34.094 17.287C34.4009 17.4422 34.6737 17.659 34.8958 17.9243L40.364 25.2761L41.7076 27.0818L42.9001 28.6871H35.7719Z" fill="#111827"/>
</g>
<defs>
<clipPath id="clip0_3384_38443">
<rect width="52" height="56" fill="white" transform="translate(0.814453)"/>
</clipPath>
</defs>
</svg>
