<svg width="121" height="56" viewBox="0 0 121 56" fill="none" xmlns="http://www.w3.org/2000/svg">
<g clip-path="url(#clip0_3384_38439)">
<path d="M37.3604 25.6191C36.9281 25.6191 36.5135 25.4474 36.2079 25.1417C35.9022 24.836 35.7305 24.4214 35.7305 23.9892C35.7305 23.5569 35.9022 23.1423 36.2079 22.8366C36.5135 22.531 36.9281 22.3593 37.3604 22.3593C37.5783 22.3503 37.7958 22.3857 37.9997 22.4632C38.2036 22.5406 38.3897 22.6587 38.5467 22.8101C38.7037 22.9615 38.8284 23.1431 38.9132 23.3441C38.9981 23.545 39.0413 23.7611 39.0403 23.9792C39.0398 24.1978 38.9958 24.4141 38.9107 24.6155C38.8256 24.8168 38.7012 24.9992 38.5447 25.1519C38.3883 25.3046 38.203 25.4246 37.9996 25.5048C37.7963 25.585 37.5789 25.6239 37.3604 25.6191V25.6191Z" fill="black"/>
<path d="M113.385 35.6906C111.397 35.6906 109.871 33.8327 109.871 31.4569C109.854 30.809 109.967 30.1644 110.205 29.5613C110.442 28.9583 110.798 28.4091 111.252 27.9464C111.705 27.4837 112.248 27.1169 112.846 26.868C113.444 26.619 114.087 26.4929 114.735 26.4971C115.331 26.5051 115.919 26.6365 116.462 26.8831L116.528 26.9131V24.9732C116.528 24.0713 116.42 24.0113 115.958 23.9013L115.818 23.8673L115.219 23.6913L119.318 22.3594V33.3148C119.318 34.2967 119.448 34.5427 120.046 34.7147L120.41 34.8067L120.3 35.0647L116.532 35.6866V33.8407L116.448 33.9467C115.581 35.0427 114.439 35.6906 113.385 35.6906ZM114.865 27.0211C113.517 27.0211 112.865 28.205 112.865 30.6429C112.865 32.7788 113.655 34.1047 114.925 34.1047C115.338 34.1005 115.735 33.9379 116.032 33.6504C116.33 33.3628 116.506 32.9722 116.524 32.5588V28.687C116.526 27.4291 115.407 27.0211 114.865 27.0211Z" fill="black"/>
<path d="M34.9551 35.4005L34.9991 35.1505L35.637 35.0505C35.7575 35.0418 35.87 34.9876 35.9518 34.8987C36.0336 34.8099 36.0784 34.6932 36.077 34.5725V29.2068C36.077 28.1929 35.613 27.9369 35.2091 27.8269L34.9691 27.7669L38.8609 26.501V34.5605C38.8573 34.6765 38.8959 34.7898 38.9694 34.8795C39.043 34.9692 39.1465 35.0292 39.2609 35.0485L39.9288 35.1525L39.9728 35.4025L34.9551 35.4005Z" fill="black"/>
<path d="M78.3654 40.1594L78.4094 39.9094L79.0473 39.8094C79.1678 39.8008 79.2803 39.7465 79.3621 39.6577C79.4439 39.5689 79.4887 39.4522 79.4873 39.3315V29.284C79.4873 28.6021 79.1813 28.0141 78.7594 27.8841L78.3594 27.7821L82.2732 26.4922V28.3461L82.3572 28.2401C83.2191 27.1462 84.2831 26.4922 85.337 26.4922C87.3229 26.4982 88.6869 28.5421 88.6869 30.9159C88.6869 34.0818 86.267 35.6877 83.8871 35.6877C83.3488 35.7033 82.8137 35.601 82.3192 35.3877L82.2532 35.3577V39.3255C82.2519 39.4465 82.297 39.5635 82.3791 39.6523C82.4613 39.7412 82.5744 39.7953 82.6952 39.8034L83.3311 39.9034L83.3751 40.1534L78.3654 40.1594ZM83.8551 28.0341C83.4406 28.0508 83.0471 28.2213 82.7513 28.5122C82.4556 28.8032 82.2787 29.1938 82.2552 29.608V33.6238C82.2576 34.0249 82.4154 34.4095 82.6955 34.6967C82.9756 34.9839 83.3561 35.1513 83.7571 35.1637C84.6711 35.1637 85.841 34.4297 85.841 31.3179C85.835 29.182 85.125 28.0341 83.8551 28.0341Z" fill="black"/>
<path d="M57.8211 34.5727V29.717C57.8193 29.5139 57.7771 29.3131 57.6969 29.1265C57.6167 28.9398 57.5001 28.771 57.3539 28.6299C57.2078 28.4888 57.035 28.3782 56.8457 28.3046C56.6563 28.231 56.4542 28.1958 56.2512 28.2011C55.8673 28.2107 55.5018 28.3673 55.2302 28.6386C54.9585 28.9099 54.8014 29.2752 54.7912 29.659V34.5627C54.7903 34.6765 54.8301 34.7869 54.9034 34.8738C54.9768 34.9608 55.0789 35.0185 55.1912 35.0367L55.8592 35.1407L55.9032 35.3907H51.0594L51.1034 35.1407L51.5974 35.0367C51.7087 35.0187 51.81 34.9618 51.8832 34.8761C51.9565 34.7904 51.9969 34.6815 51.9974 34.5687V24.8573C51.9978 24.6336 51.9309 24.415 51.8053 24.2298C51.6798 24.0447 51.5014 23.9017 51.2934 23.8193L50.8574 23.6473L54.8192 22.3574V28.2931L54.9052 28.1631C54.9172 28.1471 56.0352 26.4992 58.0151 26.4992C58.6988 26.5156 59.3511 26.7899 59.841 27.2671C60.299 27.7451 60.5749 28.5871 60.5749 29.515L60.5949 34.5747C60.594 34.6885 60.6338 34.7989 60.7071 34.8858C60.7805 34.9728 60.8826 35.0305 60.9949 35.0487L61.6629 35.1527L61.7069 35.4027H56.8731L56.9171 35.1527L57.4111 35.0487C57.5224 35.0307 57.6237 34.9738 57.6969 34.8881C57.7702 34.8024 57.8106 34.6935 57.8111 34.5807" fill="black"/>
<path d="M24.3563 23.1864C24.3576 23.0656 24.3129 22.949 24.2311 22.8601C24.1493 22.7713 24.0368 22.717 23.9163 22.7084L23.2784 22.6084L23.2344 22.3584H28.7381L28.6901 22.6084L28.0521 22.7084C27.9317 22.717 27.8191 22.7713 27.7374 22.8601C27.6556 22.949 27.6108 23.0656 27.6122 23.1864V34.4417C27.6122 34.9717 28.3061 34.8917 28.3061 34.8917C30.29 34.8917 31.52 34.1477 32.8499 31.2499L33.0679 30.7739H33.6899L33.1339 35.3977H23.2344L23.2784 35.1477L23.9163 35.0477C24.0368 35.039 24.1493 34.9847 24.2311 34.8959C24.3129 34.8071 24.3576 34.6904 24.3563 34.5697V23.1864V23.1864Z" fill="black"/>
<path d="M66.2883 35.6893C65.6178 35.6814 64.9776 35.409 64.5068 34.9315C64.036 34.454 63.7728 33.81 63.7745 33.1394V28.0057H61.8105L63.0305 26.8058H63.4445C63.4879 26.8058 63.5309 26.7972 63.5709 26.7804C63.611 26.7637 63.6473 26.7392 63.6778 26.7083C63.7083 26.6774 63.7324 26.6408 63.7486 26.6005C63.7649 26.5603 63.773 26.5172 63.7725 26.4738V25.4078L66.3723 24.5459V26.8098H68.8682L67.7263 28.0097H66.3803V32.8274C66.3803 34.0614 67.2623 34.5093 67.8563 34.5093C68.11 34.5069 68.3598 34.446 68.5862 34.3313L68.6202 34.3173L68.8662 34.6033C68.1562 35.2373 67.4403 35.6893 66.2883 35.6893Z" fill="black"/>
<path d="M93.2178 30.1788L98.5675 30.2608C98.5875 30.0948 98.5915 29.5648 98.5835 29.3788C98.5235 28.0269 97.5836 26.501 95.1257 26.501C92.3479 26.501 90.252 28.5349 90.252 31.3007C90.252 33.8186 92.0739 35.7005 94.4917 35.7005C96.4317 35.7005 97.7936 34.8365 98.5496 33.0826L98.3496 32.9106C98.1076 33.2893 97.7723 33.5994 97.3758 33.811C96.9793 34.0225 96.535 34.1285 96.0857 34.1185C94.3538 34.1185 93.2218 32.7186 93.2018 30.5407C93.2 30.4199 93.2053 30.299 93.2178 30.1788V30.1788ZM93.2178 29.5108C93.3538 27.8249 93.9358 27.0589 94.8517 27.0589C94.9767 27.0563 95.1008 27.0795 95.2165 27.127C95.3321 27.1745 95.4367 27.2452 95.5237 27.3349C95.9037 27.7209 96.0877 28.3349 96.0697 29.4948V29.5408L93.2158 29.5608L93.2178 29.5108Z" fill="black"/>
<path d="M102.927 30.1788L108.277 30.2608C108.297 30.0948 108.301 29.5648 108.293 29.3788C108.233 28.0269 107.293 26.501 104.835 26.501C102.057 26.501 99.9609 28.5349 99.9609 31.3007C99.9609 33.8186 101.783 35.7005 104.201 35.7005C106.141 35.7005 107.503 34.8365 108.259 33.0826L108.059 32.9106C107.817 33.2933 107.48 33.6069 107.081 33.8207C106.683 34.0345 106.235 34.1413 105.783 34.1305C104.051 34.1305 102.919 32.7306 102.899 30.5527C102.9 30.4276 102.91 30.3027 102.927 30.1788V30.1788ZM102.927 29.5108C103.063 27.8249 103.645 27.0589 104.561 27.0589C104.686 27.0563 104.81 27.0795 104.925 27.127C105.041 27.1745 105.146 27.2452 105.233 27.3349C105.613 27.7209 105.797 28.3349 105.779 29.4948V29.5408L102.925 29.5608L102.927 29.5108Z" fill="black"/>
<path d="M74.5084 29.9068C73.3264 29.4528 72.4365 29.1068 72.4365 28.2329C72.4365 27.4329 72.9944 26.9669 73.7984 26.9669C74.1943 26.9673 74.5825 27.0766 74.9204 27.2829L76.4163 29.4548L76.9283 29.4348L76.8283 26.501L75.8643 26.815C75.2007 26.6107 74.5107 26.5049 73.8164 26.501C71.6905 26.501 70.2726 27.6229 70.2726 29.3748C70.2726 30.9887 71.4925 31.6007 72.9905 32.1747C74.0924 32.6086 75.1183 32.9186 75.1183 34.0305C75.1183 34.6645 74.5184 35.2845 73.5424 35.2845C72.5185 35.2845 71.9865 34.7725 71.3185 33.7886L70.7706 32.6486L70.2446 32.7766L70.0586 35.0865C71.1598 35.4796 72.3192 35.6851 73.4884 35.6945C76.1263 35.6945 77.3282 34.2945 77.3282 32.7606C77.3242 31.0287 75.8663 30.4588 74.5084 29.9068Z" fill="black"/>
<path d="M47.198 33.7265H44.0682C43.8813 33.7127 43.7062 33.63 43.5768 33.4943C43.4475 33.3587 43.3731 33.1799 43.3682 32.9926C43.3644 32.8929 43.3807 32.7936 43.416 32.7003C43.4513 32.6071 43.5049 32.5219 43.5737 32.4498C43.6425 32.3776 43.7251 32.32 43.8165 32.2803C43.908 32.2406 44.0065 32.2196 44.1062 32.2186C44.1488 32.2154 44.1915 32.2154 44.2341 32.2186C44.5317 32.2727 44.8337 32.2988 45.1361 32.2966C47.512 32.2966 49.1219 31.0587 49.1219 29.3128C49.1219 28.7928 49.0359 28.4148 48.7419 28.0848L49.8319 27.0849L49.5679 26.3149L47.704 27.0829C46.9534 26.6943 46.1193 26.4945 45.2741 26.5009C42.9582 26.5009 41.3863 27.9888 41.3863 29.5588C41.3863 30.9127 42.1522 31.6606 43.2722 32.0526V32.0726C42.1143 32.4066 41.0543 33.1925 41.0543 34.2525C41.0543 35.1944 41.9963 36.0384 43.1562 36.1764C41.9783 36.6284 40.8203 37.1583 40.8203 38.1983C40.8203 39.5142 42.0763 40.1622 44.6201 40.1622C47.86 40.1622 50.1579 38.3623 50.1579 36.2544C50.1619 34.6785 48.9459 33.7265 47.198 33.7265ZM44.3441 27.6069C44.4307 27.4403 44.5613 27.3007 44.7218 27.2034C44.8823 27.106 45.0664 27.0547 45.2541 27.0549C45.9921 27.0549 46.454 27.6849 46.454 29.4768C46.454 31.2687 46.1081 31.8766 45.2541 31.8766C44.5321 31.8766 44.1162 31.1627 44.1162 29.4548C44.1142 28.6188 44.1602 27.9948 44.3441 27.6069V27.6069ZM44.8801 39.4862C43.6442 39.4862 42.9182 38.7582 42.9182 37.6983C42.9182 36.8983 43.7902 36.2004 44.5821 36.2004H46.254C47.654 36.2984 48.3159 36.6004 48.3159 37.6003C48.3159 38.7142 46.472 39.4862 44.8901 39.4862H44.8801Z" fill="black"/>
<path d="M13.4515 28.8791H6.93184V22.3595L0.410156 15.8379V22.3595V28.8791V35.4008H6.93184H13.4515H19.9732L13.4515 28.8791Z" fill="black"/>
</g>
<defs>
<clipPath id="clip0_3384_38439">
<rect width="120" height="56" fill="white" transform="translate(0.410156)"/>
</clipPath>
</defs>
</svg>
