<svg width="121" height="56" viewBox="0 0 121 56" fill="none" xmlns="http://www.w3.org/2000/svg">
<g filter="url(#filter0_b_3383_37990)">
<g clip-path="url(#clip0_3383_37990)">
<path d="M114.284 32.7378V28.0213C115.575 28.064 116.951 28.3842 118.327 29.0244L119.174 26.8476H114.284V22.622C116.02 22.6646 118.2 22.8354 119.894 23.4329L120.74 21.3201H110.368L110.792 21.8537C111.257 22.4726 111.405 22.814 111.405 23.7531V32.2896C111.405 33.2287 111.3 33.5488 110.792 34.189L110.368 34.7226H120.063L120.635 31.7988C119.301 32.8659 116.93 33.3781 115.3 33.3781C114.644 33.3567 114.284 33.2287 114.284 32.7378ZM108.061 32.2683V23.7317C108.061 22.6646 108.273 22.3659 108.675 21.8323L109.098 21.2988H105.373L105.796 21.8323C106.198 22.3445 106.41 22.6646 106.41 23.7317V30.7744L98.9164 21.2988H95.5507L95.9953 21.811C96.5033 22.4299 96.7996 23.0061 96.7996 24.0092V32.2683C96.7996 33.3354 96.588 33.6342 96.1858 34.1677L95.7624 34.7012H99.4879L99.0646 34.1677C98.6624 33.6555 98.4507 33.3354 98.4507 32.2683V25.247L105.923 34.7012H109.098L108.675 34.1677C108.146 33.4848 108.061 33.1006 108.061 32.2683ZM88.0362 33.5701C85.0303 33.5701 83.7814 30.2622 83.7814 27.2744C83.7814 24.3506 84.9668 22.4299 87.2741 22.4299C90.28 22.4299 91.5289 25.7592 91.5289 28.747C91.5289 31.8201 90.2165 33.5701 88.0362 33.5701ZM87.6763 35C91.7617 35 94.6829 32.0976 94.6829 28C94.6829 23.9024 91.7617 21 87.6763 21C83.5909 21 80.6698 23.9024 80.6698 28C80.6698 32.0976 83.5698 35 87.6763 35ZM73.4092 33.3567C76.4786 33.3567 78.0873 33.186 79.6326 31.8201L80.0771 31.4146L79.4421 34.6799H69.4297L76.6479 22.6006C72.5414 22.6006 71.4406 23.0701 70.4457 23.9238L69.9801 24.3293L70.4034 21.2988H80.4581L73.2611 33.3354H73.4092V33.3567ZM67.5669 32.2683V23.7317C67.5669 22.8994 67.6516 22.5152 68.1808 21.8323L68.6041 21.2988H63.6721L64.0954 21.8323C64.5611 22.4512 64.7093 22.7927 64.7093 23.7317V26.9329H58.9305V23.7317C58.9305 22.8994 59.0151 22.5152 59.5443 21.8323L59.9677 21.2988H55.0356L55.459 21.8323C55.9246 22.4512 56.0728 22.7927 56.0728 23.7317V32.2683C56.0728 33.2073 55.9458 33.5488 55.459 34.1677L55.0356 34.7012H59.9677L59.5443 34.1677C59.0151 33.5061 58.9305 33.122 58.9305 32.2683V28.5122H64.7093V32.2683C64.7093 33.2073 64.5823 33.5488 64.0954 34.1677L63.6721 34.7012H68.583L68.1596 34.1677C67.6516 33.4848 67.5669 33.1006 67.5669 32.2683ZM53.702 23.8811L54.1889 24.3293L53.7655 21.2988H43.0758L42.6524 24.3293L43.1393 23.8811C43.9648 23.1768 45.5101 22.6646 46.9918 22.622V32.2683C46.9918 33.2073 46.886 33.5488 46.251 34.189L45.7853 34.6799H51.0984L50.6327 34.189C49.8918 33.3994 49.8918 33.0153 49.8918 32.2683V22.622C51.4794 22.6433 52.8553 23.1341 53.702 23.8811ZM36.0058 22.5793C37.8262 22.5793 38.9057 23.4543 38.9057 24.9482C38.9057 26.4421 38.0379 27.1463 36.2174 27.5945L34.2488 28.0427V23.3689C34.2277 22.7287 34.5875 22.5793 36.0058 22.5793ZM36.2174 28.9177C37.2123 30.8384 38.2919 32.7592 39.4349 34.7012H43.351C42.6313 34.1464 42.1021 33.5701 41.086 32.0762C40.2393 30.8171 39.5408 29.6006 38.7364 28.1707C40.7685 27.3598 41.7422 26.186 41.7422 24.6281C41.7422 22.5366 40.0276 21.2988 37.17 21.2988H30.354L30.7773 21.811C31.2642 22.4299 31.3912 22.7713 31.3912 23.7104V32.247C31.3912 33.314 31.1795 33.6128 30.7773 34.1464L30.354 34.6799H35.2226L34.7992 34.1464C34.1853 33.3567 34.1853 32.9512 34.1853 32.247V29.3872L36.2174 28.9177ZM22.7336 33.5701C19.7277 33.5701 18.4788 30.2622 18.4788 27.2744C18.4788 24.3506 19.6642 22.4299 21.9715 22.4299C24.9773 22.4299 26.2262 25.7592 26.2262 28.747C26.2051 31.8201 24.9138 33.5701 22.7336 33.5701ZM22.3525 35C26.4379 35 29.3591 32.0976 29.3591 28C29.3591 23.9024 26.4379 21 22.3525 21C18.2672 21 15.346 23.9024 15.346 28C15.346 32.0976 18.246 35 22.3525 35ZM13.2716 32.2683V23.7317C13.2716 22.6646 13.4832 22.3659 13.8854 21.8323L14.3088 21.2988H10.5621L10.9854 21.8323C11.3876 22.3445 11.5993 22.6646 11.5993 23.7317V30.7744L4.12708 21.2988H0.740234L1.18476 21.811C1.69278 22.4299 1.98913 23.0061 1.98913 24.0305V32.2683C1.98913 33.3354 1.77746 33.6342 1.37527 34.1677L0.951912 34.7012H4.67744L4.25409 34.1677C3.8519 33.6555 3.64022 33.3354 3.64022 32.2683V25.247L11.1124 34.7012H14.2876L13.8643 34.1677C13.3562 33.4848 13.2716 33.1006 13.2716 32.2683Z" fill="black"/>
</g>
</g>
<defs>
<filter id="filter0_b_3383_37990" x="-14.848" y="-15.5882" width="151.176" height="87.1765" filterUnits="userSpaceOnUse" color-interpolation-filters="sRGB">
<feFlood flood-opacity="0" result="BackgroundImageFix"/>
<feGaussianBlur in="BackgroundImageFix" stdDeviation="7.79412"/>
<feComposite in2="SourceAlpha" operator="in" result="effect1_backgroundBlur_3383_37990"/>
<feBlend mode="normal" in="SourceGraphic" in2="effect1_backgroundBlur_3383_37990" result="shape"/>
</filter>
<clipPath id="clip0_3383_37990">
<rect x="0.740234" width="120" height="56" rx="9.35294" fill="white"/>
</clipPath>
</defs>
</svg>
