<svg width="121" height="56" viewBox="0 0 121 56" fill="none" xmlns="http://www.w3.org/2000/svg">
<g clip-path="url(#clip0_3383_37965)">
<path d="M58.5156 16.8451L59.2459 12.3072C59.2858 12.0666 59.423 11.8267 59.741 11.8267H63.8181C64.5936 11.8333 65.4105 11.9022 66.0142 12.2131C66.0112 12.3842 65.9954 12.6611 65.9675 12.8366C65.5989 15.1437 63.583 16.8466 61.2083 16.8466H58.5164L58.5156 16.8451Z" fill="#111827"/>
<path d="M66.9978 12.7578C66.9887 12.9636 66.9767 13.1487 66.945 13.3472C66.5283 15.9586 64.2146 17.8858 61.5257 17.8858H58.8579C58.5609 17.8858 58.307 18.0983 58.261 18.3871L56.9632 26.4249C56.9158 26.7181 57.1464 26.9824 57.4486 26.9824H60.3056C60.6138 26.9824 60.852 26.761 60.9009 26.4915L61.6078 22.1343C61.6508 21.8692 61.8829 21.6737 62.1565 21.6737H63.8559C66.5448 21.6737 68.8585 19.7465 69.2752 17.1351C69.5714 15.2811 68.6211 13.5945 66.997 12.7586L66.9978 12.7578Z" fill="#111827"/>
<path d="M58.3313 11.2441C58.3735 10.979 58.6063 10.7835 58.8799 10.7835H63.7129C64.5909 10.785 65.4296 10.8428 66.08 11.173C66.0876 8.76667 63.9096 6.98748 61.3827 7.00007H55.5376C55.2678 7.01191 55.0191 7.20886 54.9739 7.50058L52.5412 22.624C52.4786 22.9328 52.7213 23.1956 53.0152 23.1956H56.4065L58.3313 11.2441Z" fill="#111827"/>
<path d="M5.08339 48.1474L0.921875 38.2778H1.84054L5.50015 47.062L9.15975 38.2778H10.0355L5.88826 48.1474H5.0849H5.08339Z" fill="#111827"/>
<path d="M18.4656 38.2781H24.5217V39.0392H19.3406V42.7049H24.0047V43.452H19.3406V47.3858H24.6936V48.1469H18.4648V38.2773L18.4656 38.2781Z" fill="#111827"/>
<path d="M34.7221 39.5047V48.1474H33.875V38.2778H34.8509L40.7352 46.7377V38.2778H41.5823V48.1474H40.8076L34.7228 39.5047H34.7221Z" fill="#111827"/>
<path d="M50.0828 38.2778H58.708V39.039H54.8472V48.1474H53.9715V39.039H50.082V38.2778H50.0828Z" fill="#111827"/>
<path d="M66.7969 44.087V38.2778H67.6726V43.9878C67.6726 46.3845 68.8641 47.5129 70.8009 47.5129C72.7377 47.5129 73.9292 46.3852 73.9292 43.9878V38.2778H74.8049V44.087C74.8049 46.8931 73.1401 48.3029 70.8009 48.3029C68.4616 48.3029 66.7969 46.8931 66.7969 44.087Z" fill="#111827"/>
<path d="M90.5028 48.1474C89.297 46.9346 88.0347 45.1443 87.2592 43.9034H84.8484V48.1474H83.9727V38.2778H86.642C88.9526 38.2778 90.2586 39.2085 90.2586 41.0269C90.2586 42.3945 89.297 43.3392 88.1492 43.7198C88.9526 45.0592 90.3883 46.8924 91.6363 48.1467H90.5028V48.1474ZM84.8484 43.1704H87.5177C88.465 42.9727 89.3257 42.296 89.3257 41.0269C89.3257 39.7579 88.4213 39.039 86.6563 39.039H84.8484V43.1704Z" fill="#111827"/>
<path d="M99.9851 38.2776H106.041V39.0387H100.86V42.7045H105.524V43.4515H100.86V47.3853H106.213V48.1464H99.9844V38.2769L99.9851 38.2776Z" fill="#111827"/>
<path d="M114.309 46.4849C115.413 47.289 116.519 47.5281 117.423 47.5281C119.001 47.5281 120.035 46.7811 120.035 45.6245C120.035 43.1287 114.853 43.8054 114.853 40.732C114.853 39.1386 116.361 38.1235 118.025 38.1235C118.828 38.1235 119.647 38.2501 120.464 38.6737V39.5762C119.588 39.055 118.914 38.8854 118.025 38.8854C116.733 38.8854 115.728 39.534 115.728 40.6905C115.728 43.1013 120.924 42.4667 120.924 45.5831C120.924 47.1624 119.402 48.3041 117.437 48.3041C116.332 48.3041 115.012 47.9516 114.309 47.4296V46.4849Z" fill="#111827"/>
</g>
<defs>
<clipPath id="clip0_3383_37965">
<rect width="120.002" height="56" fill="white" transform="translate(0.921875)"/>
</clipPath>
</defs>
</svg>
