<svg width="118" height="56" viewBox="0 0 118 56" fill="none" xmlns="http://www.w3.org/2000/svg">
<g filter="url(#filter0_b_3383_37992)">
<g clip-path="url(#clip0_3383_37992)">
<path d="M89.6489 18.9143V18.6392H92.7926C92.7926 22.7763 92.7926 31.8901 92.7926 31.8901H94.1079V32.1606H91.1461V30.9666C91.1461 31.2371 90.1293 31.8994 89.9101 32.0207C89.4581 32.3207 88.9146 32.4512 88.3756 32.3892C87.2796 32.2287 86.2823 31.6669 85.5771 30.8127C83.7581 28.5645 84.6163 25.0058 87.3728 24.0076C88.042 23.7391 88.7838 23.7113 89.4712 23.9291C90.1586 24.1469 90.749 24.5967 91.1415 25.2017V18.9143H89.6489ZM86.3933 28.0375C86.373 28.9751 86.556 29.9059 86.9297 30.766C87.0723 31.1127 87.2962 31.4199 87.5827 31.6616C88.7488 32.5944 90.6238 31.5963 90.9036 30.2623C91.1912 28.9601 91.2134 27.6134 90.9689 26.3024C90.9254 25.9044 90.787 25.5226 90.5654 25.189C90.3439 24.8555 90.0456 24.5799 89.6956 24.3854C89.2594 24.1575 88.7576 24.0883 88.2761 24.1895C87.7945 24.2908 87.3631 24.5562 87.0556 24.9405C86.7863 25.3643 86.6128 25.8418 86.5473 26.3397C86.4489 26.9004 86.3975 27.4683 86.3933 28.0375Z" fill="black"/>
<path d="M64.4017 32.1606V31.8901H63.0631V26.6849C63.0874 26.2123 63.0306 25.739 62.8952 25.2856C62.8315 25.1191 62.7452 24.9621 62.6386 24.8192C62.213 24.2968 61.6074 23.9525 60.9409 23.8537C60.2151 23.7066 59.4608 23.8189 58.8093 24.1709C58.0736 24.6197 57.4486 25.2287 56.981 25.9526V18.6392H53.9259V18.9143H55.4138V31.8901H53.9259V32.1606H58.3756V31.8901H56.9763V27.3239C56.9762 26.8819 57.0834 26.4465 57.2888 26.0552C57.4089 25.8258 57.551 25.6087 57.7133 25.4069C58.1308 24.863 58.7056 24.4607 59.3597 24.2548C59.9521 24.0916 60.759 24.1429 61.1694 24.6793C61.3575 24.9966 61.4362 25.367 61.3933 25.7334V31.8901H60.05V32.1606H64.4017Z" fill="black"/>
<path d="M8.39883 24.0076V25.3602C8.39883 25.3602 8.75797 24.8938 8.91189 24.7073C10.0639 23.4479 11.7104 23.4806 13.2123 24.5207C14.0134 25.0988 14.5902 25.9359 14.8452 26.8903C15.1002 27.8448 15.0176 28.858 14.6115 29.7586C13.9259 31.2511 12.4287 32.4685 10.7169 32.3472C10.3933 32.3267 10.0767 32.2444 9.78409 32.1047C9.21067 31.7814 8.73526 31.3093 8.40816 30.7381V37.0207H9.84473V37.2959H5.40908V37.0207H6.76636V24.2828H5.41375V24.0076H8.39883ZM13.1236 28.2054C13.1299 27.6737 13.0987 27.1422 13.0304 26.6149C12.9417 25.878 12.7785 24.9964 12.1255 24.5254C11.7834 24.299 11.3877 24.1669 10.9782 24.1423C10.5688 24.1177 10.1601 24.2016 9.79342 24.3854C9.43407 24.5883 9.13293 24.8802 8.91893 25.2331C8.70493 25.586 8.58525 25.9879 8.5714 26.4004C8.43771 27.4496 8.42519 28.5106 8.53409 29.5627C8.57895 30.2878 8.8934 30.9699 9.41562 31.475C9.71011 31.7112 10.0567 31.8738 10.4266 31.9492C10.7965 32.0246 11.179 32.0108 11.5425 31.9088C12.4753 31.6289 12.8111 30.7194 12.9417 29.8425C13.0466 29.3026 13.1074 28.7551 13.1236 28.2054Z" fill="black"/>
<path d="M17.3541 32.1606V31.8901H18.8373V18.9143H17.3541V18.6392H20.4977C20.4977 22.7763 20.4977 31.8901 20.4977 31.8901H21.813V32.1606H17.3541Z" fill="black"/>
<path d="M77.6247 32.1606V31.8901H79.1079V18.9143H77.6247V18.6392H80.7683C80.7683 22.7763 80.7683 31.8901 80.7683 31.8901H82.079V32.1606H77.6247Z" fill="black"/>
<path d="M29.0052 31.1672C28.9372 31.2584 28.864 31.3456 28.786 31.4284L28.5295 31.6849C28.3508 31.84 28.1552 31.9746 27.9464 32.086C27.4597 32.3338 26.9149 32.445 26.3699 32.4078C25.8398 32.3974 25.32 32.2598 24.8541 32.0067C24.4858 31.7688 24.221 31.4007 24.1125 30.9759C24.0014 30.5928 24.0161 30.1841 24.1544 29.8099C24.2651 29.5494 24.4276 29.3142 24.6321 29.1185C24.8365 28.9228 25.0787 28.7709 25.3438 28.6718C25.9502 28.4433 26.5658 28.2381 27.1768 28.0235C27.691 27.909 28.1706 27.674 28.5761 27.3379C28.8619 27.0226 29.0476 26.6295 29.1099 26.2086C29.1722 25.7876 29.1081 25.3577 28.9259 24.9731C28.8436 24.792 28.7237 24.6305 28.5741 24.4994C28.4245 24.3683 28.2487 24.2706 28.0584 24.2129C27.951 24.1855 27.8419 24.1652 27.7319 24.1522C27.5181 24.1164 27.2991 24.1261 27.0893 24.1808C26.8795 24.2354 26.6837 24.3338 26.5145 24.4694C26.1414 24.8285 26.3186 25.4442 26.3653 25.892C26.4352 26.6149 25.3205 27.17 24.9007 26.489C24.7071 26.0853 24.677 25.6224 24.8168 25.197C25.1293 24.2642 26.1367 23.9144 27.0136 23.7977C28.0351 23.6392 29.3457 23.8397 30.0733 24.642C30.8009 25.4442 30.7263 26.8201 30.7309 27.9069C30.7356 28.9937 30.7309 30.0431 30.7309 31.1112C30.7309 31.9088 31.5145 31.9927 32.2468 31.7035C32.2468 31.7035 32.3867 31.7035 32.452 31.7035C32.2872 31.9008 32.0881 32.0667 31.8643 32.1933C31.4475 32.3801 30.9903 32.4587 30.5351 32.4218C30.2939 32.3881 30.0621 32.3058 29.8537 32.18C29.6452 32.0541 29.4645 31.8873 29.3224 31.6896C29.1964 31.503 29.1171 31.3211 29.0052 31.1672ZM29.1684 27.7856L27.2608 28.4479C26.986 28.5172 26.7291 28.6441 26.5072 28.8203C26.2853 28.9965 26.1034 29.218 25.9737 29.4699C25.844 29.7218 25.7694 29.9985 25.7549 30.2815C25.7404 30.5645 25.7863 30.8473 25.8895 31.1112C25.9565 31.3321 26.0893 31.5272 26.2701 31.6706C26.451 31.8139 26.6713 31.8987 26.9017 31.9134C27.3041 31.9744 27.7156 31.9095 28.0796 31.7274C28.4437 31.5454 28.7426 31.2552 28.9352 30.8966C29.2664 30.183 29.1684 27.7856 29.1684 27.7856Z" fill="black"/>
<path d="M66.6498 28.0748C66.5286 25.9013 68.8513 23.7324 71.0435 23.7838C73.2357 23.8351 75.4138 25.6494 75.3998 28.0935C75.3859 30.5375 73.1844 32.3472 71.0295 32.3845C68.8747 32.4218 66.5519 30.281 66.6498 28.0748ZM73.4502 28.0748C73.4777 27.412 73.4276 26.7483 73.301 26.0972C73.0911 25.1643 72.592 24.3435 71.5705 24.1895C71.1492 24.107 70.7139 24.1335 70.3057 24.2666C69.8975 24.3996 69.5302 24.6348 69.2384 24.9498C68.9555 25.3307 68.7785 25.7796 68.7254 26.2511C68.4909 27.5789 68.5163 28.9395 68.8 30.2576C68.8439 30.5617 68.9561 30.8518 69.1282 31.1063C69.3002 31.3607 69.5277 31.5729 69.7935 31.7269C70.5351 32.0907 71.8644 32.1653 72.5267 31.5963C73.189 31.0272 73.3149 30.113 73.3942 29.3341C73.3942 29.1662 73.4222 28.9983 73.4316 28.8304C73.4409 28.5879 73.4502 28.3173 73.4595 28.0841L73.4502 28.0748Z" fill="black"/>
<path d="M46.0295 27.4964V28.9657C46.0295 29.7306 46.0295 30.6774 46.4959 31.3304C47.0463 32.0953 48.2729 32.0674 49.0985 31.9088C49.7726 31.8008 50.3773 31.4323 50.7823 30.8826C50.8644 30.7496 50.9547 30.6219 51.0528 30.5002C51.1554 30.3929 51.3466 30.295 51.3886 30.5002C51.4586 30.85 51.0341 31.2838 50.8009 31.489C50.4466 31.7869 50.038 32.0134 49.5976 32.156C48.6534 32.4812 47.625 32.4647 46.6918 32.1093L46.5938 32.0487C45.6129 31.6447 44.8213 30.8842 44.3782 29.9203C43.9352 28.9563 43.8736 27.8603 44.2058 26.8528C44.4255 26.1444 44.8201 25.5028 45.3532 24.9871C46.7944 23.5879 49.2944 23.2987 50.759 24.8192C51.3532 25.5824 51.6955 26.5115 51.7384 27.4778L46.0295 27.4964ZM49.7608 27.128C49.7608 27.128 49.7608 26.6103 49.7608 26.5263C49.8118 26.0226 49.7414 25.514 49.5556 25.0431C49.0425 24.0729 47.7785 24.0216 46.9763 24.4507C45.9409 25.0011 46.0015 27.128 46.0015 27.128H49.7608Z" fill="black"/>
<path d="M36.0621 28.1728C36.0621 28.392 36.0621 28.6112 36.0621 28.8304C36.0656 29.5425 36.2065 30.2473 36.4772 30.906C36.6157 31.2319 36.8457 31.5106 37.1395 31.7082C37.7785 32.0813 38.6041 31.9787 39.299 31.8808C39.6687 31.8265 40.0187 31.6795 40.3163 31.4536C40.614 31.2277 40.8497 30.9302 41.0015 30.5888C41.0714 30.4349 41.1554 30.1224 41.3606 30.1224C41.6545 30.0991 41.3606 30.808 41.2907 30.9013C40.4278 32.5384 38.063 32.7297 36.5332 32.0347C35.8476 31.7184 35.2601 31.223 34.8324 30.6008C34.4048 29.9786 34.1528 29.2526 34.1032 28.4993C34.0652 27.9649 34.122 27.428 34.2711 26.9134C34.539 26.0497 35.0619 25.2872 35.7712 24.7262C36.4804 24.1651 37.3428 23.8317 38.245 23.7698C39.341 23.7138 40.9222 24.0869 41.3373 25.2576C41.4399 25.5216 41.4767 25.8065 41.4446 26.0879C41.3233 26.8435 40.1619 27.2492 39.6909 26.5543C39.609 26.4263 39.5631 26.2786 39.5582 26.1267C39.5533 25.9748 39.5894 25.8244 39.6629 25.6914C39.737 25.5809 39.7867 25.4558 39.8085 25.3245C39.8303 25.1931 39.8237 25.0587 39.7893 24.9301C39.7548 24.8016 39.6932 24.6819 39.6087 24.5791C39.5241 24.4763 39.4186 24.3927 39.299 24.3341C38.9686 24.2032 38.6145 24.1431 38.2594 24.1575C37.9043 24.172 37.5562 24.2608 37.2375 24.4181C36.5705 24.7819 36.3373 25.5421 36.2114 26.2418C36.1015 26.8794 36.0515 27.5258 36.0621 28.1728Z" fill="black"/>
<path d="M109.56 24.0076V25.267C109.56 25.197 109.747 25.0198 109.794 24.9638C109.84 24.9078 109.966 24.7679 110.055 24.6746C110.229 24.4992 110.421 24.3428 110.628 24.2082C111.058 23.9105 111.576 23.766 112.098 23.7977C112.47 23.8392 112.823 23.9901 113.11 24.2315C113.339 24.4234 113.496 24.6886 113.553 24.9824C113.636 25.2879 113.636 25.6099 113.553 25.9153C113.483 26.0713 113.372 26.2051 113.231 26.3022C113.091 26.3992 112.926 26.4558 112.755 26.4657C112.62 26.4826 112.483 26.4688 112.353 26.4252C112.224 26.3816 112.106 26.3093 112.009 26.2138C111.938 26.0997 111.896 25.9697 111.887 25.8354C111.878 25.7012 111.902 25.5668 111.958 25.4442C112.037 25.1224 112.074 24.5907 111.748 24.3808C111.611 24.3179 111.459 24.293 111.309 24.3085C111.159 24.3241 111.016 24.3797 110.894 24.4694C109.961 25.0571 109.654 26.2091 109.588 27.2679C109.588 27.3425 109.588 27.4218 109.588 27.4964V31.8854H111.011V32.156H106.575V31.8854H107.905V24.2828H106.575V24.0076" fill="black"/>
<path d="M3.04901 37.3612H0.740234L0.768219 18.7045H3.09098V19.1709H1.23464L1.20665 36.8948H3.04901V37.3612Z" fill="black"/>
<path d="M117.41 37.3379H115.101V36.8715H116.944L116.916 19.1429H115.059V18.6765H117.382L117.41 37.3379Z" fill="black"/>
<path d="M98.4922 27.4964V28.9657C98.4922 29.7306 98.4922 30.6774 98.9586 31.3304C99.509 32.0953 100.736 32.0674 101.557 31.9088C102.232 31.801 102.838 31.4326 103.245 30.8826C103.324 30.7476 103.414 30.6196 103.516 30.5002C103.618 30.3929 103.805 30.295 103.851 30.5002C103.921 30.85 103.497 31.2838 103.264 31.489C102.909 31.7869 102.501 32.0134 102.06 32.156C101.116 32.4812 100.088 32.4647 99.1545 32.1093L99.0519 32.0674C98.6997 31.9229 98.3687 31.7315 98.0678 31.4983C97.3967 30.957 96.9043 30.226 96.6547 29.4007C96.4051 28.5753 96.4099 27.694 96.6685 26.8714C96.8883 26.1631 97.2829 25.5215 97.8159 25.0058C99.2572 23.6065 101.757 23.3173 103.222 24.8379C103.816 25.6011 104.158 26.5301 104.201 27.4964H98.4922ZM102.247 27.128C102.247 27.128 102.247 26.6103 102.247 26.5263C102.295 26.0227 102.225 25.5147 102.042 25.0431C101.529 24.0729 100.265 24.0216 99.4577 24.4507C98.4269 25.0011 98.4876 27.128 98.4876 27.128H102.247Z" fill="black"/>
</g>
</g>
<defs>
<filter id="filter0_b_3383_37992" x="-14.848" y="-15.5882" width="147.846" height="87.1765" filterUnits="userSpaceOnUse" color-interpolation-filters="sRGB">
<feFlood flood-opacity="0" result="BackgroundImageFix"/>
<feGaussianBlur in="BackgroundImageFix" stdDeviation="7.79412"/>
<feComposite in2="SourceAlpha" operator="in" result="effect1_backgroundBlur_3383_37992"/>
<feBlend mode="normal" in="SourceGraphic" in2="effect1_backgroundBlur_3383_37992" result="shape"/>
</filter>
<clipPath id="clip0_3383_37992">
<rect x="0.740234" width="116.67" height="56" rx="9.35294" fill="white"/>
</clipPath>
</defs>
</svg>
