<svg width="121" height="56" viewBox="0 0 121 56" fill="none" xmlns="http://www.w3.org/2000/svg">
<g clip-path="url(#clip0_3384_38441)">
<path d="M3.12463 33.3489C2.96672 33.3489 2.84039 33.3094 2.72985 33.2976C2.37761 33.2616 2.03658 33.1533 1.72816 32.9794C1.41974 32.8055 1.15059 32.5698 0.937576 32.2869C0.626284 31.8013 0.396891 31.2678 0.258563 30.7078L0.1875 30.3999C0.1875 30.3999 1.28893 30.163 1.65212 30.0762C1.75974 30.4207 1.89166 30.7571 2.04689 31.0829C2.14199 31.2854 2.28662 31.4607 2.46741 31.5924C2.6482 31.7242 2.8593 31.8083 3.0812 31.8369C3.31721 31.8824 3.55974 31.8824 3.79574 31.8369C4.23494 31.7719 4.63149 31.5382 4.90112 31.1855C5.03685 30.9891 5.1253 30.7639 5.15954 30.5277C5.19379 30.2914 5.17289 30.0504 5.0985 29.8235C5.02618 29.5616 4.87448 29.3285 4.66425 29.1564C4.25751 28.8182 3.78986 28.5609 3.28649 28.3984C2.58855 28.2044 1.94613 27.8487 1.41131 27.3601C0.787561 26.7009 0.396734 25.9311 0.740189 24.9283C0.887698 24.4985 1.1332 24.1088 1.45729 23.7902C1.78138 23.4716 2.17516 23.2328 2.60747 23.0926C3.09741 22.909 3.62695 22.8573 4.14315 22.9426C4.56677 22.9983 4.97386 23.1428 5.33781 23.3666C5.70176 23.5904 6.01437 23.8885 6.2552 24.2414C6.29862 24.3006 6.50785 24.5178 6.49206 24.5888C6.47627 24.6599 6.39337 24.6638 6.35784 24.6954C6.21906 24.7897 6.07543 24.8767 5.92753 24.956L5.24062 25.3705L4.9327 24.9757C4.78241 24.7803 4.58785 24.6235 4.36504 24.518C4.14222 24.4126 3.89755 24.3617 3.65118 24.3694C3.40481 24.3771 3.16381 24.4433 2.94802 24.5624C2.73224 24.6815 2.54786 24.8503 2.41009 25.0546C2.30874 25.2074 2.25469 25.3866 2.25469 25.5698C2.25469 25.7531 2.30874 25.9323 2.41009 26.085C2.77888 26.5126 3.26683 26.8205 3.81154 26.9693C4.80637 27.3641 5.88411 27.7944 6.40521 28.8129C6.61641 29.2417 6.72953 29.7122 6.73635 30.1902C6.74318 30.6682 6.64355 31.1416 6.44469 31.5763C6.16996 32.1877 5.69129 32.6845 5.09061 32.9817C4.80011 33.1257 4.49028 33.2267 4.17079 33.2818C4.07999 33.2818 3.81154 33.3291 3.65363 33.3449C3.4778 33.3627 3.3007 33.364 3.12463 33.3489Z" fill="black"/>
<path d="M101.424 24.6046L102.028 23.1479H94.0769V24.6046H97.1403V33.2186H98.6839V24.5967L101.424 24.6046Z" fill="black"/>
<path d="M114.301 33.2186H120.187V31.8014H115.872L115.868 23.1479H114.305L114.301 33.2186Z" fill="black"/>
<path d="M33.5105 33.2147V23.1479H35.1133V33.2147H33.5105Z" fill="black"/>
<path d="M89.7462 33.2147V23.1479H91.349V33.2147H89.7462Z" fill="black"/>
<path d="M106.797 22.457L101.972 33.2028H103.67L104.799 30.7118H108.798L109.927 33.2028H111.625L106.797 22.457ZM105.435 29.3064L106.832 26.0376L108.23 29.3064H105.435Z" fill="black"/>
<path d="M73.7539 22.457L68.9297 33.2028H70.6272L71.7563 30.7118H75.7514L76.8805 33.2028H78.5898L73.7539 22.457ZM72.384 29.3064L73.7815 26.0376L75.179 29.3064H72.384Z" fill="black"/>
<path d="M42.6653 22.457L37.8412 33.2028H39.5387L40.6677 30.7118H44.6787L45.8077 33.2028H47.5053L42.6653 22.457ZM41.2954 29.3064L42.6929 26.0376L44.0904 29.3064H41.2954Z" fill="black"/>
<path d="M50.1463 33.2186H56.0284V31.8014H51.7136L51.7096 23.1479H50.1463V33.2186Z" fill="black"/>
<path d="M84.0298 23.1597H81.3849V33.2147H82.8613L82.81 29.1445H83.9943C84.788 29.1445 85.5491 28.8293 86.1103 28.2681C86.6714 27.7069 86.9867 26.9458 86.9867 26.1521C86.9867 25.3585 86.6714 24.5974 86.1103 24.0362C85.5491 23.475 84.788 23.1597 83.9943 23.1597H84.0298ZM83.9706 27.6839H82.8692V24.5888H83.9706C84.3811 24.5888 84.7747 24.7519 85.0649 25.0421C85.3551 25.3323 85.5181 25.7259 85.5181 26.1363C85.5181 26.5468 85.3551 26.9404 85.0649 27.2306C84.7747 27.5208 84.3811 27.6839 83.9706 27.6839Z" fill="black"/>
<path d="M14.3441 22.8123C13.289 22.8115 12.2572 23.1238 11.3796 23.7095C10.5019 24.2953 9.81768 25.1282 9.41352 26.1029C9.00936 27.0776 8.9034 28.1503 9.10906 29.1853C9.31473 30.2202 9.82277 31.1709 10.5689 31.917C11.315 32.6632 12.2657 33.1712 13.3007 33.3769C14.3356 33.5825 15.4083 33.4766 16.383 33.0724C17.3577 32.6683 18.1907 31.984 18.7764 31.1064C19.3621 30.2287 19.6744 29.197 19.6736 28.1418C19.6736 26.7283 19.1121 25.3728 18.1126 24.3733C17.1132 23.3738 15.7576 22.8123 14.3441 22.8123ZM14.3441 31.9988C13.5808 32.0011 12.8339 31.7769 12.1981 31.3545C11.5623 30.9321 11.0661 30.3306 10.7723 29.626C10.4786 28.9215 10.4005 28.1456 10.548 27.3966C10.6955 26.6477 11.0619 25.9593 11.6008 25.4187C12.1398 24.8781 12.827 24.5096 13.5755 24.3598C14.324 24.2101 15.1001 24.2857 15.8055 24.5773C16.511 24.8689 17.1141 25.3632 17.5384 25.9978C17.9627 26.6323 18.1892 27.3785 18.1892 28.1418C18.1903 29.163 17.7859 30.1428 17.0649 30.866C16.3439 31.5892 15.3653 31.9967 14.3441 31.9988Z" fill="black"/>
<path d="M30.1667 30.7473C29.66 31.3275 28.991 31.7424 28.2462 31.9386C27.5013 32.1349 26.7147 32.1033 25.9879 31.848C25.2612 31.5928 24.6276 31.1255 24.169 30.5066C23.7104 29.8877 23.4478 29.1456 23.4152 28.376C23.3826 27.6064 23.5813 26.8447 23.9859 26.1892C24.3904 25.5337 24.9822 25.0145 25.6847 24.6986C26.3873 24.3827 27.1683 24.2847 27.9272 24.4171C28.686 24.5495 29.3877 24.9064 29.9417 25.4415L30.6957 24.1348C29.9084 23.4728 28.9463 23.0527 27.9255 22.9254C26.9047 22.7981 25.8689 22.9689 24.943 23.4173C24.0172 23.8656 23.2409 24.5723 22.7078 25.4521C22.1747 26.3319 21.9076 27.3472 21.9388 28.3754C21.97 29.4036 22.2981 30.4009 22.8835 31.2467C23.4689 32.0926 24.2866 32.751 25.2379 33.1425C26.1892 33.5339 27.2334 33.6416 28.2446 33.4527C29.2558 33.2638 30.1907 32.7862 30.9365 32.0777L30.1667 30.7473Z" fill="black"/>
<path d="M66.4308 30.7473C65.9241 31.3275 65.2551 31.7424 64.5102 31.9386C63.7653 32.1349 62.9787 32.1033 62.252 31.848C61.5252 31.5928 60.8916 31.1255 60.433 30.5066C59.9744 29.8877 59.7119 29.1456 59.6792 28.376C59.6466 27.6064 59.8454 26.8447 60.2499 26.1892C60.6545 25.5337 61.2462 25.0145 61.9488 24.6986C62.6513 24.3827 63.4324 24.2847 64.1912 24.4171C64.95 24.5495 65.6517 24.9064 66.2058 25.4415L66.9598 24.1348C66.1728 23.4724 65.2108 23.0518 64.1901 22.924C63.1694 22.7961 62.1335 22.9664 61.2074 23.4143C60.2813 23.8622 59.5046 24.5685 58.9711 25.4481C58.4376 26.3276 58.17 27.3427 58.2007 28.371C58.2313 29.3992 58.5589 30.3966 59.1439 31.2428C59.7289 32.089 60.5463 32.7478 61.4974 33.1397C62.4485 33.5316 63.4928 33.6399 64.5041 33.4514C65.5154 33.263 66.4505 32.7859 67.1966 32.0777L66.4308 30.7473Z" fill="black"/>
</g>
<defs>
<clipPath id="clip0_3384_38441">
<rect width="120" height="56" fill="white" transform="translate(0.1875)"/>
</clipPath>
</defs>
</svg>
