<svg width="74" height="56" viewBox="0 0 74 56" fill="none" xmlns="http://www.w3.org/2000/svg">
<g clip-path="url(#clip0_3384_38440)">
<path d="M37.4757 9.10083C31.0753 6.91669 24.8828 8.08476 23.6507 11.701C22.4186 15.3252 26.6029 20.0296 33.0034 22.2137C39.4039 24.3978 45.5883 23.2298 46.8284 19.6135C48.0605 15.9893 43.8762 11.277 37.4757 9.10083ZM44.1562 17.9254C43.3402 20.3256 38.8518 20.9656 34.1395 19.3575C29.4271 17.7494 26.2669 14.5012 27.083 12.101C27.899 9.70087 32.3874 9.06083 37.0997 10.6689C41.8201 12.277 44.9723 15.5253 44.1562 17.9254Z" fill="black"/>
<path d="M0.994199 41.6152C0.994199 41.6152 2.4183 43.1834 4.74648 43.1834C6.49061 43.1834 7.87471 42.1033 7.87471 40.4152C7.87471 36.4229 0.690177 37.527 0.690177 33.1347C0.690177 31.2706 2.3543 29.5024 4.90649 29.5024C7.19466 29.5024 8.47475 30.8065 8.47475 30.8065L7.99472 31.5506C7.99472 31.5506 6.79463 30.3425 4.92249 30.3425C2.83434 30.3425 1.59424 31.7506 1.59424 33.1107C1.59424 36.8229 8.77878 35.6789 8.77878 40.3752C8.77878 42.3993 7.21066 44.0234 4.70647 44.0234C1.93827 44.0234 0.410156 42.2793 0.410156 42.2793L0.994199 41.6152Z" fill="black"/>
<path d="M10.2676 29.7349H11.1876L15.42 41.0956C15.66 41.7597 15.964 42.7837 15.964 42.7837H16.004C16.004 42.7837 16.308 41.7597 16.548 41.0956L20.8044 29.7349H21.7244L16.468 43.7838H15.524L10.2676 29.7349Z" fill="black"/>
<path d="M31.6515 38.9275H25.6911L23.883 43.7838H22.9629L28.2193 29.7349H29.1473L34.4037 43.7838H33.4837L31.6515 38.9275ZM28.6673 30.7429C28.6673 30.7429 28.3633 31.823 28.1473 32.431L25.9951 38.1274H31.3555L29.2274 32.431C29.0033 31.831 28.7073 30.7429 28.7073 30.7429H28.6673Z" fill="black"/>
<path d="M36.4922 33.7503H37.3322V35.5184C37.3322 35.9824 37.2522 36.3424 37.2522 36.3424H37.2922C37.6363 35.3984 39.0364 33.5103 41.5486 33.5103C44.1568 33.5103 44.8608 35.0544 44.8608 37.4225V43.7829H44.0207V37.7265C44.0207 35.9824 43.7967 34.3343 41.5486 34.3343C39.6604 34.3343 37.9963 35.6624 37.4923 37.5265C37.3723 37.9505 37.3322 38.4066 37.3322 38.8946V43.7909H36.4922V33.7503Z" fill="black"/>
<path d="M51.5659 47.1755C53.7101 47.1755 55.3822 46.1514 55.3822 43.7272V42.5672C55.3822 42.1031 55.4622 41.7431 55.4622 41.7431H55.4222C54.8222 42.9672 53.7181 43.7912 52.054 43.7912C49.4458 43.7912 47.5977 41.7431 47.5977 38.6149C47.5977 35.4867 49.3018 33.5186 51.91 33.5186C54.7582 33.5186 55.3982 35.4867 55.3982 35.4867H55.4382C55.4382 35.4867 55.3822 35.3427 55.3822 35.1027V33.7586H56.2223V43.7272C56.2223 46.7994 54.0141 47.9995 51.63 47.9995C50.5259 47.9995 49.4618 47.7195 48.4777 47.2155L48.8778 46.4714C48.8778 46.4714 50.1178 47.1755 51.5659 47.1755ZM55.3982 38.6069C55.3982 35.3747 53.8701 34.3346 51.91 34.3346C49.7658 34.3346 48.4777 35.9027 48.4777 38.6069C48.4777 41.3191 49.9658 42.9592 52.11 42.9592C53.8701 42.9592 55.3982 41.8551 55.3982 38.6069Z" fill="black"/>
<path d="M63.925 33.5103C66.6532 33.5103 68.0213 35.6544 68.0213 38.0866C68.0213 38.3106 67.9813 38.6306 67.9813 38.6306H59.9327C59.9327 41.5428 61.9008 43.2069 64.229 43.2069C66.1572 43.2069 67.3412 41.9428 67.3412 41.9428L67.8053 42.6469C67.8053 42.6469 66.3972 44.031 64.237 44.031C61.4048 44.031 59.0606 41.9828 59.0606 38.7906C59.0446 35.3984 61.3568 33.5103 63.925 33.5103ZM67.1332 37.8465C67.0292 35.3984 65.5651 34.2943 63.901 34.2943C62.0529 34.2943 60.3487 35.5024 59.9887 37.8465H67.1332Z" fill="black"/>
<path d="M70.75 29.7349H71.5901V41.4956C71.5901 42.9037 72.3101 43.0637 72.7741 43.0637C72.9342 43.0637 73.0782 43.0397 73.0782 43.0397V43.8238C73.0782 43.8238 72.8942 43.8638 72.7181 43.8638C72.1341 43.8638 70.75 43.6398 70.75 41.7597V29.7349V29.7349Z" fill="black"/>
</g>
<defs>
<clipPath id="clip0_3384_38440">
<rect width="72.668" height="56" fill="white" transform="translate(0.410156)"/>
</clipPath>
</defs>
</svg>
