<svg width="121" height="56" viewBox="0 0 121 56" fill="none" xmlns="http://www.w3.org/2000/svg">
<g clip-path="url(#clip0_3383_38028)">
<path d="M12.5485 40.8144H7.60129C7.60129 40.1893 7.60129 15.8821 7.60129 15.1855H12.5485C12.5485 15.7392 12.5485 40.1357 12.5485 40.8144ZM5.26164 27.991H0.314453C0.314453 28.8304 0.314453 40.2607 0.314453 40.8144H5.26164C5.26164 40.1 5.26164 28.7769 5.26164 27.991ZM19.8175 15.1855H14.8703C14.8703 15.7571 14.8703 27.5981 14.8703 28.0089H19.8175C19.8175 27.3124 19.8175 15.7035 19.8175 15.1855Z" fill="#111827"/>
<path d="M56.2695 27.0711V33.965H54.6799V27.0532C54.6799 24.9458 53.8227 23.9813 51.9831 23.9813C49.7863 23.9813 48.6433 25.6066 48.6433 27.1961V33.965H47.0538V22.6419H48.6433V23.8742C49.4291 23.0884 50.6079 22.4811 52.0724 22.4811C54.7871 22.4811 56.2695 24.1064 56.2695 27.0711ZM75.0581 22.4811C73.5757 22.4811 72.397 23.0884 71.629 23.8742V17.6411H70.0394V33.965H71.629V27.1961C71.629 25.6066 72.772 23.9813 74.9688 23.9813C76.8083 23.9813 77.6656 24.9636 77.6656 27.0532V33.965H79.2552V27.0711C79.2373 24.1064 77.7549 22.4811 75.0581 22.4811ZM98.6331 28.2141V28.3749C98.6331 31.6611 96.2935 34.1436 93.1859 34.1436C90.1497 34.1436 87.7565 31.6253 87.7565 28.4106V28.2498C87.7565 24.9815 90.0961 22.5168 93.2216 22.5168C96.3649 22.499 98.6331 24.9101 98.6331 28.2141ZM97.0257 28.3749V28.2141C97.0257 25.7137 95.4719 23.9813 93.2394 23.9813C91.007 23.9813 89.3817 25.7673 89.3817 28.232V28.3927C89.3817 30.8395 90.9891 32.6255 93.2216 32.6255C95.4719 32.6255 97.0257 30.8752 97.0257 28.3749ZM105.438 22.4811C103.955 22.4811 102.777 23.0884 102.009 23.8742V22.6419H100.419V33.9828H102.009V27.1961C102.009 25.6066 103.152 23.9813 105.348 23.9813C107.188 23.9813 108.045 24.9636 108.045 27.0532V33.965H109.635V27.0711C109.635 24.1064 108.152 22.4811 105.438 22.4811ZM63.2705 32.6255C61.0559 32.6255 59.4307 30.8395 59.4307 28.3927V28.232C59.4307 25.7673 61.0559 23.9813 63.2884 23.9813C64.8422 23.9813 66.0567 24.8208 66.6639 26.1602H68.3606C67.6284 23.9456 65.7174 22.499 63.2705 22.499C60.1629 22.499 57.8054 24.9636 57.8054 28.232V28.3927C57.8054 31.6075 60.1808 34.1257 63.2348 34.1257C65.8602 34.1257 67.9498 32.3397 68.5214 29.7858H66.8961C66.4139 31.5182 65.0565 32.6255 63.2705 32.6255ZM86.5777 22.4811C85.0953 22.4811 83.9166 23.0884 83.1486 23.8742V22.6419H81.5591V33.9828H83.1486V27.1961C83.1486 25.6066 84.2916 23.9813 86.4884 23.9813C86.917 23.9813 87.2742 24.0349 87.5957 24.1421V22.5704C87.2742 22.499 86.9349 22.4811 86.5777 22.4811ZM30.7834 27.4104C28.2652 26.9997 27.8187 26.5353 27.8187 25.6245C27.8187 24.6422 28.8367 23.9813 30.3191 23.9813C31.855 23.9813 32.7301 24.535 32.9802 25.7495L32.998 25.8209H34.659L34.6233 25.6066C34.2839 23.6063 32.7659 22.5168 30.3548 22.5168C27.9615 22.5168 26.2113 23.8385 26.2113 25.6423C26.2113 28.0177 28.2294 28.5535 30.4619 28.9285C32.5694 29.2857 33.2124 29.5893 33.2124 30.8395C33.2124 31.9825 32.1765 32.6969 30.5691 32.6969C28.3723 32.6969 27.6936 31.536 27.515 30.518H25.8184C26.0148 32.7862 27.8365 34.1793 30.5512 34.1793C33.0873 34.1793 34.8733 32.7862 34.8733 30.7859C34.8555 28.3034 32.9266 27.7855 30.7834 27.4104ZM119.19 22.6419L115.743 31.9647L111.742 22.6419H110.099L114.886 33.9293L113.385 38.3585H115.046L120.815 22.6419H119.19ZM44.089 22.6419L40.6421 31.9647L36.6415 22.6419H34.9983L39.7848 33.9293L38.2846 38.3585H39.9455L45.7143 22.6419H44.089Z" fill="#111827"/>
</g>
<defs>
<clipPath id="clip0_3383_38028">
<rect width="120.5" height="56" fill="white" transform="translate(0.314453)"/>
</clipPath>
</defs>
</svg>
