<svg width="121" height="56" viewBox="0 0 121 56" fill="none" xmlns="http://www.w3.org/2000/svg">
<g filter="url(#filter0_b_3383_38024)">
<g clip-path="url(#clip0_3383_38024)">
<path d="M6.77268 24.2694V30.5277C6.71269 31.2075 6.85265 31.9073 7.17257 32.5272C7.53247 32.947 8.05232 33.207 8.61217 33.187C8.81212 33.207 8.91209 33.3069 8.91209 33.4869C8.91209 33.6069 8.83211 33.6868 8.65216 33.6868C8.61217 33.6868 8.55219 33.6868 8.45222 33.6868L7.83238 33.6668L6.79267 33.6069C6.71269 33.6069 6.59273 33.6069 6.45276 33.6069C6.13285 33.6069 5.83293 33.6069 5.593 33.6269L3.75351 33.7268C3.55356 33.7468 3.43359 33.7668 3.35362 33.7668C3.17367 33.7668 3.09369 33.6868 3.09369 33.5469C3.09369 33.4669 3.11368 33.3669 3.17367 33.3069C3.27364 33.267 3.39361 33.227 3.49358 33.227C3.87347 33.227 4.23337 33.047 4.4933 32.7671C4.75323 32.4272 4.8732 32.0273 4.8532 31.6074V31.2075V23.7896C4.8532 23.3497 4.61327 23.1297 4.1534 23.1297C3.39361 23.0898 2.61382 23.1697 1.89402 23.3697C1.65408 23.4496 1.45414 23.5896 1.31418 23.7896C1.13423 24.1495 1.01426 24.5294 0.914288 24.9292L0.854304 25.1692C0.794321 25.3891 0.694348 25.5091 0.574381 25.5091C0.394431 25.5091 0.314453 25.4291 0.314453 25.2492C0.334448 25.0292 0.354442 24.8093 0.394431 24.6093L0.474409 23.8895L0.574381 23.1497L0.634365 22.6499C0.634365 22.4699 0.774327 22.33 0.934283 22.33C0.954277 22.33 0.954277 22.33 0.974271 22.33C1.03425 22.33 1.13423 22.33 1.25419 22.35C1.47413 22.3699 1.77405 22.3699 2.17394 22.3699L3.87347 22.3899L5.89292 22.4099C7.19256 22.4099 8.57218 22.3699 10.0318 22.31C10.3117 22.29 10.5116 22.29 10.5916 22.29C10.8915 22.29 11.0515 22.4099 11.0715 22.6699L11.1115 23.2697C11.1115 23.3697 11.1515 23.5896 11.1915 23.9495C11.2314 24.1894 11.2514 24.4294 11.2514 24.6493C11.2514 24.8293 11.1715 24.9292 11.0315 24.9292C10.9115 24.9292 10.8116 24.8293 10.7716 24.6093C10.6916 24.1695 10.4717 23.7696 10.1118 23.4896C9.67188 23.2297 9.17202 23.1097 8.67215 23.1497C8.1323 23.1097 7.61245 23.1697 7.09259 23.3497C6.87265 23.4297 6.77268 23.7496 6.77268 24.2694ZM15.1704 31.0476L15.2303 31.8873C15.2703 32.2672 15.4503 32.6071 15.7102 32.8671C15.9901 33.107 16.35 33.227 16.7099 33.207C16.9899 33.207 17.1098 33.2869 17.1098 33.4669C17.1098 33.6268 16.9299 33.7068 16.57 33.7068C16.41 33.7068 16.1901 33.6868 15.9102 33.6668C15.3303 33.5869 14.7505 33.5469 14.1506 33.5469C13.7108 33.5469 13.2709 33.5669 12.831 33.6269C12.6311 33.6668 12.4311 33.6868 12.2312 33.7068C12.1112 33.7068 12.0112 33.6468 11.9912 33.5269L11.9712 33.4669L12.2112 33.2669C12.5311 33.187 12.811 33.007 13.011 32.7471C13.1709 32.4272 13.2309 32.0673 13.2109 31.7074V30.9676V24.3694C13.2509 23.9895 13.1509 23.6096 12.951 23.2897C12.691 23.0298 12.3511 22.8698 11.9712 22.8498C11.7913 22.8298 11.6113 22.7898 11.4314 22.7299C11.3514 22.6899 11.3114 22.6099 11.3114 22.5099C11.3114 22.35 11.3714 22.27 11.5114 22.29C11.6713 22.31 11.8113 22.33 11.9513 22.35C12.2912 22.4099 12.6111 22.4299 12.951 22.4099C13.2509 22.4099 13.6508 22.3899 14.1107 22.35L14.7105 22.31C15.2703 22.27 15.7102 22.25 16.0301 22.25C16.2101 22.25 16.3101 22.31 16.3101 22.4499C16.3101 22.5299 16.3101 22.5899 16.2701 22.6499C16.2101 22.6899 16.1301 22.7299 16.0701 22.7299C15.7902 22.7498 15.5103 22.8698 15.3103 23.0698C15.1704 23.3697 15.1104 23.6896 15.1504 24.0095L15.1704 31.0476ZM23.5281 22.07C24.6478 22.11 25.7475 22.3899 26.7672 22.8698C26.9671 22.9698 27.1671 23.0298 27.367 23.0698C27.447 23.0698 27.527 23.0498 27.567 22.9898L27.6669 22.9098C27.7269 22.8498 27.7869 22.8298 27.8669 22.8298C28.0268 22.8298 28.1068 22.9298 28.1068 23.1297V23.7096L28.0668 24.8493L28.0868 25.4491C28.1068 25.5891 28.1068 25.749 28.1468 25.929C28.1468 25.989 28.1468 26.0489 28.1468 26.0689C28.1468 26.2489 28.0668 26.3289 27.8869 26.3289C27.7669 26.3289 27.6869 26.2089 27.6469 25.989C27.487 25.2492 27.1271 24.5693 26.5872 24.0495C25.8274 23.1897 24.7077 22.6899 23.5681 22.7099C22.5083 22.6699 21.4886 23.1697 20.8688 24.0495C20.149 25.0892 19.7891 26.3289 19.8491 27.5885C19.8091 28.9881 20.169 30.3877 20.8888 31.5874C21.5886 32.6671 22.4484 33.207 23.4681 33.207C23.868 33.187 24.2479 33.127 24.6278 33.007C25.0077 32.907 25.3676 32.7671 25.6875 32.5671C25.9074 32.4272 26.0674 32.1872 26.1473 31.9473C26.2473 31.5274 26.2873 31.0875 26.2673 30.6677C26.3273 30.1878 26.1873 29.6879 25.9074 29.288C25.5275 28.9881 25.0476 28.8282 24.5678 28.8482C24.3878 28.8282 24.3079 28.7482 24.3079 28.6082C24.3079 28.4483 24.4078 28.3683 24.6078 28.3683C24.6678 28.3683 24.7677 28.3683 24.9077 28.3883C25.4475 28.4283 26.0674 28.4683 26.7472 28.4683C27.267 28.4683 27.7869 28.4483 28.3068 28.4083C28.5067 28.3683 28.7266 28.3683 28.9266 28.3483C29.1265 28.3483 29.2265 28.4283 29.2265 28.5682C29.2265 28.7082 29.1265 28.7882 28.9266 28.8282C28.6267 28.8682 28.3867 29.0681 28.2668 29.348C28.1268 29.8079 28.0668 30.2678 28.0868 30.7476C28.0868 30.9276 28.0868 31.1075 28.1068 31.2875C28.1268 31.5674 28.1468 31.7474 28.1468 31.8673C28.1668 32.0073 28.1268 32.1273 28.0468 32.2472C27.9269 32.3672 27.7869 32.4472 27.6269 32.4872C27.507 32.5272 27.0671 32.7271 26.3073 33.047C25.2276 33.5669 24.0479 33.8468 22.8483 33.9068C21.4686 33.9468 20.129 33.4069 19.1893 32.3872C18.2095 31.3075 17.7097 29.9079 17.7697 28.4683C17.7297 26.8087 18.3095 25.1892 19.4092 23.9495C20.4689 22.7099 21.9685 22.03 23.5281 22.07ZM33.6453 24.1894V25.989C33.6253 26.3289 33.6653 26.6488 33.7652 26.9687C33.8452 27.1086 34.0252 27.1686 34.3051 27.1686H34.565H34.9249H35.6247C36.1846 27.1486 36.7044 26.7887 36.9044 26.2689L37.1043 25.869C37.1443 25.769 37.2443 25.709 37.3443 25.709C37.4642 25.709 37.5242 25.789 37.5242 25.929C37.5242 25.969 37.5242 26.0889 37.5042 26.2889C37.4842 26.4288 37.4842 26.5488 37.4842 26.6488C37.4842 26.8287 37.5042 27.2486 37.5642 27.8884C37.6042 28.3083 37.6042 28.6882 37.6042 29.0081L37.6242 29.428C37.6242 29.488 37.6242 29.528 37.6042 29.588C37.5642 29.628 37.5242 29.6479 37.4642 29.6479C37.3243 29.6679 37.2443 29.548 37.2043 29.328C37.1643 28.9281 36.9844 28.5482 36.7044 28.2483C36.5645 28.1084 36.3645 28.0284 36.1846 27.9884C35.8047 27.9484 35.4048 27.9284 35.0249 27.9284H34.4651C34.2851 27.9084 34.0852 27.9484 33.9252 28.0484C33.8052 28.1883 33.7453 28.3483 33.7253 28.5283C33.6853 28.9681 33.6653 29.408 33.6653 29.8479V30.5877C33.6453 31.1475 33.7053 31.7274 33.8452 32.2672C33.9252 32.6871 34.3451 32.967 34.765 32.907C37.0044 32.907 38.4839 32.2272 39.1638 30.8476C39.2038 30.7876 39.2437 30.7476 39.2637 30.7476C39.3237 30.7276 39.3837 30.7676 39.4237 30.8076C39.4637 30.8476 39.5037 30.9276 39.5037 30.9876C39.5037 31.5474 39.3437 32.0873 39.0638 32.5671C38.8638 32.967 38.5439 33.2869 38.144 33.4869C37.6842 33.6868 37.1843 33.7868 36.6844 33.7668C36.2846 33.7668 35.9047 33.7468 35.5048 33.7068L34.545 33.6269C34.1851 33.5869 33.7053 33.5669 33.1054 33.5669C32.7055 33.5669 32.0857 33.5869 31.2659 33.6468C31.046 33.6668 30.886 33.6668 30.7861 33.6668C30.6861 33.6868 30.5861 33.6069 30.5661 33.5069V33.4869C30.5661 33.3869 30.6261 33.3069 30.7461 33.247C30.986 33.167 31.206 33.047 31.3859 32.8671C31.5259 32.6471 31.6258 32.4072 31.6458 32.1473C31.7258 31.7474 31.7458 31.3475 31.7458 30.9476V24.3894C31.7858 23.9495 31.6858 23.5096 31.4459 23.1297C31.086 22.8498 30.6461 22.6899 30.1862 22.6699C30.0663 22.6699 29.9663 22.5699 29.9663 22.4299C29.9663 22.31 30.0663 22.23 30.2462 22.23C30.2862 22.23 30.3662 22.23 30.5061 22.25C30.6061 22.25 30.7461 22.25 30.906 22.25L31.7458 22.29L34.8849 22.33C36.7044 22.33 37.8041 22.31 38.224 22.25C38.264 22.25 38.304 22.25 38.344 22.25C38.5039 22.25 38.5839 22.35 38.5839 22.5299C38.5839 22.6499 38.6039 22.8898 38.6439 23.2097C38.6839 23.6896 38.7039 24.0495 38.7039 24.2494C38.7039 24.6693 38.6039 24.8893 38.384 24.8893C38.284 24.8893 38.224 24.7693 38.224 24.5294C38.264 24.0495 38.0241 23.5896 37.6242 23.3297C37.0244 23.0498 36.3445 22.9098 35.6847 22.9698H34.665L34.1052 23.0298C33.8252 23.1097 33.6853 23.3897 33.6853 23.8695L33.6453 24.1894ZM43.6625 30.3877C43.6025 31.1075 43.7025 31.8473 43.9624 32.5272C44.2024 32.927 44.6423 33.167 45.1021 33.167C45.3421 33.187 45.442 33.2869 45.442 33.4469C45.442 33.6069 45.3421 33.6868 45.1621 33.6868C45.1021 33.6868 44.9822 33.6868 44.8222 33.6668C44.3423 33.6268 43.8825 33.6069 43.4426 33.6069C43.0827 33.6069 42.7428 33.6268 42.4629 33.6468L41.763 33.7068L41.2032 33.7468C41.0432 33.7668 40.9433 33.7668 40.8833 33.7668C40.6833 33.7668 40.5834 33.6868 40.5834 33.5469C40.5634 33.4469 40.6434 33.3469 40.7433 33.3069C41.0432 33.247 41.3232 33.067 41.5231 32.8471C41.6831 32.5871 41.763 32.2672 41.7431 31.9473V31.1675L41.763 30.8476V24.8493C41.803 24.3894 41.7231 23.9295 41.5031 23.5096C41.1832 23.1097 40.6833 22.8698 40.1835 22.8498C39.9635 22.8098 39.8436 22.7099 39.8436 22.5699C39.8236 22.4499 39.9036 22.35 40.0235 22.33C40.0435 22.33 40.0635 22.33 40.0835 22.33C40.1835 22.33 40.2835 22.33 40.3834 22.35C40.8433 22.3899 41.3232 22.4299 41.783 22.4099C42.3429 22.4099 43.0227 22.3699 43.8225 22.31C44.7622 22.23 45.402 22.21 45.7619 22.21C46.7017 22.17 47.6414 22.4899 48.3812 23.0698C49.041 23.5896 49.4409 24.3894 49.4209 25.2292C49.4209 25.769 49.261 26.2889 48.9611 26.7288C48.6412 27.1886 48.2013 27.5485 47.7014 27.7485C47.6014 27.7885 47.5415 27.8484 47.5415 27.9084C47.5615 27.9884 47.5814 28.0484 47.6214 28.1084C47.6614 28.1883 47.7414 28.3083 47.8414 28.4883L48.5812 29.8079L49.4409 31.3275C49.6409 31.7274 49.9008 32.0873 50.2207 32.3872C50.4407 32.5871 50.7406 32.6871 51.0405 32.6871C51.1605 32.6871 51.2804 32.6871 51.4004 32.6471C51.4604 32.6271 51.5204 32.6271 51.5803 32.6271C51.6803 32.6271 51.7403 32.6871 51.7403 32.8271C51.7403 32.987 51.5204 33.167 51.0605 33.3669C50.6806 33.5469 50.2807 33.6668 49.8608 33.6668C49.241 33.6468 48.6611 33.3269 48.2813 32.8271C47.5415 31.8473 46.9216 30.7876 46.4018 29.6479C46.2218 29.2281 45.9819 28.8282 45.662 28.4883C45.3821 28.3083 45.0421 28.2083 44.7222 28.2483H44.2024L43.8225 28.3083C43.7425 28.3483 43.7025 28.4883 43.7025 28.7082L43.6625 30.3877ZM43.6625 23.9095V26.7887C43.6425 27.0287 43.6825 27.2486 43.8025 27.4685C44.0024 27.5885 44.2224 27.6485 44.4623 27.6085C45.0821 27.6285 45.682 27.6085 46.3018 27.5485C46.5417 27.5085 46.7817 27.3886 46.9616 27.2086C47.3815 26.8287 47.6014 26.2689 47.5615 25.689C47.6014 24.1495 46.4018 22.8498 44.8422 22.8098C44.7822 22.8098 44.7222 22.8098 44.6423 22.8098C44.3623 22.7698 44.0824 22.8698 43.8625 23.0498C43.7025 23.2897 43.6225 23.6096 43.6625 23.9095Z" fill="black"/>
<path d="M58.3511 22.0929C59.4708 22.1329 60.5905 22.4128 61.5902 22.8926C61.7902 22.9926 61.9901 23.0526 62.1901 23.0926C62.2701 23.0926 62.35 23.0726 62.39 23.0126L62.49 22.9326C62.55 22.8727 62.61 22.8527 62.6899 22.8527C62.8499 22.8527 62.9299 22.9526 62.9299 23.1526V23.7324L62.8899 24.8721L62.9099 25.4719C62.9299 25.6119 62.9299 25.7719 62.9499 25.9518C62.9499 26.0118 62.9499 26.0718 62.9499 26.0918C62.9499 26.2717 62.8699 26.3517 62.6899 26.3517C62.57 26.3517 62.49 26.2317 62.45 26.0118C62.3101 25.272 61.9302 24.5922 61.3903 24.0723C60.6305 23.2126 59.5108 22.7127 58.3711 22.7327C57.3114 22.7127 56.2917 23.1926 55.6719 24.0723C54.9521 25.112 54.5922 26.3517 54.6522 27.6114C54.6122 29.011 54.9721 30.4106 55.6919 31.6103C56.3917 32.69 57.2514 33.2298 58.2712 33.2298C58.6711 33.2098 59.0509 33.1498 59.4308 33.0299C59.8107 32.9299 60.1706 32.7899 60.5105 32.59C60.7305 32.45 60.8904 32.2101 60.9704 31.9701C61.0704 31.5503 61.1104 31.1104 61.0904 30.6905C61.1504 30.2106 61.0104 29.7108 60.7305 29.3109C60.3506 29.011 59.8707 28.851 59.3909 28.871C59.2109 28.851 59.1309 28.771 59.1309 28.6311C59.1309 28.4711 59.2309 28.3911 59.4308 28.3911C59.4908 28.3911 59.5908 28.3911 59.7308 28.4111C60.2706 28.4511 60.8904 28.4911 61.5703 28.4911C62.0901 28.4911 62.61 28.4711 63.1298 28.4311C63.3298 28.3911 63.5497 28.3911 63.7497 28.3711C63.9496 28.3711 64.0496 28.4511 64.0496 28.5911C64.0496 28.731 63.9496 28.811 63.7497 28.851C63.4497 28.891 63.2098 29.0909 63.0898 29.3709C62.9499 29.8307 62.8699 30.2906 62.9099 30.7705C62.9099 30.9504 62.9099 31.1304 62.9299 31.3103C62.9499 31.5903 62.9699 31.7702 62.9699 31.8902C62.9899 32.0301 62.9499 32.1501 62.8699 32.2701C62.7499 32.39 62.61 32.47 62.45 32.51C62.33 32.55 61.8902 32.7499 61.1304 33.0698C60.0507 33.5897 58.871 33.8696 57.6713 33.9296C56.2917 33.9696 54.9521 33.4298 54.0123 32.41C53.0326 31.3303 52.5327 29.9307 52.5927 28.4911C52.5527 26.8316 53.1326 25.212 54.2323 23.9724C55.272 22.7327 56.7716 22.0529 58.3511 22.0929ZM68.4684 31.0504C68.4684 32.0901 68.5883 32.67 68.8483 32.7899C69.1082 32.8899 69.3881 32.9099 69.668 32.8899C71.5475 32.8899 72.8671 32.3301 73.6469 31.2304C73.8869 30.8905 74.0468 30.7305 74.1068 30.7305C74.2068 30.7305 74.2668 30.8505 74.2668 31.0704C74.2668 31.7702 74.0268 32.43 73.5869 32.9499C73.1871 33.4298 72.5672 33.7097 71.9274 33.6897C71.7874 33.6897 71.5275 33.6697 71.1476 33.6497L70.1479 33.5897L69.2481 33.5497C68.9482 33.5297 68.5883 33.5297 68.2084 33.5297C67.5086 33.5297 66.8288 33.5697 66.129 33.6497C65.9091 33.6697 65.7491 33.6897 65.6691 33.6897C65.5092 33.6897 65.4292 33.6097 65.4292 33.4697C65.4292 33.3698 65.5092 33.2898 65.6491 33.2498C65.969 33.1698 66.229 32.9699 66.3889 32.67C66.5489 32.2301 66.6289 31.7502 66.5889 31.2703V24.3523C66.5889 23.4725 66.229 22.9726 65.4892 22.8527L64.9893 22.7727C64.7894 22.7327 64.6694 22.6527 64.6694 22.5128C64.6494 22.3928 64.7294 22.2728 64.8494 22.2528C64.8693 22.2528 64.8893 22.2528 64.9093 22.2528C64.9893 22.2528 65.0693 22.2728 65.1493 22.2728C65.2292 22.2728 65.3292 22.2928 65.4692 22.3128L65.8291 22.3328C66.169 22.3728 66.4289 22.3928 66.5889 22.3928C67.0088 22.3728 67.4286 22.3528 67.8685 22.2928C68.3084 22.2528 68.7483 22.2328 69.1882 22.2328C69.5281 22.2328 69.688 22.3128 69.688 22.4728C69.688 22.6127 69.5681 22.6927 69.3281 22.6927C68.7683 22.7327 68.4883 23.1126 68.4883 23.8524L68.4684 31.0504ZM81.0449 22.0729C82.5845 22.0129 84.0841 22.5527 85.2237 23.5725C86.3034 24.6122 86.8833 26.0518 86.8233 27.5314C86.8633 29.1909 86.2835 30.8105 85.1838 32.0501C84.124 33.2498 82.6445 33.8696 80.765 33.8696C79.1854 33.9496 77.6258 33.3698 76.4662 32.2901C75.3665 31.1704 74.7866 29.6508 74.8466 28.0912C74.8466 27.3314 74.9866 26.5716 75.2465 25.8518C75.7663 24.3523 76.906 23.1526 78.4056 22.5927C79.2454 22.2328 80.1451 22.0729 81.0449 22.0729ZM80.4451 22.6927C79.4253 22.6527 78.4456 23.1126 77.8458 23.9324C77.2259 24.7521 76.906 25.9118 76.906 27.3714C76.846 28.871 77.2459 30.3506 78.0857 31.6103C78.7655 32.63 79.9252 33.2498 81.1449 33.2498C82.2246 33.2698 83.2443 32.7699 83.8641 31.9102C84.5839 30.8505 84.9438 29.5908 84.8838 28.3112C84.8838 27.4314 84.7239 26.5716 84.404 25.7719C84.144 25.0321 83.7042 24.3522 83.1443 23.7924C82.4245 23.0726 81.4448 22.6727 80.4451 22.6927ZM89.4626 24.6922C89.4626 23.5725 89.0027 22.9726 88.103 22.8527L87.7231 22.8127C87.6031 22.7927 87.5431 22.7127 87.5431 22.5727C87.5431 22.4128 87.6231 22.3328 87.783 22.3328H87.983L88.6028 22.3728C89.1227 22.3928 89.4426 22.4128 89.5825 22.4128C89.9824 22.4128 90.7022 22.3728 91.7619 22.2728C92.4218 22.2128 92.9616 22.1728 93.4215 22.1728C94.4212 22.1329 95.4209 22.3928 96.2607 22.9326C96.9405 23.3725 97.3404 24.1523 97.3204 24.9521C97.3804 25.8518 96.8405 26.6716 96.0008 26.9915C95.8008 27.0715 95.7009 27.1515 95.6809 27.2115C95.6809 27.3114 95.7808 27.3714 96.0008 27.4114C96.6406 27.5114 97.2204 27.8313 97.6403 28.3112C98.0402 28.811 98.2602 29.4508 98.2402 30.1107C98.2801 31.0904 97.8803 32.0501 97.1405 32.7099C96.3007 33.3898 95.241 33.7297 94.1613 33.6697L92.4817 33.6297L91.1821 33.6097C90.4623 33.6097 89.7425 33.6297 89.0227 33.7097C88.8427 33.7297 88.6628 33.7497 88.5028 33.7497C88.3429 33.7497 88.2429 33.6697 88.2429 33.5297C88.2429 33.4098 88.3229 33.3298 88.4629 33.2898C89.1227 33.1698 89.4626 32.61 89.4626 31.5703V24.6922ZM91.3621 23.9724V26.3517C91.3421 26.6116 91.422 26.8516 91.602 27.0315C91.8419 27.1915 92.1218 27.2515 92.4218 27.2315L93.5615 27.2515L94.0813 27.2315C95.021 27.1115 95.5009 26.5516 95.5009 25.5319C95.5409 24.7921 95.241 24.0523 94.7211 23.5325C94.1613 23.0126 93.4015 22.7327 92.6417 22.7727C92.2818 22.7327 91.9219 22.8127 91.642 23.0126C91.422 23.2925 91.3221 23.6324 91.3621 23.9724ZM91.3621 29.4908V30.8705L91.382 31.1904L91.442 31.8902C91.502 32.69 92.1418 33.0898 93.3415 33.0898C94.5212 33.0898 95.321 32.8099 95.7608 32.2301C96.1207 31.7302 96.3007 31.1304 96.3007 30.5305C96.3007 29.2309 95.7209 28.4311 94.5612 28.1312C93.8214 27.9513 93.0416 27.8713 92.2818 27.8713C91.8819 27.8713 91.622 27.9713 91.522 28.1512C91.3821 28.5911 91.3421 29.051 91.3621 29.4908ZM105.238 23.2326L109.017 31.9102C109.157 32.2901 109.397 32.61 109.677 32.8899C109.957 33.1098 110.297 33.2698 110.657 33.3298C110.757 33.3498 110.797 33.4297 110.797 33.5697C110.797 33.7297 110.737 33.7896 110.597 33.7896C110.497 33.7896 110.377 33.7697 110.277 33.7497C109.597 33.6297 108.897 33.5897 108.217 33.6097C107.558 33.5897 106.918 33.6297 106.278 33.7497C106.218 33.7697 106.138 33.7896 106.058 33.7896C105.938 33.8096 105.838 33.7297 105.818 33.6097C105.818 33.5897 105.818 33.5697 105.818 33.5497C105.818 33.4697 105.878 33.4098 105.998 33.3698C106.258 33.2898 106.478 33.1498 106.658 32.9499C106.818 32.7699 106.918 32.55 106.918 32.3101C106.778 31.5903 106.538 30.9104 106.198 30.2706C106.038 29.9507 105.878 29.7708 105.698 29.7108C105.058 29.6308 104.418 29.6108 103.799 29.6308H102.719L101.979 29.7708C101.779 29.8707 101.539 30.2306 101.279 30.8705L101.019 31.5103C100.939 31.6902 100.899 31.8702 100.899 32.0701C100.899 32.7699 101.379 33.1698 102.359 33.2898C102.559 33.3098 102.679 33.3898 102.659 33.5297C102.639 33.6697 102.539 33.7497 102.359 33.7497C102.219 33.7497 102.079 33.7297 101.939 33.7097C101.619 33.6497 101.279 33.6097 100.959 33.5897C100.699 33.5897 100.28 33.6097 99.6998 33.6697C99.2599 33.7097 99 33.7297 98.9 33.7297C98.74 33.7297 98.66 33.6697 98.66 33.5297C98.66 33.4098 98.74 33.3298 98.9 33.2698C99.1799 33.1898 99.4398 32.9899 99.6198 32.7499C99.9397 32.2501 100.2 31.7102 100.42 31.1704L102.679 25.9518C102.859 25.5319 102.979 25.252 103.059 25.092L103.839 23.5125L104.239 22.7327V22.7527C104.418 22.3328 104.538 22.1129 104.598 22.1129C104.678 22.1129 104.838 22.3528 105.058 22.8127L105.238 23.2326ZM105.558 28.4111L104.478 25.8718C104.219 25.272 104.039 24.9721 103.919 24.9721C103.859 24.9721 103.739 25.172 103.559 25.5519L103.399 25.8918L102.439 28.1112L102.339 28.3112C102.299 28.3711 102.279 28.4511 102.279 28.5311C102.279 28.711 102.479 28.811 102.879 28.811H105.318C105.518 28.811 105.638 28.751 105.638 28.6311C105.638 28.5911 105.618 28.5311 105.598 28.4911L105.558 28.4111ZM114.536 31.0504C114.536 32.0901 114.656 32.67 114.916 32.7899C115.176 32.8899 115.455 32.9099 115.715 32.8899C117.595 32.8899 118.914 32.3301 119.694 31.2304C119.934 30.8905 120.094 30.7305 120.154 30.7305C120.254 30.7305 120.314 30.8505 120.314 31.0704C120.314 31.7702 120.074 32.43 119.634 32.9499C119.234 33.4298 118.615 33.7097 117.975 33.6897C117.835 33.6897 117.575 33.6697 117.175 33.6497L116.175 33.5897L115.275 33.5497C114.976 33.5297 114.616 33.5297 114.236 33.5297C113.536 33.5297 112.856 33.5697 112.156 33.6497C111.936 33.6697 111.776 33.6897 111.696 33.6897C111.537 33.6897 111.457 33.6097 111.457 33.4697C111.457 33.3698 111.537 33.2898 111.676 33.2498C111.996 33.1698 112.256 32.9699 112.416 32.67C112.576 32.2301 112.636 31.7502 112.616 31.2703V24.3523C112.616 23.4725 112.256 22.9726 111.517 22.8527L111.017 22.7727C110.797 22.7327 110.697 22.6527 110.697 22.5128C110.677 22.3928 110.757 22.2728 110.877 22.2528C110.897 22.2528 110.917 22.2528 110.937 22.2528C111.017 22.2528 111.097 22.2728 111.177 22.2728C111.257 22.2728 111.357 22.2928 111.497 22.3128L111.856 22.3328C112.196 22.3728 112.456 22.3928 112.616 22.3928C112.876 22.3928 113.316 22.3528 113.896 22.2928C114.336 22.2528 114.776 22.2328 115.215 22.2328C115.555 22.2328 115.715 22.3128 115.715 22.4728C115.715 22.6127 115.595 22.6927 115.355 22.6927C114.796 22.7327 114.516 23.1126 114.516 23.8524L114.536 31.0504Z" fill="black"/>
</g>
</g>
<defs>
<filter id="filter0_b_3383_38024" x="-15.2738" y="-15.5882" width="151.176" height="87.1765" filterUnits="userSpaceOnUse" color-interpolation-filters="sRGB">
<feFlood flood-opacity="0" result="BackgroundImageFix"/>
<feGaussianBlur in="BackgroundImageFix" stdDeviation="7.79412"/>
<feComposite in2="SourceAlpha" operator="in" result="effect1_backgroundBlur_3383_38024"/>
<feBlend mode="normal" in="SourceGraphic" in2="effect1_backgroundBlur_3383_38024" result="shape"/>
</filter>
<clipPath id="clip0_3383_38024">
<rect x="0.314453" width="120" height="56" rx="9.35294" fill="white"/>
</clipPath>
</defs>
</svg>
