<svg width="119" height="56" viewBox="0 0 119 56" fill="none" xmlns="http://www.w3.org/2000/svg">
<g clip-path="url(#clip0_3384_38442)">
<path d="M11.7745 22.1011L6.64805 33.8989H5.44087L0.314453 22.1011H1.6374L6.06927 32.3483L10.5342 22.1011H11.7745Z" fill="black"/>
<path d="M18.4017 34C17.2552 34 16.2134 33.7416 15.2763 33.2247C14.3502 32.6966 13.6226 31.9775 13.0934 31.0674C12.5753 30.1573 12.3162 29.1348 12.3162 28C12.3162 26.8652 12.5753 25.8427 13.0934 24.9326C13.6226 24.0225 14.3502 23.309 15.2763 22.7921C16.2134 22.264 17.2552 22 18.4017 22C19.5483 22 20.5791 22.2584 21.4941 22.7753C22.4202 23.2921 23.1478 24.0112 23.677 24.9326C24.2061 25.8427 24.4707 26.8652 24.4707 28C24.4707 29.1348 24.2061 30.1629 23.677 31.0843C23.1478 31.9944 22.4202 32.7079 21.4941 33.2247C20.5791 33.7416 19.5483 34 18.4017 34ZM18.4017 32.8876C19.3168 32.8876 20.1436 32.6798 20.8822 32.264C21.6209 31.8371 22.1997 31.2528 22.6186 30.5112C23.0375 29.7584 23.247 28.9213 23.247 28C23.247 27.0787 23.0375 26.2472 22.6186 25.5056C22.1997 24.7528 21.6209 24.1685 20.8822 23.7528C20.1436 23.3258 19.3168 23.1124 18.4017 23.1124C17.4867 23.1124 16.6543 23.3258 15.9047 23.7528C15.166 24.1685 14.5817 24.7528 14.1518 25.5056C13.7328 26.2472 13.5234 27.0787 13.5234 28C13.5234 28.9213 13.7328 29.7584 14.1518 30.5112C14.5817 31.2528 15.166 31.8371 15.9047 32.264C16.6543 32.6798 17.4867 32.8876 18.4017 32.8876Z" fill="black"/>
<path d="M27.2137 22.1011H28.4374V32.8202H34.9198V33.8989H27.2137V22.1011Z" fill="black"/>
<path d="M38.1187 23.1798H34.0506V22.1011H43.4104V23.1798H39.3424V33.8989H38.1187V23.1798Z" fill="black"/>
<path d="M54.7206 34C53.574 34 52.5377 33.7416 51.6117 33.2247C50.6966 32.7079 49.9745 31.9944 49.4453 31.0843C48.9272 30.1629 48.6681 29.1348 48.6681 28C48.6681 26.8652 48.9272 25.8427 49.4453 24.9326C49.9745 24.0112 50.7021 23.2921 51.6282 22.7753C52.5543 22.2584 53.5906 22 54.7371 22C55.597 22 56.3908 22.1461 57.1184 22.4382C57.846 22.7303 58.4634 23.1573 58.9705 23.7191L58.1933 24.5112C57.2893 23.5787 56.1483 23.1124 54.7702 23.1124C53.8552 23.1124 53.0228 23.3258 52.2731 23.7528C51.5235 24.1798 50.9337 24.764 50.5037 25.5056C50.0848 26.2472 49.8753 27.0787 49.8753 28C49.8753 28.9213 50.0848 29.7528 50.5037 30.4944C50.9337 31.236 51.5235 31.8202 52.2731 32.2472C53.0228 32.6742 53.8552 32.8876 54.7702 32.8876C56.1593 32.8876 57.3003 32.4157 58.1933 31.4719L58.9705 32.264C58.4634 32.8258 57.8405 33.2584 57.1019 33.5618C56.3743 33.8539 55.5805 34 54.7206 34Z" fill="black"/>
<path d="M68.5482 30.7472H62.0988L60.7098 33.8989H59.4364L64.7282 22.1011H65.9354L71.2272 33.8989H69.9373L68.5482 30.7472ZM68.1017 29.736L65.3235 23.3989L62.5453 29.736H68.1017Z" fill="black"/>
<path d="M77.4747 22.1011C78.952 22.1011 80.1096 22.4607 80.9475 23.1798C81.7853 23.8989 82.2043 24.8876 82.2043 26.1461C82.2043 27.4045 81.7853 28.3933 80.9475 29.1124C80.1096 29.8202 78.952 30.1742 77.4747 30.1742H74.3658V33.8989H73.1421V22.1011H77.4747ZM77.4417 29.0787C78.5882 29.0787 79.4647 28.8258 80.071 28.3202C80.6774 27.8034 80.9805 27.0787 80.9805 26.1461C80.9805 25.191 80.6774 24.4607 80.071 23.9551C79.4647 23.4382 78.5882 23.1798 77.4417 23.1798H74.3658V29.0787H77.4417Z" fill="black"/>
<path d="M84.8503 22.1011H86.074V33.8989H84.8503V22.1011Z" fill="black"/>
<path d="M92.0894 23.1798H88.0213V22.1011H97.3812V23.1798H93.3131V33.8989H92.0894V23.1798Z" fill="black"/>
<path d="M106.014 30.7472H99.5651L98.176 33.8989H96.9026L102.194 22.1011H103.402L108.693 33.8989H107.404L106.014 30.7472ZM105.568 29.736L102.79 23.3989L100.012 29.736H105.568Z" fill="black"/>
<path d="M110.608 22.1011H111.832V32.8202H118.314V33.8989H110.608V22.1011Z" fill="black"/>
</g>
<defs>
<clipPath id="clip0_3384_38442">
<rect width="118" height="56" fill="white" transform="translate(0.314453)"/>
</clipPath>
</defs>
</svg>
