<svg xmlns="http://www.w3.org/2000/svg" width="102" height="34" viewBox="0 0 102 34" fill="none"><path d="M25.815 13.488c-.545.545-1.216.886-1.92 1.024a7.29 7.29 0 0 1-1.668 7.67c-1.389 1.389-3.258 2.124-5.15 2.124a7.23 7.23 0 0 1-2.527-.457 3.72 3.72 0 0 1-1.026 1.93c-1.459 1.459-3.824 1.459-5.282 0s-1.459-3.824 0-5.282a3.72 3.72 0 0 1 1.918-1.023 7.29 7.29 0 0 1 1.654-7.706 7.29 7.29 0 0 1 7.699-1.657 3.72 3.72 0 0 1 1.021-1.906c1.459-1.459 3.824-1.459 5.282 0s1.459 3.824 0 5.282zM17.02.494A16.51 16.51 0 0 0 .514 17 16.51 16.51 0 0 0 17.02 33.506 16.51 16.51 0 0 0 33.526 17 16.51 16.51 0 0 0 17.02.494zm1.95 18.431c-1.067 1.067-2.797 1.067-3.865 0s-1.067-2.797 0-3.865 2.797-1.067 3.865 0 1.067 2.797 0 3.865zm2.438-9.844c-.562.562-.819 1.366-.689 2.151a1.28 1.28 0 0 1-.096.768 1.27 1.27 0 0 1-.715.659c-.306.112-.654.108-.973-.039a4.74 4.74 0 0 0-6.27 6.27c.15.323.151.677.034.986-.114.3-.34.557-.654.702a1.27 1.27 0 0 1-.533.118 1.26 1.26 0 0 1-.251-.028c-.817-.112-1.58.142-2.134.696a2.45 2.45 0 0 0 0 3.489 2.47 2.47 0 0 0 3.489 0c.562-.562.819-1.366.689-2.151a.42.42 0 0 1 0-.126c-.015-.208.021-.422.114-.624.147-.317.408-.545.711-.658s.657-.11.977.038a4.74 4.74 0 0 0 6.27-6.27c-.146-.316-.151-.661-.042-.964.111-.309.34-.575.662-.724.226-.105.466-.136.696-.106.036-.004.072-.005.109 0 .778.111 1.541-.143 2.095-.698a2.47 2.47 0 0 0 0-3.489 2.47 2.47 0 0 0-3.488 0zm44.039 12.933a2.73 2.73 0 0 1 .208-.012v2.425c-.539.108-.962.162-1.27.162-1.032 0-1.836-.262-2.414-.785s-.866-1.34-.866-2.448V7.75h2.91v13.12c0 .385.077.674.231.866s.462.289.924.289a3.34 3.34 0 0 0 .277-.012zm1.6 2.437h2.933V12.439h-2.933V24.45zm12.548-12.011h2.887V24.45h-2.402l-.208-1.571c-.293.585-.747 1.043-1.363 1.374s-1.309.497-2.079.497c-1.278 0-2.291-.393-3.037-1.178s-1.12-1.825-1.12-3.118v-8.015h2.887v7.368c0 1.524.693 2.287 2.079 2.287.585 0 1.078-.2 1.478-.601.585-.539.878-1.44.878-2.702v-6.352zm22.365 3.904v8.107h-2.864V16.99c0-.785-.135-1.371-.404-1.756s-.751-.577-1.444-.577c-.754 0-1.336.327-1.744.982s-.612 1.405-.612 2.252v6.56h-2.864V16.99c0-.785-.135-1.371-.404-1.756s-.751-.577-1.444-.577c-.754 0-1.34.327-1.755.982s-.624 1.405-.624 2.252v6.56h-2.864V12.439h2.402l.231 1.594c.77-1.263 1.91-1.894 3.419-1.894 1.648 0 2.795.654 3.442 1.963.755-1.309 1.963-1.963 3.626-1.963 1.247 0 2.21.381 2.888 1.143s1.016 1.782 1.016 3.06zm-35.005-5.567h3.095v-2.98h-3.095v2.98zM46.101 13.34c.724.801 1.086 1.832 1.086 3.095v8.015H44.3v-7.415c0-.739-.15-1.297-.45-1.675s-.812-.566-1.536-.566a2.03 2.03 0 0 0-1.836 1.028c-.423.685-.635 1.451-.635 2.298v6.329h-2.887V7.773h2.887v5.936c.339-.493.808-.878 1.409-1.155s1.224-.416 1.871-.416c1.263 0 2.256.4 2.98 1.201zm5.434 3.904c.015-.739.223-1.363.624-1.871.462-.616 1.132-.924 2.01-.924.785 0 1.394.231 1.825.693.477.524.724 1.224.739 2.102h-5.197zm2.656-5.105c-1.571 0-2.849.508-3.834 1.525-1.155 1.186-1.732 2.787-1.732 4.804s.616 3.619 1.848 4.804c1.032.985 2.294 1.478 3.788 1.478 1.74 0 3.088-.562 4.042-1.686.601-.724.939-1.463 1.016-2.217h-2.772c-.108.4-.3.739-.577 1.016-.385.385-.97.577-1.755.577-.662 0-1.255-.246-1.779-.739-.616-.585-.909-1.37-.878-2.356h8.038a21.75 21.75 0 0 1 .023-.808c.046-1.663-.3-3.057-1.039-4.181-.986-1.478-2.448-2.217-4.389-2.217z" fill="#888"/></svg>
