<svg width="204" height="48" viewBox="0 0 204 48" fill="none" xmlns="http://www.w3.org/2000/svg">
  <g clip-path="url(#clip0_1471_37324)">
    <path d="M24.1984 0.199951C11.0984 0.199951 0.398438 10.9 0.398438 24C0.398438 37.1 11.0984 47.7999 24.1984 47.7999C37.2984 47.7999 48.0984 37.1 48.0984 24C48.0984 10.9 37.3984 0.199951 24.1984 0.199951ZM26.1984 17.1L27.1984 16L30.3984 12.3H33.3984L27.2984 19.5C27.2984 19.5 26.6984 18.7 26.2984 18.4C25.8984 18 25.8984 17.4 26.1984 17.1ZM18.4984 12.3C18.4984 12.3 23.6984 18.3999 25.4984 20.2999C25.7984 20.5999 25.6984 21 25.4984 21.4C24.4984 22.6 24.3984 22.6 24.3984 22.6L15.4984 12.3H18.4984ZM22.5984 30.7999L21.5984 31.9L18.3984 35.7H15.4984L21.5984 28.5C21.5984 28.5 22.1984 29.3 22.5984 29.6C22.9984 29.8 22.8984 30.4999 22.5984 30.7999ZM22.7984 24.4C20.2984 27.4 13.1984 35.5999 13.1984 35.5999H9.99844L19.5984 24.5C19.8984 24.2 19.8984 23.7 19.5984 23.2L10.0984 12.2H13.1984L22.6984 23.2999C22.9984 23.6999 22.9984 24.1 22.7984 24.4ZM30.2984 35.5999L23.7984 28L23.4984 27.6C23.1984 27.3 23.1984 26.5999 23.4984 26.2999L35.5984 12.2H38.5984L26.3984 26.2C26.0984 26.5 26.0984 27 26.3984 27.5L33.3984 35.5999H30.2984ZM35.7984 35.5999C35.7984 35.5999 30.4984 29.5 28.7984 27.5C28.5984 27.3 28.4984 27 28.5984 26.7C28.6984 26.6 28.7984 26.3999 28.8984 26.2999L29.6984 25.5L38.5984 35.9L35.7984 35.5999Z" fill="#888"/>
    <path d="M64.5984 14.2H60.8984V33.2H64.5984V14.2Z" fill="#888"/>
    <path d="M83.7016 19.2999C81.9016 19.2999 80.2016 19.9999 79.2016 21.5999C78.5016 19.9999 77.0016 19.2999 75.1016 19.2999C73.5016 19.2999 71.9016 19.9999 71.1016 21.4999V19.5999H67.6016V33.1999H71.0016V25.5999C71.0016 23.6999 72.3016 22.2999 74.0016 22.2999H74.2016C75.7016 22.2999 76.3016 23.2999 76.3016 24.9999V33.0999H79.8016V25.4999C79.8016 23.5999 81.1016 22.1999 82.8016 22.1999H83.0016C84.5016 22.1999 85.1016 23.1999 85.1016 24.8999V32.9999H88.6016V24.3999C88.6016 22.7999 88.2016 21.4999 87.4016 20.4999C86.7016 19.8999 85.4016 19.2999 83.7016 19.2999Z" fill="#888"/>
    <path d="M107.295 19.2999C105.495 19.2999 103.795 19.9999 102.795 21.5999C102.095 19.9999 100.595 19.2999 98.6953 19.2999C97.0953 19.2999 95.4953 19.9999 94.6953 21.4999V19.5999H91.1953V33.1999H94.6953V25.5999C94.6953 23.6999 95.9953 22.2999 97.6953 22.2999H97.8953C99.3953 22.2999 99.9953 23.2999 99.9953 24.9999V33.0999H103.495V25.4999C103.495 23.5999 104.795 22.1999 106.495 22.1999H106.695C108.195 22.1999 108.795 23.1999 108.795 24.8999V32.9999H112.295V24.3999C112.295 22.7999 111.895 21.4999 111.095 20.4999C110.095 19.8999 108.995 19.2999 107.295 19.2999Z" fill="#888"/>
    <path d="M134 28.7999V22.5999H137.1V19.6999H134V15.2999H130.5V19.6999H126.5H123.1H123V27.1999C123 29.0999 121.7 30.6999 120.1 30.6999H120C118.7 30.6999 118 29.6999 118 27.9999V19.5999H114.5V28.2999C114.5 29.8999 114.9 31.1999 115.7 32.0999C116.4 33.0999 117.6 33.4999 119.2 33.4999C120.9 33.4999 122.4 32.6999 123.2 31.2999V33.2999H126.7V22.4999H130.7V29.6999C130.7 31.9999 132 33.1999 134.2 33.1999H137.7V30.1999H135.8C134.4 30.1999 134 29.9999 134 28.7999Z" fill="#888"/>
    <path d="M150.095 24.1999C150.095 20.9999 147.795 19.2999 144.395 19.2999C140.995 19.2999 138.795 21.1999 138.595 23.6999H142.195C142.295 22.8999 143.195 22.0999 144.395 22.0999H144.595C145.895 22.0999 146.795 23.0999 146.795 24.2999V24.5999L143.195 24.8999C141.695 24.9999 140.595 25.3999 139.595 26.1999C138.595 26.8999 138.195 27.9999 138.195 29.3999C138.195 31.7999 140.195 33.3999 142.595 33.3999C144.295 33.3999 145.795 32.6999 146.595 31.4999C146.595 32.1999 146.695 32.7999 146.795 33.1999H150.095C149.995 32.5999 149.995 31.5999 149.995 30.1999V24.1999H150.095ZM146.695 27.6999C146.695 29.3999 145.295 30.6999 143.595 30.6999H143.395C142.395 30.6999 141.695 30.1999 141.695 29.2999C141.695 28.7999 141.895 28.2999 142.295 28.0999C142.695 27.7999 143.095 27.6999 143.695 27.5999L146.695 27.2999V27.6999Z" fill="#888"/>
    <path d="M160.095 19.3C158.295 19.3 156.695 20.4 156.195 21.3V14.1H152.695V33.1H156.195V31.3C156.795 32.3 158.295 33.3 160.095 33.3C163.895 33.4 166.195 29.9 166.095 26.2C166.195 22.7 163.895 19.2 160.095 19.3ZM159.395 30.7H159.195C157.595 30.7 155.995 29 156.095 26.5C156.095 24 157.595 22.3 159.195 22.3H159.395C161.195 22.3 162.495 23.9 162.495 26.5C162.595 29 161.195 30.7 159.395 30.7Z" fill="#888"/>
    <path d="M171.398 14.2H167.898V33.2H171.398V14.2Z" fill="#888"/>
    <path d="M179.698 19.3C175.698 19.2 173.098 22.3 173.198 26.4C173.098 30.7 176.298 33.5 179.698 33.5C183.098 33.5 185.198 31.6 185.798 29H182.298C182.098 30 181.098 30.7 179.898 30.7H179.698C178.198 30.7 176.698 29.4 176.598 27.6H185.798C185.798 27 185.898 26.5 185.898 26.3C185.998 22.3 183.598 19.3 179.698 19.3ZM176.698 24.8C176.798 23.2 177.998 22.2 179.598 22.2H179.798C181.298 22.2 182.498 23.2 182.698 24.8H176.698Z" fill="#888"/>
    <path d="M199.395 33.3L195.095 26.7L190.695 33.3H186.695L193.195 23.7L187.195 14.6H191.395L195.295 20.5L199.295 14.6H203.295L197.295 23.6L203.795 33.3H199.395Z" fill="#888"/>
  </g>
  <defs>
    <clipPath id="clip0_1471_37324">
      <rect width="204" height="48" fill="white"/>
    </clipPath>
  </defs>
</svg>
