<svg width="111" height="32" viewBox="0 0 111 32" fill="none" xmlns="http://www.w3.org/2000/svg">
  <g clip-path="url(#clip0_1471_37307)">
    <path d="M108.434 17.5778C107.578 16.8778 106.567 16.6444 105.556 16.3333H105.478C104.467 16.0222 103.922 15.7889 103.456 15.4778C103.067 15.0889 102.911 14.7 102.834 13.9222C102.841 13.656 102.893 13.3929 102.989 13.1444C103.061 12.8601 103.193 12.5947 103.378 12.3667L104.156 11.8222C104.531 11.6947 104.927 11.6418 105.322 11.6667C105.711 11.6667 106.022 11.6667 106.334 11.8222C106.645 11.9 106.878 12.0556 107.111 12.2889C107.267 12.4444 107.422 12.6778 107.5 12.9889C107.656 13.2222 107.656 13.6111 107.656 14V14.6222H109.6V13.9222C109.601 13.3675 109.489 12.8185 109.272 12.3079C109.055 11.7974 108.738 11.3359 108.338 10.951C107.939 10.5661 107.466 10.2658 106.948 10.068C106.429 9.87022 105.877 9.77907 105.322 9.8C104.25 9.78751 103.207 10.1446 102.367 10.8111C101.911 11.2048 101.548 11.6954 101.306 12.2471C101.064 12.7989 100.948 13.3977 100.967 14C100.967 15.3222 101.434 16.3333 102.289 16.9556C103.067 17.5778 104.156 17.8889 105.167 18.2C106.256 18.4333 106.956 18.8222 107.5 19.2111C107.889 19.6778 108.045 20.2222 108.122 21V21.1556C108.122 21.4667 108.045 21.8556 107.889 22.1667C107.764 22.4843 107.58 22.7748 107.345 23.0222C107.111 23.3333 106.8 23.4889 106.489 23.6444C106.119 23.7985 105.723 23.8778 105.322 23.8778C104.467 23.8778 103.767 23.5667 103.145 23.1C102.678 22.5556 102.367 21.8556 102.367 20.9222V20.3H100.5V21.0778C100.5 21.7 100.5 22.2444 100.734 22.7889C100.927 23.3055 101.218 23.7806 101.589 24.1889C102.076 24.6691 102.659 25.0402 103.3 25.2778C103.937 25.5634 104.624 25.7219 105.322 25.7444C105.964 25.7403 106.599 25.6081 107.189 25.3556C107.777 25.103 108.306 24.7324 108.745 24.2667C109.188 23.8253 109.532 23.2951 109.756 22.7111L109.989 20.8444C109.911 19.3667 109.367 18.2778 108.434 17.5778V17.5778ZM100.267 2.33333H97.778L99.8002 3.81111L99.0224 6.14444L101.122 4.66667L103.067 6.22222L102.289 3.81111L104.234 2.33333H101.9L101.122 0L100.345 2.33333H100.267ZM92.878 22.3222L87.9002 9.8H85.878L86.3446 11.1222L89.1446 18.1222L91.7891 24.8889L89.0668 31.1889H91.1668L99.7224 11.2778L100.267 9.87778H98.0113L92.8002 22.3222H92.878ZM74.0557 13.3778C74.8335 12.7556 75.378 12.3667 76.078 12.0556C76.828 11.7945 77.6171 11.663 78.4113 11.6667C79.5065 11.6658 80.5816 11.9614 81.5224 12.5222C82.6084 13.1842 83.4325 14.2007 83.8557 15.4L84.0891 15.8667H86.1113L85.8002 15.0111C85.178 13.2222 84.0891 11.9 82.5335 10.9667C81.262 10.2115 79.8123 9.80882 78.3335 9.8C76.1557 9.8 74.2113 10.5778 72.7335 12.1333C71.178 13.5333 70.4002 15.5556 70.4002 17.8111C70.3993 18.8694 70.6124 19.917 71.0265 20.8909C71.4405 21.8649 72.0472 22.7451 72.8099 23.4788C73.5726 24.2125 74.4757 24.7844 75.465 25.1604C76.4543 25.5364 77.5094 25.7086 78.5668 25.6667C80.2002 25.6667 81.7557 25.1222 83.078 24.2667C84.3694 23.3697 85.3484 22.0916 85.878 20.6111L86.1891 19.6778H84.0113L83.9335 20.1444C83.5615 21.114 82.9123 21.9525 82.0668 22.5556C80.9898 23.3633 79.6798 23.8 78.3335 23.8C77.5329 23.796 76.7407 23.6375 76.0002 23.3333C75.3042 23.0415 74.6706 22.6191 74.1335 22.0889C73.5637 21.5386 73.1135 20.8767 72.8113 20.1444C72.4929 19.3538 72.3343 18.5079 72.3446 17.6556C72.3446 16.8778 72.5002 15.9444 72.8113 15.1667C73.1224 14.3889 73.5891 13.7667 74.0557 13.3V13.3778ZM66.6668 18.8222C66.6668 19.1333 66.5113 19.5222 66.3557 19.8333C65.9779 21.0118 65.2443 22.0443 64.2557 22.7889C63.2579 23.5027 62.0604 23.8837 60.8335 23.8778C58.9668 23.8778 57.4113 23.1778 56.2446 21.9333C55.2215 20.7342 54.6726 19.2021 54.7012 17.6261C54.7299 16.0501 55.3342 14.539 56.4002 13.3778C56.9742 12.8148 57.6556 12.3732 58.4039 12.0792C59.1522 11.7852 59.952 11.6449 60.7557 11.6667C62.0002 11.6667 63.0891 11.9778 64.178 12.6778C65.1678 13.3382 65.9287 14.2893 66.3557 15.4C66.6374 16.0904 66.77 16.8326 66.7446 17.5778V18.7444L66.6668 18.8222ZM66.6668 9.8V12.3667C66.2507 11.9209 65.7803 11.529 65.2668 11.2C63.938 10.2906 62.366 9.8027 60.7557 9.8C59.6428 9.77015 58.5368 9.98448 57.5156 10.4279C56.4944 10.8713 55.5827 11.5331 54.8446 12.3667C53.5423 13.8664 52.8252 15.7859 52.8252 17.7722C52.8252 19.7585 53.5423 21.678 54.8446 23.1778C55.5813 23.9871 56.4836 24.6283 57.4901 25.0577C58.4967 25.4872 59.584 25.6949 60.678 25.6667C62.2335 25.6667 63.6335 25.2778 64.8002 24.5C65.4771 24.0823 66.0814 23.5568 66.5891 22.9444V25.6667H68.4557V9.8H66.5891H66.6668ZM49.1668 11.3556C48.6379 10.8343 48.0005 10.436 47.3002 10.1889C45.7354 9.63592 44.0241 9.66352 42.478 10.2667C41.7023 10.6026 41.0114 11.1075 40.4557 11.7444C40.2526 11.9878 40.0704 12.248 39.9113 12.5222L39.3668 11.7444C38.847 11.1026 38.18 10.5957 37.4224 10.2667C35.8038 9.59688 33.9855 9.59688 32.3668 10.2667C31.7484 10.5741 31.1941 10.9965 30.7335 11.5111V9.8H28.7891V25.6667H30.6557V16.8C30.6557 15.8667 30.7335 15.2444 30.9668 14.5444C31.1422 13.9727 31.4334 13.4432 31.8224 12.9889C32.1335 12.5222 32.6002 12.2111 33.0668 11.9778C33.6113 11.7444 34.2335 11.5889 34.7002 11.6667C35.478 11.6667 36.1002 11.8222 36.6446 12.0556C37.1891 12.2889 37.6557 12.6778 37.9668 13.0667C38.278 13.5333 38.5113 13.8444 38.5891 14.3111C38.7446 14.9333 38.8224 15.5556 38.8224 16.4889V25.6667H40.7668V16.8778C40.7668 15.9444 40.7668 15.1667 40.9224 14.5444L41.7002 12.9889C42.0891 12.6 42.5557 12.2111 43.178 11.9778C44.2668 11.5111 45.6668 11.5889 46.5224 11.9778C46.9582 12.1222 47.3566 12.3612 47.6891 12.6778C48.1185 13.1155 48.4383 13.6485 48.6224 14.2333C48.8557 15.0111 48.9335 15.8667 48.9335 16.8778V25.7444H50.878V16.8778C50.878 15.7111 50.7224 14.5444 50.4113 13.6889C50.1002 12.7556 49.6335 11.9778 49.0891 11.3556H49.1668Z" fill="#888"/>
    <path d="M13.4634 0L10.3523 9.8H0.0078125L8.33003 15.8667L5.21892 25.6667L13.4634 19.6L21.7856 25.7444L18.6745 15.8667L26.9189 9.8H16.6523L13.5411 0H13.4634Z" fill="#888"/>
  </g>
  <defs>
    <clipPath id="clip0_1471_37307">
      <rect width="110.444" height="31.1111" fill="white"/>
    </clipPath>
  </defs>
</svg>
