<svg xmlns="http://www.w3.org/2000/svg" width="133" height="22" viewBox="0 0 133 22" fill="#888"><path d="M102.589 13.485h-2.299a.7.7 0 0 1-.473-.198.67.67 0 0 1-.203-.462v-.528a.67.67 0 0 1 .203-.462.7.7 0 0 1 .473-.198h1.965c.18 0 .351-.07.478-.193a.65.65 0 0 0 0-.934.68.68 0 0 0-.478-.193h-1.983a.7.7 0 0 1-.473-.198.67.67 0 0 1-.203-.462v-.528a.67.67 0 0 1 .203-.462.7.7 0 0 1 .473-.198h2.254a.69.69 0 0 0 .478-.193.65.65 0 0 0 0-.933c-.127-.124-.299-.193-.478-.193h-2.705a.46.46 0 0 0-.291.096.44.44 0 0 0-.16.256l-1.442 6.644v.132c.025.154.109.294.234.391a.66.66 0 0 0 .442.137h3.967c.179 0 .351-.069.478-.193a.65.65 0 0 0 0-.933c-.127-.124-.299-.193-.478-.193h.018zM52.552 7.193h-.902a.72.72 0 0 0-.374.11.69.69 0 0 0-.257.286l-1.983 4.664c0 .012-.005.023-.013.031s-.02.013-.032.013c-.045 0-.045 0-.045-.044l-1.983-4.664a.79.79 0 0 0-.225-.308c-.18-.132-.406.044-.451.264l-1.488 6.732c-.012.076.004.154.045.22a.64.64 0 0 0 .241.258.66.66 0 0 0 .345.094h.27a.7.7 0 0 0 .462-.204.67.67 0 0 0 .197-.456V9.877c0-.012.005-.023.013-.031s.02-.013.032-.013.024.005.032.013.013.019.013.031l1.848 4.532a.63.63 0 0 0 .25.298c.114.071.247.105.381.098h.18a.72.72 0 0 0 .374-.11.69.69 0 0 0 .257-.286l1.848-4.488c0-.012.005-.023.013-.031s.02-.013.032-.013.023.005.032.013a.04.04 0 0 1 .013.031v4.268a.67.67 0 0 0 .203.462.7.7 0 0 0 .473.198h.27a.7.7 0 0 0 .473-.198.67.67 0 0 0 .203-.462V7.853a.79.79 0 0 0-.257-.456.83.83 0 0 0-.491-.204zm20.644 3.564h-1.983a.64.64 0 0 0-.446.18c-.119.116-.185.272-.185.436s.066.32.185.436a.64.64 0 0 0 .446.18h.361c.361 0 .721.308.541.66-.27.572-.811.88-1.668.88-1.262 0-2.028-.924-2.028-2.508s.811-2.508 2.028-2.508a1.67 1.67 0 0 1 .816.166c.253.123.468.309.626.538a.84.84 0 0 0 .301.314.87.87 0 0 0 .421.126h.406a.58.58 0 0 0 .267-.042.56.56 0 0 0 .216-.159.54.54 0 0 0 .103-.503 3.28 3.28 0 0 0-1.292-1.389 3.39 3.39 0 0 0-1.864-.459c-2.073 0-3.651 1.452-3.651 3.916s1.488 3.916 3.696 3.916c1.983 0 3.381-1.232 3.381-3.212v-.308a.62.62 0 0 0-.048-.255.66.66 0 0 0-.367-.359c-.083-.033-.172-.048-.261-.047zM61.479 7.633c-.046-.128-.132-.238-.244-.317a.69.69 0 0 0-.387-.123h-1.172a.69.69 0 0 0-.387.123.66.66 0 0 0-.244.317l-2.254 6.336c-.034.099-.043.204-.028.308a.66.66 0 0 0 .117.287.68.68 0 0 0 .237.205c.094.049.199.077.306.08h.361a.69.69 0 0 0 .387-.123.66.66 0 0 0 .244-.317l.27-.836a.67.67 0 0 1 .244-.317.69.69 0 0 1 .387-.123h1.848a.69.69 0 0 1 .387.123.66.66 0 0 1 .244.317l.27.836c.046.128.132.238.244.317a.69.69 0 0 0 .387.123h.361a.7.7 0 0 0 .306-.08.68.68 0 0 0 .237-.205.66.66 0 0 0 .089-.595L61.48 7.633zm-1.145 4.18h-.135a.7.7 0 0 1-.306-.08c-.094-.05-.175-.12-.236-.205a.66.66 0 0 1-.089-.595l.676-2.024c0-.012.005-.023.013-.031s.02-.013.032-.013.023.005.032.013a.04.04 0 0 1 .013.031l.676 2.024a.71.71 0 0 1-.127.594.73.73 0 0 1-.242.202.75.75 0 0 1-.307.084zm18.093-4.62h-.316a.7.7 0 0 0-.473.198.67.67 0 0 0-.203.462v6.336a.67.67 0 0 0 .203.462.7.7 0 0 0 .473.198h.316a.7.7 0 0 0 .473-.198.67.67 0 0 0 .203-.462V7.853a.7.7 0 0 0-.211-.454c-.124-.121-.29-.195-.465-.206zm7.888 1.32a1.8 1.8 0 0 1 .873.199c.268.139.496.343.659.593.058.153.163.286.299.38a.84.84 0 0 0 .467.148h.316a.58.58 0 0 0 .267-.042.56.56 0 0 0 .216-.159.54.54 0 0 0 .115-.239c.018-.088.014-.178-.012-.264-.451-1.32-1.668-2.068-3.246-2.068-2.074 0-3.651 1.408-3.651 3.916s1.533 3.916 3.651 3.916c1.668 0 2.795-.88 3.2-1.98.026-.086.03-.176.012-.264a.55.55 0 0 0-.115-.239.56.56 0 0 0-.216-.159c-.084-.035-.176-.05-.267-.042h-.361a.95.95 0 0 0-.456.163.92.92 0 0 0-.31.365 1.62 1.62 0 0 1-.631.599 1.67 1.67 0 0 1-.857.193c-1.172 0-1.983-.88-1.983-2.508s.811-2.508 2.028-2.508zm23.353-1.32h-2.119a.7.7 0 0 0-.473.198.67.67 0 0 0-.203.462v6.336a.67.67 0 0 0 .203.462.7.7 0 0 0 .473.198h2.119c2.389 0 3.831-1.452 3.831-3.828s-1.487-3.828-3.831-3.828zm-.09 6.248h-.361c-.178-.005-.347-.075-.473-.198s-.199-.288-.203-.462V9.217c.004-.174.077-.339.203-.462a.7.7 0 0 1 .473-.198h.361c1.487 0 2.253.748 2.253 2.42s-.766 2.464-2.253 2.464zm12.032.045h-2.299c-.178-.005-.347-.075-.473-.198s-.199-.288-.203-.462v-.528c.004-.174.077-.339.203-.462a.7.7 0 0 1 .473-.198h1.983c.18 0 .351-.07.478-.193a.65.65 0 0 0 0-.934.68.68 0 0 0-.478-.193h-1.983a.7.7 0 0 1-.473-.198c-.126-.123-.199-.288-.203-.462V9.13c.004-.174.077-.339.203-.462a.7.7 0 0 1 .473-.198h2.254a.69.69 0 0 0 .478-.193.65.65 0 0 0 0-.933c-.127-.124-.299-.193-.478-.193h-3.922a.7.7 0 0 0-.473.198c-.126.123-.199.288-.203.462v6.336c.004.174.077.339.203.462a.7.7 0 0 0 .473.198h3.967a.7.7 0 0 0 .473-.198.67.67 0 0 0 .203-.462.64.64 0 0 0-.194-.471.66.66 0 0 0-.221-.143.68.68 0 0 0-.261-.046zm10.188-6.293h-.316a.7.7 0 0 0-.472.198.67.67 0 0 0-.204.462v4.092c0 .044 0 .044-.045.044h-.045l-3.155-4.488a.65.65 0 0 0-.541-.264h-.424a.7.7 0 0 0-.473.198c-.126.123-.199.288-.203.462v6.336c.004.174.077.339.203.462a.7.7 0 0 0 .473.198h.316a.7.7 0 0 0 .472-.198.67.67 0 0 0 .204-.462v-4.136c0-.012.005-.023.013-.031s.02-.013.032-.013h.045l3.2 4.488a.65.65 0 0 0 .237.198.66.66 0 0 0 .304.066h.406c.178-.005.347-.075.473-.198s.199-.288.203-.462V7.809a.75.75 0 0 0-.243-.426.78.78 0 0 0-.46-.191zM25.339 5.798l2.087 2.429.536.625a3.24 3.24 0 0 1 .974 2.31c-.059 1.021-.73 1.716-1.352 2.46l-1.46 1.698-.762.88c-.027.03-.045.068-.051.108s.001.081.018.117.046.067.081.088.076.031.118.03h7.613c1.163 0 2.628.968 2.542 2.438a2.5 2.5 0 0 1-.759 1.78c-.484.472-1.139.739-1.824.741H21.179c-.784 0-2.894.084-3.484-1.698a2.07 2.07 0 0 1-.05-1.153 4.99 4.99 0 0 1 .802-1.567l1.889-2.614 2.506-3.34c.03-.037.046-.083.046-.13s-.016-.093-.046-.13l-3.029-3.52a.21.21 0 0 0-.075-.06.22.22 0 0 0-.094-.022c-.032 0-.065.007-.094.022a.21.21 0 0 0-.075.06l-5.121 6.763c-.757.959-2.623 1.012-3.656 0L5.961 9.472c-.03-.03-.069-.05-.111-.058a.22.22 0 0 0-.125.012c-.04.016-.073.043-.097.078s-.036.076-.036.118v8.928a2.98 2.98 0 0 1-.55 1.776 3.1 3.1 0 0 1-1.506 1.132 2.65 2.65 0 0 1-1.216.115 2.63 2.63 0 0 1-1.135-.441 2.55 2.55 0 0 1-.802-.9 2.48 2.48 0 0 1-.29-1.159V3.021c.027-.578.24-1.134.609-1.587A2.82 2.82 0 0 1 2.147.496C2.637.368 3.153.37 3.642.499a2.89 2.89 0 0 1 1.291.736l7.284 7.12c.022.022.048.038.077.049s.06.015.091.012.061-.012.088-.027a.21.21 0 0 0 .068-.061l5.175-6.992c.239-.284.539-.513.878-.672s.711-.243 1.087-.248h13.46a2.64 2.64 0 0 1 1.068.227 2.59 2.59 0 0 1 .877.637 2.51 2.51 0 0 1 .529.933 2.47 2.47 0 0 1 .087 1.063 2.57 2.57 0 0 1-.904 1.587c-.488.405-1.11.623-1.751.614H25.51c-.038.001-.075.012-.107.031a.21.21 0 0 0-.1.187c.002.037.014.073.035.103z"/></svg>
