<svg width="48" height="48" viewBox="0 0 48 48" fill="none" xmlns="http://www.w3.org/2000/svg">
  <g clip-path="url(#clip0_1471_37311)">
    <path d="M2.51145 29.4757L1.04688 30.9408L3.03566 31.5961L2.51145 29.4757Z" fill="#888"/>
    <path d="M3.23699 32.3308L2.10938 33.9368L3.73091 34.0468L3.23699 32.3308Z" fill="#888"/>
    <path d="M1.77179 26.7523L0.28125 28.0595L2.32288 28.8201L1.77179 26.7523Z" fill="#888"/>
    <path d="M4.86408 34.1362L1.5217 25.7446L0.0625 24.9836L2.2826 23.5776L0.140788 21.9302L2.50263 20.7655L0.508516 18.9704L3.11146 18.1522L1.33296 16.1258L3.96672 15.5429L2.5345 13.3131L5.16336 13.0456L3.98333 10.6006L6.74813 10.6735L5.95004 8.25437L8.6582 8.48026L8.09199 5.99818L10.6309 6.75365L10.4372 4.09339L12.9615 5.16869L13.1453 2.60827L15.428 4.03531L15.8421 1.40112L17.9355 3.04858L18.7341 0.58776L20.5918 2.4817L21.6359 0.162288L23.294 2.19331L24.6115 0L26.0017 2.2201L27.5552 0.230832L28.6154 2.60251L30.5356 0.755472L31.276 3.32731L33.3695 1.75301L33.8262 4.35509L36.0404 3.1009L36.1294 5.79854L38.5646 4.74931L38.3435 7.49827L40.9788 6.81614L40.2859 9.35654L42.8468 9.10968L41.944 11.5023L44.6781 11.608L43.3872 13.8804L45.9745 14.0788L44.3681 16.1577L46.9299 16.9126L45.1866 18.8071L47.5588 19.9307L45.6121 21.5885L47.8478 23.0632L45.7695 24.2757L47.8424 25.9445L45.5285 27.0307L47.4487 29.0252L44.9671 29.8175L46.5515 31.9114L44.0434 32.4826L45.5075 34.9496L42.726 34.9442L43.8546 37.3529L41.22 37.2639L42.0332 39.7768L39.4943 39.2214L40.0605 41.8503L37.4467 41.0943L37.6365 43.618L35.2111 42.6214L35.1588 45.3553L32.9186 43.9593L32.4301 46.4415L30.3416 44.8939L29.5117 47.3546L27.5659 45.5129L26.6154 47.848L24.8574 45.8273L23.5454 48L22.1233 45.7438L20.518 47.7428L19.4632 45.261L17.6158 47.1916L16.8235 44.5951L14.6827 46.2942L14.3306 43.6132L12.1585 44.9726L12.1429 42.3067L9.63418 43.3198L9.95405 40.685L7.27733 41.3516L7.9922 38.8587L5.35748 39.1843L6.23372 36.7172L3.5472 36.5861L4.86408 34.1362Z" fill="#888"/>
    <path d="M42.1485 44.0645C42.1436 42.7315 43.2248 41.7502 44.5001 41.7451C45.7647 41.7451 46.8449 42.7267 46.8449 44.0645C46.8508 45.4077 45.7695 46.3886 44.505 46.3886C43.2302 46.3886 42.1485 45.4077 42.1485 44.0645ZM44.505 46.0009C45.5544 46.0009 46.3833 45.1771 46.3833 44.0645C46.3833 42.9574 45.5495 42.1335 44.5001 42.1335C43.4395 42.1335 42.6102 42.9624 42.6102 44.0645C42.6102 45.1823 43.4395 46.0009 44.505 46.0009ZM44.0116 45.4077H43.6077L43.6023 42.7314H44.6204C45.2556 42.7314 45.57 42.9573 45.57 43.4927C45.57 43.97 45.2708 44.1799 44.8781 44.2267L45.6434 45.4077H45.1876L44.4795 44.2485H44.0116V45.4077V45.4077ZM44.4942 43.9075C44.8409 43.9075 45.1509 43.8756 45.1509 43.4611C45.1456 43.1359 44.8409 43.0733 44.5627 43.0733H44.0116V43.9075H44.4942Z" fill="#888"/>
    <path d="M1.27344 24.9582L3.53496 24.3494L8.04259 31.0086L8.07345 30.9974L8.56733 22.9899L10.8025 22.392L13.3214 31.7695L11.7947 32.1838L9.85243 24.9372L9.82109 24.9476L9.21278 32.8761L7.8959 33.2283L3.40349 26.6786H3.37752L5.3183 33.9212L3.78686 34.33L1.27344 24.9582Z" fill="white"/>
    <path d="M14.8588 21.2996L16.5753 20.8491L22.6311 29.2663L20.9098 29.7275L19.3778 27.4825L15.7097 28.4634L15.5092 31.1865L13.8516 31.6276L14.8588 21.2996ZM15.8144 27.0985L18.6212 26.3431L16.1552 22.6859H16.1444L16.1185 22.6961L15.8144 27.0985Z" fill="white"/>
    <path d="M17.7656 20.5235L25.2062 18.5186L25.5896 19.9358L22.6663 20.7235L24.8076 28.6781L23.1963 29.1137L21.0556 21.1581L18.1484 21.9407L17.7656 20.5235Z" fill="white"/>
    <path d="M23.8672 18.8814L31.3137 16.8873L31.6912 18.3039L28.7685 19.0858L30.9098 27.0408L29.298 27.4717L27.1625 19.5215L24.2554 20.3028L23.8672 18.8814Z" fill="white"/>
    <path d="M31.9141 16.7292L38.3068 14.9972L38.6892 16.4148L33.8975 17.7101L34.5595 20.167L38.9777 18.9752L39.3346 20.3136L34.9215 21.5044L35.6559 24.2437L40.5308 22.927L40.9195 24.349L34.4329 26.0961L31.9141 16.7292Z" fill="white"/>
    <path d="M39.125 14.7826L40.7309 14.3522L42.8712 22.3074L47.5422 21.0532L47.9305 22.4701L41.6385 24.1596L39.125 14.7826Z" fill="white"/>
  </g>
  <defs>
    <clipPath id="clip0_1471_37311">
      <rect width="47.8694" height="48" fill="white" transform="translate(0.0625)"/>
    </clipPath>
  </defs>
</svg>
