<svg width="1216" height="172" viewBox="0 0 1216 172" fill="none" xmlns="http://www.w3.org/2000/svg">
<path d="M348 120.234C341.634 143.853 317.787 158.023 294.736 151.883C271.686 145.743 258.161 121.619 264.527 98L348 120.234Z" fill="#EEEEEE"/>
<path d="M965.848 57.518C978.11 36.3515 1004.81 28.8367 1025.49 40.7331C1046.16 52.6296 1052.98 79.4323 1040.72 100.599L965.848 57.518Z" fill="#EEEEEE"/>
<path fill-rule="evenodd" clip-rule="evenodd" d="M1329.5 13.5002L1243 273L1070 99.9995L1329.5 13.5002Z" fill="#5FEEA4"/>
<path fill-rule="evenodd" clip-rule="evenodd" d="M0 400C110.457 400 200 310.457 200 200C200 89.5431 110.457 0 0 0C-110.457 0 -200 89.5431 -200 200C-200 310.457 -110.457 400 0 400Z" fill="#A796FF"/>
</svg>
