<svg width="1440" height="90" viewBox="0 0 1440 90" fill="none" xmlns="http://www.w3.org/2000/svg">
<path fill-rule="evenodd" clip-rule="evenodd" d="M1322.03 1H1259.31L1307.66 13.0391H1376.42L1322.03 1ZM1191.97 1H1255.17L1303.52 13.0391H1234.27L1191.97 1ZM1188.32 1H1124.63L1160.89 13.0391H1230.62L1188.32 1ZM1057.32 1H1121.46L1157.72 13.0391H1087.54L1057.32 1ZM1054.62 1H989.989L1014.16 13.0391H1084.84L1054.62 1ZM922.673 1H987.746L1011.92 13.0391H940.803L922.673 1ZM920.865 1H855.375L867.463 13.0391H938.996L920.865 1ZM788.151 1H853.958L866.046 13.0391H794.194L788.151 1ZM787.032 1H720.997V13.0391H793.075L787.032 1ZM653.955 1H719.997V13.0391H647.913L653.955 1ZM652.836 1H587.002L574.917 13.0391H646.794L652.836 1ZM520.128 1H585.585L573.5 13.0391H501.997L520.128 1ZM518.32 1H453.244L429.071 13.0391H500.19L518.32 1ZM386.372 1H451.001L426.828 13.0391H356.156L386.372 1ZM383.67 1H319.506L283.248 13.0391H353.454L383.67 1ZM252.676 1H316.333L280.074 13.0391H210.372L252.676 1ZM249.023 1H185.817L137.471 13.0391H206.719L249.023 1ZM118.964 1H181.679L133.332 13.0391H64.5748L118.964 1ZM114.337 1H52.0592V0H1388.91V1H1326.66L1381.05 13.0391H1454.44V14.0391H1385.57L1452.92 28.9473H1534.18V29.9473H1457.43L1542.17 48.7041H1633.37V49.7041H1546.69L1656.27 73.959H1760.12V74.959H1660.78L1807.07 107.34H1927.75V108.34H1811.59L2016 153.586L2015.78 154.562L1806.96 108.34H1690.37L1872.08 153.589L1871.83 154.559L1686.23 108.34H1569.15L1728.16 153.593L1727.89 154.555L1565.49 108.34H1447.93L1584.25 153.6L1583.94 154.549L1444.76 108.34H1326.72L1440.34 153.61L1439.97 154.539L1324.02 108.34H1205.52L1296.45 153.627L1296 154.522L1203.27 108.34H1084.32L1152.57 153.658L1152.02 154.491L1082.51 108.34H963.148L1008.71 153.72L1008.01 154.428L961.731 108.34H842.028L864.87 153.85L863.977 154.298L840.909 108.34H720.997V154.074H719.997V108.34H600.078L577.01 154.298L576.116 153.85L598.959 108.34H479.249L432.982 154.428L432.277 153.72L477.832 108.34H358.478L288.976 154.491L288.423 153.658L356.67 108.34H237.717L144.989 154.522L144.543 153.627L235.474 108.34H116.968L1.01776 154.539L0.647583 153.61L114.267 108.34H-3.77411L-142.943 154.549L-143.258 153.6L-6.94757 108.34H-124.5L-286.894 154.555L-287.167 153.593L-128.154 108.34H-245.236L-430.843 154.559L-431.085 153.589L-249.375 108.34H-365.966L-574.786 154.562L-575.002 153.586L-370.593 108.34H-486.757V107.34H-366.076L-219.788 74.959H-319.156V73.959H-215.271L-105.694 49.7041H-192.406V48.7041H-101.177L-16.4386 29.9473H-93.1869V28.9473H-11.9209L55.43 14.0391H-13.4486V13.0391H59.9477L114.337 1ZM60.0571 14.0391L-7.29382 28.9473H69.4485L129.317 14.0391H60.0571ZM-11.8116 29.9473L-96.5494 48.7041H-9.89056L65.4327 29.9473H-11.8116ZM-101.067 49.7041L-210.644 73.959H-111.309L-13.9064 49.7041H-101.067ZM-215.161 74.959L-361.449 107.34H-245.359L-115.324 74.959H-215.161ZM73.587 28.9473L133.455 14.0391H203.205L150.82 28.9473H73.587ZM-5.75214 48.7041L69.5712 29.9473H147.306L81.3975 48.7041H-5.75214ZM-107.17 73.959L-9.76794 49.7041H77.8836L-7.34448 73.959H-107.17ZM-241.22 107.34L-111.186 74.959H-10.8583L-124.64 107.34H-241.22ZM206.859 14.0391L154.473 28.9473H232.163L277.062 14.0391H206.859ZM150.96 29.9473L85.0508 48.7041H172.66L229.151 29.9473H150.96ZM81.5369 49.7041L-3.6911 73.959H96.5989L169.648 49.7041H81.5369ZM-7.20496 74.959L-120.987 107.34H-3.93579L93.5871 74.959H-7.20496ZM235.336 28.9473L280.236 14.0391H350.945L313.528 28.9473H235.336ZM175.834 48.7041L232.324 29.9473H311.018L263.942 48.7041H175.834ZM99.7723 73.959L172.822 49.7041H261.432L200.556 73.959H99.7723ZM-0.76239 107.34L96.7606 74.959H198.047L116.776 107.34H-0.76239ZM353.646 14.0391L316.229 28.9473H394.886L424.82 14.0391H353.646ZM313.72 29.9473L266.643 48.7041H355.216L392.878 29.9473H313.72ZM264.133 49.7041L203.258 73.959H304.507L353.208 49.7041H264.133ZM200.748 74.959L119.478 107.34H237.482L302.499 74.959H200.748ZM397.129 28.9473L427.063 14.0391H498.684L476.232 28.9473H397.129ZM357.459 48.7041L395.121 29.9473H474.726L446.479 48.7041H357.459ZM306.75 73.959L355.451 49.7041H444.973L408.446 73.959H306.75ZM239.725 107.34L304.742 74.959H406.94L358.176 107.34H239.725ZM500.491 14.0391L478.04 28.9473H557.53L572.496 14.0391H500.491ZM476.534 29.9473L448.287 48.7041H537.697L556.526 29.9473H476.534ZM446.781 49.7041L410.254 73.959H512.345L536.693 49.7041H446.781ZM408.748 74.959L359.984 107.34H478.835L511.341 74.959H408.748ZM558.947 28.9473L573.913 14.0391H646.292L638.809 28.9473H558.947ZM539.114 48.7041L557.943 29.9473H638.307L628.892 48.7041H539.114ZM513.762 73.959L538.11 49.7041H628.39L616.216 73.959H513.762ZM480.252 107.34L512.758 74.959H615.714L599.461 107.34H480.252ZM647.411 14.0391L639.928 28.9473H719.997V14.0391H647.411ZM639.426 29.9473L630.011 48.7041H719.997V29.9473H639.426ZM629.509 49.7041L617.335 73.959H719.997V49.7041H629.509ZM616.833 74.959L600.58 107.34H719.997V74.959H616.833ZM720.997 28.9473V14.0391H793.577L801.059 28.9473H720.997ZM720.997 48.7041V29.9473H801.561L810.976 48.7041H720.997ZM720.997 73.959V49.7041H811.478L823.652 73.959H720.997ZM720.997 107.34V74.959H824.154L840.407 107.34H720.997ZM794.696 14.0391L802.178 28.9473H882.018L867.05 14.0391H794.696ZM802.68 29.9473L812.095 48.7041H901.855L883.022 29.9473H802.68ZM812.597 49.7041L824.771 73.959H927.212L902.859 49.7041H812.597ZM825.273 74.959L841.526 107.34H960.727L928.216 74.959H825.273ZM883.435 28.9473L868.467 14.0391H940.502L962.953 28.9473H883.435ZM903.272 48.7041L884.439 29.9473H964.459L992.706 48.7041H903.272ZM928.629 73.959L904.276 49.7041H994.212L1030.74 73.959H928.629ZM962.144 107.34L929.633 74.959H1032.24L1081.01 107.34H962.144ZM942.309 14.0391L964.761 28.9473H1043.86L1013.93 14.0391H942.309ZM966.267 29.9473L994.514 48.7041H1083.53L1045.87 29.9473H966.267ZM996.02 49.7041L1032.55 73.959H1134.24L1085.54 49.7041H996.02ZM1034.05 74.959L1082.82 107.34H1201.26L1136.25 74.959H1034.05ZM1046.1 28.9473L1016.17 14.0391H1087.35L1124.76 28.9473H1046.1ZM1085.77 48.7041L1048.11 29.9473H1127.27L1174.35 48.7041H1085.77ZM1136.48 73.959L1087.78 49.7041H1176.86L1237.73 73.959H1136.48ZM1203.51 107.34L1138.49 74.959H1240.24L1321.51 107.34H1203.51ZM1090.05 14.0391L1127.46 28.9473H1205.63L1160.73 14.0391H1090.05ZM1129.97 29.9473L1177.05 48.7041H1265.14L1208.65 29.9473H1129.97ZM1179.56 49.7041L1240.43 73.959H1341.21L1268.15 49.7041H1179.56ZM1242.94 74.959L1324.21 107.34H1441.75L1344.22 74.959H1242.94ZM1208.81 28.9473L1163.91 14.0391H1234.13L1286.52 28.9473H1208.81ZM1268.31 48.7041L1211.82 29.9473H1290.03L1355.94 48.7041H1268.31ZM1344.38 73.959L1271.33 49.7041H1359.46L1444.68 73.959H1344.38ZM1444.92 107.34L1347.39 74.959H1448.2L1561.98 107.34H1444.92ZM1237.79 14.0391L1290.17 28.9473H1367.4L1307.54 14.0391H1237.79ZM1293.69 29.9473L1359.6 48.7041H1446.74L1371.42 29.9473H1293.69ZM1363.11 49.7041L1448.34 73.959H1548.16L1450.76 49.7041H1363.11ZM1451.85 74.959L1565.63 107.34H1682.21L1552.18 74.959H1451.85ZM1371.54 28.9473L1311.67 14.0391H1380.94L1448.29 28.9473H1371.54ZM1450.88 48.7041L1375.56 29.9473H1452.81L1537.55 48.7041H1450.88ZM1552.3 73.959L1454.9 49.7041H1542.06L1651.64 73.959H1552.3ZM1686.35 107.34L1556.32 74.959H1656.16L1802.44 107.34H1686.35Z" fill="url(#paint0_linear_9417_90054)"/>
<rect x="-200.625" y="73.2148" width="1841.76" height="82.786" fill="url(#paint1_linear_9417_90054)"/>
<defs>
<linearGradient id="paint0_linear_9417_90054" x1="1417.54" y1="-0.422962" x2="23.9329" y2="-0.423338" gradientUnits="userSpaceOnUse">
<stop stop-color="white" stop-opacity="0"/>
<stop offset="0.100138" stop-color="#FFEAE5"/>
<stop offset="0.499513" stop-color="#BDB2FF"/>
<stop offset="0.899325" stop-color="#FFEAE5"/>
<stop offset="1" stop-color="white" stop-opacity="0"/>
</linearGradient>
<linearGradient id="paint1_linear_9417_90054" x1="720.254" y1="5.95123" x2="720.254" y2="140.626" gradientUnits="userSpaceOnUse">
<stop stop-color="white" stop-opacity="0"/>
<stop offset="1" stop-color="white"/>
</linearGradient>
</defs>
</svg>
