<?xml version="1.0" encoding="utf-8"?>
<!-- Generator: Adobe Illustrator 27.6.1, SVG Export Plug-In . SVG Version: 6.00 Build 0)  -->
<svg version="1.1" id="Layer_1" xmlns="http://www.w3.org/2000/svg" xmlns:xlink="http://www.w3.org/1999/xlink" x="0px" y="0px"
	 viewBox="0 0 46 60" style="enable-background:new 0 0 46 60;" xml:space="preserve">
<style type="text/css">
	.st0{fill:#FFFFFF;filter:url(#Adobe_OpacityMaskFilter);}
	.st1{mask:url(#mask0_3641_20294_00000085939135886697936340000000044067795523090566_);}
	.st2{fill:#FFFFFF;}
	.st3{fill:#FFFFFF;filter:url(#Adobe_OpacityMaskFilter_00000024712770800519663530000013745113332896788386_);}
	.st4{mask:url(#mask1_3641_20294_00000135680365884642404660000001136045945036620730_);}
	.st5{fill:#FFFFFF;filter:url(#Adobe_OpacityMaskFilter_00000043447765660471107210000001349897660826720916_);}
	.st6{mask:url(#mask2_3641_20294_00000046321885385866817260000012919291430500371122_);}
	.st7{fill:#FFFFFF;filter:url(#Adobe_OpacityMaskFilter_00000152234824571837071660000000663215949010895011_);}
	.st8{mask:url(#mask3_3641_20294_00000125560635546480854340000009094681890522236828_);}
	.st9{fill:#FFFFFF;filter:url(#Adobe_OpacityMaskFilter_00000096766804727184159450000001977500125682286218_);}
	.st10{mask:url(#mask4_3641_20294_00000041991789592185914630000004100085763876552374_);}
	.st11{fill:#FFFFFF;filter:url(#Adobe_OpacityMaskFilter_00000048480729083106283720000002347405944589910703_);}
	.st12{mask:url(#mask5_3641_20294_00000094576399561353137490000016129236191955125167_);}
	.st13{fill:#FFFFFF;filter:url(#Adobe_OpacityMaskFilter_00000060739369436014534440000010043974780415701401_);}
	.st14{mask:url(#mask6_3641_20294_00000024713451432356715910000015646508331685516928_);}
	.st15{fill:#FFFFFF;filter:url(#Adobe_OpacityMaskFilter_00000047783063875409028650000011833573254220228756_);}
	.st16{mask:url(#mask7_3641_20294_00000131353755637437480660000001834729327748106431_);}
	.st17{fill:#FFFFFF;filter:url(#Adobe_OpacityMaskFilter_00000062889628181035086840000003184154299230387613_);}
	.st18{mask:url(#mask8_3641_20294_00000109731618335053779000000015645372846761304452_);}
	.st19{fill:#FFFFFF;filter:url(#Adobe_OpacityMaskFilter_00000041293209316317354320000007667184559955397771_);}
	.st20{mask:url(#mask9_3641_20294_00000139262452257342924050000000392118574805185171_);}
</style>
<g>
	<defs>
		<filter id="Adobe_OpacityMaskFilter" filterUnits="userSpaceOnUse" x="33.4" y="45" width="3.3" height="3.4">
			<feColorMatrix  type="matrix" values="1 0 0 0 0  0 1 0 0 0  0 0 1 0 0  0 0 0 1 0"/>
		</filter>
	</defs>
	
		<mask maskUnits="userSpaceOnUse" x="33.4" y="45" width="3.3" height="3.4" id="mask0_3641_20294_00000085939135886697936340000000044067795523090566_">
		<path class="st0" d="M45.8,0h-45v59.9h45V0z"/>
	</mask>
	<g class="st1">
		<path class="st2" d="M35,45c0.9,0,1.7,0.8,1.7,1.7c0,0.9-0.7,1.7-1.7,1.7c-0.9,0-1.6-0.8-1.6-1.7C33.4,45.8,34.1,45,35,45z M35,48
			c0.7,0,1.3-0.6,1.3-1.3c0-0.8-0.6-1.3-1.3-1.3s-1.3,0.6-1.3,1.3C33.7,47.5,34.3,48,35,48z M34.8,47.6h-0.3v-1.8h0.6
			c0.4,0,0.6,0.2,0.6,0.6c0,0.3-0.2,0.5-0.4,0.5l0.4,0.7h-0.4l-0.4-0.7h-0.1V47.6z M35,46.6c0.2,0,0.3-0.1,0.3-0.3S35.2,46,35,46
			h-0.2v0.5L35,46.6L35,46.6z"/>
	</g>
	<defs>
		
			<filter id="Adobe_OpacityMaskFilter_00000075871164284222579210000002144753783534161331_" filterUnits="userSpaceOnUse" x="37.7" y="32.3" width="8.1" height="10.7">
			<feColorMatrix  type="matrix" values="1 0 0 0 0  0 1 0 0 0  0 0 1 0 0  0 0 0 1 0"/>
		</filter>
	</defs>
	
		<mask maskUnits="userSpaceOnUse" x="37.7" y="32.3" width="8.1" height="10.7" id="mask1_3641_20294_00000135680365884642404660000001136045945036620730_">
		<path style="fill:#FFFFFF;filter:url(#Adobe_OpacityMaskFilter_00000075871164284222579210000002144753783534161331_);" d="
			M45.8,0h-45v59.9h45V0z"/>
	</mask>
	<g class="st4">
		<path class="st2" d="M43,32.3c-0.9,0-1.5,0.4-2.1,0.9l-0.4,0.6l-0.1-0.1l0.5-0.8v-0.5h-3.2V43h2.9v-6.7c0-1.1,0.7-1.4,1.2-1.5
			c0.5-0.1,1.1,0.2,1.1,0.8V43h2.9v-7.3C45.8,33.4,44.8,32.3,43,32.3z"/>
	</g>
	<defs>
		
			<filter id="Adobe_OpacityMaskFilter_00000065786700561500804510000008138428771425329586_" filterUnits="userSpaceOnUse" x="7.8" y="32.3" width="5.9" height="10.6">
			<feColorMatrix  type="matrix" values="1 0 0 0 0  0 1 0 0 0  0 0 1 0 0  0 0 0 1 0"/>
		</filter>
	</defs>
	
		<mask maskUnits="userSpaceOnUse" x="7.8" y="32.3" width="5.9" height="10.6" id="mask2_3641_20294_00000046321885385866817260000012919291430500371122_">
		<path style="fill:#FFFFFF;filter:url(#Adobe_OpacityMaskFilter_00000065786700561500804510000008138428771425329586_);" d="
			M45.8,0h-45v59.9h45V0z"/>
	</mask>
	<g class="st6">
		<path class="st2" d="M10.7,40.6h3v2.3H7.8V32.3h2.9V40.6z"/>
	</g>
	<defs>
		
			<filter id="Adobe_OpacityMaskFilter_00000160182012882987161100000017687389564892156850_" filterUnits="userSpaceOnUse" x="0.8" y="32.3" width="5.9" height="10.6">
			<feColorMatrix  type="matrix" values="1 0 0 0 0  0 1 0 0 0  0 0 1 0 0  0 0 0 1 0"/>
		</filter>
	</defs>
	
		<mask maskUnits="userSpaceOnUse" x="0.8" y="32.3" width="5.9" height="10.6" id="mask3_3641_20294_00000125560635546480854340000009094681890522236828_">
		<path style="fill:#FFFFFF;filter:url(#Adobe_OpacityMaskFilter_00000160182012882987161100000017687389564892156850_);" d="
			M45.8,0h-45v59.9h45V0z"/>
	</mask>
	<g class="st8">
		<path class="st2" d="M0.8,42.9h5.9v-2.1h-3v-2.3h3v-2h-3v-2h3v-2.2H0.8V42.9z"/>
	</g>
	<defs>
		
			<filter id="Adobe_OpacityMaskFilter_00000091709509376557313190000010749784372004989840_" filterUnits="userSpaceOnUse" x="14.7" y="32.3" width="6" height="10.6">
			<feColorMatrix  type="matrix" values="1 0 0 0 0  0 1 0 0 0  0 0 1 0 0  0 0 0 1 0"/>
		</filter>
	</defs>
	
		<mask maskUnits="userSpaceOnUse" x="14.7" y="32.3" width="6" height="10.6" id="mask4_3641_20294_00000041991789592185914630000004100085763876552374_">
		<path style="fill:#FFFFFF;filter:url(#Adobe_OpacityMaskFilter_00000091709509376557313190000010749784372004989840_);" d="
			M45.8,0h-45v59.9h45V0z"/>
	</mask>
	<g class="st10">
		<path class="st2" d="M14.7,42.9h6v-2.1h-3.1v-2.3h3.1v-2h-3.1v-2h3.1v-2.2h-6V42.9z"/>
	</g>
	<defs>
		
			<filter id="Adobe_OpacityMaskFilter_00000070813478561908595400000000001908649866171551_" filterUnits="userSpaceOnUse" x="30.7" y="32.3" width="6" height="10.6">
			<feColorMatrix  type="matrix" values="1 0 0 0 0  0 1 0 0 0  0 0 1 0 0  0 0 0 1 0"/>
		</filter>
	</defs>
	
		<mask maskUnits="userSpaceOnUse" x="30.7" y="32.3" width="6" height="10.6" id="mask5_3641_20294_00000094576399561353137490000016129236191955125167_">
		<path style="fill:#FFFFFF;filter:url(#Adobe_OpacityMaskFilter_00000070813478561908595400000000001908649866171551_);" d="
			M45.8,0h-45v59.9h45V0z"/>
	</mask>
	<g class="st12">
		<path class="st2" d="M30.7,42.9h6v-2.1h-3.1v-2.3h3.1v-2h-3.1v-2h3.1v-2.2h-6V42.9z"/>
	</g>
	<defs>
		
			<filter id="Adobe_OpacityMaskFilter_00000007412092245416437970000003192623811997921671_" filterUnits="userSpaceOnUse" x="21.5" y="32.3" width="8.4" height="10.6">
			<feColorMatrix  type="matrix" values="1 0 0 0 0  0 1 0 0 0  0 0 1 0 0  0 0 0 1 0"/>
		</filter>
	</defs>
	
		<mask maskUnits="userSpaceOnUse" x="21.5" y="32.3" width="8.4" height="10.6" id="mask6_3641_20294_00000024713451432356715910000015646508331685516928_">
		<path style="fill:#FFFFFF;filter:url(#Adobe_OpacityMaskFilter_00000007412092245416437970000003192623811997921671_);" d="
			M45.8,0h-45v59.9h45V0z"/>
	</mask>
	<g class="st14">
		<path class="st2" d="M26.9,32.3L25.8,39l-0.1,1.2v0.1h-0.1v-0.1L25.5,39l-1.1-6.7h-2.9l2.4,10.6h3.6l2.4-10.6H26.9z"/>
	</g>
	<defs>
		
			<filter id="Adobe_OpacityMaskFilter_00000130627841515859546220000018438201178176378809_" filterUnits="userSpaceOnUse" x="0.8" y="0" width="37.7" height="15">
			<feColorMatrix  type="matrix" values="1 0 0 0 0  0 1 0 0 0  0 0 1 0 0  0 0 0 1 0"/>
		</filter>
	</defs>
	
		<mask maskUnits="userSpaceOnUse" x="0.8" y="0" width="37.7" height="15" id="mask7_3641_20294_00000131353755637437480660000001834729327748106431_">
		<path style="fill:#FFFFFF;filter:url(#Adobe_OpacityMaskFilter_00000130627841515859546220000018438201178176378809_);" d="
			M45.8,0h-45v59.9h45V0z"/>
	</mask>
	<g class="st16">
		<path class="st2" d="M38.5,0H0.8v15h19.9C25.2,8.5,31.3,3.3,38.5,0z"/>
	</g>
	<defs>
		
			<filter id="Adobe_OpacityMaskFilter_00000100369029652421354690000014334450826316401073_" filterUnits="userSpaceOnUse" x="15.8" y="44.9" width="15" height="15">
			<feColorMatrix  type="matrix" values="1 0 0 0 0  0 1 0 0 0  0 0 1 0 0  0 0 0 1 0"/>
		</filter>
	</defs>
	
		<mask maskUnits="userSpaceOnUse" x="15.8" y="44.9" width="15" height="15" id="mask8_3641_20294_00000109731618335053779000000015645372846761304452_">
		<path style="fill:#FFFFFF;filter:url(#Adobe_OpacityMaskFilter_00000100369029652421354690000014334450826316401073_);" d="
			M45.8,0h-45v59.9h45V0z"/>
	</mask>
	<g class="st18">
		<path class="st2" d="M15.8,59.9h15v-15h-15V59.9z"/>
	</g>
	<defs>
		
			<filter id="Adobe_OpacityMaskFilter_00000033337157477887291450000006506740777909685395_" filterUnits="userSpaceOnUse" x="16.9" y="0" width="28.9" height="30">
			<feColorMatrix  type="matrix" values="1 0 0 0 0  0 1 0 0 0  0 0 1 0 0  0 0 0 1 0"/>
		</filter>
	</defs>
	
		<mask maskUnits="userSpaceOnUse" x="16.9" y="0" width="28.9" height="30" id="mask9_3641_20294_00000139262452257342924050000000392118574805185171_">
		<path style="fill:#FFFFFF;filter:url(#Adobe_OpacityMaskFilter_00000033337157477887291450000006506740777909685395_);" d="
			M45.8,0h-45v59.9h45V0z"/>
	</mask>
	<g class="st20">
		<path class="st2" d="M45.8,15V0C31.5,3.9,20.3,15.4,16.9,30h15.3C34.5,23.3,39.5,17.9,45.8,15z"/>
	</g>
</g>
</svg>
