<?xml version="1.0" encoding="utf-8"?>
<!-- Generator: Adobe Illustrator 27.6.1, SVG Export Plug-In . SVG Version: 6.00 Build 0)  -->
<svg version="1.1" id="Layer_1" xmlns="http://www.w3.org/2000/svg" xmlns:xlink="http://www.w3.org/1999/xlink" x="0px" y="0px"
	 viewBox="0 0 101 60" style="enable-background:new 0 0 101 60;" xml:space="preserve">
<style type="text/css">
	.st0{fill-rule:evenodd;clip-rule:evenodd;fill:#FFFFFF;}
	.st1{fill:#FFFFFF;}
</style>
<g>
	<g>
		<path class="st0" d="M40.9,32.1l4.1-0.3l-2.1-5.5L40.9,32.1z M26.6,30.8l2.5-0.2c0.7-0.1,1.2-0.2,1.7-0.3c0.5-0.2,0.8-0.4,1-0.7
			c0.2-0.3,0.4-0.7,0.4-1.2c0-0.4-0.1-0.7-0.3-1s-0.5-0.5-0.8-0.6s-1-0.1-1.9,0L26.6,27V30.8z M31.6,7.9L34,7.7
			c0.5,0,0.8-0.4,0.8-0.8V5.8c0-0.4-0.2-0.7-0.8-0.6l-2.4,0.2c-0.5,0-0.8,0.4-0.8,0.8v1.1C30.8,7.7,31.1,8,31.6,7.9z M54.2,22.9
			L54.2,22.9L54.2,22.9z M33.5,9.8L32,10c-0.5,0-0.8,0.4-0.8,0.8V22c0,0.4,0.3,0.7,0.8,0.7l1.5-0.1c0.5,0,0.8-0.4,0.8-0.8V10.5
			C34.3,10.1,34.1,9.8,33.5,9.8z M72.6,21.2C72.7,21.2,72.7,21.2,72.6,21.2C72.7,21.2,72.7,21.2,72.6,21.2z M54.2,22.9
			c0.1,0.1,0.3,0.3,0.4,0.5c0.1,0.2,0.3,0.4,0.4,0.6l5.3,7.6v-8.2c0-0.5,0.1-0.9,0.3-1.2l0,0L54.2,22.9L54.2,22.9z M77,17.5
			c0.9,0.7,1.9,0.9,3.1,0.8c1.7-0.2,3-0.4,3.9-0.9c0.3-0.1,0.5-0.4,0.5-0.8v-1c0-0.6-0.5-0.8-0.9-0.6c-0.9,0.3-2,0.5-3.5,0.6
			c-0.4,0-0.8-0.1-1-0.3c-0.3-0.3-0.4-0.6-0.4-1V9.8c0-0.4,0.1-0.7,0.4-1.1c0.3-0.3,0.6-0.5,1-0.5c1.5-0.1,2.7-0.1,3.5,0
			C84,8.3,84.5,8,84.5,7.4v-1c0-0.3-0.2-0.6-0.5-0.7c-0.9-0.2-2.2-0.3-3.9-0.1C78.9,5.7,77.8,6.2,77,7c-0.9,0.8-1.3,1.8-1.3,3v4.6
			C75.6,15.8,76.1,16.8,77,17.5z M37.8,22.1l1.5-0.1c0.5,0,0.8-0.4,0.8-0.8v-7.9c0-0.4,0.1-0.7,0.4-1.1c0.3-0.3,0.6-0.5,1-0.5l2-0.2
			c0.4,0,0.7,0.1,1,0.4c0.3,0.3,0.4,0.6,0.4,1v7.9c0,0.4,0.3,0.7,0.8,0.7l1.5-0.1c0.1,0,0.1,0,0.2-0.1c0.4-0.2,0.5-0.5,0.5-0.7v-7.9
			c0-0.4,0.1-0.7,0.4-1.1c0.3-0.3,0.6-0.5,1-0.5l2-0.2c0.4,0,0.7,0.1,1,0.4c0.3,0.3,0.4,0.6,0.4,1V20c0,0.4,0.3,0.7,0.8,0.7l1.5-0.1
			c0.5,0,0.8-0.4,0.8-0.8v-7.9c0-1.2-0.5-2.1-1.3-2.8c-0.9-0.7-1.9-0.9-3.1-0.8l-2,0.2c-1.2,0.1-2.1,0.5-3,1.2
			c-0.8-0.6-1.8-0.8-2.9-0.7l-2,0.2c-1.2,0.1-2.3,0.6-3.1,1.4c-0.9,0.8-1.3,1.8-1.3,3v7.9C37,21.9,37.3,22.1,37.8,22.1z M72,32.7
			c0.3,0,0.5-0.1,0.8-0.3c0.3-0.1,0.5-0.3,0.7-0.5c0.9-0.9,1.4-2.3,1.4-4.2c0-1.4-0.2-2.3-0.6-3c-0.4-0.6-0.9-1-1.5-1.2
			c-0.6-0.1-1.3-0.2-2.2-0.1l-1.8,0.2V33l2.1-0.2C71.4,32.8,71.7,32.7,72,32.7z M15,23.4v-7.9c0-1.2-0.5-2.1-1.3-2.8
			c-0.9-0.7-1.9-0.9-3.1-0.8c-1.5,0.1-2.7,0.3-3.4,0.6c-0.5,0.2-0.6,0.6-0.6,0.8v1c0,0.2,0.1,0.4,0.2,0.5C6.8,14.9,7,15,7.2,15
			c0,0,0.1,0,0.2,0c0.6-0.2,1.7-0.3,3.2-0.5c0.4,0,0.7,0.1,1,0.4c0.3,0.3,0.4,0.6,0.4,1v0.7l-3.4,0.3c-1.2,0.1-2.3,0.6-3.1,1.4
			c-0.9,0.8-1.3,1.8-1.3,3s0.4,2.1,1.3,2.8c0.9,0.7,1.9,0.9,3.1,0.8l5.6-0.5C14.7,24.2,15,23.9,15,23.4z M12,21.9l-3.4,0.3
			c-0.4,0-0.8-0.1-1-0.3c-0.3-0.3-0.4-0.6-0.4-1s0.1-0.7,0.4-1s0.6-0.5,1-0.5L12,19V21.9z M88.1,33.3c-0.8,0.4-1.8,0.7-2.9,0.8
			c-1.4,0.1-2.5-0.1-3.4-0.5c-0.6-0.3-1.1-0.8-1.5-1.3c-0.4-0.6-0.6-1.2-0.6-1.7c0-0.3,0.1-0.6,0.4-0.9c0.2-0.3,0.5-0.4,0.9-0.4
			c0.3,0,0.5,0,0.7,0.2s0.4,0.4,0.5,0.8c0.2,0.4,0.4,0.8,0.6,1c0.2,0.3,0.5,0.5,0.9,0.7s0.9,0.2,1.5,0.2c0.8-0.1,1.5-0.3,2-0.7
			c0.5-0.4,0.8-0.9,0.8-1.5c0-0.5-0.1-0.8-0.4-1.1c-0.3-0.3-0.6-0.4-1.1-0.6c-0.4-0.1-1-0.2-1.8-0.3c-1-0.1-1.8-0.4-2.5-0.6
			c-0.7-0.3-1.2-0.6-1.6-1.1C80.2,25.6,80,25,80,24.2s0.2-1.4,0.6-2.1c0.4-0.6,1-1.1,1.8-1.5c0.2-0.1,0.4-0.2,0.7-0.3l-10.3,0.9
			c0.4,0,0.7,0,1,0.1c0.7,0.1,1.3,0.4,1.8,0.8c1.4,1.1,2.1,2.9,2.1,5.4c0,0.8-0.1,1.6-0.2,2.3c-0.1,0.7-0.4,1.3-0.7,1.9
			c-0.3,0.6-0.7,1.1-1.2,1.6c-0.4,0.4-0.8,0.7-1.2,0.9c-0.4,0.2-0.9,0.4-1.4,0.5s-1.1,0.2-1.7,0.3l-3.6,0.3c-0.5,0-0.9,0-1.1-0.1
			c-0.3-0.1-0.4-0.3-0.5-0.6C66,34.3,66,33.9,66,33.5V23.4c0-0.6,0.1-1,0.4-1.3c0.1-0.1,0.3-0.3,0.5-0.3l-4.3,0.4l0,0
			c0.2,0.2,0.3,0.6,0.3,1.2v10.8c0,1.2-0.5,1.8-1.5,1.9c-0.2,0-0.5,0-0.7-0.1s-0.4-0.2-0.6-0.3c-0.2-0.1-0.3-0.3-0.5-0.5
			c-0.1-0.2-0.3-0.4-0.4-0.6L54.1,27v8c0,0.5-0.1,0.9-0.4,1.2c-0.2,0.3-0.6,0.4-0.9,0.5c-0.4,0-0.7-0.1-0.9-0.3
			c-0.2-0.3-0.4-0.6-0.4-1.2V24.7c0-0.4,0.1-0.8,0.1-1.1c0.1-0.2,0.2-0.4,0.4-0.6l-7.7,0.7c0.1,0.1,0.2,0.2,0.3,0.3
			c0.2,0.2,0.3,0.5,0.4,0.7c0.1,0.3,0.2,0.6,0.4,1l3.6,8.6c0.3,0.7,0.4,1.1,0.4,1.4c0,0.3-0.1,0.6-0.4,0.9c-0.3,0.3-0.6,0.4-1,0.5
			c-0.2,0-0.4,0-0.6-0.1c-0.2-0.1-0.3-0.2-0.4-0.3c-0.1-0.1-0.2-0.3-0.3-0.6s-0.2-0.5-0.3-0.7l-0.7-1.7l-5.6,0.5L39.4,36
			c-0.3,0.7-0.5,1.2-0.7,1.4c-0.2,0.3-0.5,0.4-0.9,0.4c-0.3,0-0.7-0.1-0.9-0.3c-0.3-0.2-0.4-0.5-0.4-0.8c0-0.2,0-0.4,0.1-0.6
			c0.1-0.2,0.2-0.5,0.3-0.9l3.5-9.2c0.1-0.3,0.2-0.6,0.4-1c0.1-0.4,0.3-0.7,0.4-0.9c0.1-0.1,0.2-0.2,0.3-0.3l-9,0.8
			c0.1,0,0.2,0,0.2,0.1c0.4,0.1,0.8,0.4,1.1,0.7c0.3,0.3,0.6,0.7,0.8,1.1s0.3,0.9,0.3,1.4c0,1-0.3,1.9-0.9,2.5
			c-0.6,0.7-1.5,1.2-2.6,1.5c0.5,0.2,1,0.6,1.4,1c0.4,0.5,0.9,1,1.2,1.5c0.4,0.5,0.6,1,0.8,1.5c0.2,0.4,0.3,0.8,0.3,0.9
			c0,0.2-0.1,0.4-0.2,0.6c-0.1,0.2-0.3,0.3-0.5,0.5c-0.2,0.1-0.4,0.2-0.7,0.2s-0.6,0-0.8-0.2c-0.2-0.1-0.4-0.3-0.5-0.5
			c-0.2-0.2-0.4-0.5-0.6-0.9l-1.1-1.8c-0.4-0.6-0.8-1.1-1.1-1.5c-0.3-0.3-0.6-0.5-1-0.7c-0.3-0.1-0.7-0.1-1.2-0.1l-1,0.1v4.4
			c0,0.6-0.1,1-0.4,1.3s-0.6,0.5-1,0.5s-0.8-0.1-1-0.3c-0.2-0.3-0.4-0.7-0.4-1.2V26.9c0-0.6,0.1-1,0.4-1.3l0,0L18.8,26
			c0.1,0,0.3,0.1,0.4,0.2c0.3,0.2,0.6,0.4,0.9,0.7c0.2,0.3,0.4,0.6,0.6,0.9c0.1,0.3,0.2,0.7,0.2,1.1c0,1.4-0.7,2.4-2.1,3.2
			c1.8,0.4,2.7,1.5,2.7,3.1c0,0.8-0.2,1.5-0.6,2.1s-0.9,1.1-1.6,1.5c-0.4,0.2-0.9,0.4-1.4,0.5s-1.2,0.2-1.9,0.3l-4.2,0.3
			c-0.6,0-1,0-1.3-0.3c0,0,0-0.1-0.1-0.1V40c0,0,0.1,0.1,0.2,0.1C14,41,74.4,56.8,74.4,56.8l16-25.2V31c-0.1,0.2-0.2,0.4-0.3,0.6
			C89.5,32.3,88.9,32.8,88.1,33.3z M90.1,22.7c-0.1,0-0.1,0.1-0.1,0.1l0,0c0,0.3-0.1,0.6-0.4,0.9c-0.2,0.3-0.5,0.4-0.9,0.5
			c-0.3,0-0.6,0-0.7-0.2c-0.2-0.1-0.3-0.4-0.5-0.7c-0.2-0.5-0.5-0.9-0.9-1.1c-0.3-0.3-0.9-0.4-1.7-0.3c-0.7,0.1-1.3,0.3-1.7,0.6
			c-0.4,0.4-0.7,0.7-0.7,1.2c0,0.3,0.1,0.5,0.2,0.7s0.4,0.3,0.6,0.5c0.3,0.1,0.5,0.2,0.8,0.3c0.3,0.1,0.7,0.1,1.3,0.2
			c0.8,0.1,1.5,0.3,2.1,0.4c0.6,0.2,1.2,0.4,1.6,0.7c0.4,0.3,0.8,0.6,1,1.1v0.1v-4.8C90.3,22.8,90.3,22.7,90.1,22.7z M95.6,5.3
			c-0.9-0.7-1.9-0.9-3.1-0.8c-1.5,0.1-2.7,0.3-3.4,0.6c-0.5,0.2-0.6,0.6-0.6,0.8v1c0,0.2,0.1,0.4,0.2,0.5c0.1,0.2,0.3,0.2,0.5,0.2
			c0,0,0.1,0,0.2,0c0.6-0.2,1.7-0.3,3.2-0.5c0.4,0,0.7,0.1,1,0.4s0.4,0.6,0.4,1V9l-3.4,0.3c-1.2,0.1-2.3,0.6-3.1,1.4
			c-0.9,0.8-1.3,1.8-1.3,3s0.4,2.1,1.3,2.8s1.9,0.9,3.1,0.8l5.6-0.5c0.4,0,0.7-0.4,0.7-0.8V8.1C96.9,6.9,96.5,6,95.6,5.3z
			 M93.9,14.5l-3.4,0.3c-0.4,0-0.8-0.1-1-0.3c-0.3-0.3-0.4-0.6-0.4-1s0.1-0.7,0.4-1s0.6-0.5,1-0.5l3.4-0.3V14.5z M90.3,30.9
			L90.3,30.9L90.3,30.9z M72.7,21.2L72.7,21.2L72.7,21.2z M18.5,23.9l1.5-0.1c0.5,0,0.8-0.4,0.8-0.8v-8c0-0.4,0.1-0.7,0.4-1.1
			c0.3-0.3,0.6-0.5,1-0.5l2-0.2c0.4,0,0.7,0.1,1,0.4c0.3,0.3,0.4,0.6,0.4,1v7.9c0,0.4,0.3,0.7,0.8,0.7l1.5-0.1
			c0.4,0,0.7-0.4,0.7-0.8v-7.9c0-1.2-0.5-2.1-1.3-2.8c-0.9-0.7-1.9-0.9-3.1-0.8l-2,0.2c-1.2,0-2.3,0.4-3.2,1.3
			c-0.9,0.8-1.3,1.8-1.3,3v7.9C17.7,23.6,18,23.9,18.5,23.9z M67.1,21.7c-0.1,0-0.1,0-0.2,0.1L67.1,21.7L67.1,21.7z M12.8,31.7
			l2.5-0.2c0.7-0.1,1.2-0.2,1.6-0.3c0.4-0.2,0.7-0.4,0.9-0.8c0.2-0.3,0.2-0.6,0.2-0.9c0-0.7-0.2-1.1-0.7-1.3C16.8,28,16.1,28,15,28
			l-2.3,0.2v3.5H12.8z M17.9,33.8c-0.5-0.3-1.2-0.4-2.2-0.3l-2.9,0.2v4l3-0.2c1.9-0.2,2.8-0.9,2.8-2.3C18.6,34.5,18.4,34,17.9,33.8z
			 M18.8,26L18.8,26L18.8,26z"/>
	</g>
	<g>
		<path class="st1" d="M75.7,4.2l-5.5,2.4C69.6,6.3,69,6.3,69,6.3c0.3,0,0.6,0,0.8,0c0.1,0,0.1,0,0.1-0.1c0.2-0.7,0.5-1.1,0.8-1.4
			c0.1-0.1,0-0.2-0.1-0.2C70,4.8,69.3,5.2,69,5.4c-0.1,0.1-0.2,0-0.2-0.1c0.1-0.4,0.4-0.9,0.6-1.2c0-0.1,0-0.2-0.1-0.1
			c-1.2,0.4-2.3,1.2-3,1.8c-0.1,0.1-0.3,0-0.2-0.1l0,0c0.1-0.1,0-0.2-0.1-0.2c-1,0.2-4.3,0.9-6.3,3.4c-0.1,0.1,0,0.2,0.1,0.1
			c0.5-0.3,1.5-0.7,2.3-1c0.1,0,0.2,0.1,0.1,0.2c-1.2,0.6-3.3,1.8-3.8,3.7c-0.6,2-0.3,4,1.4,5.3c1.8,1.4,4.2,1.7,5.9,2.4
			c0.1,0,0.2,0,0.2-0.1c-0.1-0.4-0.4-1.2-1.3-2.2c-0.1-0.1,0-0.2,0.1-0.2c0.3,0,1.1,0.2,2,2.6c0,0.1,0.1,0.1,0.2,0
			c0.7-0.5,4.3-3.4,1-6.1c-0.4-0.3-2.2-1.1-2.1-2.8c0-0.1,0.2-0.1,0.2-0.1c0.2,0.4,0.8,1.1,2,1.6c0.7,0.3,1.1,0.6,1.5,1.6
			c0.3,0.8,3.2,0.8,3.1-0.7c-0.1-1.3-1.1-2.8-1-4.3c0-0.3,0-0.5,0-0.7l4.5-3.6C76.1,4.4,76,4.1,75.7,4.2z M69.8,9.6
			c-0.1,0.5-0.6,0.9-1.1,0.8c-0.5-0.1-0.8-0.6-0.7-1.1c0.1-0.5,0.6-0.9,1.1-0.8C69.6,8.5,69.9,9,69.8,9.6z"/>
	</g>
</g>
</svg>
