<svg width="134" height="60" viewBox="0 0 134 60" fill="none" xmlns="http://www.w3.org/2000/svg">
<g clip-path="url(#clip0_16622_12283)">
<path d="M133.216 25.3041C132.882 24.6938 131.689 24.6938 130.782 24.9755C129.923 25.2572 128.634 25.5389 128.157 25.2102C127.775 24.9755 128.396 23.9895 129.159 22.9096C129.732 22.0175 130.448 20.8907 130.973 19.7639C131.402 18.7779 131.498 17.9797 131.211 17.4632C130.83 16.712 129.971 16.4303 128.396 16.1017C126.821 15.773 124.005 17.2754 121.189 18.7309L120.044 19.2944C118.803 19.9047 118.469 19.5761 117.467 18.1675C116.274 16.4773 113.84 17.1815 111.836 17.9328C110.833 18.3084 109.927 18.8248 109.163 19.2474C108.399 19.67 107.636 20.0925 107.397 19.9986C107.206 19.9047 106.729 19.5291 106.3 19.1535C105.679 18.5901 104.916 17.9797 104.295 17.745C103.293 17.3224 101.718 18.1206 99.332 19.3413L98.5207 19.7639C96.4686 20.7968 94.0347 22.2523 92.0303 23.473L90.1214 24.5999C88.6419 25.445 87.4966 25.0694 87.2579 24.6468C87.0193 24.2712 89.2623 21.595 89.3578 20.1395C89.4532 18.2614 85.6353 17.3224 82.7242 17.0876C79.4313 16.8059 76.6156 18.2614 73.3704 20.2803C68.4549 24.1304 60.8668 25.9615 58.0511 26.1023C58.0511 26.1023 57.8125 26.1023 57.2875 26.0084C56.7626 25.9145 55.6649 25.2102 55.5218 24.7407C55.3786 24.2712 55.8081 23.6139 56.1422 23.473C56.4762 23.3322 57.5262 22.9096 58.7192 22.4871C60.2941 21.9236 62.1076 21.2663 63.2053 20.7499C64.7324 20.0456 66.0687 19.0596 66.0209 16.5242C66.0209 14.4114 63.253 13.1907 61.4872 13.3315C59.6737 13.4724 56.6194 15.2096 55.2354 16.6181C53.8514 18.0267 51.3221 21.4541 50.9403 21.8297C50.5585 22.2053 43.6863 23.52 43.5909 23.473C43.4 23.473 43.2568 23.5669 43.2091 23.52C43.2568 23.3791 45.1657 21.5011 45.4998 17.2754C45.8339 13.0498 38.9617 10.7492 38.9617 10.7492C39.0094 10.7022 39.0571 10.6553 39.1048 10.5614C39.4389 10.1388 40.0593 9.34064 40.3457 7.65039C40.7752 4.8333 38.6753 2.39182 36.5278 1.12413C34.4279 -0.143559 30.9918 0.46681 29.4647 0.983277L28.5579 1.26499C27.2694 1.68755 25.9331 2.15706 25.1696 2.29792H24.9309C24.8832 2.25097 24.8832 1.96926 24.9309 1.7345C24.9787 1.35889 25.0264 0.936325 24.8355 0.560713C24.3105 -0.378317 22.8311 0.0442468 21.5426 0.513762C21.4948 0.513762 21.4471 0.560713 21.3994 0.560713C19.1087 4.59854 11.1865 14.6462 9.80256 16.0547C9.18215 16.712 7.75044 18.4023 6.22329 20.2334C4.40979 22.3932 2.50085 24.6468 1.64182 25.492C0.544179 26.5718 -0.123951 28.1212 0.0192199 29.295C0.114667 29.9993 0.448732 30.5627 0.973692 30.8444C2.30995 31.6895 3.50304 30.3749 4.79158 29.0133C5.12564 28.6377 5.45971 28.2621 5.79378 27.9334C7.51182 26.3371 12.9046 19.623 16.1498 15.1157C18.7746 11.4065 21.3039 9.52845 23.1174 8.1199C23.4038 7.88515 23.6901 7.65039 23.9765 7.46258C25.6945 6.10099 28.9874 4.69244 32.0418 3.98817C34.5711 3.42475 35.0006 4.45769 35.5256 5.77233C35.621 5.91318 35.6687 6.10099 35.7642 6.28879C36.0028 6.89916 35.9551 7.74429 35.5733 8.58942C35.0961 9.62235 34.2848 10.4205 33.3303 10.7492C32.6622 10.9839 31.9463 11.1717 31.1827 11.3596C29.751 11.6882 28.3193 12.0638 27.0785 12.7681C25.265 13.801 23.4992 16.0547 23.8333 18.0736C23.881 18.4962 24.1196 18.8248 24.4537 19.0596C25.5513 19.8578 27.9852 19.4822 29.417 19.2474H29.4647C30.8009 19.0596 32.8053 17.6511 34.2848 16.6181C34.8097 16.2425 35.287 15.9138 35.5733 15.773C36.48 15.2565 38.1026 15.1626 39.8684 16.4303C40.2502 16.712 40.4411 17.0876 40.5366 17.6041C40.6797 18.9657 39.6775 20.8907 38.5799 22.1584C37.1005 23.8486 34.6665 23.8956 32.5667 23.8956H32.1849C31.1827 23.9426 29.9419 23.4261 28.892 23.0035C27.4126 22.4401 26.1717 21.9236 25.5513 22.581C24.5491 23.6139 24.2628 26.2901 24.9787 27.5109C25.7422 28.8255 28.2239 30.9853 32.4235 30.7036C35.4779 30.4688 37.6731 28.9194 39.1526 27.7926C39.7253 27.37 40.2502 26.9474 40.4888 26.9005C41.0615 26.8535 41.9683 26.8066 45.2612 26.1493C48.5541 25.492 50.5108 24.7407 50.654 25.0224C50.654 25.0224 52.1811 28.4968 55.5218 29.5298C58.0034 30.328 64.7801 28.309 65.0665 28.2151C65.4483 28.0743 65.8301 27.9334 66.2118 27.8395C67.2618 27.4639 68.1208 27.1822 69.0275 27.0883C69.457 27.0414 69.982 27.417 70.6024 27.8865C71.6523 28.6847 72.9886 29.6237 74.8021 29.4828C76.9974 29.295 79.2404 28.2151 80.863 27.37C81.4357 27.0883 81.9129 26.8535 82.2947 26.7127C83.0583 26.384 83.3923 26.7596 83.965 27.5109C84.2036 27.8395 84.49 28.2151 84.8718 28.4968C85.9694 29.4359 88.451 29.0603 92.4121 27.2761C94.5597 26.2901 96.6595 25.0694 98.3298 24.0834C99.332 23.52 100.239 23.0035 100.811 22.6749C101.289 22.4871 101.527 22.4401 101.575 22.3932C101.575 22.534 101.432 22.8627 100.573 23.8017C99.3797 25.0694 98.8071 26.0084 98.5684 27.1822C98.5207 27.4639 98.5684 27.7456 98.7116 27.8865C99.0934 28.356 100.143 28.356 101.05 28.356C102.1 28.356 102.482 27.9334 103.436 27.0883L104.009 26.5249C105.345 25.3041 109.736 22.534 111.502 21.7828C112.647 21.2663 113.076 21.4541 113.22 21.595C113.41 21.7358 113.363 22.1114 113.315 22.2523C113.172 22.6749 112.122 23.8487 111.311 24.6938C110.404 25.6328 109.927 26.1493 109.879 26.384C109.831 26.6657 109.927 26.9474 110.165 27.2761C110.643 27.7926 111.406 28.1212 112.265 28.1212C113.363 28.1212 114.317 27.3231 115.51 26.3371C116.083 25.8676 116.703 25.3981 117.419 24.8816C119.185 23.6608 121.523 22.3932 122.907 21.6419L123.862 21.1255C124.244 20.8907 124.53 20.8438 124.673 20.9377C124.864 21.0316 124.912 21.4541 124.769 21.9706C124.673 22.3462 124.482 22.7688 124.244 23.1913C123.862 23.9426 123.385 24.8346 123.242 26.1962C123.003 28.4029 125.198 29.342 127.203 29.5298C128.157 29.6237 129.78 29.1542 131.402 28.356C132.643 27.5109 133.693 26.5249 133.216 25.3041ZM58.4806 18.3084C59.1488 17.698 59.8646 17.1815 60.1032 17.0407C61.3918 16.2425 61.9644 16.0547 62.9189 16.3364C63.5393 16.5242 63.5393 16.8059 63.587 17.1815C63.6348 17.5102 63.253 17.8858 62.8235 18.1206C61.9644 18.5901 60.9145 19.0126 60.0555 19.3883C59.9601 19.4352 57.1444 20.5151 57.0012 20.2803C56.8103 19.9047 57.7648 18.8718 58.4806 18.3084ZM80.9107 23.2383C79.6699 23.9895 76.9974 25.3041 75.8997 25.6328C75.3748 25.7267 74.8498 25.6798 74.5158 25.3511C74.3249 25.2102 74.2294 24.9755 74.2771 24.7407C74.3726 24.1304 75.3271 22.581 77.236 21.6889L77.8564 21.4072C79.1927 20.7968 79.3836 20.656 80.4335 20.4212C81.5311 20.1864 83.0105 20.0925 83.4878 20.3742L83.5832 20.4681C83.631 20.8907 82.2947 22.4401 80.9107 23.2383Z" fill="white"/>
<path d="M12.9217 45.9239C11.9317 44.9924 10.1602 44.4749 8.28448 44.4749C6.98189 44.4749 5.36667 44.6819 5.36667 46.1826C5.36667 47.3211 6.66928 47.8386 8.70132 48.5631C10.9939 49.4429 13.7554 50.5297 13.7554 53.7382C13.7554 58.8615 8.28448 59.5342 5.6793 59.5342C4.22039 59.5342 2.65728 59.379 1.4589 59.0685C0.260512 58.758 0 58.1887 0 56.6362V54.7214C1.30259 55.6529 3.43884 56.1187 5.15826 56.1187C7.29451 56.1187 8.33659 55.5494 8.33659 54.2039C8.33659 52.9619 7.19031 52.4962 4.2204 51.3577C2.18836 50.5814 0 49.4946 0 46.5449C0 42.1978 4.94986 41.1111 7.91977 41.1111C9.69129 41.1111 11.1502 41.4216 12.0881 41.8356C12.8696 42.2496 12.9738 42.7153 12.9738 43.7504V45.9239H12.9217ZM28.657 41.8356H34.2321C34.0237 43.5951 33.9716 46.4414 33.9716 49.1841V51.6164C33.9716 54.3592 34.1279 57.4125 34.3884 58.965H31.2101C30.0117 58.965 29.4386 58.551 29.2302 57.7747C27.7192 58.9132 26.0518 59.3272 24.3845 59.3272C18.4447 59.3272 17.7153 55.7564 17.7153 53.1689V48.3561C17.7153 45.6651 17.5589 43.2328 17.4026 41.7838H20.6852C22.1962 41.7838 22.9256 42.7153 22.9256 44.2161V51.2024C22.9256 53.9452 23.1861 56.0669 26.625 56.0669C27.4065 56.0669 28.1881 55.9117 28.8654 55.6529V49.5464C28.8654 47.3729 28.8133 43.5951 28.657 41.8356ZM45.0697 59.0167H39.4946C39.703 57.2572 39.7551 54.4109 39.7551 51.6682V49.2359C39.7551 46.4931 39.703 43.4399 39.3383 41.8873H42.5166C43.715 41.8873 44.2881 42.3013 44.4965 43.0776C46.0075 41.9391 47.6749 41.5251 49.3422 41.5251C55.282 41.5251 56.0115 45.0959 56.0115 47.6834V52.4962C56.0115 55.1872 56.1678 57.6195 56.3241 59.0685H52.9894C51.4784 59.0685 50.749 58.137 50.749 56.6362V49.5981C50.749 46.8554 50.4885 44.7336 47.0496 44.7336C46.2681 44.7336 45.4865 44.8889 44.8092 45.1476V51.3059C44.8613 53.4794 44.8613 57.2055 45.0697 59.0167ZM72.0594 41.8356C72.9972 41.8356 74.4562 41.7838 75.1856 41.6286C75.0293 42.1461 74.6646 43.5434 74.404 44.1126C73.9351 45.0959 73.362 45.4064 71.0173 45.4064H69.0374V51.2542C69.0374 53.4277 69.0895 57.1537 69.2979 58.965H63.6707C63.8791 57.2055 63.9312 53.4277 63.9312 51.2542V45.4581H62.2118C60.7008 45.4581 59.3461 45.6651 58.7209 46.0274V44.2679C58.7209 42.7671 58.9814 41.8356 61.1697 41.8356H72.0594ZM93.8387 50.2709C93.8387 55.9634 90.5562 59.5342 84.5643 59.5342C78.6244 59.5342 75.5503 56.3257 75.5503 50.4779C75.5503 44.6819 78.7808 41.3181 84.7727 41.3181C90.7646 41.3181 93.8387 44.4749 93.8387 50.2709ZM80.6565 50.3227C80.6565 54.2557 82.0633 56.0152 84.7727 56.0152C87.43 56.0152 88.7326 54.2557 88.7326 50.3227C88.7326 46.3896 87.43 44.5266 84.7727 44.5266C82.0633 44.5266 80.6565 46.3896 80.6565 50.3227ZM112.231 60C110.095 60 109.626 59.2237 108.324 57.309C107.594 56.2739 105.302 52.3927 104.885 51.6164C104.676 51.2024 104.624 50.8919 105.041 50.6849C106.76 49.7016 107.177 48.6666 107.177 47.4764C107.177 46.0791 106.656 44.8889 104.676 44.8889C104.103 44.8889 103.53 44.9406 103.165 45.0959V51.3577C103.165 53.5312 103.217 57.2572 103.426 59.0685H97.9549C98.1633 57.3607 98.2154 54.4627 98.2154 51.7199V49.2876C98.2154 46.5449 98.1633 43.4916 97.7986 41.9391C100.404 41.9391 103.843 41.7838 105.458 41.7838C108.376 41.7838 112.231 42.3531 112.231 46.7001C112.231 48.4596 111.45 49.9086 109.991 50.8402C109.73 51.0472 109.73 51.1507 109.991 51.5647C111.867 54.3074 114.107 57.4125 116.139 59.586C115.41 59.7412 113.482 60 112.231 60ZM126.299 53.9969V54.4109C126.299 55.7047 126.351 57.8782 126.56 59.0167H120.933C121.141 57.8782 121.193 55.6529 121.193 54.4109V53.9969C121.193 53.2724 120.985 52.5479 120.412 51.3577C119.161 48.8736 116.4 44.0609 114.003 41.8873C114.941 41.7321 116.66 41.6803 117.702 41.6803C119.891 41.6803 120.568 42.4048 121.089 43.2328C121.558 43.9574 123.382 47.5799 124.007 49.0806C124.736 47.3729 126.195 44.3714 126.872 43.2846C127.393 42.5083 128.123 41.6286 129.999 41.6286C130.884 41.6286 132.239 41.6803 133.333 41.8356C131.614 43.3364 128.383 48.6666 127.029 51.0989C126.404 52.3409 126.299 52.9619 126.299 53.9969Z" fill="white"/>
</g>
<defs>
<clipPath id="clip0_16622_12283">
<rect width="133.333" height="60" fill="white"/>
</clipPath>
</defs>
</svg>
