<svg width="200" height="48" viewBox="0 0 200 48" fill="none" xmlns="http://www.w3.org/2000/svg">
<g clip-path="url(#clip0_16645_7346)">
<mask id="mask0_16645_7346" style="mask-type:luminance" maskUnits="userSpaceOnUse" x="0" y="0" width="200" height="48">
<path d="M200 0H0V47.0588H200V0Z" fill="white"/>
</mask>
<g mask="url(#mask0_16645_7346)">
<path d="M65.7491 12.8881C65.659 14.1541 65.1988 15.1505 64.3684 15.8789C63.5379 16.6064 62.4435 16.9699 61.0853 16.9699C59.6005 16.9699 58.4309 16.4621 57.5802 15.4461C56.7289 14.4308 56.3027 13.0363 56.3027 11.2635V10.5438C56.3027 9.41265 56.4991 8.41542 56.8918 7.55309C57.2846 6.69151 57.8457 6.02936 58.5745 5.569C59.3041 5.10786 60.1516 4.87769 61.1179 4.87769C62.4544 4.87769 63.5316 5.24187 64.349 5.96944C65.1654 6.69624 65.6374 7.71784 65.7654 9.03265H63.3779C63.3198 8.27279 63.111 7.72179 62.7532 7.37967C62.3946 7.03756 61.8498 6.8665 61.1179 6.8665C60.3216 6.8665 59.7263 7.1558 59.3312 7.73518C58.9354 8.31457 58.7328 9.21324 58.722 10.4311V11.3203C58.722 12.5917 58.9121 13.5211 59.2909 14.1084C59.6711 14.6957 60.2688 14.9897 61.0861 14.9897C61.8234 14.9897 62.3737 14.8186 62.7369 14.4765C63.1009 14.1344 63.309 13.6047 63.3617 12.8881H65.7491ZM78.0772 11.191C78.0772 12.3497 77.8754 13.3651 77.4718 14.2377C77.069 15.1111 76.4924 15.7842 75.7411 16.2588C74.9905 16.7326 74.1298 16.9699 73.1589 16.9699C72.1988 16.9699 71.3419 16.7358 70.5883 16.2667C69.8354 15.7977 69.251 15.1285 68.8374 14.2582C68.4237 13.3879 68.2141 12.3868 68.2087 11.2548V10.6731C68.2087 9.51433 68.4143 8.49509 68.8257 7.61458C69.237 6.73328 69.8176 6.05695 70.5689 5.58477C71.3194 5.11337 72.1778 4.87769 73.1433 4.87769C74.1089 4.87769 74.9673 5.11416 75.7178 5.58477C76.4683 6.05695 77.0496 6.73328 77.4602 7.61379C77.8716 8.49509 78.0772 9.51198 78.0772 10.6652V11.191ZM75.658 10.6574C75.658 9.4229 75.4407 8.48559 75.0061 7.84396C74.5706 7.2031 73.9497 6.88227 73.1433 6.88227C72.3416 6.88227 71.7237 7.19916 71.2884 7.83214C70.8537 8.46509 70.6333 9.3929 70.6286 10.6171V11.191C70.6286 12.3923 70.8459 13.3248 71.2806 13.987C71.7153 14.65 72.3416 14.9818 73.1589 14.9818C73.9598 14.9818 74.5753 14.6626 75.0061 14.0241C75.4353 13.3855 75.6526 12.4546 75.658 11.2312V10.6574ZM83.5916 16.8083H81.2042V5.03928H83.5916V16.8083ZM96.4691 16.8083H94.0809L89.4338 9.065V16.8083H87.0464V5.03928H89.4338L94.0893 12.799V5.03928H96.4691V16.8083ZM108.288 7.00366H104.739V16.8083H102.351V7.00366H98.8498V5.03928H108.288V7.00366ZM117.862 11.7081H113.279V14.8604H118.658V16.8083H110.891V5.03928H118.643V7.00366H113.279V9.80837H117.862V11.7081ZM123.688 14.8604H128.758V16.8083H121.301V5.03928H123.688V14.8604ZM138.341 11.7073H133.757V14.8604H139.136V16.8083H131.369V5.03928H139.12V7.00366H133.757V9.80837H138.341V11.7073ZM150.947 15.3208C150.517 15.8434 149.909 16.2494 149.124 16.5371C148.339 16.8256 147.469 16.9706 146.514 16.9706C145.511 16.9706 144.631 16.7475 143.876 16.303C143.12 15.8584 142.536 15.2136 142.125 14.3669C141.714 13.5211 141.503 12.5271 141.492 11.3849V10.584C141.492 9.40946 141.687 8.39261 142.078 7.53338C142.467 6.67416 143.03 6.01595 143.764 5.56112C144.499 5.10549 145.36 4.87769 146.347 4.87769C147.72 4.87769 148.796 5.21033 149.57 5.87643C150.345 6.54174 150.804 7.51053 150.947 8.78198H148.623C148.517 8.10804 148.282 7.61537 147.919 7.30242C147.556 6.99027 147.055 6.83418 146.419 6.83418C145.606 6.83418 144.988 7.14398 144.563 7.76356C144.14 8.38315 143.925 9.30467 143.92 10.528V11.2793C143.92 12.5137 144.151 13.4454 144.611 14.0761C145.073 14.7067 145.75 15.022 146.641 15.022C147.537 15.022 148.178 14.8281 148.559 14.4403V12.4112H146.387V10.625H150.947V15.3208ZM158.412 12.5003H156.51V16.8083H154.122V5.03928H158.428C159.797 5.03928 160.853 5.34907 161.595 5.96944C162.338 6.58903 162.709 7.46401 162.709 8.59601C162.709 9.39921 162.539 10.0685 162.196 10.6045C161.854 11.1406 161.335 11.5678 160.641 11.8854L163.147 16.6948V16.8083H160.584L158.412 12.5003ZM156.51 10.5359H158.436C159.036 10.5359 159.499 10.3806 159.829 10.0709C160.157 9.76106 160.322 9.33458 160.322 8.78988C160.322 8.23495 160.167 7.79825 159.857 7.48057C159.546 7.1629 159.07 7.00366 158.428 7.00366H156.509L156.51 10.5359ZM172.308 14.3827H168.121L167.326 16.8083H164.787L169.101 5.03928H171.313L175.65 16.8083H173.112L172.308 14.3827ZM168.767 12.4199H171.663L170.207 8.01345L168.767 12.4199ZM180.362 12.6619V16.8083H177.974V5.03928H182.494C183.365 5.03928 184.13 5.20088 184.79 5.52486C185.451 5.84806 185.959 6.30683 186.315 6.90276C186.67 7.49791 186.848 8.17583 186.848 8.93576C186.848 10.089 186.46 10.9979 185.683 11.6632C184.904 12.3293 183.829 12.6619 182.455 12.6619H180.362ZM180.362 10.6975H182.494C183.126 10.6975 183.608 10.5469 183.939 10.2451C184.272 9.94316 184.436 9.51198 184.436 8.95232C184.436 8.37526 184.27 7.9086 183.936 7.55309C183.601 7.19837 183.14 7.0147 182.551 7.00366H180.362V10.6975ZM199.16 16.8083H196.772V11.7648H192.117V16.8083H189.729V5.03928H192.117V9.80837H196.772V5.03928H199.16V16.8083Z" fill="white"/>
<path d="M62.724 27.1951H60.1995V34.1553H58.8044V27.1951H56.3027V26.0612H62.724V27.1951ZM65.4412 28.7967C65.8822 28.2851 66.4401 28.0293 67.1149 28.0293C68.3976 28.0293 69.0474 28.761 69.0655 30.2251V34.1553H67.7153V30.2752C67.7153 29.8601 67.6257 29.5663 67.4458 29.394C67.2659 29.2217 67.0018 29.136 66.6534 29.136C66.1122 29.136 65.7084 29.3766 65.4412 29.8577V34.1553H64.0902V25.6164H65.4412V28.7967ZM73.5353 34.2662C72.6792 34.2662 71.9854 33.9967 71.4534 33.4577C70.9221 32.9189 70.6557 32.2001 70.6557 31.3037V31.1367C70.6557 30.5363 70.7718 29.9998 71.0033 29.5276C71.2174 29.0748 71.5556 28.6921 71.9786 28.4241C72.3981 28.1606 72.8845 28.0236 73.3798 28.0293C74.1988 28.0293 74.8317 28.2904 75.278 28.8126C75.7243 29.3356 75.9483 30.0749 75.9483 31.0312V31.5762H72.0174C72.0584 32.0726 72.2246 32.465 72.5153 32.7542C72.8059 33.0434 73.1718 33.1883 73.6128 33.1883C74.2321 33.1883 74.7361 32.9378 75.1255 32.4369L75.8542 33.1322C75.6127 33.4923 75.2794 33.7814 74.8887 33.9693C74.4864 34.1667 74.0356 34.2662 73.5353 34.2662ZM73.3745 29.1125C73.0033 29.1125 72.7042 29.243 72.4765 29.5025C72.2489 29.7614 72.1032 30.1227 72.0401 30.5864H74.6132V30.4862C74.5843 30.0339 74.4637 29.6923 74.2526 29.4609C74.0409 29.2293 73.7486 29.1125 73.3745 29.1125ZM81.2174 34.1553V29.1413H80.2997V28.1401H81.2174V27.5898C81.2174 26.9227 81.4026 26.4073 81.7729 26.0445C82.1441 25.6809 82.6625 25.4995 83.3297 25.4995C83.5673 25.4995 83.8192 25.533 84.0859 25.5998L84.0523 26.6562C83.8818 26.6246 83.7087 26.6095 83.5353 26.6115C82.8902 26.6115 82.5684 26.9432 82.5684 27.6066V28.1401H83.7904V29.1413H82.5684V34.1553H81.2174ZM88.8775 33.5663C88.4809 34.0331 87.917 34.2662 87.1868 34.2662C86.5347 34.2662 86.0405 34.0756 85.7061 33.6939C85.3708 33.312 85.2027 32.7603 85.2027 32.0369V28.1401H86.554V32.0202C86.554 32.7838 86.8708 33.1663 87.5044 33.1663C88.1599 33.1663 88.6036 32.931 88.8321 32.4604V28.1401H90.1834V34.1553H88.9103L88.8775 33.5663ZM93.7078 26.6783V28.1401H94.77V29.1413H93.7078V32.4984C93.7078 32.7283 93.7532 32.8946 93.8439 32.9963C93.9355 33.098 94.0968 33.1488 94.3305 33.1488C94.4868 33.1488 94.6439 33.1307 94.8027 33.0935V34.1386C94.5137 34.2212 94.2145 34.2641 93.9137 34.2662C92.8758 34.2662 92.3574 33.6939 92.3574 32.5485V29.1405H91.3674V28.1401H92.3565V26.679L93.7078 26.6783ZM99.9002 33.5663C99.5036 34.0331 98.9405 34.2662 98.2103 34.2662C97.5574 34.2662 97.0641 34.0756 96.7288 33.6939C96.3926 33.312 96.2254 32.7603 96.2254 32.0369V28.1401H97.5767V32.0202C97.5767 32.7838 97.8935 33.1663 98.5271 33.1663C99.1834 33.1663 99.6254 32.931 99.8557 32.4604V28.1401H101.207V34.1553H99.9338L99.9002 33.5663ZM106.188 29.3743C106.005 29.3445 105.821 29.3298 105.637 29.3303C105.018 29.3303 104.601 29.5671 104.386 30.0414V34.1553H103.036V28.1401H104.325L104.358 28.8126C104.684 28.2904 105.137 28.0293 105.714 28.0293C105.907 28.0293 106.067 28.0551 106.193 28.1067L106.188 29.3743ZM110.04 34.2662C109.183 34.2662 108.489 33.9967 107.957 33.4577C107.426 32.9189 107.16 32.2001 107.16 31.3037V31.1367C107.16 30.5363 107.276 29.9998 107.507 29.5276C107.721 29.0748 108.06 28.6921 108.483 28.4241C108.902 28.1606 109.388 28.0236 109.883 28.0293C110.703 28.0293 111.336 28.2904 111.782 28.8126C112.228 29.3356 112.452 30.0749 112.452 31.0312V31.5762H108.521C108.562 32.0726 108.729 32.465 109.02 32.7542C109.31 33.0434 109.676 33.1883 110.117 33.1883C110.736 33.1883 111.24 32.9378 111.63 32.4369L112.358 33.1322C112.117 33.4923 111.783 33.7814 111.393 33.9693C110.99 34.1667 110.54 34.2662 110.04 34.2662ZM109.878 29.1125C109.507 29.1125 109.209 29.243 108.981 29.5025C108.753 29.7614 108.607 30.1227 108.544 30.5864H111.117V30.4862C111.088 30.0339 110.967 29.6923 110.757 29.4609C110.545 29.2293 110.252 29.1125 109.878 29.1125ZM116.993 31.0919C116.993 30.503 117.109 29.9724 117.343 29.4995C117.557 29.0479 117.899 28.669 118.327 28.4096C118.75 28.1561 119.235 28.0293 119.784 28.0293C120.595 28.0293 121.254 28.2904 121.76 28.8126C122.266 29.3356 122.54 30.0286 122.58 30.8923L122.586 31.2088C122.586 31.8016 122.472 32.3322 122.244 32.7989C122.031 33.2488 121.691 33.6258 121.265 33.8829C120.841 34.1386 120.351 34.2662 119.795 34.2662C118.946 34.2662 118.267 33.9838 117.757 33.4191C117.248 32.8536 116.993 32.0999 116.993 31.1588V31.0919ZM118.344 31.2088C118.344 31.8282 118.472 32.3125 118.728 32.6624C118.983 33.013 119.339 33.1883 119.795 33.1883C120.251 33.1883 120.605 33.0099 120.859 32.654C121.114 32.2988 121.24 31.7781 121.24 31.0919C121.24 30.4847 121.109 30.0028 120.848 29.6468C120.587 29.2908 120.232 29.1132 119.783 29.1132C119.343 29.1132 118.993 29.2877 118.733 29.6384C118.473 29.9891 118.344 30.5113 118.344 31.2088ZM124.66 34.1553V29.1413H123.742V28.1401H124.66V27.5898C124.66 26.9227 124.845 26.4073 125.215 26.0445C125.586 25.6809 126.104 25.4995 126.772 25.4995C127.009 25.4995 127.262 25.533 127.528 25.5998L127.494 26.6562C127.325 26.6246 127.151 26.6096 126.978 26.6115C126.333 26.6115 126.01 26.9432 126.01 27.6066V28.1401H127.233V29.1413H126.01V34.1553H124.66ZM133.236 28.1401L133.275 28.7686C133.698 28.2752 134.276 28.0293 135.009 28.0293C135.814 28.0293 136.364 28.3367 136.661 28.9523C137.099 28.3367 137.713 28.0293 138.506 28.0293C139.169 28.0293 139.663 28.2123 139.988 28.5796C140.312 28.9462 140.478 29.4874 140.486 30.2024V34.1553H139.135V30.2419C139.135 29.8601 139.051 29.58 138.884 29.4024C138.717 29.2241 138.441 29.1352 138.057 29.1352C137.749 29.1352 137.498 29.2179 137.303 29.3826C137.105 29.5527 136.962 29.7782 136.894 30.0301L136.9 34.1553H135.549V30.1971C135.53 29.4897 135.169 29.1352 134.465 29.1352C133.924 29.1352 133.54 29.3553 133.314 29.7971V34.1553H131.963V28.1401H133.236ZM142.075 31.0927C142.075 30.503 142.192 29.9724 142.425 29.4995C142.64 29.0478 142.982 28.6688 143.409 28.4096C143.831 28.1561 144.317 28.0293 144.866 28.0293C145.678 28.0293 146.336 28.2904 146.841 28.8126C147.348 29.3356 147.621 30.0286 147.662 30.8923L147.667 31.2088C147.667 31.8016 147.554 32.3322 147.326 32.7989C147.114 33.2488 146.772 33.6258 146.346 33.8829C145.922 34.1386 145.433 34.2662 144.877 34.2662C144.028 34.2662 143.349 33.9838 142.84 33.4191C142.33 32.8536 142.075 32.0999 142.075 31.1588V31.0927ZM143.426 31.2088C143.426 31.8282 143.554 32.3125 143.809 32.6624C144.065 33.013 144.421 33.1883 144.877 33.1883C145.332 33.1883 145.687 33.0099 145.941 32.654C146.195 32.2988 146.322 31.7781 146.322 31.0919C146.322 30.4847 146.191 30.0028 145.93 29.6468C145.669 29.2908 145.314 29.1132 144.866 29.1132C144.425 29.1132 144.074 29.2877 143.815 29.6384C143.556 29.9891 143.426 30.5113 143.426 31.2088ZM150.519 28.1401L150.557 28.8354C151.003 28.298 151.586 28.0293 152.309 28.0293C153.562 28.0293 154.199 28.7466 154.221 30.1804V34.1553H152.871V30.2586C152.871 29.8767 152.788 29.5936 152.623 29.4107C152.458 29.2271 152.189 29.1352 151.814 29.1352C151.27 29.1352 150.863 29.3819 150.597 29.8745V34.1553H149.246V28.1401H150.519ZM158.701 34.2662C157.846 34.2662 157.151 33.9967 156.62 33.4577C156.088 32.9189 155.822 32.2001 155.822 31.3037V31.1367C155.822 30.5363 155.938 29.9998 156.169 29.5276C156.383 29.0747 156.722 28.692 157.146 28.4241C157.564 28.1608 158.051 28.0238 158.546 28.0293C159.366 28.0293 159.998 28.2904 160.445 28.8126C160.891 29.3356 161.114 30.0749 161.114 31.0312V31.5762H157.184C157.225 32.0726 157.39 32.465 157.681 32.7542C157.972 33.0434 158.338 33.1883 158.779 33.1883C159.398 33.1883 159.903 32.9378 160.291 32.4369L161.02 33.1322C160.778 33.4922 160.446 33.7813 160.056 33.9693C159.653 34.1667 159.202 34.2662 158.701 34.2662ZM158.541 29.1125C158.17 29.1125 157.871 29.243 157.642 29.5025C157.414 29.7614 157.269 30.1227 157.206 30.5864H159.78V30.4862C159.75 30.0339 159.63 29.6923 159.419 29.4609C159.208 29.2293 158.914 29.1125 158.541 29.1125ZM164.65 32.2206L165.872 28.1401H167.312L164.921 35.0669C164.555 36.0787 163.932 36.5849 163.054 36.5849C162.834 36.5814 162.614 36.5477 162.404 36.4847V35.4396L162.66 35.4562C163 35.4562 163.257 35.394 163.429 35.2704C163.601 35.1458 163.738 34.9371 163.837 34.6449L164.032 34.1272L161.92 28.1401H163.377L164.65 32.2206Z" fill="white"/>
<path d="M29.4786 34.2421L21.0034 37.8846V37.5203C19.3692 37.934 17.559 38.1723 15.8444 38.249C7.874 38.1723 1.54763 34.0486 1.474 29.1416V27.3199C4.09184 31.0831 9.42084 33.6045 15.8444 33.5134C18.0175 33.6045 20.2406 33.2645 22.1086 32.7848L22.8455 30.9632C20.63 31.6167 18.2118 32.0713 15.8444 32.0561C7.874 32.0713 1.54763 27.9476 1.474 22.9495V21.4922C4.09184 24.9708 9.4095 27.4929 15.8444 27.3207C18.7392 27.4929 21.5704 26.8911 23.9507 25.8634L24.3196 24.0418C21.9939 25.2546 18.9799 25.959 15.8444 25.8634C7.874 25.959 1.54763 21.8353 1.474 16.7567V15.2994C4.09184 18.8592 9.42084 21.3807 15.8444 21.4922C19.4953 21.3807 22.9564 20.4266 25.7935 18.9419L26.1624 16.756C23.5871 18.6429 19.8277 19.8588 15.8444 20.0349C7.874 19.8588 1.54839 15.7344 1.474 10.5639C1.54763 5.6463 7.874 1.52258 15.8444 1.4573C20.5958 1.52258 25.0087 3.16964 27.6365 5.82846L27.8922 6.24971L29.7503 6.2573L29.4786 5.82846C26.8653 2.31727 21.6387 0 15.8444 0C7.02543 0 0 4.80531 0 10.5639V29.5059C0.309677 35.1271 7.17495 39.7055 15.8444 39.7055C21.5704 39.7055 26.7165 37.4793 29.4786 34.2421Z" fill="white"/>
<path d="M26.0311 47.0588L29.0064 34.5586L20.4531 38.2353L25.6599 16.5442H15.6182L18.2216 5.88232H50.2034L47.6 16.5442H37.1878L34.9563 22.4265L46.4842 17.647L26.0311 47.0588ZM31.2379 31.9848L29.7503 39.3381L42.022 20.9564L31.981 25.3685L36.444 15.074H46.4842L48.3438 7.35329H19.3374L17.4778 15.074H27.5188L22.6839 35.6622L31.2379 31.9863V31.9848Z" fill="white"/>
<path d="M81.1944 34.168H82.5343V29.1307H83.7742V28.1522H82.5343V27.574C82.5343 27.3627 82.5714 27.1848 82.6455 27.0402C82.7233 26.8957 82.8345 26.7864 82.9791 26.7122C83.1274 26.6343 83.3034 26.5954 83.5073 26.5954C83.6074 26.5954 83.7001 26.5991 83.7853 26.6065C83.8743 26.614 83.9558 26.6269 84.0299 26.6454L84.0637 25.6113C83.941 25.578 83.8149 25.5539 83.6852 25.539C83.5555 25.5206 83.4239 25.5112 83.2905 25.5112C82.8605 25.5112 82.488 25.591 82.1729 25.7503C81.8579 25.906 81.6151 26.1377 81.4446 26.4453C81.2778 26.7493 81.1944 27.1254 81.1944 27.574V28.1522H80.2715V29.1307H81.1944V34.168Z" fill="white"/>
<path d="M65.4457 28.843V25.6282H64.1113V34.1681H65.4457V29.8734C65.4854 29.7977 65.5298 29.7262 65.5791 29.659C65.7014 29.4922 65.8534 29.3607 66.035 29.2643C66.2203 29.1679 66.4335 29.1198 66.6744 29.1198C66.9042 29.1198 67.0988 29.1587 67.2582 29.2365C67.4175 29.3106 67.538 29.433 67.6196 29.6035C67.7049 29.774 67.7475 30.0037 67.7475 30.2929V34.1681H69.0929V30.304C69.0929 29.8925 69.0466 29.5441 68.9539 29.2588C68.8649 28.9696 68.7334 28.7361 68.5592 28.5582C68.385 28.3766 68.1774 28.245 67.9365 28.1635C67.6992 28.0819 67.4324 28.0411 67.1359 28.0411C66.7838 28.0411 66.4631 28.1134 66.174 28.258C65.8926 28.3951 65.6498 28.5901 65.4457 28.843Z" fill="white"/>
<path d="M60.2032 34.1681V27.1849H62.7441V26.073H56.3003V27.1849H58.8189V34.1681H60.2032Z" fill="white"/>
<path fill-rule="evenodd" clip-rule="evenodd" d="M73.5454 34.2792C73.1007 34.2792 72.6985 34.2069 72.3389 34.0624C71.9831 33.914 71.6792 33.7083 71.4271 33.4452C71.1787 33.182 70.9879 32.8725 70.8545 32.5167C70.721 32.1608 70.6543 31.7772 70.6543 31.3658V31.1435C70.6543 30.6727 70.7229 30.2465 70.86 29.8646C70.9972 29.4829 71.1881 29.1567 71.4327 28.8861C71.6773 28.6119 71.9665 28.4024 72.3 28.2579C72.6336 28.1133 72.995 28.041 73.3842 28.041C73.8141 28.041 74.1903 28.1133 74.5129 28.2579C74.8353 28.4024 75.1022 28.6063 75.3135 28.8694C75.5284 29.1289 75.6878 29.4384 75.7916 29.7979C75.8991 30.1575 75.9529 30.554 75.9529 30.9877V31.5604H72.0065C72.0197 31.7506 72.0527 31.9303 72.1055 32.0998C72.1796 32.3221 72.2871 32.5167 72.4279 32.6835C72.5687 32.8503 72.7393 32.9819 72.9394 33.0782C73.1396 33.1709 73.3675 33.2172 73.6233 33.2172C73.9457 33.2172 74.233 33.1524 74.485 33.0226C74.7371 32.8929 74.9558 32.7094 75.1411 32.4722L75.8472 33.1561C75.7175 33.3451 75.5488 33.5267 75.3413 33.7009C75.1337 33.8714 74.8798 34.0104 74.5796 34.1179C74.283 34.2255 73.9383 34.2792 73.5454 34.2792ZM72.0887 30.3039C72.0664 30.3977 72.0482 30.4958 72.0343 30.5986H74.6296V30.4929C74.6222 30.252 74.574 30.0259 74.485 29.8146C74.3998 29.6034 74.2682 29.4329 74.0903 29.3031C73.9124 29.1734 73.6751 29.1085 73.3787 29.1085C73.1562 29.1085 72.9579 29.1567 72.7837 29.2531C72.6132 29.3457 72.4705 29.481 72.3556 29.6589C72.2408 29.8369 72.1518 30.0519 72.0887 30.3039Z" fill="white"/>
<path d="M88.1943 34.0736C88.4573 33.9452 88.6775 33.7722 88.8548 33.5544L88.8893 34.1681H90.1565V28.1523H88.8111V32.4693C88.7162 32.675 88.5733 32.8428 88.3826 32.9728C88.1641 33.121 87.8641 33.1951 87.4825 33.1951C87.3489 33.1951 87.2229 33.1766 87.1044 33.1396C86.9859 33.1025 86.8817 33.0395 86.7926 32.9505C86.7036 32.8616 86.6338 32.7448 86.5817 32.6002C86.5296 32.452 86.5036 32.2685 86.5036 32.0498V28.1523H85.1641V32.0387C85.1641 32.4353 85.212 32.7763 85.3086 33.0618C85.4044 33.3471 85.5397 33.5788 85.7145 33.7567C85.8918 33.9346 86.1036 34.0662 86.3481 34.1514C86.5926 34.2367 86.8615 34.2793 87.154 34.2793C87.5582 34.2793 87.9044 34.2107 88.1943 34.0736Z" fill="white"/>
<path d="M94.731 29.1309V28.1523H93.6578V26.679H92.3183V28.1523H91.3394V29.1309H92.3183V32.5891C92.3183 33.0006 92.3847 33.3304 92.5183 33.5788C92.652 33.8271 92.8368 34.0069 93.0747 34.118C93.3116 34.2256 93.5839 34.2793 93.8915 34.2793C94.0805 34.2793 94.2478 34.2664 94.3923 34.2404C94.5402 34.2144 94.6704 34.1848 94.7814 34.1514L94.7755 33.1285C94.7242 33.1395 94.6553 33.1506 94.5696 33.1617C94.4847 33.1729 94.3957 33.1785 94.3032 33.1785C94.1738 33.1785 94.0604 33.1617 93.9637 33.1285C93.8679 33.0951 93.7915 33.0302 93.736 32.9338C93.6839 32.8337 93.6578 32.6911 93.6578 32.5057V29.1309H94.731Z" fill="white"/>
<path d="M99.2119 34.0736C99.4758 33.9452 99.6959 33.7722 99.8732 33.5544L99.9068 34.1681H101.175V28.1523H99.8295V32.4693C99.7337 32.675 99.5909 32.8428 99.401 32.9728C99.1825 33.121 98.8825 33.1951 98.5001 33.1951C98.3665 33.1951 98.2413 33.1766 98.122 33.1396C98.0035 33.1025 97.9001 33.0395 97.811 32.9505C97.722 32.8616 97.6514 32.7448 97.5993 32.6002C97.548 32.452 97.522 32.2685 97.522 32.0498V28.1523H96.1816V32.0387C96.1816 32.4353 96.2304 32.7763 96.3262 33.0618C96.4228 33.3471 96.5581 33.5788 96.7321 33.7567C96.9102 33.9346 97.1211 34.0662 97.3665 34.1514C97.611 34.2367 97.8791 34.2793 98.1724 34.2793C98.5766 34.2793 98.9228 34.2107 99.2119 34.0736Z" fill="white"/>
<path d="M104.337 30.0563V34.168H102.998V28.1522H104.277L104.314 28.8589C104.322 28.8456 104.329 28.8324 104.337 28.8194C104.489 28.5748 104.678 28.3839 104.904 28.2467C105.135 28.1096 105.399 28.041 105.699 28.041C105.781 28.041 105.868 28.0484 105.961 28.0633C106.057 28.0781 106.129 28.0948 106.177 28.1133L106.166 29.3587C106.085 29.3439 105.996 29.3328 105.9 29.3254C105.807 29.3179 105.714 29.3142 105.622 29.3142C105.392 29.3142 105.19 29.3476 105.016 29.4143C104.841 29.4773 104.695 29.57 104.577 29.6923C104.477 29.7944 104.398 29.9157 104.337 30.0563Z" fill="white"/>
<path fill-rule="evenodd" clip-rule="evenodd" d="M110.002 34.2792C109.557 34.2792 109.155 34.2069 108.796 34.0624C108.439 33.914 108.136 33.7083 107.884 33.4452C107.635 33.182 107.444 32.8725 107.311 32.5167C107.178 32.1608 107.111 31.7772 107.111 31.3658V31.1435C107.111 30.6727 107.18 30.2465 107.317 29.8646C107.454 29.4829 107.644 29.1567 107.889 28.8861C108.134 28.6119 108.423 28.4024 108.757 28.2579C109.09 28.1133 109.452 28.041 109.841 28.041C110.271 28.041 110.647 28.1133 110.97 28.2579C111.292 28.4024 111.559 28.6063 111.771 28.8694C111.985 29.1289 112.144 29.4384 112.248 29.7979C112.355 30.1575 112.409 30.554 112.409 30.9877V31.5604H108.463C108.476 31.7506 108.509 31.9303 108.562 32.0998C108.636 32.3221 108.744 32.5167 108.885 32.6835C109.025 32.8503 109.196 32.9819 109.396 33.0782C109.597 33.1709 109.824 33.2172 110.08 33.2172C110.402 33.2172 110.69 33.1524 110.942 33.0226C111.194 32.8929 111.413 32.7094 111.597 32.4722L112.304 33.1561C112.174 33.3451 112.006 33.5267 111.798 33.7009C111.591 33.8714 111.336 34.0104 111.036 34.1179C110.739 34.2255 110.395 34.2792 110.002 34.2792ZM108.545 30.3039C108.523 30.3977 108.505 30.4958 108.491 30.5986H111.086V30.4929C111.079 30.252 111.031 30.0259 110.942 29.8146C110.856 29.6034 110.725 29.4329 110.547 29.3031C110.369 29.1734 110.132 29.1085 109.835 29.1085C109.613 29.1085 109.414 29.1567 109.24 29.2531C109.07 29.3457 108.927 29.481 108.813 29.6589C108.697 29.8369 108.608 30.0519 108.545 30.3039Z" fill="white"/>
<path fill-rule="evenodd" clip-rule="evenodd" d="M116.923 31.0989V31.2268C116.923 31.6605 116.986 32.0626 117.112 32.4333C117.238 32.804 117.421 33.1283 117.662 33.4063C117.904 33.6806 118.196 33.8956 118.541 34.0512C118.889 34.2032 119.284 34.2792 119.725 34.2792C120.162 34.2792 120.553 34.2032 120.898 34.0512C121.243 33.8956 121.535 33.6806 121.777 33.4063C122.018 33.1283 122.201 32.804 122.327 32.4333C122.453 32.0626 122.516 31.6605 122.516 31.2268V31.0989C122.516 30.6653 122.453 30.2631 122.327 29.8924C122.201 29.5181 122.018 29.1938 121.777 28.9195C121.535 28.6415 121.241 28.4265 120.893 28.2745C120.548 28.1188 120.155 28.041 119.714 28.041C119.277 28.041 118.883 28.1188 118.535 28.2745C118.191 28.4265 117.898 28.6415 117.656 28.9195C117.419 29.1938 117.238 29.5181 117.112 29.8924C116.986 30.2631 116.923 30.6653 116.923 31.0989ZM118.263 31.2268V31.0989C118.263 30.8321 118.291 30.58 118.346 30.3428C118.402 30.1019 118.489 29.8887 118.608 29.7035C118.726 29.5181 118.877 29.3735 119.058 29.2698C119.243 29.1623 119.462 29.1085 119.714 29.1085C119.966 29.1085 120.183 29.1623 120.364 29.2698C120.55 29.3735 120.702 29.5181 120.82 29.7035C120.943 29.8887 121.031 30.1019 121.088 30.3428C121.146 30.58 121.176 30.8321 121.176 31.0989V31.2268C121.176 31.4974 121.146 31.7531 121.088 31.994C121.031 32.235 120.945 32.4463 120.826 32.6279C120.707 32.8095 120.556 32.9522 120.37 33.056C120.188 33.1598 119.973 33.2117 119.725 33.2117C119.469 33.2117 119.249 33.1598 119.063 33.056C118.878 32.9522 118.726 32.8095 118.608 32.6279C118.489 32.4463 118.402 32.235 118.346 31.994C118.291 31.7531 118.263 31.4974 118.263 31.2268Z" fill="white"/>
<path d="M125.896 34.168H124.555V29.1307H123.633V28.1522H124.555V27.574C124.555 27.1254 124.639 26.7493 124.806 26.4453C124.977 26.1377 125.219 25.906 125.534 25.7503C125.85 25.591 126.222 25.5112 126.652 25.5112C126.785 25.5112 126.917 25.5206 127.046 25.539C127.177 25.5539 127.303 25.578 127.424 25.6113L127.392 26.6454C127.317 26.6269 127.235 26.614 127.146 26.6065C127.061 26.5991 126.969 26.5954 126.869 26.5954C126.665 26.5954 126.488 26.6343 126.34 26.7122C126.196 26.7864 126.085 26.8957 126.007 27.0402C125.933 27.1848 125.896 27.3627 125.896 27.574V28.1522H127.135V29.1307H125.896V34.168Z" fill="white"/>
<path d="M133.172 29.8431V34.168H131.832V28.1522H133.094L133.137 28.8298C133.333 28.5832 133.572 28.3926 133.856 28.2579C134.156 28.1133 134.503 28.041 134.896 28.041C135.17 28.041 135.42 28.0818 135.646 28.1634C135.876 28.2412 136.074 28.3654 136.241 28.5359C136.365 28.6598 136.467 28.8092 136.548 28.984C136.583 28.9332 136.619 28.8839 136.658 28.8361C136.858 28.5877 137.105 28.3931 137.398 28.2523C137.69 28.1114 138.026 28.041 138.404 28.041C138.712 28.041 138.986 28.0836 139.227 28.1689C139.472 28.2504 139.679 28.3802 139.85 28.5581C140.02 28.736 140.15 28.9677 140.239 29.2531C140.328 29.5348 140.372 29.8758 140.372 30.2761V34.168H139.027V30.2705C139.027 29.9666 138.982 29.7312 138.893 29.5645C138.808 29.3977 138.686 29.2827 138.526 29.2198C138.366 29.153 138.176 29.1197 137.954 29.1197C137.746 29.1197 137.562 29.1586 137.403 29.2364C137.247 29.3105 137.116 29.4161 137.008 29.5533C136.903 29.6845 136.822 29.8353 136.766 30.0058C136.768 30.0559 136.769 30.1071 136.769 30.1593V34.168H135.43V30.2761C135.43 29.9833 135.385 29.7535 135.296 29.5866C135.211 29.4198 135.087 29.3013 134.924 29.2308C134.764 29.1567 134.573 29.1197 134.351 29.1197C134.098 29.1197 133.884 29.1678 133.706 29.2642C133.532 29.3606 133.389 29.4921 133.277 29.6589C133.239 29.7172 133.203 29.7786 133.172 29.8431Z" fill="white"/>
<path fill-rule="evenodd" clip-rule="evenodd" d="M141.939 31.2268V31.0989C141.939 30.6653 142.002 30.2631 142.129 29.8924C142.255 29.5181 142.436 29.1938 142.673 28.9195C142.914 28.6415 143.207 28.4265 143.551 28.2745C143.9 28.1188 144.292 28.041 144.73 28.041C145.171 28.041 145.564 28.1188 145.909 28.2745C146.257 28.4265 146.552 28.6415 146.793 28.9195C147.034 29.1938 147.218 29.5181 147.344 29.8924C147.47 30.2631 147.533 30.6653 147.533 31.0989V31.2268C147.533 31.6605 147.47 32.0626 147.344 32.4333C147.218 32.804 147.034 33.1283 146.793 33.4063C146.552 33.6806 146.259 33.8956 145.914 34.0512C145.57 34.2032 145.179 34.2792 144.741 34.2792C144.3 34.2792 143.906 34.2032 143.557 34.0512C143.213 33.8956 142.919 33.6806 142.679 33.4063C142.438 33.1283 142.255 32.804 142.129 32.4333C142.002 32.0626 141.939 31.6605 141.939 31.2268ZM143.279 31.0989V31.2268C143.279 31.4974 143.307 31.7531 143.362 31.994C143.418 32.235 143.505 32.4463 143.623 32.6279C143.742 32.8095 143.894 32.9522 144.08 33.056C144.265 33.1598 144.486 33.2117 144.741 33.2117C144.99 33.2117 145.205 33.1598 145.387 33.056C145.571 32.9522 145.723 32.8095 145.842 32.6279C145.96 32.4463 146.048 32.235 146.103 31.994C146.163 31.7531 146.192 31.4974 146.192 31.2268V31.0989C146.192 30.8321 146.163 30.58 146.103 30.3428C146.048 30.1019 145.959 29.8887 145.837 29.7035C145.718 29.5181 145.566 29.3735 145.381 29.2698C145.199 29.1623 144.982 29.1085 144.73 29.1085C144.478 29.1085 144.26 29.1623 144.074 29.2698C143.892 29.3735 143.742 29.5181 143.623 29.7035C143.505 29.8887 143.418 30.1019 143.362 30.3428C143.307 30.58 143.279 30.8321 143.279 31.0989Z" fill="white"/>
<path d="M150.429 29.8927V34.168H149.088V28.1522H150.351L150.394 28.8772C150.404 28.8653 150.414 28.8534 150.423 28.8417C150.634 28.5859 150.886 28.3894 151.179 28.2523C151.472 28.1114 151.798 28.041 152.157 28.041C152.446 28.041 152.708 28.0818 152.941 28.1634C153.179 28.2412 153.381 28.3691 153.547 28.547C153.718 28.7249 153.848 28.9566 153.937 29.2419C154.025 29.5236 154.07 29.8703 154.07 30.2817V34.168H152.725V30.2761C152.725 29.987 152.682 29.759 152.597 29.5922C152.515 29.4217 152.395 29.3013 152.235 29.2308C152.08 29.1567 151.885 29.1197 151.651 29.1197C151.422 29.1197 151.216 29.1678 151.035 29.2642C150.853 29.3606 150.699 29.4921 150.573 29.6589C150.519 29.7319 150.472 29.8098 150.429 29.8927Z" fill="white"/>
<path fill-rule="evenodd" clip-rule="evenodd" d="M158.534 34.2792C158.089 34.2792 157.687 34.2069 157.328 34.0624C156.972 33.914 156.667 33.7083 156.416 33.4452C156.167 33.182 155.977 32.8725 155.843 32.5167C155.709 32.1608 155.643 31.7772 155.643 31.3658V31.1435C155.643 30.6727 155.711 30.2465 155.849 29.8646C155.986 29.4829 156.177 29.1567 156.421 28.8861C156.666 28.6119 156.955 28.4024 157.288 28.2579C157.622 28.1133 157.983 28.041 158.372 28.041C158.803 28.041 159.179 28.1133 159.502 28.2579C159.824 28.4024 160.091 28.6063 160.302 28.8694C160.517 29.1289 160.677 29.4384 160.78 29.7979C160.888 30.1575 160.941 30.554 160.941 30.9877V31.5604H156.995C157.009 31.7506 157.041 31.9303 157.094 32.0998C157.168 32.3221 157.276 32.5167 157.416 32.6835C157.557 32.8503 157.728 32.9819 157.928 33.0782C158.128 33.1709 158.357 33.2172 158.612 33.2172C158.935 33.2172 159.221 33.1524 159.473 33.0226C159.725 32.8929 159.945 32.7094 160.13 32.4722L160.836 33.1561C160.706 33.3451 160.537 33.5267 160.33 33.7009C160.122 33.8714 159.868 34.0104 159.568 34.1179C159.272 34.2255 158.927 34.2792 158.534 34.2792ZM157.078 30.3039C157.055 30.3977 157.037 30.4958 157.023 30.5986H159.618V30.4929C159.611 30.252 159.562 30.0259 159.473 29.8146C159.388 29.6034 159.257 29.4329 159.079 29.3031C158.901 29.1734 158.664 29.1085 158.367 29.1085C158.145 29.1085 157.946 29.1567 157.772 29.2531C157.602 29.3457 157.459 29.481 157.344 29.6589C157.23 29.8369 157.141 30.0519 157.078 30.3039Z" fill="white"/>
<path d="M163.861 34.1532L161.73 28.1523H163.176L164.48 32.2624L165.733 28.1523H167.167L164.755 35.0855C164.699 35.2338 164.627 35.395 164.538 35.5692C164.449 35.7434 164.332 35.9084 164.188 36.064C164.046 36.2234 163.871 36.3513 163.66 36.4476C163.448 36.5477 163.193 36.5978 162.893 36.5978C162.773 36.5978 162.659 36.5866 162.547 36.5644C162.44 36.5459 162.338 36.5255 162.241 36.5033L162.236 35.4802C162.273 35.4839 162.318 35.4876 162.37 35.4913C162.425 35.4951 162.47 35.497 162.503 35.497C162.725 35.497 162.911 35.4692 163.059 35.4135C163.207 35.3617 163.328 35.2764 163.42 35.1578C163.517 35.0391 163.599 34.8798 163.665 34.6797L163.861 34.1532Z" fill="white"/>
</g>
</g>
<defs>
<clipPath id="clip0_16645_7346">
<rect width="200" height="47.0588" fill="white"/>
</clipPath>
</defs>
</svg>
