<svg width="200" height="56" viewBox="0 0 200 56" fill="none" xmlns="http://www.w3.org/2000/svg">
<g clip-path="url(#clip0_16622_12316)">
<mask id="mask0_16622_12316" style="mask-type:luminance" maskUnits="userSpaceOnUse" x="0" y="0" width="51" height="56">
<path d="M50.7013 0H0V55.9538H50.7013V0Z" fill="white"/>
</mask>
<g mask="url(#mask0_16622_12316)">
<path d="M0 17.3914C0 14.9257 1.32772 12.6496 3.48708 11.4094L21.8563 0.948155C24.0156 -0.306612 26.7003 -0.306612 28.8596 0.948155L47.1996 11.4094C49.359 12.6642 50.6867 14.9257 50.6867 17.3914V38.3285C50.6867 40.7943 49.359 43.0704 47.1996 44.3105L28.8596 54.7718C26.7003 56.0266 24.0156 56.0266 21.8563 54.7718L3.51626 44.3105C1.31313 43.0558 0 40.7943 0 38.3285V17.3914ZM4.71267 17.4936V38.4307C4.71267 39.2623 5.16497 40.0064 5.87989 40.4149L24.2491 50.92C24.964 51.3431 25.8686 51.3431 26.5689 50.92L44.909 40.4587C45.6239 40.0356 46.0762 39.2769 46.0762 38.4744V17.4936C46.0762 16.6619 45.6239 15.9178 44.909 15.5093L26.5689 5.04803C25.854 4.62491 24.9494 4.62491 24.2491 5.04803L5.87989 15.5093C5.16497 15.9178 4.71267 16.6619 4.71267 17.4936ZM26.1312 40.4003C19.5802 40.4003 14.211 35.0895 14.211 28.5822C14.211 22.0895 19.5656 16.764 26.1312 16.764C28.7721 16.764 31.2962 17.5957 33.3972 19.2006C35.0167 20.4554 35.3377 22.7607 34.1121 24.3218C32.8574 25.9268 30.5229 26.2478 28.918 25.0222C28.1447 24.4094 27.2109 24.0884 26.175 24.0884C23.7238 24.0884 21.652 26.1018 21.652 28.5676C21.652 31.0334 23.6801 33.0468 26.175 33.0468C27.2109 33.0468 28.1155 32.7258 28.918 32.1131C30.5375 30.8583 32.8574 31.1793 34.1121 32.8134C35.3085 34.4183 35.0459 36.7236 33.3972 37.9346C31.2524 39.5687 28.7721 40.4003 26.1312 40.4003Z" fill="white"/>
</g>
<path fill-rule="evenodd" clip-rule="evenodd" d="M70.6021 37.1904C65.1454 37.1904 60.6953 32.7258 60.6953 27.269C60.6953 21.8123 65.16 17.3476 70.6021 17.3476C72.8053 17.3476 74.8917 18.048 76.6425 19.3903C77.9848 20.4408 78.2475 22.3667 77.2407 23.6944C76.1902 25.0367 74.2643 25.3139 72.922 24.2926C72.28 23.7819 71.4921 23.5193 70.6459 23.5193C68.6033 23.5193 66.8816 25.2118 66.8816 27.2836C66.8816 29.3554 68.5741 31.0479 70.6459 31.0479C71.5067 31.0479 72.2508 30.7853 72.922 30.2746C74.2643 29.2241 76.2048 29.5013 77.2407 30.8728C78.2329 32.2151 78.014 34.1557 76.6425 35.177C74.8625 36.5193 72.8053 37.1904 70.6021 37.1904ZM89.234 17.4352C90.9264 17.4643 92.2104 18.938 92.1374 20.6596C92.0499 22.3813 90.5763 23.5631 88.8838 23.5923C87.5415 23.6214 86.418 24.6428 86.418 25.9559V33.8638C86.418 35.5563 85.0757 36.9278 83.3541 36.9278C81.6324 36.9278 80.2901 35.5855 80.2901 33.8638V20.4408C80.2901 18.8504 81.574 17.5373 83.1936 17.5373C83.9231 17.5373 84.5942 17.7999 85.1341 18.2668C86.739 17.4643 88.4607 17.4352 89.234 17.4352ZM109.587 17.6978C111.178 18.3398 111.893 20.149 111.251 21.7247L105.298 36.3442C104.758 37.6865 104.218 38.9996 103.474 40.1377C101.884 42.5305 98.9657 44.2521 95.7121 44.2521C94.5594 44.2521 92.8378 43.4789 92.8961 41.5092C92.8961 40.0064 94.1363 38.8537 95.6099 38.8537C97.3024 38.8829 98.776 37.9637 99.4472 36.4026L100.031 35.0603L94.5302 21.7101C93.9174 20.1198 94.6907 18.3543 96.2227 17.6832C97.8131 17.0412 99.6369 17.7853 100.25 19.3465L102.905 25.8538L105.531 19.3465C106.232 17.8145 107.983 16.9975 109.587 17.6978ZM133.734 27.1377C133.734 32.5945 129.27 37.0591 123.828 37.0591C122.514 37.0591 121.245 36.7965 120.063 36.3296V39.9334C120.063 41.5967 118.721 42.9974 116.999 42.9974H116.737C115.176 42.9098 113.921 41.6551 113.921 40.0647V20.4408C113.921 18.8504 115.234 17.5373 116.824 17.5373C117.714 17.5373 118.429 17.8875 118.998 18.4711C120.428 17.6978 122.091 17.2309 123.828 17.2309C129.27 17.2163 133.734 21.6809 133.734 27.1377ZM127.577 27.1377C127.577 25.0367 125.914 23.3734 123.813 23.3734C121.712 23.3734 120.049 25.0367 120.049 27.1377C120.049 29.2387 121.712 30.902 123.813 30.902C125.914 30.902 127.577 29.2241 127.577 27.1377ZM144.254 30.7123C145.946 30.7123 147.347 32.113 147.347 33.8055C147.347 35.498 145.946 36.8986 144.254 36.8986H143.656C139.089 36.8986 135.835 33.2948 135.835 28.8156V14.4879C135.835 12.7954 137.236 11.3948 138.929 11.3948C140.621 11.3948 142.051 12.7954 142.051 14.4879V17.5519H144.867C146.37 17.5519 147.581 18.7629 147.581 20.2657C147.581 21.7393 146.37 22.9211 144.867 22.9211H142.051V28.801C142.051 29.764 142.562 30.7123 143.656 30.7123H144.254ZM158.407 17.3768C163.863 17.3768 168.313 21.8414 168.313 27.2982C168.313 32.755 163.849 37.1904 158.407 37.1904C152.95 37.1904 148.5 32.7258 148.5 27.269C148.5 21.8123 152.95 17.3768 158.407 17.3768ZM158.407 23.5339C156.306 23.5339 154.642 25.1972 154.642 27.2982C154.642 29.3992 156.306 31.0625 158.407 31.0625C160.508 31.0625 162.171 29.3992 162.171 27.2982C162.171 25.1972 160.508 23.5339 158.407 23.5339ZM184.29 17.6978C185.88 18.3398 186.595 20.149 185.953 21.7247L180 36.3442C179.46 37.6865 178.921 38.9996 178.176 40.1377C176.586 42.5305 173.668 44.2521 170.414 44.2521C169.262 44.2521 167.54 43.4789 167.599 41.5092C167.599 40.0064 168.839 38.8537 170.312 38.8537C172.005 38.8829 173.478 37.9637 174.15 36.4026L174.748 35.0603L169.276 21.7539C168.664 20.1635 169.437 18.3981 170.969 17.727C172.559 17.085 174.383 17.8291 174.996 19.3903L177.651 25.8975L180.277 19.3903C180.934 17.8145 182.685 16.9975 184.29 17.6978ZM195.437 22.6439C194.707 22.3959 193.613 22.1332 193.423 22.9941C193.234 23.7674 194.634 24.1467 195.203 24.278C196.356 24.526 197.479 25.168 198.297 26.058C200.062 27.911 200.47 30.8728 199.449 33.1781C198.399 35.5709 196.006 37.0154 193.467 37.1613C192.037 37.2488 189.061 36.8403 187.85 35.2499C186.347 33.2365 187.821 30.4059 190.243 30.5227C191.206 30.5518 192.256 31.296 193.059 31.3251C194.459 31.4273 194.751 29.7348 193.438 29.3846C191.001 28.6551 189.221 27.6921 188.098 25.4307C187.295 23.7382 187.485 21.5934 188.638 20.0614C190.491 17.5373 194.007 16.7057 196.91 17.7999C198.472 18.4127 199.726 20.0031 198.763 21.6955C198.092 22.9211 196.881 23.1546 195.437 22.6439Z" fill="white"/>
</g>
<defs>
<clipPath id="clip0_16622_12316">
<rect width="200" height="55.9538" fill="white"/>
</clipPath>
</defs>
</svg>
