<svg width="186" height="56" viewBox="0 0 186 56" fill="none" xmlns="http://www.w3.org/2000/svg">
<g clip-path="url(#clip0_16677_7351)">
<path d="M110.877 55.5714H116.299V36.7907H110.877V55.5714ZM81.9173 54.6594H80.3595V36.7907H74.9601V55.5714H87.0746V51.3594H86.6719L81.9173 54.6594ZM133.157 47.71L121.775 36.7907H120.191V55.5714H121.909V44.7328L132.889 55.5714H134.876V36.7907H133.157V47.71ZM101.303 50.2324V42.13C101.303 38.5345 101.061 37.9174 99.2366 37.9174H95.5336V54.4444H99.2366C101.035 54.4444 101.303 53.5061 101.303 50.2324ZM99.2366 36.7907C103.745 36.7907 107.662 39.6878 107.662 46.2886C107.662 52.8885 103.745 55.5714 99.2366 55.5714H90.0331V36.7907H99.2366ZM65.6556 55.5714H71.0772V36.7907H65.6556V55.5714ZM60.3516 50.8751C60.3516 53.8 58.1232 54.6315 55.5733 54.6315C53.882 54.6315 53.2646 54.2555 52.9421 53.9071C52.7545 53.7196 52.7009 53.37 52.7009 52.9682V36.7907H47.3047V49.6951C47.3047 54.0414 50.5528 55.9998 55.5463 55.9998C59.8144 55.9998 62.07 53.9071 62.07 50.9028V36.7907H60.3516V50.8751ZM147.757 47.0832V48.4402H151.993L149.793 54.7648H147.377C145.613 54.7648 144.798 53.5977 144.798 50.5304V41.9257C144.798 38.8856 145.965 37.6639 147.703 37.6639H148.924L153.594 41.4915H154.002V37.0672C152.536 36.8775 151.368 36.6055 147.892 36.6055C142.843 36.6055 138.254 39.5101 138.254 46.1875C138.254 52.8642 142.843 55.8234 147.785 55.8234C151.151 55.8234 153.784 55.6601 154.952 55.3892V47.0832H147.757ZM38.6245 44.0724V38.7827C38.6245 37.965 38.4609 37.8284 38.0518 37.8284H35.4599V45.1905H38.0518C38.4609 45.1905 38.6245 44.9723 38.6245 44.0724ZM38.6245 53.7788V47.2619C38.6245 46.3626 38.4609 46.1447 38.0518 46.1447H35.4599V54.7331H38.0518C38.4609 54.7331 38.6245 54.5964 38.6245 53.7788ZM40.3705 45.5443C42.9347 45.9268 44.6538 47.6164 44.6538 50.3704C44.6538 53.4518 42.8257 55.8234 39.1704 55.8234H30.1408V36.7381H38.0791C41.4346 36.7381 43.0438 38.8918 43.0438 41.3187C43.0438 43.554 42.0891 44.9448 40.3705 45.5443ZM184.682 29.7011L178.594 32.8345H177.173V22.5591L180.998 23.9495H181.38V20.5698H180.998L177.173 21.9604V15.6104H178.485L183.674 18.1993H184.082V14.6834H171.685V33.7617H185.093V29.7011H184.682ZM152.991 18.1795H153.397L157.631 15.415V33.6541H163.084V15.415L167.318 18.1795H167.725V14.6834H152.991V18.1795ZM140.459 27.2851H145.567L143.039 21.1331L141.246 25.3876C140.947 26.0656 140.702 26.6889 140.459 27.2851ZM144.263 14.6834H145.622L153.774 33.6541H148.204L146.137 28.6411H139.943C139.207 30.646 138.747 32.2456 138.474 33.6541H136.163L144.263 14.6834ZM136.536 18.1795V14.6834H121.802V18.1795H122.21L126.442 15.415V33.6541H132.061V15.415L136.131 18.1795H136.536ZM117.502 24.2229L110.628 17.8539V17.6381C110.628 16.4723 111.362 15.5773 113.453 15.5773H113.969L118.099 19.5342H118.505V15.0358C117.202 14.765 115.762 14.5748 113.453 14.5748C110.111 14.5748 107.043 16.7163 107.043 20.2928C107.043 21.6489 107.477 23.0853 109.053 24.5474L114.867 29.9409V31.2154C114.867 32.1631 114.025 32.7593 112.72 32.7593H112.014L107.451 28.6667H107.043V33.3275C108.21 33.5995 110.438 33.7617 112.746 33.7617C117.827 33.7617 119.483 30.3752 119.483 28.4777C119.483 26.8779 119.022 25.6316 117.502 24.2229ZM91.2125 32.7325H89.8017V22.5147L93.602 23.8976H93.9827V20.5366H93.602L89.8017 21.9195V15.6052H91.1053L96.2638 18.1795H96.6712V14.6834H84.3435V33.6541H97.6744V29.6165H97.2674L91.2125 32.7325ZM74.3585 22.1635V16.8237C74.3585 16.0115 74.1951 15.8761 73.79 15.8761H71.4016V23.2755H73.79C74.1951 23.2755 74.3585 23.0573 74.3585 22.1635ZM79.0237 19.588C79.0237 21.839 77.8019 23.3549 75.7961 24.0062L81.9269 33.0578V33.6541H76.1203L71.538 24.3583H71.4016V33.6541H65.9509V14.6834H73.8158C77.3421 14.6834 79.0237 17.1771 79.0237 19.588ZM55.9452 33.6541H61.4519V14.6834H55.9452V33.6541ZM48.0756 22.2453V16.8237C48.0756 16.0115 47.9124 15.8761 47.5053 15.8761H45.2507V23.355H47.5053C47.9124 23.355 48.0756 23.1391 48.0756 22.2453ZM47.5321 14.6834C51.0627 14.6834 52.7465 17.1771 52.7465 19.588C52.7465 22.6511 51.008 24.5474 47.5321 24.5474H45.2507V33.6541H39.7924V14.6834H47.5321ZM27.145 26.7704L18.2832 14.6834H17.0368V33.6541H18.7709V24.0062L24.7597 32.7602H25.302L30.6408 24.0062V33.6541H36.0883V14.6834H34.8686L27.145 26.7704ZM6.90817 32.8345H5.48821V22.5591L9.3113 23.9495H9.69378V20.5698H9.3113L5.48821 21.9604V15.6104H6.80007L11.988 18.1993H12.3975V14.6834H0V33.7617H13.4067V29.7011H12.9983L6.90817 32.8345ZM108.649 11.5237V9.07095H108.401L104.723 10.9637H103.865V4.75717L106.174 5.59717H106.406V3.55559H106.174L103.865 4.39559V0.560226H104.658L107.791 2.12385H108.039V0.000225067H100.551V11.5237H108.649ZM94.3139 0.000225067V5.03787H90.7891V0.000225067H87.478V11.5237H90.7891V5.44906L92.5516 6.51922L94.3139 5.44906V11.5237H97.6253V0.000225067H94.3139ZM79.2626 11.5237V0.44479L76.6916 2.12385H76.4442V0.000225067H85.3941V2.12385H85.1468L82.5751 0.44479V11.5237H79.2626Z" fill="white"/>
</g>
<defs>
<clipPath id="clip0_16677_7351">
<rect width="185.094" height="56" fill="white"/>
</clipPath>
</defs>
</svg>
