<svg width="136" height="44" viewBox="0 0 136 44" fill="none" xmlns="http://www.w3.org/2000/svg">
<path d="M33.4994 17.508C32.7897 18.2176 31.9027 18.6907 30.9566 18.8681C32.2575 22.357 31.4001 26.3485 28.7391 29.0096C26.9059 30.8427 24.4223 31.8184 21.9091 31.8184C20.7856 31.8184 19.662 31.6114 18.568 31.2271C18.3906 32.1732 17.9471 33.0602 17.208 33.7698C15.2861 35.6917 12.152 35.6917 10.2006 33.7698C8.27875 31.848 8.27875 28.7139 10.2006 26.7625C10.9102 26.0529 11.7972 25.5798 12.7433 25.4024C11.4128 21.8839 12.2703 17.8628 14.9313 15.2018C17.5923 12.5408 21.6134 11.6833 25.1319 13.0138C25.3093 12.0973 25.7528 11.2103 26.492 10.5006C28.4138 8.57879 31.5479 8.57879 33.4994 10.5006C35.4212 12.4521 35.4212 15.5862 33.4994 17.508ZM21.85 0.300049C9.78666 0.300049 0 10.0867 0 22.15C0 34.2133 9.78666 44 21.85 44C33.9133 44 43.6999 34.2133 43.6999 22.15C43.6999 10.0867 33.9133 0.300049 21.85 0.300049ZM24.4519 24.7223C23.0326 26.1416 20.756 26.1416 19.3368 24.7223C17.9176 23.3031 17.9176 21.0265 19.3368 19.6073C20.756 18.1881 23.0326 18.1881 24.4519 19.6073C25.8415 21.0265 25.8415 23.3031 24.4519 24.7223ZM27.6747 11.6833C26.9355 12.4225 26.5807 13.4869 26.7581 14.5217C26.8172 14.8766 26.7876 15.2018 26.6398 15.527C26.4328 15.941 26.1076 16.2366 25.6937 16.414C25.2797 16.5619 24.8362 16.5619 24.3927 16.3549C22.0274 15.2609 19.1889 15.7636 17.3558 17.5967C15.5226 19.4299 15.02 22.2683 16.114 24.6336C16.321 25.0476 16.321 25.5207 16.1731 25.9346C16.0253 26.319 15.7296 26.6738 15.3157 26.8512C15.0791 26.9694 14.8426 26.999 14.6061 26.999C14.4878 26.999 14.3695 26.9694 14.2808 26.9694C13.1869 26.8216 12.1816 27.1468 11.4424 27.886C10.8215 28.5069 10.4963 29.3348 10.4963 30.1922C10.4963 31.0792 10.8215 31.8776 11.4424 32.4985C12.7138 33.7698 14.7835 33.7698 16.0548 32.4985C16.794 31.7593 17.1488 30.6949 16.9714 29.66C16.9714 29.6009 16.9714 29.5418 16.9714 29.4826C16.9419 29.2165 17.001 28.9209 17.1193 28.6548C17.3262 28.2408 17.6515 27.9451 18.0654 27.7973C18.4793 27.6495 18.9228 27.6495 19.3664 27.8564C21.7317 28.9504 24.5701 28.4478 26.4033 26.6146C28.2364 24.7815 28.7686 21.9431 27.6451 19.5777C27.4381 19.1638 27.4381 18.6907 27.586 18.3063C27.7338 17.8924 28.0295 17.5376 28.473 17.3602C28.7686 17.2123 29.0939 17.1828 29.3895 17.2123C29.4487 17.2123 29.4782 17.2123 29.5374 17.2123C30.5722 17.3602 31.5775 17.0349 32.3167 16.2958C33.5881 15.0244 33.5881 12.9547 32.3167 11.6833C31.0157 10.4119 28.946 10.4119 27.6747 11.6833ZM85.9807 28.8026C86.099 28.8026 86.1877 28.773 86.2468 28.773V31.9958C85.5372 32.1437 84.9754 32.2028 84.5615 32.2028C83.2014 32.2028 82.137 31.848 81.3682 31.1679C80.5995 30.4879 80.2151 29.3939 80.2151 27.9156V9.90931H84.0588V27.2947C84.0588 27.7973 84.1475 28.1817 84.3545 28.4478C84.5615 28.7139 84.9754 28.8322 85.5667 28.8322C85.7441 28.8322 85.8624 28.8026 85.9807 28.8026ZM88.1095 32.0254H91.9828V16.1184H88.1095V32.0254ZM104.697 16.1184H108.511V32.0254H105.347L105.081 29.9557C104.697 30.7244 104.105 31.3453 103.277 31.7888C102.449 32.2323 101.533 32.4393 100.528 32.4393C98.8423 32.4393 97.4822 31.9071 96.5065 30.8723C95.5308 29.8374 95.0282 28.4478 95.0282 26.7329V16.1184H98.8423V25.8755C98.8423 27.886 99.7589 28.8913 101.592 28.8913C102.361 28.8913 103.011 28.6252 103.543 28.093C104.312 27.3834 104.697 26.2007 104.697 24.5154V16.1184ZM134.323 21.2926V32.0254H130.538V22.15C130.538 21.1152 130.361 20.3464 130.006 19.8142C129.651 19.3116 129.001 19.0455 128.084 19.0455C127.079 19.0455 126.31 19.489 125.778 20.3464C125.246 21.2039 124.979 22.2092 124.979 23.3327V32.0254H121.195V22.15C121.195 21.1152 121.018 20.3464 120.663 19.8142C120.308 19.3116 119.657 19.0455 118.741 19.0455C117.736 19.0455 116.967 19.489 116.405 20.3464C115.843 21.2039 115.577 22.2092 115.577 23.3327V32.0254H111.793V16.1184H114.986L115.282 18.2176C116.287 16.5323 117.824 15.7044 119.805 15.7044C121.993 15.7044 123.501 16.5619 124.359 18.3063C125.364 16.5619 126.96 15.7044 129.148 15.7044C130.804 15.7044 132.076 16.2071 132.963 17.2123C133.879 18.2472 134.323 19.6073 134.323 21.2926ZM87.9617 13.9304H92.0715V9.96844H87.9617V13.9304ZM60.3757 17.3306C61.3219 18.395 61.8245 19.7551 61.8245 21.4404V32.055H58.0104V22.2387C58.0104 21.263 57.8034 20.5238 57.419 20.0212C57.0346 19.5186 56.3546 19.282 55.3789 19.282C54.3145 19.282 53.5162 19.7255 52.9544 20.6421C52.3926 21.5587 52.1265 22.564 52.1265 23.6875V32.055H48.3124V9.96844H52.1265V17.8333C52.57 17.1828 53.1909 16.6801 53.9892 16.2958C54.7876 15.941 55.6154 15.734 56.4729 15.734C58.0991 15.734 59.4 16.2662 60.3757 17.3306ZM67.5605 22.5048C67.59 21.5291 67.8561 20.7012 68.3884 20.0212C69.0093 19.1933 69.8963 18.809 71.0494 18.809C72.0842 18.809 72.8825 19.1046 73.4739 19.7255C74.0948 20.4056 74.42 21.3517 74.4496 22.5048H67.5605ZM71.0789 15.734C69.0092 15.734 67.2944 16.414 65.9934 17.7445C64.456 19.3116 63.6872 21.4404 63.6872 24.1014C63.6872 26.7625 64.5151 28.8913 66.1413 30.4583C67.5014 31.7593 69.1867 32.4098 71.1676 32.4098C73.4739 32.4098 75.2479 31.6706 76.5193 30.1627C77.3176 29.2165 77.7611 28.2112 77.8793 27.2355H74.213C74.0652 27.7677 73.8287 28.2112 73.4443 28.5956C72.9417 29.0983 72.1729 29.3644 71.1085 29.3644C70.2215 29.3644 69.4528 29.0391 68.7432 28.3887C67.9153 27.6199 67.5309 26.5851 67.59 25.2546H78.2341C78.2341 25.018 78.2342 24.6632 78.2637 24.1901C78.3229 22.0022 77.8793 20.1395 76.8741 18.6611C75.5731 16.7097 73.6513 15.734 71.0789 15.734Z" fill="white"/>
</svg>
