<?xml version="1.0" encoding="utf-8"?>
<!-- Generator: Adobe Illustrator 27.6.1, SVG Export Plug-In . SVG Version: 6.00 Build 0)  -->
<svg version="1.1" id="Layer_1" xmlns="http://www.w3.org/2000/svg" xmlns:xlink="http://www.w3.org/1999/xlink" x="0px" y="0px"
	 viewBox="0 0 119 30" style="enable-background:new 0 0 119 30;" xml:space="preserve">
<style type="text/css">
	.st0{fill:#FFFFFF;}
</style>
<g>
	<path class="st0" d="M40.4,8.9H38v12.3h2.4V8.9z"/>
	<path class="st0" d="M52.8,12.3c-1.2,0-2.3,0.5-2.9,1.5c-0.5-1-1.4-1.5-2.7-1.5c-1.1,0-2,0.5-2.6,1.4v-1.2h-2.3v8.8h2.3v-4.9
		c0-1.2,0.8-2.1,1.9-2.1h0.1c0.9,0,1.4,0.6,1.4,1.8v5.3h2.3v-4.9c0-1.2,0.8-2.1,1.9-2.1h0.1c0.9,0,1.4,0.6,1.4,1.8v5.3H56V16
		c0-1-0.2-1.9-0.7-2.5C54.6,12.6,53.9,12.3,52.8,12.3z"/>
	<path class="st0" d="M67.9,12.3c-1.2,0-2.3,0.5-2.9,1.5c-0.5-1-1.4-1.5-2.7-1.5c-1.1,0-2,0.5-2.6,1.4v-1.2h-2.3v8.8h2.3v-4.9
		c0-1.2,0.8-2.1,1.9-2.1h0.1c0.9,0,1.4,0.6,1.4,1.8v5.3h2.3v-4.9c0-1.2,0.8-2.1,1.9-2.1h0.1c0.9,0,1.4,0.6,1.4,1.8v5.3H71V16
		c0-1-0.2-1.9-0.7-2.5C69.8,12.6,69,12.3,67.9,12.3z"/>
	<path class="st0" d="M85.2,18.3v-4h2v-1.8h-2V9.6h-2.3v2.8h-2.6h-2.2H78v4.9c0,1.2-0.8,2.2-1.8,2.2h-0.1c-0.8,0-1.3-0.6-1.3-1.7
		v-5.3h-2.3v5.6c0,1,0.2,1.8,0.7,2.4s1.2,0.9,2.2,0.9c1.1,0,2-0.6,2.6-1.5v1.3h2.3v-6.9h2.6v4.6c0,1.5,0.8,2.3,2.3,2.3h2.2v-1.9
		h-1.3C85.3,19.3,85.2,19.1,85.2,18.3z"/>
	<path class="st0" d="M95.5,15.4c0-2-1.5-3.1-3.7-3.1s-3.6,1.2-3.8,2.9h2.3c0.1-0.5,0.6-1,1.4-1h0.1c0.8,0,1.4,0.6,1.4,1.4v0.2
		L91,16c-0.9,0.1-1.7,0.4-2.3,0.8c-0.6,0.5-0.9,1.2-0.9,2.1c0,1.5,1.3,2.6,2.9,2.6c1.1,0,2-0.5,2.6-1.2c0,0.5,0.1,0.8,0.1,1.1h2.1
		c-0.1-0.4-0.1-1.1-0.1-1.9L95.5,15.4L95.5,15.4z M93.3,17.6c0,1.1-0.9,1.9-2,1.9h-0.1c-0.6,0-1.1-0.4-1.1-0.9
		c0-0.3,0.1-0.6,0.4-0.8c0.3-0.2,0.6-0.3,0.9-0.3l1.9-0.2C93.3,17.3,93.3,17.6,93.3,17.6z"/>
	<path class="st0" d="M101.9,12.3c-1.2,0-2.1,0.7-2.5,1.3V8.9h-2.3v12.3h2.3v-1.1c0.4,0.6,1.4,1.3,2.5,1.3c2.5,0,3.9-2.2,3.9-4.6
		S104.3,12.2,101.9,12.3z M101.5,19.5L101.5,19.5c-1.1,0-2.1-1.1-2.1-2.7s1-2.7,2-2.7h0.1c1.1,0,2,1.1,2,2.7
		C103.5,18.5,102.6,19.5,101.5,19.5z"/>
	<path class="st0" d="M109.2,8.9h-2.3v12.3h2.3V8.9z"/>
	<path class="st0" d="M114.5,12.3c-2.6,0-4.2,1.9-4.2,4.6c0,2.8,2,4.6,4.2,4.6c2.1,0,3.5-1.2,4-2.9h-2.3c-0.2,0.6-0.7,1.1-1.5,1.1
		h-0.1c-0.9,0-1.9-0.8-2-2h5.9c0-0.4,0-0.7,0-0.8C118.5,14.2,117.1,12.3,114.5,12.3z M112.6,15.8c0.1-1,0.8-1.7,1.8-1.7h0.1
		c1,0,1.8,0.6,1.8,1.7H112.6z"/>
	<path class="st0" d="M15.1,0c-8.3,0-15,6.7-15,15s6.7,15,15,15s15-6.7,15-15S23.4,0,15.1,0z M14.5,6.1c0.4-0.2,0.9-0.2,1.3,0
		c1.4,0.8,2.8,1.6,4.2,2.4c0.4,0.3,0.7,0.7,0.7,1.2c0,1.8,0,3.6,0,5.4c0,0.1,0,0.2-0.1,0.2c-0.5,0.3-1.1,0.6-1.7,1
		c0-0.1,0-0.2,0-0.3c0-1.9,0-3.7,0-5.6c0-0.4-0.1-0.6-0.4-0.8c-1.6-0.9-3.2-1.9-4.9-2.8c-0.1,0-0.1-0.1-0.2-0.1
		C13.7,6.5,14.1,6.3,14.5,6.1z M14.2,24.6c-0.1,0-0.2-0.1-0.2-0.1c-2.1-1.2-4.3-2.5-6.4-3.7C7,20.5,6.7,20,6.7,19.3
		c0-1.5,0-2.9,0-4.4c0-0.7,0.3-1.1,0.8-1.5c1.5-0.9,3-1.7,4.5-2.6c0.1-0.1,0.2-0.1,0.4,0c0.5,0.3,1,0.6,1.6,0.9
		c-0.1,0.1-0.2,0.1-0.3,0.2c-1.6,0.9-3.2,1.9-4.9,2.8c-0.3,0.2-0.4,0.4-0.4,0.7c0,1.2,0,2.3,0,3.5c0,0.3,0.1,0.5,0.4,0.7
		c1.7,1,3.4,2,5.1,3c0.1,0.1,0.2,0.2,0.2,0.3C14.2,23.4,14.2,24,14.2,24.6z M14.2,21.3c-0.1-0.1-0.3-0.1-0.4-0.2
		c-1.4-0.8-2.7-1.6-4.1-2.4c-0.1-0.1-0.2-0.2-0.2-0.3c0-0.9,0-1.8,0-2.7c0-0.1,0-0.2,0.1-0.3c0.5-0.3,1-0.6,1.5-0.9
		c0,0,0.1,0,0.1-0.1c0,0.4,0,0.7,0,1c0,0.5,0,1.1,0,1.6c0,0.3,0.1,0.5,0.4,0.7c0.8,0.4,1.5,0.9,2.3,1.3c0.2,0.1,0.2,0.2,0.2,0.3
		C14.2,20.1,14.2,20.7,14.2,21.3z M12.6,9.7c-0.3-0.2-0.5-0.2-0.8,0c-1.6,0.9-3.2,1.9-4.9,2.8c-0.1,0-0.1,0.1-0.3,0.1
		c0-0.6-0.1-1.2,0.1-1.8c0.1-0.3,0.3-0.5,0.6-0.7c1.4-0.8,2.7-1.6,4.1-2.3c0.5-0.3,1-0.3,1.5,0c1.5,0.9,3.1,1.8,4.6,2.7
		c0.1,0,0.1,0.1,0.1,0.2c0,0.6,0,1.3,0,1.9C17,12.3,16.5,12,16,11.7C15,11,13.8,10.3,12.6,9.7z M23.4,19.6c0,0.5-0.3,0.9-0.8,1.1
		c-1.7,0.9-3.3,1.9-4.9,2.9c-0.5,0.3-1,0.6-1.6,0.9c-0.1,0-0.1,0.1-0.2,0.1c0-0.1,0-0.1,0-0.2c0-0.5,0-1.1,0-1.6
		c0-0.1,0-0.2,0.1-0.3c2.4-1.4,4.8-2.8,7.2-4.2c0,0,0.1,0,0.1-0.1C23.4,18.7,23.5,19.2,23.4,19.6z M23.5,16.2c0,0.6-0.3,1-0.8,1.2
		c-1.9,1.1-3.8,2.2-5.6,3.3c-0.3,0.2-0.7,0.4-1.1,0.6c0-0.1,0-0.2,0-0.2c0-0.5,0-1.1,0-1.6c0-0.2,0-0.2,0.2-0.3c1.7-1,3.4-2,5.1-2.9
		c0.3-0.2,0.4-0.4,0.4-0.7c0-1.9,0-3.7,0-5.6c0-0.1,0-0.2,0-0.3c0.4,0.3,0.9,0.5,1.2,0.8c0.3,0.2,0.5,0.6,0.5,1.1
		C23.5,13,23.5,14.6,23.5,16.2z"/>
</g>
</svg>
