<svg width="101" height="54" viewBox="0 0 101 54" fill="none" xmlns="http://www.w3.org/2000/svg">
<g clip-path="url(#clip0_16678_7352)">
<path d="M90.7981 42.1256V42.0508C91.6204 40.182 91.8073 38.5 91.8073 35.5473V28.5951C91.8073 26.5768 90.9476 25.4181 90.0132 24.6332V24.5584L94.5732 22.4653V27.2122L94.7601 27.2496C96.5541 25.4181 98.423 22.6522 101.152 22.6896L101.114 26.6889L100.778 26.7263C100.142 26.502 98.7594 26.2778 97.8623 26.2778C97.1896 26.2778 95.844 27.3991 94.7601 28.8194V35.5099C94.7601 38.4627 94.7974 40.182 95.7319 42.0508V42.1256H90.7981Z" fill="white"/>
<path d="M80.6833 40.1073C82.8885 40.1073 84.9816 39.3224 86.3646 37.3788L86.9626 37.79C85.7666 40.5932 83.1128 42.6864 79.3377 42.6864C74.1423 42.6864 70.6289 38.7992 70.6289 33.0057C70.6289 26.6517 74.8899 22.6897 79.6741 22.6897C84.421 22.6897 87.299 26.4648 86.8505 30.95H73.7686C73.7312 31.249 73.7312 31.5854 73.7312 31.9218C73.7312 36.9303 76.2354 40.1073 80.6833 40.1073ZM79.562 24.0726C76.6466 24.0726 74.5161 26.2031 73.9181 29.6792L83.6361 29.4923V29.1559C83.6361 25.6425 82.141 24.0726 79.562 24.0726Z" fill="white"/>
<path d="M58.5031 22.6898C60.2598 22.6898 61.8296 23.0636 62.9883 23.6242V17.6813C62.9883 15.7751 62.1287 14.6911 61.1569 13.981V13.9062L65.9037 12V35.9586C65.9037 39.7711 66.3522 40.4438 67.6978 41.3035V41.3783L63.1378 42.6117V38.7245H63.0257C61.8296 40.8176 59.4001 42.6865 55.9988 42.6865C50.9903 42.6865 48.1123 38.7619 48.1123 33.5291C48.1123 27.5862 52.0743 22.6898 58.5031 22.6898ZM51.4015 32.6321C51.4015 37.4537 53.6441 40.4812 57.3444 40.4812C59.8487 40.4812 61.7923 39.1357 62.9883 37.1921V28.5954C62.465 25.1941 60.2224 24.0728 57.9798 24.0728C54.13 24.0728 51.4015 27.5114 51.4015 32.6321Z" fill="white"/>
<path d="M39.4766 42.1258V42.0511C40.2241 40.6307 40.4484 39.2478 40.4484 36.5566V17.6439C40.4484 15.7751 39.5887 14.6911 38.6543 13.981V13.8688L43.4012 12V36.5193C43.4012 39.2104 43.5881 40.6681 44.4103 42.0511V42.1258H39.4766Z" fill="white"/>
<path d="M23.5469 42.6864C20.7062 42.6864 18.8374 41.0791 18.8374 38.5749C18.8374 33.9402 25.042 31.7723 29.6393 31.1743V28.7821C29.6393 26.2031 28.8544 24.7081 25.6774 24.7081C23.5095 24.7081 21.4912 25.4556 20.0708 26.5021L19.6223 26.0162C21.2669 24.0726 23.8085 22.6897 26.9856 22.6897C31.3587 22.6897 32.5921 25.2313 32.5921 28.072V38.687C32.5921 39.771 33.0406 40.5559 34.1993 40.5559C35.059 40.5559 35.657 40.1073 36.2551 39.3972L36.741 39.7336C36.1429 41.0044 35.059 42.6116 32.8911 42.6116C30.8354 42.6116 29.7888 41.2287 29.7141 39.6962C28.4059 41.266 26.2007 42.6864 23.5469 42.6864ZM21.678 37.8274C21.678 39.5093 22.8367 40.6306 24.9298 40.6306C27.023 40.6306 28.817 39.4346 29.6393 38.2759V32.3703C25.7521 33.0431 21.678 34.7251 21.678 37.8274Z" fill="white"/>
<path d="M0.822292 42.1258V42.0511C1.56983 40.6307 1.79409 39.2478 1.79409 36.5566V17.6439C1.79409 15.7751 0.934423 14.6911 0 13.981V13.8688L4.74687 12V36.5193C4.74687 39.2104 4.93375 40.6681 5.75605 42.0511V42.1258H0.822292ZM17.0813 42.1258H12.596L5.41965 32.2583L9.79276 27.1003C10.9888 25.68 11.2878 24.2223 10.5777 23.3626V23.2505H15.8478V23.3626C14.1659 24.2223 12.9698 25.2688 11.0636 27.5114L8.07342 31.0622L13.4557 38.5002C14.8013 40.3317 15.6609 41.3035 17.0813 42.0511V42.1258Z" fill="white"/>
</g>
<defs>
<clipPath id="clip0_16678_7352">
<rect width="101" height="54" fill="white"/>
</clipPath>
</defs>
</svg>
