<svg width="52" height="56" viewBox="0 0 52 56" fill="none" xmlns="http://www.w3.org/2000/svg">
<path d="M19.2976 31.6104L17.8745 29.6981L16.6136 27.9991L17.8745 26.3L19.2976 24.3878L25.0869 16.6031C25.4781 16.0782 25.2682 15.647 24.6195 15.647H19.4343C19.0721 15.668 18.7178 15.7635 18.3931 15.9279C18.0684 16.0923 17.7799 16.322 17.5453 16.6031L11.7543 24.3878L10.3328 26.3L9.07031 27.9991L10.3328 29.6981L11.7543 31.6104L17.5453 39.3951C17.7799 39.6761 18.0684 39.9059 18.3931 40.0702C18.7178 40.2346 19.0721 40.3302 19.4343 40.3511H24.6243C25.273 40.3511 25.4829 39.9199 25.0918 39.3951L19.2976 31.6104Z" fill="#F9FAFB"/>
<path d="M7.80739 15.7163H2.11976C1.84489 15.7163 1.62207 15.9426 1.62207 16.2218V39.8439C1.62207 40.1231 1.84489 40.3495 2.11976 40.3495H7.80739C8.08224 40.3495 8.30509 40.1231 8.30509 39.8439V16.2218C8.30509 15.9426 8.08224 15.7163 7.80739 15.7163Z" fill="#F9FAFB"/>
<path d="M42.0857 28.687L43.2783 30.2908L44.6203 32.0964L50.0885 39.4498C50.459 39.9457 50.2586 40.3527 49.6465 40.3527H44.7459C44.4037 40.3321 44.0692 40.2416 43.7624 40.0864C43.4555 39.9313 43.1827 39.7147 42.9603 39.4498L37.492 32.0964L36.1501 30.2908L34.9575 28.687H42.0857Z" fill="#F9FAFB"/>
<path d="M34.0808 39.4486C33.8588 39.7139 33.586 39.9307 33.2791 40.0859C32.9721 40.2411 32.6375 40.3314 32.2951 40.3514H27.3946C26.7825 40.3514 26.5837 39.9444 26.9525 39.4486L42.9676 17.9228C43.19 17.6579 43.4629 17.4414 43.7697 17.2863C44.0765 17.1311 44.4111 17.0406 44.7533 17.02H49.6459C50.258 17.02 50.4584 17.427 50.0879 17.9228L34.0808 39.4486Z" fill="#D1D5DB"/>
<path d="M34.9569 28.6869L33.7644 27.0815C33.3939 26.5857 32.7913 25.7733 32.4208 25.2759L26.9525 17.9241C26.5837 17.4282 26.7825 17.0212 27.3946 17.0212H32.2951C32.6375 17.0412 32.9721 17.1316 33.2791 17.2867C33.586 17.4419 33.8588 17.6587 34.0808 17.9241L39.549 25.2759L40.8926 27.0815L42.0851 28.6869H34.9569Z" fill="#F9FAFB"/>
</svg>
