<?xml version="1.0" encoding="utf-8"?>
<!-- Generator: Adobe Illustrator 27.6.1, SVG Export Plug-In . SVG Version: 6.00 Build 0)  -->
<svg version="1.1" id="Layer_1" xmlns="http://www.w3.org/2000/svg" xmlns:xlink="http://www.w3.org/1999/xlink" x="0px" y="0px"
	 viewBox="0 0 45 44" style="enable-background:new 0 0 45 44;" xml:space="preserve">
<style type="text/css">
	.st0{fill:none;}
	.st1{fill:#FFFFFF;}
</style>
<rect x="0.8" class="st0" width="44" height="44"/>
<g>
	<path class="st1" d="M3,27l-1.3,1.3L3.5,29L3,27z"/>
	<path class="st1" d="M3.7,29.6l-1,1.5l1.5,0.1L3.7,29.6z"/>
	<path class="st1" d="M2.3,24.5L1,25.7l1.9,0.7L2.3,24.5z"/>
</g>
<path class="st1" d="M39.5,40.4c0-1.2,1-2.1,2.2-2.1s2.2,0.9,2.2,2.1c0,1.2-1,2.1-2.2,2.1C40.4,42.5,39.5,41.6,39.5,40.4z
	 M41.6,42.2c1,0,1.7-0.8,1.7-1.8s-0.8-1.8-1.7-1.8c-1,0-1.7,0.8-1.7,1.8C39.9,41.4,40.6,42.2,41.6,42.2z M41.2,41.6h-0.4v-2.5h0.9
	c0.6,0,0.9,0.2,0.9,0.7c0,0.4-0.3,0.6-0.6,0.7l0.7,1.1h-0.4l-0.7-1.1h-0.4V41.6z M41.6,40.2c0.3,0,0.6,0,0.6-0.4
	c0-0.3-0.3-0.4-0.5-0.4h-0.5v0.8C41.2,40.2,41.6,40.2,41.6,40.2z"/>
<g>
	<polygon class="st1" points="15.2,24.8 17.8,24.1 15.5,20.7 	"/>
	<path class="st1" d="M44.3,20.8L39,22.1l-2.3-8.5l1.5-0.4l2,7.3l2.6-0.7l0,0l1.8-1.5l-2.2-1l1.6-1.7l-2.4-0.7l1.5-1.9l-2.4-0.2
		l1.2-2.1l-2.5-0.1l0.8-2.2l-2.4,0.2l0.6-2.3L36,6.9l0.1-2.5l-2.2,1l-0.1-2.5l-2,1.1l-0.4-2.3l-1.9,1.4l-0.7-2.4L27,2.4l-1-2.2
		L24.6,2l-1.3-2l-1.2,2l-1.6-1.8l-1,2.1l-1.7-1.7l-0.7,2.3l-1.9-1.5l-0.4,2.4l-2.1-1.3l-0.2,2.3l-2.3-1l0.2,2.4L8.1,5.5l0.6,2.3
		L6.2,7.6l0.7,2.2L4.4,9.7L5.5,12l-2.4,0.2l1.3,2L2,14.7l1.6,1.9l-2.4,0.8L3,19l-2.2,1.1l2,1.5l-2,1.3l1.3,0.7l-0.2-0.7L4,22.3
		l4.1,6.1l0.5-7.3l2.1-0.5l2.3,8.6l-1.4,0.4L9.8,23l-0.6,7.3L8,30.5l-4.1-6l1.8,6.6l-0.5,0.1l0,0.1L4,33.5l2.5,0.1l-0.8,2.3l2.4-0.3
		l-0.7,2.3l2.5-0.6l-0.3,2.4l2.3-0.9v2.4l2-1.2l0.2,2.4l2-1.6l0.7,2.4l1.7-1.8l1,2.3l1.5-1.8l1.4,2.1l1.2-2l1.5,1.8l0.9-2.1l1.9,1.8
		l0.8-2.3l1.9,1.4l0.4-2.3l2.1,1.3v-2.5l2.2,0.9l-0.2-2.3l2.4,0.7L37,36l2.3,0.4l-0.7-2.3l2.4,0.1L40,32h2.5l-1.3-2.3l2.3-0.5
		L42,27.3l2.6-0.7l-1.8-1.8l2.1-1L43,22.3l1.9-1.1L44.3,20.8z M20,27.2l-1.4-2.1L15.2,26L15,28.6L13.4,29l1-9.5l1.6-0.4l5.6,7.7
		L20,27.2z M29,24.8l-1.5,0.4l-2-7.3l-1.3,0.4l0,0L21.5,19l2,7.3L22,26.7l-2-7.3l-2.7,0.7L17,18.8l5.6-1.5l0,0l6.8-1.8l0.3,1.3
		L27,17.5L29,24.8z M32.4,23.9L30,15.3l5.9-1.6l0.4,1.3l-4.4,1.2l0.6,2.3l4.1-1.1l0.3,1.2l-4.1,1.1l0.7,2.5L38,21l0.4,1.3L32.4,23.9
		z"/>
</g>
</svg>
