<svg width="200" height="54" viewBox="0 0 200 54" fill="none" xmlns="http://www.w3.org/2000/svg">
<g clip-path="url(#clip0_16622_12287)">
<path d="M63.953 10.6033C63.5414 10.6033 63.1918 10.9021 63.1274 11.309L58.3629 41.5245C58.3455 41.6349 58.3523 41.7477 58.3828 41.8552C58.4132 41.9627 58.4666 42.0623 58.5392 42.1472C58.6118 42.2321 58.702 42.3003 58.8034 42.347C58.9049 42.3938 59.0153 42.418 59.127 42.418H64.7774C65.1884 42.418 65.5386 42.1186 65.603 41.7123L67.0026 32.8393C67.0664 32.433 67.4166 32.1336 67.8282 32.1336H72.9654C78.9678 32.1336 84.0631 27.754 84.9938 21.8196C85.9321 15.835 81.2567 10.6163 74.6302 10.6033H63.953ZM69.4457 17.3485H73.5559C76.9398 17.3485 78.0418 19.3452 77.6934 21.5533C77.3449 23.7661 75.6335 25.396 72.3601 25.396H68.1766L69.4457 17.3485ZM96.4858 19.4025C95.0591 19.4078 93.4174 19.7001 91.5743 20.4678C87.3465 22.23 85.3162 25.872 84.454 28.5271C84.454 28.5271 81.7097 36.6277 87.9099 41.078C87.9099 41.078 93.6601 45.3625 100.133 40.8141L100.021 41.5245C100.004 41.6348 100.011 41.7475 100.041 41.8549C100.072 41.9623 100.125 42.0619 100.197 42.1468C100.27 42.2316 100.36 42.2998 100.461 42.3467C100.563 42.3935 100.673 42.4178 100.784 42.418H106.148C106.56 42.418 106.91 42.1186 106.974 41.7123L110.237 21.0206C110.254 20.9102 110.248 20.7974 110.217 20.6898C110.187 20.5823 110.134 20.4825 110.061 20.3975C109.989 20.3125 109.899 20.2442 109.797 20.1973C109.696 20.1504 109.586 20.1261 109.474 20.1259H104.11C103.698 20.1259 103.348 20.4253 103.284 20.8316L103.109 21.9454C103.109 21.9454 100.767 19.3865 96.4858 19.4025ZM96.6612 25.9381C97.2772 25.9381 97.8406 26.0231 98.3461 26.1855C100.66 26.9285 101.973 29.1519 101.593 31.5619C101.125 34.5294 98.691 36.7145 95.5699 36.7145C94.9546 36.7145 94.3912 36.63 93.8851 36.4676C91.5713 35.7247 90.2508 33.5013 90.6306 31.0912C91.0989 28.1237 93.5402 25.9381 96.6612 25.9381Z" fill="white"/>
<path d="M141.197 10.6033C140.786 10.6033 140.436 10.9021 140.372 11.309L135.607 41.5245C135.59 41.6349 135.596 41.7477 135.627 41.8552C135.657 41.9627 135.711 42.0623 135.783 42.1472C135.856 42.2321 135.946 42.3003 136.048 42.347C136.149 42.3938 136.259 42.418 136.371 42.418H142.022C142.433 42.418 142.783 42.1186 142.847 41.7123L144.247 32.8393C144.311 32.433 144.661 32.1336 145.072 32.1336H150.21C156.212 32.1336 161.307 27.754 162.237 21.8196C163.176 15.835 158.501 10.6163 151.874 10.6033H141.197ZM146.69 17.3485H150.8C154.184 17.3485 155.286 19.3452 154.938 21.5533C154.589 23.7661 152.878 25.396 149.604 25.396H145.421L146.69 17.3485ZM173.729 19.4025C172.303 19.4078 170.661 19.7001 168.818 20.4678C164.59 22.23 162.56 25.872 161.698 28.5271C161.698 28.5271 158.954 36.6277 165.155 41.078C165.155 41.078 170.904 45.3625 177.377 40.8141L177.266 41.5245C177.248 41.6349 177.255 41.7477 177.286 41.8552C177.316 41.9627 177.369 42.0623 177.442 42.1472C177.515 42.2321 177.605 42.3003 177.706 42.347C177.808 42.3938 177.918 42.418 178.03 42.418H183.393C183.805 42.418 184.154 42.1186 184.219 41.7123L187.483 21.0206C187.5 20.9101 187.494 20.7972 187.463 20.6895C187.433 20.5819 187.38 20.4821 187.307 20.3971C187.234 20.312 187.144 20.2438 187.043 20.1969C186.941 20.1501 186.83 20.1259 186.719 20.1259H181.355C180.943 20.1259 180.593 20.4253 180.529 20.8316L180.354 21.9454C180.354 21.9454 178.01 19.3865 173.729 19.4025ZM173.905 25.9381C174.521 25.9381 175.084 26.0231 175.59 26.1855C177.904 26.9285 179.216 29.1519 178.837 31.5619C178.368 34.5294 175.935 36.7145 172.813 36.7145C172.198 36.7145 171.635 36.63 171.129 36.4676C168.815 35.7247 167.494 33.5013 167.874 31.0912C168.342 28.1237 170.784 25.9381 173.905 25.9381Z" fill="white" fill-opacity="0.8"/>
<path d="M112.782 20.1261C112.357 20.1261 112.055 20.5412 112.185 20.9458L118.065 39.1944L112.748 47.794C112.49 48.2115 112.79 48.7507 113.281 48.7507H119.565C119.745 48.7505 119.922 48.704 120.078 48.6157C120.235 48.5273 120.366 48.4001 120.459 48.2463L136.883 21.0769C137.135 20.6593 136.834 20.1255 136.346 20.1255H130.062C129.88 20.1256 129.702 20.173 129.544 20.263C129.387 20.353 129.255 20.4825 129.163 20.6387L122.698 31.5532L119.417 20.7196C119.31 20.367 118.984 20.1255 118.616 20.1255L112.782 20.1261Z" fill="white"/>
<path d="M193.577 10.6033C193.166 10.6033 192.816 10.9027 192.752 11.309L187.986 41.5233C187.969 41.6338 187.975 41.7467 188.006 41.8544C188.036 41.962 188.089 42.0618 188.162 42.1468C188.235 42.2319 188.325 42.3001 188.426 42.347C188.528 42.3938 188.638 42.418 188.75 42.418H194.401C194.812 42.418 195.162 42.1186 195.226 41.7123L199.991 11.4968C200.008 11.3865 200.001 11.2738 199.971 11.1664C199.941 11.059 199.887 10.9594 199.815 10.8745C199.742 10.7896 199.652 10.7214 199.551 10.6746C199.45 10.6278 199.339 10.6035 199.228 10.6033H193.577Z" fill="white" fill-opacity="0.8"/>
<path d="M16.8471 10.6033C16.4831 10.6036 16.1312 10.7337 15.8545 10.9702C15.5778 11.2067 15.3945 11.5341 15.3376 11.8936L12.8296 27.8007C12.9465 27.0578 13.5867 26.5103 14.339 26.5103H21.6884C29.0851 26.5103 35.3614 21.1145 36.5083 13.8023C36.5936 13.2564 36.642 12.7053 36.653 12.1529C34.7733 11.1672 32.5652 10.6033 30.1457 10.6033H16.8471Z" fill="white" fill-opacity="0.8"/>
<path d="M36.6529 12.1536C36.6419 12.706 36.5935 13.2571 36.5082 13.803C35.3613 21.1152 29.0844 26.511 21.6883 26.511H14.3389C13.5871 26.511 12.9464 27.0579 12.8295 27.8014L10.5234 42.4187L9.07889 51.5888C9.0507 51.7659 9.06126 51.9471 9.10989 52.1198C9.15851 52.2925 9.24405 52.4525 9.36054 52.589C9.47704 52.7254 9.62174 52.8349 9.78467 52.91C9.94761 52.9851 10.1249 53.0239 10.3043 53.0238H18.2814C18.6454 53.0235 18.9974 52.8934 19.274 52.6569C19.5507 52.4204 19.734 52.093 19.7909 51.7334L21.892 38.4065C21.949 38.0468 22.1324 37.7192 22.4094 37.4827C22.6863 37.2461 23.0385 37.1162 23.4027 37.1161H28.0993C35.496 37.1161 41.7723 31.7203 42.9192 24.4081C43.7336 19.2183 41.1198 14.4957 36.6529 12.1536Z" fill="white" fill-opacity="0.6"/>
<path d="M7.78469 0C7.03292 0 6.39219 0.54685 6.27526 1.28917L0.0154064 40.9836C-0.103294 41.7372 0.479004 42.4187 1.242 42.4187H10.5249L12.8298 27.8014L15.3378 11.8943C15.3947 11.5348 15.578 11.2073 15.8547 10.9708C16.1314 10.7343 16.4833 10.6042 16.8473 10.6039H30.1459C32.566 10.6039 34.7735 11.1685 36.6532 12.1535C36.7819 5.49626 31.2886 0 23.736 0H7.78469Z" fill="white"/>
</g>
<defs>
<clipPath id="clip0_16622_12287">
<rect width="200" height="53.0227" fill="white"/>
</clipPath>
</defs>
</svg>
