<svg width="181" height="56" viewBox="0 0 181 56" fill="none" xmlns="http://www.w3.org/2000/svg">
<g clip-path="url(#clip0_16677_7359)">
<path d="M51.2814 37.1036V30.1421H55.1489C56.5854 30.1421 57.8285 29.9211 58.8506 29.4515C59.8728 28.9819 60.6739 28.3189 61.1988 27.4349C61.7236 26.5509 61.9999 25.5011 61.9999 24.2856C61.9999 23.1253 61.7236 22.0756 61.1988 21.164C60.6463 20.2523 59.8728 19.5341 58.823 19.0368C57.7733 18.5396 56.5578 18.2633 55.1213 18.2633H47.9111V37.076H51.2814V37.1036ZM55.1489 27.4625H51.2814V20.9982H55.1489C55.95 20.9982 56.613 21.164 57.1379 21.4678C57.6628 21.7717 58.0495 22.1861 58.2981 22.6833C58.5468 23.1806 58.6849 23.7331 58.6849 24.3408C58.6849 25.3077 58.4086 26.0812 57.8285 26.6337C57.2484 27.1862 56.3644 27.4625 55.1489 27.4625ZM70.3427 37.3522C71.6687 37.3522 72.8289 37.0484 73.8234 36.4406C74.8179 35.8329 75.5638 34.9765 76.0887 33.8991C76.6136 32.8217 76.8622 31.6062 76.8622 30.2526V29.9763C76.8622 28.6227 76.6136 27.4072 76.0887 26.3299C75.5638 25.2525 74.8179 24.3961 73.8234 23.7883C72.8289 23.1806 71.6687 22.8767 70.315 22.8767C68.989 22.8767 67.8288 23.1806 66.8619 23.7883C65.8674 24.3961 65.1215 25.2525 64.5967 26.3299C64.0718 27.4072 63.8232 28.6227 63.8232 29.9763V30.2526C63.8232 31.6062 64.0718 32.8217 64.5967 33.8991C65.1215 34.9765 65.8674 35.8329 66.8619 36.4406C67.8564 37.0484 69.0167 37.3522 70.3427 37.3522ZM70.3427 34.7555C69.2377 34.7555 68.4089 34.3411 67.8564 33.4847C67.3039 32.6284 67.0277 31.551 67.0277 30.225V29.9487C67.0277 29.0924 67.1382 28.3465 67.3868 27.6558C67.6354 26.9652 67.9945 26.4127 68.4918 26.026C68.989 25.6116 69.5968 25.4182 70.315 25.4182C71.0609 25.4182 71.6687 25.6116 72.1659 26.026C72.6632 26.4403 73.0223 26.9652 73.2709 27.6558C73.5195 28.3465 73.63 29.0924 73.63 29.9487V30.225C73.63 31.0814 73.5195 31.8549 73.2709 32.5179C73.0223 33.2085 72.6632 33.7334 72.1659 34.1477C71.6963 34.5621 71.0609 34.7555 70.3427 34.7555ZM82.8844 37.1036V17.2412H79.6799V37.1036H82.8844ZM87.4978 42.7391C88.7133 42.7391 89.6526 42.38 90.3156 41.6894C90.9786 40.9987 91.4758 40.17 91.8349 39.2031L97.4152 23.0977H93.9897L91.1719 32.4902L88.2713 23.0977H84.7906L89.7078 37.0207L89.2658 38.2086C89.0448 38.8992 88.7133 39.3689 88.3266 39.6451C87.9122 39.9214 87.3321 40.0595 86.5862 40.0595L85.9784 40.0319V42.4905C86.5862 42.6562 87.0834 42.7391 87.4978 42.7391ZM102.388 37.1036V26.9928C102.913 25.9983 103.769 25.4735 105.012 25.4735C105.813 25.4735 106.449 25.6669 106.863 26.0812C107.277 26.4956 107.498 27.1586 107.498 28.0979V37.1312H110.703V27.8216V27.5177C110.896 26.91 111.2 26.4127 111.67 26.0536C112.112 25.6945 112.692 25.5011 113.355 25.5011C114.184 25.5011 114.791 25.6945 115.206 26.0536C115.62 26.4404 115.813 27.1033 115.813 28.0426V37.1036H119.018V28.0702C119.018 26.2746 118.631 24.9486 117.83 24.1198C117.057 23.2911 115.924 22.8767 114.432 22.8767C113.493 22.8767 112.664 23.0701 111.946 23.4292C111.228 23.816 110.62 24.3408 110.15 25.0038C109.791 24.2856 109.294 23.7331 108.631 23.4016C107.968 23.0425 107.222 22.8767 106.338 22.8767C105.482 22.8767 104.708 23.0148 104.018 23.3187C103.355 23.6226 102.774 24.037 102.305 24.6171L102.194 23.153H99.1832V37.1312H102.388V37.1036ZM126.504 37.3522C127.278 37.3522 127.968 37.2141 128.576 36.9379C129.184 36.6616 129.709 36.2749 130.151 35.8052C130.261 36.3854 130.372 36.7997 130.51 37.1036H133.797V36.8826C133.438 36.1367 133.272 35.1146 133.272 33.8439V27.6835C133.272 26.6337 133.051 25.7497 132.582 25.0315C132.112 24.3132 131.477 23.7607 130.676 23.4016C129.847 23.0425 128.908 22.8491 127.858 22.8491C126.725 22.8491 125.703 23.0425 124.819 23.4568C123.935 23.8712 123.245 24.3961 122.775 25.0591C122.305 25.7221 122.057 26.4127 122.057 27.1586H125.261C125.261 26.7995 125.372 26.4956 125.565 26.1917C125.758 25.9155 126.035 25.6945 126.394 25.5287C126.753 25.363 127.167 25.2801 127.637 25.2801C128.438 25.2801 129.018 25.5011 129.433 25.9155C129.847 26.3299 130.04 26.91 130.04 27.6558V28.5675H128.107C126.062 28.5675 124.515 28.9542 123.383 29.7554C122.278 30.5565 121.725 31.6891 121.725 33.1809C121.725 33.982 121.919 34.7002 122.333 35.3356C122.747 35.971 123.3 36.4682 124.018 36.8274C124.764 37.1865 125.565 37.3522 126.504 37.3522ZM127.112 34.7831C126.421 34.7831 125.897 34.6174 125.51 34.2582C125.123 33.8991 124.93 33.4295 124.93 32.877C124.93 32.1311 125.206 31.5786 125.786 31.1642C126.366 30.7499 127.223 30.5565 128.328 30.5565H130.013V33.1532C129.764 33.5952 129.377 33.982 128.88 34.3135C128.383 34.645 127.775 34.7831 127.112 34.7831ZM139.709 37.1036V27.573C140.206 26.4956 141.173 25.9707 142.61 25.9707C143.024 25.9707 143.466 25.9984 143.881 26.0812L143.908 23.0425C143.798 22.9872 143.632 22.9596 143.411 22.932C143.19 22.9043 142.969 22.8767 142.803 22.8767C142.113 22.8767 141.505 23.0425 140.98 23.3463C140.455 23.6778 140.013 24.1198 139.654 24.7L139.571 23.1253H136.505V37.1036H139.709ZM149.074 37.1036V32.5731L150.483 31.1366L154.544 37.1036H158.273L152.555 28.9266L157.748 23.0977H153.881L150.069 27.4349L149.102 28.6227V17.2412H145.897V37.1036H149.074ZM165.87 37.3522C167.141 37.3522 168.246 37.1036 169.157 36.6064C170.069 36.1091 170.76 35.4737 171.285 34.7279L169.572 33.0704C168.688 34.203 167.528 34.7831 166.091 34.7831C165.373 34.7831 164.765 34.6174 164.24 34.3135C163.715 34.0096 163.301 33.5676 162.969 33.0151C162.666 32.4626 162.472 31.8272 162.417 31.109H171.533V29.7554C171.533 28.3741 171.312 27.1862 170.87 26.1365C170.428 25.0867 169.765 24.2856 168.854 23.7055C167.97 23.1253 166.837 22.8491 165.539 22.8491C164.323 22.8491 163.246 23.153 162.279 23.7331C161.312 24.3408 160.566 25.1696 160.014 26.247C159.461 27.3243 159.185 28.5951 159.185 30.0316V30.5565C159.185 31.8272 159.461 32.9875 159.986 34.0096C160.538 35.0317 161.312 35.8329 162.334 36.4406C163.329 37.0484 164.516 37.3522 165.87 37.3522ZM168.329 28.7885H162.472C162.61 27.7387 162.942 26.91 163.467 26.3299C163.992 25.7497 164.655 25.4458 165.511 25.4458C166.45 25.4458 167.168 25.7497 167.61 26.3299C168.052 26.91 168.301 27.6559 168.356 28.5675V28.7885H168.329ZM178.357 37.3522C179.13 37.3522 179.821 37.2417 180.456 37.0484V34.5621C180.069 34.645 179.71 34.7002 179.351 34.7002C178.881 34.7002 178.495 34.5897 178.274 34.3964C178.025 34.1754 177.915 33.7886 177.915 33.2085V25.5287H180.373V23.153H177.915V19.7551H174.71V23.153H172.445V25.5287H174.71V33.4295C174.71 34.8107 175.042 35.8052 175.705 36.4406C176.34 37.0484 177.224 37.3522 178.357 37.3522Z" fill="white"/>
<path d="M34.3747 49.0099L0.644531 39.3688V16.2466L34.3747 6.60547V49.0099ZM31.1149 30.5011L6.30766 37.5731L31.1149 44.6451V30.5011ZM3.90429 20.7219V34.8935L28.7116 27.8215L3.90429 20.7219ZM31.1149 10.915L6.30766 18.0146L31.1149 25.0866V10.915Z" fill="#F1F1F1"/>
</g>
<defs>
<clipPath id="clip0_16677_7359">
<rect width="180" height="54.4588" fill="white" transform="translate(0.546875 0.770508)"/>
</clipPath>
</defs>
</svg>
