<svg width="226" height="42" viewBox="0 0 226 42" fill="none" xmlns="http://www.w3.org/2000/svg">
<g clip-path="url(#clip0_16622_12329)">
<mask id="mask0_16622_12329" style="mask-type:luminance" maskUnits="userSpaceOnUse" x="0" y="0" width="226" height="42">
<path d="M226 0.904297H0V41.9043H226V0.904297Z" fill="white"/>
</mask>
<g mask="url(#mask0_16622_12329)">
<path d="M52.2567 31.1159C54.5041 31.1159 56.0586 30.7666 56.9203 30.0665C57.7819 29.3679 58.2112 28.3424 58.2112 26.9914C58.2112 25.8823 57.8826 25.0076 57.2252 24.3687C56.5679 23.7298 55.5567 23.3148 54.1947 23.1207L48.671 22.3251C44.5567 21.7459 42.5003 19.5889 42.5003 15.851C42.5003 13.7298 43.2894 12.0117 44.8676 10.6965C46.4458 9.38291 48.7657 8.72461 51.8274 8.72461C54.889 8.72461 57.4059 9.42919 59.0196 10.8398C60.6333 12.2505 61.5246 14.1135 61.6919 16.4287H58.1046C57.9122 14.9091 57.3037 13.7283 56.2748 12.8834C55.2458 12.04 53.752 11.6176 51.7903 11.6176C49.8287 11.6176 48.5318 11.9848 47.6109 12.7207C46.6901 13.4566 46.2296 14.4628 46.2296 15.7406C46.2296 16.6571 46.4931 17.4109 47.0187 18.0006C47.5443 18.5917 48.3467 18.9709 49.4216 19.1396L55.2695 20.0083C57.4458 20.3218 59.101 21.0025 60.238 22.0519C61.3736 23.1013 61.9421 24.5896 61.9421 26.5182C61.9421 31.51 58.7131 34.0059 52.2567 34.0059C48.6206 34.0059 45.9661 33.1924 44.2931 31.5638C42.6187 29.9367 41.7822 27.8692 41.7822 25.3614H45.3695C45.4894 29.1948 47.7841 31.1129 52.2567 31.1129V31.1159Z" fill="white"/>
<path d="M71.4836 12.3789H63.1973V9.37695H83.4297V12.3789H75.1789V33.4297H71.4836V12.3789Z" fill="white"/>
<path d="M100.972 33.4297L98.8548 27.7154H87.304L85.1869 33.4297H81.4561L90.3168 9.37695H95.8775L104.738 33.4297H100.972ZM97.7429 24.7135L93.0794 12.0176L88.4158 24.7135H97.7429Z" fill="white"/>
<path d="M107.607 9.37695H119.768C122.135 9.37695 123.881 9.91882 125.006 11.0041C126.13 12.0893 126.692 13.5119 126.692 15.2718C126.692 16.9124 126.238 18.22 125.329 19.1963C124.42 20.1726 123.308 20.7697 121.993 20.9861C123.475 21.2026 124.683 21.8131 125.616 22.8132C126.549 23.8149 127.015 25.1822 127.015 26.9183C127.015 28.9201 126.376 30.5054 125.096 31.6742C123.817 32.8446 121.958 33.4282 119.518 33.4282H107.609V9.37695H107.607ZM118.442 19.6128C119.949 19.6128 121.055 19.3112 121.759 18.7082C122.464 18.1051 122.818 17.1766 122.818 15.9227C122.818 14.6688 122.531 13.7955 121.956 13.2283C121.382 12.6625 120.366 12.3789 118.907 12.3789H111.301V19.6128H118.44H118.442ZM119.087 30.4278C120.474 30.4278 121.496 30.0606 122.155 29.3246C122.812 28.5887 123.141 27.6423 123.141 26.4854C123.141 23.7373 121.574 22.3624 118.442 22.3624H111.303V30.4278H119.087Z" fill="white"/>
<path d="M130.603 30.4278H135.481V12.3789H130.603V9.37695H144.054V12.3789H139.176V30.4278H144.054V33.4297H130.603V30.4278Z" fill="white"/>
<path d="M148.539 9.37695H152.234V30.4278H164.324V33.4297H148.541V9.37695H148.539Z" fill="white"/>
<path d="M166.833 30.4278H171.711V12.3789H166.833V9.37695H180.286V12.3789H175.407V30.4278H180.286V33.4297H166.833V30.4278Z" fill="white"/>
<path d="M191.082 12.3789H182.796V9.37695H203.028V12.3789H194.778V33.4297H191.082V12.3789Z" fill="white"/>
<path d="M208.351 9.37695L213.193 18.6723L215.059 22.2176C215.704 21.1324 216.35 19.9516 216.995 18.6723L221.873 9.37695H225.999L216.924 25.4733V33.4312H213.229V25.4733L204.153 9.37695H208.351Z" fill="white"/>
<path fill-rule="evenodd" clip-rule="evenodd" d="M15.8995 22.7822L31.6768 31.9496L15.8993 41.0408L0.12207 31.9273L15.8995 22.7822ZM0.960574 31.9267L15.8995 40.556L30.8383 31.948L15.8993 23.2678L0.960574 31.9267Z" fill="white"/>
<path d="M15.8991 0.904297L0.541016 9.80482V27.6015L15.8991 36.3026L31.2572 27.6233V9.82811L15.8991 0.904297Z" fill="white"/>
<path d="M15.8996 18.8364L15.8317 18.7971L0.473633 9.92571L0.610772 9.68555L15.8996 18.5177L31.1898 9.70738L31.3255 9.949L15.8996 18.8364Z" fill="#2D3353"/>
<path d="M16.037 18.6758H15.7627V36.3022H16.037V18.6758Z" fill="#2D3353"/>
</g>
</g>
<defs>
<clipPath id="clip0_16622_12329">
<rect width="226" height="42" fill="white"/>
</clipPath>
</defs>
</svg>
