<svg width="200" height="43" viewBox="0 0 200 43" fill="none" xmlns="http://www.w3.org/2000/svg">
<g clip-path="url(#clip0_16622_12326)">
<path d="M20.3055 42.7688H12.0944C12.0944 41.7313 12.0944 1.38727 12.0944 0.231201H20.3055C20.3055 1.15013 20.3055 41.6423 20.3055 42.7688ZM8.21112 21.4852H0C0 22.8784 0 41.8498 0 42.7688H8.21112C8.21112 41.5831 8.21112 22.7895 8.21112 21.4852ZM32.3702 0.231201H24.1591C24.1591 1.17977 24.1591 20.833 24.1591 21.5148H32.3702C32.3702 20.3587 32.3702 1.09085 32.3702 0.231201Z" fill="#F9FAFB"/>
<path d="M92.87 19.9586V31.4007H90.2317V19.9289C90.2317 16.4311 88.8089 14.8304 85.7557 14.8304C82.1096 14.8304 80.2124 17.5279 80.2124 20.1661V31.4007H77.5742V12.6071H80.2124V14.6525C81.5167 13.3482 83.4731 12.3404 85.9039 12.3404C90.4096 12.3404 92.87 15.0379 92.87 19.9586ZM124.054 12.3404C121.594 12.3404 119.638 13.3482 118.363 14.6525V4.30713H115.725V31.4007H118.363V20.1661C118.363 17.5279 120.26 14.8304 123.906 14.8304C126.959 14.8304 128.382 16.4607 128.382 19.9289V31.4007H131.021V19.9586C130.991 15.0379 128.531 12.3404 124.054 12.3404ZM163.183 21.8557V22.1225C163.183 27.5768 159.3 31.6972 154.142 31.6972C149.103 31.6972 145.131 27.5175 145.131 22.1818V21.915C145.131 16.4904 149.014 12.3996 154.201 12.3996C159.419 12.37 163.183 16.3718 163.183 21.8557ZM160.515 22.1225V21.8557C160.515 17.7057 157.936 14.8304 154.231 14.8304C150.526 14.8304 147.828 17.7947 147.828 21.8854V22.1522C147.828 26.2132 150.496 29.1775 154.201 29.1775C157.936 29.1775 160.515 26.2725 160.515 22.1225ZM174.477 12.3404C172.017 12.3404 170.06 13.3482 168.786 14.6525V12.6071H166.148V31.4304H168.786V20.1661C168.786 17.5279 170.683 14.8304 174.329 14.8304C177.382 14.8304 178.805 16.4607 178.805 19.9289V31.4007H181.443V19.9586C181.443 15.0379 178.983 12.3404 174.477 12.3404ZM104.49 29.1775C100.814 29.1775 98.1168 26.2132 98.1168 22.1522V21.8854C98.1168 17.7947 100.814 14.8304 104.52 14.8304C107.099 14.8304 109.114 16.2236 110.122 18.4468H112.938C111.723 14.7711 108.551 12.37 104.49 12.37C99.3322 12.37 95.4193 16.4607 95.4193 21.8854V22.1522C95.4193 27.4879 99.3618 31.6675 104.431 31.6675C108.788 31.6675 112.257 28.7032 113.205 24.4643H110.508C109.707 27.3397 107.454 29.1775 104.49 29.1775ZM143.174 12.3404C140.714 12.3404 138.757 13.3482 137.483 14.6525V12.6071H134.845V31.4304H137.483V20.1661C137.483 17.5279 139.38 14.8304 143.026 14.8304C143.737 14.8304 144.33 14.9193 144.864 15.0971V12.4886C144.33 12.37 143.767 12.3404 143.174 12.3404ZM50.5694 20.5218C46.3897 19.84 45.6486 19.0693 45.6486 17.5575C45.6486 15.9271 47.3383 14.8304 49.7987 14.8304C52.348 14.8304 53.8005 15.7493 54.2155 17.765L54.2451 17.8836H57.0019L56.9426 17.5279C56.3794 14.2079 53.8597 12.3996 49.8579 12.3996C45.8858 12.3996 42.9808 14.5932 42.9808 17.5871C42.9808 21.5297 46.3304 22.4189 50.0358 23.0414C53.5337 23.6343 54.6008 24.1382 54.6008 26.2132C54.6008 28.1104 52.8815 29.2961 50.2137 29.2961C46.5676 29.2961 45.4411 27.3693 45.1447 25.6797H42.3286C42.6547 29.4443 45.6783 31.7565 50.184 31.7565C54.3933 31.7565 57.3576 29.4443 57.3576 26.1243C57.328 22.0039 54.1265 21.1443 50.5694 20.5218ZM197.302 12.6071L191.581 28.0807L184.941 12.6071H182.214L190.158 31.3415L187.668 38.6929H190.425L200 12.6071H197.302ZM72.6534 12.6071L66.9323 28.0807L60.2923 12.6071H57.5651L65.5095 31.3415L63.0194 38.6929H65.7763L75.3509 12.6071H72.6534Z" fill="#F9FAFB"/>
</g>
<defs>
<clipPath id="clip0_16622_12326">
<rect width="200" height="43" fill="white"/>
</clipPath>
</defs>
</svg>
