<svg width="79" height="60" viewBox="0 0 79 60" fill="none" xmlns="http://www.w3.org/2000/svg">
<g clip-path="url(#clip0_16632_12386)">
<mask id="mask0_16632_12386" style="mask-type:luminance" maskUnits="userSpaceOnUse" x="0" y="0" width="87" height="60">
<path d="M87 0H0V60H87V0Z" fill="white"/>
</mask>
<g mask="url(#mask0_16632_12386)">
<path fill-rule="evenodd" clip-rule="evenodd" d="M52.1468 30.8319C52.1468 30.8319 51.0663 10 57.5497 10C64.0329 10 59.7106 22.4992 59.7106 22.4992C60.5554 22.1918 61.2078 21.9245 61.7727 21.6929C63.6462 20.925 64.5598 20.5505 68.3542 20.4159C73.7569 20.4159 79.0133 24.1484 79.1609 30.8319C78.7216 37.6684 73.7579 41.2479 66.1941 41.2479C57.5497 41.2479 53.129 38.6572 52.1468 30.8319ZM71.9347 30.8322C72.9113 34.9983 69.1368 37.0817 65.6851 37.0817C61.6353 36.8918 59.8078 34.08 60.412 30.8322C60.7446 29.045 62.3816 27.1178 64.5784 26.6658C69.0238 25.7514 71.3767 28.4514 71.9347 30.8322ZM7.29065 18.3327C7.29065 18.0906 7.29314 17.2742 7.29065 17.0335C7.261 14.1673 7.22843 12.0772 11.4585 12.0799C15.2137 12.0823 14.9131 14.8773 14.6811 17.0335C14.6297 17.5101 14.5818 17.9556 14.5818 18.3327C14.5818 19.1958 16.0129 19.3437 17.6891 19.517C20.0585 19.7619 22.9179 20.0575 22.9162 22.4956C22.9144 24.9605 20.6423 25.2057 18.4045 25.4473C16.8628 25.6136 15.3375 25.7782 14.5818 26.6655C12.7295 28.8409 13.9283 35.7015 16.665 33.9566C20.5899 31.4544 21.8993 32.2682 22.9144 32.9121C24.1605 33.702 24.1821 35.7607 22.9162 37.0785C18.84 41.3212 15.0997 41.2749 12.9284 41.2481C12.7776 41.2462 12.6344 41.2445 12.4992 41.2443C5.9685 40.4215 6.17573 30.3727 6.23993 27.2598C6.24494 27.017 6.24907 26.8163 6.24907 26.6655C6.24907 25.8026 5.17689 25.6539 3.92077 25.4796C2.14447 25.2333 0.000298084 24.9358 2.66059e-08 22.4955C-0.000272518 20.2632 2.09342 20.1253 4.03691 19.9973C5.72012 19.8865 7.29065 19.783 7.29065 18.3327ZM31.7569 21.9875C29.789 17.6884 26.829 18.7634 25.8533 19.838C24.8774 20.9126 24.5622 23.9231 25.845 27.3615C27.3111 30.67 29.1641 33.9566 33.3305 37.0815C35.4137 38.1231 33.686 40.2717 29.1641 43.3311C29.1641 43.3311 24.9977 45.348 24.9977 47.4975C24.9977 49.647 26.0393 50.6224 31.2474 49.5807C33.834 48.6988 35.9288 46.8202 37.3759 45.5226L37.4969 45.4143C43.6514 39.9007 48.1443 34.3041 49.9962 28.7487C51.0378 25.6239 51.0437 22.6885 49.9962 20.4159C49.0053 18.2663 45.8632 17.8981 43.7465 22.4992C43.529 22.9719 43.2579 23.7723 42.9354 24.7244C41.7914 28.1023 40.0004 33.3903 37.6606 32.7354C35.2543 32.0616 33.3352 26.4822 32.3286 23.5552C32.0804 22.8338 31.8879 22.2735 31.7569 21.9875Z" fill="white"/>
</g>
</g>
<defs>
<clipPath id="clip0_16632_12386">
<rect width="79" height="60" fill="white"/>
</clipPath>
</defs>
</svg>
