<svg width="2013" height="236" viewBox="0 0 2013 236" fill="none" xmlns="http://www.w3.org/2000/svg">
<path d="M78.6685 45.9842C141.318 -15.3281 242.892 -15.3281 305.542 45.9842L313.082 53.363C316.214 56.429 316.214 61.399 313.082 64.465L287.289 89.707C285.723 91.24 283.183 91.24 281.617 89.707L271.241 79.553C227.536 36.7796 156.674 36.7796 112.969 79.553L101.857 90.427C100.291 91.96 97.7515 91.96 96.1855 90.427L70.3925 65.185C67.2605 62.119 67.2605 57.149 70.3925 54.083L78.6685 45.9842ZM358.884 98.188L381.839 120.653C384.972 123.719 384.972 128.689 381.839 131.755L278.331 233.056C275.199 236.121 270.12 236.121 266.987 233.056L193.523 161.16C192.74 160.393 191.471 160.393 190.688 161.16L117.225 233.056C114.093 236.121 109.014 236.121 105.882 233.056L2.37086 131.754C-0.761641 128.688 -0.761641 123.718 2.37086 120.652L25.3265 98.187C28.4589 95.121 33.5377 95.121 36.6702 98.187L110.135 170.083C110.918 170.85 112.187 170.85 112.97 170.083L186.432 98.187C189.564 95.121 194.643 95.121 197.775 98.186L271.24 170.083C272.024 170.85 273.293 170.85 274.076 170.083L347.54 98.188C350.672 95.122 355.751 95.122 358.884 98.188Z" fill="white"/>
<path d="M522.24 200.378L549.97 89.4612C551.614 83.3512 553.024 76.7712 554.904 66.4322C556.314 76.7712 557.959 83.3512 559.134 89.4612L583.104 200.378H632.687L674.516 35.8828H636.447L613.418 136.93C611.068 146.799 609.658 154.554 608.013 166.069C606.133 155.024 604.253 146.799 602.138 137.165L579.814 35.8828H529.995L505.791 137.165C503.676 146.799 502.031 154.554 500.151 166.069C498.271 154.554 496.626 146.799 494.511 137.165L471.952 35.8828H432.238L473.832 200.378H522.24Z" fill="white"/>
<path d="M702.904 204.607C721.703 204.607 733.688 196.853 739.798 185.573C739.093 189.098 738.858 192.623 738.858 196.148V200.378H770.347V132.465C770.347 100.036 755.542 81.2363 719.354 81.2363C688.099 81.2363 667.655 98.6263 665.775 122.595H700.319C701.494 112.02 709.014 105.675 720.529 105.675C731.338 105.675 737.213 111.785 737.213 118.835C737.213 124.005 734.158 127.06 724.993 128.235L708.544 130.115C684.105 133.17 663.19 142.099 663.19 167.948C663.19 191.448 682.695 204.607 702.904 204.607ZM713.479 180.403C704.314 180.403 697.499 175.233 697.499 166.304C697.499 157.609 705.254 153.379 717.004 151.264L724.993 149.854C731.808 148.444 735.568 147.269 737.918 145.154V155.964C737.918 170.533 727.343 180.403 713.479 180.403Z" fill="white"/>
<path d="M786.717 35.8828V200.378H820.791V35.8828H786.717Z" fill="white"/>
<path d="M840.503 35.8828V200.378H874.577V35.8828H840.503Z" fill="white"/>
<path d="M948.952 204.607C981.38 204.607 1002.3 186.278 1004.65 162.309H970.34C968.69 172.883 959.76 178.758 948.952 178.758C934.382 178.758 923.808 167.009 923.573 150.794H1005.35V144.214C1005.35 106.145 984.44 81.2363 948.247 81.2363C913.468 81.2363 889.029 105.675 889.029 142.569C889.029 182.518 914.173 204.607 948.952 204.607ZM923.338 128.47C924.748 115.31 934.382 105.675 948.012 105.675C961.17 105.675 970.34 114.84 970.57 128.47H923.338Z" fill="white"/>
<path d="M1077.47 202.728C1084.99 202.728 1092.28 201.553 1095.57 200.613V174.763C1092.98 175.233 1089.93 175.468 1087.34 175.468C1074.89 175.468 1070.42 168.419 1070.42 156.904V111.785H1098.15V85.2315H1070.42V44.3428H1036.58V85.2315H1011.67V111.785H1036.58V161.604C1036.58 188.863 1050.21 202.728 1077.47 202.728Z" fill="white"/>
<path d="M1192.49 204.607C1239.02 204.607 1267.22 177.348 1270.74 138.104H1233.85C1231.03 159.489 1215.99 174.058 1193.9 174.058C1167.82 174.058 1149.49 152.909 1149.49 117.19C1149.49 82.1757 1168.52 62.2017 1194.61 62.2017C1216.93 62.2017 1229.62 75.8307 1232.2 95.8057H1270.04C1266.28 54.9167 1236.2 31.6523 1194.84 31.6523C1147.61 31.6523 1111.42 63.6117 1111.42 117.19C1111.42 172.648 1143.14 204.607 1192.49 204.607Z" fill="white"/>
<path d="M1344.61 204.607C1380.1 204.607 1405.24 182.283 1405.24 143.274C1405.24 104.97 1380.1 81.2363 1344.61 81.2363C1309.37 81.2363 1284.22 104.97 1284.22 143.274C1284.22 182.283 1309.13 204.607 1344.61 204.607ZM1344.61 178.288C1328.87 178.288 1318.76 165.364 1318.76 143.274C1318.76 120.715 1329.34 108.025 1344.61 108.025C1360.12 108.025 1370.7 120.715 1370.7 143.274C1370.7 165.364 1360.36 178.288 1344.61 178.288Z" fill="white"/>
<path d="M1452.75 200.378V132.935C1452.75 118.6 1461.67 108.025 1474.36 108.025C1486.35 108.025 1493.4 117.19 1493.4 132.465V200.378H1527.47V127.53C1527.47 99.8013 1512.9 81.2363 1486.82 81.2363C1468.72 81.2363 1457.68 89.9313 1451.81 100.271C1452.51 96.0413 1452.75 92.7513 1452.75 89.6963V85.2313H1418.67V200.378H1452.75Z" fill="white"/>
<path d="M1581.93 200.378V132.935C1581.93 118.6 1590.86 108.025 1603.55 108.025C1615.53 108.025 1622.58 117.19 1622.58 132.465V200.378H1656.66V127.53C1656.66 99.8013 1642.09 81.2363 1616 81.2363C1597.91 81.2363 1586.86 89.9313 1580.99 100.271C1581.69 96.0413 1581.93 92.7513 1581.93 89.6963V85.2313H1547.86V200.378H1581.93Z" fill="white"/>
<path d="M1729.97 204.607C1762.4 204.607 1783.31 186.278 1785.66 162.309H1751.36C1749.71 172.883 1740.78 178.758 1729.97 178.758C1715.4 178.758 1704.83 167.009 1704.59 150.794H1786.37V144.214C1786.37 106.145 1765.45 81.2363 1729.27 81.2363C1694.49 81.2363 1670.05 105.675 1670.05 142.569C1670.05 182.518 1695.19 204.607 1729.97 204.607ZM1704.36 128.47C1705.77 115.31 1715.4 105.675 1729.03 105.675C1742.19 105.675 1751.36 114.84 1751.59 128.47H1704.36Z" fill="white"/>
<path d="M1859.53 204.607C1895.25 204.607 1914.76 185.103 1918.52 154.789H1884.44C1883.27 167.479 1875.98 178.288 1860.71 178.288C1845.2 178.288 1834.63 163.954 1834.63 142.804C1834.63 119.775 1846.85 108.025 1861.41 108.025C1875.75 108.025 1882.8 118.365 1883.74 130.35H1917.81C1915.23 102.385 1896.19 81.2363 1861.18 81.2363C1827.11 81.2363 1800.08 103.795 1800.08 142.804C1800.08 181.343 1822.88 204.607 1859.53 204.607Z" fill="white"/>
<path d="M1992.22 202.728C1999.74 202.728 2007.03 201.553 2010.32 200.613V174.763C2007.73 175.233 2004.68 175.468 2002.09 175.468C1989.64 175.468 1985.17 168.419 1985.17 156.904V111.785H2012.9V85.2315H1985.17V44.3428H1951.33V85.2315H1926.42V111.785H1951.33V161.604C1951.33 188.863 1964.96 202.728 1992.22 202.728Z" fill="white"/>
</svg>
