<?xml version="1.0" encoding="utf-8"?>
<!-- Generator: Adobe Illustrator 27.6.1, SVG Export Plug-In . SVG Version: 6.00 Build 0)  -->
<svg version="1.1" id="Layer_1" xmlns="http://www.w3.org/2000/svg" xmlns:xlink="http://www.w3.org/1999/xlink" x="0px" y="0px"
	 viewBox="0 0 41 40" style="enable-background:new 0 0 41 40;" xml:space="preserve">
<style type="text/css">
	.st0{fill:#F6FAFF;}
</style>
<g>
	<path class="st0" d="M28.8,20.8c-0.7,0-1.2,0.6-1.2,1.2c0,0.7,0.5,1.2,1.2,1.2c0.2,0,0.3,0,0.5-0.1c0.1-0.1,0.3-0.1,0.4-0.3
		c0.1-0.1,0.2-0.2,0.3-0.4c0-0.1,0-0.2,0-0.4C30,21.4,29.5,20.8,28.8,20.8z"/>
	<path class="st0" d="M0,0v40h41V0H0z M8.5,24.3l2.8-4.8l2.7,4.8H8.5z M17,13.6l-0.9,0.9l-1.6-1.6l-1.6,1.6L12,13.6l1.6-1.6L12,10.4
		l1-0.9l1.6,1.6l1.6-1.6l0.9,0.9L15.5,12L17,13.6z M19.8,31h-1.3v-4.5h1.3V31z M21.7,31h-1.3v-4.5h1.3V31z M24.4,14.2l1.3-1.3
		L24,11.2l0.9-0.9L26.2,9l0.9,0.9l-1.3,1.3l1.7,1.7l-2.2,2.2L24.4,14.2z M28.8,24.5c-1.4,0-2.5-1.1-2.5-2.5s1.1-2.5,2.5-2.5
		c0.3,0,0.6,0.1,1,0.2c0.3,0.1,0.6,0.3,0.8,0.5c0.2,0.2,0.4,0.5,0.5,0.8c0.1,0.3,0.2,0.6,0.2,1C31.3,23.4,30.2,24.5,28.8,24.5z"/>
	<polygon class="st0" points="10.7,23.1 11.9,23.1 11.3,22 	"/>
</g>
</svg>
