<svg width="1346" height="240" viewBox="0 0 1346 240" fill="none" xmlns="http://www.w3.org/2000/svg">
<g opacity="0.3">
<g filter="url(#filter0_d)">
<path d="M241.632 217.622L165.407 230.343L37 247L167.002 245.999L881.688 244.499L1095 244.999L933.854 178.317L861.365 139.657L812.436 87.707L774.983 63.5442L735.719 126.972L684.373 147.51L642.088 217.622L608.26 161.976L549.125 126.972L477.048 189.245L413.787 184.842L331.858 212.73L269.115 223.493L241.632 217.622Z" fill="url(#paint0_radial)"/>
</g>
<path opacity="0.4" fill-rule="evenodd" clip-rule="evenodd" d="M165.556 230.628L165.565 230.626L165.573 230.625L240.018 218.201L235.734 228.534L134.674 235.223L165.556 230.628ZM119.89 236.217C119.596 236.207 119.421 236.201 119.371 236.201V236.49L117.206 236.812L55.7048 244.674L37.5039 247L55.8046 245.669L127.004 240.49H196.354C232.912 242.073 274.752 243.894 303.352 245.141V245.988H502.16L502.169 245.861L502.247 245.873H1000.59H1047.12L1000.6 244.873L796.718 240.49H908.004H1063.22H1065.54L1064.1 239.799L1069.09 240.627L1069.25 239.641L1060.84 238.244L933.855 177.613L861.367 138.952L812.437 87.0024L775.825 63.3818L774.985 62.8396L774.458 63.69L735.72 126.267L685.126 146.505L684.576 146.617L684.237 146.687L684.183 147.029L684.163 147.157L642.672 215.951L642.195 216.742L642.054 216.86L641.503 215.953L608.262 161.272L549.127 126.267L548.494 126.814L548.272 126.766L548.209 127.06L477.463 188.184L477.064 188.023L476.86 188.527L413.788 184.137L413.461 184.249L412.65 184.071L412.543 184.559H412.042V184.732L331.934 212L331.076 211.854L331.022 212.169L269.116 222.789L241.634 216.918L240.573 217.095L240.387 217.018L240.339 217.134L165.409 229.639L122.437 236.033L119.889 236.202L119.89 236.217ZM933.424 178.515L1057.28 237.654L907.776 212.828V212.429L908.284 212.106L907.776 212.002V211.107L932.616 178.085L933.385 178.495L933.404 178.506L933.424 178.515ZM931.723 177.609L907.776 164.837V209.443L931.723 177.609ZM1060.54 239.208L906.015 213.549L869.248 236.92L869.342 237.045L869.067 237.035L868.28 237.536L867.938 236.997L752.315 233.083L752.348 232.11L751.765 232.648L751.343 232.191L751.124 232.281L751.252 232.092L751.087 231.914L751.847 231.212L752.137 230.783L794.013 168.854L890.446 173.867L892.558 173.977L892.018 173.693L768.865 141.818L793.471 167.907L792.743 168.593L767.674 142.014L768.093 141.618L767.309 141.415L767.156 141.475L751.012 231.161L750.028 230.984L766.202 141.129L765.803 141.026L704.85 161.151L704.647 161.324L704.541 161.253L702.954 161.778L702.64 160.828L703.485 160.549L685.006 148.229L679.044 185.987L703.435 162.15L704.165 161.437L704.717 162.295L748.63 230.583L748.898 230.999L750.283 231.181L750.153 232.173L749.606 232.101L749.916 232.583L749.039 232.026L642.575 218.049L642.093 218.848L641.585 218.013L641.457 218.158L641.116 217.858L641.153 218.252L445.155 236.803L447.32 237.114H450.417H639.673L662.932 237.614L750.201 239.49H908.004H1061.13L1060.54 239.208ZM905.508 212.686L905.529 212.559L840.907 199.229L868.645 236.118L905.508 212.686ZM466.312 239.49L457.106 238.114H639.663H639.673L703.681 239.49H466.312ZM473.001 240.49H750.197L954.073 244.873H502.322L473.001 240.49ZM685.605 147.427L704.574 160.074L730.229 138.281L685.605 147.427ZM733.005 136.356L732.73 136.339L732.53 136.327L732.376 136.457L731.813 136.935L690.649 145.373L735.517 127.425L733.005 136.356ZM732.265 137.863L733.405 137.63L733.703 137.569L733.75 137.403L763.955 139.241L765.787 139.978L765.768 139.984L765.747 139.978L765.744 139.992L706.878 159.429L732.265 137.863ZM752.377 232.084L752.999 231.509L890.618 174.877L892.667 174.034L892.848 174.129L892.95 173.934L893.861 174.17L894.08 174.227L894.266 174.101L906.776 165.664V210.125L895.066 174.436L894.116 174.748L906.235 211.684L839.998 198.02L839.416 197.246L838.617 197.847L867.286 235.974L752.377 232.084ZM818.417 171.124L755.113 229.558L888.285 174.756L818.417 171.124ZM755.059 228.248L817.021 171.051L794.525 169.882L755.059 228.248ZM906.776 164.625V164.634L906.695 164.513L893.894 173.146L892.38 172.754L814.511 131.88L817.445 122.489L816.491 122.191L813.559 131.571L772.131 139.527L816.998 121.959L820.658 124.399L889.71 170.433L893.683 173.082L890.352 169.66L861.79 140.312L907.378 164.625H906.776ZM888.136 171.655L814.017 132.75L814.162 132.473L814.042 132.496L769.724 141.008L888.136 171.655ZM821.125 123.508L817.112 121.914L817.148 121.9L817.514 121.757L817.461 121.367L813.111 89.1767L859.988 138.947L821.125 123.508ZM811.975 87.9706L811.793 87.7766L810.739 87.0968L811.01 87.3218L767.819 139.272L767.657 139.467L767.404 139.451L767.383 139.45L767.326 139.918L767.274 140.355L816.418 121.112L811.94 87.9754L811.975 87.9706ZM678.899 187.526L747.034 230.755L643.287 217.134L678.654 187.662L678.798 187.541L678.81 187.469L678.899 187.526ZM810.19 86.7429L776.363 64.9185L767.555 138.025L810.19 86.7429ZM766.503 138.395L775.395 64.5917L775.962 64.6601L775.299 64.2322L736.571 126.793L736.397 127.073L736.381 127.08L764.177 138.253L766.503 138.395ZM761.017 138.061L736.353 128.147L734.027 136.418L761.017 138.061ZM644.543 214.786L683.748 149.78L677.869 187.014L644.543 214.786ZM640.495 217.309L638.233 217.523L632.38 217.129L531.378 210.323L607.762 187.857V188.184V188.409L607.931 188.559L640.495 217.309ZM631.496 218.161L441.615 236.133L441.64 235.954L413.042 225.972V185.448L413.52 185.285L528.48 210.442L423.552 224.577L413.449 225.938L423.636 225.575L631.496 218.161ZM440.859 236.964L440.854 237.196L456.838 239.49H398.685L440.859 236.964ZM463.806 240.49L495.155 244.988H306.859L381.985 240.49H463.806ZM303.922 244.988L303.901 244.648L303.886 244.988H303.922ZM129.085 236.595L236.109 229.511L236.419 229.491L236.457 229.4L280.779 239.49H224.004H196.376C167.741 238.249 142.344 237.155 129.085 236.595ZM285.285 239.49L236.846 228.463L241.031 218.369L291.764 239.49H285.285ZM224.004 240.49H285.172L300.701 244.025C278.258 243.046 248.421 241.747 219.44 240.49H224.004ZM289.678 240.49L299.583 242.744L294.166 240.49H289.678ZM365.255 240.49L309.127 243.851L328.588 240.49H365.255ZM412.203 226.738L412.219 226.692L410.336 226.372L407.451 226.87L334.378 239.49H381.955L438.956 236.076L412.203 226.738ZM173.236 239.49H127.004H126.968L126.931 239.492L74.0056 243.342L117.333 237.804L117.343 237.802L117.353 237.801L120.988 237.26C126.736 237.489 147.118 238.362 173.236 239.49ZM294.366 239.49L243.626 218.366L268.907 223.767L269.096 223.807L269.285 223.774L331.971 213.021L407.385 225.869L407.372 225.869L272.266 224.151L270.284 224.126L271.982 225.148L295.815 239.49H294.366ZM299.067 241.447L296.768 240.49H297.477L299.067 241.447ZM322.712 240.49L304.611 243.616L299.416 240.49H322.712ZM328.502 239.49H297.755L273.964 225.173L401.978 226.8L328.502 239.49ZM412.042 225.648L334.002 212.352L412.042 185.788V225.648ZM525.612 208.79L419.28 185.522L476.981 189.538L477.392 189.567L477.654 189.341L525.612 208.79ZM530.482 209.686L478.504 188.606L547.861 128.683L530.482 209.686ZM640.174 215.692L608.762 164.019V187.958L640.174 215.692ZM607.762 162.374L607.737 162.335L534.275 208.429L607.762 186.815V162.374ZM606.942 161.653L531.678 208.878L549.116 127.598L549.236 127.494L606.942 161.653ZM433.739 224.214L530.068 211.237L622.654 217.476L433.739 224.214ZM746.621 229.308L703.987 163.009L679.634 186.808L746.621 229.308ZM825.119 126.171L860.193 140.105L886.379 167.011L825.119 126.171Z" fill="white"/>
</g>
<mask id="mask0" mask-type="alpha" maskUnits="userSpaceOnUse" x="880" y="88" width="28" height="100">
<rect x="880.329" y="88.4692" width="26.9198" height="98.5594" rx="13.4599" fill="#19081F"/>
</mask>
<g mask="url(#mask0)">
<rect x="871.509" y="88.3555" width="26.9198" height="98.5594" fill="url(#paint1_linear)"/>
</g>
<rect x="898.517" y="84.4292" width="1" height="4.96855" fill="#DD6EBA"/>
<rect x="893.071" y="76.2925" width="0.5" height="11.7227" fill="#DD6EBA"/>
<rect x="895.517" y="78.0254" width="1" height="8.43892" fill="#DD6EBA"/>
<rect x="891.611" y="61.1836" width="0.5" height="19.9106" fill="#DD6EBA"/>
<rect x="890.892" y="86.0811" width="3.46899" height="3.50949" fill="#DD6EBA"/>
<rect x="889.501" y="80" width="2" height="10" fill="#DD6EBA"/>
<rect x="894.501" y="86" width="7" height="3" fill="#DD6EBA"/>
<rect x="891.126" y="80.6436" width="3.23495" height="7.37171" fill="#DD6EBA"/>
<path fill-rule="evenodd" clip-rule="evenodd" d="M896.035 87.3481C888.601 87.3481 882.575 93.3744 882.575 100.808V172.448C882.575 174.642 883.1 176.714 884.032 178.544V183.328L882.137 184.838V191.115H883.704V193.1L882.137 194.026V198.677H884.032V200.765C882.065 203.25 880.892 206.39 880.892 209.805V225.145C880.892 233.198 887.42 239.726 895.473 239.726C903.526 239.726 910.054 233.198 910.054 225.145V209.805C910.054 206.12 908.687 202.754 906.432 200.187V198.677H908.032V192.843H906.465V191.115H908.032V183.242H906.432V180.997C908.346 178.672 909.495 175.694 909.495 172.448V100.808C909.495 93.3744 903.469 87.3481 896.035 87.3481Z" fill="url(#paint2_linear)"/>
<path fill-rule="evenodd" clip-rule="evenodd" d="M896.035 87.3481C888.601 87.3481 882.575 93.3744 882.575 100.808V172.448C882.575 174.642 883.1 176.714 884.032 178.544V183.328L882.137 184.838V191.115H883.704V193.1L882.137 194.026V198.677H884.032V200.765C882.065 203.25 880.892 206.39 880.892 209.805V225.145C880.892 233.198 887.42 239.726 895.473 239.726C903.526 239.726 910.054 233.198 910.054 225.145V209.805C910.054 206.12 908.687 202.754 906.432 200.187V198.677H908.032V192.843H906.465V191.115H908.032V183.242H906.432V180.997C908.346 178.672 909.495 175.694 909.495 172.448V100.808C909.495 93.3744 903.469 87.3481 896.035 87.3481Z" fill="url(#paint3_radial)"/>
<path opacity="0.1" fill-rule="evenodd" clip-rule="evenodd" d="M896.251 98.4028C895.531 99.2376 894.466 99.7661 893.277 99.7661C891.11 99.7661 889.353 98.0091 889.353 95.8417C889.353 93.6743 891.11 91.9172 893.277 91.9172C895.444 91.9172 897.201 93.6743 897.201 95.8417C897.201 96.4538 897.061 97.0331 896.811 97.5494L908.416 109.154L908.562 109.3V109.507V180.077C908.562 181.15 908.193 182.025 907.503 182.708C906.827 183.376 905.874 183.831 904.746 184.15C902.498 184.784 899.367 184.922 895.798 184.922V183.922C899.378 183.922 902.378 183.779 904.475 183.187C905.52 182.892 906.292 182.498 906.799 181.997C907.291 181.51 907.562 180.896 907.562 180.077V109.714L896.251 98.4028ZM882.814 131.23L881.638 131.685V131.962L882.814 131.541H903.516V131.23H882.814ZM882.814 151.413L881.638 151.867V152.145L882.814 151.724H903.516V151.413H882.814ZM881.638 149.572L882.814 149.118H903.516V149.428H882.814L881.638 149.85V149.572ZM882.814 146.822L881.638 147.277V147.554L882.814 147.133H903.516V146.822H882.814ZM881.638 144.981L882.814 144.527H903.516V144.837H882.814L881.638 145.259V144.981Z" fill="url(#paint4_linear)"/>
<path opacity="0.2" fill-rule="evenodd" clip-rule="evenodd" d="M895.856 111.676C896.58 112.571 897.379 113.402 898.244 114.16C897.668 116.043 897.358 118.045 897.358 120.119C897.358 122.193 897.668 124.195 898.244 126.078C897.379 126.836 896.58 127.667 895.856 128.562C895.131 127.667 894.332 126.836 893.467 126.078C894.043 124.195 894.353 122.193 894.353 120.119C894.353 118.045 894.043 116.043 893.467 114.16C894.332 113.402 895.131 112.571 895.856 111.676ZM891.815 124.776C890.9 124.129 889.929 123.558 888.911 123.07C889.194 122.137 889.346 121.146 889.346 120.119C889.346 119.092 889.194 118.101 888.911 117.168C889.929 116.68 890.9 116.109 891.815 115.462C892.165 116.957 892.35 118.516 892.35 120.119C892.35 121.722 892.165 123.281 891.815 124.776ZM899.361 120.119C899.361 121.722 899.546 123.281 899.896 124.776C900.811 124.129 901.782 123.558 902.8 123.07C902.517 122.137 902.366 121.146 902.366 120.119C902.366 119.092 902.517 118.101 902.8 117.168C901.782 116.68 900.811 116.109 899.896 115.462C899.546 116.957 899.361 118.516 899.361 120.119Z" fill="white"/>
<path fill-rule="evenodd" clip-rule="evenodd" d="M813.578 198.573V194.387L810.205 190.201H798.833V184.885H795.027V181.392C797.981 177.413 800.053 172.686 800.902 167.457C803.736 150.005 791.886 133.561 774.434 130.727C756.983 127.893 740.539 139.743 737.705 157.194C736.057 167.339 739.372 177.143 745.864 184.131H741.09L736.464 189.071V195.908H732.874V189.643L729.3 186.406V105.34L732.936 101.704V81.814L729.3 78.1782V54.9285L728.032 58.3471V72.789L721.719 80.017V97.8776L717.495 103.571V122.575L713.286 156.001V158.297C712.865 157.263 712.357 156.439 711.747 155.899L711.408 147.75H711.035L710.696 155.899C709.32 157.131 708.464 159.801 707.939 163.057L706.958 162.085H702.75L698.124 159.043H694.751V186.406L692.213 184.885V156.392L687.587 152.959H682.945L679.155 151.061H674.946V194.01H670.304V181.089L667.349 178.048V164.359L659.35 171.964L653.455 181.466V201.601L650.082 199.703V193.634H643.754L642.357 194.181L642.24 193.579H642.511V190.512H641.697V189.42H642.511V186.354H641.697V185.262H642.511V182.195H641.528C641.257 180.725 640.748 179.759 640.104 179.381L639.46 175.474L638.815 179.381C638.171 179.759 637.663 180.725 637.391 182.195H636.408V185.262H637.222V186.354H636.408V189.42H637.222V190.512H636.408V193.579H636.679L636.078 196.641L634.068 197.429V184.508H631.113V185.803C630.867 185.305 630.57 184.953 630.237 184.758L629.593 180.851L628.949 184.758C628.305 185.136 627.796 186.102 627.525 187.572H626.541V189.071H625.218V201.224H622.263V198.573H616.759C615.836 195.251 615.488 192.823 615.488 192.823H610.843V191.227L612.03 190.218V188.496H609.724V184.086C608.944 183.119 608.3 181.943 607.758 180.725H609.555V179.591H607.317L606.808 178.079H608.809V176.944H606.469C606.401 176.692 606.342 176.441 606.283 176.189L606.282 176.187C606.223 175.936 606.164 175.684 606.096 175.432H608.063V174.214H605.859C605.808 173.963 605.766 173.711 605.724 173.459L605.723 173.458C605.681 173.206 605.639 172.954 605.588 172.702H607.317V171.568H605.418L605.387 171.316L605.386 171.315C605.33 170.865 605.277 170.445 605.249 170.055H606.571V168.921H605.147C605.079 168.039 605.079 167.493 605.079 167.493V164.385H606.198V163.251H605.079V161.444H606.198V160.31H605.079V158.504H606.198V157.37H605.079V155.563H606.198V154.429H605.079V152.749C605.079 151.279 604.774 150.355 604.333 149.767V143.34H604.164L603.757 140.189L603.35 143.34H603.18V148.842C602.638 148.632 602.231 148.674 602.231 148.674V145.104C602.231 144.012 601.248 144.138 601.248 144.138V143.125L601.521 142.899L601.407 139.475H602.061V136.661H601.314L601.277 135.569H602.061V134.328C604.529 133.545 606.543 131.744 607.613 129.419H615.777V126.324L612.899 125.536H608.446C608.443 124.99 608.391 124.456 608.297 123.938H615.777V120.842L612.899 120.054H606.581C605.97 119.252 605.231 118.553 604.393 117.99V115.39H602.727V110.4H602.149V115.39H600.187V93.0742H599.609V115.39H598.769V116.435H598.633V114.869H597.926V101.116H597.348V102H594.441L593.938 86.863L585.648 97.4609L586.399 120.054H578.557V123.938H586.287C586.192 124.456 586.141 124.99 586.137 125.536H578.557V129.419H586.711L586.873 134.306L593.37 141.862L593.449 144.261C593.209 144.37 592.975 144.612 592.975 145.146V148.716C592.975 148.716 592.534 148.674 592.025 148.884V143.34H591.856L591.449 140.189L591.042 143.34H590.873V149.767C590.432 150.355 590.127 151.279 590.127 152.749V154.429H589.008V155.563H590.127V157.37H589.008V158.504H590.127V160.31H589.008V161.444H590.127V163.251H589.008V164.385H590.127V167.493C590.127 167.493 590.127 168.039 590.059 168.921H588.635V170.055H589.957C589.928 170.445 589.876 170.865 589.819 171.315L589.819 171.316L589.788 171.568H587.889V172.702H589.618C589.566 173.055 589.494 173.433 589.418 173.836C589.395 173.96 589.371 174.086 589.347 174.214H587.143V175.348H589.109C589.008 175.852 588.872 176.356 588.737 176.86L588.736 176.86H586.397V177.995H588.397L587.889 179.507H585.719V180.641H587.516C586.973 181.901 586.329 183.035 585.549 184.001V188.412H583.244V190.134L584.43 191.143V192.739H579.785C579.785 192.739 579.311 195.983 578.034 200.094H570.446V195.908H568.596V195.805H567.749V194.797H568.562V191.731H567.749V190.638H568.562V187.572H567.579C567.308 186.102 566.799 185.136 566.155 184.758L565.511 180.851L564.867 184.758C564.223 185.136 563.714 186.102 563.443 187.572H562.459V190.638H563.273V191.731H562.459V194.797H563.273V195.889H562.459V198.956H562.731L562.063 202.369H560.745V199.703H559.618L558.425 193.621H558.696V190.554H557.882V189.462H558.696V186.396H557.882V185.304H558.696V182.195H557.713C557.441 180.725 556.933 179.759 556.289 179.381L555.644 175.474L555 179.381C554.356 179.759 553.847 180.725 553.576 182.195H552.593V185.262H553.407V186.354H552.593V189.42H553.407V190.512H552.593V193.579H552.864L551.895 198.517V197.806H525.344V200.471H520.718V196.285L512.25 206.338L495.428 180.641V179.507H494.817V177.911H494.512C494.919 177.659 495.224 177.155 495.224 176.566C495.224 175.726 494.682 175.054 494.003 175.054C493.325 175.054 492.783 175.726 492.783 176.566C492.783 177.197 493.088 177.701 493.495 177.911H493.19V179.507H492.579V180.347L425.588 230.414V227.059H424.641V230.18H423.575V228.446H422.628V230.7H421.207V229.313H420.259V228.273H416.476V229.66H415.529V228.793H413.279L409.727 246.816H543.535L543.483 246.548H768.788L768.735 246.816H902.544L898.991 228.793H896.741V229.66H895.794V228.273H892.011V229.313H891.064V230.7H889.643V228.446H888.695V230.18H887.629V227.059H886.682V232.087H885.143V230.874H883.603V232.087H882.538V230.353H878.873V231.914H876.631V229.284H875.139V219.035H876.631L874.698 209.877C874.698 211.641 873.579 212.524 872.257 212.524H871.206V208.239C871.206 208.239 870.969 210.801 869.307 210.801H862.594C860.933 210.801 860.695 208.239 860.695 208.239V212.44H860.254C858.898 212.44 859.068 205.551 859.068 205.551C859.068 205.551 857.949 207.483 855.677 207.483C853.605 207.483 854.072 202.66 854.17 201.812C854.175 201.771 854.181 201.729 854.185 201.686C854.185 201.686 854.179 201.731 854.17 201.812C853.75 204.982 851.362 204.117 850.693 200.51C850.218 197.99 850.184 192.277 850.184 192.277C850.184 192.277 848.896 194.671 846.523 194.671C844.149 194.671 844.793 188.916 844.793 188.916C844.793 188.916 843.234 192.319 841.301 192.319C839.368 192.319 840.691 186.018 840.691 186.018C840.182 188.286 837.809 189.336 835.944 189.042C834.215 188.748 832.825 184.296 832.452 181.607C832.079 184.338 830.689 188.748 828.959 189.042C827.095 189.336 824.687 188.286 824.213 186.018C824.213 186.018 825.535 192.319 823.602 192.319C821.67 192.319 820.11 188.916 820.11 188.916C820.11 188.916 820.788 194.671 818.381 194.671C816.007 194.671 814.719 192.277 814.719 192.277C814.719 192.277 814.692 196.783 814.354 199.557L813.578 198.573ZM594.901 115.837L595.682 116.435H595.698V114.869H597.348V109H594.674L594.901 115.837ZM594.64 108H597.348V107H594.607L594.64 108ZM594.574 106H597.348V105H594.541L594.574 106ZM594.507 104H597.348V103H594.474L594.507 104ZM787.096 188.938C788.729 187.846 790.26 186.605 791.669 185.232V195.531H788.822V190.494L787.096 188.938ZM425.588 231.454L492.613 181.397V182.909L433.376 230.353H429.732V231.762H428.667V230.874H427.127V231.762H425.588V231.454ZM433.397 231.396L492.613 184.001V185.808L439.199 231.197V230.527H437.423V231.762H433.397V231.396ZM446.83 230.527L492.613 188.496V186.9L441.072 230.7H442.752V231.567H444.883V230.527H446.83ZM448.017 230.527L492.613 189.588V191.563L454.261 230.527H448.017ZM455.413 230.527L492.613 192.697V194.083L462.848 228.793H462.814L462.804 228.844L461.212 230.7H460.975V230.976L460.468 231.567H458.85V230.527H455.413ZM469.794 228.618L492.613 197.023V195.301L463.898 228.793H465.064V229.66H466.005V228.273H469.794V228.618ZM475.707 230.874H475.123V227.059H474.175V230.18H473.11V228.446H472.162V230.353H470.741V229.313H470.274L492.613 198.368V200.048L475.707 230.874ZM476.6 231.762V230.874H476.589L478.139 228.05V230.874H476.662V231.762H476.6ZM483.468 228.861L483.303 229.313H482.521V230.353H481.1V228.446H480.152V230.18H479.087V227.059H478.683L492.613 201.686V203.828L483.683 228.273H483.468V228.861ZM489.974 228.793H488.198V229.66H487.251V228.273H484.492L492.613 205.971V209.793L489.974 228.793ZM494.836 225.811L492.884 227.873L494.003 219.833L494.836 225.811ZM504.206 215.887L504.028 216.099L497.262 223.247L495.394 209.793V202.442L504.206 215.887ZM505.274 214.619L504.712 215.287L495.394 201.056V199.544L505.274 214.619ZM506.335 213.36L505.78 214.019L495.394 198.158V196.645L506.335 213.36ZM506.875 212.719L495.428 195.217V193.705L507.438 212.051L506.875 212.719ZM507.941 211.453L495.394 192.277V190.764L508.504 210.785L507.941 211.453ZM509.001 210.195L495.394 189.42V187.992L509.531 209.565L509.001 210.195ZM510.052 208.947L495.394 186.564V184.968L510.642 208.247L510.052 208.947ZM511.155 207.638L495.394 183.581V182.069L511.71 206.979L511.155 207.638ZM462.485 230.441L462.434 230.7H462.263L462.485 230.441ZM440.147 231.486V231.762H439.822L440.147 231.486Z" fill="url(#paint5_linear)"/>
<path d="M816.897 134.886L811.735 137.562V219.09L817.418 211.841L816.897 134.886Z" fill="url(#paint6_linear)"/>
<path d="M724.476 152.195V76.1577L721.758 79.8576V149.628C721.758 150.232 723.57 151.591 724.476 152.195Z" fill="url(#paint7_linear)"/>
<path d="M718.406 175.993V102.507L717.532 103.488V121.61C717.532 125.591 713.605 151.768 713.605 155.74C713.605 173.847 716.399 173.066 716.399 173.425C716.399 174.029 717.737 175.388 718.406 175.993Z" fill="url(#paint8_linear)"/>
<g opacity="0.1">
<mask id="mask1" mask-type="alpha" maskUnits="userSpaceOnUse" x="737" y="129" width="65" height="65">
<circle cx="769.097" cy="161.978" r="32.0125" transform="rotate(9.22378 769.097 161.978)" fill="#19081F"/>
</mask>
<g mask="url(#mask1)">
<circle cx="772.925" cy="162.302" r="31.5125" transform="rotate(9.22378 772.925 162.302)" stroke="url(#paint9_linear)"/>
<path d="M800.335 162.534C800.338 162.631 800.278 162.831 799.905 163.128C799.545 163.414 798.978 163.719 798.198 164.029C796.642 164.646 794.353 165.24 791.485 165.773C785.755 166.838 777.801 167.643 768.983 167.933C760.164 168.223 752.174 167.941 746.387 167.255C743.49 166.911 741.167 166.469 739.574 165.955C738.775 165.697 738.189 165.43 737.811 165.168C737.42 164.897 737.347 164.701 737.344 164.603C737.34 164.506 737.401 164.305 737.773 164.009C738.133 163.723 738.7 163.418 739.481 163.108C741.036 162.491 743.325 161.897 746.193 161.364C751.923 160.299 759.878 159.493 768.696 159.204C777.514 158.914 785.504 159.196 791.291 159.882C794.189 160.226 796.512 160.668 798.104 161.182C798.904 161.44 799.489 161.707 799.867 161.969C800.258 162.24 800.331 162.436 800.335 162.534Z" stroke="url(#paint10_linear)"/>
</g>
</g>
<path opacity="0.44" d="M677.669 223.399V151.062H674.95V220.832C674.95 221.436 676.762 222.795 677.669 223.399Z" fill="url(#paint11_linear)"/>
<line y1="-0.5" x2="0.647223" y2="-0.5" transform="matrix(-1 0 0 1 684.524 159.828)" stroke="#FFF5F1"/>
<line y1="-0.5" x2="0.647223" y2="-0.5" transform="matrix(-1 0 0 1 683.875 166.189)" stroke="#FFF5F1"/>
<line y1="-0.5" x2="0.647223" y2="-0.5" transform="matrix(-1 0 0 1 684.2 163.253)" stroke="#FFF5F1"/>
<line y1="-0.5" x2="1.71616" y2="-0.5" transform="matrix(-1 0 0 1 684.524 170.496)" stroke="#FFF5F1"/>
<line y1="-0.5" x2="0.754634" y2="-0.5" transform="matrix(-1 0 0 1 684.646 172.953)" stroke="#FFF5F1"/>
<line y1="-0.5" x2="0.754634" y2="-0.5" transform="matrix(-1 0 0 1 685.22 183.983)" stroke="#FFF5F1"/>
<path d="M606.085 154.508H601.781" stroke="#FFF5F1" stroke-width="0.5"/>
<path d="M602.574 136.763L600.988 136.763" stroke="#FFF5F1" stroke-width="0.5"/>
<path d="M606.085 157.344H601.781M606.085 160.289H601.781M606.085 163.158H601.781M606.689 168.746H602.385M607.444 171.54H603.14M607.897 174.258H603.593M608.728 176.825H604.424M609.634 179.393H605.33" stroke="#FFF5F1" stroke-width="0.5"/>
<path fill-rule="evenodd" clip-rule="evenodd" d="M602.264 148.663C604.845 148.663 605.058 151.745 605.058 153.947H601.762C602.794 153.57 604.063 150.893 602.264 148.663ZM609.177 183.833V187.231H606.465V183.833H609.177ZM604.651 167.797V164.923H601.938V167.797H604.651ZM604.651 159.183V160.171H601.938V159.183H604.651ZM604.651 156.477V155.49H601.938V156.477H604.651ZM604.651 161.681V162.669H601.938V161.681H604.651ZM604.651 171.491V170.503H601.938V171.491H604.651ZM605.021 173.001V173.989H602.309V173.001H605.021ZM605.708 176.486V175.499H602.995V176.486H605.708ZM606.646 178.405V179.393H603.934V178.405H606.646Z" fill="url(#paint12_linear)"/>
<path fill-rule="evenodd" clip-rule="evenodd" d="M606.404 126.562H607.57V127.721H606.404V126.562ZM609.391 126.562H608.225V127.721H609.391V126.562ZM611.211 126.562H610.044V127.721H611.211V126.562ZM605.754 126.562H604.587V127.721H605.754V126.562ZM602.766 126.562H603.933V127.721H602.766V126.562ZM602.113 126.562H600.946V127.721H602.113V126.562ZM599.127 126.562H600.294V127.721H599.127V126.562ZM598.473 126.562H597.306V127.721H598.473V126.562ZM613.027 126.562H611.861V127.721H613.027V126.562ZM614.035 126.81L613.571 126.646V127.801L614.035 127.965V126.81ZM614.274 126.859L614.738 127.023V128.179L614.274 128.015V126.859ZM615.445 127.305L614.981 127.141V128.297L615.445 128.461V127.305Z" fill="#FFF5F1"/>
<path fill-rule="evenodd" clip-rule="evenodd" d="M606.404 121.08H607.57V122.239H606.404V121.08ZM609.391 121.08H608.225V122.239H609.391V121.08ZM611.211 121.08H610.044V122.239H611.211V121.08ZM605.754 121.08H604.587V122.239H605.754V121.08ZM602.766 121.08H603.933V122.239H602.766V121.08ZM602.113 121.08H600.946V122.239H602.113V121.08ZM599.127 121.08H600.294V122.239H599.127V121.08ZM598.473 121.08H597.306V122.239H598.473V121.08ZM613.027 121.08H611.861V122.239H613.027V121.08ZM614.035 121.328L613.571 121.164V122.319L614.035 122.483V121.328ZM614.274 121.377L614.738 121.541V122.697L614.274 122.533V121.377ZM615.445 121.823L614.981 121.66V122.815L615.445 122.979V121.823Z" fill="#FFF5F1"/>
<path fill-rule="evenodd" clip-rule="evenodd" d="M974.339 148.44C978.533 163.202 970.692 178.386 956.803 182.545C956.956 182.505 957.109 182.463 957.261 182.42C958.003 182.209 958.728 181.966 959.435 181.694C958.47 182.103 957.471 182.457 956.439 182.75C956.038 182.864 955.636 182.968 955.233 183.061C953.727 183.87 952.116 184.528 950.412 185.012C950.342 185.032 950.272 185.051 950.201 185.071V185.885C951.222 186.831 951.861 188.184 951.861 189.685V217.065C951.861 218.567 951.222 219.919 950.201 220.865V222.202H947.354C947.134 222.231 946.909 222.246 946.68 222.246C946.452 222.246 946.227 222.231 946.007 222.202H945.426C945.203 222.231 944.977 222.246 944.747 222.246C944.517 222.246 944.29 222.231 944.068 222.202H939.84V218.732C939.663 218.209 939.566 217.649 939.566 217.066V189.686C939.566 189.103 939.663 188.543 939.84 188.02V185.602C929.856 183.95 921.001 176.194 917.859 165.133C917.336 163.293 916.996 161.448 916.827 159.62C916.629 159.513 916.444 159.385 916.277 159.237C915.81 160.088 914.927 160.68 913.897 160.737C913.808 160.746 913.718 160.752 913.626 160.753C912.027 160.777 910.712 159.5 910.689 157.901L910.675 156.941C910.652 155.382 911.866 154.093 913.409 154.008C913.498 153.998 913.589 153.993 913.68 153.991C914.43 153.98 915.118 154.256 915.639 154.716C915.924 154.197 916.363 153.774 916.897 153.51C918.117 143.009 924.973 133.987 935.101 131.109C935.465 131.006 935.83 130.912 936.195 130.826C937.511 130.13 938.902 129.543 940.362 129.078C940.251 129.081 940.14 129.084 940.029 129.089C940.395 128.966 940.767 128.851 941.142 128.745C955.248 124.738 970.111 133.556 974.339 148.44ZM949.225 183.007C948.892 183.101 948.558 183.189 948.224 183.269C937.534 182.306 927.881 174.508 924.628 163.059C924.045 161.007 923.699 158.948 923.573 156.912H933.083C932.838 157.35 932.632 157.794 932.47 158.241C932.423 158.37 932.381 158.497 932.342 158.624C932.147 158.998 931.98 159.375 931.842 159.755C931.712 160.116 931.611 160.469 931.54 160.814C931.512 160.886 931.484 160.959 931.458 161.031C929.588 166.196 933.927 169.883 941.149 169.268C948.372 168.652 955.743 163.966 957.613 158.801C957.744 158.441 957.844 158.088 957.915 157.743C957.944 157.67 957.971 157.598 957.997 157.525C958.047 157.389 958.092 157.254 958.132 157.119C958.169 157.05 958.204 156.981 958.238 156.912H966.046L966.049 157.085C966.058 157.731 966.278 158.324 966.642 158.8C966.701 165.093 964.648 171.048 961.002 175.644C957.918 179.072 953.914 181.675 949.225 183.007ZM958.129 155.937H958.256C958.383 153.991 957.517 152.363 955.896 151.255L952.441 153.796C952.709 154.743 952.807 155.749 952.703 156.778C952.67 157.102 952.619 157.42 952.549 157.73C952.544 157.793 952.539 157.855 952.533 157.918C952.52 158.039 952.505 158.16 952.488 158.28C952.497 158.605 952.486 158.935 952.453 159.267C952.283 160.956 951.567 162.468 950.481 163.672C951.86 162.973 953.134 162.149 954.241 161.24C955.887 159.766 957.13 158.101 957.752 156.382C957.843 156.13 957.92 155.881 957.981 155.636C958.064 156.15 958.071 156.693 957.997 157.26L958.002 157.244C958.042 157.135 958.078 157.028 958.111 156.92C958.117 156.894 958.123 156.867 958.129 156.841V155.937ZM949.767 149.678C951.837 149.67 953.614 150.049 954.999 150.733L952.156 152.966C951.645 151.703 950.821 150.576 949.767 149.678ZM966.038 155.937H958.651C960.405 150.942 956.035 147.398 948.849 148.011C948.343 148.054 947.836 148.116 947.331 148.197C946.527 147.869 945.659 147.648 944.746 147.556C940.206 147.099 936.141 149.983 935.25 154.12C934.663 154.703 934.143 155.312 933.7 155.937H923.529C923.247 145.86 928.328 136.488 936.731 131.724C949.153 129.497 961.736 137.809 965.54 151.2C965.882 152.406 966.143 153.615 966.324 154.819C966.158 155.16 966.058 155.538 966.038 155.937ZM940.682 129.921C941.873 129.613 943.068 129.404 944.261 129.288C943.913 129.242 943.563 129.203 943.211 129.171C942.877 129.251 942.543 129.339 942.21 129.433C941.692 129.581 941.183 129.743 940.682 129.921ZM945.328 183.368C943.111 182.998 940.952 182.339 938.901 181.42C940.953 182.354 943.113 183.014 945.328 183.368ZM943.06 164.963C947.507 165.41 951.49 162.598 952.385 158.555C952.403 158.434 952.419 158.313 952.431 158.191C952.29 158.684 952.102 159.156 951.874 159.604C951.915 159.386 951.947 159.165 951.969 158.941C952.123 157.412 951.826 155.937 951.18 154.635C949.888 152.392 947.455 150.754 944.534 150.46L944.479 150.455L944.45 150.452C941.349 151.319 938.419 152.85 936.15 154.735C935.774 155.458 935.515 156.247 935.398 157.086C935.334 156.554 935.327 156.01 935.382 155.459L935.388 155.406C935.354 155.437 935.321 155.468 935.288 155.499C935.268 155.631 935.251 155.764 935.238 155.898C934.782 160.423 938.284 164.482 943.06 164.963ZM934.854 157.495C934.867 157.368 934.882 157.243 934.901 157.119C934.895 156.798 934.907 156.474 934.94 156.147C934.952 156.029 934.966 155.912 934.983 155.795C933.664 157.109 932.667 158.55 932.13 160.032C931.896 160.679 931.761 161.302 931.718 161.896C931.724 161.925 931.73 161.953 931.736 161.981C931.794 161.511 931.913 161.023 932.095 160.52C932.319 159.902 932.628 159.291 933.013 158.693C932.286 161.017 932.965 162.995 934.672 164.317L936.407 162.954C935.251 161.407 934.653 159.496 934.854 157.495ZM937.035 163.7L935.533 164.88C936.887 165.628 938.68 166.057 940.797 166.075C939.322 165.589 938.034 164.759 937.035 163.7ZM957.967 157.464L957.976 157.405L957.994 157.373C957.985 157.403 957.976 157.433 957.967 157.464ZM958.276 153.924C958.091 153.152 957.718 152.454 957.179 151.848C957.709 152.456 958.081 153.154 958.276 153.924ZM952.476 158.028L952.49 157.974L952.483 158.022L952.478 158.057L952.476 158.028ZM942.066 160.981C942.086 161.012 942.107 161.042 942.128 161.071C942.188 161.197 942.255 161.315 942.328 161.427C942.392 161.523 942.459 161.611 942.53 161.691C942.545 161.716 942.56 161.74 942.576 161.764C943.533 163.21 945.283 162.804 946.486 160.859C947.689 158.914 947.889 156.165 946.933 154.719C946.869 154.623 946.802 154.535 946.732 154.455C946.716 154.43 946.701 154.406 946.685 154.382C946.663 154.349 946.641 154.317 946.618 154.285C946.56 154.162 946.495 154.045 946.423 153.937C945.49 152.527 943.759 152.962 942.556 154.908C941.353 156.853 941.134 159.572 942.066 160.981ZM946.668 154.386L946.656 154.37L946.659 154.377L946.668 154.386ZM946.629 154.346C946.495 154.214 946.351 154.109 946.2 154.03C946.25 154.092 946.299 154.158 946.345 154.228C946.669 154.717 946.858 155.358 946.918 156.066C946.971 157.316 946.621 158.76 945.905 159.918C944.784 161.731 943.182 162.168 942.28 160.934C942.359 161.142 942.455 161.334 942.569 161.506C942.662 161.648 942.764 161.77 942.873 161.874L942.848 161.862C942.705 161.739 942.572 161.587 942.451 161.406C941.511 159.985 941.708 157.282 942.89 155.37C944.009 153.562 945.608 153.107 946.574 154.265C946.588 154.285 946.602 154.306 946.616 154.327L946.629 154.346ZM945.901 153.668C945.642 153.54 945.361 153.493 945.069 153.523C945.359 153.496 945.641 153.543 945.901 153.668Z" fill="url(#paint13_linear)"/>
<g opacity="0.96">
<path fill-rule="evenodd" clip-rule="evenodd" d="M845.499 45H844.499V67.1926H842.808V67.9299L837.874 67.5437V68.8441L834.913 68.9375V56.1836H832.729V69.0064L825.452 69.236V69.5882H822.862V69.8874H825.452V69.9288H822.862V70.228H825.452V70.5787H832.729V72.4626L824.452 72.2242V75.4833H819.987L817.467 75.6546V76.3278H822.276V76.3623L822.245 76.3634V76.4084L822.276 76.4074V76.5142L822.245 76.5152V76.5602L822.276 76.5592V76.6973L822.245 76.6983V76.7433L822.276 76.7423V77.3223H816.765V152.096H809.038L805.214 155.061V166.714H812.515V234.501H874.842V166.714H879.705V152.096H871.426V77.3223H863.337V76.3278H866.542V75.4833H861.089V73.2795L858.121 73.194V56.1834H855.937V68.9576L852.498 68.6885V67.1926H845.499V64.1379H851.037V63.1379H845.499V45ZM834.913 72.5255V70.5787H837.874V71.4272L835.074 71.2839V72.5302L834.913 72.5255Z" fill="url(#paint14_linear)"/>
<path fill-rule="evenodd" clip-rule="evenodd" d="M845.499 45H844.499V67.1926H842.808V67.9299L837.874 67.5437V68.8441L834.913 68.9375V56.1836H832.729V69.0064L825.452 69.236V69.5882H822.862V69.8874H825.452V69.9288H822.862V70.228H825.452V70.5787H832.729V72.4626L824.452 72.2242V75.4833H819.987L817.467 75.6546V76.3278H822.276V76.3623L822.245 76.3634V76.4084L822.276 76.4074V76.5142L822.245 76.5152V76.5602L822.276 76.5592V76.6973L822.245 76.6983V76.7433L822.276 76.7423V77.3223H816.765V152.096H809.038L805.214 155.061V166.714H812.515V234.501H874.842V166.714H879.705V152.096H871.426V77.3223H863.337V76.3278H866.542V75.4833H861.089V73.2795L858.121 73.194V56.1834H855.937V68.9576L852.498 68.6885V67.1926H845.499V64.1379H851.037V63.1379H845.499V45ZM834.913 72.5255V70.5787H837.874V71.4272L835.074 71.2839V72.5302L834.913 72.5255Z" fill="url(#paint15_radial)"/>
<path opacity="0.1" d="M805.097 155.05L808.951 152.177V164.16L805.097 166.683V155.05Z" fill="white"/>
<rect opacity="0.8" x="816.519" y="78.0254" width="3.22364" height="74.0808" fill="url(#paint16_linear)"/>
<path opacity="0.8" d="M825.91 78.0254L827.172 81.1117V131.181L825.91 133.133V78.0254Z" fill="url(#paint17_linear)"/>
<g opacity="0.2">
<path d="M815.766 166.055L812.465 167.329V168.108L815.766 166.926H873.839V166.055H815.766Z" fill="url(#paint18_linear)"/>
<path d="M815.766 171.858L812.465 173.132V173.911L815.766 172.728H873.839V171.858H815.766Z" fill="url(#paint19_linear)"/>
<path d="M815.766 168.69L812.465 169.964V170.743L815.766 169.561H873.839V168.69H815.766Z" fill="url(#paint20_linear)"/>
<path fill-rule="evenodd" clip-rule="evenodd" d="M810.769 157.501H809.218V161.865H810.769V157.501ZM811.636 157.502H813.186V161.865H811.636V157.502ZM814.053 157.502H815.604V161.865H814.053V157.502ZM818.021 157.502H816.471V161.865H818.021V157.502ZM818.89 157.502H820.44V161.865H818.89V157.502ZM822.858 157.502H821.308V161.865H822.858V157.502ZM823.722 157.502H825.272V161.865H823.722V157.502ZM827.69 157.502H826.14V161.865H827.69V157.502ZM828.558 157.502H830.108V161.865H828.558V157.502Z" fill="url(#paint21_linear)"/>
<line x1="818.613" y1="184.573" x2="821.215" y2="184.573" stroke="white"/>
<line x1="821.215" y1="189.279" x2="823.816" y2="189.279" stroke="white"/>
<line x1="819.914" y1="187.107" x2="822.516" y2="187.107" stroke="white"/>
<line x1="818.613" y1="192.465" x2="825.511" y2="192.465" stroke="white"/>
<line x1="818.113" y1="194.284" x2="821.147" y2="194.284" stroke="white"/>
<line x1="815.816" y1="202.445" x2="818.849" y2="202.445" stroke="white"/>
</g>
</g>
<path fill-rule="evenodd" clip-rule="evenodd" d="M907.772 185.145H926.833L1000.56 201.964H990.007V207.009H997.452V246.817H874.112V207.009H906.628V197.99H913.098V190.471H903.847L907.772 185.145ZM952.007 207.009V201.964H950.739V207.009H952.007Z" fill="#B5769B"/>
<path d="M853.035 206.731L790.805 246.816H830.329L853.035 206.731Z" fill="url(#paint22_linear)"/>
<path d="M853.034 206.731L902.37 246.816H830.328L853.034 206.731Z" fill="url(#paint23_linear)"/>
<path d="M841.813 220.156L837.064 227.735L835.739 229.432H821.272L835.739 220.156H841.813Z" fill="url(#paint24_linear)"/>
<mask id="mask2" mask-type="alpha" maskUnits="userSpaceOnUse" x="927" y="203" width="108" height="29">
<rect x="927.98" y="203.633" width="106.904" height="28.1301" rx="14.065" fill="#19081F"/>
</mask>
<g mask="url(#mask2)">
<rect opacity="0.3" x="924.637" y="203.6" width="106.904" height="28.1301" fill="url(#paint25_linear)"/>
</g>
<rect x="931.886" y="203.312" width="106.904" height="28.1301" rx="14.065" fill="#B5769B"/>
<rect x="922.98" y="235.484" width="118.035" height="11.3189" rx="5.65946" fill="#B5769B"/>
<rect x="930.996" y="231.442" width="88.9555" height="4.26209" fill="#B5769B"/>
<rect x="937.676" y="231.442" width="88.9555" height="4.26209" rx="2.13104" fill="#B5769B"/>
<path d="M493.258 239.521L401.339 228.913L290.875 246.72H780.707L732.732 231.187L694.029 239.521L602.916 216.032L560.988 233.081L530.348 226.262L523.898 223.61L493.258 239.521Z" fill="url(#paint26_linear)"/>
<path d="M1199.51 234.969L1265.9 217.652L1345.69 246.719H991.893L1026.54 221.363L1054.5 234.969L1120.31 196.625L1150.59 224.455L1172.72 213.323L1177.38 208.994L1199.51 234.969Z" fill="url(#paint27_linear)"/>
<g opacity="0.2" filter="url(#filter1_d)">
<path fill-rule="evenodd" clip-rule="evenodd" d="M1119.91 196L1120.15 197.177L1127.97 235.54L1150.3 223.545L1150.64 224.183L1150.63 224.144L1151.58 223.827L1159.16 246.559L1159.47 247.518L1158.52 247.19L1127.94 236.691L1127.85 236.739L1127.26 237.057L1127.14 236.462L1087.09 247.03L1086.94 247.252L1086.64 247.213L1086.48 247.192L1086.45 247.2L1086.29 247.241L1086.14 247.183L1086 247.131L1035.37 240.592L993.39 247.211L993.235 246.223L1034.87 239.658L1026.01 221.936L1026.91 221.489L1035.82 239.316L1054.57 234.676L1054.81 235.647L1037.69 239.883L1082.05 245.612L1055.07 235.249L1055.43 234.316L1086.25 246.155L1086.41 246.175L1086.47 246.16L1119.24 196.999L1119.91 196ZM1087.93 245.775L1126.94 235.481L1119.41 198.553L1087.93 245.775ZM1129.14 236.046L1157.89 245.915L1150.73 224.449L1129.14 236.046ZM602.641 216.834L623.622 229.814L561.018 232.768L560.966 232.771L560.916 232.784L542.063 237.637L530.9 226.287L530.68 226.064L530.383 226.164L492.308 239.045L492.605 239.921L492.538 240.194L518.3 246.445L518.65 246.53L518.801 246.29L536.813 247.209L536.815 247.217L536.892 247.213L536.956 247.216L537.274 247.233L537.294 247.195L541.053 247.027H652.156L779.826 247.027L779.919 246.036L739.381 238.377L739.099 238.053L732.658 230.666L731.905 231.323L737.646 237.909L693.953 239.006L625.482 229.788L603.167 215.984L602.641 216.834ZM652.129 246.027L729.074 239.124L693.952 240.006L693.951 240.014L693.899 240.007L693.85 240.009L693.85 240.208L563.458 246.027H652.129ZM541.03 246.027L682.363 239.719L560.775 234.531L539.155 246.027H541.03ZM536.294 246.181L519.41 245.32L530.56 227.548L536.294 246.181ZM537.106 245.419L532.002 228.834L541.04 238.022L537.106 245.419ZM538.266 245.368L541.791 238.739L542.034 238.677L559.119 234.279L538.266 245.368ZM529.371 227.562L494.015 239.523L518.186 245.388L529.371 227.562ZM685.236 238.841L563.567 233.649L625.094 230.745L685.236 238.841ZM663.321 246.027H774.486L738.696 239.265L663.321 246.027ZM418.061 236.348C409.534 232.794 402.459 229.87 401.572 229.575L401.888 228.626C402.821 228.937 409.953 231.885 418.445 235.425C426.902 238.949 436.746 243.077 443.283 245.824L492.02 239.213L492.154 240.204L443.282 246.833L443.147 246.852L443.021 246.799C436.486 244.052 426.57 239.895 418.061 236.348Z" fill="url(#paint28_radial)"/>
</g>
<defs>
<filter id="filter0_d" x="0" y="0.544189" width="1132" height="257.456" filterUnits="userSpaceOnUse" color-interpolation-filters="sRGB">
<feFlood flood-opacity="0" result="BackgroundImageFix"/>
<feColorMatrix in="SourceAlpha" type="matrix" values="0 0 0 0 0 0 0 0 0 0 0 0 0 0 0 0 0 0 127 0"/>
<feOffset dy="-26"/>
<feGaussianBlur stdDeviation="18.5"/>
<feColorMatrix type="matrix" values="0 0 0 0 0.996275 0 0 0 0 0.813732 0 0 0 0 1 0 0 0 0.49 0"/>
<feBlend mode="normal" in2="BackgroundImageFix" result="effect1_dropShadow"/>
<feBlend mode="normal" in="SourceGraphic" in2="effect1_dropShadow" result="shape"/>
</filter>
<filter id="filter1_d" x="364.572" y="133" width="831.903" height="125.518" filterUnits="userSpaceOnUse" color-interpolation-filters="sRGB">
<feFlood flood-opacity="0" result="BackgroundImageFix"/>
<feColorMatrix in="SourceAlpha" type="matrix" values="0 0 0 0 0 0 0 0 0 0 0 0 0 0 0 0 0 0 127 0"/>
<feOffset dy="-26"/>
<feGaussianBlur stdDeviation="18.5"/>
<feColorMatrix type="matrix" values="0 0 0 0 0.996275 0 0 0 0 0.813732 0 0 0 0 1 0 0 0 0.49 0"/>
<feBlend mode="normal" in2="BackgroundImageFix" result="effect1_dropShadow"/>
<feBlend mode="normal" in="SourceGraphic" in2="effect1_dropShadow" result="shape"/>
</filter>
<radialGradient id="paint0_radial" cx="0" cy="0" r="1" gradientUnits="userSpaceOnUse" gradientTransform="translate(657.84 107.752) rotate(155.26) scale(598.667 3042.58)">
<stop stop-color="#BF6890"/>
<stop offset="1" stop-color="#957092"/>
</radialGradient>
<linearGradient id="paint1_linear" x1="884.969" y1="151.627" x2="906.76" y2="174.725" gradientUnits="userSpaceOnUse">
<stop stop-color="#E49FC9"/>
<stop offset="1" stop-color="#C9A6BA"/>
</linearGradient>
<linearGradient id="paint2_linear" x1="884.995" y1="191.582" x2="755.301" y2="175.583" gradientUnits="userSpaceOnUse">
<stop stop-color="#B5769B"/>
<stop offset="1" stop-color="#C9A6BA"/>
</linearGradient>
<radialGradient id="paint3_radial" cx="0" cy="0" r="1" gradientUnits="userSpaceOnUse" gradientTransform="translate(880.892 94.7431) rotate(72.7232) scale(49.097)">
<stop stop-color="#E66CC1"/>
<stop offset="1" stop-color="#AE6591" stop-opacity="0"/>
</radialGradient>
<linearGradient id="paint4_linear" x1="895.1" y1="152.831" x2="895.1" y2="184.922" gradientUnits="userSpaceOnUse">
<stop stop-color="white"/>
<stop offset="1" stop-color="white" stop-opacity="0"/>
</linearGradient>
<linearGradient id="paint5_linear" x1="656.135" y1="135.167" x2="671.688" y2="246.816" gradientUnits="userSpaceOnUse">
<stop stop-color="#F8CBE6"/>
<stop offset="1" stop-color="#B26F97"/>
</linearGradient>
<linearGradient id="paint6_linear" x1="815.24" y1="134.132" x2="815.24" y2="176.775" gradientUnits="userSpaceOnUse">
<stop stop-color="#E8AAD2"/>
<stop offset="0.65625" stop-color="#CB8FB5"/>
</linearGradient>
<linearGradient id="paint7_linear" x1="723.434" y1="75.9482" x2="723.434" y2="155.767" gradientUnits="userSpaceOnUse">
<stop stop-color="#FFA2E0"/>
<stop offset="1" stop-color="white" stop-opacity="0"/>
</linearGradient>
<linearGradient id="paint8_linear" x1="716.566" y1="102.304" x2="716.566" y2="179.445" gradientUnits="userSpaceOnUse">
<stop stop-color="#FFA2E0"/>
<stop offset="1" stop-color="white" stop-opacity="0"/>
</linearGradient>
<linearGradient id="paint9_linear" x1="767.62" y1="137.983" x2="755.926" y2="189.23" gradientUnits="userSpaceOnUse">
<stop stop-color="white"/>
<stop offset="0.590774" stop-color="white"/>
<stop offset="1" stop-color="white" stop-opacity="0"/>
</linearGradient>
<linearGradient id="paint10_linear" x1="763.415" y1="160.047" x2="763.4" y2="168.24" gradientUnits="userSpaceOnUse">
<stop stop-color="white"/>
<stop offset="0.590774" stop-color="white"/>
<stop offset="1" stop-color="white" stop-opacity="0"/>
</linearGradient>
<linearGradient id="paint11_linear" x1="676.309" y1="154.582" x2="676.309" y2="223.399" gradientUnits="userSpaceOnUse">
<stop stop-color="#FF8FF4"/>
<stop offset="1" stop-color="white" stop-opacity="0"/>
</linearGradient>
<linearGradient id="paint12_linear" x1="590.967" y1="166.118" x2="609.173" y2="183.36" gradientUnits="userSpaceOnUse">
<stop stop-color="#FEF2D5" stop-opacity="0.6"/>
<stop offset="1" stop-color="#FFF1D5"/>
</linearGradient>
<linearGradient id="paint13_linear" x1="943.072" y1="162.188" x2="957.794" y2="200.53" gradientUnits="userSpaceOnUse">
<stop stop-color="#AE6591"/>
<stop offset="1" stop-color="#C9A6BA"/>
</linearGradient>
<linearGradient id="paint14_linear" x1="869.453" y1="190.842" x2="748.828" y2="116.717" gradientUnits="userSpaceOnUse">
<stop stop-color="#AE6591"/>
<stop offset="1" stop-color="#C9A6BA"/>
</linearGradient>
<radialGradient id="paint15_radial" cx="0" cy="0" r="1" gradientUnits="userSpaceOnUse" gradientTransform="translate(790.283 55.4391) rotate(56.0409) scale(131.133)">
<stop stop-color="#FFA6E6"/>
<stop offset="1" stop-color="#B5769B"/>
</radialGradient>
<linearGradient id="paint16_linear" x1="818.506" y1="77.8213" x2="818.506" y2="155.587" gradientUnits="userSpaceOnUse">
<stop stop-color="#FFA2E0"/>
<stop offset="1" stop-color="white" stop-opacity="0"/>
</linearGradient>
<linearGradient id="paint17_linear" x1="826.688" y1="77.8736" x2="826.688" y2="135.722" gradientUnits="userSpaceOnUse">
<stop stop-color="#FFA2E0"/>
<stop offset="1" stop-color="white" stop-opacity="0"/>
</linearGradient>
<linearGradient id="paint18_linear" x1="811.438" y1="166.88" x2="858.185" y2="164.734" gradientUnits="userSpaceOnUse">
<stop stop-color="white"/>
<stop offset="1" stop-color="white" stop-opacity="0"/>
</linearGradient>
<linearGradient id="paint19_linear" x1="811.438" y1="172.682" x2="858.185" y2="170.536" gradientUnits="userSpaceOnUse">
<stop stop-color="white"/>
<stop offset="1" stop-color="white" stop-opacity="0"/>
</linearGradient>
<linearGradient id="paint20_linear" x1="811.438" y1="169.515" x2="858.185" y2="167.369" gradientUnits="userSpaceOnUse">
<stop stop-color="white"/>
<stop offset="1" stop-color="white" stop-opacity="0"/>
</linearGradient>
<linearGradient id="paint21_linear" x1="808.869" y1="159.254" x2="824.813" y2="159.137" gradientUnits="userSpaceOnUse">
<stop stop-color="white"/>
<stop offset="1" stop-color="white" stop-opacity="0"/>
</linearGradient>
<linearGradient id="paint22_linear" x1="790.805" y1="267.793" x2="810.365" y2="213.175" gradientUnits="userSpaceOnUse">
<stop stop-color="#AE6591"/>
<stop offset="1" stop-color="#C9A6BA"/>
</linearGradient>
<linearGradient id="paint23_linear" x1="870.196" y1="240.416" x2="826.624" y2="190.367" gradientUnits="userSpaceOnUse">
<stop stop-color="#B5769B"/>
<stop offset="1" stop-color="#C9A6BA"/>
</linearGradient>
<linearGradient id="paint24_linear" x1="831.543" y1="223.535" x2="832.049" y2="227.794" gradientUnits="userSpaceOnUse">
<stop stop-color="#DEA6C8"/>
<stop offset="1" stop-color="#C9A6BA"/>
</linearGradient>
<linearGradient id="paint25_linear" x1="978.088" y1="213.846" x2="978.992" y2="226.884" gradientUnits="userSpaceOnUse">
<stop stop-color="#DEA6C8"/>
<stop offset="1" stop-color="#C9A6BA"/>
</linearGradient>
<linearGradient id="paint26_linear" x1="575.584" y1="216.032" x2="575.584" y2="266.729" gradientUnits="userSpaceOnUse">
<stop stop-color="#D191AF"/>
<stop offset="1" stop-color="#C0839F"/>
</linearGradient>
<linearGradient id="paint27_linear" x1="1140.05" y1="196.625" x2="1140.05" y2="279.384" gradientUnits="userSpaceOnUse">
<stop stop-color="#D191AF"/>
<stop offset="1" stop-color="#C0839F"/>
</linearGradient>
<radialGradient id="paint28_radial" cx="0" cy="0" r="1" gradientUnits="userSpaceOnUse" gradientTransform="translate(883.113 208.496) rotate(168.723) scale(362.143 928.668)">
<stop stop-color="white"/>
<stop offset="1" stop-color="white"/>
</radialGradient>
</defs>
</svg>
