<svg width="2365" height="329" viewBox="0 0 2365 329" fill="none" xmlns="http://www.w3.org/2000/svg">
<g filter="url(#filter0_d)">
<path d="M1201.46 290.514L1100.29 307.399L942 327.974L1101.5 328.974H1575.5L2050.5 328.474H2182.5H2315L2120.28 238.343L2024.06 187.028L1959.11 118.072L1909.4 86L1857.28 170.19L1789.13 197.451L1733 290.514L1688.1 216.653L1609.61 170.19L1513.94 252.848L1429.97 247.003L1321.22 284.02L1237.94 298.307L1201.46 290.514Z" fill="url(#paint0_linear)" fill-opacity="0.34"/>
</g>
<g filter="url(#filter1_d)">
<path d="M1163.54 290.514L1264.71 307.399L1423 327.974L1263.5 328.974H789.5L314.5 328.474H182.5H50L244.724 238.343L340.941 187.028L405.887 118.072L455.599 86L507.717 170.19L575.87 197.451L631.997 290.514L676.898 216.653L755.39 170.19L851.06 252.848L935.03 247.003L1043.78 284.02L1127.06 298.307L1163.54 290.514Z" fill="url(#paint1_linear)" fill-opacity="0.34"/>
</g>
<g opacity="0.3">
<g filter="url(#filter2_d)">
<path d="M255.132 299.096L178.907 311.817L50.4995 328.474L180.501 327.473L895.187 325.973L1108.5 326.473L947.353 259.792L874.865 221.131L825.935 169.181L788.483 145.018L749.218 208.446L697.872 228.984L655.587 299.096L621.759 243.451L562.625 208.446L490.548 270.719L427.286 266.316L345.357 294.204L282.614 304.968L255.132 299.096Z" fill="url(#paint2_radial)"/>
</g>
<path opacity="0.4" fill-rule="evenodd" clip-rule="evenodd" d="M179.055 312.102L179.064 312.1L179.073 312.099L253.517 299.675L249.233 310.008L148.174 316.697L179.055 312.102ZM133.389 317.692C133.096 317.681 132.921 317.675 132.871 317.675V317.964L130.706 318.286L69.2043 326.148L51.0034 328.474L69.3042 327.143L140.503 321.964H209.853C246.411 323.547 288.251 325.368 316.851 326.615V327.462H515.659L515.668 327.335L515.747 327.347H1014.09H1060.62L1014.1 326.347L810.217 321.964H921.503H1076.72H1079.04L1077.59 321.273L1082.58 322.101L1082.75 321.115L1074.34 319.719L947.355 259.087L874.866 220.427L825.937 168.477L789.325 144.856L788.484 144.314L787.958 145.164L749.22 207.741L698.626 227.979L698.076 228.091L697.736 228.161L697.682 228.503L697.662 228.631L656.172 297.426L655.695 298.217L655.554 298.334L655.003 297.428L621.761 242.746L562.626 207.741L561.994 208.288L561.771 208.24L561.708 208.534L490.962 269.658L490.564 269.497L490.359 270.001L427.288 265.611L426.961 265.723L426.149 265.545L426.043 266.033H425.541V266.206L345.433 293.474L344.576 293.328L344.522 293.643L282.616 304.263L255.133 298.392L254.072 298.569L253.887 298.492L253.839 298.608L178.908 311.113L135.937 317.507L133.388 317.676L133.389 317.692ZM946.924 259.989L1070.78 319.128L921.276 294.302V293.903L921.784 293.581L921.276 293.476V292.581L946.115 259.559L946.884 259.969L946.904 259.98L946.924 259.989ZM945.222 259.083L921.276 246.312V290.917L945.222 259.083ZM1074.04 320.682L919.514 295.023L882.748 318.394L882.841 318.519L882.567 318.509L881.78 319.01L881.437 318.471L765.815 314.557L765.848 313.584L765.265 314.123L764.843 313.665L764.624 313.755L764.751 313.566L764.587 313.388L765.346 312.687L765.637 312.257L807.513 250.328L903.945 255.341L906.058 255.451L905.518 255.167L782.364 223.292L806.97 249.381L806.243 250.067L781.174 223.488L781.593 223.093L780.808 222.89L780.655 222.949L764.512 312.636L763.528 312.458L779.702 222.603L779.302 222.5L718.35 242.626L718.147 242.798L718.041 242.727L716.453 243.252L716.14 242.302L716.985 242.023L698.505 229.704L692.543 267.461L716.934 243.624L717.664 242.911L718.217 243.769L762.129 312.057L762.397 312.473L763.783 312.655L763.653 313.647L763.106 313.575L763.416 314.057L762.538 313.5L656.074 299.523L655.592 300.323L655.084 299.487L654.956 299.632L654.616 299.332L654.652 299.726L458.654 318.277L460.819 318.588H463.916H653.173L676.431 319.088L763.7 320.964H921.503H1074.63L1074.04 320.682ZM919.008 294.16L919.029 294.033L854.406 280.703L882.145 317.592L919.008 294.16ZM479.811 320.964L470.606 319.588H653.162H653.173L717.181 320.964H479.811ZM486.501 321.964H763.696L967.573 326.347H515.821L486.501 321.964ZM699.104 228.901L718.074 241.548L743.729 219.755L699.104 228.901ZM746.505 217.83L746.23 217.813L746.029 217.801L745.876 217.931L745.313 218.409L704.148 226.847L749.016 208.899L746.505 217.83ZM745.765 219.337L746.904 219.104L747.203 219.043L747.249 218.877L777.454 220.715L779.286 221.452L779.268 221.458L779.247 221.452L779.243 221.466L720.378 240.903L745.765 219.337ZM765.876 313.558L766.499 312.983L904.118 256.351L906.167 255.508L906.348 255.603L906.45 255.409L907.361 255.644L907.579 255.701L907.766 255.575L920.276 247.138V291.599L908.565 255.911L907.615 256.222L919.735 293.158L853.497 279.495L852.916 278.721L852.116 279.322L880.785 317.449L765.876 313.558ZM831.917 252.598L768.613 311.032L901.785 256.23L831.917 252.598ZM768.558 309.722L830.521 252.525L808.025 251.356L768.558 309.722ZM920.276 246.099V246.108L920.194 245.987L907.393 254.62L905.88 254.228L828.01 213.354L830.945 203.964L829.99 203.665L827.059 213.045L785.63 221.001L830.498 203.433L834.158 205.873L903.209 251.907L907.182 254.556L903.852 251.134L875.29 221.786L920.878 246.099H920.276ZM901.635 253.13L827.517 214.224L827.662 213.947L827.541 213.971L783.224 222.482L901.635 253.13ZM834.625 204.982L830.612 203.388L830.648 203.374L831.014 203.231L830.961 202.841L826.611 170.651L873.487 220.421L834.625 204.982ZM825.475 169.445L825.292 169.251L824.239 168.571L824.509 168.796L781.318 220.746L781.156 220.941L780.903 220.925L780.882 220.924L780.826 221.392L780.773 221.829L829.917 202.586L825.439 169.45L825.475 169.445ZM692.399 269L760.534 312.229L656.787 298.608L692.153 269.136L692.298 269.016L692.309 268.943L692.399 269ZM823.69 168.217L789.862 146.393L781.054 219.499L823.69 168.217ZM780.002 219.869L788.894 146.066L789.462 146.134L788.798 145.706L750.07 208.267L749.897 208.547L749.88 208.554L777.677 219.727L780.002 219.869ZM774.517 219.535L749.852 209.621L747.526 217.892L774.517 219.535ZM658.042 296.26L697.248 231.254L691.369 268.488L658.042 296.26ZM653.995 298.783L651.733 298.998L645.879 298.603L544.878 291.797L621.261 269.331V269.658V269.884L621.43 270.033L653.995 298.783ZM644.996 299.635L455.115 317.607L455.14 317.428L426.541 307.446V266.922L427.019 266.759L541.98 291.916L437.051 306.051L426.949 307.412L437.136 307.049L644.996 299.635ZM454.359 318.438L454.353 318.67L470.337 320.964H412.185L454.359 318.438ZM477.306 321.964L508.655 326.462H320.359L395.485 321.964H477.306ZM317.421 326.462L317.401 326.122L317.386 326.462H317.421ZM142.585 318.07L249.609 310.985L249.919 310.965L249.956 310.874L294.279 320.964H237.503H209.875C181.241 319.723 155.844 318.629 142.585 318.07ZM298.784 320.964L250.345 309.937L254.53 299.843L305.264 320.964H298.784ZM237.503 321.964H298.672L314.2 325.499C291.757 324.52 261.92 323.221 232.939 321.964H237.503ZM303.177 321.964L313.082 324.219L307.666 321.964H303.177ZM378.755 321.964L322.626 325.325L342.087 321.964H378.755ZM425.703 308.213L425.719 308.167L423.835 307.846L420.951 308.344L347.878 320.964H395.455L452.455 317.551L425.703 308.213ZM186.735 320.964H140.503H140.467L140.431 320.966L87.5051 324.816L130.832 319.278L130.843 319.277L130.853 319.275L134.488 318.734C140.235 318.963 160.618 319.836 186.735 320.964ZM307.866 320.964L257.126 299.84L282.407 305.241L282.595 305.281L282.785 305.249L345.471 294.495L420.885 307.343L420.871 307.343L285.765 305.625L283.784 305.6L285.482 306.622L309.315 320.964H307.866ZM312.567 322.921L310.268 321.964H310.976L312.567 322.921ZM336.211 321.964L318.111 325.09L312.916 321.964H336.211ZM342.002 320.964H311.254L287.463 306.647L415.478 308.274L342.002 320.964ZM425.541 307.122L347.502 293.826L425.541 267.262V307.122ZM539.112 290.265L432.78 266.996L490.48 271.012L490.891 271.041L491.153 270.815L539.112 290.265ZM543.981 291.16L492.003 270.08L561.36 210.157L543.981 291.16ZM653.673 297.166L622.261 245.494V269.432L653.673 297.166ZM621.261 243.849L621.237 243.809L547.775 289.903L621.261 268.289V243.849ZM620.442 243.127L545.177 290.352L562.616 209.072L562.736 208.968L620.442 243.127ZM447.238 305.688L543.568 292.711L636.153 298.95L447.238 305.688ZM760.121 310.783L717.486 244.483L693.134 268.282L760.121 310.783ZM838.619 207.645L873.693 221.579L899.879 248.485L838.619 207.645Z" fill="white"/>
</g>
<path d="M506.758 320.996L414.839 310.388L304.375 328.194H794.207L746.231 312.661L707.529 320.996L616.416 297.507L574.488 314.555L543.848 307.736L537.398 305.084L506.758 320.996Z" fill="url(#paint3_linear)"/>
<path d="M1213.01 316.443L1279.4 299.127L1359.19 328.194H1005.39L1040.04 302.837L1068 316.443L1133.81 278.099L1164.09 305.93L1186.22 294.798L1190.88 290.468L1213.01 316.443Z" fill="url(#paint4_linear)"/>
<g opacity="0.2" filter="url(#filter3_d)">
<path fill-rule="evenodd" clip-rule="evenodd" d="M1133.41 277.474L1133.65 278.651L1141.47 317.014L1163.8 305.019L1164.14 305.656L1164.13 305.618L1165.08 305.302L1172.65 328.033L1172.97 328.993L1172.02 328.664L1141.44 318.165L1141.35 318.213L1140.76 318.531L1140.64 317.937L1100.59 328.505L1100.44 328.727L1100.14 328.687L1099.98 328.667L1099.95 328.675L1099.79 328.716L1099.64 328.658L1099.5 328.605L1048.87 322.066L1006.89 328.685L1006.73 327.697L1048.37 321.132L1039.51 303.41L1040.41 302.963L1049.32 320.79L1068.06 316.151L1068.31 317.121L1051.19 321.358L1095.55 327.086L1068.57 316.724L1068.93 315.791L1099.75 327.629L1099.91 327.65L1099.97 327.635L1132.74 278.473L1133.41 277.474ZM1101.43 327.25L1140.44 316.955L1132.91 280.027L1101.43 327.25ZM1142.64 317.52L1171.39 327.39L1164.23 305.923L1142.64 317.52ZM616.141 298.308L637.121 311.288L574.517 314.243L574.466 314.245L574.416 314.258L555.563 319.111L544.399 307.762L544.18 307.538L543.883 307.639L505.808 320.52L506.104 321.395L506.038 321.668L531.8 327.92L532.15 328.004L532.3 327.764L550.313 328.683L550.315 328.691L550.392 328.687L550.456 328.691L550.773 328.707L550.793 328.67L554.552 328.502H665.655L793.325 328.502L793.418 327.51L752.881 319.851L752.598 319.528L746.158 312.14L745.404 312.797L751.146 319.383L707.453 320.48L638.981 311.263L616.667 297.458L616.141 298.308ZM665.628 327.502L742.574 320.599L707.452 321.48L707.45 321.489L707.398 321.482L707.349 321.483L707.349 321.682L576.958 327.502H665.628ZM554.53 327.502L695.862 321.194L574.275 316.005L552.654 327.502H554.53ZM549.793 327.656L532.909 326.794L544.06 309.023L549.793 327.656ZM550.605 326.894L545.502 310.308L554.54 319.497L550.605 326.894ZM551.765 326.842L555.291 320.214L555.533 320.151L572.619 315.753L551.765 326.842ZM542.871 309.037L507.515 320.998L531.686 326.863L542.871 309.037ZM698.736 320.316L577.067 315.123L638.594 312.22L698.736 320.316ZM676.82 327.502H787.986L752.195 320.739L676.82 327.502ZM431.56 317.822C423.033 314.268 415.958 311.344 415.072 311.049L415.388 310.1C416.32 310.411 423.452 313.359 431.945 316.899C440.401 320.424 450.246 324.551 456.782 327.299L505.519 320.687L505.654 321.678L456.782 328.308L456.646 328.326L456.521 328.273C449.986 325.527 440.07 321.369 431.56 317.822Z" fill="url(#paint5_radial)"/>
</g>
<defs>
<filter id="filter0_d" x="892.007" y="0.877308" width="1472.99" height="342.96" filterUnits="userSpaceOnUse" color-interpolation-filters="sRGB">
<feFlood flood-opacity="0" result="BackgroundImageFix"/>
<feColorMatrix in="SourceAlpha" type="matrix" values="0 0 0 0 0 0 0 0 0 0 0 0 0 0 0 0 0 0 127 0"/>
<feOffset dy="-35.13"/>
<feGaussianBlur stdDeviation="24.9963"/>
<feColorMatrix type="matrix" values="0 0 0 0 0.996275 0 0 0 0 0.813732 0 0 0 0 1 0 0 0 0.49 0"/>
<feBlend mode="normal" in2="BackgroundImageFix" result="effect1_dropShadow"/>
<feBlend mode="normal" in="SourceGraphic" in2="effect1_dropShadow" result="shape"/>
</filter>
<filter id="filter1_d" x="0.00730515" y="0.877308" width="1472.99" height="342.96" filterUnits="userSpaceOnUse" color-interpolation-filters="sRGB">
<feFlood flood-opacity="0" result="BackgroundImageFix"/>
<feColorMatrix in="SourceAlpha" type="matrix" values="0 0 0 0 0 0 0 0 0 0 0 0 0 0 0 0 0 0 127 0"/>
<feOffset dy="-35.13"/>
<feGaussianBlur stdDeviation="24.9963"/>
<feColorMatrix type="matrix" values="0 0 0 0 0.996275 0 0 0 0 0.813732 0 0 0 0 1 0 0 0 0.49 0"/>
<feBlend mode="normal" in2="BackgroundImageFix" result="effect1_dropShadow"/>
<feBlend mode="normal" in="SourceGraphic" in2="effect1_dropShadow" result="shape"/>
</filter>
<filter id="filter2_d" x="13.4995" y="82.0183" width="1132" height="257.456" filterUnits="userSpaceOnUse" color-interpolation-filters="sRGB">
<feFlood flood-opacity="0" result="BackgroundImageFix"/>
<feColorMatrix in="SourceAlpha" type="matrix" values="0 0 0 0 0 0 0 0 0 0 0 0 0 0 0 0 0 0 127 0"/>
<feOffset dy="-26"/>
<feGaussianBlur stdDeviation="18.5"/>
<feColorMatrix type="matrix" values="0 0 0 0 0.996275 0 0 0 0 0.813732 0 0 0 0 1 0 0 0 0.49 0"/>
<feBlend mode="normal" in2="BackgroundImageFix" result="effect1_dropShadow"/>
<feBlend mode="normal" in="SourceGraphic" in2="effect1_dropShadow" result="shape"/>
</filter>
<filter id="filter3_d" x="378.072" y="214.474" width="831.903" height="125.518" filterUnits="userSpaceOnUse" color-interpolation-filters="sRGB">
<feFlood flood-opacity="0" result="BackgroundImageFix"/>
<feColorMatrix in="SourceAlpha" type="matrix" values="0 0 0 0 0 0 0 0 0 0 0 0 0 0 0 0 0 0 127 0"/>
<feOffset dy="-26"/>
<feGaussianBlur stdDeviation="18.5"/>
<feColorMatrix type="matrix" values="0 0 0 0 0.996275 0 0 0 0 0.813732 0 0 0 0 1 0 0 0 0.49 0"/>
<feBlend mode="normal" in2="BackgroundImageFix" result="effect1_dropShadow"/>
<feBlend mode="normal" in="SourceGraphic" in2="effect1_dropShadow" result="shape"/>
</filter>
<linearGradient id="paint0_linear" x1="1545.44" y1="86" x2="1545.44" y2="327.916" gradientUnits="userSpaceOnUse">
<stop stop-color="#8773FF" stop-opacity="0.64"/>
<stop offset="0.462218" stop-color="#FC5C30" stop-opacity="0.72"/>
<stop offset="1" stop-color="#3512B2"/>
</linearGradient>
<linearGradient id="paint1_linear" x1="819.561" y1="86" x2="819.561" y2="327.916" gradientUnits="userSpaceOnUse">
<stop stop-color="#8773FF" stop-opacity="0.64"/>
<stop offset="0.462218" stop-color="#FC5C30" stop-opacity="0.72"/>
<stop offset="1" stop-color="#3512B2"/>
</linearGradient>
<radialGradient id="paint2_radial" cx="0" cy="0" r="1" gradientUnits="userSpaceOnUse" gradientTransform="translate(671.34 189.226) rotate(155.26) scale(598.667 3042.58)">
<stop stop-color="#BF6890"/>
<stop offset="1" stop-color="#957092"/>
</radialGradient>
<linearGradient id="paint3_linear" x1="589.084" y1="297.507" x2="589.084" y2="348.204" gradientUnits="userSpaceOnUse">
<stop stop-color="#D191AF"/>
<stop offset="1" stop-color="#C0839F"/>
</linearGradient>
<linearGradient id="paint4_linear" x1="1153.55" y1="278.099" x2="1153.55" y2="360.858" gradientUnits="userSpaceOnUse">
<stop stop-color="#D191AF"/>
<stop offset="1" stop-color="#C0839F"/>
</linearGradient>
<radialGradient id="paint5_radial" cx="0" cy="0" r="1" gradientUnits="userSpaceOnUse" gradientTransform="translate(896.612 289.97) rotate(168.723) scale(362.143 928.677)">
<stop stop-color="white"/>
<stop offset="1" stop-color="white"/>
</radialGradient>
</defs>
</svg>
