<svg width="107" height="36" viewBox="0 0 107 36" fill="none" xmlns="http://www.w3.org/2000/svg">
<path d="M19.7074 8.5C24.8842 8.5 29.0961 12.7118 29.0961 17.8887C29.0961 23.0655 24.8842 27.2772 19.7074 27.2772C17.9177 27.2772 16.479 26.7355 16.479 26.7355C17.4365 25.9442 18.4104 24.8482 18.9914 23.9164C18.9914 23.9164 19.4449 23.9628 19.7074 23.9628C23.0569 23.9628 25.7817 21.238 25.7817 17.8887C25.7817 14.5392 23.0569 11.8143 19.7074 11.8143C16.5038 11.8143 13.6332 14.3968 13.6332 17.8887H10.3189C10.3189 12.937 14.3119 8.5 19.7074 8.5Z" fill="#A2A0A6"/>
<path d="M9.44923 27.2774C14.8447 27.2774 18.8379 22.8404 18.8379 17.8887H15.5236C15.5236 21.3806 12.6528 23.9633 9.44923 23.9633C6.09973 23.9633 3.37488 21.238 3.37488 17.8887C3.37488 14.5394 6.09973 11.8144 9.44923 11.8144C9.71167 11.8144 10.1652 11.861 10.1652 11.861C10.7462 10.9292 11.7201 9.83323 12.6778 9.04188C12.6778 9.04188 11.2389 8.50025 9.44923 8.50025C4.27236 8.50025 0.0605469 12.7119 0.0605469 17.8887C0.0605469 23.0656 4.27236 27.2774 9.44923 27.2774Z" fill="#A2A0A6"/>
<path d="M44.2795 16.4826H39.4278V11.6743H44.5299C45.8847 11.6743 46.906 12.6601 46.906 13.9673C46.906 15.4718 45.8506 16.4826 44.2795 16.4826ZM44.5576 24.1033H39.4278V19.2395H44.6968C46.2178 19.2395 47.2399 20.2168 47.2399 21.6716C47.2399 23.1941 46.2371 24.1033 44.5576 24.1033ZM35.8923 27.0827H44.9749C49.5415 27.0827 50.859 24.5485 50.859 22.0331C50.859 18.5383 48.0177 17.8217 47.6048 17.7269V17.5578C47.9571 17.4371 50.3303 16.5796 50.3303 13.7446C50.3303 10.6771 48.2172 8.69488 44.9469 8.69488H35.8923V27.0827Z" fill="#A2A0A6"/>
<path d="M74.3336 18.7913H67.3107L67.3505 18.6368C67.8205 16.8152 69.5155 15.9855 70.8911 15.9855C72.5801 15.9855 73.8515 16.9764 74.2925 18.6362L74.3336 18.7913ZM70.8911 27.5C74.1353 27.5 76.5634 25.8048 77.6498 22.8493L77.6795 22.7684H74.3545L74.337 22.797C73.3583 24.3852 72.1145 24.6042 70.8743 24.6042C69.0817 24.6042 67.5967 23.2668 67.2372 21.2763L67.2109 21.131H77.8044V20.0069C77.6735 16.0317 74.7013 13.034 70.8911 13.034C67.0809 13.034 63.8388 15.9112 63.8388 20.281C63.8388 24.6508 67.0809 27.5 70.8911 27.5Z" fill="#A2A0A6"/>
<path d="M80.3162 27.0825V8.69554H83.7407V27.0825H80.3162Z" fill="#A2A0A6"/>
<path d="M86.2523 27.0825H89.6765V8.69554H86.2523V27.0825Z" fill="#A2A0A6"/>
<path d="M99.2075 15.9853C96.7936 15.9853 95.1904 17.7515 95.1904 20.2808C95.1904 22.8066 96.7936 24.5481 99.2075 24.5481C101.21 24.5481 103.281 22.9521 103.281 20.2808C103.281 17.592 101.21 15.9853 99.2075 15.9853ZM98.5678 27.4998C94.5992 27.4998 91.8773 24.0169 91.8773 20.2808C91.8773 16.5447 94.5992 13.0336 98.5543 13.0336C101.945 13.0336 103.111 14.8809 103.111 14.8809H103.281V13.4509H106.705V27.0828H103.281V25.6528H103.111C103.111 25.6528 101.959 27.4998 98.5678 27.4998Z" fill="#A2A0A6"/>
<path d="M53.2745 27.0831V13.4512H56.6988V16.3881H56.8685C57.0309 16.0312 58.193 13.2566 61.8007 13.2566H62.466V16.6533H61.7731C58.4061 16.6533 56.6988 18.6972 56.6988 22.7285V27.0831H53.2745Z" fill="#A2A0A6"/>
</svg>
