<svg width="109" height="36" viewBox="0 0 109 36" fill="none" xmlns="http://www.w3.org/2000/svg">
<path fill-rule="evenodd" clip-rule="evenodd" d="M30.3697 15.3521C30.0696 18.9474 28.5162 22.019 26.3567 24.8316C25.88 25.4436 25.3799 26.032 24.8326 26.5852C24.6973 26.7205 24.6973 26.7911 24.8326 26.9264C25.4054 27.4913 25.9729 28.0615 26.5404 28.6316C26.8241 28.9166 27.1079 29.2017 27.3923 29.4861C27.4864 29.5803 27.5394 29.6391 27.4158 29.7627C25.0209 32.1752 22.2965 34.0935 19.0602 35.2115C17.9598 35.594 16.83 35.8647 15.6591 35.9412C15.6179 35.9412 15.5884 35.9529 15.5767 36H15.2825C15.1824 35.9529 15.0883 35.9529 14.9882 36H14.2233C14.1056 35.9529 13.9879 35.9529 13.8702 36H13.5172C12.611 35.9412 11.7401 35.7234 10.9046 35.3763C9.95719 34.9761 9.10397 34.4289 8.37432 33.6992C5.99707 31.3161 3.61982 28.9389 1.23669 26.5675C0.960129 26.2968 0.783601 25.9908 0.654147 25.6319C0.283437 24.5904 0.0892563 23.5195 0.130446 22.4132H0.148099L0.146559 22.4124L0.130446 22.4132L0.128906 22.4124H0.124123L0.100586 22.4065V21.877H0.130007C0.0889782 19.8413 0.65425 17.935 1.46029 16.0935C2.36059 13.9928 3.60805 12.1157 5.10266 10.3975C5.25368 10.2243 5.40804 10.0578 5.56323 9.89037C5.61364 9.836 5.66413 9.78153 5.71462 9.72671C5.94411 9.47957 5.93823 9.43249 5.70286 9.19712C5.32333 8.81465 4.94233 8.43365 4.56133 8.05266C4.18032 7.67164 3.7993 7.29063 3.41976 6.90814C3.12554 6.61393 3.12554 6.56097 3.41387 6.26675C5.30861 4.34848 7.4446 2.75973 9.88069 1.59464C11.4165 0.859104 13.017 0.323635 14.7117 0.0823799C14.8674 0.0612715 15.0242 0.055544 15.1812 0.049812C15.3743 0.0427609 15.5676 0.0357031 15.7591 0H15.8768C15.9757 0.0865648 16.0862 0.0720603 16.1961 0.0576329C16.2431 0.0514655 16.2899 0.0453121 16.3357 0.0470742H16.8241C16.87 0.0453121 16.9168 0.0514655 16.9638 0.057633C17.0737 0.0720604 17.1842 0.0865647 17.2831 0H17.342C17.5298 0.0717052 17.7294 0.0859501 17.9295 0.100223C18.0742 0.110546 18.2192 0.120885 18.3599 0.152991C18.5291 0.197673 18.7017 0.231969 18.874 0.266206C19.0194 0.295092 19.1646 0.323936 19.3073 0.358941C20.0664 0.553122 20.7078 0.89441 21.2785 1.48284C23.2674 3.54233 25.2975 5.56064 27.3335 7.57306L27.3639 7.60324C28.095 8.32843 28.8173 9.045 29.3165 9.95619C30.2403 11.645 30.5286 13.4632 30.3697 15.3521ZM8.83918 3.30108C7.28573 4.20137 5.86762 5.29585 4.56131 6.55508C4.73527 6.72904 4.90923 6.9019 5.08282 7.07438C5.6021 7.59035 6.11806 8.10303 6.6208 8.63223C6.79145 8.80876 6.87383 8.79111 7.04447 8.63223C8.83329 6.97875 10.781 5.56652 12.9935 4.53678C15.1471 3.53057 17.3949 2.91272 19.7898 2.95391C20.3547 2.96568 20.9196 3.0304 21.561 3.1422C21.3911 2.97235 21.2282 2.81084 21.0704 2.65432C20.7688 2.35536 20.4857 2.07463 20.2076 1.78882C20.0899 1.66525 19.9546 1.58287 19.7957 1.52403C18.0598 0.870873 16.2828 0.835567 14.4763 1.15332C12.458 1.50637 10.5986 2.27721 8.83918 3.30108ZM3.10789 25.779C2.96667 23.1546 3.64336 20.7068 4.77314 18.3648C5.80289 16.2229 7.20335 14.3282 8.80387 12.5806C8.81258 12.5713 8.82135 12.5623 8.82992 12.5535C8.90241 12.4791 8.96021 12.4198 8.83918 12.304C8.15071 11.6332 7.47402 10.9506 6.79733 10.2681C6.70907 10.1798 6.65611 10.1621 6.56784 10.2681C6.48753 10.3618 6.4034 10.4517 6.3198 10.541C6.2564 10.6087 6.19331 10.6762 6.13241 10.7447C4.06703 13.069 2.45474 15.6581 1.60152 18.6708C1.04839 20.6244 0.871865 22.5956 1.39557 24.5845C1.41349 24.6512 1.43023 24.7187 1.44701 24.7865C1.52945 25.1191 1.613 25.4562 1.84277 25.7202C2.1258 26.0436 2.42549 26.3532 2.72467 26.6622C2.8609 26.8029 2.99703 26.9436 3.13143 27.0853C3.14908 27.0765 3.16527 27.0662 3.18145 27.0559C3.19763 27.0456 3.21381 27.0353 3.23146 27.0265C3.21808 26.8927 3.20284 26.7583 3.18755 26.6234C3.15577 26.3432 3.12378 26.0611 3.10789 25.779ZM26.0456 29.7757C26.1279 29.7105 26.2095 29.6459 26.0625 29.5038C25.516 28.9668 24.9734 28.4185 24.4315 27.8709C24.2965 27.7345 24.1615 27.5981 24.0265 27.4619C23.9954 27.493 23.9644 27.5191 23.935 27.5438C23.9088 27.5659 23.884 27.5868 23.8617 27.609C22.6025 28.7859 21.2256 29.8039 19.6898 30.5806C18.001 31.4338 16.2416 32.0281 14.3233 31.9693C13.0994 31.934 11.9814 31.5927 11.1282 30.6571C10.3514 29.8039 10.0925 28.7565 10.0396 27.6326C9.98072 26.3557 10.2985 25.1494 10.728 23.9725C11.5342 21.7718 12.8287 19.8771 14.4175 18.1706C14.5469 18.0353 14.541 17.9765 14.4175 17.8529C13.7879 17.235 13.1641 16.6113 12.5463 15.9817C12.4345 15.8699 12.3639 15.8464 12.2462 15.9758C10.5574 17.7764 9.15693 19.7653 8.18014 22.0366C7.21512 24.2785 6.69141 26.5969 7.10331 29.0448C7.46814 31.1749 8.52142 32.8696 10.3985 33.9817C12.2579 35.0879 14.2821 35.235 16.3652 34.9114C18.2717 34.6172 20.037 33.9228 21.714 32.9873C23.2733 32.1105 24.6914 31.0396 25.9977 29.8156C26.0125 29.8019 26.029 29.7887 26.0456 29.7757ZM20.543 17.6116C21.6963 15.7757 22.5554 13.8398 22.579 11.6156C22.579 11.5703 22.5786 11.5247 22.5782 11.4788C22.5771 11.3394 22.576 11.1967 22.5848 11.0507C22.5848 10.9212 22.526 10.8859 22.4083 10.88C21.8081 10.8506 21.2138 10.8447 20.6195 10.9389C20.4724 10.9624 20.4018 11.033 20.3665 11.1742C20.0664 12.3099 19.5721 13.3573 18.9719 14.3576C18.1952 15.6463 17.2537 16.8055 16.2181 17.8941C16.0945 18.0235 16.0651 18.0941 16.2122 18.2354C16.883 18.8885 17.542 19.5476 18.1893 20.2125C18.3246 20.3537 18.4011 20.3419 18.5247 20.2066C19.2661 19.3946 19.9546 18.5414 20.543 17.6116ZM18.2093 21.7491C18.107 21.7468 18.0026 21.8439 17.7892 22.0366C15.8827 23.7842 13.8114 25.2612 11.2694 25.9673C11.1458 26.0026 11.1046 26.0556 11.0811 26.1791C11.0105 26.6028 10.9811 27.0324 10.9869 27.4619C10.9898 27.8011 10.9912 27.9773 11.08 28.0689C11.1761 28.168 11.3744 28.168 11.7872 28.168C12.7581 28.1621 13.7879 27.968 14.7882 27.6031C16.9124 26.8323 18.7306 25.5907 20.3841 24.0785C20.5136 23.9608 20.4665 23.9078 20.3724 23.8137C19.9761 23.4253 19.5851 23.0317 19.1941 22.6381C18.9987 22.4413 18.8032 22.2445 18.6071 22.0484C18.4085 21.8498 18.31 21.7513 18.2093 21.7491ZM13.0405 21.46C12.3462 22.5427 11.7813 23.6783 11.4047 24.9258C11.4312 24.9229 11.4518 24.9229 11.4687 24.9229C11.4856 24.9229 11.4989 24.9229 11.5106 24.9199C13.8114 24.1314 15.7002 22.7133 17.442 21.0657C17.5554 20.9575 17.4972 20.9034 17.4336 20.8442C17.4246 20.8358 17.4155 20.8273 17.4067 20.8186C17.2406 20.6525 17.0741 20.4864 16.9076 20.3202C16.4074 19.8211 15.9063 19.3212 15.4119 18.8179C15.2825 18.6885 15.2177 18.6826 15.0942 18.8179C14.341 19.6476 13.6407 20.5185 13.0405 21.46ZM15.5002 17.288C16.2534 16.4819 16.9654 15.6522 17.5891 14.746C18.3246 13.6809 18.9425 12.557 19.3544 11.2919C19.3301 11.2919 19.3128 11.2909 19.2997 11.2902C19.281 11.2891 19.2706 11.2885 19.2602 11.2919C16.9301 12.0392 14.9529 13.3573 13.1759 15.0108C13.0552 15.1257 13.1085 15.1789 13.1878 15.2581L13.1935 15.2638C13.3644 15.4346 13.5352 15.6051 13.7058 15.7754C14.217 16.2855 14.7266 16.7939 15.2295 17.3057C15.3472 17.4292 15.406 17.388 15.5002 17.288ZM23.8853 25.9144C24.003 26.0262 24.0559 26.0438 24.1795 25.9144C25.9448 24.0373 27.3923 21.9484 28.3632 19.5476C29.2341 17.4233 29.6989 15.2344 29.3341 12.9278C29.0517 11.1742 28.2867 9.67963 26.9098 8.52632C25.427 7.28473 23.6734 6.83753 21.8022 6.81988C20.8078 6.83753 19.8487 6.9611 18.9072 7.20235C15.612 8.04969 12.8405 9.80909 10.375 12.104C10.2279 12.2452 10.2808 12.304 10.3926 12.4158C10.9987 13.016 11.6048 13.6162 12.1991 14.2282C12.358 14.3871 12.4462 14.3988 12.611 14.2399C13.629 13.2867 14.7235 12.4335 15.9415 11.745C17.948 10.6152 20.037 9.75025 22.4142 9.93266C23.5616 10.0209 24.5796 10.4034 25.3505 11.2802C26.1154 12.1569 26.3802 13.2279 26.3861 14.3576C26.3979 15.8405 26.0095 17.2409 25.4328 18.5943C24.6208 20.4949 23.4616 22.172 22.0494 23.6724C21.8964 23.8372 21.8905 23.9255 22.0553 24.0843C22.5705 24.5849 23.0776 25.0977 23.5833 25.6092C23.684 25.711 23.7846 25.8127 23.8853 25.9144Z" fill="#A2A0A6"/>
<path fill-rule="evenodd" clip-rule="evenodd" d="M49.1007 16.7235C48.5299 14.8288 47.2766 13.546 45.3995 12.8869C44.3462 12.5162 43.2459 12.375 42.1396 12.3632C40.9207 12.3506 39.7018 12.353 38.4829 12.3554C37.9954 12.3564 37.5078 12.3574 37.0203 12.3574C36.6202 12.3574 36.6084 12.3691 36.6084 12.7693V26.3207C36.6084 26.6856 36.6261 26.7032 36.9909 26.7032H42.375C43.0634 26.7032 43.746 26.6679 44.4168 26.5149C46.5411 26.0324 48.1298 24.885 48.9124 22.7961C49.6538 20.8072 49.7127 18.7595 49.1007 16.7235ZM45.529 21.1132C45.1877 22.5372 44.305 23.3198 42.8516 23.5316C42.3123 23.6086 41.7731 23.611 41.2315 23.6133C41.0285 23.6142 40.8252 23.6151 40.6215 23.6199C40.4213 23.6251 40.4239 23.5126 40.4266 23.3918L40.4271 23.3686L40.4273 23.3492V19.6186C40.4273 19.3051 40.4277 18.992 40.428 18.6791L40.428 18.6699V18.6688C40.4291 17.7224 40.4302 16.7771 40.4214 15.8291C40.4214 15.6408 40.4626 15.5761 40.6627 15.5819C40.9511 15.5932 41.2396 15.5889 41.528 15.5847C41.9928 15.5778 42.4575 15.5709 42.9222 15.629C44.305 15.8114 45.2818 16.6882 45.5584 18.0475C45.782 19.0713 45.7702 20.0952 45.529 21.1132Z" fill="#A2A0A6"/>
<path d="M108.236 18.1763L108.244 18.1762C108.244 17.4466 108.244 16.7228 108.25 15.9991C108.138 15.9979 108.027 15.9965 107.915 15.9951C107.468 15.9894 107.02 15.9838 106.573 15.9932C106.367 15.9932 106.314 15.9343 106.314 15.7284C106.317 15.3281 106.316 14.9288 106.315 14.5302V14.5254C106.314 13.9942 106.313 13.4634 106.32 12.9334C106.32 12.6803 106.238 12.5803 105.979 12.5862C105.114 12.5979 104.255 12.5979 103.39 12.5862C103.107 12.5862 103.007 12.6803 103.013 12.9628C103.023 13.4667 103.022 13.9688 103.021 14.4711C103.02 14.8897 103.02 15.3084 103.025 15.7284C103.025 15.9226 102.966 15.9814 102.778 15.9696C102.584 15.959 102.389 15.9612 102.195 15.9633C102.066 15.9647 101.936 15.9661 101.807 15.9638C101.595 15.9579 101.507 16.0461 101.507 16.258C101.513 16.7873 101.519 17.3174 101.507 17.8467C101.507 18.0939 101.613 18.1704 101.848 18.1645C102.01 18.1586 102.172 18.1601 102.334 18.1615C102.495 18.163 102.657 18.1645 102.819 18.1586C102.99 18.1527 103.025 18.2174 103.025 18.3763C103.019 18.9471 103.019 19.512 103.025 20.0827C103.031 20.5746 103.026 21.0672 103.021 21.5599V21.5623C103.012 22.5189 103.002 23.4763 103.072 24.4312C103.16 25.6669 103.919 26.5084 105.137 26.7084C106.108 26.8673 107.073 26.8144 108.032 26.6496C108.18 26.6261 108.191 26.5496 108.191 26.4319C108.185 25.6846 108.185 24.9432 108.191 24.1959C108.191 24.0076 108.115 23.9311 107.927 23.9369C107.859 23.9381 107.791 23.9396 107.723 23.941C107.458 23.9466 107.194 23.9522 106.926 23.9428C106.503 23.9311 106.314 23.7369 106.314 23.3191C106.311 22.5012 106.311 21.6833 106.311 20.8654C106.311 20.0474 106.311 19.2295 106.308 18.4116C106.308 18.2351 106.355 18.1821 106.538 18.1821C107.106 18.188 107.668 18.1822 108.236 18.1763Z" fill="#A2A0A6"/>
<path d="M85.3463 21.284C85.2228 21.8312 85.0933 22.3785 84.9638 22.9257C84.96 22.9244 84.9559 22.9234 84.9516 22.9225L84.9435 22.9209C84.9303 22.9184 84.9164 22.9157 84.905 22.9081C84.3931 20.7015 83.8811 18.4949 83.381 16.2824C83.3339 16.0823 83.2692 16.0176 83.0574 16.0176C82.3339 16.0264 81.6138 16.0253 80.8946 16.0242H80.8922C80.6528 16.0238 80.4134 16.0235 80.174 16.0235C79.8269 16.0235 79.7739 16.0941 79.8798 16.4295C80.2476 17.6152 80.6154 18.7994 80.9831 19.9836C81.3509 21.1678 81.7187 22.352 82.0864 23.5377C82.1523 23.7514 82.2187 23.9654 82.2852 24.1797C82.5333 24.9798 82.7829 25.7842 83.0103 26.5916C83.1927 27.2389 82.922 27.5861 82.263 27.5919C81.8511 27.5978 81.4392 27.6037 81.0273 27.5919C80.7919 27.5861 80.6919 27.6743 80.6977 27.9156C80.7095 28.604 80.7095 29.2866 80.6977 29.9751C80.6919 30.2281 80.786 30.3281 81.039 30.3223C81.5465 30.3134 82.054 30.3145 82.5615 30.3156C82.7307 30.316 82.8999 30.3164 83.0691 30.3164C83.8517 30.3164 84.5931 30.1869 85.1875 29.6161C85.6523 29.1689 85.9701 28.6393 86.176 28.0392C86.4526 27.2448 86.7115 26.4504 86.9704 25.6501C87.9707 22.5903 88.971 19.5246 89.9714 16.4589C90.1008 16.0705 90.0596 16.0235 89.6418 16.0235C89.3742 16.0235 89.107 16.0244 88.8401 16.0254C88.1743 16.0278 87.5105 16.0302 86.8468 16.0176C86.6173 16.0176 86.5291 16.0882 86.482 16.3059C86.143 17.8285 85.7942 19.3413 85.4446 20.8577L85.3463 21.284Z" fill="#A2A0A6"/>
<path d="M67.0211 15.7402C68.9335 15.7638 70.4398 16.4993 71.4931 18.0881C71.6991 18.394 71.6814 18.4411 71.3578 18.6294C71.1235 18.7633 70.8885 18.8963 70.6532 19.0294C70.2678 19.2474 69.882 19.4657 69.4984 19.6886C69.2748 19.818 69.1571 19.7768 69.0394 19.5532C68.5333 18.6118 67.6272 18.1704 66.7327 18.4117C66.1384 18.5765 65.756 18.9825 65.5206 19.5238C64.9675 20.7948 64.9439 22.0776 65.6147 23.3133C65.9913 24.0076 66.6033 24.4019 67.4212 24.3489C68.2274 24.296 68.7923 23.8488 69.11 23.1191C69.2512 22.7955 69.363 22.7837 69.6337 22.9367C70.1222 23.2036 70.6176 23.4565 71.112 23.7089C71.2607 23.7849 71.4095 23.8608 71.5579 23.937C71.7403 24.0312 71.7991 24.1371 71.6814 24.3313C70.8047 25.7376 69.6043 26.6673 67.9449 26.9851C64.8733 27.5676 62.0253 25.414 61.7547 22.313C61.6193 20.8184 61.8017 19.3944 62.5902 18.0998C63.6023 16.4346 65.1675 15.7814 67.0211 15.7402Z" fill="#A2A0A6"/>
<path d="M78.398 15.9632C77.5389 16.0926 76.7327 16.3692 75.9737 16.94C75.9737 16.7164 75.9737 16.5634 75.9795 16.4045C75.9795 16.0456 75.9619 16.0279 75.5912 16.0279C75.3852 16.0279 75.1793 16.0283 74.9733 16.0286C74.3556 16.0297 73.7375 16.0308 73.1198 16.022C72.8432 16.0161 72.7373 16.1103 72.7373 16.3927C72.7432 19.7115 72.7432 23.0361 72.7373 26.3548C72.7373 26.6196 72.8197 26.7196 73.0904 26.7138C73.7387 26.7049 74.3837 26.706 75.0303 26.7071C75.2462 26.7075 75.463 26.7079 75.6794 26.7079C76.0619 26.7079 76.0678 26.702 76.0678 26.3077V20.6647C76.0678 19.735 76.3267 19.3819 77.2505 19.1701C77.7625 19.0465 78.2862 18.97 78.8099 18.8936C78.957 18.87 78.9982 18.8229 78.9982 18.6758C78.9923 17.852 78.9923 17.0282 78.9982 16.2044C78.9982 15.9808 78.904 15.9043 78.6922 15.9338C78.6443 15.9394 78.5964 15.9437 78.5492 15.9479C78.4978 15.9525 78.4471 15.957 78.398 15.9632Z" fill="#A2A0A6"/>
<path fill-rule="evenodd" clip-rule="evenodd" d="M96.6105 15.7996C98.5465 15.829 99.9646 16.7293 100.712 18.5064C101.577 20.5717 101.483 22.6607 100.471 24.6613C99.1996 27.1562 96.2634 27.3975 94.5157 26.3442C94.4966 26.3329 94.4774 26.3219 94.458 26.3108L94.3986 26.2771C94.3338 26.2404 94.2637 26.2008 94.1803 26.15V28.2036C94.1803 28.4052 94.1797 28.6075 94.179 28.8099V28.8128C94.1777 29.2181 94.1764 29.6242 94.1803 30.0278C94.1862 30.2573 94.0921 30.3396 93.8685 30.3396C93.2681 30.3357 92.665 30.337 92.0629 30.3383C91.7621 30.339 91.4616 30.3396 91.1617 30.3396C90.8204 30.3396 90.7969 30.3161 90.7969 29.9395V16.4116C90.7969 16.0644 90.8381 16.0291 91.1911 16.0291C91.4097 16.0291 91.6282 16.03 91.8468 16.031C92.3932 16.0334 92.9396 16.0358 93.486 16.0232C93.739 16.0173 93.8096 16.1115 93.7979 16.3351C93.7941 16.4207 93.7951 16.5063 93.7963 16.6128C93.7971 16.6746 93.7979 16.7435 93.7979 16.8235C94.6393 16.0703 95.5867 15.7819 96.6105 15.7996ZM95.9927 24.4377C96.7047 24.4671 97.1872 24.1023 97.5344 23.5021C98.0286 22.643 98.1051 21.7074 98.0345 20.7424C97.9875 20.1186 97.8521 19.5184 97.4814 19.0006C97.1519 18.5358 96.7165 18.2357 96.1339 18.2298C95.2866 18.2239 94.757 18.7064 94.4098 19.4243C94.1038 20.0539 94.0332 20.7365 94.0332 21.425C94.0332 22.1075 94.0921 22.7783 94.4098 23.3962C94.7393 24.0435 95.2571 24.4142 95.9927 24.4377Z" fill="#A2A0A6"/>
<path fill-rule="evenodd" clip-rule="evenodd" d="M56.493 22.1492C56.778 22.1489 57.0633 22.1485 57.349 22.1485C57.6328 22.1485 57.9166 22.1481 58.2006 22.1478C59.0526 22.1467 59.9057 22.1456 60.7619 22.1544C61.0267 22.1544 61.1326 22.072 61.1208 21.8013C61.0855 21.1364 61.0384 20.4715 60.8796 19.8242C60.5206 18.3296 59.8145 17.0704 58.4023 16.3231C57.3078 15.7405 56.1309 15.6346 54.9188 15.7641C53.1476 15.9582 51.8001 16.8056 50.9763 18.4002C50.2055 19.8889 50.0996 21.4777 50.4291 23.09C50.7409 24.6022 51.5471 25.8026 52.9652 26.497C55.213 27.5973 58.9142 27.4502 60.9031 24.1374C61.0149 23.955 60.9502 23.8491 60.7854 23.7667C60.583 23.6613 60.3805 23.5563 60.1782 23.4515C59.669 23.1876 59.1606 22.9241 58.6553 22.6545C58.5023 22.5722 58.4611 22.631 58.4023 22.7546C58.2552 23.0547 58.0904 23.343 57.8668 23.596C57.1489 24.4198 56.231 24.6611 55.2071 24.3845C54.2421 24.1256 53.8243 23.3724 53.6654 22.4368C53.6242 22.172 53.7184 22.1426 53.9361 22.1426C54.7875 22.1514 55.6392 22.1503 56.493 22.1492ZM53.7655 19.7477C54.0714 18.4649 55.4189 17.8059 56.6193 18.3531C57.2313 18.6297 57.5196 19.1358 57.6373 19.7654C57.6726 19.9478 57.5902 19.9772 57.4314 19.9713C57.0467 19.9674 56.6594 19.9687 56.273 19.97C56.0802 19.9707 55.8875 19.9713 55.6955 19.9713C55.5515 19.9713 55.4072 19.971 55.2626 19.9706C54.8284 19.9695 54.3923 19.9684 53.9596 19.9772C53.789 19.9713 53.7184 19.9478 53.7655 19.7477Z" fill="#A2A0A6"/>
</svg>
