<svg width="137" height="36" viewBox="0 0 137 36" fill="none" xmlns="http://www.w3.org/2000/svg">
<path d="M38.7229 25.0136V19.7675H41.6482C42.7404 19.7675 43.6748 19.592 44.4517 19.241C45.2285 18.8899 45.8201 18.3829 46.2263 17.7198C46.6326 17.0567 46.8358 16.2669 46.8358 15.3503C46.8358 14.4727 46.631 13.691 46.2215 13.0052C45.8119 12.3194 45.2155 11.783 44.4322 11.3963C43.6488 11.0095 42.7209 10.8161 41.6482 10.8161H36.1974V25.0136H38.7229ZM41.6482 17.7393H38.7229V12.854H41.6482C42.2463 12.854 42.7436 12.9694 43.1401 13.2002C43.5367 13.431 43.8292 13.7365 44.0177 14.1168C44.2063 14.4971 44.3005 14.9147 44.3005 15.3698C44.3005 16.1044 44.0844 16.6829 43.6521 17.1055C43.2198 17.528 42.5518 17.7393 41.6482 17.7393ZM53.103 25.2086C54.1106 25.2086 54.985 24.9778 55.726 24.5163C56.4671 24.0547 57.0343 23.4176 57.4276 22.6051C57.8209 21.7925 58.0175 20.8726 58.0175 19.8455V19.6407C58.0175 18.6136 57.8209 17.6938 57.4276 16.8812C57.0343 16.0686 56.4655 15.4299 55.7212 14.9651C54.9768 14.5003 54.0976 14.2679 53.0835 14.2679C52.0824 14.2679 51.2113 14.5003 50.4702 14.9651C49.7292 15.4299 49.162 16.0686 48.7687 16.8812C48.3754 17.6938 48.1788 18.6136 48.1788 19.6407V19.8455C48.1788 20.8726 48.3754 21.7925 48.7687 22.6051C49.162 23.4176 49.7308 24.0547 50.4751 24.5163C51.2194 24.9778 52.0954 25.2086 53.103 25.2086ZM53.103 23.2584C52.2709 23.2584 51.6469 22.9398 51.2308 22.3028C50.8148 21.6657 50.6068 20.8466 50.6068 19.8455V19.6407C50.6068 19.0037 50.6961 18.4267 50.8749 17.9099C51.0537 17.3931 51.3283 16.982 51.6989 16.6764C52.0694 16.3709 52.531 16.2181 53.0835 16.2181C53.6426 16.2181 54.1106 16.3709 54.4877 16.6764C54.8647 16.982 55.1426 17.3931 55.3214 17.9099C55.5001 18.4267 55.5895 19.0037 55.5895 19.6407V19.8455C55.5895 20.4891 55.5001 21.0676 55.3214 21.5812C55.1426 22.0948 54.8663 22.5027 54.4925 22.805C54.1188 23.1072 53.6556 23.2584 53.103 23.2584ZM62.5588 25.0136V10.036H60.1308V25.0136H62.5588ZM66.0568 29.2748C66.9799 29.2748 67.6901 29.0131 68.1874 28.4898C68.6847 27.9665 69.0666 27.3408 69.3331 26.6127L73.5358 14.463H70.9518L68.8261 21.5422L66.6321 14.463H64.0091L67.7145 24.9746L67.3829 25.8717C67.2074 26.3852 66.9685 26.7444 66.6662 26.9491C66.3639 27.1539 65.9235 27.2563 65.345 27.2563L64.8964 27.2368V29.0992C65.3515 29.2163 65.7383 29.2748 66.0568 29.2748ZM77.2873 25.0136V17.3883C77.6773 16.6277 78.3372 16.2474 79.2668 16.2474C79.8778 16.2474 80.341 16.3969 80.6563 16.6959C80.9716 16.995 81.1292 17.4988 81.1292 18.2073V25.0136H83.5572V17.9831L83.5475 17.7588C83.6905 17.2973 83.9326 16.93 84.2739 16.6569C84.6152 16.3839 85.0394 16.2474 85.5464 16.2474C86.164 16.2474 86.6272 16.3888 86.9359 16.6716C87.2447 16.9543 87.3991 17.4565 87.3991 18.1781V25.0136H89.8271V18.1878C89.8271 16.8292 89.5313 15.8362 88.9398 15.2089C88.3482 14.5816 87.4934 14.2679 86.3753 14.2679C85.6667 14.2679 85.0394 14.4093 84.4933 14.6921C83.9473 14.9749 83.4955 15.3698 83.1379 15.8768C82.8714 15.3308 82.4911 14.9261 81.997 14.6628C81.503 14.3996 80.9244 14.2679 80.2614 14.2679C79.6113 14.2679 79.0311 14.3801 78.5208 14.6043C78.0105 14.8286 77.5766 15.152 77.219 15.5746L77.141 14.463H74.8593V25.0136H77.2873ZM95.4703 25.2086C96.0554 25.2086 96.5787 25.1013 97.0402 24.8868C97.5018 24.6723 97.8983 24.3862 98.2298 24.0287C98.3078 24.4578 98.3988 24.786 98.5029 25.0136H100.98V24.8478C100.713 24.2822 100.58 23.5184 100.58 22.5563V17.9051C100.58 17.1185 100.406 16.4522 100.058 15.9061C99.7104 15.36 99.2277 14.9505 98.6101 14.6775C97.9926 14.4044 97.2807 14.2679 96.4746 14.2679C95.6165 14.2679 94.8544 14.4191 94.188 14.7214C93.5217 15.0236 93.0082 15.4234 92.6474 15.9207C92.2866 16.418 92.1062 16.9495 92.1062 17.515H94.5342C94.5342 17.2485 94.609 17.008 94.7585 16.7934C94.908 16.5789 95.1193 16.4099 95.3923 16.2864C95.6653 16.1629 95.9806 16.1011 96.3381 16.1011C96.9362 16.1011 97.388 16.2588 97.6935 16.574C97.9991 16.8893 98.1518 17.3265 98.1518 17.8856V18.5681H96.6892C95.155 18.5681 93.9703 18.8672 93.1349 19.4652C92.2996 20.0633 91.8819 20.9246 91.8819 22.0492C91.8819 22.6473 92.0347 23.1869 92.3402 23.6679C92.6457 24.149 93.0715 24.526 93.6176 24.799C94.1637 25.0721 94.7812 25.2086 95.4703 25.2086ZM95.9383 23.2681C95.4248 23.2681 95.025 23.1332 94.739 22.8635C94.4529 22.5937 94.3099 22.2443 94.3099 21.8152C94.3099 21.2627 94.5277 20.8336 94.9632 20.5281C95.3988 20.2226 96.0391 20.0698 96.8842 20.0698H98.1518V22.0395C97.9698 22.3775 97.6822 22.6668 97.2889 22.9073C96.8956 23.1479 96.4454 23.2681 95.9383 23.2681ZM105.443 25.0136V17.8271C105.813 17.0145 106.542 16.6082 107.627 16.6082C107.946 16.6082 108.267 16.6342 108.593 16.6862L108.612 14.3947C108.527 14.3622 108.399 14.3329 108.227 14.3069C108.055 14.2809 107.9 14.2679 107.764 14.2679C107.244 14.2679 106.785 14.3882 106.389 14.6287C105.992 14.8692 105.661 15.2105 105.394 15.6526L105.326 14.463H103.015V25.0136H105.443ZM112.5 25.0136V21.591L113.563 20.5086L116.634 25.0136H119.443L115.123 18.8509L119.033 14.463H116.108L113.222 17.7295L112.5 18.6266V10.036H110.082V25.0136H112.5ZM125.193 25.2086C126.162 25.2086 126.987 25.0201 127.67 24.643C128.352 24.266 128.886 23.7947 129.269 23.2291L127.972 21.9712C127.309 22.8293 126.432 23.2584 125.339 23.2584C124.806 23.2584 124.34 23.1414 123.94 22.9073C123.54 22.6733 123.223 22.3483 122.989 21.9322C122.755 21.5162 122.616 21.0384 122.57 20.4988H129.445V19.475C129.445 18.4414 129.277 17.5329 128.942 16.7496C128.608 15.9662 128.102 15.3568 127.426 14.9212C126.75 14.4857 125.915 14.2679 124.92 14.2679C124.01 14.2679 123.191 14.4922 122.463 14.9408C121.735 15.3893 121.163 16.0247 120.747 16.8471C120.331 17.6694 120.123 18.6234 120.123 19.709V20.1088C120.123 21.0709 120.327 21.9387 120.737 22.7123C121.146 23.4859 121.735 24.0953 122.502 24.5406C123.269 24.9859 124.166 25.2086 125.193 25.2086ZM127.046 18.7437H122.619C122.729 17.9441 122.98 17.3233 123.37 16.8812C123.76 16.4392 124.273 16.2181 124.91 16.2181C125.625 16.2181 126.152 16.4375 126.49 16.8763C126.828 17.3151 127.013 17.8758 127.046 18.5584V18.7437ZM134.61 25.2086C135.195 25.2086 135.722 25.1306 136.19 24.9746V23.1024C135.897 23.1674 135.621 23.1999 135.361 23.1999C134.997 23.1999 134.724 23.1202 134.542 22.961C134.36 22.8017 134.269 22.501 134.269 22.059V16.2571H136.121V14.463H134.269V11.8887H131.841V14.463H130.125V16.2571H131.841V22.2248C131.841 23.2649 132.088 24.0222 132.582 24.4968C133.076 24.9713 133.752 25.2086 134.61 25.2086Z" fill="#A2A0A6"/>
<path d="M25.9654 34L0.514648 26.7283V9.27165L25.9654 2V34ZM23.5024 20.0431L4.79225 25.3889L23.5025 30.7348L23.5024 20.0431ZM2.97763 12.6541V23.3458L21.6879 17.9999L2.97763 12.6541ZM23.5025 5.26516L4.79213 10.6109L23.5024 15.9568L23.5025 5.26516Z" fill="#A2A0A6"/>
</svg>
