<svg width="132" height="36" viewBox="0 0 132 36" fill="none" xmlns="http://www.w3.org/2000/svg">
<path d="M28.389 4.008L22.4748 0L16.5607 4.008V25.2H21.292V6.336L22.4748 5.544L23.6576 6.336C23.6576 6.336 23.6576 24.888 23.6576 24.96C23.6576 28.944 22.4748 32.952 17.9801 35.76C22.5458 35.76 28.247 30.552 28.389 23.76V4.008Z" fill="#A2A0A6"/>
<path d="M45.0876 19.8961V11.6881C45.0876 11.5681 45.1585 11.4961 45.2768 11.4961H47.122C47.2403 11.4961 47.3113 11.5681 47.3113 11.6881V19.9441C47.3113 22.9681 45.3005 24.7201 42.58 24.7201C39.8831 24.7201 37.8486 22.9681 37.8486 19.9441V11.6881C37.8486 11.5681 37.9196 11.4961 38.0379 11.4961H39.8831C40.0014 11.4961 40.0724 11.5681 40.0724 11.6881V19.8961C40.0724 21.6961 41.1133 22.6801 42.5563 22.6801C44.0467 22.6801 45.0876 21.6961 45.0876 19.8961Z" fill="#A2A0A6"/>
<path d="M49.206 22.9922C49.1351 22.9202 49.0877 22.8002 49.1587 22.7042L50.3179 21.3362C50.3889 21.2402 50.5071 21.2402 50.5781 21.3122C51.4061 21.9842 52.6362 22.6802 54.0793 22.6802C55.617 22.6802 56.4923 21.8882 56.4923 20.8082C56.4923 19.8722 55.9245 19.2482 54.1503 19.0082L53.4642 18.9122C50.9803 18.5762 49.5845 17.3522 49.5845 15.1922C49.5845 12.8402 51.2878 11.2562 53.9373 11.2562C55.546 11.2562 57.0837 11.7842 58.1009 12.5522C58.1955 12.6242 58.2192 12.6962 58.1482 12.8162L57.2493 14.2322C57.1783 14.3282 57.0837 14.3522 56.989 14.2802C55.9482 13.5842 54.9782 13.2722 53.9137 13.2722C52.6126 13.2722 51.9029 13.9922 51.9029 15.0242C51.9029 15.9122 52.518 16.5362 54.2685 16.7762L54.9546 16.8722C57.4385 17.2082 58.7869 18.4082 58.7869 20.6402C58.7869 22.9682 57.1546 24.6722 53.961 24.6722C52.0448 24.7202 50.1996 23.9522 49.206 22.9922Z" fill="#A2A0A6"/>
<path d="M60.8697 11.6881C60.8697 11.5681 60.9407 11.4961 61.059 11.4961H69.1022C69.2205 11.4961 69.2914 11.5681 69.2914 11.6881V13.3441C69.2914 13.4641 69.2205 13.5361 69.1022 13.5361H63.2117C63.1407 13.5361 63.0934 13.5841 63.0934 13.6561V16.8241C63.0934 16.8961 63.1407 16.9441 63.2117 16.9441H68.1796C68.2978 16.9441 68.3688 17.0161 68.3688 17.1361V18.7921C68.3688 18.9121 68.2978 18.9841 68.1796 18.9841H63.2117C63.1407 18.9841 63.0934 19.0321 63.0934 19.1041V22.3921C63.0934 22.4641 63.1407 22.5121 63.2117 22.5121H69.1022C69.2205 22.5121 69.2914 22.5841 69.2914 22.7041V24.3601C69.2914 24.4801 69.2205 24.5521 69.1022 24.5521H61.059C60.9407 24.5521 60.8697 24.4801 60.8697 24.3601V11.6881Z" fill="#A2A0A6"/>
<path d="M79.2986 24.5041C79.1567 24.5041 79.0621 24.4561 79.0147 24.3121L76.5545 19.2481H74.3544C74.2834 19.2481 74.2361 19.2961 74.2361 19.3681V24.3361C74.2361 24.4561 74.1652 24.5281 74.0469 24.5281H72.2017C72.0834 24.5281 72.0124 24.4561 72.0124 24.3361V11.6881C72.0124 11.5681 72.0834 11.4961 72.2017 11.4961H77.1695C79.5352 11.4961 81.2621 13.0801 81.2621 15.3841C81.2621 17.0881 80.2922 18.4081 78.8255 18.9601L81.5223 24.2641C81.5933 24.4081 81.5223 24.5041 81.3804 24.5041H79.2986ZM79.0621 15.3841C79.0621 14.2561 78.2577 13.5361 77.0986 13.5361H74.3544C74.2834 13.5361 74.2361 13.5841 74.2361 13.6561V17.1121C74.2361 17.1841 74.2834 17.2321 74.3544 17.2321H77.0986C78.2577 17.2081 79.0621 16.4881 79.0621 15.3841Z" fill="#A2A0A6"/>
<path d="M87.055 24.5041C86.9367 24.5041 86.8657 24.4321 86.8184 24.3121L82.7495 11.6881C82.7022 11.5681 82.7968 11.4961 82.8914 11.4961H84.713C84.8549 11.4961 84.9259 11.5441 84.9495 11.6881L87.812 20.9041H87.8593L90.6271 11.6881C90.6744 11.5441 90.7454 11.4961 90.8637 11.4961H92.6853C92.8035 11.4961 92.8745 11.5681 92.8272 11.6881L88.7583 24.3121C88.7109 24.4321 88.64 24.5041 88.5217 24.5041H87.055Z" fill="#A2A0A6"/>
<path d="M94.5542 21.5759C94.2939 20.7599 94.223 20.0399 94.223 17.9999C94.223 15.9599 94.2939 15.2159 94.5542 14.4239C95.2166 12.3599 96.8725 11.2799 99.0962 11.2799C101.32 11.2799 102.976 12.3599 103.638 14.4239C103.899 15.2399 103.969 15.9599 103.969 17.9999C103.969 20.0399 103.899 20.7839 103.638 21.5759C102.976 23.6399 101.32 24.7199 99.0962 24.7199C96.8725 24.7199 95.2166 23.6399 94.5542 21.5759ZM101.486 20.9759C101.627 20.4959 101.722 19.8239 101.722 17.9999C101.722 16.1519 101.651 15.5039 101.486 15.0239C101.131 13.9679 100.374 13.3199 99.0962 13.3199C97.8424 13.3199 97.0854 13.9679 96.7069 15.0239C96.565 15.5039 96.4703 16.1519 96.4703 17.9999C96.4703 19.8479 96.5413 20.4959 96.7069 20.9759C97.0618 22.0319 97.8188 22.6799 99.0962 22.6799C100.35 22.6799 101.107 22.0319 101.486 20.9759Z" fill="#A2A0A6"/>
<path d="M106.648 11.6881C106.648 11.5681 106.718 11.4961 106.837 11.4961H108.682C108.8 11.4961 108.871 11.5681 108.871 11.6881V24.3121C108.871 24.4321 108.8 24.5041 108.682 24.5041H106.837C106.718 24.5041 106.648 24.4321 106.648 24.3121V11.6881Z" fill="#A2A0A6"/>
<path d="M111.564 18C111.564 15.936 111.635 15.288 111.896 14.472C112.558 12.336 114.19 11.28 116.343 11.28C118.401 11.28 119.939 12.36 120.696 14.064C120.743 14.16 120.696 14.256 120.601 14.304L118.993 15.096C118.874 15.144 118.78 15.096 118.756 15C118.33 14.088 117.621 13.32 116.367 13.32C115.137 13.32 114.427 13.992 114.072 15.048C113.906 15.576 113.836 16.104 113.836 18.024C113.836 19.944 113.883 20.448 114.072 21C114.427 22.056 115.137 22.728 116.367 22.728C117.621 22.728 118.354 21.96 118.756 21.048C118.803 20.952 118.898 20.904 118.993 20.952L120.601 21.744C120.696 21.792 120.743 21.888 120.696 21.984C119.963 23.712 118.401 24.768 116.343 24.768C114.167 24.768 112.558 23.688 111.896 21.576C111.635 20.712 111.564 20.064 111.564 18Z" fill="#A2A0A6"/>
<path d="M122.869 11.6881C122.869 11.5681 122.94 11.4961 123.058 11.4961H131.102C131.22 11.4961 131.291 11.5681 131.291 11.6881V13.3441C131.291 13.4641 131.22 13.5361 131.102 13.5361H125.211C125.14 13.5361 125.093 13.5841 125.093 13.6561V16.8241C125.093 16.8961 125.14 16.9441 125.211 16.9441H130.179C130.297 16.9441 130.368 17.0161 130.368 17.1361V18.7921C130.368 18.9121 130.297 18.9841 130.179 18.9841H125.211C125.14 18.9841 125.093 19.0321 125.093 19.1041V22.3921C125.093 22.4641 125.14 22.5121 125.211 22.5121H131.102C131.22 22.5121 131.291 22.5841 131.291 22.7041V24.3601C131.291 24.4801 131.22 24.5521 131.102 24.5521H123.058C122.94 24.5521 122.869 24.4801 122.869 24.3601V11.6881Z" fill="#A2A0A6"/>
<path d="M9.46309 12.72C10.7696 12.72 11.8287 11.6455 11.8287 10.32C11.8287 8.99449 10.7696 7.91997 9.46309 7.91997C8.15657 7.91997 7.09743 8.99449 7.09743 10.32C7.09743 11.6455 8.15657 12.72 9.46309 12.72Z" fill="#A2A0A6"/>
<path d="M9.46309 6.23986C10.7696 6.23986 11.8287 5.16534 11.8287 3.83986C11.8287 2.51437 10.7696 1.43986 9.46309 1.43986C8.15657 1.43986 7.09743 2.51437 7.09743 3.83986C7.09743 5.16534 8.15657 6.23986 9.46309 6.23986Z" fill="#A2A0A6"/>
<path d="M2.36566 12.72C3.67218 12.72 4.73132 11.6454 4.73132 10.32C4.73132 8.99448 3.67218 7.91996 2.36566 7.91996C1.05914 7.91996 0 8.99448 0 10.32C0 11.6454 1.05914 12.72 2.36566 12.72Z" fill="#A2A0A6"/>
<path d="M2.36566 6.23999C3.67218 6.23999 4.73132 5.16547 4.73132 3.83999C4.73132 2.51451 3.67218 1.43999 2.36566 1.43999C1.05914 1.43999 0 2.51451 0 3.83999C0 5.16547 1.05914 6.23999 2.36566 6.23999Z" fill="#A2A0A6"/>
<path d="M16.5596 25.2C16.5596 27.216 15.566 28.992 14.0757 30.096C12.6563 28.944 11.8283 27.096 11.8283 25.2V24C11.8283 22.8 10.6455 21.6 10.6455 20.4C10.6455 19.56 11.2132 18.72 11.5681 17.904C11.7337 17.568 11.8283 17.208 11.8283 16.8C11.8283 15.48 10.7637 14.4 9.46264 14.4C8.16152 14.4 7.09698 15.48 7.09698 16.8C7.09698 17.184 7.1916 17.568 7.3572 17.904C7.71205 18.744 8.27981 19.584 8.27981 20.4C8.27981 21.6 7.09698 22.8 7.09698 24V25.2C7.09698 27.36 7.75936 29.304 8.89488 30.936C6.48191 30.168 4.73132 27.888 4.73132 25.2V24C4.73132 22.8 3.54849 21.6 3.54849 20.4C3.54849 19.56 4.11625 18.72 4.4711 17.904C4.63669 17.568 4.73132 17.208 4.73132 16.8C4.73132 15.48 3.66677 14.4 2.36566 14.4C1.06455 14.4 0 15.48 0 16.8C0 17.184 0.0946264 17.568 0.260222 17.904C0.615071 18.744 1.18283 19.56 1.18283 20.4C1.18283 21.6 0 22.8 0 24V25.2C0 31.152 4.77863 36 10.6455 36C16.5123 36 21.2909 31.152 21.2909 25.2H16.5596Z" fill="#A2A0A6"/>
</svg>
