<svg width="65" height="64" viewBox="0 0 65 64" fill="none" xmlns="http://www.w3.org/2000/svg">
<path d="M44.2223 26.4443C54.0407 26.4443 62 34.4037 62 44.2221C62 54.0404 54.0406 61.9998 44.2223 61.9998L19.7779 61.9998C9.95951 61.9998 2.00017 54.0404 2.00017 44.2221C2.00017 34.4037 9.95953 26.4443 19.7779 26.4443L44.2223 26.4443Z" fill="url(#paint0_linear_9869_76950)"/>
<path d="M24.4918 14.3666C31.4344 7.42401 42.6906 7.42401 49.6333 14.3666C56.5759 21.3093 56.5759 32.5655 49.6333 39.5082L32.3485 56.7929C25.4058 63.7356 14.1496 63.7356 7.20697 56.7929C0.264339 49.8503 0.264343 38.5941 7.20698 31.6514L24.4918 14.3666Z" fill="url(#paint1_linear_9869_76950)"/>
<path d="M2 19.7777C2 9.95935 9.95936 2 19.7777 2C29.5961 2 37.5555 9.95936 37.5555 19.7777V44.2221C37.5555 54.0405 29.5961 61.9998 19.7777 61.9998C9.95936 61.9998 2 54.0405 2 44.2221V19.7777Z" fill="url(#paint2_linear_9869_76950)"/>
<g filter="url(#filter0_d_9869_76950)">
<circle cx="19.7782" cy="47.5555" r="5.55554" fill="url(#paint3_radial_9869_76950)" shape-rendering="crispEdges"/>
<circle cx="19.7782" cy="47.5555" r="6.55554" stroke="url(#paint4_linear_9869_76950)" stroke-width="2" shape-rendering="crispEdges"/>
</g>
<defs>
<filter id="filter0_d_9869_76950" x="12.2227" y="40" width="19.6159" height="19.6156" filterUnits="userSpaceOnUse" color-interpolation-filters="sRGB">
<feFlood flood-opacity="0" result="BackgroundImageFix"/>
<feColorMatrix in="SourceAlpha" type="matrix" values="0 0 0 0 0 0 0 0 0 0 0 0 0 0 0 0 0 0 127 0" result="hardAlpha"/>
<feOffset dx="2.25228" dy="2.25228"/>
<feGaussianBlur stdDeviation="1.12614"/>
<feComposite in2="hardAlpha" operator="out"/>
<feColorMatrix type="matrix" values="0 0 0 0 0 0 0 0 0 0 0 0 0 0 0 0 0 0 0.16 0"/>
<feBlend mode="normal" in2="BackgroundImageFix" result="effect1_dropShadow_9869_76950"/>
<feBlend mode="normal" in="SourceGraphic" in2="effect1_dropShadow_9869_76950" result="shape"/>
</filter>
<linearGradient id="paint0_linear_9869_76950" x1="62" y1="44.2221" x2="2.00017" y2="44.2221" gradientUnits="userSpaceOnUse">
<stop stop-color="#6851FF"/>
<stop offset="1" stop-color="#3512B2"/>
</linearGradient>
<linearGradient id="paint1_linear_9869_76950" x1="49.6331" y1="14.3667" x2="7.2068" y2="56.793" gradientUnits="userSpaceOnUse">
<stop stop-color="#9F90FF"/>
<stop offset="1" stop-color="#5139F0"/>
</linearGradient>
<linearGradient id="paint2_linear_9869_76950" x1="-4.15521" y1="6.24878" x2="19.7777" y2="61.9998" gradientUnits="userSpaceOnUse">
<stop stop-color="#EDEBFF"/>
<stop offset="1" stop-color="#A799FF"/>
</linearGradient>
<radialGradient id="paint3_radial_9869_76950" cx="0" cy="0" r="1" gradientUnits="userSpaceOnUse" gradientTransform="translate(19.7782 47.5555) rotate(90) scale(5.55554)">
<stop stop-color="#3512B2"/>
<stop offset="1" stop-color="#6851FF"/>
</radialGradient>
<linearGradient id="paint4_linear_9869_76950" x1="14.2227" y1="43.3532" x2="23.3037" y2="53.1111" gradientUnits="userSpaceOnUse">
<stop stop-color="white" stop-opacity="0.8"/>
<stop offset="1" stop-color="#A092FF"/>
</linearGradient>
</defs>
</svg>
