<svg width="65" height="64" viewBox="0 0 65 64" fill="none" xmlns="http://www.w3.org/2000/svg">
<path fill-rule="evenodd" clip-rule="evenodd" d="M21.0039 40C31.4973 40 40.0039 31.4934 40.0039 21C40.0039 10.5066 31.4973 2 21.0039 2C10.5105 2 2.00391 10.5066 2.00391 21C2.00391 24.1919 2.79099 27.2 4.18167 29.8407L2.33363 38.4649C2.17782 39.192 2.8178 39.8408 3.54699 39.695L12.3712 37.9302C14.9615 39.2536 17.8955 40 21.0039 40Z" fill="url(#paint0_radial_9869_76956)"/>
<g filter="url(#filter0_d_9869_76956)">
<path d="M16.5892 28.971C16.3813 29.586 15.8043 30 15.1551 30C14.1074 30 13.3765 28.9613 13.7302 27.9751L18.938 13.4567C19.2514 12.5829 20.0798 12 21.0081 12C21.9368 12 22.7654 12.5833 23.0785 13.4576L28.2788 27.9755C28.632 28.9617 27.901 30 26.8535 30C26.2039 30 25.6266 29.5856 25.419 28.97L21.1049 16.1825C21.0909 16.1411 21.0521 16.1133 21.0084 16.1133C20.9648 16.1133 20.926 16.1411 20.912 16.1825L16.5892 28.971ZM15.9765 24.4102C15.9765 23.5898 16.6415 22.9248 17.4619 22.9248H24.5003C25.3206 22.9248 25.9856 23.5898 25.9856 24.4102C25.9856 25.2305 25.3206 25.8955 24.5003 25.8955H17.4619C16.6415 25.8955 15.9765 25.2305 15.9765 24.4102Z" fill="url(#paint1_linear_9869_76956)" shape-rendering="crispEdges"/>
</g>
<path fill-rule="evenodd" clip-rule="evenodd" d="M43.0039 62C32.5105 62 24.0039 53.4934 24.0039 43C24.0039 32.5066 32.5105 24 43.0039 24C53.4973 24 62.0039 32.5066 62.0039 43C62.0039 46.1919 61.2168 49.2 59.8261 51.8407L61.6742 60.4649C61.83 61.192 61.19 61.8408 60.4608 61.695L51.6366 59.9302C49.0464 61.2536 46.1123 62 43.0039 62Z" fill="url(#paint2_radial_9869_76956)"/>
<g filter="url(#filter1_d_9869_76956)">
<path d="M48.2732 37.2115C47.5451 37.0902 46.844 37.5256 46.5813 38.2154C44.6301 43.3377 40.8811 47.3495 35.6248 49.2566C34.877 49.5279 34.5947 50.5397 35.0091 51.2187C35.296 51.689 35.8359 51.8784 36.353 51.6885C42.1587 49.5567 46.8697 44.9401 49.3694 39.1357C49.7323 38.2931 49.1781 37.3624 48.2732 37.2115ZM39.4417 38.1858C39.1702 37.5094 38.4756 37.0881 37.7567 37.2079C36.8435 37.3601 36.2883 38.3029 36.6542 39.1533C39.0993 44.8365 43.4737 49.8075 49.5422 51.7251C50.0174 51.8752 50.5003 51.6912 50.7696 51.2718C51.2309 50.5536 50.9073 49.4029 50.1044 49.113C44.8862 47.2287 41.317 42.8588 39.4417 38.1858ZM35.4716 37.0191C34.849 37.0191 34.3442 37.5239 34.3442 38.1465C34.3442 38.7691 34.849 39.2739 35.4716 39.2739H50.5362C51.1588 39.2739 51.6636 38.7691 51.6636 38.1465C51.6636 37.5239 51.1588 37.0191 50.5362 37.0191H35.4716ZM42.9472 34C42.2998 34 41.7749 34.5248 41.7749 35.1723V37.2226C41.7749 37.8701 42.2998 38.3949 42.9472 38.3949C43.5946 38.3949 44.1195 37.8701 44.1195 37.2226V35.1723C44.1195 34.5248 43.5946 34 42.9472 34Z" fill="url(#paint3_linear_9869_76956)" shape-rendering="crispEdges"/>
</g>
<defs>
<filter id="filter0_d_9869_76956" x="10.6396" y="11" width="22.7295" height="26" filterUnits="userSpaceOnUse" color-interpolation-filters="sRGB">
<feFlood flood-opacity="0" result="BackgroundImageFix"/>
<feColorMatrix in="SourceAlpha" type="matrix" values="0 0 0 0 0 0 0 0 0 0 0 0 0 0 0 0 0 0 127 0" result="hardAlpha"/>
<feOffset dx="1" dy="3"/>
<feGaussianBlur stdDeviation="2"/>
<feComposite in2="hardAlpha" operator="out"/>
<feColorMatrix type="matrix" values="0 0 0 0 0 0 0 0 0 0 0 0 0 0 0 0 0 0 0.15 0"/>
<feBlend mode="normal" in2="BackgroundImageFix" result="effect1_dropShadow_9869_76956"/>
<feBlend mode="normal" in="SourceGraphic" in2="effect1_dropShadow_9869_76956" result="shape"/>
</filter>
<filter id="filter1_d_9869_76956" x="31.3447" y="33" width="25.3184" height="25.7769" filterUnits="userSpaceOnUse" color-interpolation-filters="sRGB">
<feFlood flood-opacity="0" result="BackgroundImageFix"/>
<feColorMatrix in="SourceAlpha" type="matrix" values="0 0 0 0 0 0 0 0 0 0 0 0 0 0 0 0 0 0 127 0" result="hardAlpha"/>
<feOffset dx="1" dy="3"/>
<feGaussianBlur stdDeviation="2"/>
<feComposite in2="hardAlpha" operator="out"/>
<feColorMatrix type="matrix" values="0 0 0 0 0 0 0 0 0 0 0 0 0 0 0 0 0 0 0.15 0"/>
<feBlend mode="normal" in2="BackgroundImageFix" result="effect1_dropShadow_9869_76956"/>
<feBlend mode="normal" in="SourceGraphic" in2="effect1_dropShadow_9869_76956" result="shape"/>
</filter>
<radialGradient id="paint0_radial_9869_76956" cx="0" cy="0" r="1" gradientUnits="userSpaceOnUse" gradientTransform="translate(5.8039 -3.7) rotate(77.7352) scale(44.7207)">
<stop stop-color="#EDEBFF"/>
<stop offset="1" stop-color="#6851FF"/>
</radialGradient>
<linearGradient id="paint1_linear_9869_76956" x1="22.0039" y1="12" x2="22.0039" y2="30" gradientUnits="userSpaceOnUse">
<stop stop-color="white"/>
<stop offset="1" stop-color="white" stop-opacity="0.6"/>
</linearGradient>
<radialGradient id="paint2_radial_9869_76956" cx="0" cy="0" r="1" gradientUnits="userSpaceOnUse" gradientTransform="translate(58.2039 18.3) rotate(102.265) scale(44.7207)">
<stop stop-color="#EDEBFF"/>
<stop offset="1" stop-color="#6851FF"/>
</radialGradient>
<linearGradient id="paint3_linear_9869_76956" x1="43.0039" y1="34" x2="43.0039" y2="52" gradientUnits="userSpaceOnUse">
<stop stop-color="white"/>
<stop offset="1" stop-color="white" stop-opacity="0.6"/>
</linearGradient>
</defs>
</svg>
