<svg width="520" height="600" viewBox="0 0 520 600" fill="none" xmlns="http://www.w3.org/2000/svg">
<g filter="url(#filter0_d_9873_77031)">
<rect x="56" y="40" width="315" height="417.5" rx="22.05" fill="#252525"/>
<g clip-path="url(#clip0_9873_77031)">
<circle cx="213.5" cy="96.6998" r="18.9" fill="#6BD9FF"/>
<g filter="url(#filter1_d_9873_77031)">
<path d="M213.657 84.9131C211.66 84.9151 209.695 85.418 207.942 86.3758C206.189 87.3335 204.705 88.7155 203.624 90.3953C202.104 92.7787 201.479 95.6239 201.86 98.4249C202.24 101.226 203.602 103.801 205.703 105.693C207.803 107.584 210.507 108.669 213.332 108.755C216.158 108.841 218.922 107.922 221.134 106.161C223.058 104.612 224.455 102.504 225.132 100.127C225.808 97.7508 225.731 95.2231 224.911 92.8923C224.091 90.5616 222.568 88.5425 220.553 87.1135C218.537 85.6844 216.128 84.9156 213.657 84.9131ZM216.046 87.6124C217.696 88.0396 219.202 88.9006 220.408 90.1061C221.613 91.3116 222.474 92.8177 222.901 94.4681C220.904 94.5243 218.955 95.0918 217.24 96.1163C216.379 95.1393 215.418 94.2547 214.373 93.4768C215.426 91.6983 216.002 89.6784 216.046 87.6124ZM213.657 87.3018C213.653 89.0158 213.182 90.6963 212.295 92.1629C212.116 92.0674 211.949 91.9599 211.77 91.8763C210.232 91.0648 208.587 90.4738 206.885 90.1206C207.772 89.2278 208.827 88.5192 209.99 88.0355C211.152 87.5517 212.398 87.3024 213.657 87.3018ZM205.296 92.2704C207.169 92.5307 208.984 93.1125 210.659 93.9903L210.814 94.0859C209.933 94.9666 208.886 95.6647 207.734 96.1402C206.582 96.6157 205.348 96.8592 204.102 96.8568C204.108 95.252 204.519 93.6747 205.296 92.2704ZM211.268 106.101C209.618 105.674 208.112 104.813 206.906 103.608C205.701 102.402 204.84 100.896 204.412 99.2456C206.008 99.2102 207.579 98.8522 209.033 98.1933C210.486 97.5344 211.791 96.5882 212.869 95.4116C213.732 96.0499 214.532 96.7699 215.257 97.5615C214.048 98.6399 213.07 99.9531 212.385 101.421C211.699 102.889 211.319 104.482 211.268 106.101ZM213.657 106.412C213.659 105.1 213.932 103.802 214.458 102.6C214.984 101.398 215.752 100.317 216.714 99.4247C216.786 99.5203 216.858 99.6039 216.917 99.6994C217.918 101.232 218.661 102.919 219.115 104.692C217.517 105.814 215.61 106.415 213.657 106.412ZM221.074 102.829C220.555 101.249 219.832 99.7429 218.924 98.3498L218.673 98.0512C220.062 97.2786 221.623 96.8679 223.212 96.8568C223.2 99.0328 222.446 101.14 221.074 102.829Z" fill="#252525"/>
</g>
</g>
<path d="M160.58 152.5L157.302 141.045H159.948L161.844 149.004H161.939L164.031 141.045H166.296L168.382 149.021H168.483L170.379 141.045H173.024L169.747 152.5H167.387L165.205 145.011H165.116L162.94 152.5H160.58ZM177.268 152.668C176.384 152.668 175.624 152.489 174.986 152.131C174.352 151.769 173.864 151.258 173.521 150.598C173.178 149.935 173.006 149.15 173.006 148.244C173.006 147.36 173.178 146.584 173.521 145.917C173.864 145.25 174.347 144.729 174.969 144.357C175.596 143.984 176.33 143.797 177.173 143.797C177.74 143.797 178.267 143.889 178.756 144.071C179.248 144.25 179.677 144.521 180.042 144.882C180.411 145.244 180.698 145.699 180.904 146.247C181.109 146.791 181.211 147.429 181.211 148.16V148.814H173.957V147.338H178.968C178.968 146.995 178.894 146.691 178.745 146.426C178.596 146.161 178.389 145.954 178.124 145.805C177.863 145.652 177.559 145.576 177.212 145.576C176.85 145.576 176.53 145.66 176.25 145.828C175.974 145.992 175.758 146.213 175.601 146.493C175.445 146.769 175.365 147.077 175.361 147.416V148.82C175.361 149.245 175.439 149.612 175.596 149.922C175.756 150.231 175.982 150.47 176.273 150.638C176.563 150.805 176.908 150.889 177.307 150.889C177.572 150.889 177.814 150.852 178.034 150.777C178.254 150.703 178.443 150.591 178.599 150.442C178.756 150.293 178.875 150.11 178.957 149.894L181.161 150.039C181.049 150.569 180.82 151.031 180.473 151.426C180.13 151.818 179.686 152.123 179.142 152.343C178.601 152.56 177.977 152.668 177.268 152.668ZM185.149 141.045V152.5H182.766V141.045H185.149ZM190.939 152.668C190.059 152.668 189.302 152.481 188.668 152.108C188.038 151.732 187.553 151.21 187.214 150.542C186.878 149.875 186.711 149.107 186.711 148.238C186.711 147.358 186.88 146.586 187.22 145.923C187.563 145.255 188.049 144.735 188.679 144.362C189.309 143.986 190.059 143.797 190.928 143.797C191.677 143.797 192.333 143.933 192.896 144.206C193.459 144.478 193.905 144.86 194.233 145.352C194.561 145.844 194.742 146.422 194.776 147.086H192.527C192.464 146.657 192.296 146.312 192.024 146.051C191.755 145.786 191.403 145.654 190.967 145.654C190.598 145.654 190.275 145.755 189.999 145.956C189.727 146.154 189.515 146.443 189.362 146.823C189.209 147.203 189.132 147.664 189.132 148.205C189.132 148.753 189.207 149.219 189.356 149.603C189.509 149.987 189.723 150.28 189.999 150.481C190.275 150.682 190.598 150.783 190.967 150.783C191.239 150.783 191.483 150.727 191.7 150.615C191.92 150.503 192.1 150.341 192.242 150.129C192.387 149.912 192.483 149.653 192.527 149.351H194.776C194.738 150.007 194.559 150.585 194.239 151.085C193.922 151.581 193.484 151.969 192.924 152.248C192.365 152.528 191.703 152.668 190.939 152.668ZM200.183 152.668C199.314 152.668 198.563 152.483 197.929 152.114C197.299 151.741 196.812 151.223 196.469 150.559C196.126 149.892 195.954 149.118 195.954 148.238C195.954 147.351 196.126 146.575 196.469 145.911C196.812 145.244 197.299 144.726 197.929 144.357C198.563 143.984 199.314 143.797 200.183 143.797C201.052 143.797 201.801 143.984 202.431 144.357C203.065 144.726 203.554 145.244 203.897 145.911C204.24 146.575 204.411 147.351 204.411 148.238C204.411 149.118 204.24 149.892 203.897 150.559C203.554 151.223 203.065 151.741 202.431 152.114C201.801 152.483 201.052 152.668 200.183 152.668ZM200.194 150.822C200.589 150.822 200.919 150.71 201.184 150.487C201.449 150.259 201.648 149.95 201.782 149.558C201.92 149.167 201.989 148.721 201.989 148.221C201.989 147.722 201.92 147.276 201.782 146.885C201.648 146.493 201.449 146.184 201.184 145.956C200.919 145.729 200.589 145.615 200.194 145.615C199.795 145.615 199.459 145.729 199.187 145.956C198.919 146.184 198.716 146.493 198.578 146.885C198.443 147.276 198.376 147.722 198.376 148.221C198.376 148.721 198.443 149.167 198.578 149.558C198.716 149.95 198.919 150.259 199.187 150.487C199.459 150.71 199.795 150.822 200.194 150.822ZM205.96 152.5V143.909H208.231V145.425H208.332C208.511 144.921 208.809 144.524 209.227 144.233C209.644 143.943 210.144 143.797 210.726 143.797C211.315 143.797 211.816 143.945 212.23 144.239C212.644 144.53 212.92 144.925 213.058 145.425H213.147C213.323 144.933 213.64 144.539 214.098 144.245C214.561 143.946 215.107 143.797 215.737 143.797C216.539 143.797 217.189 144.053 217.689 144.563C218.192 145.071 218.444 145.79 218.444 146.722V152.5H216.067V147.192C216.067 146.715 215.94 146.357 215.687 146.118C215.433 145.88 215.116 145.76 214.736 145.76C214.303 145.76 213.966 145.898 213.724 146.174C213.481 146.446 213.36 146.806 213.36 147.254V152.5H211.05V147.142C211.05 146.721 210.929 146.385 210.687 146.135C210.448 145.885 210.133 145.76 209.741 145.76C209.477 145.76 209.238 145.828 209.025 145.962C208.817 146.092 208.651 146.277 208.528 146.515C208.405 146.75 208.343 147.026 208.343 147.343V152.5H205.96ZM224.241 152.668C223.358 152.668 222.597 152.489 221.959 152.131C221.325 151.769 220.837 151.258 220.494 150.598C220.151 149.935 219.979 149.15 219.979 148.244C219.979 147.36 220.151 146.584 220.494 145.917C220.837 145.25 221.32 144.729 221.943 144.357C222.569 143.984 223.303 143.797 224.146 143.797C224.713 143.797 225.241 143.889 225.729 144.071C226.221 144.25 226.65 144.521 227.015 144.882C227.385 145.244 227.672 145.699 227.877 146.247C228.082 146.791 228.184 147.429 228.184 148.16V148.814H220.93V147.338H225.942C225.942 146.995 225.867 146.691 225.718 146.426C225.569 146.161 225.362 145.954 225.097 145.805C224.836 145.652 224.532 145.576 224.185 145.576C223.824 145.576 223.503 145.66 223.223 145.828C222.947 145.992 222.731 146.213 222.575 146.493C222.418 146.769 222.338 147.077 222.334 147.416V148.82C222.334 149.245 222.412 149.612 222.569 149.922C222.729 150.231 222.955 150.47 223.246 150.638C223.537 150.805 223.881 150.889 224.28 150.889C224.545 150.889 224.787 150.852 225.007 150.777C225.227 150.703 225.416 150.591 225.572 150.442C225.729 150.293 225.848 150.11 225.93 149.894L228.134 150.039C228.022 150.569 227.793 151.031 227.446 151.426C227.103 151.818 226.659 152.123 226.115 152.343C225.574 152.56 224.95 152.668 224.241 152.668ZM233.429 152.5V141.045H235.812V145.352H235.885C235.989 145.121 236.14 144.886 236.338 144.647C236.539 144.405 236.8 144.204 237.121 144.043C237.445 143.879 237.848 143.797 238.329 143.797C238.955 143.797 239.533 143.961 240.063 144.289C240.592 144.614 241.015 145.104 241.332 145.76C241.649 146.413 241.808 147.231 241.808 148.216C241.808 149.174 241.653 149.983 241.343 150.643C241.038 151.299 240.62 151.797 240.091 152.136C239.565 152.472 238.976 152.64 238.323 152.64C237.861 152.64 237.467 152.563 237.143 152.411C236.822 152.258 236.559 152.066 236.354 151.834C236.149 151.6 235.993 151.363 235.885 151.124H235.778V152.5H233.429ZM235.762 148.205C235.762 148.715 235.832 149.161 235.974 149.541C236.116 149.922 236.321 150.218 236.589 150.431C236.858 150.639 237.184 150.744 237.568 150.744C237.956 150.744 238.284 150.638 238.552 150.425C238.821 150.209 239.024 149.91 239.162 149.53C239.304 149.146 239.375 148.704 239.375 148.205C239.375 147.709 239.306 147.272 239.168 146.896C239.03 146.519 238.826 146.225 238.558 146.012C238.29 145.8 237.96 145.693 237.568 145.693C237.18 145.693 236.852 145.796 236.584 146.001C236.319 146.206 236.116 146.497 235.974 146.873C235.832 147.25 235.762 147.694 235.762 148.205ZM245.847 152.662C245.299 152.662 244.811 152.567 244.382 152.377C243.953 152.183 243.614 151.898 243.364 151.521C243.118 151.141 242.995 150.667 242.995 150.101C242.995 149.623 243.082 149.222 243.258 148.898C243.433 148.574 243.671 148.313 243.973 148.115C244.276 147.917 244.619 147.768 245.003 147.668C245.39 147.567 245.797 147.496 246.222 147.455C246.722 147.403 247.124 147.354 247.43 147.31C247.736 147.261 247.958 147.19 248.096 147.097C248.234 147.004 248.303 146.866 248.303 146.683V146.65C248.303 146.295 248.191 146.021 247.967 145.828C247.747 145.634 247.434 145.537 247.027 145.537C246.598 145.537 246.257 145.632 246.004 145.822C245.75 146.008 245.582 146.243 245.5 146.527L243.297 146.348C243.409 145.826 243.629 145.374 243.957 144.994C244.285 144.61 244.708 144.316 245.226 144.11C245.748 143.902 246.352 143.797 247.038 143.797C247.516 143.797 247.973 143.853 248.409 143.965C248.849 144.077 249.238 144.25 249.578 144.485C249.921 144.72 250.191 145.022 250.389 145.391C250.586 145.757 250.685 146.195 250.685 146.706V152.5H248.426V151.309H248.358C248.22 151.577 248.036 151.814 247.805 152.019C247.574 152.22 247.296 152.379 246.971 152.494C246.647 152.606 246.272 152.662 245.847 152.662ZM246.53 151.018C246.88 151.018 247.189 150.949 247.458 150.811C247.726 150.669 247.937 150.479 248.09 150.24C248.243 150.002 248.319 149.731 248.319 149.429V148.518C248.245 148.566 248.142 148.611 248.012 148.652C247.885 148.689 247.741 148.725 247.581 148.758C247.421 148.788 247.26 148.816 247.1 148.842C246.94 148.865 246.794 148.885 246.664 148.904C246.384 148.945 246.14 149.01 245.931 149.099C245.722 149.189 245.56 149.31 245.444 149.463C245.329 149.612 245.271 149.799 245.271 150.022C245.271 150.347 245.389 150.595 245.623 150.766C245.862 150.934 246.164 151.018 246.53 151.018ZM256.415 152.668C255.535 152.668 254.778 152.481 254.144 152.108C253.514 151.732 253.03 151.21 252.69 150.542C252.355 149.875 252.187 149.107 252.187 148.238C252.187 147.358 252.357 146.586 252.696 145.923C253.039 145.255 253.525 144.735 254.156 144.362C254.786 143.986 255.535 143.797 256.404 143.797C257.153 143.797 257.81 143.933 258.373 144.206C258.936 144.478 259.381 144.86 259.71 145.352C260.038 145.844 260.218 146.422 260.252 147.086H258.004C257.94 146.657 257.772 146.312 257.5 146.051C257.232 145.786 256.879 145.654 256.443 145.654C256.074 145.654 255.752 145.755 255.476 145.956C255.203 146.154 254.991 146.443 254.838 146.823C254.685 147.203 254.609 147.664 254.609 148.205C254.609 148.753 254.683 149.219 254.832 149.603C254.985 149.987 255.2 150.28 255.476 150.481C255.752 150.682 256.074 150.783 256.443 150.783C256.715 150.783 256.96 150.727 257.176 150.615C257.396 150.503 257.577 150.341 257.718 150.129C257.864 149.912 257.959 149.653 258.004 149.351H260.252C260.215 150.007 260.036 150.585 259.715 151.085C259.398 151.581 258.96 151.969 258.401 152.248C257.841 152.528 257.18 152.668 256.415 152.668ZM263.936 150.028L263.942 147.17H264.289L267.041 143.909H269.776L266.079 148.227H265.514L263.936 150.028ZM261.778 152.5V141.045H264.16V152.5H261.778ZM267.147 152.5L264.619 148.758L266.207 147.075L269.938 152.5H267.147Z" fill="white"/>
<g clip-path="url(#clip1_9873_77031)">
<rect x="93.7998" y="192" width="239.4" height="37.8" rx="7.875" fill="#2B2B2B"/>
<g filter="url(#filter2_d_9873_77031)">
<rect width="50.4" height="37.8" transform="translate(93.7998 192)" fill="#2B2B2B"/>
<g clip-path="url(#clip2_9873_77031)">
<path d="M109.55 217.2C113.029 217.2 115.85 214.379 115.85 210.9C115.85 207.421 113.029 204.6 109.55 204.6C106.071 204.6 103.25 207.421 103.25 210.9C103.25 214.379 106.071 217.2 109.55 217.2Z" fill="#F0F0F0"/>
<path d="M109.276 210.9H115.85C115.85 210.332 115.774 209.781 115.633 209.257H109.276V210.9Z" fill="#D80027"/>
<path d="M109.276 207.613H114.926C114.54 206.984 114.047 206.428 113.472 205.97H109.276V207.613Z" fill="#D80027"/>
<path d="M109.55 217.2C111.032 217.2 112.395 216.688 113.471 215.831H105.628C106.704 216.688 108.067 217.2 109.55 217.2Z" fill="#D80027"/>
<path d="M104.174 214.187H114.925C115.235 213.682 115.475 213.13 115.633 212.543H103.467C103.625 213.13 103.865 213.682 104.174 214.187Z" fill="#D80027"/>
<path d="M106.168 205.584H106.742L106.208 205.972L106.412 206.6L105.878 206.212L105.344 206.6L105.521 206.057C105.05 206.449 104.638 206.908 104.299 207.419H104.483L104.143 207.666C104.09 207.754 104.039 207.844 103.99 207.935L104.153 208.435L103.85 208.215C103.774 208.374 103.706 208.537 103.644 208.704L103.823 209.254H104.483L103.949 209.642L104.153 210.27L103.619 209.882L103.299 210.115C103.267 210.372 103.25 210.634 103.25 210.9H109.55C109.55 207.421 109.55 207.011 109.55 204.6C108.305 204.6 107.145 204.961 106.168 205.584ZM106.412 210.27L105.878 209.882L105.344 210.27L105.548 209.642L105.014 209.254H105.674L105.878 208.627L106.082 209.254H106.742L106.208 209.642L106.412 210.27ZM106.208 207.807L106.412 208.435L105.878 208.047L105.344 208.435L105.548 207.807L105.014 207.419H105.674L105.878 206.791L106.082 207.419H106.742L106.208 207.807ZM108.672 210.27L108.138 209.882L107.604 210.27L107.808 209.642L107.274 209.254H107.934L108.138 208.627L108.342 209.254H109.002L108.468 209.642L108.672 210.27ZM108.468 207.807L108.672 208.435L108.138 208.047L107.604 208.435L107.808 207.807L107.274 207.419H107.934L108.138 206.791L108.342 207.419H109.002L108.468 207.807ZM108.468 205.972L108.672 206.6L108.138 206.212L107.604 206.6L107.808 205.972L107.274 205.584H107.934L108.138 204.956L108.342 205.584H109.002L108.468 205.972Z" fill="#0052B4"/>
</g>
<path d="M128.171 212.891C128.335 213.032 128.564 213.032 128.728 212.919L132.527 209.584C132.69 209.443 132.69 209.217 132.527 209.104L132.297 208.906C132.134 208.765 131.904 208.765 131.741 208.906L128.466 211.788L125.158 208.906C124.994 208.765 124.765 208.765 124.601 208.906L124.372 209.104C124.208 209.217 124.208 209.443 124.372 209.584L128.171 212.891Z" fill="#77767A"/>
</g>
<path d="M156.101 213.871V207.965H157.104V213.871H156.101ZM153.649 211.419V210.417H159.556V211.419H153.649Z" fill="white"/>
<path d="M164.926 206.318V215.482H163.816V207.482H163.763L161.526 208.967V207.84L163.816 206.318H164.926Z" fill="white"/>
<path d="M174.377 210.9C174.377 209.773 174.523 208.736 174.815 207.79C175.111 206.842 175.531 205.969 176.077 205.173H177.008C176.793 205.468 176.592 205.832 176.404 206.265C176.219 206.694 176.056 207.167 175.916 207.683C175.776 208.196 175.666 208.727 175.585 209.276C175.507 209.825 175.469 210.366 175.469 210.9C175.469 211.61 175.537 212.33 175.675 213.061C175.812 213.792 175.997 214.471 176.229 215.097C176.462 215.724 176.722 216.234 177.008 216.627H176.077C175.531 215.831 175.111 214.96 174.815 214.014C174.523 213.066 174.377 212.028 174.377 210.9Z" fill="white"/>
<path d="M181.645 215.607C181.054 215.607 180.527 215.506 180.065 215.303C179.606 215.1 179.24 214.818 178.969 214.457C178.7 214.093 178.554 213.671 178.53 213.191H179.658C179.682 213.486 179.783 213.741 179.962 213.956C180.141 214.168 180.375 214.332 180.665 214.448C180.954 214.565 181.275 214.623 181.627 214.623C182.02 214.623 182.369 214.554 182.674 214.417C182.978 214.28 183.217 214.089 183.39 213.844C183.563 213.6 183.649 213.316 183.649 212.994C183.649 212.657 183.566 212.36 183.399 212.104C183.231 211.844 182.987 211.641 182.665 211.495C182.343 211.349 181.949 211.276 181.483 211.276H180.75V210.292H181.483C181.847 210.292 182.167 210.226 182.441 210.095C182.718 209.963 182.935 209.779 183.09 209.54C183.248 209.301 183.327 209.021 183.327 208.699C183.327 208.388 183.258 208.119 183.121 207.889C182.984 207.659 182.79 207.48 182.539 207.352C182.292 207.224 182 207.159 181.662 207.159C181.346 207.159 181.048 207.218 180.768 207.334C180.49 207.447 180.263 207.613 180.087 207.831C179.911 208.045 179.816 208.305 179.801 208.609H178.727C178.745 208.129 178.89 207.708 179.161 207.347C179.433 206.984 179.788 206.7 180.226 206.497C180.668 206.294 181.152 206.193 181.68 206.193C182.247 206.193 182.733 206.308 183.139 206.538C183.545 206.764 183.856 207.064 184.074 207.437C184.292 207.81 184.401 208.212 184.401 208.645C184.401 209.161 184.265 209.601 183.994 209.965C183.725 210.329 183.36 210.581 182.897 210.721V210.793C183.476 210.888 183.928 211.134 184.253 211.531C184.578 211.925 184.741 212.412 184.741 212.994C184.741 213.492 184.605 213.94 184.334 214.336C184.065 214.73 183.698 215.04 183.233 215.267C182.768 215.494 182.238 215.607 181.645 215.607Z" fill="white"/>
<path d="M189.56 215.607C188.886 215.607 188.311 215.424 187.837 215.057C187.363 214.687 187 214.152 186.75 213.451C186.499 212.747 186.374 211.896 186.374 210.9C186.374 209.91 186.499 209.064 186.75 208.363C187.003 207.659 187.367 207.122 187.842 206.752C188.319 206.379 188.892 206.193 189.56 206.193C190.228 206.193 190.799 206.379 191.274 206.752C191.751 207.122 192.115 207.659 192.365 208.363C192.619 209.064 192.746 209.91 192.746 210.9C192.746 211.896 192.62 212.747 192.37 213.451C192.119 214.152 191.757 214.687 191.282 215.057C190.808 215.424 190.234 215.607 189.56 215.607ZM189.56 214.623C190.228 214.623 190.747 214.301 191.117 213.656C191.487 213.012 191.672 212.093 191.672 210.9C191.672 210.107 191.587 209.431 191.417 208.873C191.25 208.315 191.008 207.89 190.692 207.598C190.379 207.306 190.001 207.159 189.56 207.159C188.898 207.159 188.38 207.486 188.007 208.139C187.634 208.79 187.448 209.71 187.448 210.9C187.448 211.694 187.531 212.368 187.698 212.923C187.865 213.477 188.106 213.899 188.419 214.189C188.735 214.478 189.115 214.623 189.56 214.623Z" fill="white"/>
<path d="M197.542 215.607C196.952 215.607 196.425 215.506 195.963 215.303C195.503 215.1 195.138 214.818 194.866 214.457C194.598 214.093 194.452 213.671 194.428 213.191H195.556C195.579 213.486 195.681 213.741 195.86 213.956C196.039 214.168 196.273 214.332 196.562 214.448C196.852 214.565 197.172 214.623 197.524 214.623C197.918 214.623 198.267 214.554 198.571 214.417C198.876 214.28 199.114 214.089 199.287 213.844C199.46 213.6 199.547 213.316 199.547 212.994C199.547 212.657 199.463 212.36 199.296 212.104C199.129 211.844 198.885 211.641 198.562 211.495C198.24 211.349 197.846 211.276 197.381 211.276H196.647V210.292H197.381C197.745 210.292 198.064 210.226 198.339 210.095C198.616 209.963 198.832 209.779 198.987 209.54C199.146 209.301 199.225 209.021 199.225 208.699C199.225 208.388 199.156 208.119 199.019 207.889C198.882 207.659 198.688 207.48 198.437 207.352C198.19 207.224 197.897 207.159 197.56 207.159C197.244 207.159 196.946 207.218 196.665 207.334C196.388 207.447 196.161 207.613 195.985 207.831C195.809 208.045 195.714 208.305 195.699 208.609H194.625C194.643 208.129 194.787 207.708 195.059 207.347C195.33 206.984 195.685 206.7 196.124 206.497C196.565 206.294 197.05 206.193 197.578 206.193C198.145 206.193 198.631 206.308 199.037 206.538C199.442 206.764 199.754 207.064 199.972 207.437C200.19 207.81 200.298 208.212 200.298 208.645C200.298 209.161 200.163 209.601 199.891 209.965C199.623 210.329 199.257 210.581 198.795 210.721V210.793C199.374 210.888 199.826 211.134 200.151 211.531C200.476 211.925 200.639 212.412 200.639 212.994C200.639 213.492 200.503 213.94 200.231 214.336C199.963 214.73 199.596 215.04 199.131 215.267C198.665 215.494 198.136 215.607 197.542 215.607Z" fill="white"/>
<path d="M204.742 210.9C204.742 212.028 204.594 213.066 204.299 214.014C204.006 214.96 203.587 215.831 203.041 216.627H202.111C202.325 216.332 202.525 215.968 202.71 215.536C202.898 215.106 203.062 214.635 203.202 214.122C203.343 213.606 203.451 213.073 203.529 212.524C203.61 211.972 203.65 211.431 203.65 210.9C203.65 210.19 203.581 209.47 203.444 208.739C203.307 208.008 203.122 207.33 202.889 206.703C202.656 206.077 202.397 205.567 202.111 205.173H203.041C203.587 205.969 204.006 206.842 204.299 207.79C204.594 208.736 204.742 209.773 204.742 210.9Z" fill="white"/>
<path d="M213.441 215.607C212.916 215.607 212.443 215.503 212.023 215.294C211.602 215.085 211.265 214.799 211.011 214.435C210.758 214.071 210.619 213.656 210.595 213.191H211.669C211.711 213.606 211.899 213.949 212.233 214.22C212.57 214.489 212.973 214.623 213.441 214.623C213.817 214.623 214.151 214.535 214.443 214.359C214.739 214.183 214.97 213.941 215.137 213.634C215.307 213.324 215.392 212.973 215.392 212.583C215.392 212.183 215.304 211.826 215.128 211.513C214.955 211.197 214.716 210.948 214.412 210.766C214.108 210.584 213.76 210.491 213.369 210.488C213.089 210.485 212.801 210.529 212.506 210.618C212.211 210.705 211.967 210.817 211.776 210.954L210.738 210.829L211.293 206.318H216.054V207.303H212.224L211.902 210.005H211.955C212.143 209.856 212.379 209.732 212.662 209.634C212.946 209.535 213.241 209.486 213.548 209.486C214.109 209.486 214.609 209.62 215.047 209.889C215.489 210.154 215.835 210.518 216.085 210.981C216.339 211.443 216.466 211.971 216.466 212.565C216.466 213.149 216.334 213.671 216.072 214.131C215.812 214.587 215.454 214.948 214.998 215.213C214.542 215.476 214.023 215.607 213.441 215.607Z" fill="white"/>
<path d="M221.107 215.607C220.582 215.607 220.109 215.503 219.688 215.294C219.268 215.085 218.931 214.799 218.677 214.435C218.424 214.071 218.285 213.656 218.261 213.191H219.335C219.377 213.606 219.565 213.949 219.899 214.22C220.236 214.489 220.638 214.623 221.107 214.623C221.483 214.623 221.817 214.535 222.109 214.359C222.404 214.183 222.636 213.941 222.803 213.634C222.973 213.324 223.058 212.973 223.058 212.583C223.058 212.183 222.97 211.826 222.794 211.513C222.621 211.197 222.382 210.948 222.078 210.766C221.773 210.584 221.426 210.491 221.035 210.488C220.755 210.485 220.467 210.529 220.172 210.618C219.876 210.705 219.633 210.817 219.442 210.954L218.404 210.829L218.959 206.318H223.72V207.303H219.89L219.568 210.005H219.621C219.809 209.856 220.045 209.732 220.328 209.634C220.612 209.535 220.907 209.486 221.214 209.486C221.775 209.486 222.275 209.62 222.713 209.889C223.155 210.154 223.501 210.518 223.751 210.981C224.005 211.443 224.132 211.971 224.132 212.565C224.132 213.149 224 213.671 223.738 214.131C223.478 214.587 223.12 214.948 222.664 215.213C222.208 215.476 221.688 215.607 221.107 215.607Z" fill="white"/>
<path d="M228.773 215.607C228.248 215.607 227.775 215.503 227.354 215.294C226.934 215.085 226.597 214.799 226.343 214.435C226.089 214.071 225.951 213.656 225.927 213.191H227.001C227.042 213.606 227.23 213.949 227.565 214.22C227.902 214.489 228.304 214.623 228.773 214.623C229.148 214.623 229.483 214.535 229.775 214.359C230.07 214.183 230.301 213.941 230.468 213.634C230.638 213.324 230.723 212.973 230.723 212.583C230.723 212.183 230.635 211.826 230.459 211.513C230.286 211.197 230.048 210.948 229.744 210.766C229.439 210.584 229.092 210.491 228.701 210.488C228.421 210.485 228.133 210.529 227.837 210.618C227.542 210.705 227.299 210.817 227.108 210.954L226.07 210.829L226.625 206.318H231.386V207.303H227.556L227.233 210.005H227.287C227.475 209.856 227.711 209.732 227.994 209.634C228.277 209.535 228.573 209.486 228.88 209.486C229.441 209.486 229.94 209.62 230.379 209.889C230.82 210.154 231.166 210.518 231.417 210.981C231.671 211.443 231.797 211.971 231.797 212.565C231.797 213.149 231.666 213.671 231.404 214.131C231.144 214.587 230.786 214.948 230.33 215.213C229.873 215.476 229.354 215.607 228.773 215.607Z" fill="white"/>
<path d="M237.53 210.408V211.392H233.521V210.408H237.53Z" fill="white"/>
<path d="M242.359 215.607C241.685 215.607 241.111 215.424 240.637 215.057C240.162 214.687 239.8 214.152 239.549 213.451C239.299 212.747 239.173 211.896 239.173 210.9C239.173 209.91 239.299 209.064 239.549 208.363C239.803 207.659 240.167 207.122 240.641 206.752C241.118 206.379 241.691 206.193 242.359 206.193C243.027 206.193 243.599 206.379 244.073 206.752C244.55 207.122 244.914 207.659 245.165 208.363C245.418 209.064 245.545 209.91 245.545 210.9C245.545 211.896 245.42 212.747 245.169 213.451C244.919 214.152 244.556 214.687 244.082 215.057C243.608 215.424 243.033 215.607 242.359 215.607ZM242.359 214.623C243.027 214.623 243.546 214.301 243.916 213.656C244.286 213.012 244.471 212.093 244.471 210.9C244.471 210.107 244.386 209.431 244.216 208.873C244.049 208.315 243.807 207.89 243.491 207.598C243.178 207.306 242.801 207.159 242.359 207.159C241.697 207.159 241.179 207.486 240.807 208.139C240.434 208.79 240.247 209.71 240.247 210.9C240.247 211.694 240.331 212.368 240.498 212.923C240.665 213.477 240.905 213.899 241.218 214.189C241.534 214.478 241.915 214.623 242.359 214.623Z" fill="white"/>
<path d="M247.031 213.603V212.69L251.058 206.318H251.72V207.732H251.272L248.23 212.547V212.618H253.653V213.603H247.031ZM251.344 215.482V213.325V212.9V206.318H252.4V215.482H251.344Z" fill="white"/>
<path d="M255.329 215.482V214.677L258.354 211.365C258.709 210.978 259.001 210.641 259.231 210.354C259.461 210.065 259.631 209.793 259.741 209.54C259.855 209.283 259.911 209.015 259.911 208.734C259.911 208.412 259.834 208.133 259.679 207.898C259.527 207.662 259.318 207.48 259.052 207.352C258.787 207.224 258.488 207.159 258.157 207.159C257.805 207.159 257.498 207.233 257.236 207.379C256.976 207.522 256.775 207.723 256.632 207.983C256.491 208.242 256.421 208.547 256.421 208.896H255.365C255.365 208.359 255.489 207.887 255.737 207.482C255.984 207.076 256.321 206.76 256.748 206.533C257.177 206.306 257.659 206.193 258.193 206.193C258.73 206.193 259.206 206.306 259.62 206.533C260.035 206.76 260.36 207.066 260.596 207.45C260.832 207.835 260.949 208.263 260.949 208.734C260.949 209.072 260.888 209.401 260.766 209.723C260.647 210.043 260.438 210.399 260.139 210.793C259.844 211.184 259.434 211.661 258.909 212.225L256.851 214.426V214.498H261.11V215.482H255.329Z" fill="white"/>
<path d="M266.055 215.607C265.464 215.607 264.938 215.506 264.475 215.303C264.016 215.1 263.65 214.818 263.379 214.457C263.111 214.093 262.964 213.671 262.94 213.191H264.068C264.092 213.486 264.193 213.741 264.372 213.956C264.551 214.168 264.785 214.332 265.075 214.448C265.364 214.565 265.685 214.623 266.037 214.623C266.431 214.623 266.78 214.554 267.084 214.417C267.388 214.28 267.627 214.089 267.8 213.844C267.973 213.6 268.059 213.316 268.059 212.994C268.059 212.657 267.976 212.36 267.809 212.104C267.642 211.844 267.397 211.641 267.075 211.495C266.753 211.349 266.359 211.276 265.894 211.276H265.16V210.292H265.894C266.258 210.292 266.577 210.226 266.851 210.095C267.129 209.963 267.345 209.779 267.5 209.54C267.658 209.301 267.737 209.021 267.737 208.699C267.737 208.388 267.668 208.119 267.531 207.889C267.394 207.659 267.2 207.48 266.95 207.352C266.702 207.224 266.41 207.159 266.073 207.159C265.756 207.159 265.458 207.218 265.178 207.334C264.9 207.447 264.674 207.613 264.498 207.831C264.322 208.045 264.226 208.305 264.211 208.609H263.137C263.155 208.129 263.3 207.708 263.571 207.347C263.843 206.984 264.198 206.7 264.636 206.497C265.078 206.294 265.563 206.193 266.09 206.193C266.657 206.193 267.143 206.308 267.549 206.538C267.955 206.764 268.267 207.064 268.484 207.437C268.702 207.81 268.811 208.212 268.811 208.645C268.811 209.161 268.675 209.601 268.404 209.965C268.135 210.329 267.77 210.581 267.308 210.721V210.793C267.886 210.888 268.338 211.134 268.663 211.531C268.988 211.925 269.151 212.412 269.151 212.994C269.151 213.492 269.015 213.94 268.744 214.336C268.475 214.73 268.108 215.04 267.643 215.267C267.178 215.494 266.648 215.607 266.055 215.607Z" fill="white"/>
</g>
<rect x="94.1936" y="192.394" width="238.613" height="37.0125" rx="7.48125" stroke="#4E4D52" stroke-width="0.7875"/>
<rect x="93.7998" y="248.7" width="239" height="45" rx="22.5" fill="#6BD9FF"/>
<path d="M167.29 274.643V265.48H168.95V273.252H172.986V274.643H167.29Z" fill="#18171A"/>
<path d="M177.353 274.777C176.682 274.777 176.1 274.63 175.608 274.334C175.116 274.039 174.734 273.626 174.463 273.095C174.194 272.564 174.06 271.944 174.06 271.234C174.06 270.524 174.194 269.902 174.463 269.368C174.734 268.834 175.116 268.419 175.608 268.124C176.1 267.829 176.682 267.681 177.353 267.681C178.024 267.681 178.606 267.829 179.098 268.124C179.59 268.419 179.971 268.834 180.239 269.368C180.51 269.902 180.646 270.524 180.646 271.234C180.646 271.944 180.51 272.564 180.239 273.095C179.971 273.626 179.59 274.039 179.098 274.334C178.606 274.63 178.024 274.777 177.353 274.777ZM177.362 273.48C177.726 273.48 178.03 273.38 178.275 273.18C178.519 272.977 178.701 272.706 178.821 272.366C178.943 272.026 179.004 271.647 179.004 271.229C179.004 270.809 178.943 270.428 178.821 270.088C178.701 269.745 178.519 269.472 178.275 269.269C178.03 269.067 177.726 268.965 177.362 268.965C176.989 268.965 176.679 269.067 176.431 269.269C176.187 269.472 176.003 269.745 175.881 270.088C175.762 270.428 175.702 270.809 175.702 271.229C175.702 271.647 175.762 272.026 175.881 272.366C176.003 272.706 176.187 272.977 176.431 273.18C176.679 273.38 176.989 273.48 177.362 273.48Z" fill="#18171A"/>
<path d="M185.01 277.364C184.428 277.364 183.929 277.285 183.511 277.127C183.093 276.971 182.758 276.763 182.504 276.5C182.251 276.238 182.075 275.947 181.976 275.628L183.435 275.274C183.501 275.408 183.596 275.541 183.721 275.672C183.847 275.807 184.015 275.917 184.227 276.003C184.442 276.093 184.712 276.138 185.037 276.138C185.496 276.138 185.876 276.026 186.178 275.802C186.479 275.581 186.63 275.217 186.63 274.71V273.408H186.549C186.466 273.575 186.343 273.747 186.182 273.923C186.024 274.099 185.814 274.246 185.551 274.366C185.292 274.485 184.965 274.545 184.571 274.545C184.043 274.545 183.565 274.421 183.135 274.173C182.709 273.923 182.369 273.55 182.115 273.055C181.864 272.557 181.739 271.933 181.739 271.184C181.739 270.43 181.864 269.793 182.115 269.274C182.369 268.752 182.71 268.357 183.14 268.088C183.569 267.817 184.048 267.681 184.576 267.681C184.979 267.681 185.31 267.75 185.569 267.887C185.832 268.021 186.041 268.184 186.196 268.375C186.351 268.562 186.469 268.74 186.549 268.907H186.639V267.77H188.236V274.755C188.236 275.343 188.096 275.829 187.815 276.214C187.535 276.599 187.152 276.886 186.665 277.077C186.179 277.268 185.627 277.364 185.01 277.364ZM185.023 273.274C185.366 273.274 185.659 273.191 185.9 273.023C186.142 272.856 186.325 272.616 186.451 272.303C186.576 271.99 186.639 271.614 186.639 271.176C186.639 270.743 186.576 270.364 186.451 270.039C186.328 269.714 186.146 269.462 185.905 269.283C185.666 269.101 185.372 269.01 185.023 269.01C184.662 269.01 184.361 269.104 184.119 269.292C183.878 269.48 183.696 269.738 183.574 270.066C183.451 270.391 183.39 270.761 183.39 271.176C183.39 271.596 183.451 271.965 183.574 272.281C183.699 272.594 183.882 272.839 184.124 273.015C184.369 273.188 184.668 273.274 185.023 273.274Z" fill="#18171A"/>
<path d="M193.021 274.643V267.77H194.641V274.643H193.021ZM193.836 266.795C193.579 266.795 193.358 266.71 193.174 266.54C192.989 266.367 192.896 266.16 192.896 265.918C192.896 265.673 192.989 265.466 193.174 265.296C193.358 265.123 193.579 265.037 193.836 265.037C194.095 265.037 194.316 265.123 194.498 265.296C194.683 265.466 194.775 265.673 194.775 265.918C194.775 266.16 194.683 266.367 194.498 266.54C194.316 266.71 194.095 266.795 193.836 266.795Z" fill="#18171A"/>
<path d="M197.926 270.616V274.643H196.307V267.77H197.855V268.938H197.935C198.094 268.554 198.346 268.248 198.692 268.021C199.041 267.794 199.472 267.681 199.985 267.681C200.459 267.681 200.872 267.782 201.224 267.985C201.579 268.188 201.854 268.482 202.047 268.867C202.244 269.252 202.341 269.718 202.338 270.267V274.643H200.719V270.518C200.719 270.058 200.599 269.699 200.361 269.439C200.125 269.18 199.798 269.05 199.381 269.05C199.097 269.05 198.845 269.113 198.624 269.238C198.407 269.36 198.235 269.538 198.11 269.771C197.988 270.003 197.926 270.285 197.926 270.616Z" fill="#18171A"/>
<path d="M210.851 265.05L207.898 276.021H206.479L209.432 265.05H210.851Z" fill="#18171A"/>
<path d="M220.061 267.999C220.02 267.608 219.844 267.304 219.534 267.086C219.226 266.868 218.827 266.759 218.334 266.759C217.988 266.759 217.692 266.811 217.444 266.916C217.196 267.02 217.007 267.162 216.876 267.341C216.744 267.52 216.677 267.724 216.674 267.954C216.674 268.145 216.718 268.31 216.804 268.451C216.894 268.591 217.014 268.71 217.167 268.809C217.319 268.904 217.487 268.985 217.672 269.05C217.857 269.116 218.044 269.171 218.231 269.216L219.091 269.431C219.437 269.511 219.769 269.62 220.088 269.757C220.41 269.894 220.698 270.067 220.952 270.276C221.208 270.485 221.411 270.737 221.56 271.032C221.71 271.328 221.784 271.674 221.784 272.07C221.784 272.607 221.647 273.08 221.372 273.489C221.098 273.895 220.701 274.212 220.182 274.442C219.666 274.669 219.041 274.782 218.308 274.782C217.595 274.782 216.976 274.672 216.451 274.451C215.929 274.23 215.52 273.908 215.225 273.484C214.932 273.061 214.774 272.545 214.75 271.936H216.384C216.407 272.255 216.506 272.521 216.679 272.733C216.852 272.944 217.077 273.103 217.354 273.207C217.635 273.311 217.948 273.364 218.294 273.364C218.655 273.364 218.971 273.31 219.243 273.202C219.517 273.092 219.732 272.94 219.887 272.746C220.042 272.549 220.121 272.32 220.124 272.057C220.121 271.818 220.051 271.621 219.914 271.466C219.777 271.308 219.584 271.177 219.337 271.073C219.092 270.965 218.806 270.87 218.478 270.786L217.435 270.518C216.68 270.324 216.084 270.03 215.645 269.636C215.21 269.24 214.992 268.713 214.992 268.057C214.992 267.517 215.138 267.044 215.43 266.638C215.726 266.233 216.127 265.918 216.634 265.694C217.141 265.468 217.715 265.354 218.357 265.354C219.007 265.354 219.577 265.468 220.066 265.694C220.558 265.918 220.944 266.23 221.225 266.63C221.505 267.026 221.65 267.483 221.659 267.999H220.061Z" fill="#18171A"/>
<path d="M223.192 274.643V267.77H224.812V274.643H223.192ZM224.007 266.795C223.75 266.795 223.53 266.71 223.345 266.54C223.16 266.367 223.067 266.16 223.067 265.918C223.067 265.673 223.16 265.466 223.345 265.296C223.53 265.123 223.75 265.037 224.007 265.037C224.266 265.037 224.487 265.123 224.669 265.296C224.854 265.466 224.946 265.673 224.946 265.918C224.946 266.16 224.854 266.367 224.669 266.54C224.487 266.71 224.266 266.795 224.007 266.795Z" fill="#18171A"/>
<path d="M229.467 277.364C228.885 277.364 228.385 277.285 227.968 277.127C227.55 276.971 227.215 276.763 226.961 276.5C226.708 276.238 226.532 275.947 226.433 275.628L227.892 275.274C227.957 275.408 228.053 275.541 228.178 275.672C228.303 275.807 228.472 275.917 228.684 276.003C228.898 276.093 229.168 276.138 229.494 276.138C229.953 276.138 230.333 276.026 230.635 275.802C230.936 275.581 231.086 275.217 231.086 274.71V273.408H231.006C230.922 273.575 230.8 273.747 230.639 273.923C230.481 274.099 230.271 274.246 230.008 274.366C229.749 274.485 229.422 274.545 229.028 274.545C228.5 274.545 228.021 274.421 227.592 274.173C227.165 273.923 226.825 273.55 226.572 273.055C226.321 272.557 226.196 271.933 226.196 271.184C226.196 270.43 226.321 269.793 226.572 269.274C226.825 268.752 227.167 268.357 227.596 268.088C228.026 267.817 228.505 267.681 229.033 267.681C229.435 267.681 229.767 267.75 230.026 267.887C230.289 268.021 230.497 268.184 230.652 268.375C230.808 268.562 230.925 268.74 231.006 268.907H231.095V267.77H232.693V274.755C232.693 275.343 232.553 275.829 232.272 276.214C231.992 276.599 231.609 276.886 231.122 277.077C230.636 277.268 230.084 277.364 229.467 277.364ZM229.48 273.274C229.823 273.274 230.116 273.191 230.357 273.023C230.599 272.856 230.782 272.616 230.908 272.303C231.033 271.99 231.095 271.614 231.095 271.176C231.095 270.743 231.033 270.364 230.908 270.039C230.785 269.714 230.603 269.462 230.362 269.283C230.123 269.101 229.829 269.01 229.48 269.01C229.119 269.01 228.818 269.104 228.576 269.292C228.335 269.48 228.153 269.738 228.03 270.066C227.908 270.391 227.847 270.761 227.847 271.176C227.847 271.596 227.908 271.965 228.03 272.281C228.156 272.594 228.339 272.839 228.581 273.015C228.825 273.188 229.125 273.274 229.48 273.274Z" fill="#18171A"/>
<path d="M235.973 270.616V274.643H234.353V267.77H235.901V268.938H235.982C236.14 268.554 236.392 268.248 236.738 268.021C237.087 267.794 237.518 267.681 238.031 267.681C238.505 267.681 238.918 267.782 239.27 267.985C239.625 268.188 239.9 268.482 240.094 268.867C240.29 269.252 240.387 269.718 240.384 270.267V274.643H238.765V270.518C238.765 270.058 238.645 269.699 238.407 269.439C238.171 269.18 237.844 269.05 237.427 269.05C237.143 269.05 236.891 269.113 236.671 269.238C236.453 269.36 236.281 269.538 236.156 269.771C236.034 270.003 235.973 270.285 235.973 270.616Z" fill="#18171A"/>
<path d="M249.537 271.753V267.77H251.157V274.643H249.586V273.422H249.514C249.359 273.807 249.104 274.121 248.749 274.366C248.397 274.61 247.963 274.733 247.447 274.733C246.997 274.733 246.599 274.633 246.253 274.433C245.91 274.23 245.641 273.936 245.447 273.551C245.253 273.164 245.156 272.695 245.156 272.146V267.77H246.776V271.896C246.776 272.331 246.895 272.677 247.134 272.934C247.373 273.191 247.686 273.319 248.074 273.319C248.312 273.319 248.543 273.261 248.767 273.144C248.991 273.028 249.174 272.855 249.318 272.625C249.464 272.393 249.537 272.102 249.537 271.753Z" fill="#18171A"/>
<path d="M252.822 277.22V267.77H254.415V268.907H254.509C254.593 268.74 254.71 268.562 254.862 268.375C255.015 268.184 255.22 268.021 255.48 267.887C255.739 267.75 256.071 267.681 256.473 267.681C257.004 267.681 257.483 267.817 257.91 268.088C258.339 268.357 258.679 268.755 258.93 269.283C259.183 269.808 259.31 270.452 259.31 271.216C259.31 271.97 259.186 272.612 258.939 273.14C258.691 273.668 258.354 274.07 257.927 274.348C257.501 274.625 257.018 274.764 256.478 274.764C256.084 274.764 255.757 274.698 255.498 274.567C255.238 274.436 255.03 274.278 254.871 274.093C254.716 273.905 254.596 273.727 254.509 273.56H254.442V277.22H252.822ZM254.411 271.207C254.411 271.651 254.473 272.041 254.599 272.375C254.727 272.709 254.91 272.97 255.149 273.158C255.39 273.343 255.683 273.435 256.026 273.435C256.384 273.435 256.684 273.34 256.925 273.149C257.167 272.955 257.349 272.691 257.471 272.357C257.596 272.02 257.659 271.636 257.659 271.207C257.659 270.78 257.598 270.401 257.476 270.07C257.353 269.739 257.171 269.48 256.93 269.292C256.688 269.104 256.387 269.01 256.026 269.01C255.68 269.01 255.386 269.101 255.144 269.283C254.903 269.465 254.719 269.72 254.594 270.048C254.472 270.376 254.411 270.762 254.411 271.207Z" fill="#18171A"/>
<path d="M212.919 313.226C212.919 313.96 212.785 314.591 212.516 315.119C212.248 315.645 211.88 316.049 211.412 316.334C210.947 316.616 210.418 316.756 209.825 316.756C209.23 316.756 208.699 316.616 208.231 316.334C207.766 316.049 207.399 315.643 207.13 315.115C206.862 314.587 206.728 313.958 206.728 313.226C206.728 312.492 206.862 311.863 207.13 311.337C207.399 310.809 207.766 310.404 208.231 310.122C208.699 309.838 209.23 309.696 209.825 309.696C210.418 309.696 210.947 309.838 211.412 310.122C211.88 310.404 212.248 310.809 212.516 311.337C212.785 311.863 212.919 312.492 212.919 313.226ZM211.892 313.226C211.892 312.667 211.802 312.196 211.62 311.813C211.441 311.429 211.195 311.138 210.882 310.941C210.571 310.742 210.219 310.642 209.825 310.642C209.429 310.642 209.075 310.742 208.765 310.941C208.454 311.138 208.207 311.429 208.026 311.813C207.847 312.196 207.758 312.667 207.758 313.226C207.758 313.785 207.847 314.257 208.026 314.642C208.207 315.025 208.454 315.316 208.765 315.515C209.075 315.712 209.429 315.81 209.825 315.81C210.219 315.81 210.571 315.712 210.882 315.515C211.195 315.316 211.441 315.025 211.62 314.642C211.802 314.257 211.892 313.785 211.892 313.226Z" fill="#77767A"/>
<path d="M214.684 316.662V309.79H217.134C217.667 309.79 218.108 309.881 218.46 310.065C218.813 310.248 219.077 310.502 219.252 310.827C219.426 311.149 219.513 311.521 219.513 311.944C219.513 312.365 219.425 312.735 219.248 313.055C219.074 313.373 218.81 313.62 218.456 313.797C218.105 313.973 217.663 314.062 217.131 314.062H215.275V313.169H217.037C217.372 313.169 217.645 313.121 217.856 313.025C218.068 312.929 218.224 312.789 218.322 312.605C218.421 312.422 218.47 312.201 218.47 311.944C218.47 311.685 218.419 311.46 218.319 311.27C218.22 311.08 218.065 310.934 217.852 310.833C217.642 310.731 217.366 310.679 217.023 310.679H215.721V316.662H214.684ZM218.077 313.562L219.775 316.662H218.594L216.929 313.562H218.077Z" fill="#77767A"/>
<rect x="94.1936" y="331.894" width="238.612" height="37.0125" rx="18.5063" fill="#2B2B2B"/>
<path d="M198.218 355.05V345.886H203.963V347.077H199.6V349.869H203.663V351.054H199.6V353.86H204.017V355.05H198.218Z" fill="white"/>
<path d="M205.702 355.05V348.177H206.987V349.296H207.072C207.215 348.917 207.449 348.622 207.774 348.41C208.099 348.195 208.488 348.088 208.942 348.088C209.401 348.088 209.786 348.195 210.096 348.41C210.409 348.625 210.641 348.92 210.79 349.296H210.861C211.025 348.929 211.286 348.637 211.644 348.419C212.002 348.198 212.429 348.088 212.924 348.088C213.548 348.088 214.056 348.283 214.45 348.674C214.847 349.065 215.045 349.654 215.045 350.441V355.05H213.707V350.567C213.707 350.101 213.58 349.764 213.327 349.555C213.073 349.347 212.77 349.242 212.419 349.242C211.983 349.242 211.644 349.376 211.403 349.645C211.161 349.91 211.04 350.252 211.04 350.67V355.05H209.707V350.482C209.707 350.109 209.591 349.809 209.358 349.582C209.125 349.356 208.823 349.242 208.45 349.242C208.196 349.242 207.962 349.309 207.747 349.444C207.535 349.575 207.364 349.758 207.233 349.994C207.104 350.23 207.04 350.503 207.04 350.813V355.05H205.702Z" fill="white"/>
<path d="M218.838 355.202C218.403 355.202 218.009 355.122 217.657 354.961C217.305 354.797 217.026 354.559 216.82 354.249C216.617 353.939 216.516 353.559 216.516 353.108C216.516 352.72 216.591 352.401 216.74 352.151C216.889 351.9 217.09 351.702 217.344 351.556C217.597 351.409 217.881 351.299 218.194 351.224C218.507 351.15 218.826 351.093 219.151 351.054C219.563 351.007 219.897 350.968 220.154 350.938C220.41 350.905 220.597 350.853 220.713 350.781C220.829 350.71 220.887 350.594 220.887 350.432V350.401C220.887 350.01 220.777 349.708 220.556 349.493C220.339 349.278 220.013 349.171 219.581 349.171C219.131 349.171 218.776 349.271 218.516 349.47C218.259 349.667 218.082 349.887 217.984 350.128L216.726 349.842C216.875 349.424 217.093 349.087 217.38 348.831C217.669 348.571 218.001 348.383 218.377 348.267C218.753 348.148 219.148 348.088 219.563 348.088C219.837 348.088 220.128 348.121 220.436 348.186C220.746 348.249 221.035 348.365 221.304 348.535C221.575 348.705 221.797 348.948 221.97 349.265C222.143 349.578 222.23 349.985 222.23 350.486V355.05H220.923V354.11H220.87C220.783 354.283 220.653 354.453 220.48 354.621C220.307 354.788 220.085 354.926 219.814 355.037C219.542 355.147 219.217 355.202 218.838 355.202ZM219.129 354.128C219.499 354.128 219.815 354.055 220.078 353.909C220.343 353.763 220.544 353.572 220.682 353.336C220.822 353.098 220.892 352.843 220.892 352.571V351.685C220.844 351.733 220.752 351.778 220.615 351.82C220.48 351.858 220.327 351.893 220.154 351.922C219.981 351.949 219.812 351.975 219.648 351.999C219.484 352.019 219.347 352.037 219.236 352.052C218.977 352.085 218.74 352.14 218.525 352.218C218.313 352.295 218.143 352.407 218.015 352.553C217.89 352.697 217.827 352.887 217.827 353.126C217.827 353.457 217.949 353.708 218.194 353.878C218.438 354.045 218.75 354.128 219.129 354.128Z" fill="white"/>
<path d="M224.012 355.05V348.177H225.35V355.05H224.012ZM224.687 347.117C224.455 347.117 224.255 347.039 224.088 346.884C223.924 346.726 223.842 346.538 223.842 346.32C223.842 346.1 223.924 345.912 224.088 345.757C224.255 345.599 224.455 345.52 224.687 345.52C224.92 345.52 225.118 345.599 225.282 345.757C225.45 345.912 225.533 346.1 225.533 346.32C225.533 346.538 225.45 346.726 225.282 346.884C225.118 347.039 224.92 347.117 224.687 347.117Z" fill="white"/>
<path d="M228.487 345.886V355.05H227.149V345.886H228.487Z" fill="white"/>
<path fill-rule="evenodd" clip-rule="evenodd" d="M109.549 343.609C108.353 343.609 107.384 344.579 107.384 345.775V355.225C107.384 356.421 108.353 357.391 109.549 357.391H122.149C123.345 357.391 124.315 356.421 124.315 355.225V345.775C124.315 344.579 123.345 343.609 122.149 343.609H109.549ZM108.696 345.284C108.866 344.989 109.185 344.791 109.549 344.791H122.149C122.514 344.791 122.833 344.989 123.003 345.284C122.995 345.289 122.988 345.294 122.98 345.3L116.122 350.353C115.96 350.472 115.739 350.472 115.576 350.353L108.718 345.3C108.711 345.294 108.704 345.289 108.696 345.284ZM108.565 346.654V355.225C108.565 355.769 109.006 356.209 109.549 356.209H122.149C122.693 356.209 123.134 355.769 123.134 355.225V346.654L116.823 351.304C116.244 351.73 115.455 351.73 114.876 351.304L108.565 346.654Z" fill="#B6B4BA"/>
<rect x="94.1936" y="331.894" width="238.612" height="37.0125" rx="18.5063" stroke="#4E4D52" stroke-width="0.7875"/>
<rect x="144.594" y="382.294" width="37.0125" height="37.0125" rx="18.5063" fill="#2B2B2B"/>
<path d="M171.415 400.99C171.415 400.278 171.357 399.758 171.232 399.219H163.1V402.434H167.873C167.777 403.233 167.257 404.436 166.102 405.244L166.086 405.352L168.657 407.344L168.836 407.361C170.472 405.85 171.415 403.627 171.415 400.99Z" fill="white"/>
<path d="M163.101 409.463C165.44 409.463 167.403 408.693 168.837 407.365L166.104 405.247C165.372 405.757 164.391 406.114 163.101 406.114C160.811 406.114 158.867 404.603 158.174 402.514L158.072 402.523L155.398 404.592L155.363 404.689C156.788 407.519 159.713 409.463 163.101 409.463Z" fill="white"/>
<path d="M158.174 402.515C157.991 401.976 157.885 401.398 157.885 400.801C157.885 400.205 157.991 399.627 158.164 399.088L158.159 398.974L155.452 396.871L155.363 396.913C154.776 398.087 154.439 399.406 154.439 400.801C154.439 402.197 154.776 403.515 155.363 404.69L158.174 402.515Z" fill="white"/>
<path d="M163.101 395.487C164.728 395.487 165.825 396.189 166.45 396.777L168.895 394.39C167.394 392.994 165.44 392.138 163.101 392.138C159.713 392.138 156.788 394.082 155.363 396.911L158.164 399.086C158.867 396.998 160.811 395.487 163.101 395.487Z" fill="white"/>
<rect x="144.594" y="382.294" width="37.0125" height="37.0125" rx="18.5063" stroke="#4E4D52" stroke-width="0.7875"/>
<rect x="194.993" y="382.294" width="37.0125" height="37.0125" rx="18.5063" fill="#2B2B2B"/>
<path d="M222.949 394.94C222.253 395.248 221.506 395.457 220.722 395.55C221.522 395.07 222.137 394.311 222.427 393.405C221.666 393.857 220.833 394.175 219.964 394.346C219.257 393.593 218.249 393.122 217.134 393.122C214.993 393.122 213.256 394.858 213.256 396.999C213.256 397.303 213.291 397.599 213.357 397.883C210.134 397.721 207.277 396.177 205.365 393.831C205.031 394.404 204.84 395.07 204.84 395.781C204.84 397.126 205.524 398.313 206.565 399.008C205.949 398.989 205.347 398.823 204.808 398.523C204.808 398.539 204.808 398.556 204.808 398.572C204.808 400.451 206.145 402.018 207.918 402.374C207.347 402.529 206.748 402.552 206.167 402.441C206.661 403.981 208.093 405.102 209.789 405.133C208.462 406.173 206.79 406.793 204.974 406.793C204.661 406.793 204.352 406.775 204.049 406.739C205.765 407.839 207.803 408.481 209.993 408.481C217.125 408.481 221.025 402.573 221.025 397.449C221.025 397.281 221.021 397.113 221.014 396.947C221.773 396.398 222.428 395.719 222.949 394.94Z" fill="white"/>
<rect x="194.993" y="382.294" width="37.0125" height="37.0125" rx="18.5063" stroke="#4E4D52" stroke-width="0.7875"/>
<rect x="245.394" y="382.294" width="37.0125" height="37.0125" rx="18.5063" fill="#2B2B2B"/>
<path d="M270.459 394.912C269.218 394.344 267.907 393.94 266.56 393.712C266.376 394.042 266.209 394.381 266.061 394.728C264.626 394.512 263.168 394.512 261.733 394.728C261.585 394.381 261.418 394.042 261.234 393.712C259.886 393.942 258.575 394.346 257.332 394.915C254.864 398.566 254.195 402.126 254.529 405.636C255.975 406.704 257.592 407.516 259.312 408.037C259.699 407.516 260.042 406.964 260.336 406.385C259.777 406.176 259.237 405.919 258.723 405.615C258.858 405.517 258.991 405.416 259.118 405.318C260.614 406.021 262.246 406.386 263.899 406.386C265.552 406.386 267.184 406.021 268.68 405.318C268.809 405.423 268.942 405.525 269.075 405.615C268.56 405.919 268.02 406.177 267.459 406.387C267.754 406.965 268.096 407.517 268.484 408.037C270.205 407.518 271.823 406.706 273.269 405.637C273.661 401.567 272.598 398.04 270.459 394.912ZM260.76 403.478C259.828 403.478 259.058 402.632 259.058 401.591C259.058 400.551 259.801 399.697 260.757 399.697C261.712 399.697 262.477 400.551 262.46 401.591C262.444 402.632 261.71 403.478 260.76 403.478ZM267.039 403.478C266.105 403.478 265.338 402.632 265.338 401.591C265.338 400.551 266.081 399.697 267.039 399.697C267.996 399.697 268.754 400.551 268.738 401.591C268.722 402.632 267.989 403.478 267.039 403.478Z" fill="white"/>
<rect x="245.394" y="382.294" width="37.0125" height="37.0125" rx="18.5063" stroke="#4E4D52" stroke-width="0.7875"/>
</g>
<mask id="mask0_9873_77031" style="mask-type:alpha" maskUnits="userSpaceOnUse" x="247" y="193" width="273" height="367">
<rect width="273" height="367" transform="matrix(1 0 0 -1 247 560)" fill="url(#paint0_linear_9873_77031)"/>
</mask>
<g mask="url(#mask0_9873_77031)">
<g filter="url(#filter3_d_9873_77031)">
<rect x="295" y="272" width="89" height="26" rx="13" fill="white"/>
<circle cx="310" cy="285.004" r="9" fill="#6BD8FE"/>
<path d="M328.833 289.004L330.162 280.904H331.111L329.782 289.004H328.833ZM325.166 286.837L325.32 285.887H331.459L331.305 286.837H325.166ZM325.985 289.004L327.314 280.904H328.263L326.934 289.004H325.985ZM325.637 284.021L325.791 283.071H331.93L331.775 284.021H325.637Z" fill="#18171A"/>
<path d="M335.944 280.904V289.004H334.718V282.13H334.671L332.733 283.396V282.225L334.754 280.904H335.944Z" fill="#18171A"/>
<path d="M340.873 289.115C340.306 289.115 339.805 289.017 339.37 288.822C338.937 288.627 338.598 288.358 338.353 288.015C338.108 287.673 337.987 287.282 337.989 286.845C337.987 286.502 338.056 286.187 338.199 285.899C338.344 285.609 338.54 285.368 338.788 285.175C339.036 284.98 339.313 284.856 339.619 284.804V284.756C339.215 284.659 338.892 284.442 338.65 284.108C338.407 283.773 338.287 283.388 338.29 282.953C338.287 282.539 338.397 282.169 338.618 281.845C338.842 281.518 339.149 281.261 339.54 281.074C339.93 280.887 340.374 280.793 340.873 280.793C341.366 280.793 341.806 280.888 342.194 281.078C342.584 281.265 342.891 281.522 343.115 281.849C343.339 282.173 343.453 282.541 343.455 282.953C343.453 283.388 343.329 283.773 343.084 284.108C342.838 284.442 342.519 284.659 342.126 284.756V284.804C342.43 284.856 342.703 284.98 342.945 285.175C343.19 285.368 343.386 285.609 343.531 285.899C343.678 286.187 343.753 286.502 343.756 286.845C343.753 287.282 343.63 287.673 343.384 288.015C343.139 288.358 342.799 288.627 342.364 288.822C341.931 289.017 341.434 289.115 340.873 289.115ZM340.873 288.114C341.208 288.114 341.498 288.059 341.743 287.948C341.988 287.835 342.178 287.678 342.312 287.477C342.447 287.274 342.515 287.037 342.518 286.766C342.515 286.483 342.442 286.234 342.297 286.018C342.154 285.802 341.96 285.632 341.715 285.508C341.47 285.384 341.189 285.322 340.873 285.322C340.554 285.322 340.27 285.384 340.022 285.508C339.774 285.632 339.579 285.802 339.437 286.018C339.294 286.234 339.225 286.483 339.227 286.766C339.225 287.037 339.289 287.274 339.421 287.477C339.556 287.678 339.747 287.835 339.995 287.948C340.242 288.059 340.535 288.114 340.873 288.114ZM340.873 284.345C341.142 284.345 341.38 284.291 341.589 284.183C341.797 284.075 341.96 283.924 342.079 283.732C342.2 283.539 342.262 283.314 342.265 283.055C342.262 282.802 342.202 282.581 342.083 282.391C341.967 282.201 341.805 282.055 341.596 281.952C341.388 281.846 341.147 281.794 340.873 281.794C340.593 281.794 340.348 281.846 340.137 281.952C339.929 282.055 339.766 282.201 339.65 282.391C339.534 282.581 339.478 282.802 339.48 283.055C339.478 283.314 339.536 283.539 339.654 283.732C339.773 283.924 339.937 284.075 340.145 284.183C340.356 284.291 340.598 284.345 340.873 284.345Z" fill="#18171A"/>
<path d="M345.284 289.004V280.904H348.25C348.825 280.904 349.301 280.999 349.678 281.189C350.055 281.376 350.337 281.63 350.525 281.952C350.712 282.271 350.805 282.631 350.805 283.032C350.805 283.369 350.744 283.654 350.62 283.886C350.496 284.115 350.33 284.3 350.121 284.44C349.916 284.577 349.689 284.677 349.441 284.74V284.82C349.71 284.833 349.972 284.92 350.228 285.081C350.486 285.239 350.7 285.464 350.869 285.757C351.038 286.05 351.122 286.406 351.122 286.825C351.122 287.239 351.024 287.611 350.829 287.94C350.637 288.267 350.339 288.527 349.935 288.719C349.532 288.909 349.016 289.004 348.389 289.004H345.284ZM346.506 287.956H348.27C348.856 287.956 349.275 287.843 349.528 287.616C349.781 287.389 349.908 287.106 349.908 286.766C349.908 286.51 349.843 286.275 349.714 286.061C349.585 285.848 349.4 285.678 349.16 285.551C348.923 285.425 348.641 285.361 348.314 285.361H346.506V287.956ZM346.506 284.408H348.144C348.418 284.408 348.664 284.355 348.883 284.25C349.105 284.144 349.28 283.997 349.409 283.807C349.541 283.614 349.607 283.388 349.607 283.127C349.607 282.792 349.49 282.511 349.255 282.284C349.02 282.057 348.66 281.944 348.175 281.944H346.506V284.408Z" fill="#18171A"/>
<path d="M352.461 289.004V288.118L355.202 285.278C355.495 284.97 355.736 284.7 355.926 284.467C356.118 284.233 356.262 284.01 356.357 283.799C356.452 283.588 356.499 283.364 356.499 283.127C356.499 282.858 356.436 282.626 356.309 282.43C356.183 282.233 356.01 282.081 355.791 281.976C355.572 281.868 355.326 281.813 355.052 281.813C354.761 281.813 354.508 281.873 354.292 281.991C354.076 282.11 353.91 282.278 353.794 282.494C353.678 282.71 353.62 282.963 353.62 283.253H352.453C352.453 282.76 352.566 282.329 352.793 281.96C353.02 281.591 353.331 281.305 353.727 281.101C354.122 280.896 354.572 280.793 355.075 280.793C355.584 280.793 356.032 280.894 356.42 281.098C356.81 281.298 357.115 281.572 357.334 281.92C357.553 282.266 357.662 282.656 357.662 283.091C357.662 283.392 357.605 283.686 357.492 283.973C357.381 284.26 357.187 284.581 356.911 284.934C356.634 285.285 356.249 285.711 355.756 286.212L354.146 287.897V287.956H357.793V289.004H352.461Z" fill="#18171A"/>
<path d="M359.402 289.004V280.904H364.481V281.956H360.625V284.424H364.216V285.472H360.625V287.952H364.529V289.004H359.402Z" fill="#18171A"/>
<path d="M368.823 289.115C368.28 289.115 367.795 289.021 367.367 288.834C366.943 288.647 366.607 288.387 366.359 288.055C366.114 287.72 365.982 287.332 365.963 286.892H367.205C367.221 287.132 367.302 287.34 367.447 287.517C367.594 287.691 367.787 287.826 368.024 287.92C368.261 288.015 368.525 288.063 368.815 288.063C369.134 288.063 369.416 288.008 369.662 287.897C369.909 287.786 370.103 287.632 370.243 287.434C370.383 287.234 370.453 287.003 370.453 286.742C370.453 286.47 370.383 286.232 370.243 286.026C370.106 285.818 369.904 285.654 369.638 285.535C369.374 285.417 369.055 285.357 368.681 285.357H367.996V284.361H368.681C368.981 284.361 369.245 284.307 369.472 284.199C369.701 284.09 369.88 283.94 370.01 283.748C370.139 283.552 370.203 283.324 370.203 283.063C370.203 282.813 370.147 282.595 370.033 282.411C369.923 282.223 369.764 282.077 369.559 281.972C369.356 281.866 369.116 281.813 368.839 281.813C368.575 281.813 368.329 281.862 368.099 281.96C367.872 282.055 367.688 282.192 367.545 282.371C367.403 282.548 367.327 282.76 367.316 283.008H366.133C366.147 282.57 366.276 282.185 366.521 281.853C366.769 281.521 367.096 281.261 367.502 281.074C367.908 280.887 368.359 280.793 368.855 280.793C369.374 280.793 369.822 280.894 370.199 281.098C370.579 281.298 370.872 281.566 371.078 281.9C371.286 282.235 371.389 282.602 371.386 283C371.389 283.454 371.262 283.839 371.006 284.155C370.753 284.471 370.416 284.684 369.994 284.792V284.855C370.532 284.937 370.948 285.15 371.244 285.496C371.542 285.841 371.689 286.27 371.687 286.781C371.689 287.227 371.565 287.626 371.315 287.98C371.067 288.333 370.728 288.611 370.298 288.814C369.869 289.015 369.377 289.115 368.823 289.115Z" fill="#18171A"/>
<rect x="395" y="272.327" width="85" height="26" rx="13" fill="white"/>
<path d="M421.508 285C421.508 286.937 419.937 288.508 418 288.508C416.063 288.508 414.492 286.937 414.492 285C414.492 283.063 416.063 281.492 418 281.492C419.937 281.492 421.508 283.063 421.508 285Z" stroke="#77767A" stroke-width="1.6"/>
<path d="M418 277V279.462" stroke="#77767A" stroke-width="1.6"/>
<path d="M418 290.539V293" stroke="#77767A" stroke-width="1.6"/>
<path d="M410 285H412.462" stroke="#77767A" stroke-width="1.6"/>
<path d="M423.539 285H426.001" stroke="#77767A" stroke-width="1.6"/>
<path d="M412.462 279.461L414.202 281.202" stroke="#77767A" stroke-width="1.6"/>
<path d="M422.034 289.035L423.775 290.775" stroke="#77767A" stroke-width="1.6"/>
<path d="M423.774 279.461L422.034 281.202" stroke="#77767A" stroke-width="1.6"/>
<path d="M414.201 289.035L412.461 290.775" stroke="#77767A" stroke-width="1.6"/>
<rect x="439" y="274" width="39" height="22" rx="11" fill="#6851FF"/>
<path d="M464 285.959L464.789 286.09L464.996 284.847L463.783 285.189L464 285.959ZM457.043 279L457.813 279.217L458.154 278.004L456.911 278.211L457.043 279ZM463.783 285.189C463.366 285.306 462.926 285.369 462.469 285.369V286.969C463.074 286.969 463.66 286.885 464.217 286.729L463.783 285.189ZM462.469 285.369C459.798 285.369 457.632 283.203 457.632 280.532H456.032C456.032 284.087 458.914 286.969 462.469 286.969V285.369ZM457.632 280.532C457.632 280.075 457.695 279.634 457.813 279.217L456.273 278.783C456.116 279.34 456.032 279.927 456.032 280.532H457.632ZM452.8 284.959C452.8 282.36 454.692 280.202 457.174 279.789L456.911 278.211C453.671 278.75 451.2 281.565 451.2 284.959H452.8ZM458.041 290.2C455.147 290.2 452.8 287.854 452.8 284.959H451.2C451.2 288.737 454.263 291.8 458.041 291.8V290.2ZM463.211 285.827C462.798 288.308 460.639 290.2 458.041 290.2V291.8C461.434 291.8 464.249 289.33 464.789 286.09L463.211 285.827Z" fill="white"/>
<g filter="url(#filter4_bd_9873_77031)">
<rect x="295" y="314" width="185" height="37.8269" rx="8.3357" fill="white"/>
<path fill-rule="evenodd" clip-rule="evenodd" d="M309.479 328.458C309.479 327.433 310.311 326.602 311.336 326.602H323.217C324.242 326.602 325.074 327.433 325.074 328.458V337.369C325.074 338.394 324.242 339.226 323.217 339.226H311.336C310.311 339.226 309.479 338.394 309.479 337.369V328.458ZM311.286 328.375C311.035 328.197 310.687 328.257 310.51 328.508C310.332 328.76 310.392 329.107 310.644 329.285L316.099 333.135C316.805 333.634 317.748 333.634 318.454 333.135L323.909 329.285C324.161 329.107 324.22 328.76 324.043 328.508C323.866 328.257 323.518 328.197 323.267 328.375L317.812 332.225C317.491 332.452 317.062 332.452 316.741 332.225L311.286 328.375Z" fill="#6851FF"/>
<path d="M335.098 337.059V328.958H340.176V330.01H336.32V332.478H339.911V333.527H336.32V336.007H340.224V337.059H335.098Z" fill="#18171A"/>
<path d="M341.714 337.059V330.983H342.849V331.972H342.924C343.051 331.637 343.258 331.376 343.545 331.189C343.833 330.999 344.177 330.904 344.578 330.904C344.984 330.904 345.324 330.999 345.598 331.189C345.875 331.379 346.079 331.64 346.211 331.972H346.274C346.419 331.648 346.65 331.389 346.967 331.197C347.283 331.002 347.66 330.904 348.098 330.904C348.649 330.904 349.099 331.077 349.447 331.422C349.797 331.768 349.973 332.289 349.973 332.985V337.059H348.79V333.095C348.79 332.684 348.678 332.386 348.454 332.202C348.23 332.017 347.962 331.925 347.651 331.925C347.266 331.925 346.967 332.043 346.753 332.281C346.539 332.515 346.433 332.817 346.433 333.186V337.059H345.254V333.02C345.254 332.691 345.151 332.426 344.945 332.225C344.74 332.025 344.472 331.925 344.143 331.925C343.918 331.925 343.711 331.984 343.522 332.103C343.334 332.219 343.183 332.381 343.067 332.589C342.953 332.797 342.897 333.039 342.897 333.313V337.059H341.714Z" fill="#18171A"/>
<path d="M353.326 337.193C352.941 337.193 352.593 337.122 352.282 336.98C351.97 336.835 351.724 336.625 351.542 336.351C351.363 336.076 351.273 335.74 351.273 335.342C351.273 334.999 351.339 334.717 351.471 334.496C351.603 334.274 351.781 334.099 352.005 333.97C352.229 333.84 352.479 333.743 352.756 333.677C353.033 333.611 353.315 333.561 353.603 333.527C353.967 333.484 354.262 333.45 354.489 333.424C354.715 333.395 354.88 333.349 354.983 333.285C355.086 333.222 355.137 333.119 355.137 332.977V332.949C355.137 332.604 355.04 332.336 354.845 332.146C354.652 331.956 354.365 331.861 353.982 331.861C353.584 331.861 353.27 331.95 353.041 332.126C352.814 332.3 352.657 332.494 352.57 332.708L351.459 332.455C351.591 332.085 351.783 331.788 352.036 331.561C352.292 331.331 352.586 331.165 352.918 331.062C353.251 330.957 353.6 330.904 353.967 330.904C354.209 330.904 354.466 330.933 354.738 330.991C355.012 331.047 355.268 331.149 355.505 331.3C355.745 331.45 355.942 331.665 356.095 331.944C356.247 332.221 356.324 332.581 356.324 333.024V337.059H355.169V336.228H355.122C355.045 336.381 354.93 336.531 354.777 336.679C354.624 336.827 354.428 336.949 354.188 337.047C353.948 337.144 353.661 337.193 353.326 337.193ZM353.583 336.244C353.91 336.244 354.189 336.179 354.421 336.05C354.656 335.921 354.834 335.752 354.955 335.544C355.079 335.333 355.141 335.107 355.141 334.867V334.084C355.099 334.126 355.017 334.166 354.896 334.203C354.777 334.237 354.642 334.268 354.489 334.294C354.336 334.318 354.187 334.34 354.042 334.361C353.897 334.38 353.775 334.395 353.678 334.409C353.448 334.438 353.239 334.486 353.049 334.555C352.862 334.623 352.711 334.722 352.598 334.852C352.487 334.978 352.432 335.147 352.432 335.358C352.432 335.651 352.54 335.872 352.756 336.022C352.972 336.17 353.248 336.244 353.583 336.244Z" fill="#18171A"/>
<path d="M357.899 337.059V330.983H359.082V337.059H357.899ZM358.496 330.046C358.291 330.046 358.114 329.977 357.966 329.84C357.821 329.7 357.749 329.534 357.749 329.342C357.749 329.147 357.821 328.981 357.966 328.843C358.114 328.704 358.291 328.634 358.496 328.634C358.702 328.634 358.877 328.704 359.022 328.843C359.17 328.981 359.244 329.147 359.244 329.342C359.244 329.534 359.17 329.7 359.022 329.84C358.877 329.977 358.702 330.046 358.496 330.046Z" fill="#18171A"/>
<path d="M361.856 328.958V337.059H360.673V328.958H361.856Z" fill="#18171A"/>
<path d="M442.262 332.913C442.262 329.838 444.755 327.344 447.831 327.344H461.197C464.272 327.344 466.766 329.838 466.766 332.913C466.766 335.989 464.272 338.482 461.197 338.482H447.831C444.755 338.482 442.262 335.989 442.262 332.913Z" fill="#6851FF"/>
<circle cx="461.197" cy="332.913" r="4.45529" fill="white"/>
</g>
<g filter="url(#filter5_bd_9873_77031)">
<rect x="295" y="361.83" width="185" height="37.8269" rx="8.3357" fill="white"/>
<path fill-rule="evenodd" clip-rule="evenodd" d="M325.073 380.558C325.073 384.966 321.499 388.54 317.091 388.54C315.922 388.54 314.812 388.289 313.811 387.837C313.582 387.734 313.328 387.696 313.082 387.745L310.356 388.291C309.766 388.408 309.249 387.884 309.375 387.296L309.938 384.666C309.993 384.411 309.954 384.146 309.844 383.909C309.372 382.89 309.108 381.755 309.108 380.558C309.108 376.149 312.682 372.575 317.091 372.575C321.499 372.575 325.073 376.149 325.073 380.558ZM313.1 381.755C313.651 381.755 314.097 381.308 314.097 380.757C314.097 380.206 313.651 379.759 313.1 379.759C312.549 379.759 312.102 380.206 312.102 380.757C312.102 381.308 312.549 381.755 313.1 381.755ZM318.089 380.757C318.089 381.308 317.642 381.755 317.091 381.755C316.54 381.755 316.093 381.308 316.093 380.757C316.093 380.206 316.54 379.759 317.091 379.759C317.642 379.759 318.089 380.206 318.089 380.757ZM321.082 381.755C321.633 381.755 322.08 381.308 322.08 380.757C322.08 380.206 321.633 379.759 321.082 379.759C320.531 379.759 320.084 380.206 320.084 380.757C320.084 381.308 320.531 381.755 321.082 381.755Z" fill="#6851FF"/>
<path d="M339.836 378.809C339.794 378.435 339.62 378.145 339.314 377.939C339.008 377.731 338.623 377.626 338.159 377.626C337.827 377.626 337.539 377.679 337.297 377.785C337.054 377.887 336.866 378.03 336.731 378.212C336.599 378.391 336.533 378.595 336.533 378.825C336.533 379.017 336.578 379.183 336.668 379.323C336.76 379.463 336.88 379.58 337.028 379.675C337.178 379.768 337.339 379.845 337.51 379.909C337.682 379.969 337.847 380.019 338.005 380.059L338.796 380.265C339.054 380.328 339.319 380.414 339.591 380.522C339.863 380.63 340.114 380.772 340.346 380.949C340.578 381.126 340.766 381.344 340.908 381.605C341.053 381.867 341.126 382.179 341.126 382.543C341.126 383.002 341.007 383.409 340.77 383.765C340.535 384.121 340.193 384.402 339.745 384.608C339.3 384.813 338.76 384.916 338.127 384.916C337.521 384.916 336.996 384.82 336.553 384.627C336.11 384.435 335.763 384.162 335.513 383.809C335.262 383.453 335.124 383.031 335.098 382.543H336.324C336.348 382.836 336.442 383.079 336.609 383.275C336.777 383.467 336.992 383.611 337.253 383.706C337.517 383.798 337.806 383.844 338.12 383.844C338.465 383.844 338.772 383.79 339.041 383.682C339.313 383.571 339.526 383.418 339.682 383.223C339.837 383.025 339.915 382.795 339.915 382.531C339.915 382.291 339.847 382.095 339.71 381.942C339.575 381.789 339.392 381.662 339.16 381.562C338.93 381.462 338.671 381.373 338.381 381.297L337.423 381.036C336.775 380.859 336.261 380.599 335.881 380.257C335.504 379.914 335.315 379.46 335.315 378.896C335.315 378.429 335.442 378.022 335.695 377.674C335.948 377.326 336.291 377.056 336.723 376.863C337.156 376.668 337.644 376.57 338.187 376.57C338.735 376.57 339.219 376.667 339.638 376.859C340.06 377.052 340.393 377.317 340.635 377.654C340.878 377.989 341.004 378.374 341.015 378.809H339.836Z" fill="#18171A"/>
<path d="M342.586 376.681H344.069L346.648 382.978H346.743L349.322 376.681H350.805V384.782H349.642V378.92H349.567L347.178 384.77H346.213L343.824 378.916H343.749V384.782H342.586V376.681Z" fill="#18171A"/>
<path d="M357 378.809C356.958 378.435 356.784 378.145 356.478 377.939C356.172 377.731 355.787 377.626 355.323 377.626C354.991 377.626 354.704 377.679 354.461 377.785C354.218 377.887 354.03 378.03 353.895 378.212C353.764 378.391 353.698 378.595 353.698 378.825C353.698 379.017 353.742 379.183 353.832 379.323C353.924 379.463 354.044 379.58 354.192 379.675C354.342 379.768 354.503 379.845 354.675 379.909C354.846 379.969 355.011 380.019 355.169 380.059L355.96 380.265C356.218 380.328 356.483 380.414 356.755 380.522C357.027 380.63 357.279 380.772 357.511 380.949C357.743 381.126 357.93 381.344 358.072 381.605C358.217 381.867 358.29 382.179 358.29 382.543C358.29 383.002 358.171 383.409 357.934 383.765C357.699 384.121 357.358 384.402 356.909 384.608C356.464 384.813 355.924 384.916 355.292 384.916C354.685 384.916 354.16 384.82 353.717 384.627C353.274 384.435 352.928 384.162 352.677 383.809C352.427 383.453 352.288 383.031 352.262 382.543H353.488C353.512 382.836 353.607 383.079 353.773 383.275C353.942 383.467 354.156 383.611 354.417 383.706C354.681 383.798 354.97 383.844 355.284 383.844C355.629 383.844 355.936 383.79 356.205 383.682C356.477 383.571 356.69 383.418 356.846 383.223C357.002 383.025 357.079 382.795 357.079 382.531C357.079 382.291 357.011 382.095 356.874 381.942C356.739 381.789 356.556 381.662 356.324 381.562C356.095 381.462 355.835 381.373 355.545 381.297L354.588 381.036C353.939 380.859 353.425 380.599 353.045 380.257C352.668 379.914 352.479 379.46 352.479 378.896C352.479 378.429 352.606 378.022 352.859 377.674C353.112 377.326 353.455 377.056 353.887 376.863C354.32 376.668 354.808 376.57 355.351 376.57C355.899 376.57 356.383 376.667 356.803 376.859C357.224 377.052 357.557 377.317 357.799 377.654C358.042 377.989 358.168 378.374 358.179 378.809H357Z" fill="#18171A"/>
<path d="M442.696 380.743C442.696 377.667 445.19 375.174 448.265 375.174H461.631C464.707 375.174 467.2 377.667 467.2 380.743C467.2 383.819 464.707 386.312 461.631 386.312H448.265C445.19 386.312 442.696 383.819 442.696 380.743Z" fill="#6851FF"/>
<circle cx="461.631" cy="380.743" r="4.45529" fill="white"/>
</g>
<g filter="url(#filter6_bd_9873_77031)">
<rect x="295" y="409.659" width="185" height="37.8269" rx="8.3357" fill="white"/>
<path d="M325.114 428.752C325.114 428.08 325.06 427.59 324.942 427.082H317.273V430.113H321.775C321.684 430.866 321.194 432.001 320.105 432.763L320.09 432.864L322.514 434.743L322.682 434.759C324.225 433.335 325.114 431.238 325.114 428.752Z" fill="#4285F4"/>
<path d="M317.276 436.741C319.481 436.741 321.332 436.015 322.684 434.763L320.107 432.766C319.417 433.247 318.492 433.583 317.276 433.583C315.116 433.583 313.283 432.158 312.629 430.189L312.534 430.197L310.012 432.148L309.979 432.24C311.323 434.908 314.081 436.741 317.276 436.741Z" fill="#34A853"/>
<path d="M312.629 430.19C312.457 429.681 312.357 429.137 312.357 428.574C312.357 428.011 312.457 427.467 312.62 426.959L312.616 426.851L310.063 424.868L309.98 424.908C309.426 426.015 309.108 427.258 309.108 428.574C309.108 429.89 309.426 431.133 309.98 432.24L312.629 430.19Z" fill="#FBBC05"/>
<path d="M317.276 423.563C318.809 423.563 319.844 424.225 320.434 424.779L322.739 422.528C321.323 421.212 319.481 420.405 317.276 420.405C314.081 420.405 311.323 422.238 309.979 424.906L312.62 426.957C313.283 424.988 315.116 423.563 317.276 423.563Z" fill="#EB4335"/>
<path d="M340.841 425.935C340.764 425.695 340.661 425.48 340.532 425.29C340.406 425.097 340.254 424.934 340.077 424.799C339.901 424.662 339.699 424.558 339.472 424.487C339.248 424.416 339.002 424.38 338.733 424.38C338.276 424.38 337.865 424.497 337.499 424.732C337.132 424.967 336.842 425.311 336.628 425.764C336.417 426.215 336.312 426.768 336.312 427.422C336.312 428.078 336.419 428.633 336.632 429.087C336.846 429.54 337.139 429.885 337.51 430.119C337.882 430.354 338.305 430.471 338.78 430.471C339.22 430.471 339.604 430.382 339.931 430.202C340.261 430.023 340.515 429.77 340.694 429.443C340.876 429.113 340.967 428.726 340.967 428.28L341.284 428.339H338.966V427.331H342.15V428.252C342.15 428.933 342.005 429.523 341.715 430.024C341.428 430.523 341.029 430.908 340.52 431.179C340.014 431.451 339.434 431.587 338.78 431.587C338.047 431.587 337.404 431.418 336.85 431.08C336.299 430.743 335.869 430.264 335.56 429.645C335.252 429.022 335.098 428.284 335.098 427.43C335.098 426.784 335.187 426.203 335.367 425.689C335.546 425.175 335.798 424.739 336.122 424.38C336.449 424.019 336.833 423.743 337.273 423.553C337.716 423.361 338.2 423.265 338.725 423.265C339.162 423.265 339.57 423.329 339.947 423.458C340.327 423.588 340.664 423.771 340.959 424.008C341.257 424.246 341.504 424.528 341.699 424.855C341.894 425.179 342.026 425.539 342.095 425.935H340.841Z" fill="#18171A"/>
<path d="M346.166 431.599C345.596 431.599 345.099 431.468 344.675 431.207C344.25 430.946 343.92 430.581 343.686 430.111C343.451 429.642 343.334 429.093 343.334 428.466C343.334 427.836 343.451 427.285 343.686 426.813C343.92 426.341 344.25 425.974 344.675 425.713C345.099 425.452 345.596 425.321 346.166 425.321C346.735 425.321 347.232 425.452 347.657 425.713C348.081 425.974 348.411 426.341 348.646 426.813C348.88 427.285 348.998 427.836 348.998 428.466C348.998 429.093 348.88 429.642 348.646 430.111C348.411 430.581 348.081 430.946 347.657 431.207C347.232 431.468 346.735 431.599 346.166 431.599ZM346.17 430.606C346.539 430.606 346.845 430.508 347.087 430.313C347.33 430.118 347.509 429.858 347.625 429.534C347.744 429.21 347.803 428.852 347.803 428.462C347.803 428.074 347.744 427.718 347.625 427.394C347.509 427.067 347.33 426.805 347.087 426.607C346.845 426.409 346.539 426.31 346.17 426.31C345.798 426.31 345.489 426.409 345.244 426.607C345.001 426.805 344.821 427.067 344.702 427.394C344.586 427.718 344.528 428.074 344.528 428.462C344.528 428.852 344.586 429.21 344.702 429.534C344.821 429.858 345.001 430.118 345.244 430.313C345.489 430.508 345.798 430.606 346.17 430.606Z" fill="#18171A"/>
<path d="M352.877 431.599C352.307 431.599 351.81 431.468 351.386 431.207C350.961 430.946 350.632 430.581 350.397 430.111C350.162 429.642 350.045 429.093 350.045 428.466C350.045 427.836 350.162 427.285 350.397 426.813C350.632 426.341 350.961 425.974 351.386 425.713C351.81 425.452 352.307 425.321 352.877 425.321C353.446 425.321 353.944 425.452 354.368 425.713C354.793 425.974 355.122 426.341 355.357 426.813C355.592 427.285 355.709 427.836 355.709 428.466C355.709 429.093 355.592 429.642 355.357 430.111C355.122 430.581 354.793 430.946 354.368 431.207C353.944 431.468 353.446 431.599 352.877 431.599ZM352.881 430.606C353.25 430.606 353.556 430.508 353.798 430.313C354.041 430.118 354.22 429.858 354.336 429.534C354.455 429.21 354.514 428.852 354.514 428.462C354.514 428.074 354.455 427.718 354.336 427.394C354.22 427.067 354.041 426.805 353.798 426.607C353.556 426.409 353.25 426.31 352.881 426.31C352.509 426.31 352.201 426.409 351.955 426.607C351.713 426.805 351.532 427.067 351.413 427.394C351.297 427.718 351.239 428.074 351.239 428.462C351.239 428.852 351.297 429.21 351.413 429.534C351.532 429.858 351.713 430.118 351.955 430.313C352.201 430.508 352.509 430.606 352.881 430.606Z" fill="#18171A"/>
<path d="M359.576 433.881C359.094 433.881 358.678 433.817 358.33 433.691C357.985 433.564 357.703 433.397 357.484 433.189C357.265 432.98 357.102 432.752 356.993 432.504L358.01 432.085C358.081 432.201 358.176 432.324 358.295 432.453C358.416 432.585 358.579 432.697 358.785 432.789C358.993 432.881 359.261 432.928 359.588 432.928C360.036 432.928 360.407 432.818 360.7 432.599C360.992 432.383 361.139 432.038 361.139 431.563V430.368H361.063C360.992 430.498 360.889 430.641 360.755 430.8C360.623 430.958 360.441 431.095 360.209 431.211C359.977 431.327 359.675 431.385 359.303 431.385C358.823 431.385 358.391 431.273 358.006 431.049C357.624 430.822 357.32 430.488 357.096 430.048C356.875 429.605 356.764 429.061 356.764 428.414C356.764 427.768 356.873 427.215 357.092 426.753C357.314 426.292 357.617 425.938 358.002 425.693C358.387 425.445 358.823 425.321 359.311 425.321C359.688 425.321 359.993 425.385 360.225 425.511C360.457 425.635 360.638 425.78 360.767 425.946C360.899 426.112 361 426.259 361.071 426.385H361.158V425.401H362.317V431.61C362.317 432.133 362.196 432.561 361.953 432.896C361.711 433.231 361.383 433.479 360.969 433.639C360.557 433.8 360.093 433.881 359.576 433.881ZM359.564 430.404C359.905 430.404 360.192 430.325 360.427 430.167C360.664 430.006 360.843 429.776 360.965 429.478C361.088 429.178 361.15 428.818 361.15 428.399C361.15 427.99 361.09 427.63 360.969 427.319C360.847 427.008 360.669 426.765 360.435 426.591C360.2 426.414 359.91 426.326 359.564 426.326C359.208 426.326 358.912 426.418 358.674 426.603C358.437 426.785 358.258 427.033 358.136 427.347C358.018 427.66 357.959 428.011 357.959 428.399C357.959 428.797 358.019 429.146 358.14 429.447C358.262 429.747 358.441 429.982 358.678 430.151C358.918 430.32 359.214 430.404 359.564 430.404Z" fill="#18171A"/>
<path d="M365.086 423.375V431.476H363.903V423.375H365.086Z" fill="#18171A"/>
<path d="M369.295 431.599C368.697 431.599 368.181 431.471 367.749 431.215C367.319 430.956 366.987 430.594 366.752 430.127C366.52 429.658 366.404 429.108 366.404 428.478C366.404 427.855 366.52 427.307 366.752 426.832C366.987 426.358 367.314 425.987 367.733 425.721C368.155 425.455 368.648 425.321 369.212 425.321C369.555 425.321 369.887 425.378 370.209 425.492C370.531 425.605 370.82 425.783 371.075 426.025C371.331 426.268 371.533 426.583 371.681 426.971C371.828 427.356 371.902 427.824 371.902 428.375V428.794H367.073V427.908H370.743C370.743 427.597 370.68 427.322 370.553 427.082C370.427 426.839 370.249 426.648 370.019 426.508C369.793 426.368 369.526 426.298 369.22 426.298C368.888 426.298 368.598 426.38 368.35 426.544C368.105 426.704 367.915 426.915 367.781 427.176C367.649 427.435 367.583 427.716 367.583 428.019V428.711C367.583 429.117 367.654 429.463 367.796 429.747C367.941 430.032 368.143 430.25 368.402 430.4C368.66 430.548 368.962 430.622 369.307 430.622C369.531 430.622 369.736 430.59 369.92 430.527C370.105 430.461 370.265 430.363 370.399 430.234C370.534 430.105 370.636 429.945 370.708 429.755L371.827 429.957C371.737 430.287 371.576 430.575 371.344 430.823C371.115 431.069 370.826 431.26 370.478 431.397C370.133 431.531 369.738 431.599 369.295 431.599Z" fill="#18171A"/>
<path d="M442.309 428.573C442.309 425.497 444.802 423.003 447.878 423.003H461.244C464.319 423.003 466.813 425.497 466.813 428.573C466.813 431.648 464.319 434.142 461.244 434.142H447.878C444.802 434.142 442.309 431.648 442.309 428.573Z" fill="#6851FF"/>
<circle cx="461.243" cy="428.572" r="4.45529" fill="white"/>
</g>
<g filter="url(#filter7_bd_9873_77031)">
<rect x="295" y="457.489" width="185" height="38.1901" rx="8.3357" fill="white"/>
<path d="M326.551 470.946C325.881 471.243 325.162 471.443 324.408 471.534C325.178 471.072 325.77 470.341 326.048 469.47C325.316 469.904 324.515 470.21 323.679 470.375C322.999 469.65 322.029 469.197 320.956 469.197C318.896 469.197 317.225 470.867 317.225 472.927C317.225 473.22 317.258 473.505 317.322 473.778C314.221 473.622 311.472 472.137 309.632 469.88C309.311 470.431 309.127 471.072 309.127 471.755C309.127 473.05 309.786 474.191 310.787 474.861C310.194 474.842 309.615 474.682 309.097 474.394C309.097 474.409 309.097 474.425 309.097 474.441C309.097 476.248 310.383 477.756 312.089 478.099C311.54 478.248 310.964 478.27 310.404 478.163C310.879 479.645 312.257 480.724 313.89 480.754C312.613 481.754 311.004 482.351 309.256 482.351C308.955 482.351 308.658 482.333 308.366 482.299C310.017 483.357 311.978 483.975 314.085 483.975C320.947 483.975 324.7 478.29 324.7 473.36C324.7 473.198 324.696 473.037 324.689 472.877C325.419 472.349 326.05 471.695 326.551 470.946Z" fill="#55ACEE"/>
<path d="M335.461 473.687V472.635H341.73V473.687H339.203V480.735H337.984V473.687H335.461Z" fill="#18171A"/>
<path d="M343.642 480.735L341.854 474.66H343.076L344.267 479.122H344.326L345.52 474.66H346.743L347.929 479.102H347.988L349.171 474.66H350.393L348.609 480.735H347.403L346.169 476.349H346.078L344.844 480.735H343.642Z" fill="#18171A"/>
<path d="M351.516 480.735V474.66H352.698V480.735H351.516ZM352.113 473.723C351.907 473.723 351.731 473.654 351.583 473.517C351.438 473.377 351.365 473.211 351.365 473.019C351.365 472.823 351.438 472.657 351.583 472.52C351.731 472.38 351.907 472.311 352.113 472.311C352.319 472.311 352.494 472.38 352.639 472.52C352.787 472.657 352.86 472.823 352.86 473.019C352.86 473.211 352.787 473.377 352.639 473.517C352.494 473.654 352.319 473.723 352.113 473.723Z" fill="#18171A"/>
<path d="M357.125 474.66V475.609H353.807V474.66H357.125ZM354.697 473.204H355.879V478.952C355.879 479.181 355.914 479.354 355.982 479.47C356.051 479.583 356.139 479.661 356.247 479.703C356.358 479.743 356.478 479.762 356.607 479.762C356.702 479.762 356.785 479.756 356.856 479.743C356.928 479.729 356.983 479.719 357.022 479.711L357.236 480.688C357.167 480.714 357.07 480.741 356.943 480.767C356.817 480.796 356.659 480.812 356.469 480.815C356.158 480.82 355.868 480.764 355.599 480.648C355.33 480.532 355.112 480.353 354.946 480.11C354.78 479.868 354.697 479.563 354.697 479.197V473.204Z" fill="#18171A"/>
<path d="M361.27 474.66V475.609H357.951V474.66H361.27ZM358.841 473.204H360.024V478.952C360.024 479.181 360.058 479.354 360.126 479.47C360.195 479.583 360.283 479.661 360.391 479.703C360.502 479.743 360.622 479.762 360.751 479.762C360.846 479.762 360.929 479.756 361.001 479.743C361.072 479.729 361.127 479.719 361.167 479.711L361.38 480.688C361.312 480.714 361.214 480.741 361.088 480.767C360.961 480.796 360.803 480.812 360.613 480.815C360.302 480.82 360.012 480.764 359.743 480.648C359.474 480.532 359.256 480.353 359.09 480.11C358.924 479.868 358.841 479.563 358.841 479.197V473.204Z" fill="#18171A"/>
<path d="M365.131 480.858C364.532 480.858 364.017 480.73 363.584 480.474C363.155 480.216 362.822 479.853 362.588 479.387C362.356 478.917 362.24 478.367 362.24 477.737C362.24 477.115 362.356 476.566 362.588 476.092C362.822 475.617 363.149 475.247 363.569 474.98C363.99 474.714 364.484 474.581 365.048 474.581C365.391 474.581 365.723 474.638 366.045 474.751C366.366 474.864 366.655 475.042 366.911 475.285C367.167 475.528 367.368 475.843 367.516 476.23C367.664 476.615 367.737 477.083 367.737 477.634V478.054H362.908V477.168H366.579C366.579 476.857 366.515 476.581 366.389 476.341C366.262 476.098 366.084 475.907 365.855 475.768C365.628 475.628 365.362 475.558 365.056 475.558C364.723 475.558 364.433 475.64 364.186 475.803C363.94 475.964 363.75 476.175 363.616 476.436C363.484 476.694 363.418 476.975 363.418 477.278V477.971C363.418 478.377 363.489 478.722 363.632 479.007C363.777 479.292 363.979 479.509 364.237 479.66C364.495 479.807 364.797 479.881 365.143 479.881C365.367 479.881 365.571 479.849 365.756 479.786C365.94 479.72 366.1 479.623 366.234 479.493C366.369 479.364 366.472 479.205 366.543 479.015L367.662 479.217C367.573 479.546 367.412 479.835 367.18 480.083C366.95 480.328 366.662 480.519 366.314 480.656C365.968 480.791 365.574 480.858 365.131 480.858Z" fill="#18171A"/>
<path d="M369.05 480.735V474.66H370.193V475.625H370.256C370.367 475.298 370.562 475.041 370.841 474.854C371.124 474.664 371.443 474.569 371.799 474.569C371.872 474.569 371.959 474.572 372.06 474.577C372.162 474.582 372.243 474.589 372.301 474.597V475.728C372.253 475.715 372.169 475.7 372.048 475.684C371.926 475.666 371.805 475.657 371.684 475.657C371.404 475.657 371.155 475.716 370.936 475.835C370.72 475.951 370.549 476.113 370.422 476.321C370.296 476.527 370.232 476.762 370.232 477.025V480.735H369.05Z" fill="#18171A"/>
<path d="M442.707 476.584C442.707 473.509 445.2 471.015 448.276 471.015H461.642C464.718 471.015 467.211 473.509 467.211 476.584C467.211 479.66 464.718 482.153 461.642 482.153H448.276C445.2 482.153 442.707 479.66 442.707 476.584Z" fill="#6851FF"/>
<circle cx="461.642" cy="476.584" r="4.45529" fill="white"/>
</g>
<g filter="url(#filter8_bd_9873_77031)">
<rect x="295" y="505.682" width="185" height="38.1901" rx="8.3357" fill="white"/>
<path d="M323.77 519.112C322.575 518.565 321.314 518.177 320.019 517.958C319.841 518.275 319.681 518.601 319.538 518.935C318.158 518.727 316.755 518.727 315.374 518.935C315.232 518.601 315.071 518.275 314.894 517.958C313.598 518.179 312.335 518.568 311.139 519.115C308.765 522.628 308.122 526.053 308.443 529.43C309.834 530.457 311.39 531.239 313.045 531.74C313.417 531.239 313.747 530.707 314.03 530.151C313.492 529.95 312.973 529.702 312.478 529.41C312.608 529.316 312.736 529.218 312.859 529.124C314.298 529.801 315.868 530.152 317.458 530.152C319.049 530.152 320.619 529.801 322.058 529.124C322.183 529.226 322.31 529.323 322.439 529.41C321.943 529.703 321.423 529.951 320.884 530.152C321.167 530.709 321.496 531.24 321.869 531.74C323.525 531.241 325.083 530.46 326.473 529.432C326.851 525.516 325.828 522.122 323.77 519.112ZM314.438 527.353C313.541 527.353 312.8 526.54 312.8 525.538C312.8 524.537 313.515 523.716 314.435 523.716C315.354 523.716 316.09 524.537 316.074 525.538C316.058 526.54 315.352 527.353 314.438 527.353ZM320.479 527.353C319.581 527.353 318.843 526.54 318.843 525.538C318.843 524.537 319.558 523.716 320.479 523.716C321.4 523.716 322.13 524.537 322.114 525.538C322.098 526.54 321.393 527.353 320.479 527.353Z" fill="#5865F2"/>
<path d="M338.083 528.928H335.461V520.828H338.166C338.96 520.828 339.642 520.99 340.211 521.314C340.781 521.636 341.217 522.099 341.521 522.703C341.826 523.304 341.979 524.025 341.979 524.866C341.979 525.71 341.825 526.435 341.517 527.042C341.211 527.648 340.768 528.115 340.188 528.442C339.607 528.766 338.906 528.928 338.083 528.928ZM336.683 527.86H338.016C338.633 527.86 339.146 527.744 339.555 527.512C339.963 527.278 340.269 526.939 340.472 526.496C340.675 526.05 340.777 525.507 340.777 524.866C340.777 524.231 340.675 523.691 340.472 523.248C340.272 522.805 339.973 522.469 339.574 522.24C339.176 522.01 338.682 521.896 338.091 521.896H336.683V527.86Z" fill="#18171A"/>
<path d="M343.404 528.928V522.853H344.587V528.928H343.404ZM344.001 521.915C343.796 521.915 343.619 521.847 343.471 521.71C343.326 521.57 343.254 521.404 343.254 521.211C343.254 521.016 343.326 520.85 343.471 520.713C343.619 520.573 343.796 520.503 344.001 520.503C344.207 520.503 344.383 520.573 344.528 520.713C344.675 520.85 344.749 521.016 344.749 521.211C344.749 521.404 344.675 521.57 344.528 521.71C344.383 521.847 344.207 521.915 344.001 521.915Z" fill="#18171A"/>
<path d="M350.731 524.336L349.659 524.526C349.614 524.389 349.543 524.258 349.445 524.134C349.35 524.01 349.221 523.909 349.057 523.83C348.894 523.751 348.69 523.711 348.444 523.711C348.109 523.711 347.83 523.786 347.606 523.937C347.382 524.084 347.27 524.275 347.27 524.51C347.27 524.713 347.345 524.877 347.495 525.001C347.645 525.125 347.888 525.226 348.223 525.305L349.188 525.527C349.747 525.656 350.164 525.855 350.438 526.124C350.712 526.393 350.849 526.742 350.849 527.172C350.849 527.536 350.744 527.86 350.533 528.145C350.324 528.427 350.033 528.649 349.659 528.81C349.287 528.97 348.856 529.051 348.365 529.051C347.685 529.051 347.13 528.906 346.7 528.616C346.27 528.323 346.007 527.908 345.909 527.37L347.052 527.196C347.123 527.494 347.27 527.719 347.491 527.872C347.713 528.023 348.001 528.098 348.357 528.098C348.745 528.098 349.055 528.017 349.287 527.856C349.519 527.693 349.635 527.494 349.635 527.259C349.635 527.069 349.564 526.91 349.421 526.781C349.282 526.651 349.067 526.554 348.777 526.488L347.748 526.262C347.181 526.133 346.762 525.928 346.49 525.645C346.221 525.363 346.087 525.006 346.087 524.573C346.087 524.215 346.187 523.901 346.388 523.632C346.588 523.363 346.865 523.153 347.218 523.003C347.572 522.85 347.976 522.774 348.432 522.774C349.089 522.774 349.606 522.916 349.983 523.201C350.36 523.483 350.609 523.861 350.731 524.336Z" fill="#18171A"/>
<path d="M354.709 529.051C354.121 529.051 353.614 528.918 353.19 528.651C352.768 528.382 352.444 528.012 352.217 527.54C351.99 527.068 351.877 526.527 351.877 525.918C351.877 525.301 351.993 524.757 352.225 524.285C352.457 523.81 352.784 523.44 353.206 523.173C353.627 522.907 354.125 522.774 354.697 522.774C355.158 522.774 355.57 522.859 355.931 523.031C356.292 523.2 356.583 523.437 356.805 523.743C357.029 524.049 357.162 524.406 357.204 524.815H356.053C355.99 524.53 355.845 524.285 355.618 524.079C355.394 523.873 355.094 523.771 354.717 523.771C354.387 523.771 354.098 523.858 353.85 524.032C353.605 524.203 353.414 524.448 353.277 524.767C353.14 525.084 353.071 525.458 353.071 525.891C353.071 526.334 353.138 526.716 353.273 527.038C353.407 527.359 353.597 527.609 353.842 527.785C354.09 527.962 354.382 528.05 354.717 528.05C354.941 528.05 355.144 528.009 355.326 527.928C355.51 527.843 355.664 527.723 355.788 527.568C355.915 527.412 356.003 527.225 356.053 527.006H357.204C357.162 527.399 357.034 527.75 356.821 528.058C356.607 528.367 356.321 528.609 355.962 528.786C355.606 528.963 355.189 529.051 354.709 529.051Z" fill="#18171A"/>
<path d="M361.028 529.051C360.459 529.051 359.962 528.92 359.537 528.659C359.113 528.398 358.783 528.033 358.548 527.564C358.314 527.094 358.196 526.546 358.196 525.918C358.196 525.288 358.314 524.737 358.548 524.265C358.783 523.793 359.113 523.426 359.537 523.165C359.962 522.904 360.459 522.774 361.028 522.774C361.598 522.774 362.095 522.904 362.519 523.165C362.944 523.426 363.274 523.793 363.508 524.265C363.743 524.737 363.86 525.288 363.86 525.918C363.86 526.546 363.743 527.094 363.508 527.564C363.274 528.033 362.944 528.398 362.519 528.659C362.095 528.92 361.598 529.051 361.028 529.051ZM361.032 528.058C361.401 528.058 361.707 527.961 361.95 527.765C362.192 527.57 362.372 527.311 362.488 526.986C362.606 526.662 362.666 526.305 362.666 525.914C362.666 525.527 362.606 525.171 362.488 524.846C362.372 524.519 362.192 524.257 361.95 524.059C361.707 523.861 361.401 523.763 361.032 523.763C360.66 523.763 360.352 523.861 360.107 524.059C359.864 524.257 359.683 524.519 359.565 524.846C359.449 525.171 359.391 525.527 359.391 525.914C359.391 526.305 359.449 526.662 359.565 526.986C359.683 527.311 359.864 527.57 360.107 527.765C360.352 527.961 360.66 528.058 361.032 528.058Z" fill="#18171A"/>
<path d="M365.18 528.928V522.853H366.323V523.818H366.387C366.497 523.491 366.693 523.234 366.972 523.047C367.254 522.857 367.573 522.762 367.929 522.762C368.003 522.762 368.09 522.765 368.19 522.77C368.293 522.775 368.374 522.782 368.432 522.79V523.921C368.384 523.908 368.3 523.893 368.178 523.877C368.057 523.859 367.936 523.85 367.815 523.85C367.535 523.85 367.286 523.909 367.067 524.028C366.851 524.144 366.679 524.306 366.553 524.514C366.426 524.72 366.363 524.954 366.363 525.218V528.928H365.18Z" fill="#18171A"/>
<path d="M371.512 529.047C371.021 529.047 370.584 528.922 370.199 528.671C369.816 528.418 369.516 528.058 369.297 527.591C369.081 527.122 368.973 526.559 368.973 525.902C368.973 525.246 369.082 524.684 369.301 524.217C369.522 523.751 369.826 523.393 370.211 523.146C370.596 522.898 371.032 522.774 371.52 522.774C371.897 522.774 372.2 522.837 372.429 522.964C372.662 523.088 372.841 523.233 372.967 523.399C373.097 523.565 373.197 523.711 373.268 523.838H373.339V520.828H374.522V528.928H373.367V527.983H373.268C373.197 528.112 373.094 528.26 372.959 528.426C372.828 528.592 372.646 528.737 372.414 528.861C372.182 528.985 371.881 529.047 371.512 529.047ZM371.773 528.038C372.113 528.038 372.4 527.949 372.635 527.769C372.872 527.587 373.052 527.336 373.173 527.014C373.297 526.692 373.359 526.318 373.359 525.891C373.359 525.469 373.298 525.1 373.177 524.783C373.056 524.467 372.878 524.22 372.643 524.043C372.408 523.867 372.118 523.778 371.773 523.778C371.417 523.778 371.12 523.871 370.883 524.055C370.646 524.24 370.466 524.492 370.345 524.811C370.226 525.13 370.167 525.49 370.167 525.891C370.167 526.297 370.228 526.662 370.349 526.986C370.47 527.311 370.65 527.568 370.887 527.758C371.127 527.945 371.422 528.038 371.773 528.038Z" fill="#18171A"/>
<path d="M442.929 524.777C442.929 521.701 445.422 519.208 448.498 519.208H461.864C464.939 519.208 467.433 521.701 467.433 524.777C467.433 527.853 464.939 530.346 461.864 530.346H448.498C445.422 530.346 442.929 527.853 442.929 524.777Z" fill="#6851FF"/>
<circle cx="461.863" cy="524.777" r="4.45529" fill="white"/>
</g>
</g>
</g>
<defs>
<filter id="filter0_d_9873_77031" x="11.9" y="5.35" width="403.2" height="505.7" filterUnits="userSpaceOnUse" color-interpolation-filters="sRGB">
<feFlood flood-opacity="0" result="BackgroundImageFix"/>
<feColorMatrix in="SourceAlpha" type="matrix" values="0 0 0 0 0 0 0 0 0 0 0 0 0 0 0 0 0 0 127 0" result="hardAlpha"/>
<feOffset dy="9.45"/>
<feGaussianBlur stdDeviation="22.05"/>
<feColorMatrix type="matrix" values="0 0 0 0 0.466667 0 0 0 0 0.462745 0 0 0 0 0.478431 0 0 0 0.15 0"/>
<feBlend mode="multiply" in2="BackgroundImageFix" result="effect1_dropShadow_9873_77031"/>
<feBlend mode="normal" in="SourceGraphic" in2="effect1_dropShadow_9873_77031" result="shape"/>
</filter>
<filter id="filter1_d_9873_77031" x="188.039" y="71.2388" width="52.7411" height="52.7411" filterUnits="userSpaceOnUse" color-interpolation-filters="sRGB">
<feFlood flood-opacity="0" result="BackgroundImageFix"/>
<feColorMatrix in="SourceAlpha" type="matrix" values="0 0 0 0 0 0 0 0 0 0 0 0 0 0 0 0 0 0 127 0" result="hardAlpha"/>
<feOffset dx="0.752376" dy="0.752376"/>
<feGaussianBlur stdDeviation="6.01901"/>
<feColorMatrix type="matrix" values="0 0 0 0 0 0 0 0 0 0 0 0 0 0 0 0 0 0 0.03 0"/>
<feBlend mode="multiply" in2="BackgroundImageFix" result="effect1_dropShadow_9873_77031"/>
<feBlend mode="normal" in="SourceGraphic" in2="effect1_dropShadow_9873_77031" result="shape"/>
</filter>
<filter id="filter2_d_9873_77031" x="93.7998" y="192" width="51.1879" height="37.7998" filterUnits="userSpaceOnUse" color-interpolation-filters="sRGB">
<feFlood flood-opacity="0" result="BackgroundImageFix"/>
<feColorMatrix in="SourceAlpha" type="matrix" values="0 0 0 0 0 0 0 0 0 0 0 0 0 0 0 0 0 0 127 0" result="hardAlpha"/>
<feOffset dx="0.7875"/>
<feColorMatrix type="matrix" values="0 0 0 0 0.305882 0 0 0 0 0.301961 0 0 0 0 0.321569 0 0 0 1 0"/>
<feBlend mode="normal" in2="BackgroundImageFix" result="effect1_dropShadow_9873_77031"/>
<feBlend mode="normal" in="SourceGraphic" in2="effect1_dropShadow_9873_77031" result="shape"/>
</filter>
<filter id="filter3_d_9873_77031" x="255" y="244" width="265" height="351.872" filterUnits="userSpaceOnUse" color-interpolation-filters="sRGB">
<feFlood flood-opacity="0" result="BackgroundImageFix"/>
<feColorMatrix in="SourceAlpha" type="matrix" values="0 0 0 0 0 0 0 0 0 0 0 0 0 0 0 0 0 0 127 0" result="hardAlpha"/>
<feOffset dy="12"/>
<feGaussianBlur stdDeviation="20"/>
<feColorMatrix type="matrix" values="0 0 0 0 0.466667 0 0 0 0 0.462745 0 0 0 0 0.478431 0 0 0 0.6 0"/>
<feBlend mode="multiply" in2="BackgroundImageFix" result="effect1_dropShadow_9873_77031"/>
<feBlend mode="normal" in="SourceGraphic" in2="effect1_dropShadow_9873_77031" result="shape"/>
</filter>
<filter id="filter4_bd_9873_77031" x="236.81" y="268.279" width="301.38" height="154.207" filterUnits="userSpaceOnUse" color-interpolation-filters="sRGB">
<feFlood flood-opacity="0" result="BackgroundImageFix"/>
<feGaussianBlur in="BackgroundImage" stdDeviation="14.5475"/>
<feComposite in2="SourceAlpha" operator="in" result="effect1_backgroundBlur_9873_77031"/>
<feColorMatrix in="SourceAlpha" type="matrix" values="0 0 0 0 0 0 0 0 0 0 0 0 0 0 0 0 0 0 127 0" result="hardAlpha"/>
<feOffset dy="12.4693"/>
<feGaussianBlur stdDeviation="29.095"/>
<feColorMatrix type="matrix" values="0 0 0 0 0.466667 0 0 0 0 0.462745 0 0 0 0 0.478431 0 0 0 0.15 0"/>
<feBlend mode="multiply" in2="effect1_backgroundBlur_9873_77031" result="effect2_dropShadow_9873_77031"/>
<feBlend mode="normal" in="SourceGraphic" in2="effect2_dropShadow_9873_77031" result="shape"/>
</filter>
<filter id="filter5_bd_9873_77031" x="236.81" y="316.109" width="301.38" height="154.207" filterUnits="userSpaceOnUse" color-interpolation-filters="sRGB">
<feFlood flood-opacity="0" result="BackgroundImageFix"/>
<feGaussianBlur in="BackgroundImage" stdDeviation="14.5475"/>
<feComposite in2="SourceAlpha" operator="in" result="effect1_backgroundBlur_9873_77031"/>
<feColorMatrix in="SourceAlpha" type="matrix" values="0 0 0 0 0 0 0 0 0 0 0 0 0 0 0 0 0 0 127 0" result="hardAlpha"/>
<feOffset dy="12.4693"/>
<feGaussianBlur stdDeviation="29.095"/>
<feColorMatrix type="matrix" values="0 0 0 0 0.466667 0 0 0 0 0.462745 0 0 0 0 0.478431 0 0 0 0.15 0"/>
<feBlend mode="multiply" in2="effect1_backgroundBlur_9873_77031" result="effect2_dropShadow_9873_77031"/>
<feBlend mode="normal" in="SourceGraphic" in2="effect2_dropShadow_9873_77031" result="shape"/>
</filter>
<filter id="filter6_bd_9873_77031" x="236.81" y="363.938" width="301.38" height="154.207" filterUnits="userSpaceOnUse" color-interpolation-filters="sRGB">
<feFlood flood-opacity="0" result="BackgroundImageFix"/>
<feGaussianBlur in="BackgroundImage" stdDeviation="14.5475"/>
<feComposite in2="SourceAlpha" operator="in" result="effect1_backgroundBlur_9873_77031"/>
<feColorMatrix in="SourceAlpha" type="matrix" values="0 0 0 0 0 0 0 0 0 0 0 0 0 0 0 0 0 0 127 0" result="hardAlpha"/>
<feOffset dy="12.4693"/>
<feGaussianBlur stdDeviation="29.095"/>
<feColorMatrix type="matrix" values="0 0 0 0 0.466667 0 0 0 0 0.462745 0 0 0 0 0.478431 0 0 0 0.15 0"/>
<feBlend mode="multiply" in2="effect1_backgroundBlur_9873_77031" result="effect2_dropShadow_9873_77031"/>
<feBlend mode="normal" in="SourceGraphic" in2="effect2_dropShadow_9873_77031" result="shape"/>
</filter>
<filter id="filter7_bd_9873_77031" x="236.81" y="411.768" width="301.38" height="154.57" filterUnits="userSpaceOnUse" color-interpolation-filters="sRGB">
<feFlood flood-opacity="0" result="BackgroundImageFix"/>
<feGaussianBlur in="BackgroundImage" stdDeviation="14.5475"/>
<feComposite in2="SourceAlpha" operator="in" result="effect1_backgroundBlur_9873_77031"/>
<feColorMatrix in="SourceAlpha" type="matrix" values="0 0 0 0 0 0 0 0 0 0 0 0 0 0 0 0 0 0 127 0" result="hardAlpha"/>
<feOffset dy="12.4693"/>
<feGaussianBlur stdDeviation="29.095"/>
<feColorMatrix type="matrix" values="0 0 0 0 0.466667 0 0 0 0 0.462745 0 0 0 0 0.478431 0 0 0 0.15 0"/>
<feBlend mode="multiply" in2="effect1_backgroundBlur_9873_77031" result="effect2_dropShadow_9873_77031"/>
<feBlend mode="normal" in="SourceGraphic" in2="effect2_dropShadow_9873_77031" result="shape"/>
</filter>
<filter id="filter8_bd_9873_77031" x="236.81" y="459.961" width="301.38" height="154.57" filterUnits="userSpaceOnUse" color-interpolation-filters="sRGB">
<feFlood flood-opacity="0" result="BackgroundImageFix"/>
<feGaussianBlur in="BackgroundImage" stdDeviation="14.5475"/>
<feComposite in2="SourceAlpha" operator="in" result="effect1_backgroundBlur_9873_77031"/>
<feColorMatrix in="SourceAlpha" type="matrix" values="0 0 0 0 0 0 0 0 0 0 0 0 0 0 0 0 0 0 127 0" result="hardAlpha"/>
<feOffset dy="12.4693"/>
<feGaussianBlur stdDeviation="29.095"/>
<feColorMatrix type="matrix" values="0 0 0 0 0.466667 0 0 0 0 0.462745 0 0 0 0 0.478431 0 0 0 0.15 0"/>
<feBlend mode="multiply" in2="effect1_backgroundBlur_9873_77031" result="effect2_dropShadow_9873_77031"/>
<feBlend mode="normal" in="SourceGraphic" in2="effect2_dropShadow_9873_77031" result="shape"/>
</filter>
<linearGradient id="paint0_linear_9873_77031" x1="136" y1="-7" x2="136.5" y2="357.975" gradientUnits="userSpaceOnUse">
<stop stop-color="white" stop-opacity="0"/>
<stop offset="0.420067" stop-color="white"/>
<stop offset="1" stop-color="white"/>
</linearGradient>
<clipPath id="clip0_9873_77031">
<rect x="194.6" y="77.7998" width="37.8" height="37.8" rx="18.057" fill="white"/>
</clipPath>
<clipPath id="clip1_9873_77031">
<rect x="93.7998" y="192" width="239.4" height="37.8" rx="7.875" fill="white"/>
</clipPath>
<clipPath id="clip2_9873_77031">
<rect width="12.6" height="12.6" fill="white" transform="translate(103.25 204.6)"/>
</clipPath>
</defs>
</svg>
