<svg width="65" height="64" viewBox="0 0 65 64" fill="none" xmlns="http://www.w3.org/2000/svg">
<rect x="2.00781" y="23" width="44" height="26" rx="6.94375" fill="url(#paint0_linear_9869_76968)"/>
<path fill-rule="evenodd" clip-rule="evenodd" d="M26.0078 35.4649C27.2034 34.7733 28.0078 33.4806 28.0078 32C28.0078 29.7909 26.217 28 24.0078 28C21.7987 28 20.0078 29.7909 20.0078 32C20.0078 33.4806 20.8122 34.7733 22.0078 35.4649V38C22.0078 39.1046 22.9032 40 24.0078 40C25.1124 40 26.0078 39.1046 26.0078 38V35.4649Z" fill="url(#paint1_linear_9869_76968)"/>
<path fill-rule="evenodd" clip-rule="evenodd" d="M24.0078 7.90625C19.5895 7.90625 16.0078 11.432 16.0078 15.7812V23H10.0078V15.7812C10.0078 8.17007 16.2758 2 24.0078 2C31.7398 2 38.0078 8.17007 38.0078 15.7812V23H32.0078V15.7812C32.0078 11.432 28.4261 7.90625 24.0078 7.90625Z" fill="url(#paint2_linear_9869_76968)"/>
<rect x="18.0078" y="38" width="44" height="24" rx="8" fill="url(#paint3_linear_9869_76968)"/>
<g filter="url(#filter0_d_9869_76968)">
<circle cx="30.0078" cy="50" r="3" fill="url(#paint4_linear_9869_76968)"/>
<circle cx="40.0078" cy="50" r="3" fill="url(#paint5_linear_9869_76968)"/>
<circle cx="50.0078" cy="50" r="3" fill="url(#paint6_linear_9869_76968)"/>
</g>
<defs>
<filter id="filter0_d_9869_76968" x="24.0078" y="45" width="34" height="14" filterUnits="userSpaceOnUse" color-interpolation-filters="sRGB">
<feFlood flood-opacity="0" result="BackgroundImageFix"/>
<feColorMatrix in="SourceAlpha" type="matrix" values="0 0 0 0 0 0 0 0 0 0 0 0 0 0 0 0 0 0 127 0" result="hardAlpha"/>
<feOffset dx="1" dy="2"/>
<feGaussianBlur stdDeviation="2"/>
<feComposite in2="hardAlpha" operator="out"/>
<feColorMatrix type="matrix" values="0 0 0 0 0 0 0 0 0 0 0 0 0 0 0 0 0 0 0.3 0"/>
<feBlend mode="normal" in2="BackgroundImageFix" result="effect1_dropShadow_9869_76968"/>
<feBlend mode="normal" in="SourceGraphic" in2="effect1_dropShadow_9869_76968" result="shape"/>
</filter>
<linearGradient id="paint0_linear_9869_76968" x1="16.6745" y1="23" x2="24.0078" y2="49" gradientUnits="userSpaceOnUse">
<stop stop-color="white"/>
<stop offset="1" stop-color="#A799FF"/>
</linearGradient>
<linearGradient id="paint1_linear_9869_76968" x1="24.0078" y1="28" x2="24.0078" y2="40" gradientUnits="userSpaceOnUse">
<stop stop-color="#3512B2"/>
<stop offset="1" stop-color="#3512B2" stop-opacity="0"/>
</linearGradient>
<linearGradient id="paint2_linear_9869_76968" x1="24.0078" y1="4.95313" x2="24.0078" y2="23" gradientUnits="userSpaceOnUse">
<stop stop-color="#8674FF"/>
<stop offset="1" stop-color="#6851FF"/>
</linearGradient>
<linearGradient id="paint3_linear_9869_76968" x1="42.5078" y1="38" x2="42.5078" y2="62" gradientUnits="userSpaceOnUse">
<stop stop-color="#A799FF"/>
<stop offset="1" stop-color="#6851FF"/>
</linearGradient>
<linearGradient id="paint4_linear_9869_76968" x1="30.0078" y1="47" x2="30.0078" y2="53" gradientUnits="userSpaceOnUse">
<stop stop-color="white"/>
<stop offset="1" stop-color="#D0C9FF"/>
</linearGradient>
<linearGradient id="paint5_linear_9869_76968" x1="40.0078" y1="47" x2="40.0078" y2="53" gradientUnits="userSpaceOnUse">
<stop stop-color="white"/>
<stop offset="1" stop-color="#D0C9FF"/>
</linearGradient>
<linearGradient id="paint6_linear_9869_76968" x1="50.0078" y1="47" x2="50.0078" y2="53" gradientUnits="userSpaceOnUse">
<stop stop-color="white"/>
<stop offset="1" stop-color="#D0C9FF"/>
</linearGradient>
</defs>
</svg>
