<svg width="16" height="16" viewBox="0 0 16 16" fill="none" xmlns="http://www.w3.org/2000/svg">
<path d="M3.33333 4C3.33333 3.82319 3.40357 3.65362 3.5286 3.5286C3.65362 3.40357 3.82319 3.33333 4 3.33333H6.66667C6.84348 3.33333 7.01305 3.2631 7.13807 3.13807C7.2631 3.01305 7.33333 2.84348 7.33333 2.66667C7.33333 2.48986 7.2631 2.32029 7.13807 2.19526C7.01305 2.07024 6.84348 2 6.66667 2H4C3.46957 2 2.96086 2.21071 2.58579 2.58579C2.21071 2.96086 2 3.46957 2 4V12C2 12.5304 2.21071 13.0391 2.58579 13.4142C2.96086 13.7893 3.46957 14 4 14H12C12.5304 14 13.0391 13.7893 13.4142 13.4142C13.7893 13.0391 14 12.5304 14 12V9.33333C14 9.15652 13.9298 8.98695 13.8047 8.86193C13.6797 8.73691 13.5101 8.66667 13.3333 8.66667C13.1565 8.66667 12.987 8.73691 12.8619 8.86193C12.7369 8.98695 12.6667 9.15652 12.6667 9.33333V12C12.6667 12.1768 12.5964 12.3464 12.4714 12.4714C12.3464 12.5964 12.1768 12.6667 12 12.6667H4C3.82319 12.6667 3.65362 12.5964 3.5286 12.4714C3.40357 12.3464 3.33333 12.1768 3.33333 12V4ZM10 2C9.82319 2 9.65362 2.07024 9.5286 2.19526C9.40357 2.32029 9.33333 2.48986 9.33333 2.66667C9.33333 2.84348 9.40357 3.01305 9.5286 3.13807C9.65362 3.2631 9.82319 3.33333 10 3.33333H11.724L7.52867 7.52867C7.40723 7.6544 7.34003 7.8228 7.34155 7.9976C7.34307 8.1724 7.41318 8.33961 7.53679 8.46321C7.66039 8.58682 7.8276 8.65693 8.0024 8.65845C8.1772 8.65997 8.3456 8.59277 8.47133 8.47133L12.6667 4.276V6C12.6667 6.17681 12.7369 6.34638 12.8619 6.4714C12.987 6.59643 13.1565 6.66667 13.3333 6.66667C13.5101 6.66667 13.6797 6.59643 13.8047 6.4714C13.9298 6.34638 14 6.17681 14 6V2.66667C14 2.48986 13.9298 2.32029 13.8047 2.19526C13.6797 2.07024 13.5101 2 13.3333 2H10Z" fill="#B6B4BA"/>
</svg>
