<svg width="1352" height="320" viewBox="0 0 1352 320" fill="none" xmlns="http://www.w3.org/2000/svg">
<g opacity="0.3">
<g filter="url(#filter0_d_11997_98407)">
<path d="M1032.7 287.027L1133.4 303.83L1303.02 325.834L1131.29 324.512L187.218 322.53L-94.5619 323.191L118.308 235.107L214.063 184.038L278.697 115.414L328.17 83.4958L380.037 167.281L447.863 194.411L503.719 287.027L548.405 213.521L626.519 167.281L721.73 249.542L805.296 243.725L913.52 280.564L996.402 294.782L1032.7 287.027Z" fill="url(#paint0_radial_11997_98407)"/>
</g>
<path opacity="0.4" fill-rule="evenodd" clip-rule="evenodd" d="M1133.2 304.206L1133.19 304.205L1133.18 304.203L1034.84 287.792L1040.5 301.44L1173.99 310.277L1133.2 304.206ZM1193.52 311.59C1193.91 311.576 1194.14 311.569 1194.21 311.569L1194.21 311.95L1197.07 312.375L1278.31 322.76L1302.35 325.834L1278.18 324.075L1184.13 317.234H1092.52C1044.22 319.325 988.955 321.731 951.176 323.378V324.497H688.558L688.546 324.33L688.446 324.344H30.1553H-31.3064L30.1411 323.024L299.47 317.234H152.456H-52.58H-55.6458L-53.7344 316.321L-60.3242 317.415L-60.5406 316.112L-49.4346 314.268L118.308 234.176L214.062 183.107L278.696 114.483L327.059 83.2814L328.169 82.5652L328.865 83.6885L380.036 166.35L446.868 193.083L447.596 193.232L448.044 193.324L448.116 193.776L448.142 193.945L502.949 284.82L503.579 285.864L503.765 286.019L504.493 284.822L548.404 212.59L626.518 166.35L627.354 167.072L627.645 167.009L627.728 167.395L721.184 248.141L721.711 247.927L721.982 248.594L805.295 242.794L805.728 242.942L806.8 242.707L806.941 243.352H807.601V243.579L913.421 279.6L914.553 279.407L914.624 279.823L996.401 293.852L1032.7 286.096L1034.11 286.33L1034.35 286.228L1034.42 286.382L1133.39 302.9L1190.16 311.347L1193.52 311.57L1193.52 311.59ZM118.877 235.368L-44.7341 313.487L152.759 280.693V280.167L152.087 279.741L152.759 279.602V278.423L119.945 234.8L118.929 235.342L118.904 235.355L118.877 235.368ZM121.125 234.171L152.759 217.299V276.225L121.125 234.171ZM-49.0339 315.541L155.085 281.646L203.652 312.519L203.529 312.683L203.891 312.67L204.931 313.331L205.383 312.62L358.116 307.449L358.073 306.166L358.841 306.876L359.399 306.271L359.688 306.39L359.519 306.141L359.737 305.905L358.732 304.978L358.349 304.411L303.033 222.605L175.65 229.228L172.858 229.373L173.569 229L336.251 186.894L303.748 221.354L304.709 222.261L337.824 187.151L337.272 186.63L338.311 186.361L338.513 186.44L359.838 304.911L361.138 304.677L339.773 185.982L340.3 185.846L420.817 212.432L421.084 212.659L421.224 212.566L423.32 213.258L423.734 212.004L422.619 211.636L447.029 195.363L454.903 245.236L422.686 213.75L421.721 212.808L420.992 213.942L362.985 304.147L362.631 304.697L360.799 304.938L360.971 306.247L361.696 306.152L361.286 306.789L362.445 306.054L503.077 287.591L503.714 288.646L504.385 287.544L504.553 287.735L505.003 287.338L504.954 287.858L763.86 312.364L760.999 312.774H756.913H506.912L476.188 313.435L360.918 315.913H152.456H-49.8134L-49.0339 315.541ZM155.755 280.507L155.727 280.339L241.09 262.73L204.449 311.46L155.755 280.507ZM735.917 315.913L748.076 314.095H506.926H506.912L422.368 315.913H735.917ZM727.08 317.234H360.923L91.6028 323.024H688.348L727.08 317.234ZM446.238 194.302L421.18 211.007L387.292 182.22L446.238 194.302ZM383.623 179.677L383.988 179.655L384.253 179.639L384.455 179.811L385.2 180.443L439.573 191.588L380.305 167.88L383.623 179.677ZM384.602 181.669L383.095 181.36L382.701 181.279L382.64 181.06L342.74 183.489L340.32 184.461L340.345 184.47L340.374 184.462L340.378 184.481L418.138 210.156L384.602 181.669ZM358.034 306.13L357.211 305.371L175.422 230.562L172.714 229.448L172.475 229.574L172.34 229.318L171.14 229.628L170.852 229.703L170.605 229.537L154.08 218.392V277.123L169.548 229.98L170.804 230.392L154.794 279.182L242.291 261.133L243.06 260.111L244.115 260.905L206.245 311.269L358.034 306.13ZM270.797 225.604L354.419 302.794L178.503 230.402L270.797 225.604ZM354.489 301.061L272.64 225.508L302.357 223.963L354.489 301.061ZM154.08 217.02V217.031L154.188 216.871L171.097 228.275L173.09 227.759L275.956 173.764L272.08 161.36L273.341 160.966L277.213 173.356L331.943 183.867L272.672 160.659L267.837 163.882L176.623 224.692L171.374 228.191L175.774 223.67L213.504 184.902L153.283 217.02H154.08ZM178.697 226.308L276.608 174.914L276.416 174.548L276.575 174.579L335.119 185.822L178.697 226.308ZM267.22 162.706L272.522 160.6L272.474 160.581L271.991 160.392L272.061 159.878L277.807 117.354L215.883 183.1L267.22 162.706ZM279.306 115.762L279.548 115.506L280.948 114.602L280.584 114.905L337.638 183.529L337.852 183.786L338.186 183.766L338.211 183.764L338.286 184.383L338.355 184.96L273.439 159.541L279.354 115.769L279.306 115.762ZM455.096 247.271L365.093 304.374L502.137 286.382L455.419 247.45L455.228 247.291L455.213 247.197L455.096 247.271ZM281.665 114.14L326.35 85.3111L337.984 181.88L281.665 114.14ZM339.374 182.37L327.628 84.8797L326.878 84.97L327.754 84.4048L378.913 167.045L379.142 167.415L379.164 167.424L342.446 182.183L339.374 182.37ZM346.62 181.929L379.201 168.833L382.274 179.759L346.62 181.929ZM500.477 283.28L448.689 197.41L456.455 246.595L500.477 283.28ZM505.823 286.614L508.811 286.896L516.544 286.375L649.962 277.385L549.063 247.709V248.14V248.438L548.839 248.635L505.823 286.614ZM517.71 287.739L768.536 311.479L768.503 311.243L806.28 298.056V244.525L805.651 244.311L653.792 277.542L792.397 296.214L805.742 298.012L792.285 297.532L517.71 287.739ZM769.534 312.577L769.541 312.883L748.427 315.913H825.245L769.534 312.577ZM739.222 317.234L697.811 323.176H946.543L847.305 317.234H739.222ZM950.424 323.176L950.451 322.726L950.47 323.176H950.424ZM1181.38 312.09L1040 302.731L1039.59 302.704L1039.54 302.585L980.996 315.913H1055.99H1092.49C1130.31 314.274 1163.86 312.828 1181.38 312.09ZM975.044 315.913L1039.03 301.347L1033.5 288.013L966.485 315.913H975.044ZM1055.99 317.234H975.193L954.681 321.903C984.327 320.611 1023.74 318.895 1062.02 317.234H1055.99ZM969.242 317.234L956.157 320.212L963.312 317.234H969.242ZM869.405 317.234L943.546 321.673L917.839 317.234H869.405ZM807.388 299.069L807.367 299.008L809.854 298.584L813.664 299.242L910.19 315.913H847.345L772.049 311.404L807.388 299.069ZM1123.05 315.913H1184.13H1184.17L1184.22 315.916L1254.13 321.002L1196.9 313.686L1196.89 313.684L1196.87 313.682L1192.07 312.967C1184.48 313.269 1157.56 314.423 1123.05 315.913ZM963.048 315.913L1030.07 288.009L996.677 295.144L996.428 295.197L996.178 295.154L913.371 280.948L813.752 297.92L813.769 297.92L992.238 295.651L994.855 295.618L992.613 296.968L961.131 315.913H963.048ZM956.827 318.503L959.875 317.234H958.935L956.827 318.503ZM925.601 317.234L949.511 321.363L956.373 317.234H925.601ZM917.952 315.913H958.569L989.996 297.001L820.894 299.15L917.952 315.913ZM807.601 297.628L910.689 280.065L807.601 244.975V297.628ZM657.582 275.361L798.043 244.623L721.821 249.929L721.277 249.967L720.932 249.668L657.582 275.361ZM651.146 276.545L719.809 248.698L628.188 169.538L651.146 276.545ZM506.251 284.474L547.742 216.222V247.842L506.251 284.474ZM549.063 214.049L549.096 213.995L646.135 274.882L549.063 246.332V214.049ZM550.145 213.094L649.565 275.475L626.529 168.105L626.374 167.971L550.145 213.094ZM778.94 295.734L651.693 278.592L529.391 286.833L778.94 295.734ZM365.638 302.464L421.956 214.884L454.126 246.322L365.638 302.464ZM261.944 166.223L215.613 184.629L181.023 220.171L261.944 166.223Z" fill="white"/>
</g>
<mask id="mask0_11997_98407" style="mask-type:alpha" maskUnits="userSpaceOnUse" x="153" y="116" width="37" height="131">
<rect width="35.56" height="130.193" rx="17.78" transform="matrix(-1 0 0 1 189.016 116.421)" fill="#19081F"/>
</mask>
<g mask="url(#mask0_11997_98407)">
<rect width="35.56" height="130.193" transform="matrix(-1 0 0 1 200.668 116.271)" fill="url(#paint1_linear_11997_98407)"/>
</g>
<rect width="1.32096" height="6.56325" transform="matrix(-1 0 0 1 164.992 111.084)" fill="#DD6EBA"/>
<rect width="0.66048" height="15.4852" transform="matrix(-1 0 0 1 172.184 100.336)" fill="#DD6EBA"/>
<rect width="1.32096" height="11.1475" transform="matrix(-1 0 0 1 168.953 102.625)" fill="#DD6EBA"/>
<rect width="0.66048" height="26.3011" transform="matrix(-1 0 0 1 174.113 80.3779)" fill="#DD6EBA"/>
<rect width="4.58239" height="4.6359" transform="matrix(-1 0 0 1 175.062 113.266)" fill="#DD6EBA"/>
<rect width="2.64192" height="13.2096" transform="matrix(-1 0 0 1 176.898 105.234)" fill="#DD6EBA"/>
<rect width="9.24672" height="3.96288" transform="matrix(-1 0 0 1 170.297 113.159)" fill="#DD6EBA"/>
<rect width="4.27323" height="9.73773" transform="matrix(-1 0 0 1 174.754 106.084)" fill="#DD6EBA"/>
<path fill-rule="evenodd" clip-rule="evenodd" d="M168.267 114.94C178.086 114.94 186.047 122.901 186.047 132.72V227.353C186.047 230.253 185.352 232.991 184.121 235.41V241.721L186.629 243.721V252.012H184.558V254.634L186.629 255.857V262.001H184.121V264.758C186.719 268.041 188.27 272.19 188.27 276.701V296.964C188.27 307.602 179.646 316.225 169.008 316.225C158.371 316.225 149.747 307.602 149.747 296.964V276.701C149.747 271.833 151.553 267.387 154.531 263.996V262.001H152.423V254.294H154.492V252.012H152.423V241.612H154.531V238.644C152.004 235.573 150.487 231.64 150.487 227.353V132.72C150.487 122.901 158.447 114.94 168.267 114.94Z" fill="url(#paint2_linear_11997_98407)"/>
<path fill-rule="evenodd" clip-rule="evenodd" d="M168.267 114.94C178.086 114.94 186.047 122.901 186.047 132.72V227.353C186.047 230.253 185.352 232.991 184.121 235.41V241.721L186.629 243.721V252.012H184.558V254.634L186.629 255.857V262.001H184.121V264.758C186.719 268.041 188.27 272.19 188.27 276.701V296.964C188.27 307.602 179.646 316.225 169.008 316.225C158.371 316.225 149.747 307.602 149.747 296.964V276.701C149.747 271.833 151.553 267.387 154.531 263.996V262.001H152.423V254.294H154.492V252.012H152.423V241.612H154.531V238.644C152.004 235.573 150.487 231.64 150.487 227.353V132.72C150.487 122.901 158.447 114.94 168.267 114.94Z" fill="url(#paint3_radial_11997_98407)"/>
<path opacity="0.1" fill-rule="evenodd" clip-rule="evenodd" d="M167.987 129.544C168.937 130.646 170.344 131.344 171.914 131.344C174.777 131.344 177.098 129.023 177.098 126.16C177.098 123.297 174.777 120.976 171.914 120.976C169.051 120.976 166.73 123.297 166.73 126.16C166.73 126.969 166.915 127.735 167.245 128.417L151.918 143.744L151.725 143.938V144.211V237.431C151.725 238.849 152.212 240.004 153.124 240.906C154.016 241.788 155.275 242.391 156.765 242.811C159.734 243.649 163.871 243.831 168.585 243.831V242.51C163.857 242.51 159.894 242.322 157.124 241.54C155.744 241.15 154.723 240.63 154.053 239.967C153.403 239.324 153.046 238.512 153.046 237.431V144.485L167.987 129.544ZM185.735 172.907L187.289 173.507V173.874L185.735 173.317H158.388V172.907H185.735ZM185.735 199.568L187.289 200.168V200.534L185.735 199.978H158.388V199.568H185.735ZM187.289 197.135L185.735 196.535H158.388V196.945H185.735L187.289 197.502V197.135ZM185.735 193.503L187.289 194.103V194.47L185.735 193.913H158.388V193.503H185.735ZM187.289 191.071L185.735 190.471H158.388V190.881H185.735L187.289 191.438V191.071Z" fill="url(#paint4_linear_11997_98407)"/>
<path opacity="0.2" fill-rule="evenodd" clip-rule="evenodd" d="M168.506 147.076C167.549 148.258 166.493 149.356 165.352 150.357C166.113 152.845 166.522 155.489 166.522 158.229C166.522 160.969 166.112 163.613 165.352 166.101C166.493 167.102 167.549 168.2 168.506 169.382C169.464 168.2 170.52 167.102 171.661 166.101C170.9 163.613 170.491 160.969 170.491 158.229C170.491 155.489 170.9 152.845 171.661 150.357C170.52 149.356 169.464 148.258 168.506 147.076ZM173.843 164.381C175.052 163.526 176.335 162.772 177.68 162.128C177.307 160.894 177.106 159.585 177.106 158.229C177.106 156.873 177.307 155.564 177.68 154.33C176.335 153.686 175.052 152.932 173.843 152.077C173.381 154.052 173.137 156.112 173.137 158.229C173.137 160.346 173.381 162.406 173.843 164.381ZM163.876 158.229C163.876 160.346 163.631 162.406 163.169 164.381C161.961 163.526 160.678 162.771 159.333 162.128C159.706 160.894 159.907 159.585 159.907 158.229C159.907 156.873 159.706 155.564 159.333 154.33C160.678 153.687 161.961 152.932 163.169 152.077C163.631 154.052 163.876 156.112 163.876 158.229Z" fill="white"/>
<path fill-rule="evenodd" clip-rule="evenodd" d="M277.192 261.864V256.335L281.648 250.805H296.67V243.782H301.698V239.167C297.796 233.911 295.06 227.668 293.938 220.76C290.195 197.708 305.848 175.985 328.9 172.242C351.953 168.498 373.675 184.151 377.419 207.204C379.595 220.604 375.217 233.556 366.641 242.787H372.946L379.057 249.312V258.344H383.798V250.068L388.52 245.791V138.707L383.716 133.903V107.63L388.52 102.826V72.1152L390.196 76.6311V95.7083L398.534 105.256V128.849L404.114 136.37V161.474L409.673 205.628V208.663C410.231 207.297 410.902 206.207 411.708 205.494L412.156 194.729H412.649L413.096 205.494C414.914 207.12 416.044 210.647 416.738 214.947L418.033 213.664H423.592L429.703 209.646H434.158V245.791L437.51 243.782V206.144L443.621 201.61H449.753L454.76 199.103H460.319V255.837H466.451V238.769L470.355 234.751V216.669L480.921 226.714L488.708 239.266V265.864L493.164 263.357V255.339H501.523L503.369 256.062L503.524 255.267H503.166V251.216H504.241V249.773H503.166V245.723H504.241V244.28H503.166V240.229H504.464C504.823 238.287 505.495 237.011 506.346 236.512L507.197 231.351L508.048 236.512C508.898 237.011 509.57 238.287 509.929 240.229H511.227V244.28H510.153V245.723H511.227V249.773H510.153V251.216H511.227V255.267H510.869L511.663 259.313L514.317 260.353V243.285H518.221V244.997C518.547 244.339 518.939 243.873 519.379 243.614L520.23 238.454L521.081 243.614C521.932 244.114 522.604 245.39 522.962 247.332H524.261V249.312H526.008V265.366H529.912V261.864H537.184C538.403 257.475 538.862 254.268 538.862 254.268H544.998V252.159L543.43 250.828V248.553H546.476V242.726C547.506 241.45 548.357 239.897 549.074 238.287H546.7V236.789H549.656L550.328 234.792H547.685V233.293H550.776C550.865 232.96 550.943 232.628 551.022 232.295C551.1 231.962 551.179 231.629 551.268 231.296H548.67V229.687H551.582C551.649 229.354 551.705 229.021 551.761 228.688C551.817 228.355 551.873 228.022 551.94 227.689H549.656V226.191H552.164L552.189 225.993L552.205 225.86C552.28 225.265 552.35 224.709 552.388 224.193H550.641V222.695H552.522C552.612 221.53 552.612 220.809 552.612 220.809V216.702H551.134V215.204H552.612V212.818H551.134V211.32H552.612V208.934H551.134V207.436H552.612V205.05H551.134V203.552H552.612V201.332C552.612 199.39 553.015 198.169 553.597 197.393V188.903H553.821L554.359 184.741L554.896 188.903H555.12V196.172C555.837 195.894 556.374 195.95 556.374 195.95V191.233C556.374 189.791 557.673 189.957 557.673 189.957V188.619L557.311 188.321L557.461 183.798H556.598V180.08H557.585L557.633 178.638H556.598V177C553.338 175.965 550.677 173.586 549.264 170.515H538.477V166.425L542.279 165.385H548.163C548.168 164.664 548.235 163.959 548.361 163.273H538.477V159.184L542.279 158.143H550.627C551.433 157.084 552.41 156.162 553.516 155.417V151.982H555.717V145.391H556.48V151.982H559.072V122.504H559.836V151.982H560.945V153.362H561.123V151.294H562.06V133.127H562.824V134.294H566.663L567.328 114.299L578.278 128.299L577.286 158.143H587.643V163.273H577.435C577.56 163.959 577.628 164.664 577.633 165.385H587.643V170.515H576.874L576.66 176.97L568.079 186.951L567.973 190.119C568.291 190.263 568.601 190.584 568.601 191.289V196.005C568.601 196.005 569.183 195.95 569.855 196.227V188.903H570.079L570.617 184.741L571.154 188.903H571.378V197.393C571.96 198.169 572.363 199.39 572.363 201.332V203.552H573.841V205.05H572.363V207.436H573.841V208.934H572.363V211.32H573.841V212.818H572.363V215.204H573.841V216.702H572.363V220.809C572.363 220.809 572.363 221.53 572.453 222.695H574.334V224.193H572.587C572.625 224.709 572.695 225.264 572.77 225.858C572.783 225.968 572.797 226.079 572.811 226.191H575.319V227.689H573.035C573.104 228.156 573.198 228.654 573.299 229.186L573.299 229.186L573.299 229.186L573.299 229.187L573.299 229.187C573.33 229.35 573.362 229.517 573.394 229.687H576.305V231.185H573.707C573.841 231.851 574.021 232.517 574.2 233.182H577.29V234.681H574.648L575.319 236.678H578.186V238.176H575.812C576.529 239.841 577.38 241.339 578.41 242.615V248.442H581.455V250.717L579.888 252.048V254.157H586.024C586.024 254.157 586.65 258.443 588.337 263.873H598.359V258.344H600.804V258.208H601.924V256.876H600.849V252.825H601.924V251.383H600.849V247.332H602.148C602.506 245.39 603.178 244.114 604.029 243.614L604.88 238.454L605.731 243.614C606.582 244.114 607.253 245.39 607.612 247.332H608.911V251.383H607.836V252.825H608.911V256.876H607.836V258.319H608.911V262.369H608.552L609.435 266.878H611.174V263.357H612.664L614.24 255.322H613.882V251.272H614.957V249.829H613.882V245.778H614.957V244.336H613.882V240.229H615.181C615.539 238.287 616.211 237.011 617.062 236.512L617.913 231.351L618.764 236.512C619.615 237.011 620.287 238.287 620.645 240.229H621.944V244.28H620.869V245.723H621.944V249.773H620.869V251.216H621.944V255.267H621.586L622.865 261.785V260.85H657.937V264.371H664.048V258.841L675.235 272.122L697.457 238.176V236.678H698.263V234.57H698.666C698.129 234.237 697.726 233.571 697.726 232.794C697.726 231.684 698.442 230.796 699.338 230.796C700.234 230.796 700.951 231.684 700.951 232.794C700.951 233.626 700.547 234.292 700.01 234.57H700.413V236.678H701.219V237.788L789.712 303.925V299.493H790.963V303.615H792.371V301.325H793.622V304.303H795.499V302.47H796.751V301.096H801.748V302.928H802.999V301.783H805.971L810.664 325.591H633.908L633.978 325.237H336.36L336.43 325.591H159.674L164.366 301.783H167.338V302.928H168.59V301.096H173.587V302.47H174.838V304.303H176.715V301.325H177.967V303.615H179.375V299.493H180.626V306.135H182.659V304.532H184.693V306.135H186.101V303.845H190.941V305.906H193.903V302.432H195.873V288.893H193.903L196.456 276.796C196.456 279.127 197.934 280.292 199.68 280.292H201.069V274.632C201.069 274.632 201.382 278.017 203.577 278.017H212.445C214.64 278.017 214.953 274.632 214.953 274.632V280.181H215.535C217.327 280.181 217.103 271.081 217.103 271.081C217.103 271.081 218.581 273.633 221.582 273.633C224.319 273.633 223.702 267.262 223.573 266.143L223.566 266.086C223.561 266.05 223.557 266.013 223.552 265.976C223.552 265.976 223.56 266.035 223.573 266.143C224.128 270.33 227.281 269.188 228.166 264.422C228.793 261.093 228.838 253.547 228.838 253.547C228.838 253.547 230.54 256.709 233.675 256.709C236.81 256.709 235.959 249.108 235.959 249.108C235.959 249.108 238.019 253.602 240.572 253.602C243.125 253.602 241.378 245.279 241.378 245.279C242.05 248.275 245.185 249.662 247.649 249.274C249.933 248.886 251.769 243.004 252.262 239.453C252.755 243.059 254.591 248.886 256.875 249.274C259.338 249.662 262.518 248.276 263.145 245.28C263.125 245.376 261.414 253.602 263.952 253.602C266.504 253.602 268.565 249.108 268.565 249.108C268.565 249.108 267.669 256.709 270.849 256.709C273.984 256.709 275.686 253.547 275.686 253.547C275.686 253.547 275.721 259.498 276.168 263.162L277.192 261.864ZM566.055 152.573L565.025 153.362H565V151.294H562.824V143.541H566.356L566.055 152.573ZM566.4 142.22H562.824V140.899H566.443L566.4 142.22ZM566.487 139.578H562.824V138.257H566.531L566.487 139.578ZM566.575 136.936H562.824V135.615H566.619L566.575 136.936ZM312.174 249.135C310.018 247.693 307.994 246.054 306.133 244.239V257.846H309.894V251.192L312.174 249.135ZM789.712 305.298L701.174 239.175V241.173L779.425 303.845H784.237V305.706H785.645V304.532H787.678V305.706H789.712V305.298ZM779.396 305.221L701.174 242.615V245.001L771.732 304.958V304.074H774.078V305.706H779.396V305.221ZM761.652 304.074L701.174 248.553V246.444L769.259 304.303H767.039V305.448H764.223V304.074H761.652ZM760.085 304.074L701.174 249.995V252.603L751.836 304.074H760.085ZM750.315 304.074L701.174 254.102V255.933L740.494 301.783H740.538L740.551 301.85L742.655 304.303H742.967V304.667L743.637 305.448H745.774V304.074H750.315ZM731.317 301.551L701.174 259.817V257.542L739.106 301.783H737.566V302.928H736.323V301.096H731.317V301.551ZM723.507 304.532H724.278V299.493H725.53V303.615H726.938V301.325H728.189V303.845H730.066V302.47H730.683L701.174 261.592V263.812L723.507 304.532ZM722.327 305.706V304.532H722.342L720.294 300.801V304.532H722.245V305.706H722.327ZM713.255 301.871L713.474 302.47H714.506V303.845H716.383V301.325H717.635V303.615H719.042V299.493H719.575L701.174 265.976V268.806L712.972 301.096H713.255V301.871ZM704.661 301.783H707.006V302.928H708.258V301.096H711.902L701.174 271.636V276.685L704.661 301.783ZM698.238 297.844L700.817 300.569L699.338 289.947L698.238 297.844ZM685.86 284.736L686.095 285.014L695.033 294.458L697.502 276.685V266.975L685.86 284.736ZM684.449 283.061L685.192 283.943L697.502 265.144V263.146L684.449 283.061ZM683.048 281.397L683.781 282.268L697.502 261.315V259.317L683.048 281.397ZM682.335 280.551L697.457 257.431V255.433L681.592 279.668L682.335 280.551ZM680.927 278.879L697.502 253.547V251.549L680.183 277.996L680.927 278.879ZM679.526 277.216L697.502 249.773V247.887L678.826 276.385L679.526 277.216ZM678.138 275.568L697.502 246V243.892L677.359 274.644L678.138 275.568ZM676.682 273.839L697.502 242.061V240.063L675.948 272.969L676.682 273.839ZM740.972 303.959L741.04 304.303H741.266L740.972 303.959ZM770.48 305.341V305.706H770.91L770.48 305.341Z" fill="url(#paint5_linear_11997_98407)"/>
<path d="M272.806 177.736L279.625 181.27V288.965L272.118 279.39L272.806 177.736Z" fill="url(#paint6_linear_11997_98407)"/>
<path d="M394.89 200.6V100.158L398.48 105.045V197.209C398.48 198.007 396.087 199.802 394.89 200.6Z" fill="url(#paint7_linear_11997_98407)"/>
<path d="M402.908 232.036V134.964L404.063 136.261V160.199C404.063 165.458 409.25 200.036 409.25 205.283C409.25 229.202 405.559 228.171 405.559 228.645C405.559 229.442 403.792 231.238 402.908 232.036Z" fill="url(#paint8_linear_11997_98407)"/>
<g opacity="0.1">
<mask id="mask1_11997_98407" style="mask-type:alpha" maskUnits="userSpaceOnUse" x="293" y="171" width="86" height="85">
<circle r="42.2872" transform="matrix(-0.98707 0.160291 0.160291 0.98707 335.948 213.523)" fill="#19081F"/>
</mask>
<g mask="url(#mask1_11997_98407)">
<circle r="41.6267" transform="matrix(-0.98707 0.160291 0.160291 0.98707 330.889 213.952)" stroke="url(#paint9_linear_11997_98407)" stroke-width="1.32096"/>
<path d="M294.686 214.257C294.682 214.386 294.761 214.65 295.253 215.042C295.729 215.42 296.477 215.822 297.509 216.232C299.563 217.048 302.587 217.832 306.376 218.536C313.945 219.943 324.452 221.007 336.101 221.39C347.749 221.772 358.304 221.4 365.948 220.494C369.776 220.04 372.844 219.455 374.948 218.776C376.004 218.435 376.777 218.083 377.277 217.736C377.794 217.378 377.89 217.12 377.894 216.991C377.899 216.862 377.819 216.597 377.327 216.206C376.852 215.828 376.103 215.425 375.072 215.016C373.017 214.2 369.993 213.416 366.204 212.711C358.636 211.305 348.128 210.241 336.48 209.858C324.831 209.475 314.276 209.848 306.632 210.754C302.804 211.208 299.736 211.793 297.632 212.472C296.576 212.813 295.803 213.165 295.303 213.511C294.787 213.869 294.69 214.128 294.686 214.257Z" stroke="url(#paint10_linear_11997_98407)" stroke-width="1.32096"/>
</g>
</g>
<path opacity="0.44" d="M456.722 294.658V199.104H460.312V291.267C460.312 292.065 457.919 293.86 456.722 294.658Z" fill="url(#paint11_linear_11997_98407)"/>
<line x1="447.664" y1="210.023" x2="448.519" y2="210.023" stroke="#FFF5F1" stroke-width="1.32096"/>
<line x1="448.523" y1="218.425" x2="449.378" y2="218.425" stroke="#FFF5F1" stroke-width="1.32096"/>
<line x1="448.094" y1="214.547" x2="448.949" y2="214.547" stroke="#FFF5F1" stroke-width="1.32096"/>
<line x1="447.664" y1="224.114" x2="449.931" y2="224.114" stroke="#FFF5F1" stroke-width="1.32096"/>
<line x1="447.504" y1="227.36" x2="448.501" y2="227.36" stroke="#FFF5F1" stroke-width="1.32096"/>
<line x1="446.746" y1="241.931" x2="447.743" y2="241.931" stroke="#FFF5F1" stroke-width="1.32096"/>
<path d="M551.279 203.655H556.965" stroke="#FFF5F1" stroke-width="0.66048"/>
<path d="M555.917 180.216L558.012 180.216" stroke="#FFF5F1" stroke-width="0.66048"/>
<path d="M551.279 207.402H556.965M551.279 211.292H556.965M551.279 215.082H556.965M550.481 222.463H556.167M549.484 226.154H555.169M548.886 229.745H554.571M547.788 233.136H553.474M546.591 236.527H552.277" stroke="#FFF5F1" stroke-width="0.66048"/>
<path fill-rule="evenodd" clip-rule="evenodd" d="M556.325 195.934C552.916 195.934 552.634 200.006 552.634 202.915H556.988C555.625 202.416 553.948 198.88 556.325 195.934ZM547.194 242.392V246.881H550.777V242.392H547.194ZM553.175 221.21V217.413H556.758V221.21H553.175ZM553.175 209.831V211.136H556.758V209.831H553.175ZM553.175 206.257V204.952H556.758V206.257H553.175ZM553.175 213.131V214.435H556.758V213.131H553.175ZM553.175 226.089V224.785H556.758V226.089H553.175ZM552.682 228.084V229.389H556.266V228.084H552.682ZM551.776 232.688V231.383H555.359V232.688H551.776ZM550.538 235.223V236.527H554.121V235.223H550.538Z" fill="url(#paint12_linear_11997_98407)"/>
<path fill-rule="evenodd" clip-rule="evenodd" d="M542.113 166.74H543.655V168.271H542.113V166.74ZM540.781 167.067L541.395 166.851V168.377L540.781 168.594V167.067ZM540.465 167.133L539.852 167.349V168.876L540.465 168.659V167.133ZM538.918 167.722L539.532 167.505V169.032L538.918 169.248V167.722ZM544.512 166.74H546.053V168.271H544.512V166.74ZM546.918 166.74H548.459V168.271H546.918V166.74ZM550.862 166.74H549.32V168.271H550.862V166.74ZM551.719 166.74H553.26V168.271H551.719V166.74ZM555.666 166.74H554.125V168.271H555.666V166.74ZM556.531 166.74H558.073V168.271H556.531V166.74ZM560.475 166.74H558.934V168.271H560.475V166.74ZM561.34 166.74H562.881V168.271H561.34V166.74Z" fill="#FFF5F1"/>
<path fill-rule="evenodd" clip-rule="evenodd" d="M542.113 159.498H543.655V161.03H542.113V159.498ZM540.781 159.826L541.395 159.609V161.136L540.781 161.352V159.826ZM540.465 159.891L539.852 160.108V161.634L540.465 161.417V159.891ZM538.918 160.481L539.532 160.264V161.79L538.918 162.007V160.481ZM544.512 159.498H546.053V161.03H544.512V159.498ZM546.918 159.498H548.459V161.03H546.918V159.498ZM550.862 159.498H549.32V161.03H550.862V159.498ZM551.719 159.498H553.26V161.03H551.719V159.498ZM555.666 159.498H554.125V161.03H555.666V159.498ZM556.531 159.498H558.073V161.03H556.531V159.498ZM560.475 159.498H558.934V161.03H560.475V159.498ZM561.34 159.498H562.881V161.03H561.34V159.498Z" fill="#FFF5F1"/>
<path fill-rule="evenodd" clip-rule="evenodd" d="M87.9835 240.688C69.6431 235.191 59.2903 215.136 64.8283 195.641C70.4135 175.978 90.0469 164.33 108.681 169.623C109.176 169.764 109.667 169.916 110.151 170.077C110.005 170.072 109.858 170.067 109.712 170.063C111.642 170.677 113.48 171.453 115.219 172.373C115.7 172.486 116.181 172.611 116.662 172.747C130.041 176.547 139.097 188.465 140.709 202.337C141.415 202.685 141.996 203.244 142.373 203.931C143.062 203.323 143.97 202.959 144.961 202.974C145.082 202.976 145.201 202.983 145.318 202.996C147.358 203.107 148.962 204.81 148.932 206.871L148.914 208.138C148.883 210.25 147.145 211.937 145.033 211.906C144.912 211.904 144.793 211.897 144.676 211.884C143.315 211.81 142.148 211.027 141.531 209.903C141.309 210.099 141.064 210.27 140.8 210.411C140.577 212.825 140.128 215.261 139.438 217.691C135.287 232.302 123.589 242.548 110.399 244.73V247.93C110.632 248.619 110.758 249.357 110.758 250.124V286.292C110.758 287.059 110.632 287.797 110.399 288.486V293.077H104.812C104.519 293.115 104.219 293.135 103.915 293.135C103.611 293.135 103.311 293.115 103.017 293.077H102.25C101.959 293.115 101.662 293.134 101.36 293.134C101.058 293.134 100.761 293.115 100.47 293.077H96.7123V291.314C95.3622 290.064 94.517 288.276 94.517 286.291V250.123C94.517 248.138 95.3622 246.351 96.7123 245.101V244.027C96.6201 244.002 96.528 243.976 96.4359 243.95C94.1856 243.31 92.0576 242.442 90.0667 241.372C89.5359 241.249 89.0056 241.112 88.4761 240.962C87.1156 240.576 85.7981 240.109 84.5266 239.57C85.4576 239.929 86.4122 240.248 87.3894 240.526C87.5874 240.582 87.7854 240.636 87.9835 240.688ZM99.3267 241.648C113.447 240.376 126.2 230.075 130.497 214.951C131.266 212.241 131.724 209.521 131.891 206.831H119.332C119.656 207.41 119.928 207.997 120.142 208.588C120.2 208.749 120.253 208.908 120.302 209.066C120.566 209.569 120.792 210.077 120.977 210.588C121.161 211.095 121.299 211.591 121.394 212.074C121.419 212.141 121.444 212.207 121.468 212.274C123.939 219.096 118.207 223.967 108.667 223.154C99.126 222.34 89.3891 216.15 86.9185 209.328C86.7351 208.822 86.5969 208.326 86.5021 207.842C86.4766 207.776 86.4518 207.709 86.4277 207.643C86.3657 207.472 86.3089 207.302 86.2572 207.133C86.2039 207.033 86.1522 206.932 86.1021 206.831H75.7881L75.7847 207.061C75.7722 207.916 75.4797 208.702 74.9959 209.332C74.9203 217.645 77.6334 225.512 82.4519 231.582C86.5258 236.107 91.8118 239.542 98.0024 241.301C98.4433 241.426 98.8848 241.542 99.3267 241.648ZM86.2423 205.543H86.086C85.9183 202.976 87.0603 200.826 89.1969 199.363L93.7551 202.716C93.4007 203.966 93.2718 205.294 93.4086 206.654C93.4515 207.08 93.5194 207.498 93.6107 207.906C93.6172 207.991 93.6247 208.075 93.6332 208.159C93.6502 208.328 93.6711 208.496 93.6958 208.662C93.6845 209.084 93.6998 209.511 93.7431 209.941L93.7431 209.941L93.7458 209.967C93.7567 210.073 93.7693 210.178 93.7834 210.283C94.067 212.383 94.9924 214.264 96.3597 215.774C94.5433 214.855 92.8645 213.773 91.4042 212.578C89.2133 210.624 87.5604 208.415 86.7341 206.133C86.6137 205.8 86.5131 205.473 86.4318 205.15C86.3255 205.816 86.3149 206.518 86.4069 207.251C86.3672 207.141 86.3297 207.031 86.2945 206.922C86.276 206.842 86.2585 206.763 86.2423 206.685V205.543ZM97.2851 197.276C94.5531 197.268 92.2091 197.77 90.3811 198.673L94.1316 201.619C94.8063 199.952 95.8936 198.462 97.2851 197.276ZM75.799 205.543H85.5568C83.2418 198.945 89.0135 194.265 98.5065 195.074C99.1726 195.131 99.8393 195.213 100.504 195.319C101.566 194.886 102.713 194.594 103.92 194.472C109.915 193.869 115.282 197.675 116.462 203.137C117.24 203.909 117.93 204.715 118.516 205.543H131.949C132.321 192.232 125.609 179.852 114.51 173.559C98.1004 170.617 81.4772 181.597 76.4525 199.285C76.0005 200.877 75.6568 202.471 75.417 204.06C75.6381 204.512 75.7725 205.014 75.799 205.543ZM104.559 170.341C106.137 170.494 107.719 170.771 109.294 171.178C108.631 170.943 107.957 170.728 107.272 170.533C106.831 170.408 106.389 170.292 105.947 170.186C105.483 170.228 105.02 170.28 104.559 170.341ZM103.142 241.78C106.086 241.29 108.952 240.414 111.675 239.191C108.951 240.434 106.083 241.311 103.142 241.78ZM94.5046 210.388C94.4506 210.1 94.4084 209.807 94.3785 209.511C94.1769 207.507 94.5622 205.574 95.4011 203.864C97.1015 200.88 100.328 198.698 104.203 198.308C104.241 198.305 104.279 198.301 104.316 198.298C108.409 199.44 112.276 201.459 115.272 203.946C115.771 204.901 116.115 205.945 116.27 207.054C116.355 206.354 116.364 205.637 116.291 204.911C116.288 204.885 116.285 204.859 116.282 204.833C116.325 204.872 116.367 204.911 116.408 204.951C116.436 205.129 116.459 205.309 116.477 205.491C117.079 211.469 112.453 216.83 106.145 217.465C100.247 218.059 94.9677 214.312 93.8131 208.937C93.7915 208.79 93.7731 208.641 93.758 208.491L93.7574 208.485C93.9459 209.149 94.1973 209.785 94.5046 210.388ZM120.597 210.954C120.898 211.785 121.075 212.588 121.136 213.353C121.125 213.413 121.112 213.473 121.099 213.533C121.022 212.91 120.866 212.265 120.625 211.599C120.328 210.78 119.918 209.971 119.409 209.18C120.371 212.251 119.476 214.863 117.224 216.61L114.933 214.81C116.168 213.156 116.921 211.188 117.021 209.095C117.03 208.913 117.034 208.73 117.033 208.546C117.031 208.233 117.014 207.918 116.982 207.602C116.966 207.442 116.946 207.284 116.923 207.127C116.933 206.695 116.916 206.259 116.872 205.82C116.856 205.66 116.836 205.501 116.813 205.343C118.564 207.082 119.886 208.991 120.597 210.954ZM114.104 215.797L116.087 217.355C114.298 218.344 111.929 218.913 109.132 218.937C111.082 218.294 112.784 217.197 114.104 215.797ZM93.7078 208.371L93.708 208.368L93.7109 208.318L93.711 208.316C93.7019 208.282 93.6929 208.248 93.6842 208.213C93.6916 208.266 93.6995 208.319 93.7078 208.371ZM85.961 203.346C86.2007 202 86.8358 200.808 87.8098 199.817C86.8159 200.803 86.1789 201.997 85.961 203.346ZM95.1352 212.619C95.6005 213.38 96.1586 214.08 96.7936 214.706C96.1532 214.082 95.5946 213.382 95.1352 212.619ZM107.47 212.206C107.443 212.247 107.415 212.287 107.387 212.325C107.308 212.491 107.22 212.648 107.123 212.795C107.039 212.922 106.95 213.039 106.856 213.145C106.836 213.177 106.816 213.209 106.795 213.24C105.532 215.15 103.22 214.615 101.631 212.045C100.041 209.475 99.7772 205.844 101.04 203.935C101.125 203.807 101.214 203.69 101.307 203.585C101.327 203.552 101.347 203.52 101.368 203.489C101.397 203.445 101.427 203.403 101.457 203.361C101.534 203.198 101.62 203.044 101.715 202.901C102.946 201.039 105.233 201.613 106.822 204.183C108.411 206.753 108.701 210.345 107.47 212.206ZM101.384 203.501L101.409 203.467L101.402 203.482L101.384 203.501ZM101.446 203.437C101.623 203.264 101.812 203.126 102.011 203.023C101.945 203.105 101.88 203.192 101.818 203.286C101.379 203.95 101.127 204.826 101.055 205.793C101.003 207.425 101.466 209.297 102.397 210.802C103.878 213.197 105.994 213.775 107.186 212.142C107.082 212.418 106.955 212.672 106.804 212.9C106.679 213.088 106.544 213.25 106.399 213.388C106.41 213.383 106.421 213.378 106.432 213.373C106.622 213.21 106.799 213.009 106.959 212.767C108.2 210.89 107.941 207.321 106.379 204.794C104.909 202.418 102.811 201.812 101.533 203.311C101.508 203.345 101.484 203.38 101.46 203.417L101.446 203.437ZM102.433 202.531C102.772 202.371 103.14 202.314 103.52 202.356C103.141 202.318 102.774 202.376 102.433 202.531Z" fill="url(#paint13_linear_11997_98407)"/>
<g opacity="0.96">
<path fill-rule="evenodd" clip-rule="evenodd" d="M235.023 59H236.344V88.3155H238.578V89.2892L245.094 88.7792V90.497L249.006 90.6204V73.7731H251.891V90.7114L261.502 91.0147V91.4801H264.926V91.8754H261.502V91.9297H264.926V92.325H261.502V92.7884H251.891V95.2771L262.824 94.9622V99.2672H268.722L272.051 99.4934V100.383H265.699V100.428L265.738 100.43V100.489L265.699 100.488V100.629L265.738 100.63V100.69L265.699 100.689V100.871L265.738 100.872V100.932L265.699 100.93V101.696H272.98V200.469H283.186L288.238 204.386V219.78H278.594V309.323H196.263V219.78H189.839V200.469H200.775V101.696H211.46V100.383H207.226V99.2672H214.428V96.3562L218.35 96.2432V73.7731H221.234V90.6469L225.777 90.2913V88.3155H235.023V84.2803H227.705V82.9594H235.023V59ZM249.006 95.3602V92.7884H245.094V93.9092L248.792 93.7199V95.3664L249.006 95.3602Z" fill="url(#paint14_linear_11997_98407)"/>
<path fill-rule="evenodd" clip-rule="evenodd" d="M235.023 59H236.344V88.3155H238.578V89.2892L245.094 88.7792V90.497L249.006 90.6204V73.7731H251.891V90.7114L261.502 91.0147V91.4801H264.926V91.8754H261.502V91.9297H264.926V92.325H261.502V92.7884H251.891V95.2771L262.824 94.9622V99.2672H268.722L272.051 99.4934V100.383H265.699V100.428L265.738 100.43V100.489L265.699 100.488V100.629L265.738 100.63V100.69L265.699 100.689V100.871L265.738 100.872V100.932L265.699 100.93V101.696H272.98V200.469H283.186L288.238 204.386V219.78H278.594V309.323H196.263V219.78H189.839V200.469H200.775V101.696H211.46V100.383H207.226V99.2672H214.428V96.3562L218.35 96.2432V73.7731H221.234V90.6469L225.777 90.2913V88.3155H235.023V84.2803H227.705V82.9594H235.023V59ZM249.006 95.3602V92.7884H245.094V93.9092L248.792 93.7199V95.3664L249.006 95.3602Z" fill="url(#paint15_radial_11997_98407)"/>
<path opacity="0.1" d="M288.395 204.371L283.303 200.576V216.405L288.395 219.738V204.371Z" fill="white"/>
<rect opacity="0.8" width="4.2583" height="97.8578" transform="matrix(-1 0 0 1 273.309 102.625)" fill="url(#paint16_linear_11997_98407)"/>
<path opacity="0.8" d="M260.898 102.625L259.232 106.702V172.841L260.898 175.42V102.625Z" fill="url(#paint17_linear_11997_98407)"/>
<g opacity="0.2">
<path d="M274.297 218.909L278.656 220.592V221.621L274.297 220.059H197.585V218.909H274.297Z" fill="url(#paint18_linear_11997_98407)"/>
<path d="M274.297 226.574L278.656 228.257V229.286L274.297 227.724H197.585V226.574H274.297Z" fill="url(#paint19_linear_11997_98407)"/>
<path d="M274.297 222.389L278.656 224.073V225.102L274.297 223.539H197.585V222.389H274.297Z" fill="url(#paint20_linear_11997_98407)"/>
<path fill-rule="evenodd" clip-rule="evenodd" d="M280.901 207.61H282.949V213.374H280.901V207.61ZM276.562 207.61H274.515V213.374H276.562V207.61ZM279.758 207.61H277.71V213.374H279.758V207.61ZM271.323 207.61H273.371V213.374H271.323V207.61ZM270.176 207.61H268.128V213.374H270.176V207.61ZM264.933 207.61H266.98V213.374H264.933V207.61ZM263.793 207.61H261.745V213.374H263.793V207.61ZM258.55 207.61H260.598V213.374H258.55V207.61ZM257.406 207.61H255.358V213.374H257.406V207.61Z" fill="url(#paint21_linear_11997_98407)"/>
<line y1="-0.66048" x2="3.4365" y2="-0.66048" transform="matrix(-1 0 0 1 270.543 244.03)" stroke="white" stroke-width="1.32096"/>
<line y1="-0.66048" x2="3.4365" y2="-0.66048" transform="matrix(-1 0 0 1 267.105 250.247)" stroke="white" stroke-width="1.32096"/>
<line y1="-0.66048" x2="3.4365" y2="-0.66048" transform="matrix(-1 0 0 1 268.824 247.378)" stroke="white" stroke-width="1.32096"/>
<line y1="-0.66048" x2="9.11216" y2="-0.66048" transform="matrix(-1 0 0 1 270.543 254.456)" stroke="white" stroke-width="1.32096"/>
<line y1="-0.66048" x2="4.00682" y2="-0.66048" transform="matrix(-1 0 0 1 271.203 256.858)" stroke="white" stroke-width="1.32096"/>
<line y1="-0.66048" x2="4.00682" y2="-0.66048" transform="matrix(-1 0 0 1 274.234 267.639)" stroke="white" stroke-width="1.32096"/>
</g>
</g>
<path fill-rule="evenodd" clip-rule="evenodd" d="M152.761 244.125H127.582L30.1963 266.343H44.1321V273.008H34.2964V325.592H197.223V273.008H154.27V261.094H145.726V251.161H157.945L152.761 244.125ZM94.3281 273.008V266.343H96.0001V273.008H94.3281Z" fill="#B5769B"/>
<path d="M225.07 272.64L307.273 325.591H255.063L225.07 272.64Z" fill="url(#paint22_linear_11997_98407)"/>
<path d="M225.073 272.64L159.903 325.591H255.066L225.073 272.64Z" fill="url(#paint23_linear_11997_98407)"/>
<path d="M239.895 290.374L246.167 300.385L247.918 302.627H267.027L247.918 290.374H239.895Z" fill="url(#paint24_linear_11997_98407)"/>
<mask id="mask2_11997_98407" style="mask-type:alpha" maskUnits="userSpaceOnUse" x="-16" y="268" width="143" height="38">
<rect width="141.215" height="37.1587" rx="18.5793" transform="matrix(-1 0 0 1 126.066 268.547)" fill="#19081F"/>
</mask>
<g mask="url(#mask2_11997_98407)">
<rect opacity="0.3" width="141.215" height="37.1587" transform="matrix(-1 0 0 1 130.484 268.504)" fill="url(#paint25_linear_11997_98407)"/>
</g>
<rect width="141.215" height="37.1587" rx="18.5793" transform="matrix(-1 0 0 1 120.91 268.124)" fill="#B5769B"/>
<rect width="155.92" height="14.9518" rx="7.47591" transform="matrix(-1 0 0 1 132.676 310.621)" fill="#B5769B"/>
<rect width="117.507" height="5.63004" transform="matrix(-1 0 0 1 122.086 305.282)" fill="#B5769B"/>
<rect width="117.507" height="5.63004" rx="2.81502" transform="matrix(-1 0 0 1 113.262 305.282)" fill="#B5769B"/>
<path d="M700.316 315.955L821.738 301.942L967.656 325.463H320.608L383.981 304.945L435.106 315.955L555.463 284.927L610.848 307.447L651.322 298.439L659.842 294.936L700.316 315.955Z" fill="url(#paint26_linear_11997_98407)"/>
<path d="M-232.613 309.941L-320.313 287.067L-425.707 325.463H41.6417L-4.13153 291.968L-41.0579 309.941L-127.989 259.291L-167.992 296.053L-197.225 281.348L-203.38 275.629L-232.613 309.941Z" fill="url(#paint27_linear_11997_98407)"/>
<g opacity="0.2" filter="url(#filter1_d_11997_98407)">
<path fill-rule="evenodd" clip-rule="evenodd" d="M-127.464 258.465L-127.781 260.019L-138.113 310.695L-167.608 294.851L-168.066 295.704L-168.046 295.641L-169.299 295.224L-179.308 325.251L-179.73 326.518L-178.467 326.084L-138.076 312.215L-137.956 312.279L-137.174 312.699L-137.014 311.914L-84.1126 325.874L-83.9172 326.167L-83.5105 326.115L-83.3026 326.088L-83.2639 326.098L-83.0576 326.152L-82.8585 326.076L-82.6801 326.007L-15.7935 317.369L39.6629 326.112L39.8686 324.807L-15.1375 316.135L-3.43256 292.725L-4.61407 292.135L-16.3885 315.683L-41.1481 309.555L-41.4655 310.837L-18.8585 316.433L-77.4567 324.001L-41.8217 310.312L-42.2953 309.079L-83.006 324.718L-83.2155 324.745L-83.2913 324.725L-126.585 259.785L-127.464 258.465ZM-85.2178 324.216L-136.749 310.618L-126.804 261.837L-85.2178 324.216ZM-139.662 311.363L-177.632 324.401L-168.18 296.043L-139.662 311.363ZM555.826 285.986L528.111 303.131L610.809 307.034L610.877 307.037L610.943 307.054L635.847 313.465L650.593 298.473L650.884 298.178L651.276 298.311L701.571 315.326L701.181 316.48L701.269 316.843L667.239 325.101L666.776 325.213L666.577 324.896L642.782 326.11L642.779 326.12L642.678 326.115L642.594 326.12L642.174 326.141L642.148 326.092L637.181 325.87H490.419L321.77 325.87L321.648 324.56L375.197 314.443L375.57 314.016L384.077 304.257L385.073 305.125L377.489 313.825L435.206 315.274L525.654 303.098L555.131 284.862L555.826 285.986ZM490.453 324.549L388.812 315.43L435.208 316.595L435.21 316.606L435.278 316.597L435.343 316.598L435.343 316.862L607.585 324.549H490.453ZM637.211 324.549L450.517 316.216L611.129 309.362L639.689 324.549H637.211ZM643.469 324.752L665.773 323.614L651.043 300.138L643.469 324.752ZM642.396 323.746L649.138 301.837L637.199 313.975L642.396 323.746ZM640.864 323.678L636.207 314.922L635.886 314.839L613.316 309.029L640.864 323.678ZM652.615 300.158L699.317 315.958L667.389 323.705L652.615 300.158ZM446.722 315.056L607.441 308.198L526.167 304.362L446.722 315.056ZM475.669 324.549H328.824L376.102 315.616L475.669 324.549ZM799.651 311.763C810.915 307.068 820.261 303.206 821.432 302.815L821.014 301.562C819.782 301.973 810.362 305.867 799.143 310.544C787.973 315.199 774.968 320.652 766.334 324.281L701.954 315.547L701.777 316.856L766.335 325.614L766.513 325.638L766.679 325.568C775.312 321.94 788.41 316.448 799.651 311.763Z" fill="url(#paint28_radial_11997_98407)"/>
</g>
<defs>
<filter id="filter0_d_11997_98407" x="-143.438" y="0.27541" width="1495.33" height="340.089" filterUnits="userSpaceOnUse" color-interpolation-filters="sRGB">
<feFlood flood-opacity="0" result="BackgroundImageFix"/>
<feColorMatrix in="SourceAlpha" type="matrix" values="0 0 0 0 0 0 0 0 0 0 0 0 0 0 0 0 0 0 127 0" result="hardAlpha"/>
<feOffset dy="-34.3449"/>
<feGaussianBlur stdDeviation="24.4377"/>
<feColorMatrix type="matrix" values="0 0 0 0 0.996275 0 0 0 0 0.813732 0 0 0 0 1 0 0 0 0.49 0"/>
<feBlend mode="normal" in2="BackgroundImageFix" result="effect1_dropShadow_11997_98407"/>
<feBlend mode="normal" in="SourceGraphic" in2="effect1_dropShadow_11997_98407" result="shape"/>
</filter>
<filter id="filter1_d_11997_98407" x="-228.606" y="175.244" width="1098.91" height="165.804" filterUnits="userSpaceOnUse" color-interpolation-filters="sRGB">
<feFlood flood-opacity="0" result="BackgroundImageFix"/>
<feColorMatrix in="SourceAlpha" type="matrix" values="0 0 0 0 0 0 0 0 0 0 0 0 0 0 0 0 0 0 127 0" result="hardAlpha"/>
<feOffset dy="-34.3449"/>
<feGaussianBlur stdDeviation="24.4377"/>
<feColorMatrix type="matrix" values="0 0 0 0 0.996275 0 0 0 0 0.813732 0 0 0 0 1 0 0 0 0.49 0"/>
<feBlend mode="normal" in2="BackgroundImageFix" result="effect1_dropShadow_11997_98407"/>
<feBlend mode="normal" in="SourceGraphic" in2="effect1_dropShadow_11997_98407" result="shape"/>
</filter>
<radialGradient id="paint0_radial_11997_98407" cx="0" cy="0" r="1" gradientUnits="userSpaceOnUse" gradientTransform="translate(482.911 141.892) rotate(24.7395) scale(790.814 4019.13)">
<stop stop-color="#BF6890"/>
<stop offset="1" stop-color="#957092"/>
</radialGradient>
<linearGradient id="paint1_linear_11997_98407" x1="17.78" y1="83.5794" x2="46.5641" y2="114.09" gradientUnits="userSpaceOnUse">
<stop stop-color="#E49FC9"/>
<stop offset="1" stop-color="#C9A6BA"/>
</linearGradient>
<linearGradient id="paint2_linear_11997_98407" x1="182.849" y1="252.63" x2="354.17" y2="231.495" gradientUnits="userSpaceOnUse">
<stop stop-color="#B5769B"/>
<stop offset="1" stop-color="#C9A6BA"/>
</linearGradient>
<radialGradient id="paint3_radial_11997_98407" cx="0" cy="0" r="1" gradientUnits="userSpaceOnUse" gradientTransform="translate(188.27 124.709) rotate(107.277) scale(64.8551)">
<stop stop-color="#E66CC1"/>
<stop offset="1" stop-color="#AE6591" stop-opacity="0"/>
</radialGradient>
<linearGradient id="paint4_linear_11997_98407" x1="169.507" y1="201.44" x2="169.507" y2="243.831" gradientUnits="userSpaceOnUse">
<stop stop-color="white"/>
<stop offset="1" stop-color="white" stop-opacity="0"/>
</linearGradient>
<linearGradient id="paint5_linear_11997_98407" x1="485.169" y1="178.106" x2="464.624" y2="325.591" gradientUnits="userSpaceOnUse">
<stop stop-color="#F8CBE6"/>
<stop offset="1" stop-color="#B26F97"/>
</linearGradient>
<linearGradient id="paint6_linear_11997_98407" x1="274.996" y1="176.739" x2="274.996" y2="233.069" gradientUnits="userSpaceOnUse">
<stop stop-color="#E8AAD2"/>
<stop offset="0.65625" stop-color="#CB8FB5"/>
</linearGradient>
<linearGradient id="paint7_linear_11997_98407" x1="396.266" y1="99.8813" x2="396.266" y2="205.319" gradientUnits="userSpaceOnUse">
<stop stop-color="#FFA2E0"/>
<stop offset="1" stop-color="white" stop-opacity="0"/>
</linearGradient>
<linearGradient id="paint8_linear_11997_98407" x1="405.339" y1="134.696" x2="405.339" y2="236.596" gradientUnits="userSpaceOnUse">
<stop stop-color="#FFA2E0"/>
<stop offset="1" stop-color="white" stop-opacity="0"/>
</linearGradient>
<linearGradient id="paint9_linear_11997_98407" x1="35.279" y1="10.1621" x2="19.8316" y2="77.8581" gradientUnits="userSpaceOnUse">
<stop stop-color="white"/>
<stop offset="0.590774" stop-color="white"/>
<stop offset="1" stop-color="white" stop-opacity="0"/>
</linearGradient>
<linearGradient id="paint10_linear_11997_98407" x1="343.455" y1="210.972" x2="343.475" y2="221.794" gradientUnits="userSpaceOnUse">
<stop stop-color="white"/>
<stop offset="0.590774" stop-color="white"/>
<stop offset="1" stop-color="white" stop-opacity="0"/>
</linearGradient>
<linearGradient id="paint11_linear_11997_98407" x1="458.517" y1="203.753" x2="458.517" y2="294.658" gradientUnits="userSpaceOnUse">
<stop stop-color="#FF8FF4"/>
<stop offset="1" stop-color="white" stop-opacity="0"/>
</linearGradient>
<linearGradient id="paint12_linear_11997_98407" x1="571.246" y1="218.992" x2="547.196" y2="241.764" gradientUnits="userSpaceOnUse">
<stop stop-color="#FEF2D5" stop-opacity="0.6"/>
<stop offset="1" stop-color="#FFF1D5"/>
</linearGradient>
<linearGradient id="paint13_linear_11997_98407" x1="106.134" y1="213.8" x2="86.6875" y2="264.45" gradientUnits="userSpaceOnUse">
<stop stop-color="#AE6591"/>
<stop offset="1" stop-color="#C9A6BA"/>
</linearGradient>
<linearGradient id="paint14_linear_11997_98407" x1="203.381" y1="251.652" x2="362.721" y2="153.736" gradientUnits="userSpaceOnUse">
<stop stop-color="#AE6591"/>
<stop offset="1" stop-color="#C9A6BA"/>
</linearGradient>
<radialGradient id="paint15_radial_11997_98407" cx="0" cy="0" r="1" gradientUnits="userSpaceOnUse" gradientTransform="translate(307.962 72.7897) rotate(123.959) scale(173.221 173.221)">
<stop stop-color="#FFA6E6"/>
<stop offset="1" stop-color="#B5769B"/>
</radialGradient>
<linearGradient id="paint16_linear_11997_98407" x1="2.62595" y1="-0.269588" x2="2.62595" y2="102.455" gradientUnits="userSpaceOnUse">
<stop stop-color="#FFA2E0"/>
<stop offset="1" stop-color="white" stop-opacity="0"/>
</linearGradient>
<linearGradient id="paint17_linear_11997_98407" x1="259.871" y1="102.425" x2="259.871" y2="178.84" gradientUnits="userSpaceOnUse">
<stop stop-color="#FFA2E0"/>
<stop offset="1" stop-color="white" stop-opacity="0"/>
</linearGradient>
<linearGradient id="paint18_linear_11997_98407" x1="280.013" y1="219.998" x2="218.263" y2="217.163" gradientUnits="userSpaceOnUse">
<stop stop-color="white"/>
<stop offset="1" stop-color="white" stop-opacity="0"/>
</linearGradient>
<linearGradient id="paint19_linear_11997_98407" x1="280.013" y1="227.663" x2="218.263" y2="224.828" gradientUnits="userSpaceOnUse">
<stop stop-color="white"/>
<stop offset="1" stop-color="white" stop-opacity="0"/>
</linearGradient>
<linearGradient id="paint20_linear_11997_98407" x1="280.013" y1="223.479" x2="218.263" y2="220.644" gradientUnits="userSpaceOnUse">
<stop stop-color="white"/>
<stop offset="1" stop-color="white" stop-opacity="0"/>
</linearGradient>
<linearGradient id="paint21_linear_11997_98407" x1="283.411" y1="209.925" x2="262.352" y2="209.771" gradientUnits="userSpaceOnUse">
<stop stop-color="white"/>
<stop offset="1" stop-color="white" stop-opacity="0"/>
</linearGradient>
<linearGradient id="paint22_linear_11997_98407" x1="307.273" y1="353.3" x2="281.436" y2="281.153" gradientUnits="userSpaceOnUse">
<stop stop-color="#AE6591"/>
<stop offset="1" stop-color="#C9A6BA"/>
</linearGradient>
<linearGradient id="paint23_linear_11997_98407" x1="202.403" y1="317.137" x2="259.959" y2="251.024" gradientUnits="userSpaceOnUse">
<stop stop-color="#B5769B"/>
<stop offset="1" stop-color="#C9A6BA"/>
</linearGradient>
<linearGradient id="paint24_linear_11997_98407" x1="253.461" y1="294.837" x2="252.792" y2="300.464" gradientUnits="userSpaceOnUse">
<stop stop-color="#DEA6C8"/>
<stop offset="1" stop-color="#C9A6BA"/>
</linearGradient>
<linearGradient id="paint25_linear_11997_98407" x1="70.6076" y1="13.5349" x2="71.8011" y2="30.7575" gradientUnits="userSpaceOnUse">
<stop stop-color="#DEA6C8"/>
<stop offset="1" stop-color="#C9A6BA"/>
</linearGradient>
<linearGradient id="paint26_linear_11997_98407" x1="591.567" y1="284.927" x2="591.567" y2="351.896" gradientUnits="userSpaceOnUse">
<stop stop-color="#D191AF"/>
<stop offset="1" stop-color="#C0839F"/>
</linearGradient>
<linearGradient id="paint27_linear_11997_98407" x1="-154.066" y1="259.291" x2="-154.066" y2="368.612" gradientUnits="userSpaceOnUse">
<stop stop-color="#D191AF"/>
<stop offset="1" stop-color="#C0839F"/>
</linearGradient>
<radialGradient id="paint28_radial_11997_98407" cx="0" cy="0" r="1" gradientUnits="userSpaceOnUse" gradientTransform="translate(185.334 274.971) rotate(11.2771) scale(478.377 1226.73)">
<stop stop-color="white"/>
<stop offset="1" stop-color="white"/>
</radialGradient>
</defs>
</svg>
