<svg width="250" height="89" viewBox="0 0 250 89" fill="none" xmlns="http://www.w3.org/2000/svg">
<g opacity="0.2" filter="url(#filter0_f_11997_98375)">
<path d="M225.996 70.4625C239.605 70.2816 245.406 75.0601 246.605 77.4719L32.0094 78.8286L30.2549 74.9882C29.6756 75.2171 27.3759 75.2423 21.2143 74.5325C9.43774 73.1758 5.83923 70.4625 3.22221 62.3226C1.12859 55.8106 14.3446 52.5245 21.2143 51.6954C15.5441 41.5959 11.5313 18.3669 40.8419 6.24744C70.1526 -5.87203 101.252 18.8342 113.137 32.7022C113.573 31.2702 116.605 28.9941 125.241 31.3456C145.915 35.3251 149.994 46.5703 149.448 51.6954H162.533C174.572 52.5999 176.273 55.69 175.619 57.1221C176.491 56.293 181.18 54.8158 192.956 55.5393C204.733 56.2629 202.825 65.2243 200.971 71.2539C203.261 69.9726 212.388 70.6434 225.996 70.4625Z" fill="url(#paint0_linear_11997_98375)"/>
<mask id="mask0_11997_98375" style="mask-type:alpha" maskUnits="userSpaceOnUse" x="3" y="3" width="244" height="76">
<path d="M225.996 70.4625C239.605 70.2816 245.406 75.0601 246.605 77.4719L32.0094 78.8286L30.2549 74.9882C29.6756 75.2171 27.3759 75.2423 21.2143 74.5325C9.43774 73.1758 5.83923 70.4625 3.22221 62.3226C1.12859 55.8106 14.3446 52.5245 21.2143 51.6954C15.5441 41.5959 11.5313 18.3669 40.8419 6.24744C70.1526 -5.87203 101.252 18.8342 113.137 32.7022C113.573 31.2702 116.605 28.9941 125.241 31.3456C145.915 35.3251 149.994 46.5703 149.448 51.6954H162.533C174.572 52.5999 176.927 55.577 176.273 57.009C177.145 56.18 182.488 55.0419 194.265 55.7654C205.868 56.4783 202.916 66.0665 201.054 72.1158L200.971 72.3845C203.261 71.1032 212.388 70.6434 225.996 70.4625Z" fill="url(#paint1_linear_11997_98375)"/>
</mask>
<g mask="url(#mask0_11997_98375)">
<path opacity="0.3" d="M113.353 32.5894C112.729 34.8891 113.95 41.1908 123.367 48.6718C123.846 49.0289 124.325 49.3961 124.803 49.7737C124.304 49.4038 123.826 49.0364 123.367 48.6718C113.207 41.1015 102.862 38.0673 96.751 37.1825C95.4664 37.1292 94.3193 37.0187 93.3984 36.8854C94.2831 36.8984 95.416 36.9892 96.751 37.1825C102.008 37.4005 109.568 36.6595 113.353 32.5894Z" fill="url(#paint2_linear_11997_98375)"/>
<path opacity="0.5" d="M66.8479 42.6514C52.4081 49.3917 67.0115 59.0443 75.1897 63.9057C81.2415 64.697 84.3493 63.9057 87.9477 61.7576C60.9924 52.3515 62.6498 44.611 66.8479 42.6514Z" fill="url(#paint3_linear_11997_98375)"/>
<path opacity="0.3" d="M34.299 46.043C18.6441 56.6123 32.6295 67.362 41.4958 74.985C48.0569 76.2259 49.674 78.4711 57.9139 78.4711C28.6904 63.7215 29.7476 49.1158 34.299 46.043Z" fill="url(#paint4_linear_11997_98375)"/>
<path d="M90.8925 36.8853C119.843 37.6767 135.873 61.5312 137.508 63.3401C124.914 68.1638 100.445 73.3115 103.323 55.3132C105.463 41.9336 90.4223 37.6705 83.968 36.5791C80.7358 36.0325 79.657 36.2814 83.968 36.5791C85.5237 36.6865 87.7811 36.8003 90.8925 36.8853Z" fill="url(#paint5_linear_11997_98375)"/>
<path d="M201.361 70.9468C207.572 55.8124 193.873 52.5287 186.329 52.7209C208.266 54.1052 190.073 68.4475 178.234 75.4456C183.3 80.2904 195.15 86.0812 201.361 70.9468Z" fill="url(#paint6_linear_11997_98375)"/>
<path d="M246.606 77.5853C244.267 71.3762 234.83 69.4454 226.324 70.4629C247.588 70.4629 235.974 76.3417 234.83 78.6028C239.314 79.7509 249.708 85.8196 246.606 77.5853Z" fill="url(#paint7_linear_11997_98375)"/>
<path d="M175.618 67.5173C181.768 52.6845 168.203 49.4662 160.733 49.6546C182.455 51.0113 164.441 65.0678 152.719 71.9264C157.735 76.6747 169.468 82.3501 175.618 67.5173Z" fill="url(#paint8_linear_11997_98375)"/>
<path d="M160.008 66.6951C162.891 59.9692 156.532 58.5098 153.03 58.5953C163.213 59.2104 154.768 65.5843 149.273 68.6944C151.625 70.8475 157.125 73.421 160.008 66.6951Z" fill="url(#paint9_linear_11997_98375)"/>
<path d="M32.99 48.3042C11.007 32.0243 25.248 15.5937 35.1163 9.41333C9.86203 24.9697 14.1257 44.8748 20.8318 52.1857C20.3956 52.3741 19.0544 51.7863 5.83842 53.5047C-10.6815 55.6527 -1.03125 75.3242 11.8903 77.8115C24.8118 80.2987 29.3916 73.4023 22.3584 73.2893C15.3251 73.1762 -5.2839 63.9057 6.98339 56.218C19.2507 48.5303 37.0791 65.6015 39.6961 65.6015C25.9568 57.9138 28.9009 51.0175 32.99 48.3042Z" fill="url(#paint10_linear_11997_98375)"/>
<path d="M29.3271 13.7427C25.4561 24.106 29.7524 43.4761 77.9056 38.0494C75.5274 38.3009 51.0811 45.6241 65.8019 56.3643C75.6724 63.5658 79.4914 65.7639 80.5333 66.087H80.8497C80.8321 66.1419 80.7345 66.1494 80.5333 66.087H68.5824C67.9282 61.8663 63.5447 51.8873 51.2447 45.7372C38.9447 39.587 33.4707 44.7574 32.2713 48.1113C24.8018 42.0817 13.7559 26.7666 29.3271 13.7427Z" fill="url(#paint11_linear_11997_98375)"/>
<path d="M149.119 51.696C153.699 41.408 136.045 27.9907 123.883 28.1807C108.68 28.4182 118.714 43.62 149.119 51.696Z" fill="url(#paint12_linear_11997_98375)"/>
</g>
<path fill-rule="evenodd" clip-rule="evenodd" d="M137.408 63.3597C137.408 64.3272 134.796 65.2153 130.44 65.9112C147.331 66.6134 158.671 67.9132 158.671 69.4006C158.671 70.2224 155.21 70.987 149.262 71.6251C163.043 72.0669 171.753 72.7178 171.753 73.4436C171.753 73.6433 171.094 73.8373 169.852 74.0228C186.075 74.2012 198.254 74.9531 198.254 75.8535C198.254 76.0881 197.428 76.3125 195.919 76.5194C200.548 76.4382 205.72 76.3929 211.176 76.3929C230.959 76.3929 246.997 76.9892 246.997 77.7247C246.997 78.4603 230.959 79.0566 211.176 79.0566C209.659 79.0566 208.164 79.0531 206.697 79.0462C208.306 79.3732 209.213 79.7431 209.213 80.1347C209.213 81.4657 198.741 82.5447 185.823 82.5447C175.865 82.5447 167.361 81.9035 163.986 81C155.161 81.4169 144.476 81.7319 132.642 81.9084C132.658 81.9617 132.666 82.0153 132.666 82.0691C132.666 84.302 118.753 86.1122 101.589 86.1122C84.4257 86.1122 70.512 84.302 70.512 82.0691C70.512 81.8818 70.6098 81.6975 70.7993 81.517C47.4364 80.8153 31.7461 79.5145 31.7461 78.0257C31.7461 77.6036 33.0075 77.1966 35.3476 76.814C26.9662 76.0899 21.4414 74.8507 21.4414 73.4436C21.4414 72.1899 25.8272 71.0696 32.7117 70.328C32.085 69.8066 31.7461 69.2497 31.7461 68.6712C31.7461 65.7377 40.4605 63.3597 51.2102 63.3597C58.5669 63.3597 64.9704 64.4734 68.2798 66.1168C72.0812 65.923 76.2327 65.7616 80.6543 65.638C77.2467 64.9893 75.2539 64.2048 75.2539 63.3597C75.2539 61.1268 89.1676 59.3167 106.331 59.3167C123.494 59.3167 137.408 61.1268 137.408 63.3597Z" fill="url(#paint13_linear_11997_98375)"/>
<path fill-rule="evenodd" clip-rule="evenodd" d="M137.408 63.3597C137.408 64.3272 134.796 65.2153 130.44 65.9112C147.331 66.6134 158.671 67.9132 158.671 69.4006C158.671 70.2224 155.21 70.987 149.262 71.6251C163.043 72.0669 171.753 72.7178 171.753 73.4436C171.753 73.6433 171.094 73.8373 169.852 74.0228C186.075 74.2012 198.254 74.9531 198.254 75.8535C198.254 76.0881 197.428 76.3125 195.919 76.5194C200.548 76.4382 205.72 76.3929 211.176 76.3929C230.959 76.3929 246.997 76.9892 246.997 77.7247C246.997 78.4603 230.959 79.0566 211.176 79.0566C209.659 79.0566 208.164 79.0531 206.697 79.0462C208.306 79.3732 209.213 79.7431 209.213 80.1347C209.213 81.4657 198.741 82.5447 185.823 82.5447C175.865 82.5447 167.361 81.9035 163.986 81C155.161 81.4169 144.476 81.7319 132.642 81.9084C132.658 81.9617 132.666 82.0153 132.666 82.0691C132.666 84.302 118.753 86.1122 101.589 86.1122C84.4257 86.1122 70.512 84.302 70.512 82.0691C70.512 81.8818 70.6098 81.6975 70.7993 81.517C47.4364 80.8153 31.7461 79.5145 31.7461 78.0257C31.7461 77.6036 33.0075 77.1966 35.3476 76.814C26.9662 76.0899 21.4414 74.8507 21.4414 73.4436C21.4414 72.1899 25.8272 71.0696 32.7117 70.328C32.085 69.8066 31.7461 69.2497 31.7461 68.6712C31.7461 65.7377 40.4605 63.3597 51.2102 63.3597C58.5669 63.3597 64.9704 64.4734 68.2798 66.1168C72.0812 65.923 76.2327 65.7616 80.6543 65.638C77.2467 64.9893 75.2539 64.2048 75.2539 63.3597C75.2539 61.1268 89.1676 59.3167 106.331 59.3167C123.494 59.3167 137.408 61.1268 137.408 63.3597Z" fill="url(#paint14_radial_11997_98375)"/>
<ellipse rx="31.2485" ry="3.39987" transform="matrix(-0.998579 -0.0532935 -0.150913 -0.988547 71.4 77.1329)" fill="url(#paint15_linear_11997_98375)"/>
<ellipse rx="27.29" ry="7.0936" transform="matrix(-0.998579 -0.0532935 -0.150913 -0.988547 121.772 72.7139)" fill="url(#paint16_linear_11997_98375)"/>
<path d="M69.6287 65.9402C66.0303 58.4032 55.5622 43.3744 42.4771 43.5553C26.1207 43.7814 36.9159 58.2524 69.6287 65.9402Z" fill="url(#paint17_linear_11997_98375)"/>
<path d="M28.4102 59.3163C26.5893 57.778 21.2921 54.7105 14.6707 54.7474C6.39392 54.7936 11.8566 57.7472 28.4102 59.3163Z" fill="url(#paint18_linear_11997_98375)"/>
<path d="M112.973 32.5892C106.068 23.34 85.98 4.89695 60.8704 5.11893C29.4834 5.39641 50.1988 23.155 112.973 32.5892Z" fill="url(#paint19_linear_11997_98375)"/>
<path d="M137.832 63.1142C138.323 60.5139 141.103 59.4964 141.594 58.8181C134.888 60.1748 128.836 54.2959 132.598 57.4614C136.36 60.627 137.341 65.7144 137.832 63.1142Z" fill="url(#paint20_linear_11997_98375)"/>
<path d="M182.976 74.3066C173.293 71.6837 178.941 60.8531 182.976 55.7656C181.667 55.7656 178.069 55.7656 176.27 56.8962C179.214 66.5058 171.526 73.7413 171.036 74.3066C170.545 74.8719 171.363 75.6633 182.976 74.3066Z" fill="url(#paint21_linear_11997_98375)"/>
</g>
<defs>
<filter id="filter0_f_11997_98375" x="0.88" y="0.88" width="248.237" height="87.3521" filterUnits="userSpaceOnUse" color-interpolation-filters="sRGB">
<feFlood flood-opacity="0" result="BackgroundImageFix"/>
<feBlend mode="normal" in="SourceGraphic" in2="BackgroundImageFix" result="shape"/>
<feGaussianBlur stdDeviation="1.06" result="effect1_foregroundBlur_11997_98375"/>
</filter>
<linearGradient id="paint0_linear_11997_98375" x1="3" y1="43.3294" x2="192.629" y2="131.705" gradientUnits="userSpaceOnUse">
<stop stop-color="#F19DD5"/>
<stop offset="1" stop-color="#FBE2B5"/>
</linearGradient>
<linearGradient id="paint1_linear_11997_98375" x1="3" y1="43.3294" x2="192.629" y2="131.705" gradientUnits="userSpaceOnUse">
<stop stop-color="#F19DD5"/>
<stop offset="1" stop-color="#FBE2B5"/>
</linearGradient>
<linearGradient id="paint2_linear_11997_98375" x1="115.486" y1="46.2762" x2="121.77" y2="25.1651" gradientUnits="userSpaceOnUse">
<stop stop-color="#EC6AB8"/>
<stop offset="1" stop-color="#EC6AB8" stop-opacity="0"/>
</linearGradient>
<linearGradient id="paint3_linear_11997_98375" x1="63.2571" y1="58.3434" x2="88.1148" y2="56.7163" gradientUnits="userSpaceOnUse">
<stop stop-color="#E22C4B"/>
<stop offset="1" stop-color="#EE6A80" stop-opacity="0"/>
</linearGradient>
<linearGradient id="paint4_linear_11997_98375" x1="31.1457" y1="73.1173" x2="58.1552" y2="71.895" gradientUnits="userSpaceOnUse">
<stop stop-color="#E22C4B"/>
<stop offset="1" stop-color="#EE6A80" stop-opacity="0"/>
</linearGradient>
<linearGradient id="paint5_linear_11997_98375" x1="137.508" y1="65.3612" x2="73.0962" y2="55.739" gradientUnits="userSpaceOnUse">
<stop stop-color="white"/>
<stop offset="1" stop-color="white" stop-opacity="0"/>
</linearGradient>
<linearGradient id="paint6_linear_11997_98375" x1="202.781" y1="78.4908" x2="174.267" y2="76.397" gradientUnits="userSpaceOnUse">
<stop stop-color="white"/>
<stop offset="1" stop-color="white" stop-opacity="0"/>
</linearGradient>
<linearGradient id="paint7_linear_11997_98375" x1="242.353" y1="75.3337" x2="239.322" y2="80.0143" gradientUnits="userSpaceOnUse">
<stop stop-color="white"/>
<stop offset="1" stop-color="white" stop-opacity="0"/>
</linearGradient>
<linearGradient id="paint8_linear_11997_98375" x1="177.024" y1="74.911" x2="148.794" y2="72.8167" gradientUnits="userSpaceOnUse">
<stop stop-color="white"/>
<stop offset="1" stop-color="white" stop-opacity="0"/>
</linearGradient>
<linearGradient id="paint9_linear_11997_98375" x1="160.667" y1="70.0478" x2="147.438" y2="69.0332" gradientUnits="userSpaceOnUse">
<stop stop-color="white"/>
<stop offset="1" stop-color="white" stop-opacity="0"/>
</linearGradient>
<linearGradient id="paint10_linear_11997_98375" x1="0.0803855" y1="58.2294" x2="40.0977" y2="57.0049" gradientUnits="userSpaceOnUse">
<stop stop-color="#E22C4B"/>
<stop offset="1" stop-color="#EE6A80" stop-opacity="0"/>
</linearGradient>
<linearGradient id="paint11_linear_11997_98375" x1="63.2263" y1="55.4685" x2="90.5494" y2="-1.48571" gradientUnits="userSpaceOnUse">
<stop stop-color="#EC6AB8"/>
<stop offset="1" stop-color="#EC6AB8" stop-opacity="0"/>
</linearGradient>
<linearGradient id="paint12_linear_11997_98375" x1="149.119" y1="49.7958" x2="111.953" y2="45.5208" gradientUnits="userSpaceOnUse">
<stop stop-color="white"/>
<stop offset="1" stop-color="white" stop-opacity="0"/>
</linearGradient>
<linearGradient id="paint13_linear_11997_98375" x1="227.96" y1="64.234" x2="208.066" y2="122.598" gradientUnits="userSpaceOnUse">
<stop stop-color="#B843E6"/>
<stop offset="1" stop-color="#DC6B9C"/>
</linearGradient>
<radialGradient id="paint14_radial_11997_98375" cx="0" cy="0" r="1" gradientUnits="userSpaceOnUse" gradientTransform="translate(246.997 79.1954) rotate(-177.249) scale(236.57 418.393)">
<stop stop-color="#FF1F00"/>
<stop offset="1" stop-color="#C952C8"/>
</radialGradient>
<linearGradient id="paint15_linear_11997_98375" x1="60.9259" y1="1.14012" x2="53.6929" y2="20.5054" gradientUnits="userSpaceOnUse">
<stop stop-color="#E952D8"/>
<stop offset="1" stop-color="#E952D8" stop-opacity="0"/>
</linearGradient>
<linearGradient id="paint16_linear_11997_98375" x1="53.208" y1="2.37878" x2="30.336" y2="28.0104" gradientUnits="userSpaceOnUse">
<stop stop-color="#E952D8"/>
<stop offset="1" stop-color="#E952D8" stop-opacity="0"/>
</linearGradient>
<linearGradient id="paint17_linear_11997_98375" x1="69.6287" y1="64.1313" x2="29.7865" y2="58.9516" gradientUnits="userSpaceOnUse">
<stop stop-color="white"/>
<stop offset="1" stop-color="white" stop-opacity="0"/>
</linearGradient>
<linearGradient id="paint18_linear_11997_98375" x1="28.4102" y1="58.9471" x2="9.83756" y2="52.961" gradientUnits="userSpaceOnUse">
<stop stop-color="white"/>
<stop offset="1" stop-color="white" stop-opacity="0"/>
</linearGradient>
<linearGradient id="paint19_linear_11997_98375" x1="112.973" y1="30.3694" x2="38.3112" y2="15.1917" gradientUnits="userSpaceOnUse">
<stop stop-color="white"/>
<stop offset="1" stop-color="white" stop-opacity="0"/>
</linearGradient>
<linearGradient id="paint20_linear_11997_98375" x1="150.59" y1="70.2366" x2="153.515" y2="60.4987" gradientUnits="userSpaceOnUse">
<stop stop-color="#E22C4B"/>
<stop offset="1" stop-color="#EE6A80" stop-opacity="0"/>
</linearGradient>
<linearGradient id="paint21_linear_11997_98375" x1="150.59" y1="70.2366" x2="153.515" y2="60.4987" gradientUnits="userSpaceOnUse">
<stop stop-color="#E22C4B"/>
<stop offset="1" stop-color="#EE6A80" stop-opacity="0"/>
</linearGradient>
</defs>
</svg>
