<svg width="461" height="524" viewBox="0 0 461 524" fill="none" xmlns="http://www.w3.org/2000/svg">
  <g filter="url(#filter0_d_11997_98757)">
    <path d="M217.219 62.0179C217.219 48.9842 217.219 42.4673 218.932 37.1932C222.396 26.534 230.753 18.177 241.412 14.7136C246.686 13 253.203 13 266.237 13H392.821C405.855 13 412.372 13 417.646 14.7136C428.305 18.177 436.662 26.534 440.126 37.1932C441.839 42.4673 441.839 48.9842 441.839 62.0179V426.151C441.839 439.185 441.839 445.701 440.126 450.976C436.662 461.635 428.305 469.992 417.646 473.455C412.372 475.169 405.855 475.169 392.821 475.169H266.237C253.203 475.169 246.686 475.169 241.412 473.455C230.753 469.992 222.396 461.635 218.932 450.976C217.219 445.701 217.219 439.185 217.219 426.151V62.0179Z" fill="white"/>
    <path d="M219.91 60.9402C219.91 48.909 219.91 42.8935 221.492 38.0251C224.689 28.1858 232.403 20.4717 242.242 17.2747C247.111 15.6929 253.126 15.6929 265.157 15.6929H393.897C405.928 15.6929 411.943 15.6929 416.812 17.2747C426.651 20.4717 434.365 28.1858 437.562 38.0251C439.144 42.8935 439.144 48.909 439.144 60.9402V427.228C439.144 439.259 439.144 445.274 437.562 450.143C434.365 459.982 426.651 467.696 416.812 470.893C411.943 472.475 405.928 472.475 393.897 472.475H265.157C253.126 472.475 247.111 472.475 242.242 470.893C232.403 467.696 224.689 459.982 221.492 450.143C219.91 445.274 219.91 439.259 219.91 427.228V60.9402Z" fill="#EDEBFF"/>
    <path d="M274.317 28.6227V26.1987C274.317 24.5625 272.99 23.2361 271.354 23.2361L264.416 23.2361C253.57 23.2361 248.146 23.2361 243.821 24.8704C237.023 27.4393 231.656 32.8058 229.087 39.6041C227.453 43.9293 227.453 49.3525 227.453 60.1988V427.973C227.453 438.819 227.453 444.242 229.087 448.568C231.656 455.366 237.023 460.733 243.821 463.301C248.146 464.936 253.57 464.936 264.416 464.936H394.642C405.488 464.936 410.911 464.936 415.237 463.301C422.035 460.733 427.401 455.366 429.97 448.568C431.605 444.242 431.605 438.819 431.605 427.973V60.1988C431.605 49.3525 431.605 43.9293 429.97 39.6041C427.401 32.8058 422.035 27.4393 415.237 24.8704C410.911 23.2361 405.488 23.2361 394.642 23.2361L387.704 23.2361C386.068 23.2361 384.741 24.5625 384.741 26.1987V28.6227L384.703 28.6215L384.741 28.892C384.741 35.2881 379.556 40.4731 373.16 40.4731H285.898C279.501 40.4731 274.316 35.2881 274.316 28.892L274.355 28.6215L274.317 28.6227Z" fill="url(#paint0_linear_11997_98757)"/>
    <g filter="url(#filter1_b_11997_98757)">
      <rect x="232.809" y="118.866" width="194.342" height="77.9081" rx="6.84907" fill="#F5F5F5" fill-opacity="0.3"/>
      <path d="M246.439 148.62H245.074C245.035 148.396 244.963 148.198 244.858 148.025C244.754 147.85 244.623 147.701 244.468 147.579C244.312 147.458 244.134 147.366 243.935 147.306C243.737 147.242 243.524 147.211 243.296 147.211C242.889 147.211 242.529 147.313 242.215 147.517C241.901 147.719 241.655 148.016 241.477 148.408C241.299 148.798 241.211 149.274 241.211 149.836C241.211 150.408 241.299 150.89 241.477 151.282C241.657 151.672 241.903 151.966 242.215 152.166C242.529 152.363 242.888 152.461 243.292 152.461C243.516 152.461 243.725 152.432 243.92 152.374C244.117 152.313 244.294 152.224 244.449 152.107C244.608 151.99 244.74 151.847 244.847 151.676C244.957 151.506 245.032 151.311 245.074 151.092L246.439 151.099C246.388 151.455 246.278 151.788 246.107 152.1C245.939 152.412 245.719 152.687 245.446 152.925C245.174 153.161 244.855 153.346 244.49 153.48C244.124 153.612 243.719 153.677 243.274 153.677C242.616 153.677 242.03 153.525 241.514 153.221C240.998 152.917 240.591 152.477 240.294 151.903C239.997 151.328 239.849 150.639 239.849 149.836C239.849 149.03 239.998 148.341 240.298 147.769C240.597 147.195 241.005 146.755 241.521 146.451C242.037 146.147 242.621 145.995 243.274 145.995C243.69 145.995 244.077 146.053 244.435 146.17C244.793 146.287 245.112 146.458 245.392 146.685C245.671 146.909 245.901 147.184 246.082 147.51C246.264 147.834 246.383 148.204 246.439 148.62ZM249.938 153.685C249.391 153.685 248.916 153.564 248.514 153.323C248.112 153.082 247.801 152.745 247.579 152.312C247.36 151.878 247.251 151.372 247.251 150.793C247.251 150.213 247.36 149.706 247.579 149.27C247.801 148.834 248.112 148.496 248.514 148.255C248.916 148.014 249.391 147.893 249.938 147.893C250.486 147.893 250.961 148.014 251.362 148.255C251.764 148.496 252.074 148.834 252.293 149.27C252.515 149.706 252.626 150.213 252.626 150.793C252.626 151.372 252.515 151.878 252.293 152.312C252.074 152.745 251.764 153.082 251.362 153.323C250.961 153.564 250.486 153.685 249.938 153.685ZM249.946 152.626C250.243 152.626 250.491 152.544 250.69 152.381C250.89 152.216 251.039 151.994 251.136 151.717C251.236 151.439 251.286 151.13 251.286 150.789C251.286 150.446 251.236 150.135 251.136 149.858C251.039 149.578 250.89 149.355 250.69 149.19C250.491 149.024 250.243 148.941 249.946 148.941C249.641 148.941 249.388 149.024 249.186 149.19C248.986 149.355 248.837 149.578 248.737 149.858C248.64 150.135 248.591 150.446 248.591 150.789C248.591 151.13 248.64 151.439 248.737 151.717C248.837 151.994 248.986 152.216 249.186 152.381C249.388 152.544 249.641 152.626 249.946 152.626ZM254.94 150.289V153.575H253.618V147.966H254.881V148.92H254.947C255.076 148.605 255.282 148.356 255.564 148.171C255.849 147.986 256.201 147.893 256.619 147.893C257.006 147.893 257.344 147.976 257.631 148.142C257.92 148.307 258.144 148.547 258.303 148.861C258.463 149.175 258.542 149.556 258.54 150.004V153.575H257.218V150.209C257.218 149.834 257.121 149.54 256.926 149.328C256.734 149.117 256.467 149.011 256.126 149.011C255.895 149.011 255.689 149.062 255.509 149.164C255.332 149.264 255.192 149.409 255.089 149.599C254.99 149.789 254.94 150.019 254.94 150.289ZM262.595 147.966V148.989H259.279V147.966H262.595ZM260.108 153.575V147.437C260.108 147.06 260.186 146.746 260.342 146.495C260.5 146.244 260.712 146.057 260.977 145.933C261.242 145.808 261.537 145.746 261.861 145.746C262.09 145.746 262.293 145.765 262.471 145.801C262.648 145.838 262.78 145.871 262.865 145.9L262.602 146.922C262.546 146.905 262.475 146.888 262.39 146.871C262.305 146.852 262.21 146.842 262.105 146.842C261.86 146.842 261.685 146.901 261.583 147.021C261.483 147.138 261.434 147.306 261.434 147.525V153.575H260.108ZM263.5 153.575V147.966H264.822V153.575H263.5ZM264.165 147.17C263.955 147.17 263.775 147.101 263.624 146.962C263.473 146.821 263.398 146.652 263.398 146.455C263.398 146.255 263.473 146.086 263.624 145.947C263.775 145.806 263.955 145.735 264.165 145.735C264.376 145.735 264.556 145.806 264.705 145.947C264.856 146.086 264.931 146.255 264.931 146.455C264.931 146.652 264.856 146.821 264.705 146.962C264.556 147.101 264.376 147.17 264.165 147.17ZM266.051 153.575V147.966H267.333V148.901H267.391C267.494 148.577 267.669 148.328 267.917 148.153C268.168 147.975 268.454 147.886 268.775 147.886C268.848 147.886 268.93 147.89 269.02 147.897C269.112 147.902 269.189 147.91 269.25 147.923V149.139C269.194 149.119 269.105 149.102 268.983 149.087C268.864 149.07 268.748 149.062 268.636 149.062C268.395 149.062 268.179 149.114 267.986 149.219C267.797 149.321 267.647 149.464 267.537 149.646C267.428 149.829 267.373 150.039 267.373 150.278V153.575H266.051ZM269.998 153.575V147.966H271.262V148.92H271.327C271.444 148.598 271.638 148.347 271.908 148.167C272.178 147.985 272.501 147.893 272.876 147.893C273.255 147.893 273.575 147.986 273.836 148.171C274.099 148.354 274.284 148.603 274.391 148.92H274.449C274.573 148.608 274.783 148.36 275.077 148.175C275.374 147.987 275.726 147.893 276.133 147.893C276.649 147.893 277.07 148.057 277.396 148.383C277.722 148.709 277.885 149.185 277.885 149.81V153.575H276.56V150.015C276.56 149.667 276.467 149.412 276.282 149.252C276.097 149.089 275.871 149.007 275.603 149.007C275.284 149.007 275.035 149.107 274.855 149.307C274.677 149.504 274.588 149.761 274.588 150.077V153.575H273.292V149.96C273.292 149.671 273.204 149.439 273.029 149.266C272.856 149.094 272.63 149.007 272.35 149.007C272.16 149.007 271.987 149.056 271.831 149.153C271.675 149.248 271.551 149.383 271.459 149.559C271.366 149.731 271.32 149.933 271.32 150.165V153.575H269.998ZM282.839 146.097V153.575H281.517V146.097H282.839ZM286.515 153.685C285.967 153.685 285.492 153.564 285.091 153.323C284.689 153.082 284.377 152.745 284.156 152.312C283.937 151.878 283.827 151.372 283.827 150.793C283.827 150.213 283.937 149.706 284.156 149.27C284.377 148.834 284.689 148.496 285.091 148.255C285.492 148.014 285.967 147.893 286.515 147.893C287.063 147.893 287.537 148.014 287.939 148.255C288.341 148.496 288.651 148.834 288.87 149.27C289.092 149.706 289.202 150.213 289.202 150.793C289.202 151.372 289.092 151.878 288.87 152.312C288.651 152.745 288.341 153.082 287.939 153.323C287.537 153.564 287.063 153.685 286.515 153.685ZM286.522 152.626C286.819 152.626 287.067 152.544 287.267 152.381C287.467 152.216 287.615 151.994 287.713 151.717C287.812 151.439 287.862 151.13 287.862 150.789C287.862 150.446 287.812 150.135 287.713 149.858C287.615 149.578 287.467 149.355 287.267 149.19C287.067 149.024 286.819 148.941 286.522 148.941C286.218 148.941 285.965 149.024 285.763 149.19C285.563 149.355 285.413 149.578 285.313 149.858C285.216 150.135 285.167 150.446 285.167 150.789C285.167 151.13 285.216 151.439 285.313 151.717C285.413 151.994 285.563 152.216 285.763 152.381C285.965 152.544 286.218 152.626 286.522 152.626ZM292.634 155.795C292.159 155.795 291.751 155.731 291.41 155.602C291.069 155.475 290.796 155.305 290.589 155.091C290.382 154.876 290.238 154.639 290.158 154.379L291.348 154.09C291.402 154.2 291.48 154.308 291.582 154.415C291.684 154.525 291.822 154.615 291.995 154.685C292.17 154.758 292.39 154.795 292.655 154.795C293.03 154.795 293.341 154.704 293.587 154.521C293.832 154.341 293.955 154.044 293.955 153.63V152.567H293.89C293.822 152.704 293.722 152.844 293.59 152.987C293.461 153.131 293.29 153.251 293.075 153.349C292.864 153.446 292.597 153.495 292.276 153.495C291.845 153.495 291.454 153.394 291.104 153.192C290.755 152.987 290.478 152.683 290.271 152.279C290.067 151.872 289.964 151.364 289.964 150.753C289.964 150.137 290.067 149.617 290.271 149.193C290.478 148.767 290.757 148.445 291.107 148.226C291.458 148.004 291.848 147.893 292.279 147.893C292.608 147.893 292.878 147.949 293.09 148.061C293.304 148.171 293.475 148.304 293.601 148.459C293.728 148.613 293.824 148.758 293.89 148.894H293.963V147.966H295.266V153.666C295.266 154.146 295.152 154.543 294.923 154.857C294.694 155.171 294.381 155.406 293.985 155.562C293.588 155.717 293.137 155.795 292.634 155.795ZM292.645 152.458C292.924 152.458 293.163 152.39 293.36 152.253C293.557 152.117 293.707 151.921 293.809 151.665C293.912 151.41 293.963 151.103 293.963 150.745C293.963 150.392 293.912 150.083 293.809 149.818C293.71 149.552 293.561 149.347 293.364 149.201C293.169 149.052 292.929 148.978 292.645 148.978C292.35 148.978 292.104 149.055 291.907 149.208C291.71 149.361 291.561 149.572 291.461 149.84C291.362 150.105 291.312 150.407 291.312 150.745C291.312 151.089 291.362 151.389 291.461 151.647C291.564 151.903 291.713 152.102 291.911 152.246C292.11 152.387 292.355 152.458 292.645 152.458ZM296.491 153.575V147.966H297.813V153.575H296.491ZM297.156 147.17C296.946 147.17 296.766 147.101 296.615 146.962C296.464 146.821 296.389 146.652 296.389 146.455C296.389 146.255 296.464 146.086 296.615 145.947C296.766 145.806 296.946 145.735 297.156 145.735C297.367 145.735 297.548 145.806 297.696 145.947C297.847 146.086 297.922 146.255 297.922 146.455C297.922 146.652 297.847 146.821 297.696 146.962C297.548 147.101 297.367 147.17 297.156 147.17ZM300.364 150.289V153.575H299.042V147.966H300.306V148.92H300.371C300.5 148.605 300.706 148.356 300.989 148.171C301.273 147.986 301.625 147.893 302.044 147.893C302.431 147.893 302.768 147.976 303.055 148.142C303.345 148.307 303.569 148.547 303.727 148.861C303.888 149.175 303.967 149.556 303.965 150.004V153.575H302.643V150.209C302.643 149.834 302.545 149.54 302.351 149.328C302.158 149.117 301.892 149.011 301.551 149.011C301.32 149.011 301.114 149.062 300.934 149.164C300.756 149.264 300.616 149.409 300.514 149.599C300.414 149.789 300.364 150.019 300.364 150.289Z" fill="#18171A"/>
      <path d="M405.116 130.406V132.716H404.527V128.877H405.096V129.477H405.146C405.236 129.282 405.373 129.125 405.556 129.007C405.74 128.887 405.976 128.827 406.266 128.827C406.526 128.827 406.753 128.88 406.948 128.987C407.143 129.092 407.295 129.252 407.403 129.467C407.512 129.68 407.566 129.95 407.566 130.277V132.716H406.976V130.316C406.976 130.015 406.898 129.78 406.741 129.612C406.584 129.442 406.369 129.357 406.096 129.357C405.908 129.357 405.74 129.398 405.591 129.479C405.445 129.561 405.329 129.68 405.244 129.837C405.159 129.993 405.116 130.183 405.116 130.406ZM410.16 132.796C409.813 132.796 409.509 132.713 409.248 132.548C408.988 132.383 408.784 132.153 408.638 131.856C408.493 131.559 408.42 131.213 408.42 130.816C408.42 130.416 408.493 130.067 408.638 129.769C408.784 129.471 408.988 129.239 409.248 129.074C409.509 128.909 409.813 128.827 410.16 128.827C410.506 128.827 410.81 128.909 411.069 129.074C411.331 129.239 411.534 129.471 411.679 129.769C411.826 130.067 411.899 130.416 411.899 130.816C411.899 131.213 411.826 131.559 411.679 131.856C411.534 132.153 411.331 132.383 411.069 132.548C410.81 132.713 410.506 132.796 410.16 132.796ZM410.16 132.266C410.423 132.266 410.64 132.198 410.81 132.064C410.98 131.929 411.105 131.751 411.187 131.531C411.269 131.311 411.309 131.073 411.309 130.816C411.309 130.56 411.269 130.321 411.187 130.099C411.105 129.877 410.98 129.698 410.81 129.562C410.64 129.425 410.423 129.357 410.16 129.357C409.896 129.357 409.68 129.425 409.51 129.562C409.34 129.698 409.214 129.877 409.133 130.099C409.051 130.321 409.01 130.56 409.01 130.816C409.01 131.073 409.051 131.311 409.133 131.531C409.214 131.751 409.34 131.929 409.51 132.064C409.68 132.198 409.896 132.266 410.16 132.266ZM413.495 132.716L412.326 128.877H412.946L413.775 131.816H413.815L414.635 128.877H415.265L416.075 131.806H416.115L416.945 128.877H417.564L416.395 132.716H415.815L414.975 129.767H414.915L414.075 132.716H413.495Z" fill="#3512B2"/>
      <path d="M256.489 133.687V127.227H260.387V127.921H257.271V130.104H260.186V130.798H257.271V132.993H260.438V133.687H256.489ZM261.642 133.687V128.842H262.361V129.599H262.424C262.525 129.34 262.688 129.14 262.913 128.997C263.138 128.852 263.408 128.779 263.723 128.779C264.043 128.779 264.309 128.852 264.521 128.997C264.736 129.14 264.903 129.34 265.023 129.599H265.073C265.197 129.349 265.383 129.15 265.631 129.003C265.879 128.854 266.177 128.779 266.524 128.779C266.957 128.779 267.311 128.915 267.587 129.186C267.862 129.455 268 129.875 268 130.444V133.687H267.255V130.444C267.255 130.087 267.158 129.831 266.962 129.678C266.767 129.524 266.536 129.448 266.271 129.448C265.931 129.448 265.667 129.551 265.48 129.757C265.293 129.961 265.199 130.219 265.199 130.533V133.687H264.442V130.369C264.442 130.093 264.353 129.871 264.174 129.703C263.995 129.533 263.765 129.448 263.483 129.448C263.29 129.448 263.109 129.499 262.941 129.602C262.775 129.705 262.64 129.848 262.537 130.031C262.436 130.212 262.386 130.421 262.386 130.659V133.687H261.642ZM270.732 133.8C270.425 133.8 270.146 133.742 269.896 133.627C269.646 133.509 269.447 133.34 269.3 133.119C269.153 132.896 269.079 132.627 269.079 132.311C269.079 132.034 269.134 131.809 269.243 131.637C269.352 131.462 269.498 131.325 269.681 131.227C269.864 131.128 270.066 131.054 270.287 131.006C270.51 130.955 270.734 130.915 270.959 130.886C271.253 130.848 271.492 130.82 271.675 130.801C271.86 130.78 271.994 130.745 272.078 130.697C272.164 130.648 272.208 130.564 272.208 130.444V130.419C272.208 130.108 272.122 129.866 271.952 129.694C271.784 129.521 271.528 129.435 271.186 129.435C270.83 129.435 270.552 129.513 270.35 129.668C270.148 129.824 270.006 129.99 269.924 130.167L269.218 129.914C269.344 129.62 269.512 129.391 269.722 129.227C269.935 129.061 270.166 128.945 270.416 128.88C270.668 128.813 270.917 128.779 271.16 128.779C271.316 128.779 271.495 128.798 271.697 128.836C271.901 128.872 272.097 128.946 272.286 129.06C272.478 129.173 272.637 129.345 272.763 129.574C272.889 129.803 272.952 130.11 272.952 130.495V133.687H272.208V133.031H272.17C272.119 133.136 272.035 133.248 271.917 133.368C271.8 133.488 271.643 133.59 271.447 133.674C271.252 133.758 271.013 133.8 270.732 133.8ZM270.845 133.131C271.139 133.131 271.388 133.074 271.589 132.958C271.793 132.842 271.947 132.693 272.05 132.51C272.155 132.327 272.208 132.135 272.208 131.933V131.252C272.176 131.29 272.107 131.324 271.999 131.356C271.894 131.385 271.772 131.412 271.634 131.435C271.497 131.456 271.363 131.475 271.233 131.491C271.105 131.506 271.001 131.519 270.921 131.529C270.727 131.555 270.547 131.596 270.378 131.652C270.212 131.707 270.078 131.79 269.975 131.901C269.874 132.011 269.823 132.16 269.823 132.349C269.823 132.608 269.919 132.803 270.11 132.936C270.304 133.066 270.549 133.131 270.845 133.131ZM274.256 133.687V128.842H275V133.687H274.256ZM274.634 128.035C274.489 128.035 274.364 127.985 274.259 127.887C274.156 127.788 274.104 127.669 274.104 127.53C274.104 127.391 274.156 127.273 274.259 127.174C274.364 127.075 274.489 127.026 274.634 127.026C274.779 127.026 274.903 127.075 275.006 127.174C275.112 127.273 275.164 127.391 275.164 127.53C275.164 127.669 275.112 127.788 275.006 127.887C274.903 127.985 274.779 128.035 274.634 128.035ZM277.053 127.227V133.687H276.309V127.227H277.053Z" fill="#3512B2"/>
      <rect x="237.957" y="124.003" width="13.6635" height="13.6635" rx="2.73271" fill="#6851FF"/>
      <path d="M249.234 129.616C248.818 129.954 248.294 130.366 246.45 131.753C246.089 132.034 245.42 132.653 244.787 132.653C244.137 132.653 243.486 132.034 243.106 131.753C241.263 130.366 240.739 129.954 240.323 129.616C240.251 129.56 240.16 129.616 240.16 129.71V133.534C240.16 134.04 240.54 134.434 241.028 134.434H248.547C249.017 134.434 249.415 134.04 249.415 133.534V129.71C249.415 129.616 249.306 129.56 249.234 129.616ZM244.787 132.034C245.203 132.053 245.8 131.491 246.107 131.266C248.511 129.466 248.692 129.298 249.234 128.848C249.342 128.773 249.415 128.642 249.415 128.492V128.136C249.415 127.648 249.017 127.236 248.547 127.236H241.028C240.54 127.236 240.16 127.648 240.16 128.136V128.492C240.16 128.642 240.214 128.773 240.323 128.848C240.865 129.298 241.046 129.466 243.45 131.266C243.757 131.491 244.354 132.053 244.787 132.034Z" fill="white"/>
      <rect opacity="0.2" x="238.996" y="166.751" width="166.579" height="4.11306" rx="2.05653" fill="#4E4D52"/>
      <rect opacity="0.2" x="238.996" y="177.034" width="114.138" height="4.11306" rx="2.05653" fill="#4E4D52"/>
    </g>
  </g>
  <g filter="url(#filter2_d_11997_98757)">
    <rect x="33.7344" y="51.1423" width="316.749" height="401.626" rx="23.3907" fill="white"/>
    <circle cx="19.2221" cy="19.2221" r="19.2221" transform="matrix(-1 0 0 1 211.333 90.127)" fill="url(#paint1_linear_11997_98757)"/>
    <path d="M159.241 163.59L155.908 151.94H158.598L160.527 160.034H160.624L162.751 151.94H165.055L167.177 160.051H167.279L169.207 151.94H171.898L168.564 163.59H166.164L163.946 155.973H163.855L161.642 163.59H159.241ZM176.214 163.76C175.315 163.76 174.542 163.578 173.893 163.214C173.248 162.846 172.752 162.327 172.403 161.656C172.054 160.981 171.879 160.182 171.879 159.261C171.879 158.362 172.054 157.573 172.403 156.894C172.752 156.216 173.243 155.687 173.876 155.307C174.513 154.928 175.26 154.739 176.117 154.739C176.694 154.739 177.23 154.831 177.727 155.017C178.228 155.199 178.664 155.474 179.035 155.842C179.411 156.21 179.703 156.673 179.911 157.23C180.12 157.784 180.224 158.432 180.224 159.175V159.841H172.846V158.339H177.943C177.943 157.99 177.867 157.681 177.716 157.412C177.564 157.143 177.353 156.932 177.084 156.781C176.819 156.625 176.51 156.547 176.157 156.547C175.789 156.547 175.463 156.633 175.179 156.803C174.898 156.97 174.678 157.196 174.519 157.48C174.36 157.761 174.278 158.074 174.274 158.419V159.847C174.274 160.279 174.354 160.653 174.513 160.967C174.676 161.282 174.906 161.525 175.201 161.695C175.497 161.866 175.848 161.951 176.254 161.951C176.523 161.951 176.769 161.913 176.993 161.838C177.217 161.762 177.408 161.648 177.568 161.496C177.727 161.345 177.848 161.159 177.932 160.939L180.173 161.087C180.059 161.625 179.826 162.095 179.473 162.497C179.124 162.896 178.673 163.207 178.12 163.43C177.57 163.65 176.934 163.76 176.214 163.76ZM184.229 151.94V163.59H181.806V151.94H184.229ZM190.118 163.76C189.223 163.76 188.453 163.571 187.808 163.191C187.167 162.808 186.674 162.277 186.329 161.599C185.988 160.92 185.817 160.139 185.817 159.255C185.817 158.36 185.99 157.575 186.335 156.9C186.684 156.221 187.179 155.692 187.82 155.313C188.46 154.93 189.223 154.739 190.106 154.739C190.869 154.739 191.536 154.877 192.109 155.154C192.681 155.431 193.134 155.819 193.468 156.32C193.802 156.82 193.986 157.408 194.02 158.083H191.733C191.669 157.647 191.498 157.296 191.221 157.031C190.948 156.762 190.59 156.627 190.146 156.627C189.771 156.627 189.443 156.729 189.162 156.934C188.885 157.135 188.669 157.429 188.514 157.816C188.358 158.203 188.28 158.671 188.28 159.221C188.28 159.778 188.356 160.252 188.508 160.643C188.663 161.034 188.881 161.331 189.162 161.536C189.443 161.741 189.771 161.843 190.146 161.843C190.423 161.843 190.671 161.786 190.891 161.673C191.115 161.559 191.299 161.394 191.443 161.178C191.591 160.958 191.688 160.694 191.733 160.387H194.02C193.982 161.054 193.8 161.642 193.474 162.15C193.151 162.655 192.706 163.049 192.137 163.334C191.568 163.618 190.895 163.76 190.118 163.76ZM199.519 163.76C198.635 163.76 197.871 163.573 197.227 163.197C196.586 162.818 196.091 162.291 195.742 161.616C195.393 160.937 195.219 160.15 195.219 159.255C195.219 158.353 195.393 157.564 195.742 156.889C196.091 156.21 196.586 155.683 197.227 155.307C197.871 154.928 198.635 154.739 199.519 154.739C200.403 154.739 201.165 154.928 201.806 155.307C202.45 155.683 202.947 156.21 203.296 156.889C203.645 157.564 203.819 158.353 203.819 159.255C203.819 160.15 203.645 160.937 203.296 161.616C202.947 162.291 202.45 162.818 201.806 163.197C201.165 163.573 200.403 163.76 199.519 163.76ZM199.53 161.883C199.932 161.883 200.268 161.769 200.537 161.542C200.807 161.31 201.009 160.996 201.146 160.598C201.286 160.199 201.356 159.746 201.356 159.238C201.356 158.73 201.286 158.277 201.146 157.878C201.009 157.48 200.807 157.166 200.537 156.934C200.268 156.703 199.932 156.587 199.53 156.587C199.125 156.587 198.783 156.703 198.507 156.934C198.234 157.166 198.027 157.48 197.887 157.878C197.75 158.277 197.682 158.73 197.682 159.238C197.682 159.746 197.75 160.199 197.887 160.598C198.027 160.996 198.234 161.31 198.507 161.542C198.783 161.769 199.125 161.883 199.53 161.883ZM205.395 163.59V154.852H207.705V156.394H207.807C207.989 155.882 208.292 155.478 208.717 155.182C209.142 154.886 209.65 154.739 210.242 154.739C210.841 154.739 211.351 154.888 211.772 155.188C212.193 155.484 212.473 155.886 212.614 156.394H212.705C212.883 155.893 213.205 155.493 213.672 155.194C214.142 154.89 214.698 154.739 215.338 154.739C216.154 154.739 216.815 154.998 217.324 155.518C217.836 156.034 218.092 156.765 218.092 157.714V163.59H215.674V158.191C215.674 157.706 215.545 157.342 215.287 157.099C215.029 156.856 214.707 156.735 214.32 156.735C213.88 156.735 213.537 156.875 213.291 157.156C213.044 157.433 212.921 157.799 212.921 158.254V163.59H210.572V158.14C210.572 157.712 210.448 157.37 210.202 157.116C209.959 156.862 209.639 156.735 209.24 156.735C208.971 156.735 208.729 156.803 208.512 156.94C208.3 157.073 208.131 157.26 208.006 157.503C207.881 157.742 207.818 158.023 207.818 158.345V163.59H205.395ZM223.988 163.76C223.089 163.76 222.315 163.578 221.667 163.214C221.022 162.846 220.525 162.327 220.176 161.656C219.827 160.981 219.653 160.182 219.653 159.261C219.653 158.362 219.827 157.573 220.176 156.894C220.525 156.216 221.016 155.687 221.65 155.307C222.287 154.928 223.034 154.739 223.891 154.739C224.467 154.739 225.004 154.831 225.501 155.017C226.001 155.199 226.437 155.474 226.809 155.842C227.184 156.21 227.476 156.673 227.685 157.23C227.894 157.784 227.998 158.432 227.998 159.175V159.841H220.62V158.339H225.717C225.717 157.99 225.641 157.681 225.489 157.412C225.338 157.143 225.127 156.932 224.858 156.781C224.592 156.625 224.283 156.547 223.931 156.547C223.563 156.547 223.237 156.633 222.952 156.803C222.672 156.97 222.452 157.196 222.292 157.48C222.133 157.761 222.052 158.074 222.048 158.419V159.847C222.048 160.279 222.127 160.653 222.287 160.967C222.45 161.282 222.679 161.525 222.975 161.695C223.271 161.866 223.622 161.951 224.027 161.951C224.297 161.951 224.543 161.913 224.767 161.838C224.991 161.762 225.182 161.648 225.341 161.496C225.501 161.345 225.622 161.159 225.705 160.939L227.947 161.087C227.833 161.625 227.6 162.095 227.247 162.497C226.898 162.896 226.447 163.207 225.893 163.43C225.343 163.65 224.708 163.76 223.988 163.76Z" fill="#18171A"/>
    <path d="M93.924 218.608V209.288H99.5486V210.289H95.0525V213.438H99.2574V214.439H95.0525V217.607H99.6214V218.608H93.924ZM101.437 218.608V211.618H102.475V212.71H102.566C102.711 212.337 102.946 212.047 103.271 211.841C103.596 211.631 103.986 211.527 104.441 211.527C104.902 211.527 105.286 211.631 105.592 211.841C105.901 212.047 106.143 212.337 106.315 212.71H106.388C106.567 212.349 106.836 212.062 107.194 211.85C107.552 211.635 107.981 211.527 108.482 211.527C109.107 211.527 109.618 211.722 110.015 212.114C110.413 212.502 110.611 213.107 110.611 213.93V218.608H109.537V213.93C109.537 213.414 109.396 213.045 109.114 212.824C108.832 212.602 108.5 212.492 108.118 212.492C107.626 212.492 107.245 212.64 106.975 212.938C106.705 213.232 106.57 213.605 106.57 214.057V218.608H105.478V213.82C105.478 213.423 105.349 213.103 105.091 212.86C104.833 212.614 104.501 212.492 104.095 212.492C103.816 212.492 103.555 212.566 103.312 212.715C103.072 212.863 102.878 213.069 102.73 213.333C102.584 213.594 102.511 213.896 102.511 214.239V218.608H101.437ZM114.632 218.771C114.189 218.771 113.787 218.688 113.426 218.521C113.065 218.351 112.778 218.107 112.566 217.789C112.353 217.467 112.247 217.079 112.247 216.624C112.247 216.223 112.326 215.898 112.484 215.65C112.642 215.398 112.853 215.201 113.116 215.058C113.38 214.916 113.672 214.809 113.99 214.74C114.312 214.667 114.635 214.609 114.96 214.567C115.384 214.512 115.729 214.471 115.993 214.444C116.259 214.413 116.454 214.363 116.575 214.294C116.699 214.224 116.762 214.102 116.762 213.93V213.893C116.762 213.444 116.639 213.095 116.393 212.847C116.15 212.598 115.782 212.473 115.287 212.473C114.774 212.473 114.372 212.586 114.081 212.81C113.79 213.035 113.585 213.274 113.467 213.529L112.448 213.165C112.63 212.74 112.872 212.41 113.176 212.173C113.482 211.933 113.816 211.766 114.177 211.672C114.541 211.575 114.899 211.527 115.251 211.527C115.475 211.527 115.733 211.554 116.024 211.609C116.319 211.66 116.602 211.768 116.875 211.932C117.151 212.096 117.38 212.343 117.562 212.674C117.745 213.004 117.836 213.447 117.836 214.002V218.608H116.762V217.661H116.707C116.634 217.813 116.513 217.975 116.343 218.148C116.173 218.321 115.947 218.468 115.665 218.589C115.383 218.711 115.038 218.771 114.632 218.771ZM114.796 217.807C115.22 217.807 115.578 217.723 115.87 217.556C116.164 217.39 116.385 217.174 116.534 216.91C116.686 216.646 116.762 216.369 116.762 216.077V215.095C116.716 215.149 116.616 215.199 116.461 215.245C116.31 215.287 116.134 215.325 115.933 215.358C115.736 215.389 115.544 215.416 115.355 215.44C115.17 215.462 115.02 215.48 114.905 215.495C114.626 215.531 114.365 215.591 114.122 215.672C113.883 215.751 113.688 215.871 113.54 216.032C113.394 216.19 113.321 216.405 113.321 216.678C113.321 217.051 113.459 217.333 113.735 217.525C114.014 217.713 114.368 217.807 114.796 217.807ZM119.796 218.608V211.618H120.87V218.608H119.796ZM120.342 210.453C120.132 210.453 119.952 210.382 119.8 210.239C119.652 210.096 119.577 209.925 119.577 209.725C119.577 209.525 119.652 209.353 119.8 209.211C119.952 209.068 120.132 208.997 120.342 208.997C120.551 208.997 120.73 209.068 120.879 209.211C121.03 209.353 121.106 209.525 121.106 209.725C121.106 209.925 121.03 210.096 120.879 210.239C120.73 210.382 120.551 210.453 120.342 210.453ZM123.911 209.288V218.608H122.837V209.288H123.911ZM131.539 218.771C131.096 218.771 130.694 218.688 130.333 218.521C129.972 218.351 129.685 218.107 129.473 217.789C129.26 217.467 129.154 217.079 129.154 216.624C129.154 216.223 129.233 215.898 129.391 215.65C129.549 215.398 129.759 215.201 130.023 215.058C130.287 214.916 130.579 214.809 130.897 214.74C131.219 214.667 131.542 214.609 131.866 214.567C132.291 214.512 132.635 214.471 132.899 214.444C133.166 214.413 133.361 214.363 133.482 214.294C133.606 214.224 133.668 214.102 133.668 213.93V213.893C133.668 213.444 133.546 213.095 133.3 212.847C133.057 212.598 132.689 212.473 132.194 212.473C131.681 212.473 131.279 212.586 130.988 212.81C130.697 213.035 130.492 213.274 130.374 213.529L129.354 213.165C129.536 212.74 129.779 212.41 130.083 212.173C130.389 211.933 130.723 211.766 131.084 211.672C131.448 211.575 131.806 211.527 132.158 211.527C132.382 211.527 132.64 211.554 132.931 211.609C133.226 211.66 133.509 211.768 133.782 211.932C134.058 212.096 134.287 212.343 134.469 212.674C134.651 213.004 134.742 213.447 134.742 214.002V218.608H133.668V217.661H133.614C133.541 217.813 133.42 217.975 133.25 218.148C133.08 218.321 132.854 218.468 132.572 218.589C132.29 218.711 131.945 218.771 131.539 218.771ZM131.703 217.807C132.127 217.807 132.485 217.723 132.777 217.556C133.071 217.39 133.292 217.174 133.441 216.91C133.593 216.646 133.668 216.369 133.668 216.077V215.095C133.623 215.149 133.523 215.199 133.368 215.245C133.216 215.287 133.041 215.325 132.84 215.358C132.643 215.389 132.45 215.416 132.262 215.44C132.077 215.462 131.927 215.48 131.812 215.495C131.533 215.531 131.272 215.591 131.029 215.672C130.789 215.751 130.595 215.871 130.447 216.032C130.301 216.19 130.228 216.405 130.228 216.678C130.228 217.051 130.366 217.333 130.642 217.525C130.921 217.713 131.275 217.807 131.703 217.807ZM139.342 218.753C138.76 218.753 138.245 218.606 137.799 218.312C137.353 218.015 137.005 217.596 136.753 217.056C136.501 216.513 136.375 215.871 136.375 215.131C136.375 214.397 136.501 213.76 136.753 213.22C137.005 212.68 137.355 212.262 137.804 211.968C138.253 211.674 138.772 211.527 139.36 211.527C139.815 211.527 140.175 211.603 140.439 211.754C140.706 211.903 140.909 212.073 141.049 212.264C141.191 212.452 141.302 212.607 141.381 212.728H141.472V209.288H142.546V218.608H141.508V217.534H141.381C141.302 217.661 141.19 217.822 141.044 218.016C140.898 218.207 140.691 218.379 140.421 218.53C140.151 218.679 139.791 218.753 139.342 218.753ZM139.488 217.789C139.918 217.789 140.283 217.676 140.58 217.452C140.877 217.224 141.103 216.91 141.258 216.51C141.413 216.106 141.49 215.641 141.49 215.113C141.49 214.591 141.414 214.134 141.262 213.743C141.111 213.349 140.886 213.042 140.589 212.824C140.292 212.602 139.925 212.492 139.488 212.492C139.033 212.492 138.653 212.608 138.35 212.842C138.05 213.073 137.824 213.387 137.672 213.784C137.523 214.178 137.449 214.621 137.449 215.113C137.449 215.61 137.525 216.062 137.677 216.469C137.831 216.872 138.059 217.194 138.359 217.434C138.662 217.67 139.039 217.789 139.488 217.789ZM147.301 218.753C146.719 218.753 146.204 218.606 145.759 218.312C145.313 218.015 144.964 217.596 144.712 217.056C144.46 216.513 144.334 215.871 144.334 215.131C144.334 214.397 144.46 213.76 144.712 213.22C144.964 212.68 145.314 212.262 145.763 211.968C146.212 211.674 146.731 211.527 147.319 211.527C147.774 211.527 148.134 211.603 148.398 211.754C148.665 211.903 148.868 212.073 149.008 212.264C149.15 212.452 149.261 212.607 149.34 212.728H149.431V209.288H150.505V218.608H149.467V217.534H149.34C149.261 217.661 149.149 217.822 149.003 218.016C148.858 218.207 148.65 218.379 148.38 218.53C148.11 218.679 147.75 218.753 147.301 218.753ZM147.447 217.789C147.878 217.789 148.242 217.676 148.539 217.452C148.836 217.224 149.062 216.91 149.217 216.51C149.372 216.106 149.449 215.641 149.449 215.113C149.449 214.591 149.373 214.134 149.222 213.743C149.07 213.349 148.845 213.042 148.548 212.824C148.251 212.602 147.884 212.492 147.447 212.492C146.992 212.492 146.613 212.608 146.309 212.842C146.009 213.073 145.783 213.387 145.631 213.784C145.482 214.178 145.408 214.621 145.408 215.113C145.408 215.61 145.484 216.062 145.636 216.469C145.79 216.872 146.018 217.194 146.318 217.434C146.622 217.67 146.998 217.789 147.447 217.789ZM152.621 218.608V211.618H153.658V212.674H153.731C153.859 212.328 154.089 212.047 154.423 211.832C154.757 211.616 155.133 211.509 155.552 211.509C155.63 211.509 155.729 211.51 155.847 211.513C155.966 211.516 156.055 211.521 156.116 211.527V212.619C156.079 212.61 155.996 212.596 155.866 212.578C155.738 212.557 155.603 212.546 155.461 212.546C155.121 212.546 154.817 212.617 154.55 212.76C154.286 212.9 154.077 213.094 153.922 213.343C153.771 213.588 153.695 213.869 153.695 214.184V218.608H152.621ZM160.107 218.753C159.433 218.753 158.852 218.605 158.364 218.307C157.878 218.007 157.504 217.588 157.24 217.051C156.979 216.511 156.849 215.883 156.849 215.167C156.849 214.451 156.979 213.82 157.24 213.274C157.504 212.725 157.871 212.297 158.341 211.991C158.814 211.682 159.367 211.527 159.998 211.527C160.362 211.527 160.721 211.587 161.076 211.709C161.431 211.83 161.754 212.027 162.045 212.3C162.337 212.57 162.569 212.928 162.742 213.374C162.915 213.82 163.001 214.369 163.001 215.022V215.477H157.613V214.548H161.909C161.909 214.154 161.83 213.802 161.672 213.493C161.518 213.183 161.296 212.939 161.008 212.76C160.723 212.581 160.386 212.492 159.998 212.492C159.57 212.492 159.2 212.598 158.887 212.81C158.578 213.019 158.34 213.292 158.173 213.629C158.006 213.966 157.922 214.327 157.922 214.712V215.331C157.922 215.859 158.014 216.307 158.196 216.674C158.381 217.038 158.637 217.315 158.965 217.506C159.292 217.694 159.673 217.789 160.107 217.789C160.389 217.789 160.644 217.749 160.871 217.67C161.102 217.588 161.301 217.467 161.467 217.306C161.634 217.142 161.763 216.939 161.854 216.696L162.892 216.988C162.783 217.34 162.599 217.649 162.341 217.916C162.083 218.18 161.765 218.386 161.386 218.535C161.006 218.68 160.58 218.753 160.107 218.753ZM169.586 213.183L168.621 213.456C168.56 213.296 168.471 213.139 168.353 212.988C168.237 212.833 168.08 212.705 167.879 212.605C167.679 212.505 167.423 212.455 167.11 212.455C166.683 212.455 166.326 212.554 166.041 212.751C165.759 212.945 165.618 213.192 165.618 213.493C165.618 213.76 165.715 213.971 165.909 214.125C166.103 214.28 166.406 214.409 166.819 214.512L167.857 214.767C168.482 214.919 168.947 215.151 169.254 215.463C169.56 215.773 169.713 216.172 169.713 216.66C169.713 217.06 169.598 217.418 169.367 217.734C169.14 218.049 168.821 218.298 168.412 218.48C168.002 218.662 167.526 218.753 166.983 218.753C166.27 218.753 165.68 218.599 165.213 218.289C164.745 217.98 164.45 217.528 164.325 216.933L165.345 216.678C165.442 217.054 165.625 217.337 165.895 217.525C166.168 217.713 166.525 217.807 166.965 217.807C167.465 217.807 167.863 217.701 168.157 217.488C168.454 217.273 168.603 217.015 168.603 216.715C168.603 216.472 168.518 216.269 168.348 216.105C168.178 215.938 167.917 215.814 167.565 215.732L166.4 215.459C165.76 215.307 165.29 215.072 164.99 214.753C164.692 214.432 164.544 214.03 164.544 213.547C164.544 213.153 164.654 212.804 164.876 212.501C165.1 212.197 165.405 211.959 165.791 211.786C166.179 211.613 166.619 211.527 167.11 211.527C167.802 211.527 168.345 211.678 168.739 211.982C169.137 212.285 169.419 212.686 169.586 213.183ZM176.281 213.183L175.316 213.456C175.256 213.296 175.166 213.139 175.048 212.988C174.933 212.833 174.775 212.705 174.575 212.605C174.374 212.505 174.118 212.455 173.806 212.455C173.378 212.455 173.021 212.554 172.736 212.751C172.454 212.945 172.313 213.192 172.313 213.493C172.313 213.76 172.41 213.971 172.604 214.125C172.798 214.28 173.102 214.409 173.514 214.512L174.552 214.767C175.177 214.919 175.642 215.151 175.949 215.463C176.255 215.773 176.408 216.172 176.408 216.66C176.408 217.06 176.293 217.418 176.063 217.734C175.835 218.049 175.517 218.298 175.107 218.48C174.697 218.662 174.221 218.753 173.678 218.753C172.965 218.753 172.375 218.599 171.908 218.289C171.441 217.98 171.145 217.528 171.02 216.933L172.04 216.678C172.137 217.054 172.32 217.337 172.59 217.525C172.864 217.713 173.22 217.807 173.66 217.807C174.16 217.807 174.558 217.701 174.852 217.488C175.149 217.273 175.298 217.015 175.298 216.715C175.298 216.472 175.213 216.269 175.043 216.105C174.873 215.938 174.612 215.814 174.261 215.732L173.096 215.459C172.455 215.307 171.985 215.072 171.685 214.753C171.388 214.432 171.239 214.03 171.239 213.547C171.239 213.153 171.35 212.804 171.571 212.501C171.796 212.197 172.101 211.959 172.486 211.786C172.874 211.613 173.314 211.527 173.806 211.527C174.497 211.527 175.04 211.678 175.435 211.982C175.832 212.285 176.114 212.686 176.281 213.183Z" fill="#77767A"/>
    <rect x="80.3809" y="196.619" width="223.457" height="37.6432" rx="7.60874" stroke="#E2E0E6" stroke-width="0.80092"/>
    <g opacity="0.3">
      <rect x="79.9805" y="247.478" width="224.258" height="39.2221" rx="19.611" fill="#6851FF"/>
      <path d="M145.493 271.089V261.769H147.181V269.673H151.286V271.089H145.493ZM155.727 271.225C155.045 271.225 154.453 271.075 153.952 270.775C153.452 270.474 153.064 270.054 152.787 269.514C152.514 268.974 152.378 268.343 152.378 267.621C152.378 266.899 152.514 266.266 152.787 265.723C153.064 265.18 153.452 264.759 153.952 264.458C154.453 264.158 155.045 264.008 155.727 264.008C156.41 264.008 157.001 264.158 157.502 264.458C158.003 264.759 158.389 265.18 158.662 265.723C158.938 266.266 159.077 266.899 159.077 267.621C159.077 268.343 158.938 268.974 158.662 269.514C158.389 270.054 158.003 270.474 157.502 270.775C157.001 271.075 156.41 271.225 155.727 271.225ZM155.736 269.905C156.106 269.905 156.416 269.804 156.665 269.601C156.913 269.394 157.098 269.118 157.22 268.772C157.344 268.426 157.406 268.041 157.406 267.616C157.406 267.189 157.344 266.802 157.22 266.456C157.098 266.107 156.913 265.83 156.665 265.623C156.416 265.417 156.106 265.314 155.736 265.314C155.357 265.314 155.042 265.417 154.79 265.623C154.541 265.83 154.354 266.107 154.23 266.456C154.109 266.802 154.048 267.189 154.048 267.616C154.048 268.041 154.109 268.426 154.23 268.772C154.354 269.118 154.541 269.394 154.79 269.601C155.042 269.804 155.357 269.905 155.736 269.905ZM163.515 273.855C162.923 273.855 162.415 273.775 161.99 273.614C161.565 273.456 161.224 273.244 160.966 272.977C160.708 272.71 160.529 272.414 160.429 272.09L161.913 271.73C161.979 271.867 162.077 272.002 162.204 272.135C162.331 272.272 162.503 272.384 162.718 272.472C162.937 272.563 163.211 272.609 163.542 272.609C164.009 272.609 164.396 272.495 164.702 272.267C165.009 272.043 165.162 271.673 165.162 271.157V269.833H165.08C164.995 270.003 164.871 270.177 164.707 270.356C164.546 270.535 164.332 270.685 164.065 270.806C163.801 270.928 163.469 270.989 163.069 270.989C162.532 270.989 162.045 270.863 161.608 270.611C161.174 270.356 160.828 269.977 160.57 269.473C160.315 268.966 160.188 268.332 160.188 267.571C160.188 266.803 160.315 266.156 160.57 265.628C160.828 265.097 161.176 264.695 161.612 264.422C162.049 264.146 162.536 264.008 163.073 264.008C163.483 264.008 163.819 264.078 164.083 264.217C164.35 264.354 164.563 264.519 164.721 264.713C164.878 264.904 164.998 265.085 165.08 265.255H165.171V264.099H166.796V271.202C166.796 271.8 166.653 272.295 166.368 272.686C166.083 273.077 165.693 273.37 165.198 273.564C164.704 273.758 164.143 273.855 163.515 273.855ZM163.528 269.696C163.877 269.696 164.174 269.611 164.42 269.441C164.666 269.271 164.852 269.027 164.98 268.709C165.107 268.39 165.171 268.008 165.171 267.562C165.171 267.122 165.107 266.737 164.98 266.406C164.856 266.075 164.67 265.819 164.425 265.637C164.182 265.452 163.883 265.359 163.528 265.359C163.161 265.359 162.855 265.455 162.609 265.646C162.363 265.837 162.178 266.1 162.054 266.433C161.929 266.764 161.867 267.14 161.867 267.562C161.867 267.99 161.929 268.364 162.054 268.686C162.181 269.004 162.368 269.253 162.614 269.432C162.862 269.608 163.167 269.696 163.528 269.696ZM171.663 271.089V264.099H173.31V271.089H171.663ZM172.491 263.107C172.23 263.107 172.005 263.02 171.817 262.847C171.629 262.671 171.535 262.461 171.535 262.215C171.535 261.966 171.629 261.755 171.817 261.582C172.005 261.406 172.23 261.318 172.491 261.318C172.755 261.318 172.979 261.406 173.164 261.582C173.352 261.755 173.446 261.966 173.446 262.215C173.446 262.461 173.352 262.671 173.164 262.847C172.979 263.02 172.755 263.107 172.491 263.107ZM176.651 266.993V271.089H175.004V264.099H176.578V265.287H176.66C176.821 264.895 177.078 264.584 177.429 264.354C177.784 264.123 178.223 264.008 178.745 264.008C179.227 264.008 179.647 264.111 180.005 264.317C180.366 264.524 180.645 264.822 180.842 265.214C181.043 265.605 181.141 266.08 181.138 266.638V271.089H179.491V266.893C179.491 266.426 179.37 266.06 179.127 265.796C178.887 265.532 178.555 265.4 178.13 265.4C177.842 265.4 177.586 265.464 177.361 265.591C177.14 265.716 176.965 265.896 176.838 266.133C176.713 266.37 176.651 266.656 176.651 266.993ZM189.796 261.332L186.792 272.49H185.35L188.353 261.332H189.796ZM199.163 264.331C199.121 263.933 198.942 263.624 198.626 263.403C198.314 263.181 197.907 263.07 197.407 263.07C197.055 263.07 196.753 263.123 196.501 263.23C196.25 263.336 196.057 263.48 195.923 263.662C195.79 263.844 195.722 264.052 195.719 264.285C195.719 264.48 195.763 264.648 195.851 264.79C195.942 264.933 196.064 265.054 196.219 265.155C196.374 265.252 196.545 265.334 196.733 265.4C196.922 265.467 197.111 265.523 197.302 265.569L198.176 265.787C198.528 265.869 198.866 265.98 199.191 266.119C199.518 266.259 199.811 266.435 200.069 266.647C200.33 266.86 200.536 267.116 200.688 267.416C200.84 267.717 200.915 268.068 200.915 268.472C200.915 269.018 200.776 269.499 200.497 269.915C200.218 270.327 199.814 270.65 199.286 270.884C198.761 271.114 198.126 271.23 197.38 271.23C196.655 271.23 196.025 271.117 195.491 270.893C194.96 270.668 194.545 270.341 194.244 269.91C193.947 269.479 193.786 268.954 193.762 268.335H195.423C195.447 268.66 195.547 268.93 195.723 269.145C195.899 269.361 196.128 269.522 196.41 269.628C196.695 269.734 197.014 269.787 197.366 269.787C197.733 269.787 198.055 269.733 198.331 269.623C198.61 269.511 198.828 269.356 198.986 269.159C199.144 268.959 199.224 268.725 199.227 268.458C199.224 268.216 199.153 268.015 199.013 267.858C198.874 267.697 198.678 267.563 198.426 267.457C198.177 267.348 197.886 267.251 197.553 267.166L196.492 266.893C195.725 266.696 195.118 266.397 194.672 265.996C194.229 265.593 194.008 265.057 194.008 264.39C194.008 263.841 194.156 263.36 194.454 262.947C194.754 262.535 195.162 262.215 195.678 261.987C196.193 261.757 196.777 261.641 197.43 261.641C198.091 261.641 198.67 261.757 199.168 261.987C199.669 262.215 200.061 262.532 200.347 262.938C200.632 263.342 200.779 263.806 200.788 264.331H199.163ZM202.348 271.089V264.099H203.995V271.089H202.348ZM203.176 263.107C202.915 263.107 202.691 263.02 202.503 262.847C202.314 262.671 202.22 262.461 202.22 262.215C202.22 261.966 202.314 261.755 202.503 261.582C202.691 261.406 202.915 261.318 203.176 261.318C203.44 261.318 203.664 261.406 203.85 261.582C204.038 261.755 204.132 261.966 204.132 262.215C204.132 262.461 204.038 262.671 203.85 262.847C203.664 263.02 203.44 263.107 203.176 263.107ZM208.729 273.855C208.137 273.855 207.629 273.775 207.205 273.614C206.78 273.456 206.439 273.244 206.181 272.977C205.923 272.71 205.744 272.414 205.644 272.09L207.127 271.73C207.194 271.867 207.291 272.002 207.418 272.135C207.546 272.272 207.717 272.384 207.933 272.472C208.151 272.563 208.426 272.609 208.756 272.609C209.224 272.609 209.61 272.495 209.917 272.267C210.223 272.043 210.376 271.673 210.376 271.157V269.833H210.294C210.209 270.003 210.085 270.177 209.921 270.356C209.76 270.535 209.547 270.685 209.28 270.806C209.016 270.928 208.684 270.989 208.283 270.989C207.746 270.989 207.259 270.863 206.822 270.611C206.388 270.356 206.043 269.977 205.785 269.473C205.53 268.966 205.402 268.332 205.402 267.571C205.402 266.803 205.53 266.156 205.785 265.628C206.043 265.097 206.39 264.695 206.827 264.422C207.264 264.146 207.751 264.008 208.288 264.008C208.697 264.008 209.034 264.078 209.298 264.217C209.565 264.354 209.777 264.519 209.935 264.713C210.093 264.904 210.213 265.085 210.294 265.255H210.385V264.099H212.01V271.202C212.01 271.8 211.867 272.295 211.582 272.686C211.297 273.077 210.907 273.37 210.413 273.564C209.918 273.758 209.357 273.855 208.729 273.855ZM208.743 269.696C209.092 269.696 209.389 269.611 209.635 269.441C209.88 269.271 210.067 269.027 210.194 268.709C210.322 268.39 210.385 268.008 210.385 267.562C210.385 267.122 210.322 266.737 210.194 266.406C210.07 266.075 209.885 265.819 209.639 265.637C209.396 265.452 209.098 265.359 208.743 265.359C208.376 265.359 208.069 265.455 207.823 265.646C207.578 265.837 207.393 266.1 207.268 266.433C207.144 266.764 207.082 267.14 207.082 267.562C207.082 267.99 207.144 268.364 207.268 268.686C207.396 269.004 207.582 269.253 207.828 269.432C208.077 269.608 208.382 269.696 208.743 269.696ZM215.346 266.993V271.089H213.698V264.099H215.273V265.287H215.355C215.516 264.895 215.772 264.584 216.124 264.354C216.479 264.123 216.917 264.008 217.439 264.008C217.921 264.008 218.342 264.111 218.7 264.317C219.061 264.524 219.34 264.822 219.537 265.214C219.737 265.605 219.836 266.08 219.833 266.638V271.089H218.185V266.893C218.185 266.426 218.064 266.06 217.821 265.796C217.582 265.532 217.249 265.4 216.825 265.4C216.536 265.4 216.28 265.464 216.056 265.591C215.834 265.716 215.66 265.896 215.532 266.133C215.408 266.37 215.346 266.656 215.346 266.993ZM229.141 268.149V264.099H230.788V271.089H229.191V269.846H229.118C228.961 270.238 228.701 270.558 228.34 270.806C227.982 271.055 227.541 271.18 227.016 271.18C226.558 271.18 226.153 271.078 225.801 270.875C225.452 270.668 225.179 270.37 224.982 269.978C224.785 269.584 224.686 269.108 224.686 268.549V264.099H226.333V268.295C226.333 268.737 226.455 269.089 226.697 269.35C226.94 269.611 227.259 269.742 227.653 269.742C227.896 269.742 228.131 269.682 228.358 269.564C228.586 269.446 228.772 269.27 228.918 269.036C229.067 268.8 229.141 268.504 229.141 268.149ZM232.482 273.71V264.099H234.102V265.255H234.198C234.283 265.085 234.403 264.904 234.558 264.713C234.712 264.519 234.922 264.354 235.186 264.217C235.449 264.078 235.786 264.008 236.196 264.008C236.736 264.008 237.223 264.146 237.657 264.422C238.093 264.695 238.439 265.1 238.694 265.637C238.952 266.171 239.081 266.826 239.081 267.603C239.081 268.37 238.955 269.023 238.703 269.56C238.451 270.097 238.109 270.506 237.675 270.788C237.241 271.07 236.749 271.211 236.2 271.211C235.8 271.211 235.468 271.145 235.204 271.011C234.94 270.878 234.727 270.717 234.567 270.529C234.409 270.338 234.286 270.157 234.198 269.987H234.13V273.71H232.482ZM234.098 267.594C234.098 268.046 234.162 268.442 234.289 268.781C234.42 269.121 234.606 269.387 234.849 269.578C235.095 269.766 235.392 269.86 235.741 269.86C236.105 269.86 236.41 269.763 236.655 269.569C236.901 269.371 237.086 269.103 237.211 268.763C237.338 268.42 237.402 268.031 237.402 267.594C237.402 267.16 237.34 266.775 237.215 266.438C237.091 266.101 236.906 265.837 236.66 265.646C236.414 265.455 236.108 265.359 235.741 265.359C235.389 265.359 235.09 265.452 234.844 265.637C234.598 265.822 234.412 266.081 234.284 266.415C234.16 266.749 234.098 267.142 234.098 267.594Z" fill="white"/>
    </g>
    <rect x="179.297" y="299.514" width="32.0368" height="12.8147" fill="white"/>
    <path d="M191.516 306.422C191.516 307.169 191.379 307.81 191.106 308.347C190.833 308.882 190.459 309.294 189.983 309.583C189.51 309.869 188.972 310.013 188.369 310.013C187.764 310.013 187.223 309.869 186.748 309.583C186.275 309.294 185.901 308.881 185.628 308.344C185.355 307.807 185.219 307.166 185.219 306.422C185.219 305.676 185.355 305.035 185.628 304.501C185.901 303.964 186.275 303.552 186.748 303.265C187.223 302.976 187.764 302.832 188.369 302.832C188.972 302.832 189.51 302.976 189.983 303.265C190.459 303.552 190.833 303.964 191.106 304.501C191.379 305.035 191.516 305.676 191.516 306.422ZM190.471 306.422C190.471 305.853 190.379 305.375 190.195 304.985C190.013 304.594 189.763 304.298 189.444 304.098C189.128 303.896 188.769 303.794 188.369 303.794C187.966 303.794 187.607 303.896 187.291 304.098C186.974 304.298 186.724 304.594 186.54 304.985C186.358 305.375 186.267 305.853 186.267 306.422C186.267 306.991 186.358 307.471 186.54 307.863C186.724 308.252 186.974 308.547 187.291 308.75C187.607 308.95 187.966 309.05 188.369 309.05C188.769 309.05 189.128 308.95 189.444 308.75C189.763 308.547 190.013 308.252 190.195 307.863C190.379 307.471 190.471 306.991 190.471 306.422ZM193.311 309.917V302.927H195.803C196.344 302.927 196.794 303.021 197.151 303.207C197.51 303.394 197.779 303.652 197.956 303.982C198.134 304.31 198.223 304.689 198.223 305.119C198.223 305.546 198.133 305.923 197.953 306.248C197.775 306.571 197.507 306.823 197.147 307.003C196.79 307.182 196.341 307.272 195.799 307.272H193.912V306.364H195.704C196.045 306.364 196.323 306.315 196.537 306.218C196.753 306.12 196.911 305.977 197.011 305.791C197.111 305.604 197.161 305.38 197.161 305.119C197.161 304.855 197.11 304.626 197.008 304.433C196.907 304.239 196.749 304.091 196.533 303.989C196.319 303.884 196.038 303.832 195.69 303.832H194.366V309.917H193.311ZM196.762 306.764L198.489 309.917H197.287L195.595 306.764H196.762Z" fill="#77767A"/>
    <rect x="80.3809" y="325.544" width="223.457" height="37.6432" rx="18.8216" fill="white"/>
    <path d="M173.601 348.533V339.213H176.923C177.648 339.213 178.249 339.345 178.725 339.609C179.201 339.873 179.558 340.234 179.794 340.692C180.031 341.147 180.149 341.66 180.149 342.23C180.149 342.803 180.029 343.319 179.79 343.777C179.553 344.232 179.195 344.593 178.716 344.86C178.239 345.124 177.64 345.256 176.918 345.256H174.634V344.064H176.791C177.249 344.064 177.621 343.985 177.906 343.827C178.191 343.667 178.4 343.448 178.534 343.172C178.667 342.896 178.734 342.582 178.734 342.23C178.734 341.878 178.667 341.566 178.534 341.293C178.4 341.02 178.189 340.806 177.901 340.651C177.616 340.496 177.24 340.419 176.773 340.419H175.007V348.533H173.601ZM183.049 344.382V348.533H181.689V339.213H183.031V342.681H183.117C183.281 342.304 183.532 342.006 183.868 341.784C184.205 341.563 184.645 341.452 185.188 341.452C185.667 341.452 186.086 341.55 186.444 341.748C186.805 341.945 187.084 342.239 187.281 342.63C187.482 343.019 187.582 343.504 187.582 344.087V348.533H186.221V344.251C186.221 343.738 186.089 343.34 185.825 343.058C185.561 342.773 185.194 342.63 184.724 342.63C184.402 342.63 184.114 342.699 183.859 342.835C183.607 342.972 183.409 343.172 183.263 343.436C183.12 343.697 183.049 344.012 183.049 344.382ZM192.342 348.674C191.686 348.674 191.114 348.524 190.626 348.223C190.138 347.923 189.758 347.503 189.488 346.963C189.218 346.423 189.083 345.792 189.083 345.07C189.083 344.345 189.218 343.711 189.488 343.167C189.758 342.624 190.138 342.203 190.626 341.902C191.114 341.602 191.686 341.452 192.342 341.452C192.997 341.452 193.569 341.602 194.057 341.902C194.546 342.203 194.925 342.624 195.195 343.167C195.465 343.711 195.6 344.345 195.6 345.07C195.6 345.792 195.465 346.423 195.195 346.963C194.925 347.503 194.546 347.923 194.057 348.223C193.569 348.524 192.997 348.674 192.342 348.674ZM192.346 347.532C192.771 347.532 193.123 347.419 193.402 347.195C193.681 346.97 193.887 346.671 194.021 346.298C194.157 345.925 194.226 345.514 194.226 345.065C194.226 344.619 194.157 344.21 194.021 343.836C193.887 343.46 193.681 343.158 193.402 342.931C193.123 342.703 192.771 342.59 192.346 342.59C191.918 342.59 191.564 342.703 191.281 342.931C191.002 343.158 190.794 343.46 190.658 343.836C190.524 344.21 190.458 344.619 190.458 345.065C190.458 345.514 190.524 345.925 190.658 346.298C190.794 346.671 191.002 346.97 191.281 347.195C191.564 347.419 191.918 347.532 192.346 347.532ZM198.479 344.382V348.533H197.119V341.543H198.425V342.681H198.511C198.672 342.31 198.924 342.013 199.267 341.789C199.613 341.564 200.048 341.452 200.573 341.452C201.049 341.452 201.466 341.552 201.824 341.752C202.182 341.949 202.46 342.244 202.657 342.635C202.854 343.026 202.953 343.51 202.953 344.087V348.533H201.592V344.251C201.592 343.744 201.46 343.348 201.196 343.063C200.932 342.775 200.57 342.63 200.109 342.63C199.793 342.63 199.512 342.699 199.267 342.835C199.024 342.972 198.831 343.172 198.689 343.436C198.549 343.697 198.479 344.012 198.479 344.382ZM207.79 348.674C207.101 348.674 206.508 348.527 206.011 348.232C205.516 347.935 205.134 347.518 204.864 346.981C204.597 346.441 204.464 345.808 204.464 345.083C204.464 344.367 204.597 343.736 204.864 343.19C205.134 342.644 205.51 342.218 205.993 341.911C206.478 341.605 207.045 341.452 207.695 341.452C208.089 341.452 208.471 341.517 208.841 341.648C209.211 341.778 209.544 341.983 209.838 342.262C210.132 342.541 210.364 342.904 210.534 343.349C210.704 343.792 210.789 344.331 210.789 344.965V345.447H205.233V344.428H209.456C209.456 344.07 209.383 343.753 209.237 343.477C209.092 343.198 208.887 342.978 208.623 342.817C208.362 342.656 208.056 342.576 207.704 342.576C207.321 342.576 206.988 342.67 206.702 342.858C206.42 343.043 206.202 343.286 206.047 343.586C205.895 343.883 205.82 344.207 205.82 344.555V345.352C205.82 345.819 205.902 346.216 206.065 346.544C206.232 346.872 206.464 347.122 206.762 347.295C207.059 347.465 207.406 347.55 207.804 347.55C208.062 347.55 208.297 347.513 208.509 347.441C208.721 347.365 208.905 347.252 209.06 347.104C209.214 346.955 209.333 346.772 209.415 346.553L210.703 346.785C210.599 347.164 210.414 347.497 210.147 347.782C209.883 348.064 209.551 348.284 209.151 348.442C208.753 348.596 208.3 348.674 207.79 348.674Z" fill="#18171A"/>
    <path d="M99.6031 350.111C99.6031 349.779 99.872 349.51 100.204 349.51H104.609C104.941 349.51 105.21 349.779 105.21 350.111C105.21 350.442 104.941 350.711 104.609 350.711H100.204C99.872 350.711 99.6031 350.442 99.6031 350.111Z" fill="#77767A"/>
    <path d="M99.2026 338.938C99.645 338.938 100.004 338.579 100.004 338.137C100.004 337.695 99.645 337.336 99.2026 337.336C98.7603 337.336 98.4017 337.695 98.4017 338.137C98.4017 338.579 98.7603 338.938 99.2026 338.938Z" fill="#77767A"/>
    <path fill-rule="evenodd" clip-rule="evenodd" d="M96.3994 337.736C96.3994 336.409 97.4752 335.334 98.8022 335.334H106.01C107.337 335.334 108.413 336.409 108.413 337.736V350.551C108.413 351.878 107.337 352.954 106.01 352.954H98.8022C97.4752 352.954 96.3994 351.878 96.3994 350.551V337.736ZM98.8022 336.535H106.01C106.674 336.535 107.212 337.073 107.212 337.736V350.551C107.212 351.215 106.674 351.753 106.01 351.753H98.8022C98.1387 351.753 97.6008 351.215 97.6008 350.551V337.736C97.6008 337.073 98.1387 336.535 98.8022 336.535Z" fill="#77767A"/>
    <rect x="80.3809" y="325.544" width="223.457" height="37.6432" rx="18.8216" stroke="#EDEDF3" stroke-width="0.80092"/>
    <rect x="96.3995" y="376.803" width="37.6432" height="37.6432" rx="18.8216" fill="white"/>
    <path d="M125.085 395.849C125.085 395.004 125.017 394.388 124.868 393.748H115.219V397.562H120.883C120.769 398.51 120.152 399.938 118.782 400.897L118.762 401.025L121.813 403.388L122.025 403.409C123.966 401.616 125.085 398.978 125.085 395.849" fill="#4285F4"/>
    <path d="M115.221 405.903C117.996 405.903 120.325 404.989 122.027 403.413L118.784 400.901C117.916 401.506 116.751 401.929 115.221 401.929C112.503 401.929 110.196 400.136 109.374 397.658L109.254 397.668L106.081 400.123L106.04 400.239C107.73 403.596 111.201 405.903 115.221 405.903" fill="#34A853"/>
    <path d="M109.375 397.659C109.158 397.019 109.033 396.334 109.033 395.626C109.033 394.918 109.158 394.233 109.364 393.593L109.358 393.457L106.146 390.962L106.041 391.012C105.344 392.406 104.944 393.97 104.944 395.626C104.944 397.282 105.344 398.846 106.041 400.239L109.375 397.659" fill="#FBBC05"/>
    <path d="M115.221 389.32C117.151 389.32 118.453 390.154 119.195 390.85L122.096 388.018C120.314 386.362 117.996 385.346 115.221 385.346C111.201 385.346 107.73 387.653 106.04 391.01L109.363 393.591C110.196 391.113 112.503 389.32 115.221 389.32" fill="#EB4335"/>
    <rect x="96.3995" y="376.803" width="37.6432" height="37.6432" rx="18.8216" stroke="#EDEDF3" stroke-width="0.80092"/>
    <rect x="147.658" y="376.803" width="37.6432" height="37.6432" rx="18.8216" fill="white"/>
    <path d="M171.576 395.275C171.566 393.59 172.329 392.32 173.871 391.384C173.009 390.149 171.704 389.469 169.985 389.338C168.357 389.21 166.575 390.287 165.923 390.287C165.234 390.287 163.657 389.383 162.417 389.383C159.857 389.422 157.137 391.423 157.137 395.495C157.137 396.698 157.357 397.941 157.797 399.221C158.385 400.906 160.505 405.034 162.716 404.968C163.872 404.941 164.69 404.147 166.195 404.147C167.655 404.147 168.411 404.968 169.701 404.968C171.932 404.936 173.849 401.183 174.407 399.493C171.415 398.082 171.576 395.362 171.576 395.275V395.275ZM168.979 387.74C170.232 386.252 170.118 384.898 170.081 384.412C168.974 384.476 167.694 385.165 166.966 386.013C166.163 386.922 165.691 388.046 165.792 389.313C166.988 389.405 168.08 388.79 168.979 387.74V387.74Z" fill="black"/>
    <rect x="147.658" y="376.803" width="37.6432" height="37.6432" rx="18.8216" stroke="#EDEDF3" stroke-width="0.80092"/>
    <rect x="198.917" y="376.803" width="37.6432" height="37.6432" rx="18.8216" fill="white"/>
    <path d="M228.153 389.168C227.387 389.508 226.563 389.737 225.699 389.841C226.581 389.312 227.259 388.475 227.578 387.477C226.739 387.975 225.822 388.325 224.865 388.514C224.085 387.683 222.975 387.165 221.746 387.165C219.387 387.165 217.474 389.077 217.474 391.437C217.474 391.772 217.512 392.098 217.585 392.41C214.034 392.232 210.886 390.531 208.779 387.947C208.411 388.578 208.2 389.312 208.2 390.094C208.2 391.577 208.955 392.884 210.101 393.65C209.423 393.629 208.759 393.446 208.166 393.116C208.166 393.134 208.166 393.152 208.166 393.17C208.166 395.24 209.638 396.966 211.593 397.359C210.963 397.53 210.304 397.555 209.663 397.432C210.207 399.129 211.785 400.365 213.654 400.399C212.192 401.545 210.35 402.228 208.348 402.228C208.003 402.228 207.663 402.208 207.329 402.168C209.22 403.38 211.465 404.088 213.878 404.088C221.736 404.088 226.034 397.578 226.034 391.932C226.034 391.747 226.029 391.563 226.021 391.379C226.858 390.775 227.579 390.026 228.153 389.168" fill="#55ACEE"/>
    <rect x="198.917" y="376.803" width="37.6432" height="37.6432" rx="18.8216" stroke="#EDEDF3" stroke-width="0.80092"/>
    <rect x="250.176" y="376.803" width="37.6432" height="37.6432" rx="18.8216" fill="white"/>
    <path d="M276.78 388.638C275.307 387.964 273.751 387.485 272.153 387.215C271.935 387.606 271.737 388.008 271.561 388.42C269.859 388.163 268.128 388.163 266.426 388.42C266.25 388.008 266.052 387.606 265.833 387.215C264.235 387.487 262.678 387.967 261.203 388.642C258.275 392.974 257.482 397.198 257.878 401.363C259.593 402.63 261.512 403.593 263.553 404.211C264.012 403.593 264.419 402.938 264.768 402.252C264.105 402.004 263.464 401.698 262.854 401.338C263.015 401.222 263.172 401.102 263.323 400.985C265.098 401.82 267.035 402.253 268.996 402.253C270.957 402.253 272.894 401.82 274.669 400.985C274.822 401.111 274.979 401.23 275.138 401.338C274.527 401.699 273.885 402.005 273.22 402.254C273.569 402.939 273.976 403.594 274.436 404.211C276.478 403.596 278.399 402.633 280.114 401.365V401.365C280.579 396.535 279.318 392.349 276.78 388.638ZM265.271 398.802C264.165 398.802 263.251 397.798 263.251 396.563C263.251 395.329 264.133 394.316 265.267 394.316C266.401 394.316 267.308 395.329 267.289 396.563C267.269 397.798 266.398 398.802 265.271 398.802ZM272.721 398.802C271.614 398.802 270.703 397.798 270.703 396.563C270.703 395.329 271.585 394.316 272.721 394.316C273.857 394.316 274.757 395.329 274.737 396.563C274.718 397.798 273.848 398.802 272.721 398.802Z" fill="#5865F2"/>
    <rect x="250.176" y="376.803" width="37.6432" height="37.6432" rx="18.8216" stroke="#EDEDF3" stroke-width="0.80092"/>
  </g>
  <defs>
    <filter id="filter0_d_11997_98757" x="198.807" y="0.111944" width="261.444" height="498.992" filterUnits="userSpaceOnUse" color-interpolation-filters="sRGB">
      <feFlood flood-opacity="0" result="BackgroundImageFix"/>
      <feColorMatrix in="SourceAlpha" type="matrix" values="0 0 0 0 0 0 0 0 0 0 0 0 0 0 0 0 0 0 127 0" result="hardAlpha"/>
      <feOffset dy="5.52345"/>
      <feGaussianBlur stdDeviation="9.20575"/>
      <feColorMatrix type="matrix" values="0 0 0 0 0.207843 0 0 0 0 0.0705882 0 0 0 0 0.698039 0 0 0 0.3 0"/>
      <feBlend mode="normal" in2="BackgroundImageFix" result="effect1_dropShadow_11997_98757"/>
      <feBlend mode="normal" in="SourceGraphic" in2="effect1_dropShadow_11997_98757" result="shape"/>
    </filter>
    <filter id="filter1_b_11997_98757" x="203.376" y="89.4334" width="253.208" height="136.774" filterUnits="userSpaceOnUse" color-interpolation-filters="sRGB">
      <feFlood flood-opacity="0" result="BackgroundImageFix"/>
      <feGaussianBlur in="BackgroundImageFix" stdDeviation="14.7164"/>
      <feComposite in2="SourceAlpha" operator="in" result="effect1_backgroundBlur_11997_98757"/>
      <feBlend mode="normal" in="SourceGraphic" in2="effect1_backgroundBlur_11997_98757" result="shape"/>
    </filter>
    <filter id="filter2_d_11997_98757" x="0.250584" y="28.6635" width="410.312" height="495.189" filterUnits="userSpaceOnUse" color-interpolation-filters="sRGB">
      <feFlood flood-opacity="0" result="BackgroundImageFix"/>
      <feColorMatrix in="SourceAlpha" type="matrix" values="0 0 0 0 0 0 0 0 0 0 0 0 0 0 0 0 0 0 127 0" result="hardAlpha"/>
      <feOffset dx="13.2977" dy="24.3026"/>
      <feGaussianBlur stdDeviation="23.3907"/>
      <feColorMatrix type="matrix" values="0 0 0 0 0.207843 0 0 0 0 0.0705882 0 0 0 0 0.698039 0 0 0 0.19 0"/>
      <feBlend mode="normal" in2="BackgroundImageFix" result="effect1_dropShadow_11997_98757"/>
      <feBlend mode="normal" in="SourceGraphic" in2="effect1_dropShadow_11997_98757" result="shape"/>
    </filter>
    <linearGradient id="paint0_linear_11997_98757" x1="262.348" y1="47.8732" x2="431.583" y2="544.296" gradientUnits="userSpaceOnUse">
      <stop stop-color="#BDB2FF" stop-opacity="0.58"/>
      <stop offset="0.325336" stop-color="#BDB2FF" stop-opacity="0.85"/>
      <stop offset="1" stop-color="#6851FF"/>
    </linearGradient>
    <linearGradient id="paint1_linear_11997_98757" x1="42.8492" y1="59.2681" x2="1.6151e-06" y2="-4.80552" gradientUnits="userSpaceOnUse">
      <stop offset="0.0680413" stop-color="#FFEAE5"/>
      <stop offset="0.219835" stop-color="#FFB5A1" stop-opacity="0.9"/>
      <stop offset="0.612822" stop-color="#D5CEFF"/>
      <stop offset="1" stop-color="#EDEBFF"/>
    </linearGradient>
  </defs>
</svg>
