<svg width="56" height="56" viewBox="0 0 56 56" fill="none" xmlns="http://www.w3.org/2000/svg">
<path d="M19.1642 24.3694L28.0006 15.533L36.8413 24.3732L41.9827 19.2317L28.0006 5.25L14.0231 19.2275L19.1644 24.369L19.1642 24.3694ZM5.25073 27.9999L10.3924 22.8575L15.5337 27.9988L10.392 33.1405L5.25073 27.9999ZM19.1642 31.631L28.0006 40.4669L36.8411 31.6268L41.9853 36.7655L41.9827 36.7683L28.0006 50.7498L14.0231 36.7723L14.0158 36.765L19.1648 31.6304L19.1642 31.631ZM40.4676 28.0021L45.6093 22.8604L50.7505 28.0017L45.6091 33.1434L40.4676 28.0021Z" fill="#F3BA2F"/>
<path d="M33.2184 27.9977H33.2206L28.0038 22.7805L24.1478 26.6355L23.7048 27.0786L22.7912 27.9925L22.7839 27.9996L22.7912 28.007L28.0038 33.2204L33.2209 28.0032L33.2235 28.0003L33.2188 27.9977" fill="#F3BA2F"/>
</svg>
