<svg width="56" height="56" viewBox="0 0 56 56" fill="none" xmlns="http://www.w3.org/2000/svg">
<path d="M53.4583 34.3502C49.9523 48.4127 35.7093 56.9709 21.6452 53.4641C7.58685 49.9581 -0.971392 35.7144 2.53623 21.6527C6.04057 7.58859 20.2835 -0.97046 34.3435 2.53552C48.4068 6.0415 56.9642 20.2869 53.4583 34.3502Z" fill="#F7931A"/>
<path d="M39.5792 24.2613C40.1017 20.7684 37.4423 18.8908 33.8059 17.6382L34.9855 12.9066L32.1054 12.1889L30.957 16.7957C30.1999 16.607 29.4222 16.429 28.6495 16.2527L29.8061 11.6155L26.9277 10.8977L25.7472 15.6276C25.1205 15.4848 24.5053 15.3438 23.9081 15.1953L23.9114 15.1805L19.9395 14.1888L19.1733 17.2649C19.1733 17.2649 21.3102 17.7546 21.2651 17.785C22.4316 18.0762 22.6424 18.8481 22.6071 19.46L21.2635 24.8503C21.3438 24.8708 21.448 24.9003 21.5629 24.9462C21.4669 24.9225 21.3644 24.8962 21.2585 24.8708L19.3751 32.4217C19.2324 32.7761 18.8706 33.3076 18.0553 33.1058C18.084 33.1476 15.9618 32.5833 15.9618 32.5833L14.532 35.8801L18.28 36.8144C18.9773 36.9891 19.6606 37.172 20.3332 37.3443L19.1413 42.13L22.0181 42.8477L23.1986 38.1129C23.9844 38.3262 24.7473 38.5231 25.4938 38.7085L24.3175 43.4211L27.1975 44.1389L28.3895 39.3623C33.3006 40.2917 36.9936 39.9168 38.5481 35.4748C39.8007 31.8983 38.4857 29.8353 35.9018 28.49C37.7836 28.056 39.2011 26.8182 39.5792 24.2613ZM32.9987 33.4889C32.1087 37.0654 26.0868 35.132 24.1345 34.6472L25.7161 28.307C27.6684 28.7943 33.929 29.759 32.9987 33.4889ZM33.8896 24.2096C33.0775 27.4629 28.0654 25.81 26.4396 25.4048L27.8735 19.6545C29.4993 20.0597 34.7353 20.816 33.8896 24.2096Z" fill="white"/>
</svg>
