<svg width="56" height="56" viewBox="0 0 56 56" fill="none" xmlns="http://www.w3.org/2000/svg">
<path d="M28.0002 54.25C42.4977 54.25 54.2502 42.4975 54.2502 28C54.2502 13.5025 42.4977 1.75 28.0002 1.75C13.5028 1.75 1.75024 13.5025 1.75024 28C1.75024 42.4975 13.5028 54.25 28.0002 54.25Z" fill="#E84142"/>
<path d="M35.8419 29.5441C36.6121 28.207 37.8549 28.207 38.6251 29.5441L43.4213 38.0064C44.1915 39.3434 43.5613 40.4342 42.0209 40.4342H32.3586C30.8357 40.4342 30.2055 39.3434 30.9582 38.0064L35.8419 29.5441ZM26.5646 13.2528C27.3348 11.9157 28.5601 11.9157 29.3303 13.2528L30.3981 15.1881L32.9187 19.6391C33.5314 20.9058 33.5314 22.4012 32.9187 23.6679L24.4641 38.3934C23.6939 39.5897 22.4161 40.3462 20.9983 40.4342H13.9791C12.4387 40.4342 11.8085 39.361 12.5787 38.0064L26.5646 13.2528Z" fill="white"/>
</svg>
