<svg width="56" height="56" viewBox="0 0 56 56" fill="none" xmlns="http://www.w3.org/2000/svg">
<g clip-path="url(#clip0_2992_33644)">
<path d="M23.2112 45.9604C30.4864 45.9604 36.3822 40.0646 36.3822 32.7894C36.3822 25.5142 30.4864 19.6183 23.2112 19.6183C15.936 19.6183 10.0402 25.5142 10.0402 32.7894C10.0402 40.0646 15.936 45.9604 23.2112 45.9604ZM23.2112 50.7499C13.2922 50.7499 5.25073 42.7084 5.25073 32.7894C5.25073 22.8704 13.2922 14.8289 23.2112 14.8289C33.1301 14.8289 41.1716 22.8704 41.1716 32.7894C41.1716 42.7084 33.1301 50.7499 23.2112 50.7499Z" fill="#FBCC5C"/>
<path d="M32.7899 36.3816C40.065 36.3816 45.9609 30.4857 45.9609 23.2105C45.9609 15.9353 40.065 10.0395 32.7899 10.0395C25.5147 10.0395 19.6189 15.9353 19.6189 23.2105C19.6189 30.4857 25.5147 36.3816 32.7899 36.3816ZM32.7899 41.1711C22.8709 41.1711 14.8294 33.1295 14.8294 23.2105C14.8294 13.2915 22.8709 5.25 32.7899 5.25C42.7088 5.25 50.7503 13.2915 50.7503 23.2105C50.7503 33.1295 42.7088 41.1711 32.7899 41.1711Z" fill="#35D07F"/>
<path d="M33.3838 41.171C34.629 39.6623 35.5199 37.895 35.994 35.9935C37.8906 35.5194 39.6579 34.6285 41.1714 33.3833C41.1044 35.5816 40.6302 37.7465 39.7729 39.7772C37.7469 40.6297 35.5821 41.1039 33.3838 41.171ZM20.0068 20.0063C18.1102 20.4804 16.3429 21.3713 14.8294 22.6165C14.8965 20.4182 15.3706 18.2533 16.2279 16.2274C18.2539 15.3749 20.4235 14.9007 22.6171 14.8289C21.3718 16.3375 20.481 18.1049 20.0068 20.0063Z" fill="#5EA33B"/>
</g>
<defs>
<clipPath id="clip0_2992_33644">
<rect width="45.4998" height="45.5" fill="white" transform="translate(5.25073 5.25)"/>
</clipPath>
</defs>
</svg>
