<svg width="56" height="56" viewBox="0 0 56 56" fill="none" xmlns="http://www.w3.org/2000/svg">
<path d="M27.9998 54.25C42.4973 54.25 54.2498 42.4975 54.2498 28C54.2498 13.5025 42.4973 1.75 27.9998 1.75C13.5023 1.75 1.74979 13.5025 1.74979 28C1.74979 42.4975 13.5023 54.25 27.9998 54.25Z" fill="#00EF8B"/>
<path d="M40.0224 23.3799H32.6199V30.7824H40.0224V23.3799Z" fill="white"/>
<path d="M25.2173 33.5649C25.2173 35.0874 23.9573 36.3474 22.4348 36.3474C20.9123 36.3474 19.6523 35.0874 19.6523 33.5649C19.6523 32.0424 20.9123 30.7824 22.4348 30.7824H25.2173V23.3799H22.4348C16.8173 23.3799 12.2498 27.9474 12.2498 33.5649C12.2498 39.1824 16.8173 43.75 22.4348 43.75C28.0523 43.75 32.6199 39.1824 32.6199 33.5649V30.7824H25.2173V33.5649Z" fill="white"/>
<path d="M35.4029 19.6525H43.7504V12.25H35.4029C29.7853 12.25 25.2178 16.8175 25.2178 22.435V23.38H32.6203V22.435C32.6203 20.9125 33.8803 19.6525 35.4029 19.6525Z" fill="white"/>
<path d="M32.6203 23.3799H25.2178V30.7824H32.6203V23.3799Z" fill="#16FF99"/>
</svg>
