<svg width="56" height="56" viewBox="0 0 56 56" fill="none" xmlns="http://www.w3.org/2000/svg">
<path d="M40.7108 9.13208L31.9317 22.1667C31.8066 22.3544 31.7538 22.581 31.7829 22.8047C31.8121 23.0283 31.9212 23.2339 32.0902 23.3833C32.2592 23.5327 32.4765 23.6159 32.7021 23.6174C32.9276 23.6189 33.1461 23.5387 33.3171 23.3917L41.9592 15.8958C42.0098 15.8505 42.0726 15.8209 42.1397 15.8107C42.2069 15.8004 42.2756 15.81 42.3375 15.8381C42.3993 15.8663 42.4517 15.9118 42.4881 15.9692C42.5245 16.0266 42.5434 16.0933 42.5425 16.1613V39.6287C42.5425 39.7006 42.5203 39.7707 42.4791 39.8295C42.4379 39.8883 42.3795 39.9331 42.312 39.9576C42.2445 39.9821 42.171 39.9853 42.1016 39.9666C42.0323 39.948 41.9703 39.9084 41.9242 39.8533L15.8025 8.58375C15.3823 8.08761 14.8592 7.68893 14.2694 7.41543C13.6795 7.14193 13.0372 7.00017 12.3871 7H11.4742C10.2875 7 9.14952 7.47138 8.31045 8.31045C7.47138 9.14952 7 10.2875 7 11.4742V44.5258C7 45.7125 7.47138 46.8505 8.31045 47.6895C9.14952 48.5286 10.2875 49 11.4742 49C12.2393 49.0002 12.9916 48.8043 13.6595 48.4311C14.3274 48.0578 14.8884 47.5197 15.2892 46.8679L24.0683 33.8333C24.1934 33.6456 24.2462 33.419 24.2171 33.1953C24.1879 32.9717 24.0788 32.7661 23.9098 32.6167C23.7408 32.4673 23.5235 32.3841 23.2979 32.3826C23.0724 32.3811 22.8539 32.4613 22.6829 32.6083L14.0408 40.1042C13.9902 40.1495 13.9274 40.1791 13.8603 40.1893C13.7931 40.1996 13.7244 40.19 13.6625 40.1619C13.6007 40.1337 13.5483 40.0882 13.5119 40.0308C13.4755 39.9734 13.4566 39.9067 13.4575 39.8387V16.3654C13.4575 16.2936 13.4797 16.2235 13.5209 16.1646C13.5621 16.1058 13.6205 16.0611 13.688 16.0366C13.7555 16.012 13.829 16.0089 13.8984 16.0275C13.9677 16.0462 14.0297 16.0858 14.0758 16.1408L40.1946 47.4163C40.6147 47.9124 41.1379 48.3111 41.7277 48.5846C42.3175 48.8581 42.9599 48.9998 43.61 49H44.5229C45.1107 49.0004 45.6928 48.8849 46.236 48.6603C46.7792 48.4356 47.2727 48.1061 47.6885 47.6906C48.1043 47.2751 48.4341 46.7817 48.6591 46.2387C48.8842 45.6957 49 45.1136 49 44.5258V11.4742C49 10.2875 48.5286 9.14952 47.6895 8.31045C46.8505 7.47138 45.7125 7 44.5258 7C43.7607 6.9998 43.0084 7.19567 42.3405 7.56892C41.6726 7.94217 41.1116 8.48034 40.7108 9.13208Z" fill="black"/>
</svg>
