<svg width="56" height="56" viewBox="0 0 56 56" fill="none" xmlns="http://www.w3.org/2000/svg">
<path d="M38.3807 20.5171C37.581 20.0601 36.5528 20.0601 35.6388 20.5171L29.2412 24.2871L24.9 26.6862L18.6167 30.4562C17.817 30.9132 16.7888 30.9132 15.8748 30.4562L10.9624 27.4859C10.1627 27.0289 9.59147 26.115 9.59147 25.0868V19.3746C9.59147 18.4607 10.0484 17.5467 10.9624 16.9755L15.8748 14.1194C16.6745 13.6625 17.7027 13.6625 18.6167 14.1194L23.5291 17.0898C24.3288 17.5467 24.9 18.4607 24.9 19.4889V23.2589L29.2412 20.7455V16.8613C29.2412 15.9473 28.7843 15.0334 27.8703 14.4622L18.7309 9.09273C17.9312 8.63576 16.903 8.63576 15.9891 9.09273L6.62116 14.5764C5.70722 15.0334 5.25024 15.9473 5.25024 16.8613V27.6001C5.25024 28.5141 5.70722 29.428 6.62116 29.9993L15.8748 35.3687C16.6745 35.8257 17.7027 35.8257 18.6167 35.3687L24.9 31.7129L29.2412 29.1996L35.5246 25.5438C36.3243 25.0868 37.3525 25.0868 38.2664 25.5438L43.1789 28.3999C43.9786 28.8568 44.5498 29.7708 44.5498 30.799V36.5111C44.5498 37.4251 44.0928 38.339 43.1789 38.9102L38.3807 41.7663C37.581 42.2233 36.5528 42.2233 35.6388 41.7663L30.7264 38.9102C29.9267 38.4533 29.3555 37.5393 29.3555 36.5111V32.8553L25.0143 35.3687V39.1387C25.0143 40.0527 25.4712 40.9666 26.3852 41.5378L35.6388 46.9073C36.4385 47.3642 37.4667 47.3642 38.3807 46.9073L47.6343 41.5378C48.434 41.0809 49.0053 40.1669 49.0053 39.1387V28.2856C49.0053 27.3717 48.5483 26.4577 47.6343 25.8865L38.3807 20.5171Z" fill="#8247E5"/>
</svg>
