<svg width="56" height="56" viewBox="0 0 56 56" fill="none" xmlns="http://www.w3.org/2000/svg">
<path d="M12.5048 37.2133C12.7743 36.9438 13.1448 36.7866 13.5378 36.7866H49.1777C49.8289 36.7866 50.1546 37.5726 49.6942 38.033L42.6538 45.0734C42.3843 45.3429 42.0138 45.5001 41.6208 45.5001H5.98091C5.32964 45.5001 5.00401 44.7141 5.46439 44.2537L12.5048 37.2133Z" fill="url(#paint0_linear_2853_23697)"/>
<path d="M12.5048 10.9269C12.7855 10.6574 13.156 10.5002 13.5378 10.5002H49.1777C49.8289 10.5002 50.1546 11.2863 49.6942 11.7466L42.6538 18.787C42.3843 19.0565 42.0138 19.2137 41.6208 19.2137H5.98091C5.32964 19.2137 5.00401 18.4277 5.46439 17.9673L12.5048 10.9269Z" fill="url(#paint1_linear_2853_23697)"/>
<path d="M42.6538 23.986C42.3843 23.7165 42.0138 23.5593 41.6208 23.5593H5.98091C5.32964 23.5593 5.00401 24.3453 5.46439 24.8057L12.5048 31.8461C12.7743 32.1156 13.1448 32.2728 13.5378 32.2728H49.1777C49.8289 32.2728 50.1546 31.4868 49.6942 31.0264L42.6538 23.986Z" fill="url(#paint2_linear_2853_23697)"/>
<defs>
<linearGradient id="paint0_linear_2853_23697" x1="45.773" y1="6.29451" x2="21.1074" y2="53.5391" gradientUnits="userSpaceOnUse">
<stop stop-color="#00FFA3"/>
<stop offset="1" stop-color="#DC1FFF"/>
</linearGradient>
<linearGradient id="paint1_linear_2853_23697" x1="34.9879" y1="0.663753" x2="10.3222" y2="47.9083" gradientUnits="userSpaceOnUse">
<stop stop-color="#00FFA3"/>
<stop offset="1" stop-color="#DC1FFF"/>
</linearGradient>
<linearGradient id="paint2_linear_2853_23697" x1="40.3461" y1="3.46133" x2="15.6805" y2="50.7059" gradientUnits="userSpaceOnUse">
<stop stop-color="#00FFA3"/>
<stop offset="1" stop-color="#DC1FFF"/>
</linearGradient>
</defs>
</svg>
