<svg width="56" height="56" viewBox="0 0 56 56" fill="none" xmlns="http://www.w3.org/2000/svg">
<path d="M32.0829 50.7499C28.8361 50.7499 26.4663 49.9679 24.9734 48.4038C23.5905 47.0798 22.788 45.2622 22.7413 43.3483C22.7245 42.7668 22.8592 42.191 23.1323 41.6774C23.387 41.2336 23.7549 40.8653 24.1985 40.6103C24.7141 40.3531 25.2824 40.2193 25.8586 40.2193C26.4347 40.2193 27.003 40.3531 27.5186 40.6103C27.9614 40.8643 28.3276 41.2329 28.5789 41.6774C28.8598 42.1885 28.9996 42.7652 28.9839 43.3483C29.0129 44.0446 28.8131 44.7312 28.4152 45.3034C28.0835 45.7704 27.6094 46.1173 27.0639 46.2922C27.5973 46.9713 28.3521 47.4418 29.1967 47.6218C30.1416 47.8962 31.1203 48.0374 32.1043 48.0411C33.4071 48.0524 34.683 47.6709 35.7657 46.9463C36.8889 46.1528 37.7265 45.0185 38.1544 43.7116C38.6968 42.1561 38.9615 40.5174 38.9364 38.8703C38.9802 37.153 38.6905 35.4436 38.0833 33.8367C37.6266 32.5515 36.7597 31.4522 35.6164 30.7085C34.5536 30.036 33.32 29.6832 32.0623 29.692C30.9665 29.7848 29.9098 30.1436 28.9839 30.7371L26.7012 31.8816V30.7371L36.9599 16.9749H22.7413V31.2561C22.7011 32.2867 22.9737 33.3053 23.5233 34.178C23.7892 34.5583 24.1488 34.8635 24.5673 35.064C24.9858 35.2645 25.449 35.3536 25.912 35.3225C26.7675 35.3052 27.5948 35.0136 28.2721 34.4908C29.0399 33.9281 29.708 33.2408 30.2486 32.4574C30.2973 32.3201 30.387 32.201 30.5057 32.1164C30.6009 32.0341 30.7225 31.9887 30.8484 31.9884C31.0954 32.011 31.3292 32.1104 31.5168 32.2726C31.7544 32.5382 31.8837 32.8832 31.8792 33.2395C31.8518 33.4789 31.8091 33.7164 31.7513 33.9504C31.2462 35.1729 30.3995 36.2241 29.3126 36.978C28.3031 37.6611 27.1108 38.0233 25.892 38.0171C22.8135 38.0171 20.6809 37.4104 19.494 36.1971C18.884 35.5265 18.4138 34.7409 18.1111 33.8864C17.8083 33.0318 17.679 32.1255 17.7308 31.2204V16.9749H10.4988V14.3214H17.7646V8.27133L16.1011 6.60671V5.25H20.9281L22.7413 6.18856V14.3214L41.5239 14.2643L43.3939 16.1411L31.8767 27.7143C32.5725 27.4345 33.3052 27.2573 34.052 27.1882C35.53 27.253 36.972 27.6646 38.2615 28.3898C39.7547 29.0996 41.0131 30.2226 41.8875 31.6257C42.671 32.8135 43.2256 34.1372 43.5227 35.5287C43.767 36.6264 43.898 37.7462 43.9137 38.8705C43.9213 41.0163 43.4348 43.1351 42.4919 45.0626C41.5977 46.9291 40.0926 48.4341 38.2261 49.3284C36.3155 50.2699 34.2129 50.7564 32.0829 50.7499Z" fill="#2C7DF7"/>
</svg>
