<svg width="124" height="26" viewBox="0 0 124 26" fill="none" xmlns="http://www.w3.org/2000/svg">
<path d="M38.5184 10.1779C38.0742 10.1779 37.6481 10.0014 37.3339 9.68727C37.0198 9.37311 36.8433 8.94702 36.8433 8.50274C36.8433 8.05845 37.0198 7.63236 37.3339 7.31821C37.6481 7.00405 38.0742 6.82756 38.5184 6.82756C38.7424 6.81839 38.966 6.85472 39.1755 6.93435C39.3851 7.01398 39.5763 7.13527 39.7377 7.29088C39.899 7.44648 40.0272 7.63319 40.1144 7.83971C40.2016 8.04623 40.246 8.26829 40.245 8.49246C40.2445 8.71714 40.1992 8.93946 40.1118 9.14642C40.0243 9.35338 39.8964 9.54082 39.7357 9.69776C39.5749 9.85471 39.3844 9.97802 39.1754 10.0605C38.9664 10.1429 38.7431 10.1828 38.5184 10.1779Z" fill="#18171A"/>
<path d="M116.656 20.5292C114.613 20.5292 113.045 18.6197 113.045 16.1778C113.027 15.512 113.144 14.8495 113.388 14.2296C113.632 13.6098 113.998 13.0454 114.464 12.5698C114.93 12.0943 115.487 11.7173 116.102 11.4615C116.717 11.2056 117.377 11.076 118.043 11.0803C118.656 11.0885 119.261 11.2236 119.819 11.477L119.887 11.5079V9.51409C119.887 8.58709 119.776 8.52542 119.301 8.41238L119.158 8.37743L118.541 8.19655L122.755 6.82764V18.0873C122.755 19.0965 122.888 19.3493 123.503 19.5261L123.877 19.6207L123.764 19.8858L119.891 20.525V18.6279L119.805 18.7368C118.913 19.8632 117.739 20.5292 116.656 20.5292ZM118.177 11.6189C116.792 11.6189 116.122 12.8357 116.122 15.3412C116.122 17.5364 116.934 18.8992 118.239 18.8992C118.664 18.8949 119.071 18.7278 119.377 18.4323C119.683 18.1367 119.864 17.7352 119.883 17.3103V13.331C119.885 12.0382 118.734 11.6189 118.177 11.6189Z" fill="#18171A"/>
<path d="M36.0474 20.2312L36.0926 19.9742L36.7483 19.8715C36.872 19.8626 36.9877 19.8068 37.0718 19.7155C37.1558 19.6242 37.2018 19.5043 37.2005 19.3802V13.8655C37.2005 12.8234 36.7236 12.5603 36.3084 12.4472L36.0617 12.3856L40.0616 11.0845V19.3679C40.058 19.487 40.0976 19.6035 40.1732 19.6957C40.2488 19.7879 40.3552 19.8496 40.4727 19.8694L41.1592 19.9763L41.2044 20.2332L36.0474 20.2312Z" fill="#18171A"/>
<path d="M80.6622 25.122L80.7074 24.8651L81.3631 24.7623C81.4868 24.7534 81.6025 24.6977 81.6866 24.6064C81.7706 24.5151 81.8166 24.3952 81.8153 24.2711V13.9446C81.8153 13.2437 81.5008 12.6394 81.0671 12.5058L80.656 12.401L84.6785 11.0752V12.9806L84.7648 12.8716C85.6507 11.7473 86.7442 11.0752 87.8274 11.0752C89.8685 11.0814 91.2703 13.182 91.2703 15.6218C91.2703 18.8756 88.7832 20.5261 86.3372 20.5261C85.784 20.5422 85.234 20.437 84.7258 20.2178L84.6579 20.1869V24.2649C84.6566 24.3893 84.7029 24.5095 84.7874 24.6009C84.8718 24.6922 84.9881 24.7478 85.1122 24.7562L85.7658 24.8589L85.811 25.1159L80.6622 25.122ZM86.3043 12.6599C85.8783 12.6771 85.4739 12.8523 85.1699 13.1513C84.8659 13.4504 84.6842 13.8518 84.66 14.2776V18.4049C84.6625 18.8172 84.8247 19.2124 85.1125 19.5076C85.4004 19.8028 85.7915 19.9748 86.2036 19.9876C87.143 19.9876 88.3454 19.2332 88.3454 16.035C88.3392 13.8398 87.6095 12.6599 86.3043 12.6599Z" fill="#18171A"/>
<path d="M59.5476 19.3803V14.3897C59.5458 14.1809 59.5024 13.9746 59.42 13.7827C59.3375 13.5909 59.2177 13.4174 59.0675 13.2724C58.9173 13.1274 58.7398 13.0137 58.5452 12.938C58.3506 12.8623 58.1428 12.8262 57.9341 12.8317C57.5396 12.8415 57.164 13.0025 56.8848 13.2813C56.6056 13.5602 56.4441 13.9356 56.4337 14.3301V19.37C56.4327 19.4869 56.4736 19.6003 56.549 19.6897C56.6244 19.7791 56.7293 19.8385 56.8448 19.8571L57.5313 19.964L57.5765 20.2209H52.5982L52.6434 19.964L53.1511 19.8571C53.2655 19.8386 53.3696 19.7801 53.4449 19.6921C53.5202 19.604 53.5618 19.492 53.5622 19.3762V9.39498C53.5627 9.16508 53.4939 8.94036 53.3649 8.7501C53.2358 8.55983 53.0525 8.41282 52.8387 8.32821L52.3906 8.15144L56.4624 6.82568V12.9262L56.5508 12.7926C56.5632 12.7762 57.7121 11.0825 59.747 11.0825C60.4498 11.0993 61.1201 11.3813 61.6236 11.8718C62.0943 12.363 62.378 13.2284 62.378 14.1821L62.3985 19.3823C62.3975 19.4993 62.4384 19.6127 62.5138 19.702C62.5893 19.7914 62.6942 19.8508 62.8096 19.8695L63.4961 19.9763L63.5414 20.2333H58.5734L58.6186 19.9763L59.1263 19.8695C59.2407 19.851 59.3448 19.7925 59.4201 19.7044C59.4953 19.6163 59.5369 19.5044 59.5374 19.3885" fill="#18171A"/>
<path d="M25.1541 7.67761C25.1554 7.55354 25.1094 7.43362 25.0254 7.34233C24.9413 7.25104 24.8256 7.19525 24.7019 7.18636L24.0462 7.08359L24.001 6.82666H29.6575L29.6082 7.08359L28.9525 7.18636C28.8288 7.19525 28.7131 7.25104 28.629 7.34233C28.545 7.43362 28.499 7.55354 28.5003 7.67761V19.2456C28.5003 19.7903 29.2136 19.7081 29.2136 19.7081C31.2525 19.7081 32.5166 18.9434 33.8835 15.9651L34.1075 15.4759H34.7468L34.1754 20.2281H24.001L24.0462 19.9712L24.7019 19.8684C24.8256 19.8595 24.9413 19.8037 25.0254 19.7124C25.1094 19.6211 25.1554 19.5012 25.1541 19.3771V7.67761Z" fill="#18171A"/>
<path d="M68.2486 20.5276C67.5595 20.5195 66.9014 20.2396 66.4176 19.7488C65.9338 19.258 65.6632 18.5961 65.6649 17.9069V12.6306H63.6465L64.9003 11.3973H65.3258C65.3704 11.3973 65.4146 11.3885 65.4557 11.3713C65.4969 11.3541 65.5342 11.3289 65.5656 11.2972C65.597 11.2654 65.6217 11.2278 65.6384 11.1864C65.6551 11.145 65.6634 11.1008 65.6629 11.0561V9.9606L68.3349 9.07471V11.4015H70.9001L69.7265 12.6347H68.3432V17.5863C68.3432 18.8545 69.2496 19.3149 69.8601 19.3149C70.1209 19.3123 70.3776 19.2497 70.6103 19.1319L70.6452 19.1176L70.8981 19.4115C70.1684 20.0631 69.4325 20.5276 68.2486 20.5276Z" fill="#18171A"/>
<path d="M95.9276 14.8644L101.426 14.9487C101.446 14.7781 101.451 14.2334 101.442 14.0422C101.381 12.6528 100.415 11.0845 97.8885 11.0845C95.0335 11.0845 92.8794 13.1748 92.8794 16.0175C92.8794 18.6053 94.7519 20.5395 97.2369 20.5395C99.2307 20.5395 100.63 19.6515 101.407 17.8489L101.202 17.6721C100.953 18.0614 100.609 18.3801 100.201 18.5975C99.7935 18.8149 99.3369 18.9238 98.8751 18.9136C97.0951 18.9136 95.9317 17.4748 95.9112 15.2364C95.9093 15.1122 95.9148 14.988 95.9276 14.8644ZM95.9276 14.1779C96.0674 12.4452 96.6655 11.6579 97.6069 11.6579C97.7353 11.6553 97.8629 11.6791 97.9817 11.7279C98.1006 11.7767 98.2081 11.8494 98.2975 11.9416C98.6881 12.3383 98.8772 12.9693 98.8587 14.1615V14.2087L95.9255 14.2293L95.9276 14.1779Z" fill="#18171A"/>
<path d="M105.906 14.8644L111.404 14.9487C111.425 14.7781 111.429 14.2334 111.421 14.0422C111.359 12.6528 110.393 11.0845 107.867 11.0845C105.012 11.0845 102.858 13.1748 102.858 16.0175C102.858 18.6053 104.73 20.5395 107.215 20.5395C109.209 20.5395 110.609 19.6515 111.386 17.8489L111.18 17.6721C110.932 18.0655 110.586 18.3878 110.176 18.6075C109.766 18.8273 109.306 18.937 108.841 18.926C107.061 18.926 105.898 17.4871 105.877 15.2488C105.879 15.1202 105.888 14.9918 105.906 14.8644ZM105.906 14.1779C106.046 12.4452 106.644 11.6579 107.585 11.6579C107.714 11.6553 107.841 11.6791 107.96 11.7279C108.079 11.7767 108.186 11.8494 108.276 11.9416C108.666 12.3383 108.855 12.9693 108.837 14.1615V14.2087L105.904 14.2293L105.906 14.1779Z" fill="#18171A"/>
<path d="M76.6986 14.5849C75.4838 14.1183 74.5692 13.7627 74.5692 12.8645C74.5692 12.0423 75.1426 11.5634 75.9689 11.5634C76.3758 11.5637 76.7747 11.6761 77.122 11.8881L78.6595 14.1203L79.1857 14.0998L79.0829 11.0845L78.0922 11.4072C77.4101 11.1972 76.701 11.0885 75.9874 11.0845C73.8025 11.0845 72.3452 12.2376 72.3452 14.0381C72.3452 15.6969 73.599 16.3258 75.1385 16.9157C76.2711 17.3618 77.3255 17.6804 77.3255 18.8232C77.3255 19.4747 76.7089 20.1119 75.7058 20.1119C74.6534 20.1119 74.1067 19.5857 73.4202 18.5745L72.857 17.4029L72.3164 17.5344L72.1252 19.9084C73.257 20.3124 74.4486 20.5237 75.6503 20.5333C78.3614 20.5333 79.5967 19.0945 79.5967 17.518C79.5926 15.738 78.0942 15.1522 76.6986 14.5849Z" fill="#18171A"/>
<path d="M48.6292 18.5105H45.4125C45.2204 18.4963 45.0404 18.4113 44.9075 18.2719C44.7746 18.1325 44.6982 17.9487 44.6931 17.7562C44.6892 17.6538 44.7059 17.5516 44.7422 17.4558C44.7785 17.36 44.8336 17.2724 44.9043 17.1983C44.9751 17.1241 45.0599 17.0649 45.1539 17.0241C45.2479 16.9833 45.3491 16.9617 45.4515 16.9607C45.4953 16.9574 45.5393 16.9574 45.5831 16.9607C45.8889 17.0163 46.1993 17.0431 46.5101 17.0409C48.9519 17.0409 50.6066 15.7686 50.6066 13.9742C50.6066 13.4397 50.5182 13.0513 50.216 12.7121L51.3362 11.6844L51.0649 10.8931L49.1493 11.6824C48.3778 11.283 47.5206 11.0777 46.6519 11.0842C44.2717 11.0842 42.6562 12.6135 42.6562 14.227C42.6562 15.6185 43.4434 16.3872 44.5944 16.7901V16.8107C43.4043 17.1539 42.315 17.9617 42.315 19.0511C42.315 20.0192 43.2831 20.8866 44.4752 21.0284C43.2646 21.4929 42.0745 22.0376 42.0745 23.1064C42.0745 24.4589 43.3653 25.1249 45.9798 25.1249C49.3096 25.1249 51.6713 23.275 51.6713 21.1086C51.6754 19.4889 50.4257 18.5105 48.6292 18.5105ZM45.6961 12.2209C45.7851 12.0497 45.9193 11.9062 46.0843 11.8062C46.2492 11.7061 46.4385 11.6533 46.6314 11.6536C47.3898 11.6536 47.8646 12.301 47.8646 14.1427C47.8646 15.9844 47.509 16.6092 46.6314 16.6092C45.8893 16.6092 45.4618 15.8754 45.4618 14.1201C45.4598 13.2609 45.507 12.6196 45.6961 12.2209ZM46.247 24.4301C44.9767 24.4301 44.2306 23.682 44.2306 22.5926C44.2306 21.7704 45.1268 21.0531 45.9407 21.0531H47.6591C49.0979 21.1538 49.7782 21.4642 49.7782 22.4919C49.7782 23.6367 47.8831 24.4301 46.2573 24.4301H46.247Z" fill="#18171A"/>
<path d="M13.9469 13.5285H7.24622V6.82777L0.543457 0.125V6.82777V13.5285V20.2312H7.24622H13.9469H20.6497L13.9469 13.5285Z" fill="#18171A"/>
</svg>
