<svg width="132" height="39" viewBox="0 0 132 39" fill="none" xmlns="http://www.w3.org/2000/svg"> <path d="M113.642 23.8452V19.644C114.793 19.682 116.018 19.9671 117.244 20.5374L117.998 18.5984H113.642V14.8344C115.188 14.8724 117.131 15.0245 118.639 15.5568L119.393 13.6748H110.154L110.531 14.1501C110.946 14.7013 111.078 15.0055 111.078 15.8419V23.446C111.078 24.2824 110.984 24.5676 110.531 25.1379L110.154 25.6131H118.79L119.299 23.0087C118.111 23.9592 115.999 24.4155 114.547 24.4155C113.963 24.3965 113.642 24.2824 113.642 23.8452ZM108.099 23.427V15.8229C108.099 14.8724 108.287 14.6063 108.646 14.131L109.023 13.6558H105.704L106.081 14.131C106.44 14.5873 106.628 14.8724 106.628 15.8229V22.0962L99.9534 13.6558H96.9554L97.3514 14.112C97.8039 14.6633 98.0679 15.1766 98.0679 16.0701V23.427C98.0679 24.3775 97.8793 24.6436 97.521 25.1188L97.1439 25.5941H100.462L100.085 25.1188C99.7271 24.6626 99.5386 24.3775 99.5386 23.427V17.1726L106.194 25.5941H109.023L108.646 25.1188C108.174 24.5105 108.099 24.1683 108.099 23.427ZM90.2618 24.5866C87.5843 24.5866 86.4718 21.64 86.4718 18.9786C86.4718 16.3742 87.5277 14.6633 89.583 14.6633C92.2604 14.6633 93.3729 17.6289 93.3729 20.2903C93.3729 23.0277 92.2038 24.5866 90.2618 24.5866ZM89.9412 25.8602C93.5803 25.8602 96.1823 23.2749 96.1823 19.6249C96.1823 15.975 93.5803 13.3896 89.9412 13.3896C86.3021 13.3896 83.7001 15.975 83.7001 19.6249C83.7001 23.2749 86.2833 25.8602 89.9412 25.8602ZM77.2327 24.3965C79.9668 24.3965 81.3998 24.2444 82.7762 23.0277L83.1722 22.6665L82.6065 25.5751H73.6879L80.1176 14.8154C76.4597 14.8154 75.4792 15.2336 74.593 15.994L74.1782 16.3552L74.5553 13.6558H83.5116L77.1007 24.3775H77.2327V24.3965ZM72.0287 23.427V15.8229C72.0287 15.0815 72.1041 14.7394 72.5755 14.131L72.9526 13.6558H68.5593L68.9364 14.131C69.3512 14.6823 69.4832 14.9865 69.4832 15.8229V18.6744H64.3357V15.8229C64.3357 15.0815 64.4111 14.7394 64.8825 14.131L65.2596 13.6558H60.8663L61.2434 14.131C61.6582 14.6823 61.7902 14.9865 61.7902 15.8229V23.427C61.7902 24.2634 61.6771 24.5676 61.2434 25.1188L60.8663 25.5941H65.2596L64.8825 25.1188C64.4111 24.5295 64.3357 24.1874 64.3357 23.427V20.0812H69.4832V23.427C69.4832 24.2634 69.3701 24.5676 68.9364 25.1188L68.5593 25.5941H72.9337L72.5566 25.1188C72.1041 24.5105 72.0287 24.1683 72.0287 23.427ZM59.6784 15.956L60.1121 16.3552L59.735 13.6558H50.2131L49.836 16.3552L50.2696 15.956C51.005 15.3287 52.3814 14.8724 53.7013 14.8344V23.427C53.7013 24.2634 53.607 24.5676 53.0414 25.1379L52.6265 25.5751H57.3592L56.9444 25.1379C56.2845 24.4345 56.2845 24.0923 56.2845 23.427V14.8344C57.6986 14.8534 58.9242 15.2907 59.6784 15.956ZM43.9154 14.7964C45.537 14.7964 46.4986 15.5758 46.4986 16.9065C46.4986 18.2372 45.7255 18.8645 44.1039 19.2638L42.3504 19.663V15.4998C42.3315 14.9295 42.6521 14.7964 43.9154 14.7964ZM44.1039 20.4424C44.9901 22.1533 45.9518 23.8642 46.97 25.5941H50.4582C49.8171 25.0998 49.3457 24.5866 48.4407 23.2559C47.6865 22.1343 47.0642 21.0507 46.3477 19.777C48.1578 19.0546 49.0252 18.0091 49.0252 16.6214C49.0252 14.7584 47.4979 13.6558 44.9524 13.6558H38.881L39.2581 14.112C39.6918 14.6633 39.8049 14.9675 39.8049 15.8039V23.4079C39.8049 24.3584 39.6164 24.6246 39.2581 25.0998L38.881 25.5751H43.2177L42.8406 25.0998C42.2938 24.3965 42.2938 24.0353 42.2938 23.4079V20.8606L44.1039 20.4424ZM32.0931 24.5866C29.4157 24.5866 28.3032 21.64 28.3032 18.9786C28.3032 16.3742 29.3591 14.6633 31.4143 14.6633C34.0918 14.6633 35.2042 17.6289 35.2042 20.2903C35.1854 23.0277 34.0352 24.5866 32.0931 24.5866ZM31.7537 25.8602C35.3928 25.8602 37.9948 23.2749 37.9948 19.6249C37.9948 15.975 35.3928 13.3896 31.7537 13.3896C28.1146 13.3896 25.5126 15.975 25.5126 19.6249C25.5126 23.2749 28.0958 25.8602 31.7537 25.8602ZM23.6648 23.427V15.8229C23.6648 14.8724 23.8533 14.6063 24.2116 14.131L24.5887 13.6558H21.2513L21.6284 14.131C21.9867 14.5873 22.1752 14.8724 22.1752 15.8229V22.0962L15.5193 13.6558H12.5024L12.8984 14.112C13.3509 14.6633 13.6149 15.1766 13.6149 16.0891V23.427C13.6149 24.3775 13.4264 24.6436 13.0681 25.1188L12.691 25.5941H16.0095L15.6324 25.1188C15.2742 24.6626 15.0856 24.3775 15.0856 23.427V17.1726L21.7415 25.5941H24.5698L24.1927 25.1188C23.7402 24.5105 23.6648 24.1683 23.6648 23.427Z" fill="#121212"/> </svg>
