<svg width="165" height="19" viewBox="0 0 165 19" fill="none" xmlns="http://www.w3.org/2000/svg">
<path d="M29.7822 9.48998L33.5426 15.3077H30.6391L30.3113 14.8035C30.3113 14.8035 28.5396 12.05 27.7373 10.6264C27.3424 9.92393 27.5671 10.3313 27.2425 9.73037H25.1929V15.3077H22.7859V1.31516C24.8667 1.31516 26.924 1.17156 28.9533 1.35731C30.7359 1.52121 32.1111 3.12589 32.3625 4.84921C32.6356 6.70833 31.7989 8.37232 30.1396 9.27456C30.0272 9.33232 29.9211 9.40412 29.7822 9.48998ZM25.1695 7.37954H27.4626C27.7484 7.38816 28.0346 7.38036 28.3195 7.35614C28.7743 7.29725 29.192 7.0745 29.4943 6.72965C29.7967 6.38481 29.9628 5.94156 29.9617 5.48297C29.9773 4.56044 29.3373 3.73937 28.4007 3.64883C27.4641 3.55829 25.1726 3.60199 25.1726 3.60199L25.1695 7.37954Z" fill="#18171A"/>
<path d="M114.821 4.58941L112.714 5.63215C112.105 4.4942 111.193 3.67938 109.954 3.55138C108.981 3.45148 107.904 3.49986 106.988 3.82299C105.093 4.49889 104.102 6.5016 104.288 8.78843C104.464 10.9504 105.766 12.605 107.661 13.0811C109.781 13.6118 111.529 12.8548 112.853 10.7787L114.99 11.7449C114.259 13.6634 112.851 14.7108 111.039 15.2665C107.074 16.4856 103.029 14.2581 101.996 10.3151C100.903 6.1301 103.245 2.11841 107.335 1.19119C110.339 0.510603 113.578 1.88736 114.738 4.33497C114.77 4.41834 114.798 4.50326 114.821 4.58941Z" fill="#18171A"/>
<path d="M127.654 18.7411V5.54153H129.923V6.94641C132.434 4.80475 134.936 4.80008 136.792 6.84652C138.62 8.85705 138.529 12.3255 136.597 14.2362C134.733 16.0781 132.178 15.9844 129.942 13.9037V18.7427L127.654 18.7411ZM135.865 10.4399C135.872 10.0498 135.802 9.66219 135.658 9.29976C135.514 8.93732 135.298 8.60743 135.024 8.32956C134.751 8.05169 134.424 7.83144 134.064 7.68183C133.703 7.53221 133.317 7.45624 132.927 7.45841C131.228 7.45841 129.961 8.70719 129.947 10.3915C129.933 12.0758 131.15 13.3199 132.88 13.3433C134.578 13.3605 135.855 12.1179 135.865 10.4352V10.4399Z" fill="#18171A"/>
<path d="M126.282 15.3281H124.028V13.8046C122.935 15.1548 121.686 15.6621 120.16 15.5341C119.007 15.4392 117.938 14.8975 117.18 14.0247C115.336 11.9954 115.38 8.64555 117.266 6.71775C119.151 4.78994 121.572 4.81337 123.978 6.86449V5.54079H126.28L126.282 15.3281ZM123.989 10.4282C123.989 8.72204 122.749 7.48263 121.034 7.48575C120.642 7.47584 120.253 7.54424 119.888 7.68693C119.524 7.82963 119.192 8.04374 118.911 8.31668C118.63 8.58962 118.407 8.91588 118.254 9.27632C118.102 9.63675 118.023 10.0241 118.022 10.4155C118.021 10.807 118.098 11.1947 118.249 11.5558C118.4 11.917 118.622 12.2443 118.901 12.5186C119.18 12.7929 119.512 13.0086 119.875 13.153C120.239 13.2975 120.628 13.3677 121.02 13.3597C122.724 13.3784 123.984 12.1343 123.989 10.4282Z" fill="#18171A"/>
<path d="M58.8815 6.89416C58.8815 6.3728 58.894 5.51739 58.894 5.51739H61.2167V15.3062H58.8847C58.8847 15.3062 58.8847 14.5133 58.8847 13.9014C57.6827 15.3859 56.192 15.7886 54.5139 15.4499C53.3541 15.2157 52.4363 14.5398 51.7416 13.5767C50.1885 11.4163 50.5241 8.17104 52.4285 6.46489C53.9395 5.10997 56.8304 4.5527 58.8815 6.89416ZM58.9221 10.3986C58.9221 8.6971 57.6562 7.46392 55.9407 7.48421C55.5496 7.47887 55.1613 7.55167 54.7987 7.69837C54.4362 7.84507 54.1065 8.06269 53.8291 8.33848C53.5518 8.61427 53.3323 8.94268 53.1835 9.30443C53.0348 9.66617 52.9598 10.054 52.9629 10.4451C52.966 10.8362 53.0472 11.2228 53.2017 11.5821C53.3562 11.9415 53.5809 12.2663 53.8626 12.5377C54.1443 12.809 54.4774 13.0213 54.8423 13.1622C55.2072 13.3031 55.5965 13.3697 55.9875 13.3582C57.7108 13.3519 58.9252 12.1266 58.9221 10.3986Z" fill="#18171A"/>
<path d="M158.419 6.99398V5.54227H160.659V15.3186H158.474C158.45 14.8878 158.425 14.4601 158.394 13.8826C157.394 15.097 156.179 15.6418 154.698 15.5434C153.216 15.4451 152.083 14.7473 151.232 13.5735C149.582 11.2945 150.012 8.00549 152.155 6.26813C153.699 5.01467 156.546 4.68374 158.419 6.99398ZM155.503 13.3581C155.894 13.3621 156.282 13.2869 156.643 13.1372C157.004 12.9875 157.331 12.7663 157.605 12.4869C157.878 12.2075 158.092 11.8757 158.234 11.5114C158.376 11.1472 158.442 10.758 158.43 10.3672C158.394 8.67827 157.105 7.45604 155.399 7.48882C155.015 7.48979 154.635 7.56718 154.281 7.71649C153.927 7.86579 153.606 8.08402 153.338 8.35846C153.069 8.63291 152.858 8.95808 152.716 9.31502C152.574 9.67195 152.505 10.0535 152.512 10.4375C152.523 12.1155 153.811 13.3721 155.503 13.3581Z" fill="#18171A"/>
<path d="M42.757 10.9697H35.4438C35.5765 12.0437 36.0541 12.8117 36.9751 13.1879C38.4471 13.7873 39.7724 13.4844 40.9041 12.2513L42.5868 13.344C41.6877 14.8253 38.8217 16.1131 36.5146 15.2858C33.8188 14.3211 32.4467 11.3646 33.4223 8.60795C33.8749 7.35858 34.8001 6.33697 35.9987 5.76324C37.1972 5.1895 38.5732 5.10956 39.8301 5.54064C42.1076 6.33674 43.4766 8.8343 42.757 10.9697ZM35.5765 9.15117H40.4654C40.2375 7.90239 39.4134 7.23742 38.1615 7.2062C36.7972 7.17342 35.8653 7.87273 35.5734 9.15117H35.5765Z" fill="#18171A"/>
<path d="M85.1466 15.5514C82.226 15.5405 80.0281 13.3161 80.0547 10.4002C80.0797 7.45308 82.2572 5.28955 85.195 5.28955C88.0874 5.28955 90.3071 7.53423 90.2962 10.4408C90.2853 13.3473 88.064 15.5608 85.1466 15.5514ZM85.1138 13.3255C86.7731 13.3379 87.9813 12.1188 87.9907 10.4205C88 8.76896 86.8137 7.53268 85.1996 7.51083C83.5419 7.48898 82.3306 8.71434 82.329 10.4127C82.3259 12.0751 83.5091 13.3114 85.1138 13.3255Z" fill="#18171A"/>
<path d="M69.9038 8.77875C68.4864 7.2646 66.6101 7.09914 65.4129 8.33075C64.3202 9.45777 64.353 11.4979 65.4894 12.5656C66.7787 13.777 68.6878 13.5272 70.088 11.9241L71.9612 12.7686C71.4726 14.5481 69.3075 15.7344 66.977 15.5393C65.7856 15.4489 64.6653 14.9369 63.8172 14.0954C62.969 13.2538 62.4484 12.1376 62.3487 10.9469C62.1005 8.47746 63.6412 6.15475 65.9639 5.49602C68.2866 4.83728 70.7295 5.74264 71.727 7.72976L69.9038 8.77875Z" fill="#18171A"/>
<path d="M50.2803 5.68555C50.2803 5.64029 50.2803 5.46545 50.2803 5.46545H47.7655C47.7655 3.54546 48.0262 2.932 50.2849 2.932C50.2849 2.4637 50.2849 1.4881 50.2849 1.4881V0.863708C48.5164 0.361075 45.9626 1.47562 45.4943 3.25044C45.3132 3.93883 45.3492 4.67405 45.3492 5.47951H43.6321V7.66488H45.4725V15.3027H47.7296V7.71638H50.2928L50.2803 5.68555Z" fill="#18171A"/>
<path d="M79.3428 5.45129H76.7095V2.87256H74.4601V5.49656H72.6462V7.72718H74.4523C74.4523 7.72718 74.4523 8.41403 74.4523 8.72154C74.4632 9.91724 74.4133 11.1176 74.5022 12.3118C74.6583 14.4503 76.6205 15.4525 78.7699 15.4525H79.3943V14.9217L79.3865 13.3202C79.3865 13.3202 78.7512 13.3202 78.5186 13.3202C77.5539 13.3108 76.8765 12.83 76.8094 11.8653C76.7157 10.5026 76.7859 7.68193 76.7859 7.68193H79.3413L79.3428 5.45129Z" fill="#18171A"/>
<path d="M149.42 5.45129H146.786V2.87256H144.535V5.49656H142.721V7.72718H144.527C144.527 7.72718 144.527 8.41403 144.527 8.72154C144.538 9.91724 144.488 11.1176 144.577 12.3118C144.734 14.4503 146.696 15.4525 148.845 15.4525H149.47V14.9217V13.3202C149.47 13.3202 148.834 13.3202 148.602 13.3202C147.637 13.3108 146.959 12.83 146.894 11.8653C146.8 10.5026 146.869 7.68193 146.869 7.68193H149.424L149.42 5.45129Z" fill="#18171A"/>
<path d="M162.237 1.28662H164.399V15.2932H162.237V1.28662Z" fill="#18171A"/>
<path d="M91.2312 5.50723H93.5227C93.5227 5.50723 93.5227 6.12225 93.5227 6.57649C94.3532 5.62117 95.9126 5.24186 97.0927 5.3683C97.0927 5.73981 97.0927 6.13787 97.0927 6.13787V7.71288L96.7805 7.64733C94.5702 7.23055 93.4556 8.14841 93.4509 10.3978C93.4509 12.0087 93.4509 15.2961 93.4509 15.2961H91.2188L91.2312 5.50723Z" fill="#18171A"/>
<path d="M141.437 15.3194H139.261V5.51025H141.437V15.3194Z" fill="#18171A"/>
<path d="M140.341 0.917575C140.721 0.91324 141.088 1.05768 141.364 1.32011C141.639 1.58254 141.802 1.9422 141.816 2.32245C141.818 2.51412 141.783 2.70443 141.712 2.88253C141.642 3.06063 141.536 3.22301 141.403 3.36043C141.269 3.49784 141.11 3.6076 140.934 3.68341C140.757 3.75921 140.568 3.7996 140.377 3.80227C140.185 3.80493 139.995 3.76982 139.816 3.69894C139.638 3.62805 139.476 3.52277 139.339 3.38912C139.201 3.25548 139.091 3.09609 139.016 2.92003C138.94 2.74397 138.899 2.5547 138.897 2.36304C138.903 1.98195 139.057 1.61825 139.327 1.3486C139.596 1.07894 139.96 0.9244 140.341 0.917575Z" fill="#18171A"/>
<path d="M4.62232 15.7002C6.63446 15.7002 8.26563 14.069 8.26563 12.0569C8.26563 10.0447 6.63446 8.41357 4.62232 8.41357C2.61017 8.41357 0.979004 10.0447 0.979004 12.0569C0.979004 14.069 2.61017 15.7002 4.62232 15.7002Z" fill="#18171A"/>
<path d="M4.62232 8.41357C6.63446 8.41357 8.26563 6.7824 8.26563 4.77026C8.26563 2.75811 6.63446 1.12695 4.62232 1.12695C2.61017 1.12695 0.979004 2.75811 0.979004 4.77026C0.979004 6.7824 2.61017 8.41357 4.62232 8.41357Z" fill="#18171A"/>
<path d="M11.9089 8.41357C13.9211 8.41357 15.5522 6.7824 15.5522 4.77026C15.5522 2.75811 13.9211 1.12695 11.9089 1.12695C9.89679 1.12695 8.26562 2.75811 8.26562 4.77026C8.26562 6.7824 9.89679 8.41357 11.9089 8.41357Z" fill="#18171A"/>
</svg>
