<svg width="129" height="33" viewBox="0 0 129 33" fill="none" xmlns="http://www.w3.org/2000/svg">
  <path d="M21.0537 20.0324L9.91767 0.742676H0.979004L19.4323 32.7427L26.7497 20.0538L17.235 3.54107L15.6137 0.742676H12.4137L23.5283 20.0538L19.4537 27.1459L5.843 3.54107H8.31767L19.4537 22.8094L21.0537 20.0324Z" fill="#18171A"/>
  <path d="M22.5901 8.53974L27.9874 17.8962L37.8861 0.742676H27.0061H23.8274L27.9874 8.00569L29.5874 5.20729L28.6274 3.54107H33.0221L27.9874 12.2781L25.7901 8.49701L21.3101 0.742676H18.1101L22.5901 8.53974Z" fill="#B6B4BA"/>
  <path d="M66.9207 14.3502V8.36889H68.7127V17.9817H67.582V18.0031L62.5474 11.5304V18.0031H60.7554V8.41161H62.2274L66.9207 14.3502ZM79.4434 8.41161H81.2354V13.9016C81.2354 15.2688 80.8514 16.3368 80.0834 17.0845C79.3367 17.8108 78.3127 18.1953 77.0754 18.1953C75.8594 18.1953 74.8567 17.8108 74.046 17.0845C73.2354 16.3582 72.83 15.2688 72.83 13.9016V8.41161H74.622V13.9016C74.622 14.7561 74.8567 15.3969 75.3047 15.8669C75.7527 16.3368 76.35 16.5505 77.0967 16.5505C77.822 16.5505 78.4194 16.3155 78.8247 15.8455C79.23 15.3756 79.422 14.7347 79.422 13.9016L79.4434 8.41161ZM92.798 9.97102L91.3687 10.6973C91.1981 10.4196 90.8994 10.1633 90.4727 9.94966C90.0674 9.73604 89.598 9.62923 89.1074 9.62923C88.4674 9.62923 87.9554 9.75741 87.6354 9.99239C87.2941 10.2274 87.1447 10.5264 87.1447 10.9109C87.1447 11.1886 87.2514 11.4023 87.4647 11.5518C87.678 11.7227 87.934 11.8295 88.19 11.915C88.4674 11.979 88.83 12.0645 89.278 12.1072C89.726 12.1713 90.11 12.2354 90.4514 12.2995C90.7927 12.3635 91.1341 12.4704 91.4754 12.6413C91.8381 12.7908 92.1154 12.9617 92.35 13.1753C92.5847 13.3676 92.7554 13.6666 92.9047 14.0084C93.054 14.3502 93.118 14.7347 93.118 15.1833C93.118 15.8669 92.9261 16.4437 92.5421 16.9136C92.1581 17.3836 91.6674 17.7254 91.07 17.939C90.4727 18.1312 89.8114 18.2381 89.086 18.2381C86.9527 18.2381 85.5447 17.4477 84.9047 15.8883L86.398 15.0979C86.59 15.5892 86.9527 15.9737 87.4221 16.2514C87.9127 16.5077 88.446 16.6359 89.086 16.6359C89.7047 16.6359 90.238 16.5077 90.6647 16.2728C91.07 16.0378 91.2834 15.6746 91.2834 15.1833C91.2834 14.3929 90.558 13.923 89.0647 13.7734C88.51 13.7093 88.0407 13.6239 87.6354 13.5171C87.2301 13.4103 86.8461 13.2394 86.4621 13.0471C86.0781 12.8335 85.7794 12.5558 85.5874 12.1927C85.3954 11.8295 85.31 11.3809 85.31 10.8682C85.31 10.2487 85.502 9.71468 85.886 9.28745C86.2701 8.83885 86.718 8.53978 87.2514 8.34753C87.7847 8.17663 88.382 8.06982 89.0007 8.06982C90.9207 8.06982 92.158 8.71068 92.798 9.97102ZM103.55 8.41161H105.342V13.9016C105.342 15.2688 104.958 16.3368 104.19 17.0845C103.443 17.8108 102.419 18.1953 101.182 18.1953C99.9661 18.1953 98.9634 17.8108 98.1527 17.0845C97.342 16.3582 96.9367 15.2688 96.9367 13.9016V8.41161H98.7287V13.9016C98.7287 14.7561 98.9634 15.3969 99.4114 15.8669C99.8594 16.3368 100.457 16.5505 101.203 16.5505C101.929 16.5505 102.526 16.3155 102.931 15.8455C103.337 15.3756 103.529 14.7347 103.529 13.9016L103.55 8.41161ZM110.526 17.9817H108.563L112.851 8.39025H114.814L119.102 17.9817H117.139L113.833 10.4196L110.526 17.9817ZM122.259 8.39025H124.051V16.3155H128.979V17.9817H122.259V8.39025ZM54.6114 8.41161H56.4034V13.9016C56.4034 15.2688 56.0194 16.3368 55.2514 17.0845C54.5047 17.8108 53.4807 18.1953 52.2434 18.1953C51.0274 18.1953 50.0247 17.8108 49.214 17.0845C48.4034 16.3582 47.998 15.2688 47.998 13.9016V8.41161H49.79V13.9016C49.79 14.7561 50.0247 15.3969 50.4727 15.8669C50.9207 16.3368 51.518 16.5505 52.2647 16.5505C52.99 16.5505 53.5874 16.3155 53.9927 15.8455C54.398 15.3756 54.59 14.7347 54.59 13.9016L54.6114 8.41161Z" fill="#18171A"/>
  <path d="M115.667 21.6996L115.005 22.0414C114.92 21.8919 114.792 21.7851 114.6 21.6783C114.408 21.5928 114.195 21.5288 113.96 21.5288C113.661 21.5288 113.427 21.5928 113.256 21.6996C113.107 21.8065 113.021 21.956 113.021 22.1269C113.021 22.255 113.085 22.3619 113.171 22.4259C113.256 22.49 113.384 22.5755 113.512 22.5968C113.64 22.6396 113.811 22.6609 114.003 22.6823C114.216 22.7036 114.387 22.7464 114.557 22.7677C114.728 22.8105 114.877 22.8532 115.048 22.9386C115.219 23.0027 115.347 23.1095 115.453 23.195C115.56 23.2804 115.645 23.4086 115.709 23.5795C115.773 23.7504 115.816 23.9213 115.816 24.1349C115.816 24.4553 115.731 24.733 115.539 24.9466C115.368 25.1603 115.133 25.3312 114.856 25.4166C114.579 25.502 114.259 25.5661 113.939 25.5661C112.936 25.5661 112.296 25.203 111.997 24.4767L112.701 24.1135C112.787 24.3485 112.957 24.5194 113.192 24.6476C113.427 24.7757 113.683 24.8185 113.96 24.8185C114.237 24.8185 114.493 24.7544 114.685 24.6476C114.877 24.5408 114.963 24.3699 114.963 24.1563C114.963 23.7931 114.621 23.5581 113.939 23.494C113.661 23.4513 113.448 23.43 113.277 23.3659C113.107 23.3018 112.893 23.2377 112.723 23.1523C112.552 23.0668 112.403 22.9173 112.317 22.7677C112.232 22.5968 112.168 22.3832 112.168 22.1696C112.168 21.8919 112.253 21.6356 112.445 21.4433C112.616 21.251 112.829 21.1015 113.085 21.0161C113.341 20.9306 113.597 20.8879 113.896 20.8879C114.792 20.8024 115.389 21.1015 115.667 21.6996ZM108.669 24.6049V25.438H105.341V20.9733H108.669V21.8065H106.173V22.8318H108.584V23.6222H106.173V24.6262L108.669 24.6049ZM100.221 21.7424H98.9412V23.1736H100.221C100.477 23.1736 100.669 23.1095 100.797 22.96C100.925 22.8105 100.989 22.6609 100.989 22.4687C100.989 22.2764 100.925 22.1055 100.797 21.9773C100.669 21.8065 100.477 21.7424 100.221 21.7424ZM102.056 25.3739V25.438H101.053L99.7519 23.9426H98.9412V25.438H98.1092V20.9733C98.3439 20.9733 98.7066 20.9733 99.1759 20.9733C99.6452 20.9733 99.9866 20.9733 100.221 20.9733C100.712 20.9733 101.117 21.1229 101.395 21.4006C101.672 21.6783 101.821 22.0414 101.821 22.4473C101.821 22.7891 101.736 23.0882 101.544 23.3445C101.373 23.6008 101.075 23.7717 100.691 23.8358L102.056 25.3739ZM93.5226 20.9733H94.3546V23.5368C94.3546 24.1776 94.1839 24.6903 93.8212 25.0107C93.4586 25.3525 93.0106 25.5234 92.4132 25.5234C91.8372 25.5234 91.3892 25.3525 91.0052 25.0107C90.6212 24.6689 90.4292 24.1776 90.4292 23.5368V20.9733H91.2612V23.5368C91.2612 23.9213 91.3679 24.2417 91.5599 24.4553C91.7732 24.6689 92.0506 24.7757 92.3919 24.7757C92.7332 24.7757 92.9892 24.6689 93.2026 24.4553C93.3946 24.2417 93.4799 23.9426 93.4799 23.5368L93.5226 20.9733ZM84.7546 25.4166V21.721H83.3466V20.952H87.0159V21.721H85.6079V25.4166H84.7546ZM79.0372 23.729V20.952H79.8692V25.4166H79.3572L77.0106 22.4046V25.4166H76.1786V20.952H76.8612L79.0372 23.729ZM72.5306 24.6049V25.438H69.2026V20.9733H72.5306V21.8065H70.0346V22.8318H72.4452V23.6222H70.0346V24.6262L72.5306 24.6049ZM65.7466 20.952L63.8906 25.438H63.0159L61.1599 20.952H62.0986L63.4426 24.4126L64.8079 20.952H65.7466Z" fill="#B6B4BA"/>
</svg>
