<svg width="152" height="29" viewBox="0 0 152 29" fill="none" xmlns="http://www.w3.org/2000/svg">
<path d="M14.174 14.8399C14.174 15.5995 14.7992 16.1928 15.5994 16.1928C16.3996 16.1928 17.0248 15.5995 17.0248 14.8399C17.0248 14.0804 16.3996 13.4871 15.5994 13.4871C14.7992 13.5108 14.174 14.1042 14.174 14.8399ZM26.1274 13.5108C25.3271 13.5108 24.702 14.1042 24.702 14.8637C24.702 15.6232 25.3271 16.2166 26.1274 16.2166C26.9276 16.2166 27.5528 15.6232 27.5528 14.8637C27.5528 14.1042 26.9276 13.5108 26.1274 13.5108ZM26.1274 23.6693C25.3271 23.6693 24.702 24.2627 24.702 25.0222C24.702 25.7817 25.3271 26.3751 26.1274 26.3751C26.9276 26.3751 27.5528 25.7817 27.5528 25.0222C27.5528 24.2627 26.9276 23.6693 26.1274 23.6693Z" fill="white"/>
<path d="M29.1575 2.34037C27.7321 0.655181 25.1814 0.583979 23.6809 1.91314L23.5059 2.07929L23.1558 2.34037C21.7304 3.43218 19.6048 3.33725 18.2794 2.07929V1.98434C17.8293 1.55711 17.2291 1.22482 16.604 1.05868C16.5039 1.05868 16.3289 0.96374 16.2539 0.96374H14.8285C14.7284 0.96374 14.6534 0.963738 14.5534 1.05868H14.3784C14.2783 1.05868 14.2033 1.15362 14.1033 1.15362C14.1033 1.15362 14.0032 1.15362 14.0032 1.24856C13.9032 1.24856 13.8282 1.3435 13.7282 1.3435C13.7282 1.3435 13.6281 1.3435 13.6281 1.43844C13.5281 1.53338 13.4531 1.53338 13.3531 1.60459C13.3531 1.60459 13.253 1.60459 13.253 1.69953C13.153 1.79447 13.078 1.79446 12.978 1.86567L12.7029 2.12676L12.3528 2.38784C10.9274 3.47965 8.80179 3.38471 7.57645 2.12676C7.57645 2.12676 7.47642 2.12676 7.47642 2.03182L7.30137 1.86567C6.77623 1.43844 6.15105 1.10615 5.45086 1.03494H3.85041C3.85041 1.12988 3.75038 1.12989 3.67536 1.20109H3.65036C3.20023 1.36724 2.77511 1.53338 2.40001 1.86567L2.0249 2.22169C1.6748 2.55398 1.49976 2.98122 1.32471 3.31351C1.32471 3.40845 1.22468 3.47965 1.22468 3.57459C1.22468 3.66953 1.12465 3.74074 1.12465 3.90688C1.02462 4.50026 1.02462 5.09363 1.22468 5.66328C1.22468 5.75822 1.32471 5.82942 1.32471 5.92436V6.0193C1.32471 6.11424 1.42474 6.18545 1.42474 6.28039C1.52476 6.37533 1.52476 6.44653 1.59978 6.61268C1.77483 6.70762 1.94988 6.87377 2.04991 6.94497L2.40001 7.27726C3.72538 8.53522 3.72538 10.7188 2.29998 12.0717C2.12493 12.2379 1.84985 12.499 1.77483 12.6651C1.6748 12.7601 1.6748 12.8313 1.59978 12.9974V13.0923C1.49976 13.1873 1.49976 13.2585 1.42474 13.3534V13.4484C1.42474 13.5433 1.32471 13.6145 1.32471 13.7095V13.8044C1.32471 13.8993 1.32471 13.9705 1.22468 14.0655V15.3234C1.22468 15.4184 1.22468 15.4896 1.32471 15.5845V15.6795C1.49976 16.2728 1.84985 16.8662 2.375 17.3647C3.8004 18.7176 3.8004 20.9012 2.375 22.2303L2.09992 22.4914V22.5864C1.9999 22.6813 1.92487 22.7525 1.92487 22.8475C1.92487 22.8475 1.92487 22.9424 1.82485 22.9424C1.72482 23.0373 1.72482 23.1085 1.6498 23.2035L1.54977 23.2984C1.54977 23.3934 1.44974 23.3934 1.44974 23.4646C1.44974 23.5358 1.34971 23.5595 1.34971 23.6307C1.34971 23.7256 1.34971 23.7256 1.24969 23.7969C1.07464 24.1291 0.974609 24.5564 0.974609 24.8887V25.5532C1.07464 25.8143 1.07464 26.0517 1.24969 26.2178C1.24969 26.3128 1.34971 26.384 1.34971 26.384C1.34971 26.384 1.34971 26.4789 1.44974 26.4789C1.44974 26.5739 1.54977 26.6451 1.54977 26.74C1.54977 26.74 1.54977 26.8349 1.6498 26.8349C1.74983 27.0011 1.82485 27.096 1.92487 27.1672C1.92487 27.1672 1.92487 27.2622 2.0249 27.2622C2.0249 27.2622 2.0249 27.3571 2.12493 27.3571C2.12493 27.452 2.22496 27.452 2.22496 27.452L2.32499 27.547C2.42501 27.6419 2.50004 27.6419 2.50004 27.7131L2.60006 27.8081C2.60006 27.8081 2.70009 27.8081 2.70009 27.903C2.80012 27.998 2.87514 28.0692 2.97517 28.0692C2.97517 28.0692 3.0752 28.0692 3.0752 28.1641C3.17522 28.259 3.25024 28.259 3.35027 28.3302H3.40029C3.50031 28.4252 3.57534 28.4252 3.75038 28.4252C3.85041 28.4252 4.02546 28.5201 4.10048 28.5201H4.20051C4.30054 28.5201 4.37556 28.5201 4.47559 28.6151H5.27581C5.55089 28.6151 5.72594 28.5201 5.97601 28.5201H6.07603C6.17606 28.5201 6.25108 28.4252 6.35111 28.4252H6.40112C6.50115 28.4252 6.57617 28.3302 6.6762 28.3302H6.77623C6.95128 28.2353 7.22635 28.0692 7.4014 27.998L7.77651 27.6419C9.20191 26.2178 11.5025 26.2178 12.9029 27.6419C14.5034 29.2322 17.1541 29.161 18.6545 27.3808C19.7048 26.1229 19.7048 24.2716 18.6545 22.9187C17.2291 21.2335 14.6784 21.1623 13.178 22.4914L13.003 22.6576L12.6529 22.9187C11.2275 24.0105 9.10188 23.9155 7.77651 22.6576L7.60146 22.4914L7.32638 22.1591C6.17606 20.8062 6.27609 18.7888 7.60146 17.5308C8.40168 16.8662 8.75178 15.9406 8.75178 15.0149V14.7538C8.75178 13.9231 8.40168 13.0686 7.70149 12.4752C7.70149 12.3803 7.60146 12.3803 7.60146 12.3091L7.32638 11.9768C6.17606 10.6239 6.27609 8.60642 7.60146 7.34846L7.80151 7.15859C9.22691 5.73448 11.5276 5.73448 12.9279 7.15859L13.3031 7.51461C13.4031 7.51461 13.4031 7.60955 13.4781 7.60955C13.5531 7.60955 13.5781 7.70449 13.6531 7.70449C13.7282 7.70449 13.7532 7.79943 13.8282 7.79943C13.9032 7.79943 13.9282 7.89437 14.0032 7.89437C14.0783 7.89437 14.1033 7.98931 14.1783 7.98931C14.2533 7.98931 14.2783 8.08425 14.3533 8.08425C14.4284 8.08425 14.4534 8.08425 14.5284 8.17919C14.6284 8.17919 14.6284 8.17919 14.7034 8.27413H16.2039C16.3039 8.27413 16.3789 8.27413 16.4789 8.17919H16.654C16.754 8.17919 16.829 8.08425 16.9291 8.08425H17.0291C17.1291 8.08425 17.2041 7.98931 17.3792 7.9181C17.7293 7.75196 18.0794 7.49088 18.3545 7.25353L18.4545 7.15859C19.8799 5.73448 22.1805 5.73448 23.5809 7.15859C25.0813 8.84377 27.8321 8.74883 29.2575 6.99244C30.2078 5.44966 30.2078 3.59833 29.1575 2.34037Z" fill="white"/>
<path d="M49.3356 12.75C48.8105 12.2516 48.3603 11.9193 47.7352 11.6582C47.21 11.3971 46.5848 11.231 45.7846 11.231C45.0844 11.231 44.3592 11.3971 43.8341 11.6582C43.3089 11.9193 42.8588 12.2516 42.5087 12.75C42.1586 13.1772 41.8835 13.6757 41.7085 14.269C41.5334 14.8624 41.4334 15.4558 41.4334 16.0254C41.4334 16.5951 41.5334 17.2122 41.7835 17.7818C41.9585 18.3752 42.3086 18.7787 42.6587 19.2059C43.0088 19.6331 43.534 19.9654 44.0841 20.2028C44.6093 20.4638 45.2345 20.5351 45.9347 20.5351C46.7349 20.5351 47.3601 20.3689 47.8852 20.1078C48.4103 19.8467 48.9355 19.5145 49.3856 19.016L51.2361 20.8673C50.5359 21.6269 49.7357 22.1253 48.8355 22.4576C47.9602 22.7899 46.9849 22.956 45.9096 22.956C44.8594 22.956 43.7841 22.7899 42.9088 22.4576C42.0336 22.1253 41.2333 21.6269 40.6082 21.0335C39.983 20.4401 39.4579 19.6806 39.1078 18.8499C38.7577 18.0191 38.5826 16.9985 38.5826 16.0017C38.5826 15.0048 38.7577 13.9842 39.1078 13.1535C39.4579 12.3228 39.983 11.5632 40.6082 10.8749C41.2333 10.2816 42.0336 9.78312 42.9088 9.45083C43.7841 9.11854 44.8594 8.9524 45.9096 8.9524C46.9599 8.9524 47.9352 9.11854 48.8355 9.45083C49.8107 9.78312 50.611 10.3765 51.3112 11.0411L49.3356 12.75ZM55.3373 15.8593C55.3373 16.5238 55.4373 17.2122 55.6874 17.7106C55.8624 18.304 56.2125 18.8024 56.5626 19.2296C56.9127 19.6569 57.4379 19.9891 57.988 20.1553C58.5132 20.4164 59.2384 20.4876 59.9386 20.4876C60.6388 20.4876 61.2639 20.3926 61.8891 20.1553C62.4143 19.8942 62.9394 19.5619 63.3145 19.2296C63.6646 18.8024 64.0147 18.304 64.1897 17.7106C64.3648 17.1172 64.5398 16.5238 64.5398 15.8593C64.5398 15.1947 64.4398 14.5064 64.1897 14.0079C64.0147 13.4146 63.6646 12.9161 63.3145 12.4889C62.9644 12.0617 62.4393 11.7294 61.8891 11.5632C61.364 11.3022 60.6388 11.231 59.9386 11.231C59.2384 11.231 58.6132 11.3259 57.988 11.5632C57.4629 11.8243 56.9377 12.1566 56.5626 12.4889C56.2125 12.9161 55.8624 13.4146 55.6874 14.0079C55.5123 14.6013 55.3373 15.1947 55.3373 15.8593ZM52.5115 15.8593C52.5115 14.8624 52.6865 13.9367 53.0366 13.0823C53.3867 12.2516 53.9119 11.492 54.6371 10.8037C55.3373 10.1391 56.0625 9.61698 57.0378 9.28469C57.913 8.9524 58.8883 8.69132 59.9636 8.69132C61.0389 8.69132 61.9891 8.85746 62.8894 9.28469C63.7646 9.61698 64.5648 10.1154 65.2901 10.8037C65.9902 11.4683 66.4404 12.2278 66.8905 13.0823C67.2406 13.913 67.4156 14.8387 67.4156 15.8593C67.4156 16.8561 67.2406 17.7818 66.8905 18.6363C66.5404 19.467 66.0153 20.2265 65.2901 20.9148C64.5899 21.5794 63.8647 22.0066 62.8894 22.4338C62.0141 22.7661 61.0389 23.0272 59.9636 23.0272C58.9133 23.0272 57.938 22.8611 57.0378 22.4338C56.1625 22.1016 55.3623 21.6031 54.6371 20.9148C53.9369 20.2502 53.4868 19.5619 53.0366 18.6363C52.7866 17.7818 52.5115 16.8561 52.5115 15.8593ZM70.1414 22.6712H72.7921V9.23722H70.1414V22.6712ZM69.5162 4.34782C69.5162 3.84938 69.6913 3.42216 70.0414 2.99493C70.3915 2.66264 70.8416 2.40156 71.3667 2.40156C71.8919 2.40156 72.342 2.5677 72.6921 2.99493C73.0422 3.32722 73.2173 3.82565 73.2173 4.34782C73.2173 4.86999 73.0422 5.27348 72.6921 5.70071C72.342 6.033 71.8919 6.29409 71.3667 6.29409C70.8416 6.29409 70.3915 6.12794 70.0414 5.70071C69.6913 5.34469 69.5162 4.84625 69.5162 4.34782ZM76.4932 9.21348H79.1689V11.3022H79.2689C79.619 10.5426 80.1442 9.94927 81.0444 9.54578C81.8447 9.11855 82.8199 8.88119 83.9703 8.88119C84.6705 8.88119 85.2956 8.97613 85.9208 9.21348C86.546 9.37963 87.0711 9.71192 87.5212 10.1391C87.9714 10.5664 88.3215 11.0648 88.6716 11.7294C88.9466 12.394 89.1217 13.1535 89.1217 14.0791V22.7424H86.4209V14.7675C86.4209 14.1741 86.3209 13.5807 86.1459 13.1772C85.9708 12.75 85.6957 12.3465 85.4457 12.0854C85.1706 11.8243 84.8205 11.587 84.3954 11.492C84.0453 11.3971 83.5952 11.3259 83.145 11.3259C82.6199 11.3259 82.0947 11.4208 81.6446 11.587C81.1945 11.7531 80.7694 12.0142 80.3943 12.4177C80.0442 12.75 79.7691 13.2484 79.594 13.8418C79.419 14.4352 79.319 15.0997 79.319 15.8593V22.8373H76.6682V9.23722L76.4932 9.21348ZM98.8994 20.5588C99.5996 20.5588 100.225 20.4639 100.85 20.2265C101.475 19.9654 101.9 19.6331 102.35 19.2296C102.7 18.8024 103.051 18.304 103.226 17.7106C103.401 17.1172 103.576 16.5238 103.576 15.7881C103.576 15.1235 103.476 14.4352 103.226 13.8655C103.051 13.2722 102.7 12.7737 102.35 12.3465C101.9 11.9193 101.475 11.587 100.85 11.3496C100.225 11.0885 99.5996 11.0173 98.8994 11.0173C98.1992 11.0173 97.5741 11.1123 96.9489 11.3496C96.3237 11.6107 95.8986 11.943 95.4485 12.3465C95.0984 12.7737 94.7483 13.2722 94.5732 13.8655C94.3982 14.4589 94.2231 15.0523 94.2231 15.7881C94.2231 16.4526 94.3231 17.141 94.5732 17.7106C94.7483 18.304 95.0984 18.8024 95.4485 19.2296C95.7986 19.6569 96.3237 19.9892 96.9489 20.2265C97.474 20.3926 98.1992 20.5588 98.8994 20.5588ZM106.251 22.5763H103.601V20.6537H103.501C102.976 21.4132 102.25 21.9117 101.375 22.3389C100.5 22.7661 99.5246 22.9323 98.5493 22.9323C97.499 22.9323 96.4237 22.7661 95.5485 22.4338C94.6732 22.1016 93.873 21.6031 93.2478 20.9148C92.6227 20.2502 92.0975 19.4907 91.8225 18.6363C91.4724 17.8055 91.2973 16.8799 91.2973 15.8593C91.2973 14.8387 91.4724 13.9367 91.8225 13.0111C92.1725 12.1803 92.6227 11.4208 93.2478 10.7325C93.873 10.0679 94.6732 9.54577 95.5485 9.21348C96.4237 8.88119 97.399 8.71505 98.5493 8.71505C99.5246 8.71505 100.5 8.8812 101.375 9.30843C102.25 9.73565 102.976 10.3053 103.401 10.9936H103.501V0.90625H106.151V22.5763H106.251ZM119.78 14.7675C119.78 14.1741 119.68 13.6757 119.505 13.1772C119.33 12.6788 119.055 12.2516 118.705 11.9193C118.355 11.587 117.905 11.3259 117.455 11.0885C116.929 10.9224 116.404 10.7563 115.679 10.7563C115.054 10.7563 114.429 10.8512 113.904 11.0885C113.378 11.3496 112.928 11.587 112.478 12.0142C112.128 12.3465 111.778 12.7737 111.603 13.2722C111.428 13.7706 111.253 14.1978 111.253 14.6251H119.755L119.78 14.7675ZM111.303 16.8561C111.303 17.4495 111.478 17.9479 111.753 18.4464C112.028 18.9448 112.378 19.372 112.803 19.7043C113.253 20.0366 113.779 20.2977 114.304 20.4639C114.929 20.63 115.454 20.7249 116.079 20.7249C116.879 20.7249 117.68 20.5588 118.28 20.1316C118.905 19.7993 119.43 19.3008 119.955 18.7075L121.981 20.2265C120.48 22.0778 118.355 23.0035 115.704 23.0035C114.554 23.0035 113.579 22.8373 112.703 22.505C111.828 22.1728 111.028 21.6743 110.403 20.986C109.777 20.3214 109.252 19.6331 108.977 18.7075C108.627 17.8767 108.452 16.9511 108.452 15.9305C108.452 14.9336 108.627 14.0079 108.977 13.1535C109.327 12.3228 109.852 11.5632 110.478 10.8749C111.103 10.2103 111.903 9.78312 112.778 9.35589C113.654 9.0236 114.629 8.85746 115.704 8.85746C116.954 8.85746 118.005 9.0236 118.88 9.45083C119.755 9.87806 120.48 10.3765 121.006 11.0411C121.531 11.7057 121.981 12.4652 122.256 13.3196C122.531 14.1504 122.606 15.0048 122.606 15.9305V16.8561H111.303ZM133.059 12.5838C132.709 12.2516 132.359 11.9193 131.909 11.6582C131.458 11.3971 130.858 11.231 130.233 11.231C129.608 11.231 129.083 11.3971 128.558 11.6582C128.108 11.9193 127.857 12.2516 127.857 12.75C127.857 13.1772 128.033 13.5095 128.308 13.6757C128.583 13.9367 128.933 14.1029 129.283 14.269C129.633 14.4352 130.083 14.5301 130.433 14.6013C130.883 14.6963 131.233 14.7675 131.483 14.7675C132.009 14.9336 132.634 15.0285 133.084 15.2659C133.609 15.432 134.059 15.6931 134.409 16.0254C134.759 16.3577 135.035 16.69 135.285 17.1172C135.46 17.5445 135.635 18.0429 135.635 18.7075C135.635 19.467 135.46 20.1316 135.11 20.63C134.759 21.1284 134.309 21.6269 133.784 21.9829C133.259 22.3389 132.634 22.5763 131.934 22.7424C131.233 22.9085 130.508 23.0035 129.908 23.0035C128.758 23.0035 127.707 22.8373 126.807 22.505C125.932 22.1728 125.132 21.5794 124.407 20.6537L126.432 19.0635C126.882 19.4907 127.307 19.823 127.857 20.1553C128.408 20.4876 129.008 20.6537 129.808 20.6537C130.158 20.6537 130.508 20.6537 130.858 20.5588C131.208 20.4638 131.483 20.3926 131.734 20.2265C132.009 20.0604 132.184 19.8942 132.359 19.7281C132.534 19.467 132.634 19.2296 132.634 18.9685C132.634 18.6363 132.534 18.304 132.284 18.0429C132.009 17.7818 131.759 17.6157 131.408 17.4495C131.058 17.2834 130.708 17.1884 130.358 17.1172L129.308 16.8561C128.783 16.69 128.158 16.5951 127.707 16.4289C127.182 16.2628 126.732 16.0017 126.382 15.7643C126.032 15.5032 125.682 15.0997 125.407 14.6725C125.132 14.2453 125.057 13.6757 125.057 13.0823C125.057 12.4177 125.232 11.7294 125.507 11.231C125.782 10.7325 126.207 10.3053 126.757 9.973C127.282 9.64071 127.807 9.37963 128.433 9.21348C129.058 9.04734 129.758 8.9524 130.383 8.9524C131.358 8.9524 132.234 9.11854 133.134 9.45083C134.009 9.78312 134.734 10.3765 135.26 11.136L133.059 12.5838ZM138.21 1.23855H140.861V14.8387L146.888 9.11854H150.514L144.062 15.171L151.139 22.3864H147.338L140.886 15.5032V22.3864H138.235V1.23855" fill="white"/>
</svg>
