<svg width="124" height="32" viewBox="0 0 124 32" fill="none" xmlns="http://www.w3.org/2000/svg">
<path d="M24.9909 9.11222L24.3634 9.30473C24.0212 9.41169 23.7289 9.48299 23.7146 9.46873C23.7075 9.45447 23.5863 9.11935 23.4508 8.7272C23.3153 8.33505 23.0087 7.60778 22.7734 7.10155C21.7182 4.86984 20.449 3.57929 18.6879 2.95185L17.925 2.68091L14.6594 2.65239L11.3938 2.62387L11.3511 2.83064C11.237 3.37252 11.0017 15.0801 11.1015 15.2369C11.1586 15.3225 11.6006 15.3225 13.0837 15.2583C14.1318 15.2084 15.1728 15.13 15.3938 15.0801C16.2922 14.8733 16.9909 14.2387 17.49 13.1835C17.8109 12.5133 18.146 11.4438 18.146 11.1086C18.146 10.9233 18.1817 10.909 18.7235 10.909H19.3011V21.2333L18.2173 21.1834L18.0105 20.3635C17.54 18.5025 16.6059 17.3118 15.3867 17.0195C14.9446 16.9125 11.1871 16.7628 11.1015 16.8483C11.0088 16.941 11.1514 22.9517 11.294 25.0051C11.4937 27.8857 12.0213 29.2333 13.1478 29.8037C13.4687 29.9605 15.4437 30.3883 15.8644 30.3883C15.8929 30.3883 15.9214 30.6094 15.9214 30.8803V31.3723H0.00713006V30.4097L0.456324 30.317C0.698746 30.2671 1.17646 30.1744 1.51157 30.1174C2.73081 29.9178 3.47234 29.2475 3.86449 27.9926C4.34934 26.4668 4.44203 24.8911 4.51333 17.3189C4.5775 10.1532 4.4349 6.32437 4.04275 4.62741C3.79319 3.53651 3.38678 2.8449 2.73794 2.36718C2.31014 2.05346 1.91799 1.93938 0.848478 1.80391L0.0570405 1.70409L0.0285203 1.14794L0 0.591797H24.8055L24.8554 1.94651C24.8839 2.69517 24.9267 4.60602 24.9481 6.21029L24.9909 9.11222Z" fill="white"/>
<path d="M40.2419 11.4434C38.3952 9.70365 36.0637 8.8623 33.0477 8.8623C29.8534 8.8623 27.2866 9.85338 25.3044 11.8427C23.1868 13.9746 22.0674 16.9478 22.0674 20.4415C22.0674 24.0636 23.0799 26.9869 25.0477 29.0404C26.1315 30.1669 27.1868 30.8443 28.6983 31.3862C29.2331 31.5787 29.6253 31.6642 31.0584 31.9352C31.1796 31.9566 31.9996 31.9637 32.8837 31.9423C34.0744 31.9209 34.6805 31.8639 35.2366 31.7355C36.8124 31.3648 38.0744 30.8015 39.2009 29.9673C41.9389 27.921 43.4362 24.7909 43.5717 20.8266C43.6929 16.9193 42.5164 13.5895 40.2419 11.4434ZM37.0049 23.2508C36.7125 27.4005 35.807 29.6536 34.1315 30.4379C33.5254 30.7231 32.4416 30.7373 31.857 30.4664C30.3953 29.8033 29.3614 27.7926 28.8409 24.6055C28.513 22.5877 28.4773 18.0886 28.7768 15.8925C29.1974 12.7981 30.0887 10.9728 31.4719 10.3596C32.4202 9.93894 33.7393 10.1885 34.5806 10.9514C36.463 12.6412 37.4113 17.4683 37.0049 23.2508Z" fill="white"/>
<path d="M61.9674 9.47597C61.9032 9.70413 59.8498 15.123 59.8141 15.1586C59.7927 15.1729 59.4861 15.0517 59.1296 14.8734C57.8819 14.2602 56.2847 14.0392 55.037 14.2959C54.4238 14.4242 53.5539 14.8378 53.2758 15.1372L53.0548 15.3725V20.4563C53.0548 26.9731 53.1832 28.5774 53.7892 29.4473C54.2099 30.0462 54.6448 30.2102 56.2348 30.3385L56.9264 30.3956V31.3581H43.8428L43.8998 30.4241L44.6912 30.2672C45.1262 30.1817 45.6039 30.0391 45.7608 29.9535C46.1743 29.7182 46.5807 29.048 46.7376 28.3492C47.0442 26.9874 47.1511 17.0196 46.8873 14.4599C46.6805 12.4991 46.1957 11.8289 44.8196 11.6079C43.8214 11.4439 43.857 11.4653 43.857 11.1301C43.857 10.9662 43.8927 10.8022 43.9355 10.7808C44.0424 10.7166 44.6556 10.5883 49.062 9.70413C51.1154 9.29059 52.8908 8.93408 53.012 8.90556L53.2259 8.85565L53.1618 11.3084C53.1119 13.2692 53.1261 13.7611 53.2117 13.7611C53.2758 13.7611 53.5183 13.4118 53.7536 12.984C55.1653 10.4029 57.1261 8.93408 59.3364 8.80574C60.1635 8.75583 60.8052 8.86278 61.5396 9.15512C61.8818 9.28346 61.9959 9.36902 61.9674 9.47597Z" fill="white"/>
<path d="M123.193 26.1604C122.551 29.2549 120.113 31.2798 116.334 31.8573C115.293 32.0142 113.175 32.0071 111.799 31.8431C110.024 31.6292 107.464 31.0231 107.072 30.7165C106.937 30.6167 106.915 30.2531 106.858 27.4723L106.794 24.3422L107.043 24.2496C107.593 24.0428 107.614 24.057 107.978 24.934C109.354 28.2923 111.051 29.8823 113.453 30.082C115.222 30.2246 116.576 29.5187 117.254 28.0927C117.51 27.5436 117.539 27.4224 117.539 26.6096C117.539 25.7611 117.525 25.6898 117.232 25.1551C117.026 24.7772 116.748 24.4421 116.398 24.1497C115.799 23.6506 114.223 22.8663 112.691 22.2959C110.751 21.5758 109.61 20.9056 108.733 19.9715C107.714 18.8806 107.25 17.6329 107.243 15.943C107.236 14.7523 107.407 13.9894 107.892 12.9983C108.812 11.1374 110.566 9.80405 112.94 9.15521C113.753 8.93418 113.917 8.91992 115.892 8.91992C117.546 8.91992 118.166 8.94844 118.872 9.08391C119.806 9.25504 121.232 9.64006 121.774 9.87535L122.095 10.0108L122.159 12.7773C122.195 14.3031 122.195 15.5723 122.166 15.6079C122.131 15.6436 121.945 15.7149 121.753 15.7719C121.439 15.8646 121.389 15.8575 121.346 15.7291C121.061 14.8949 120.469 13.5473 120.177 13.0696C119.272 11.558 118.273 10.7381 116.94 10.4244C115.835 10.1677 114.894 10.2889 114.138 10.788C113.232 11.3869 112.762 12.3352 112.755 13.583C112.748 14.4101 112.904 14.8878 113.375 15.5081C113.945 16.2568 115.343 17.091 117.674 18.0821C120.812 19.4082 122.081 20.3494 122.829 21.9038C123.357 23.0018 123.5 24.6631 123.193 26.1604Z" fill="white"/>
<path d="M92.0631 19.3513C92.1344 19.3085 95.0934 19.2729 98.7012 19.2729H105.218V19.0162C105.218 18.4315 105.026 16.8629 104.854 16.0358C104.163 12.7204 102.338 10.3603 99.728 9.40487C98.6941 9.02698 97.7102 8.87012 96.4196 8.87012C93.3608 8.87012 90.8582 9.87546 88.9188 11.879C87.3787 13.4833 86.4589 15.28 85.9028 17.8041C85.7316 18.567 85.7031 18.9592 85.7031 20.5634C85.7031 22.1534 85.7316 22.5598 85.8956 23.2942C86.9295 27.9573 90.0026 31.0304 94.4089 31.8147C95.5284 32.0143 97.1754 32.0286 98.2734 31.8503C100.334 31.5152 102.366 30.5241 103.821 29.148C104.619 28.3922 104.883 28.0286 104.776 27.8361C104.484 27.3227 104.491 27.3227 103.735 27.7933C102.53 28.5348 101.924 28.7345 100.512 28.8842C98.8581 29.0553 97.3323 28.7773 95.9205 28.05C94.9865 27.5651 93.867 26.46 93.3038 25.4689C92.5409 24.1142 92.1273 22.5242 91.999 20.485C91.9562 19.6294 91.9633 19.4155 92.0631 19.3513ZM92.2913 15.2658C92.6906 13.2908 93.318 11.8647 94.195 10.9806C94.6656 10.51 94.8795 10.3603 95.2574 10.2462C95.5212 10.1678 95.8207 10.1036 95.9205 10.1036C96.3269 10.1036 96.8118 10.3104 97.1683 10.6455C98.1308 11.5296 98.6798 13.4334 98.7868 16.2569L98.8438 17.6472L97.9169 17.6971C96.0631 17.797 92.0703 17.854 92.0275 17.7756C91.9562 17.6686 92.1202 16.0857 92.2913 15.2658Z" fill="white"/>
<path d="M83.5788 19.0016C83.5004 16.8697 83.1511 15.4794 82.2669 13.7539C81.0691 11.4152 79.0227 9.77532 76.7055 9.29047C74.9657 8.92684 72.7198 9.21204 71.0157 10.0106C70.5879 10.2103 70.1815 10.3742 70.1102 10.3742C69.9961 10.3742 69.9818 9.71828 70.0103 5.18356L70.046 0L69.6895 0.0713006C69.4898 0.114081 67.4934 0.484844 65.2403 0.898388C62.9872 1.31193 61.0621 1.67557 60.9552 1.70409C60.7912 1.73974 60.7626 1.80391 60.784 2.08198C60.8054 2.38857 60.8268 2.42422 61.1548 2.49552C62.2814 2.74507 62.481 2.83064 62.9017 3.26557C63.415 3.79319 63.6503 4.47055 63.8001 5.88943C63.9213 7.01598 63.9498 26.424 63.8357 29.2903L63.7644 30.9873L64.6842 31.1869C68.1565 31.9284 71.6217 32.1851 73.7821 31.8643C76.4844 31.4578 78.4666 30.5309 80.1422 28.8839C82.5664 26.4953 83.7357 23.1371 83.5788 19.0016ZM76.9122 23.1299C76.5058 25.7181 75.7572 27.7217 74.7233 29.0122C74.2242 29.6397 73.39 30.2315 72.734 30.424C72.3133 30.5523 71.415 30.5808 70.6093 30.4953C70.431 30.4739 70.2385 30.4097 70.1815 30.3384C70.0317 30.153 69.8606 18.0818 69.9676 14.5525L70.046 11.7503L70.759 11.5436C71.8071 11.2441 72.9408 11.2869 73.7394 11.6648C75.3508 12.4277 76.406 14.31 76.955 17.3902C77.1333 18.4027 77.1047 21.8893 76.9122 23.1299Z" fill="white"/>
</svg>
