<svg width="164" height="29" viewBox="0 0 164 29" fill="none" xmlns="http://www.w3.org/2000/svg">
<path d="M37.399 9.8149H42.505V22.3947H45.6556V9.8149H50.7616V7.23706H37.399V9.8149Z" fill="white"/>
<path d="M63.1447 13.3208H56.1918V7.23706H52.9326V22.3947H56.1918V16.0017H63.1447V22.3947H66.4039V7.23706H63.1447V13.3208Z" fill="white"/>
<path d="M72.271 15.8986H79.2239V13.4239H72.271V9.8149H80.093V7.23706H69.0118V22.3947H80.3103V19.8169H72.271V15.8986Z" fill="white"/>
<path d="M97.8019 14.4542C98.671 14.1449 100.192 13.1137 100.192 10.9483C100.192 8.78296 98.4538 7.13315 95.7378 7.13315H88.6762V22.2908H96.0637C98.7797 22.2908 100.844 20.641 100.844 18.1663C100.735 16.104 99.2142 14.8666 97.8019 14.4542ZM91.7181 9.60787H94.76C96.1723 9.60787 97.0414 10.2265 97.0414 11.567C97.0414 12.8044 96.281 13.5262 94.8687 13.5262H91.8268V9.60787H91.7181ZM95.1946 20.0223H91.7181V15.7947H95.0859C96.6069 15.7947 97.5846 16.5165 97.5846 17.96C97.476 19.3005 96.6069 20.0223 95.1946 20.0223Z" fill="white"/>
<path d="M106.169 7.23706H103.019V22.3947H113.991V19.7138H106.169V7.23706Z" fill="white"/>
<path d="M122.68 7.13315C118.117 7.13315 114.749 10.1234 114.749 14.8667C114.749 19.6099 118.117 22.4971 122.68 22.4971C127.243 22.4971 130.61 19.5068 130.61 14.7636C130.61 10.0203 127.134 7.13315 122.68 7.13315ZM122.68 19.8161C120.072 19.8161 118.008 17.9601 118.008 14.7636C118.008 11.567 120.072 9.711 122.68 9.711C125.287 9.711 127.351 11.567 127.351 14.7636C127.351 17.9601 125.287 19.8161 122.68 19.8161Z" fill="white"/>
<path d="M139.952 9.7118C142.559 9.7118 143.645 11.1554 143.971 12.8052H147.122C146.796 9.50557 144.514 7.03085 139.952 7.03085C135.606 7.03085 132.455 10.1243 132.455 14.7644C132.455 19.5076 135.606 22.4979 139.952 22.4979C144.623 22.4979 146.796 20.0231 147.122 16.7235H143.971C143.754 18.3733 142.668 19.8169 140.06 19.8169C137.561 19.8169 135.715 17.9609 135.715 14.7644C135.606 11.671 137.561 9.7118 139.952 9.7118Z" fill="white"/>
<path d="M156.788 13.7332L162.655 7.23706H158.852L152.334 14.7643V7.23706H149.184V22.3947H152.334V18.3733L154.616 15.8986L159.396 22.3947H163.089L156.788 13.7332Z" fill="white"/>
<path d="M13.6104 28.5812L0.682357 23.5287C0.2478 23.3224 0.13916 23.3224 0.13916 22.8069V6.51499C0.13916 6.10254 0.2478 5.99942 0.682357 5.7932L13.6104 1.04999C14.045 0.946878 14.1536 0.946878 14.5882 1.04999L27.5163 5.7932C27.9508 5.99942 28.0595 6.10254 28.0595 6.51499V22.91C28.0595 23.3224 27.9508 23.4255 27.5163 23.6318L14.5882 28.5812C14.1536 28.6843 14.045 28.7874 13.6104 28.5812ZM14.045 27.2407L25.3435 23.0131L14.045 19.0948L2.74651 22.91L14.045 27.2407ZM1.66011 21.8788L11.8722 18.2699L10.0253 17.5481C9.9167 17.445 9.80806 17.3419 9.80806 17.2388V12.1862C9.80806 11.98 9.9167 11.8769 10.0253 11.8769L11.8722 11.1551L1.66011 7.44301V21.8788ZM26.4299 21.8788V7.54612L16.2178 11.1551L18.0647 11.8769C18.1733 11.98 18.2819 12.0831 18.2819 12.1862V17.2388C18.2819 17.3419 18.1733 17.5481 18.0647 17.5481L16.2178 18.2699L26.4299 21.8788ZM14.045 17.445L16.761 16.4139V12.8049L14.045 11.7738L11.329 12.8049V16.4139L14.045 17.445ZM14.045 10.3302L25.3435 6.41188L14.045 2.28735L2.74651 6.41188L14.045 10.3302Z" fill="white"/>
</svg>
