<svg width="114" height="40" viewBox="0 0 114 40" fill="none" xmlns="http://www.w3.org/2000/svg">
<path d="M46.1013 30.5647H48.3451V33.2631H46.1013V39.743H42.7812V33.2631H41.559V30.5647H42.7812V30.3261C42.7812 29.0656 43.14 28.0805 43.8575 27.3707C44.5751 26.6487 45.5784 26.2877 46.8675 26.2877C47.1715 26.2877 47.4634 26.3183 47.7431 26.3794C48.0228 26.4284 48.2661 26.5018 48.4728 26.5997V29.3716C48.339 29.3104 48.187 29.2614 48.0168 29.2247C47.8587 29.1758 47.6762 29.1513 47.4695 29.1513C47.0803 29.1513 46.752 29.2553 46.4844 29.4633C46.229 29.6591 46.1013 29.9712 46.1013 30.3995V30.5647Z" fill="white"/>
<path d="M49.6835 39.743V30.5647H53.0218V39.743H49.6835ZM53.2225 27.9765C53.2225 28.2212 53.1739 28.4599 53.0766 28.6924C52.9793 28.9126 52.8455 29.1084 52.6752 29.2798C52.505 29.4511 52.3043 29.5857 52.0732 29.6836C51.8543 29.7815 51.6111 29.8305 51.3435 29.8305C51.0882 29.8305 50.8449 29.7815 50.6139 29.6836C50.395 29.5857 50.2004 29.4511 50.0301 29.2798C49.8598 29.1084 49.7261 28.9126 49.6288 28.6924C49.5315 28.4721 49.4828 28.2335 49.4828 27.9765C49.4828 27.7195 49.5315 27.4808 49.6288 27.2606C49.7261 27.0403 49.8598 26.8445 50.0301 26.6731C50.2004 26.5018 50.395 26.3672 50.6139 26.2693C50.8449 26.1714 51.0882 26.1224 51.3435 26.1224C51.6111 26.1224 51.8543 26.1714 52.0732 26.2693C52.3043 26.3672 52.505 26.5018 52.6752 26.6731C52.8455 26.8445 52.9793 27.0464 53.0766 27.2789C53.1739 27.4992 53.2225 27.7317 53.2225 27.9765Z" fill="white"/>
<path d="M58.3836 39.743H55.0453V30.5647H58.3836V31.6845C58.639 31.2317 58.9856 30.889 59.4234 30.6565C59.8613 30.424 60.3599 30.3077 60.9193 30.3077C61.9044 30.3077 62.6766 30.632 63.2361 31.2806C63.8077 31.917 64.0935 32.792 64.0935 33.9056V39.743H60.7551V34.8235C60.7551 34.3584 60.6518 34.0035 60.445 33.7588C60.2383 33.5018 59.9525 33.3733 59.5876 33.3733C59.2228 33.3733 58.9309 33.5018 58.712 33.7588C58.4931 34.0158 58.3836 34.3829 58.3836 34.8602V39.743Z" fill="white"/>
<path d="M75.7605 30.5647V39.743H72.4769V38.7518C71.7716 39.5717 70.8412 39.9816 69.6859 39.9816C69.1021 39.9816 68.5548 39.8593 68.044 39.6145C67.5333 39.3698 67.0894 39.0332 66.7124 38.6049C66.3475 38.1643 66.0556 37.6504 65.8367 37.063C65.63 36.4755 65.5266 35.8392 65.5266 35.1539C65.5266 34.4808 65.63 33.8506 65.8367 33.2631C66.0556 32.6635 66.3475 32.1495 66.7124 31.7212C67.0894 31.2929 67.5333 30.9563 68.044 30.7116C68.5548 30.4546 69.1021 30.3261 69.6859 30.3261C70.2696 30.3261 70.7925 30.4301 71.2547 30.6382C71.729 30.834 72.1364 31.1399 72.4769 31.556V30.5647H75.7605ZM68.8467 35.1539C68.8467 35.4109 68.8954 35.6495 68.9926 35.8698C69.0899 36.0901 69.2237 36.2859 69.394 36.4572C69.5642 36.6163 69.7588 36.7448 69.9777 36.8427C70.2088 36.9406 70.452 36.9895 70.7074 36.9895C70.9628 36.9895 71.2 36.9406 71.4189 36.8427C71.6499 36.7448 71.8506 36.6163 72.0209 36.4572C72.1911 36.2859 72.3249 36.0901 72.4222 35.8698C72.5195 35.6495 72.5681 35.4109 72.5681 35.1539C72.5681 34.8969 72.5195 34.6582 72.4222 34.438C72.3249 34.2177 72.1911 34.028 72.0209 33.8689C71.8506 33.6976 71.6499 33.563 71.4189 33.4651C71.2 33.3672 70.9628 33.3182 70.7074 33.3182C70.452 33.3182 70.2088 33.3672 69.9777 33.4651C69.7588 33.563 69.5642 33.6976 69.394 33.8689C69.2237 34.028 69.0899 34.2177 68.9926 34.438C68.8954 34.6582 68.8467 34.8969 68.8467 35.1539Z" fill="white"/>
<path d="M81.0974 39.743H77.759V30.5647H81.0974V31.6845C81.3528 31.2317 81.6994 30.889 82.1372 30.6565C82.575 30.424 83.0736 30.3077 83.6331 30.3077C84.6181 30.3077 85.3904 30.632 85.9498 31.2806C86.5214 31.917 86.8072 32.792 86.8072 33.9056V39.743H83.4689V34.8235C83.4689 34.3584 83.3655 34.0035 83.1588 33.7588C82.952 33.5018 82.6662 33.3733 82.3014 33.3733C81.9365 33.3733 81.6447 33.5018 81.4257 33.7588C81.2068 34.0158 81.0974 34.3829 81.0974 34.8602V39.743Z" fill="white"/>
<path d="M88.2404 35.1539C88.2404 34.4563 88.362 33.8138 88.6052 33.2264C88.8484 32.6268 89.189 32.1128 89.6268 31.6845C90.0646 31.2439 90.5815 30.9074 91.1774 30.6749C91.7854 30.4301 92.4482 30.3077 93.1658 30.3077C93.5185 30.3077 93.8833 30.3506 94.2603 30.4362C94.6373 30.5097 94.9839 30.6259 95.3001 30.785V33.8322C94.7772 33.4895 94.2238 33.3182 93.6401 33.3182C93.0563 33.3182 92.5699 33.4895 92.1807 33.8322C91.8037 34.1626 91.6152 34.6032 91.6152 35.1539C91.6152 35.7046 91.8037 36.1512 92.1807 36.4939C92.5699 36.8243 93.0563 36.9895 93.6401 36.9895C94.236 36.9895 94.7893 36.806 95.3001 36.4388V39.486C94.9474 39.6696 94.5826 39.7981 94.2056 39.8715C93.8286 39.9572 93.4637 40 93.111 40C92.4178 40 91.7733 39.8899 91.1774 39.6696C90.5936 39.4371 90.0828 39.1128 89.645 38.6967C89.2072 38.2684 88.8606 37.7605 88.6052 37.1731C88.362 36.5734 88.2404 35.9004 88.2404 35.1539Z" fill="white"/>
<path d="M105.757 37.5219C105.38 38.3173 104.814 38.9292 104.06 39.3575C103.319 39.7858 102.431 40 101.397 40C100.667 40 99.9985 39.8837 99.3904 39.6512C98.7823 39.4187 98.2593 39.0883 97.8215 38.66C97.3837 38.2317 97.0432 37.7238 96.8 37.1364C96.5567 36.5367 96.4351 35.8759 96.4351 35.1539C96.4351 34.4563 96.5567 33.8138 96.8 33.2264C97.0554 32.639 97.3959 32.1312 97.8215 31.7028C98.2593 31.2623 98.7701 30.9196 99.3539 30.6749C99.9498 30.4301 100.594 30.3077 101.288 30.3077C101.993 30.3077 102.637 30.4301 103.221 30.6749C103.817 30.9074 104.322 31.2439 104.735 31.6845C105.149 32.1128 105.471 32.639 105.702 33.2631C105.933 33.875 106.049 34.5603 106.049 35.3191C106.049 35.4659 106.043 35.5944 106.031 35.7046C106.031 35.8147 106.024 35.9126 106.012 35.9983H99.7005C99.737 36.3899 99.9133 36.7081 100.23 36.9528C100.558 37.1976 100.941 37.3199 101.379 37.3199C101.744 37.3199 102.042 37.2588 102.273 37.1364C102.516 37.0018 102.723 36.7937 102.893 36.5123L105.757 37.5219ZM102.82 34.0708C102.783 33.7159 102.619 33.4284 102.327 33.2081C102.048 32.9878 101.695 32.8777 101.269 32.8777C100.844 32.8777 100.485 32.9939 100.193 33.2264C99.9133 33.4467 99.7552 33.7282 99.7187 34.0708H102.82Z" fill="white"/>
<path d="M0.742676 7.64449H7.47926L11.402 17.6802L15.3755 7.64449H21.9345L12.058 31.4022H5.45719L8.16073 25.1067L0.742676 7.64449Z" fill="white"/>
<path d="M28.7674 7.2449C23.7058 7.2449 20.5061 11.7843 20.5061 16.3047C20.5061 21.3916 24.0143 25.4244 28.6713 25.4244C32.1453 25.4244 33.4551 23.308 33.4551 23.308V24.9567H39.3306V7.64461H33.4551V9.21848C33.4552 9.21848 31.9938 7.2449 28.7674 7.2449ZM30.0171 12.8085C32.3524 12.8085 33.5578 14.6564 33.5578 16.3238C33.5578 18.1193 32.2665 19.8814 30.0171 19.8814C28.1528 19.8814 26.4681 18.3578 26.4681 16.4001C26.4682 14.415 27.8232 12.8085 30.0171 12.8085Z" fill="white"/>
<path d="M41.3543 24.9568V0H47.4999V9.27837C47.4999 9.27837 48.9594 7.24712 52.0166 7.24712C55.7561 7.24712 57.9472 10.0334 57.9472 14.0149V24.9568H51.8465V15.5136C51.8465 14.1662 51.2046 12.8646 49.7509 12.8646C48.271 12.8646 47.4999 14.186 47.4999 15.5136V24.9567L41.3543 24.9568Z" fill="white"/>
<path d="M68.4252 7.24692C62.6286 7.24692 59.1775 11.6544 59.1775 16.3767C59.1775 21.7505 63.3563 25.4244 68.4472 25.4244C73.3813 25.4244 77.6991 21.9173 77.6991 16.4666C77.6991 10.5031 73.1785 7.24692 68.4252 7.24692ZM68.4806 12.8594C70.5281 12.8594 71.9448 14.5647 71.9448 16.3833C71.9448 17.9343 70.6246 19.8476 68.4806 19.8476C66.516 19.8476 65.0417 18.2715 65.0417 16.3663C65.0416 14.5309 66.2673 12.8594 68.4806 12.8594Z" fill="white"/>
<path d="M87.9368 7.24692C82.1405 7.24692 78.6893 11.6544 78.6893 16.3767C78.6893 21.7505 82.8682 25.4244 87.959 25.4244C92.8931 25.4244 97.2109 21.9173 97.2109 16.4666C97.2109 10.5031 92.6901 7.24692 87.9368 7.24692ZM87.9924 12.8594C90.0398 12.8594 91.4566 14.5647 91.4566 16.3833C91.4566 17.9343 90.1364 19.8476 87.9924 19.8476C86.0277 19.8476 84.5536 18.2715 84.5536 16.3663C84.5534 14.5309 85.779 12.8594 87.9924 12.8594Z" fill="white"/>
<path d="M102.06 17.1626C104.314 17.1626 106.141 18.9897 106.141 21.2435C106.141 23.4972 104.314 25.3243 102.06 25.3243C99.8063 25.3243 97.9794 23.4972 97.9794 21.2435C97.9794 18.9897 99.8063 17.1626 102.06 17.1626Z" fill="white"/>
<path d="M107.482 15.6636H100.135L106.655 0H113.975L107.482 15.6636Z" fill="white"/>
</svg>
