<svg width="80" height="70" viewBox="0 0 80 70" fill="none" xmlns="http://www.w3.org/2000/svg">
<g filter="url(#filter0_d)">
<path fill-rule="evenodd" clip-rule="evenodd" d="M59.2916 19.8848C58.8453 19.4933 58.2654 19.2893 57.6729 19.3146H51.7045C51.1268 19.3146 50.5727 19.5441 50.1642 19.9526C49.7557 20.3611 49.5262 20.9152 49.5262 21.4929C49.5262 22.0706 49.7557 22.6246 50.1642 23.0331C50.5727 23.4416 51.1268 23.6711 51.7045 23.6711H52.5519L41.7947 34.3531L36.2699 28.8445C36.07 28.637 35.8305 28.4715 35.5656 28.3578C35.2966 28.2424 35.0068 28.1829 34.714 28.1829C34.4212 28.1829 34.1315 28.2424 33.8624 28.3578C33.5972 28.4716 33.3575 28.6374 33.1574 28.8453L20.6392 41.3817L20.637 41.3838C20.229 41.7952 20 42.3512 20 42.9306C20 43.51 20.229 44.066 20.637 44.4774L20.6422 44.4826C21.0536 44.8906 21.6096 45.1196 22.189 45.1196C22.7684 45.1196 23.3244 44.8907 23.7358 44.4826L34.6621 33.4706L40.1714 38.9799L40.174 38.9825C40.5854 39.3905 41.1413 39.6195 41.7208 39.6195C42.3002 39.6195 42.8561 39.3905 43.2675 38.9825L43.2701 38.9799L55.589 26.661V27.5194C55.589 28.0971 55.8185 28.6512 56.227 29.0597C56.6355 29.4682 57.1896 29.6977 57.7673 29.6977C58.345 29.6977 58.8991 29.4682 59.3076 29.0597C59.6419 28.7254 60 28.1849 60 27.5194V21.4558L59.9992 21.4368C59.9754 20.8669 59.7378 20.3268 59.3336 19.9241L59.3132 19.9038L59.2916 19.8848Z" fill="url(#paint0_linear)"/>
</g>
<defs>
<filter id="filter0_d" x="-9.53674e-06" y="3.31249" width="80" height="65.8067" filterUnits="userSpaceOnUse" color-interpolation-filters="sRGB">
<feFlood flood-opacity="0" result="BackgroundImageFix"/>
<feColorMatrix in="SourceAlpha" type="matrix" values="0 0 0 0 0 0 0 0 0 0 0 0 0 0 0 0 0 0 127 0" result="hardAlpha"/>
<feOffset dy="4"/>
<feGaussianBlur stdDeviation="10"/>
<feComposite in2="hardAlpha" operator="out"/>
<feColorMatrix type="matrix" values="0 0 0 0 0.207843 0 0 0 0 0.0705882 0 0 0 0 0.698039 0 0 0 0.16 0"/>
<feBlend mode="normal" in2="BackgroundImageFix" result="effect1_dropShadow"/>
<feBlend mode="normal" in="SourceGraphic" in2="effect1_dropShadow" result="shape"/>
</filter>
<linearGradient id="paint0_linear" x1="66.2881" y1="6.60596" x2="20.9076" y2="45.6332" gradientUnits="userSpaceOnUse">
<stop stop-color="#D2CBFF"/>
<stop offset="1" stop-color="#6851FF"/>
</linearGradient>
</defs>
</svg>
