<svg width="80" height="76" viewBox="0 0 80 76" fill="none" xmlns="http://www.w3.org/2000/svg">
<g filter="url(#filter0_d)">
<path d="M32 46.2252L38.1391 50.8451C38.9312 51.615 40.7136 52 41.9018 52H49.4271C51.8036 52 54.378 50.2676 54.9721 47.9577L59.725 33.9057C60.7152 31.2108 58.9329 28.9009 55.9623 28.9009H48.0409C46.8527 28.9009 45.8625 27.9384 46.0605 26.591L47.0507 20.4312C47.4468 18.6988 46.2586 16.7739 44.4762 16.1964C42.892 15.6189 40.9116 16.3889 40.1195 17.5438L32 29.2859" fill="url(#paint0_radial)"/>
<path d="M20 46.3677V27.6324C20 24.9559 21.44 24 24.8 24H27.2C30.56 24 32 24.9559 32 27.6324V46.3677C32 49.0441 30.56 50 27.2 50H24.8C21.44 50 20 49.0441 20 46.3677Z" fill="url(#paint1_linear)"/>
</g>
<defs>
<filter id="filter0_d" x="-9.53674e-06" y="-7.62939e-06" width="80" height="76" filterUnits="userSpaceOnUse" color-interpolation-filters="sRGB">
<feFlood flood-opacity="0" result="BackgroundImageFix"/>
<feColorMatrix in="SourceAlpha" type="matrix" values="0 0 0 0 0 0 0 0 0 0 0 0 0 0 0 0 0 0 127 0" result="hardAlpha"/>
<feOffset dy="4"/>
<feGaussianBlur stdDeviation="10"/>
<feComposite in2="hardAlpha" operator="out"/>
<feColorMatrix type="matrix" values="0 0 0 0 0.207843 0 0 0 0 0.0705882 0 0 0 0 0.698039 0 0 0 0.16 0"/>
<feBlend mode="normal" in2="BackgroundImageFix" result="effect1_dropShadow"/>
<feBlend mode="normal" in="SourceGraphic" in2="effect1_dropShadow" result="shape"/>
</filter>
<radialGradient id="paint0_radial" cx="0" cy="0" r="1" gradientUnits="userSpaceOnUse" gradientTransform="translate(46 16) rotate(112.989) scale(35.8469 27.8809)">
<stop stop-color="#D2CBFF"/>
<stop offset="1" stop-color="#6851FF"/>
</radialGradient>
<linearGradient id="paint1_linear" x1="26" y1="24" x2="26" y2="50" gradientUnits="userSpaceOnUse">
<stop stop-color="#D2CBFF"/>
<stop offset="1" stop-color="#6851FF"/>
</linearGradient>
</defs>
</svg>
