<svg width="109" height="36" viewBox="0 0 109 36" fill="none" xmlns="http://www.w3.org/2000/svg">
<g opacity="0.5">
<path d="M108.401 18.1767C107.83 18.1826 107.265 18.1885 106.694 18.1826C106.512 18.1826 106.465 18.2356 106.465 18.4121C106.471 20.0479 106.465 21.6838 106.471 23.3196C106.471 23.7374 106.659 23.9316 107.083 23.9433C107.418 23.9551 107.747 23.9433 108.083 23.9374C108.271 23.9316 108.348 24.0081 108.348 24.1963C108.342 24.9437 108.342 25.6851 108.348 26.4324C108.348 26.5501 108.336 26.6266 108.189 26.6501C107.23 26.8148 106.265 26.8678 105.294 26.7089C104.076 26.5089 103.317 25.6674 103.228 24.4317C103.122 22.9842 103.199 21.5308 103.181 20.0832C103.175 19.5125 103.175 18.9476 103.181 18.3768C103.181 18.2179 103.146 18.1532 102.975 18.1591C102.652 18.1708 102.328 18.1532 102.004 18.165C101.769 18.1708 101.663 18.0944 101.663 17.8472C101.675 17.3176 101.669 16.788 101.663 16.2585C101.663 16.0466 101.751 15.9584 101.963 15.9642C102.287 15.9701 102.61 15.9525 102.934 15.9701C103.122 15.9819 103.181 15.9231 103.181 15.7289C103.169 14.805 103.187 13.8871 103.169 12.9633C103.164 12.6808 103.264 12.5867 103.546 12.5867C104.411 12.5984 105.27 12.5984 106.135 12.5867C106.394 12.5808 106.476 12.6808 106.476 12.9338C106.465 13.8636 106.476 14.7933 106.471 15.7289C106.471 15.9348 106.523 15.9937 106.729 15.9937C107.288 15.9819 107.847 15.9937 108.406 15.9996C108.401 16.7233 108.401 17.4471 108.401 18.1767Z" fill="#18171A"/>
<path d="M100.867 18.5061C100.12 16.7291 98.7017 15.8288 96.7658 15.7993C95.7419 15.7817 94.7946 16.07 93.9531 16.8232C93.9531 16.6055 93.9472 16.4702 93.9531 16.3348C93.9649 16.1112 93.8943 16.0171 93.6413 16.0229C92.8763 16.0406 92.1113 16.0288 91.3464 16.0288C90.9933 16.0288 90.9521 16.0641 90.9521 16.4113C90.9521 16.9585 90.9521 17.5117 90.9521 18.0589C90.9521 22.019 90.9521 25.9791 90.9521 29.9393C90.9521 30.3159 90.9757 30.3394 91.317 30.3394C92.2173 30.3394 93.1234 30.3335 94.0237 30.3394C94.2473 30.3394 94.3415 30.257 94.3356 30.0275C94.3297 29.4214 94.3356 28.8095 94.3356 28.2034C94.3356 27.5326 94.3356 26.8618 94.3356 26.1498C94.4709 26.2322 94.571 26.2851 94.671 26.344C96.4186 27.3973 99.3549 27.156 100.626 24.6611C101.638 22.6604 101.732 20.5715 100.867 18.5061ZM97.6896 23.5019C97.3425 24.1021 96.86 24.4669 96.148 24.4375C95.4124 24.4139 94.8946 24.0432 94.5651 23.3959C94.2473 22.7781 94.1885 22.1073 94.1885 21.4247C94.1885 20.7363 94.2591 20.0537 94.5651 19.4241C94.9123 18.7062 95.4418 18.2237 96.2892 18.2295C96.8717 18.2354 97.3072 18.5355 97.6367 19.0004C98.0074 19.5182 98.1427 20.1184 98.1898 20.7421C98.2604 21.7072 98.1839 22.6428 97.6896 23.5019Z" fill="#18171A"/>
<path d="M85.1201 22.9252C85.2496 22.378 85.379 21.8308 85.5026 21.2835C85.8851 19.6242 86.2675 17.9707 86.6382 16.3054C86.6853 16.0877 86.7736 16.0171 87.0031 16.0171C87.9328 16.0347 88.8625 16.023 89.7981 16.023C90.2159 16.023 90.2571 16.07 90.1276 16.4584C89.1273 19.5241 88.127 22.5898 87.1266 25.6496C86.8677 26.4499 86.6088 27.2443 86.3323 28.0387C86.1263 28.6389 85.8086 29.1684 85.3437 29.6156C84.7494 30.1864 84.008 30.3159 83.2254 30.3159C82.5487 30.3159 81.872 30.31 81.1953 30.3218C80.9423 30.3276 80.8481 30.2276 80.854 29.9746C80.8658 29.2861 80.8658 28.6036 80.854 27.9151C80.8481 27.6738 80.9482 27.5856 81.1835 27.5915C81.5954 27.6032 82.0073 27.5973 82.4192 27.5915C83.0783 27.5856 83.3489 27.2384 83.1665 26.5911C82.8782 25.5673 82.5546 24.5493 82.2427 23.5372C81.5072 21.1658 80.7716 18.8004 80.0361 16.429C79.9302 16.0936 79.9831 16.023 80.3303 16.023C81.2894 16.023 82.2486 16.0289 83.2136 16.0171C83.4254 16.0171 83.4902 16.0818 83.5372 16.2819C84.0374 18.4944 84.5493 20.701 85.0613 22.9076C85.0789 22.9193 85.1024 22.9193 85.1201 22.9252Z" fill="#18171A"/>
<path d="M76.1299 16.9409C76.889 16.3702 77.6951 16.0936 78.5542 15.9642C78.6484 15.9524 78.7484 15.9465 78.8484 15.9347C79.0603 15.9053 79.1544 15.9818 79.1544 16.2054C79.1485 17.0292 79.1485 17.853 79.1544 18.6768C79.1544 18.8239 79.1132 18.871 78.9661 18.8945C78.4424 18.971 77.9187 19.0475 77.4068 19.1711C76.483 19.3829 76.2241 19.736 76.2241 20.6657C76.2241 22.5487 76.2241 24.4257 76.2241 26.3087C76.2241 26.703 76.2182 26.7088 75.8357 26.7088C74.9707 26.7088 74.1116 26.703 73.2466 26.7147C72.9759 26.7206 72.8936 26.6206 72.8936 26.3558C72.8994 23.0371 72.8994 19.7124 72.8936 16.3937C72.8936 16.1113 72.9995 16.0171 73.276 16.023C74.0998 16.0348 74.9236 16.0289 75.7474 16.0289C76.1181 16.0289 76.1358 16.0465 76.1358 16.4055C76.1299 16.5644 76.1299 16.7173 76.1299 16.9409Z" fill="#18171A"/>
<path d="M67.1773 15.7402C69.0897 15.7638 70.5961 16.4993 71.6494 18.0881C71.8553 18.394 71.8377 18.4411 71.514 18.6294C70.8962 18.9825 70.2725 19.3296 69.6546 19.6886C69.431 19.818 69.3133 19.7768 69.1956 19.5532C68.6896 18.6118 67.7834 18.1704 66.889 18.4117C66.2947 18.5765 65.9122 18.9825 65.6768 19.5238C65.1237 20.7948 65.1002 22.0776 65.771 23.3133C66.1476 24.0076 66.7595 24.4019 67.5775 24.3489C68.3836 24.296 68.9485 23.8488 69.2663 23.1191C69.4075 22.7955 69.5193 22.7837 69.7899 22.9367C70.4254 23.2839 71.0727 23.6075 71.7141 23.937C71.8965 24.0312 71.9554 24.1371 71.8377 24.3313C70.9609 25.7376 69.7605 26.6673 68.1012 26.9851C65.0296 27.5676 62.1816 25.414 61.9109 22.313C61.7756 20.8184 61.958 19.3944 62.7465 18.0998C63.7586 16.4346 65.3238 15.7814 67.1773 15.7402Z" fill="#18171A"/>
<path d="M54.0924 22.1426C55.228 22.1544 56.3637 22.1485 57.5052 22.1485C58.6409 22.1485 59.7766 22.1426 60.9181 22.1544C61.1829 22.1544 61.2888 22.072 61.2771 21.8013C61.2418 21.1364 61.1947 20.4715 61.0358 19.8242C60.6769 18.3296 59.9708 17.0704 58.5585 16.3231C57.464 15.7405 56.2872 15.6346 55.075 15.7641C53.3039 15.9582 51.9564 16.8056 51.1326 18.4002C50.3617 19.8889 50.2558 21.4777 50.5853 23.09C50.8972 24.6022 51.7033 25.8026 53.1215 26.497C55.3692 27.5973 59.0705 27.4502 61.0593 24.1374C61.1711 23.955 61.1064 23.8491 60.9417 23.7667C60.2297 23.396 59.5177 23.0311 58.8115 22.6545C58.6586 22.5722 58.6174 22.631 58.5585 22.7546C58.4114 23.0547 58.2467 23.343 58.0231 23.596C57.3052 24.4198 56.3872 24.6611 55.3634 24.3845C54.3983 24.1256 53.9806 23.3724 53.8217 22.4368C53.7805 22.172 53.8746 22.1426 54.0924 22.1426ZM53.9217 19.7477C54.2277 18.4649 55.5752 17.8059 56.7756 18.3531C57.3876 18.6297 57.6759 19.1358 57.7936 19.7654C57.8289 19.9478 57.7465 19.9772 57.5876 19.9713C57.011 19.9654 56.4284 19.9713 55.8518 19.9713C55.2751 19.9713 54.6926 19.9654 54.1159 19.9772C53.9453 19.9713 53.8746 19.9478 53.9217 19.7477Z" fill="#18171A"/>
<path d="M49.257 16.723C48.6862 14.8283 47.4328 13.5455 45.5558 12.8865C44.5025 12.5157 43.4021 12.3745 42.2959 12.3628C40.5894 12.3451 38.883 12.3569 37.1765 12.3569C36.7764 12.3569 36.7646 12.3686 36.7646 12.7688C36.7646 15.0224 36.7646 17.2761 36.7646 19.5298C36.7646 21.7952 36.7646 24.0548 36.7646 26.3203C36.7646 26.6851 36.7823 26.7027 37.1471 26.7027C38.9418 26.7027 40.7365 26.7027 42.5312 26.7027C43.2197 26.7027 43.9023 26.6674 44.5731 26.5144C46.6973 26.0319 48.2861 24.8845 49.0687 22.7956C49.8101 20.8067 49.8689 18.759 49.257 16.723ZM45.6852 21.1127C45.3439 22.5367 44.4613 23.3193 43.0079 23.5311C42.2664 23.637 41.525 23.6017 40.7777 23.6194C40.5541 23.6253 40.5835 23.484 40.5835 23.3487C40.5835 22.1071 40.5835 20.8596 40.5835 19.6181C40.5835 18.3529 40.5894 17.0937 40.5777 15.8286C40.5777 15.6403 40.6188 15.5756 40.8189 15.5815C41.5721 15.6109 42.3253 15.5344 43.0785 15.6285C44.4613 15.8109 45.4381 16.6877 45.7146 18.047C45.9382 19.0708 45.9265 20.0947 45.6852 21.1127Z" fill="#18171A"/>
<path d="M26.5122 24.8316C28.6718 22.019 30.2252 18.9474 30.5253 15.3521C30.6842 13.4632 30.3959 11.645 29.472 9.95619C28.966 9.03236 28.2305 8.3086 27.489 7.57306C25.4531 5.56064 23.423 3.54233 21.4341 1.48284C20.8633 0.89441 20.222 0.553122 19.4629 0.358941C19.151 0.282445 18.8274 0.235371 18.5155 0.152991C18.1801 0.0764956 17.8212 0.12357 17.4975 0H17.4387C17.2975 0.12357 17.1327 0.0411899 16.9797 0.0470742H16.4913C16.3383 0.0411899 16.1736 0.12357 16.0323 0H15.9147C15.5675 0.064727 15.2144 0.0353057 14.8673 0.0823799C13.1726 0.323635 11.5721 0.859104 10.0363 1.59464C7.60018 2.75973 5.46418 4.34848 3.56945 6.26675C3.28112 6.56097 3.28112 6.61393 3.57533 6.90814C4.3344 7.6731 5.09936 8.43217 5.85843 9.19712C6.0938 9.43249 6.09969 9.47957 5.8702 9.72671C5.66425 9.95031 5.4583 10.168 5.25823 10.3975C3.76363 12.1157 2.51616 13.9928 1.61587 16.0935C0.809721 17.9353 0.244831 19.8418 0.286021 21.8777C0.286021 22.1367 0.28572 22.2235 0.28572 22.4023C0.24453 23.5086 0.439012 24.5904 0.809721 25.6319C0.939175 25.9908 1.1157 26.2968 1.39226 26.5675C3.7754 28.9389 6.15265 31.3161 8.52989 33.6992C9.25954 34.4289 10.1128 34.9761 11.0601 35.3763C11.8957 35.7234 12.7666 35.9412 13.6727 36H14.0258C14.1435 35.9529 14.2612 35.9529 14.3789 36H15.1438C15.2439 35.9529 15.338 35.9529 15.438 36H15.7322C15.744 35.9529 15.7734 35.9412 15.8146 35.9412C16.9856 35.8647 18.1154 35.594 19.2157 35.2115C22.4521 34.0935 25.1765 32.1752 27.5714 29.7627C27.695 29.6391 27.642 29.5803 27.5479 29.4861C26.6947 28.6329 25.8473 27.7738 24.9882 26.9264C24.8529 26.7911 24.8529 26.7205 24.9882 26.5852C25.5355 26.032 26.0356 25.4436 26.5122 24.8316ZM4.71688 6.55508C6.02319 5.29585 7.4413 4.20137 8.99475 3.30108C10.7541 2.27721 12.6136 1.50637 14.6319 1.15332C16.4384 0.835567 18.2154 0.870873 19.9513 1.52403C20.1102 1.58287 20.2455 1.66525 20.3632 1.78882C20.7868 2.22426 21.2223 2.64792 21.7166 3.1422C21.0752 3.0304 20.5103 2.96568 19.9454 2.95391C17.5505 2.91272 15.3027 3.53057 13.149 4.53678C10.9366 5.56652 8.98887 6.97875 7.20005 8.63223C7.0294 8.79111 6.94702 8.80876 6.77638 8.63223C6.10557 7.92612 5.41123 7.24943 4.71688 6.55508ZM4.92871 18.3648C3.79893 20.7068 3.12224 23.1546 3.26346 25.779C3.287 26.1968 3.34584 26.6146 3.38703 27.0265C3.35173 27.0441 3.32231 27.0677 3.287 27.0853C2.85745 26.6322 2.41024 26.1909 1.99834 25.7202C1.72178 25.4024 1.65706 24.9788 1.55114 24.5845C1.02744 22.5956 1.20397 20.6244 1.75709 18.6708C2.61031 15.6581 4.2226 13.069 6.28798 10.7447C6.4292 10.5858 6.5822 10.4328 6.72342 10.2681C6.81168 10.1621 6.86464 10.1798 6.95291 10.2681C7.6296 10.9506 8.30629 11.6332 8.99475 12.304C9.13009 12.4335 9.04182 12.4923 8.95944 12.5806C7.35892 14.3282 5.95846 16.2229 4.92871 18.3648ZM26.218 29.5038C26.3946 29.6744 26.2416 29.7332 26.1533 29.8156C24.847 31.0396 23.4289 32.1105 21.8696 32.9873C20.1925 33.9229 18.4272 34.6172 16.5207 34.9114C14.4377 35.235 12.4135 35.0879 10.5541 33.9817C8.677 32.8696 7.62371 31.1749 7.25889 29.0448C6.84699 26.5969 7.37069 24.2785 8.33571 22.0366C9.3125 19.7653 10.713 17.7764 12.4017 15.9758C12.5194 15.8464 12.59 15.8699 12.7018 15.9817C13.3197 16.6113 13.9434 17.235 14.573 17.8529C14.6966 17.9765 14.7025 18.0353 14.573 18.1706C12.9843 19.8771 11.6897 21.7718 10.8836 23.9725C10.4541 25.1494 10.1363 26.3557 10.1951 27.6326C10.2481 28.7565 10.507 29.8039 11.2837 30.6571C12.137 31.5927 13.255 31.934 14.4789 31.9693C16.3972 32.0281 18.1566 31.4338 19.8454 30.5806C21.3812 29.8039 22.7581 28.7859 24.0173 27.609C24.0644 27.562 24.1232 27.5208 24.1821 27.4619C24.8588 28.1445 25.5355 28.833 26.218 29.5038ZM22.7345 11.6156C22.711 13.8398 21.8519 15.7757 20.6986 17.6116C20.1102 18.5414 19.4217 19.3946 18.6803 20.2066C18.5567 20.3419 18.4802 20.3537 18.3449 20.2125C17.6976 19.5476 17.0386 18.8885 16.3678 18.2354C16.2206 18.0941 16.2501 18.0235 16.3736 17.8941C17.4093 16.8055 18.3508 15.6463 19.1275 14.3576C19.7277 13.3573 20.222 12.3099 20.5221 11.1742C20.5574 11.033 20.628 10.9624 20.7751 10.9389C21.3694 10.8447 21.9637 10.8506 22.5639 10.88C22.6816 10.8859 22.7404 10.9212 22.7404 11.0507C22.7287 11.2449 22.7345 11.4331 22.7345 11.6156ZM17.9447 22.0366C18.3684 21.6541 18.3625 21.6483 18.7627 22.0484C19.3511 22.6368 19.9336 23.2311 20.5279 23.8137C20.6221 23.9078 20.6692 23.9608 20.5397 24.0785C18.8862 25.5907 17.068 26.8323 14.9438 27.6031C13.9434 27.968 12.9137 28.1621 11.9428 28.168C11.1484 28.168 11.1484 28.168 11.1425 27.4619C11.1366 27.0324 11.166 26.6028 11.2367 26.1791C11.2602 26.0556 11.3014 26.0026 11.425 25.9673C13.967 25.2612 16.0382 23.7842 17.9447 22.0366ZM11.5603 24.9258C11.9369 23.6783 12.5018 22.5427 13.1961 21.46C13.7963 20.5185 14.4965 19.6476 15.2497 18.8179C15.3733 18.6826 15.438 18.6885 15.5675 18.8179C16.2265 19.4887 16.8973 20.1536 17.5623 20.8186C17.6329 20.8892 17.727 20.9421 17.5976 21.0657C15.8558 22.7133 13.967 24.1314 11.6662 24.9199C11.6427 24.9258 11.6133 24.9199 11.5603 24.9258ZM17.7447 14.746C17.1209 15.6522 16.4089 16.4819 15.6558 17.288C15.5616 17.388 15.5028 17.4292 15.3851 17.3057C14.7143 16.6231 14.0317 15.9464 13.3491 15.2638C13.2667 15.1814 13.2079 15.1285 13.3315 15.0108C15.1085 13.3573 17.0856 12.0392 19.4158 11.2919C19.4335 11.286 19.4511 11.2919 19.51 11.2919C19.0981 12.557 18.4802 13.6809 17.7447 14.746ZM24.3351 25.9144C24.2115 26.0438 24.1585 26.0262 24.0409 25.9144C23.4348 25.3024 22.8287 24.6845 22.2108 24.0843C22.0461 23.9255 22.052 23.8372 22.205 23.6724C23.6172 22.172 24.7764 20.4949 25.5884 18.5943C26.1651 17.2409 26.5534 15.8405 26.5417 14.3576C26.5358 13.2279 26.271 12.1569 25.506 11.2802C24.7352 10.4034 23.7172 10.0209 22.5698 9.93266C20.1925 9.75025 18.1036 10.6152 16.0971 11.745C14.879 12.4335 13.7846 13.2867 12.7666 14.2399C12.6018 14.3988 12.5135 14.3871 12.3547 14.2282C11.7604 13.6162 11.1543 13.016 10.5482 12.4158C10.4364 12.304 10.3834 12.2452 10.5305 12.104C12.9961 9.80909 15.7676 8.04969 19.0628 7.20235C20.0042 6.9611 20.9634 6.83753 21.9578 6.81988C23.829 6.83753 25.5825 7.28473 27.0654 8.52632C28.4423 9.67963 29.2072 11.1742 29.4897 12.9278C29.8545 15.2344 29.3897 17.4233 28.5188 19.5476C27.5479 21.9483 26.1003 24.0373 24.3351 25.9144Z" fill="#18171A"/>
</g>
</svg>
