<svg width="81" height="30" viewBox="0 0 81 30" fill="none" xmlns="http://www.w3.org/2000/svg">
<g opacity="0.5">
<path fill-rule="evenodd" clip-rule="evenodd" d="M15.7992 0C13.4886 0 10.8876 1.45731 10.2899 3.97618C10.1908 4.39374 10.6896 4.65235 11.0573 4.42273C12.0064 3.8297 13.5998 3.02949 15.2868 3.02949C17.4226 3.02949 19.386 4.54423 19.386 4.54423C15.9193 4.13793 10.6753 5.99389 10.6753 10.6032C10.6753 12.5115 11.1566 13.5593 11.5806 14.4823C11.599 14.5223 11.6172 14.562 11.6353 14.6015C11.8217 15.0088 12.3822 14.924 12.5132 14.4964C13.2389 12.1256 15.4482 6.86746 20.9233 6.05898C26.311 6.52386 28.2934 12.4919 28.8958 15.0286C28.9974 15.4572 29.5442 15.5786 29.7659 15.1965C30.3668 14.1608 30.6588 12.118 30.6588 10.6032C30.6588 6.20295 27.3022 4.54423 21.948 4.54423C21.948 4.54423 24.3319 3.02949 27.0721 3.02949C28.6847 3.02949 30.2014 3.76767 31.2544 4.44571C31.6889 4.7255 32.2873 4.31986 32.0779 3.85187C31.2759 2.0597 28.9053 0 26.3034 0C22.7167 0 20.9233 2.52457 20.9233 2.52457C20.9233 2.52457 18.8736 0 15.7992 0ZM22.8592 29.7899H18.9424V9.34091H22.8592V29.7899ZM2.72434 14.798C4.08322 14.798 5.12237 13.7741 5.12237 12.4875C5.12237 11.2273 4.08322 10.2033 2.72434 10.2033C1.39211 10.2033 0.40625 11.2273 0.40625 12.4875C0.40625 13.7741 1.39211 14.798 2.72434 14.798ZM0.779276 29.7899H4.69605V16.5571H0.779276V29.7899ZM11.9899 30C15.134 30 17.2656 28.0571 17.2656 25.7728C17.2656 22.4792 14.5352 21.8662 12.4324 21.3941C11.1156 21.0984 10.0448 20.858 10.0448 20.0491C10.0448 19.4715 10.6576 19.1039 11.5368 19.1039C12.4429 19.1039 13.5352 19.6553 13.8816 20.8631L17.0257 19.5765C16.4128 17.6599 14.1481 16.3471 11.4037 16.3471C8.44609 16.3471 6.6076 18.08 6.6076 20.1542C6.6076 23.2061 9.2426 23.8853 11.3054 24.4169C12.6319 24.7589 13.7218 25.0398 13.7218 25.8516C13.7218 26.5868 13.0289 27.0856 11.9899 27.0856C10.4978 27.0856 9.45859 26.0617 9.13886 24.8276L5.99478 26.0354C6.68754 28.0308 8.71254 30 11.9899 30ZM30.6059 16.3471C27.7283 16.3471 25.2771 18.0275 24.8507 20.6268L28.2612 21.2569C28.3944 19.9704 29.327 19.209 30.6059 19.209C32.0448 19.209 32.9507 19.9966 32.9507 21.3094V21.3882L30.5261 21.6245C26.6625 22.0183 24.7174 23.4361 24.7174 26.0617C24.7174 28.2671 26.556 30 29.1672 30C30.6593 30 32.178 29.2648 32.9507 28.1096V29.7899H36.7342V21.9395C36.7342 18.2112 34.2563 16.3471 30.6059 16.3471ZM30.1264 27.2432C29.034 27.2432 28.4478 26.6655 28.4478 25.9304C28.4478 25.169 29.1138 24.5126 30.4461 24.3813L32.9507 24.0925V24.3025C32.924 25.8516 31.885 27.2432 30.1264 27.2432ZM43.1561 29.7899H39.2393V16.5571H43.1561V18.3163C43.9555 17.161 45.4208 16.3471 47.2593 16.3471C50.2169 16.3471 52.1886 18.2375 52.1886 21.1519V29.7899H48.2985V22.1758C48.2985 20.7318 47.3926 19.7603 45.9804 19.7603C44.1152 19.7603 43.1561 21.2569 43.1561 23.9875V29.7899ZM60.3316 30C61.8503 30 63.2092 29.4224 63.902 28.4772V29.7899H67.8186V11.201H63.902V17.8174C63.1558 16.9247 61.9036 16.3471 60.2783 16.3471C56.3881 16.3471 54.0168 19.0252 54.0168 23.1735C54.0168 27.3219 56.3881 30 60.3316 30ZM60.971 26.718C59.1059 26.718 57.827 25.3002 57.827 23.1735C57.827 21.0468 59.1059 19.629 60.971 19.629C62.8895 19.629 64.1418 21.0468 64.1418 23.1735C64.1418 25.3002 62.8895 26.718 60.971 26.718ZM80.4062 25.7728C80.4062 28.0571 78.2746 30 75.1305 30C71.8532 30 69.8283 28.0308 69.1356 26.0354L72.2796 24.8276C72.5993 26.0617 73.6384 27.0856 75.1305 27.0856C76.1697 27.0856 76.8624 26.5868 76.8624 25.8516C76.8624 25.0398 75.7727 24.7589 74.4461 24.4169C72.3834 23.8853 69.7484 23.2061 69.7484 20.1542C69.7484 18.08 71.5868 16.3471 74.5444 16.3471C77.2888 16.3471 79.5536 17.6599 80.1665 19.5765L77.0223 20.8631C76.6759 19.6553 75.5835 19.1039 74.6777 19.1039C73.7983 19.1039 73.1855 19.4715 73.1855 20.0491C73.1855 20.858 74.2562 21.0984 75.5731 21.3941C77.6758 21.8662 80.4062 22.4792 80.4062 25.7728Z" fill="black"/>
</g>
</svg>
