<svg width="81" height="63" viewBox="0 0 81 63" fill="none" xmlns="http://www.w3.org/2000/svg">
<g opacity="0.5">
<g clip-path="url(#clip0_9861_82162)">
<path d="M24.2483 18.5125C24.3761 18.09 24.6638 17.05 24.8237 16.4325C24.9515 15.9775 25.2073 15.23 25.3351 14.775C25.5589 13.995 25.6548 13.8325 25.7507 13.1825C25.8147 12.63 25.8786 12.0125 25.495 11.5575C25.2073 11.2 24.6958 11.135 24.3122 11.2325C23.7688 11.33 23.577 12.37 23.3532 13.085C22.8417 14.8075 19.5171 24.98 19.0376 26.7675C18.7819 27.7425 17.5671 31.74 17.4392 32.325C17.3433 32.5525 17.1835 33.105 17.0556 33.1375C16.704 30.9925 16.6081 30.245 16.4163 28.23C16.2884 26.605 16.0007 24.33 15.9048 22.8025C15.7769 21.3725 15.8729 19.325 15.3933 17.895C15.1376 17.0825 14.4663 16.1725 13.6671 16.01C12.0368 15.7175 11.4933 19.0975 11.2376 20.1375C10.2466 23.9725 9.25564 28.1 8.36055 31.74C7.59334 34.86 7.20973 37.46 6.21875 40.515C6.12285 40.7425 5.96301 40.9375 5.93105 41.165C5.83514 41.6525 6.44252 41.9775 6.76219 42.1075C7.27367 42.335 7.68924 42.2375 8.16875 42.01C8.84006 41.7175 9.2876 40.255 9.51137 39.605C10.3106 37.0375 10.6302 35.2175 11.1417 32.845C11.7171 30.05 12.2606 27.2225 12.7401 24.395C12.836 23.94 13.0597 22.835 13.1876 22.51C13.8269 27.0275 14.3384 31.5775 14.8499 36.095C14.9458 37.005 14.9778 37.9475 15.1696 38.825C15.2655 39.1825 15.3933 39.5075 15.681 39.735C15.9688 39.995 16.3524 40.0925 16.704 40.0275C17.695 39.93 18.4622 38.89 18.8138 37.98C19.1015 37.1675 19.2933 36.42 19.5171 35.575C20.636 31.48 21.4351 28.36 22.554 24.265C23.0655 22.445 23.7048 20.495 24.2483 18.5125Z" fill="black"/>
<path d="M26.3546 29.7265C26.5464 28.7515 26.5464 27.809 26.2267 26.9965C25.8751 26.119 23.1899 24.6565 23.2538 26.4765C23.3177 27.874 22.5825 30.0515 22.1989 31.384C21.6235 33.269 21.2079 34.3415 20.5685 36.2265C20.2169 37.3315 20.5685 39.0865 21.8792 39.4115C22.7104 39.639 23.5095 38.5665 23.7972 37.884C24.3726 36.584 24.5964 35.739 25.0759 34.3415C25.4915 33.139 26.0989 31.2865 26.3546 29.7265Z" fill="black"/>
<path d="M25.7857 24.2652C25.8177 24.2977 25.8496 24.3302 25.8816 24.3627C26.6808 25.1102 27.448 24.2002 27.8636 23.4202C28.5349 22.1527 28.9185 21.2752 27.6078 20.3002C26.7127 19.6177 25.9455 20.7877 25.6259 21.5352C25.2742 22.4127 25.0505 23.4852 25.7857 24.2652Z" fill="black"/>
<path d="M46.6619 48.4126C46.566 48.4451 46.534 48.5101 46.534 48.5426C46.5021 48.7701 46.7578 48.4126 46.6619 48.4126Z" fill="black"/>
<path d="M45.8555 49.583C46.0473 49.453 46.1432 49.2905 46.2071 48.998C46.0153 49.1605 45.8874 49.3555 45.8555 49.583Z" fill="black"/>
<path d="M62.5767 32.9406C62.5767 32.9081 62.5767 32.9081 62.5767 32.9081C61.1382 33.3631 59.8276 34.2406 58.4849 35.2156C58.0374 35.5406 56.8226 36.4181 56.7267 36.2556C56.6308 36.1256 56.8546 35.4431 56.8546 35.2806C57.0784 33.9806 57.2062 32.6806 57.3341 31.3806C57.462 29.9831 57.5259 28.5531 57.43 27.1556C57.398 26.5706 57.3341 25.9206 57.2062 25.3681C57.0784 24.9131 56.3751 24.2306 55.9276 24.0681C55.4161 23.8731 55.0964 24.1981 54.9366 24.6531C54.7448 25.3356 54.5849 25.8231 54.4571 26.5381C54.3292 27.1881 54.2653 27.9356 54.1374 28.8131C54.0415 29.4631 54.0095 30.0156 53.8497 30.6656C53.7218 31.3156 53.6899 31.2831 53.2743 31.7381C52.7948 32.3231 51.8677 33.3306 51.3882 33.9156C50.9407 34.5006 50.4612 35.0856 50.0136 35.6056C49.598 36.0606 48.8628 37.0031 48.2874 37.1981C48.1276 36.6781 48.2874 36.1906 48.4153 35.6706C48.8628 34.1431 49.4702 32.6806 50.0456 31.2181C50.4612 30.1781 50.9407 29.1381 51.3243 28.0656C51.6759 27.2206 52.2513 26.0831 52.0595 25.1081C51.9317 24.4256 51.0046 23.4831 50.3013 24.0356C49.5661 24.5556 49.2464 25.7906 48.7989 26.6031C48.3194 27.5131 47.8718 28.4556 47.4562 29.3981L47.4243 29.4306C46.5931 30.4056 46.3054 30.6656 45.2825 31.9006C44.8989 32.3556 43.1726 34.3056 42.821 34.7606C42.4054 35.2156 42.0218 35.6706 41.5743 36.0606C41.3505 36.2556 40.6153 36.9381 40.2956 36.7431C39.912 36.5156 40.0079 35.3131 40.0399 35.0206C40.0718 34.4356 40.1677 33.8506 40.2956 33.2981C40.5194 32.1606 40.871 30.6006 41.1907 29.4956C41.4784 28.4231 42.7251 24.4581 43.1726 23.3206C43.3644 22.7356 43.5243 22.1181 43.844 21.5981C44.0997 21.1106 44.8989 20.9156 45.3784 20.7856C46.5612 20.4281 47.2325 20.2981 48.4792 20.0381C49.2144 19.8756 50.5571 19.6481 51.1644 19.5506C51.8038 19.4531 52.2833 19.3556 52.6349 19.1931C52.6349 18.8681 52.539 18.6081 52.5071 18.4781C52.3792 18.3481 51.7399 18.3156 51.548 18.3156C50.7489 18.2831 50.2694 18.4131 49.5661 18.4456C48.1276 18.5756 46.689 18.7056 45.2825 18.9331C45.1546 18.9656 44.8349 19.0631 44.7071 19.0631C44.6112 19.0306 44.8349 18.4781 44.8669 18.4131C44.9948 17.8931 45.1546 17.2756 45.1226 16.7231C45.0267 15.9106 44.4194 14.3831 43.3964 14.8056C43.2046 14.9031 43.0448 15.0656 42.9489 15.2281C42.821 15.4231 42.6612 15.8131 42.5972 16.0081C42.5013 16.2356 42.2136 16.9831 42.0858 17.2756C41.862 17.8606 41.7661 18.0556 41.4784 18.8031C41.4144 18.9656 41.3185 19.3881 41.1267 19.4856C40.9989 19.6156 40.4874 19.6481 40.1997 19.7131C39.0169 19.9081 38.3456 20.0381 37.1308 20.2006C37.003 20.2331 35.98 20.3631 35.8841 20.3956C36.1079 19.7131 36.3956 18.6081 36.3317 18.2506C36.2677 17.9256 36.2358 17.7306 36.0439 17.4056C35.6923 16.6581 34.9251 16.3331 34.6054 16.5606C34.1579 16.8531 33.8062 17.5356 33.4866 18.0881C33.2308 18.5431 32.8792 19.1606 32.6235 19.6481C32.048 20.7206 31.6325 21.8256 31.1849 22.9306C29.3628 27.4806 27.7005 31.7706 26.5497 36.5156C25.8784 39.2131 25.2071 41.9431 24.8554 44.7381C24.5677 47.3056 24.3759 50.4581 25.4308 52.8306C26.4858 55.0731 28.7235 55.5281 30.4817 53.6756C31.2169 52.8631 31.6964 51.8556 32.08 50.8156C33.7423 46.2981 34.1579 40.9356 32.6554 36.2881C32.5595 35.9306 32.4317 35.5406 32.3038 35.2481C32.2079 35.1181 31.9521 34.3381 31.9521 34.3381C31.9521 34.3381 33.1349 34.0781 33.3907 33.9806C34.5735 33.6231 35.7243 33.2656 36.8751 32.8431C36.8431 33.0706 36.7792 33.2981 36.7472 33.5581C36.5554 34.8256 36.4595 36.3856 37.0989 37.5556C37.5784 38.3681 38.8251 39.0181 39.7202 39.1806C40.7112 39.4081 41.4784 38.7581 42.2456 38.1406C42.4694 37.9456 43.748 36.3856 43.9079 36.1581C44.2595 35.7356 45.4103 34.0131 46.0497 33.2656C45.762 34.1756 45.5062 35.1181 45.4743 36.0281C45.4423 36.9381 45.73 38.0431 46.4653 38.5306C47.2005 39.0181 48.1595 39.1806 48.9907 38.8231C50.8767 38.0756 52.4431 35.7681 52.7628 35.3781C53.2423 34.6956 53.1464 34.7606 53.2743 34.7606C53.2743 34.7931 52.6989 38.1081 52.5071 38.6606C52.3792 39.1481 52.2513 39.7006 51.9956 40.1231C51.7079 40.4806 51.2603 40.7731 50.9407 41.0981C50.5251 41.4556 50.1415 41.8456 49.7579 42.2356C46.6251 45.2906 44.1956 48.8981 42.0538 52.7006C41.1267 54.3581 40.4235 56.0806 40.1997 57.9656C40.1038 58.8756 40.0718 59.8506 40.3276 60.7606C41.1267 63.4581 44.0997 63.1981 45.9858 61.9631C47.6161 60.8906 48.7669 59.2656 49.7899 57.6406C50.9087 55.8856 51.7399 53.9681 52.539 52.0181C53.2103 50.3281 53.7858 48.4106 54.2972 46.6231C55.0325 44.0556 55.544 42.1706 55.9915 39.8306C56.0874 39.4731 56.1833 38.8881 56.1833 38.8881C56.1833 38.8881 56.6948 38.4981 57.0144 38.3031C57.8456 37.7181 58.7087 37.1006 59.5399 36.5156C60.3071 35.9306 62.1612 34.5981 62.6407 34.3381C62.8325 33.9806 62.9284 33.2981 62.5767 32.9406ZM31.6005 44.2831C31.5685 44.7381 31.5046 45.1931 31.4407 45.6156C31.2489 46.9806 30.8972 48.5731 30.4817 49.9056C30.1939 50.9131 29.6505 52.4731 28.8194 52.7656C27.7644 51.9531 27.6046 48.0206 28.0202 45.6481C28.3718 43.6006 28.7554 41.5531 29.2989 39.5381C29.4907 38.8231 30.4177 35.6706 30.6415 34.8906C31.0571 35.7356 31.121 36.5156 31.2808 37.2631C31.7284 39.6031 31.8243 41.9431 31.6005 44.2831ZM39.4325 23.5481C39.2087 24.2306 38.0259 27.8381 37.6743 29.2031C37.5144 29.7231 37.3866 30.2756 37.2267 30.8281C36.7153 31.0556 36.5554 31.1531 35.5644 31.4781C34.7333 31.7381 34.03 31.9656 33.3587 32.1606C32.8472 32.2906 31.8882 32.5181 31.4087 32.5831C32.2079 29.9831 33.103 27.8056 33.998 25.2706C34.5415 23.7756 34.6374 23.7106 35.2767 22.0206C35.3087 22.0531 35.3087 22.0531 35.3407 22.0856C35.7882 22.4431 36.2677 22.3456 36.8112 22.2156C37.3866 22.0856 38.0259 21.9231 38.6333 21.7931C39.2087 21.6631 40.2317 21.5331 40.2317 21.5331C40.2317 21.5331 40.0079 22.2156 39.88 22.5081C39.6562 22.8981 39.5284 23.2231 39.4325 23.5481ZM50.5251 41.9431C50.3972 42.3981 49.9497 42.5931 49.694 42.8856C49.9177 42.5281 50.1415 42.1706 50.5251 41.9431ZM49.3423 43.6981C49.1505 44.1856 48.703 44.4456 48.4472 44.8681C48.639 44.4131 48.9587 43.9581 49.3423 43.6981ZM48.0956 45.1281C48.0956 45.3881 48.1276 45.3881 47.8718 45.4856C47.8399 45.2906 47.9358 45.2256 48.0956 45.1281ZM51.2603 42.6581C50.5571 45.0631 50.1095 47.5656 49.3103 49.8731C48.5112 52.1156 47.6161 54.4556 46.4972 56.5681C45.9858 57.5431 45.3784 58.4531 44.6751 59.2981C44.1956 59.8831 43.2685 60.9881 42.4054 60.8256C41.7341 60.6956 41.7341 59.8506 41.7021 59.2981C41.5743 57.3806 42.821 55.0406 43.6521 53.3506C43.9079 52.8306 44.2915 52.3431 44.5792 51.8231C44.7071 51.4656 45.5062 50.6206 45.4103 50.2631C45.1226 50.5556 44.8349 50.9131 44.5792 51.2056C44.6112 50.7506 44.9948 50.2956 45.2185 49.9056C45.4743 49.4181 45.9218 49.0606 46.2095 48.5406C46.4013 48.1831 46.4013 47.9556 46.5612 47.6956C46.6571 47.5656 46.9767 47.1106 47.0726 47.0456C47.2005 47.0131 47.0726 47.2406 47.1685 47.2731C47.4243 47.1431 47.4562 46.6881 47.5841 46.4606C47.712 46.2006 47.8718 45.8756 48.0636 45.7131C48.2554 45.5181 48.4792 45.4856 48.639 45.2906C48.8308 45.0956 48.9267 44.8681 49.1185 44.7056C49.3103 44.5431 49.5341 44.4131 49.694 44.2506C49.8858 44.0231 49.9497 43.7956 50.1095 43.5356C50.3972 43.0481 50.9407 42.7881 51.2603 42.3331C51.2923 42.4306 51.2923 42.5606 51.2603 42.6581Z" fill="black"/>
<path d="M48.0683 46.4623C47.9405 46.3648 47.7167 46.9823 47.6528 47.0473C47.461 47.2748 47.2052 47.2423 47.397 47.6323C47.4929 47.4698 48.3241 46.6248 48.0683 46.4623Z" fill="black"/>
<path d="M74.721 31.0907C74.753 30.9607 74.6891 30.9607 74.6891 30.8957C74.5612 30.4732 74.2735 30.2457 73.8899 30.3107C71.876 30.6357 69.862 31.1232 68.0079 31.9682C67.6883 32.0982 67.7202 32.0982 67.3686 31.8707C67.0809 31.7082 66.7932 31.5132 66.4415 31.2857C65.994 31.0582 65.5784 30.8632 65.1628 30.6032C64.8112 30.3757 65.1309 30.1157 65.3546 29.9207C66.2178 29.0757 67.1768 28.3282 68.1997 27.6457C68.6792 27.3532 69.1587 27.0282 69.6702 26.8007C70.1178 26.5732 70.6292 26.3132 71.1407 26.3132C71.6202 26.3132 72.2596 25.9882 72.5153 25.5657C72.6432 25.3057 72.6751 25.0457 72.6432 24.7532C72.5473 24.2657 72.3555 23.7782 72.0358 23.3882C71.812 23.1282 71.5243 22.8032 71.2046 22.7057C70.7891 22.5432 70.3415 22.7382 69.9579 22.8357C69.5104 22.9657 69.0628 23.1607 68.6153 23.3557C67.2087 24.0057 65.8022 24.7207 64.5555 25.6957C63.2768 26.6707 61.8702 28.1982 62.1899 29.9857C62.2219 30.2132 62.3178 30.4407 62.4456 30.6357C63.021 31.4807 65.6743 33.1057 65.6743 33.1057C65.6743 33.1057 65.0989 33.5282 64.8432 33.6907C63.8202 34.4382 62.6374 35.2182 62.1579 36.4207C61.7423 37.4607 61.6464 38.9232 62.2858 39.8657C62.9251 40.7757 64.044 40.9382 65.0669 40.8082C66.1858 40.6457 67.3046 40.0607 68.1678 39.2807C69.1268 38.4682 69.6382 37.3957 69.7022 36.1282C69.7022 35.3157 69.5743 34.6007 69.0628 33.9182C68.9669 33.8207 68.935 33.7882 68.8391 33.6582C68.871 33.6257 69.7022 33.0407 70.1178 32.8132C71.1727 32.2282 72.3874 31.8057 73.6022 31.6107C73.8579 31.5782 74.0817 31.5782 74.2735 31.5132C74.3694 31.4807 74.4973 31.3832 74.3694 31.2532C74.3374 31.2207 74.2415 31.1557 74.2735 31.1232C74.3694 31.0582 74.5932 31.1557 74.721 31.0907ZM66.5694 38.1432C65.8981 38.5982 64.4276 39.3782 63.6284 38.8907C63.4366 38.7607 63.3407 38.5982 63.3727 38.3707C63.4366 37.8832 63.6604 37.4932 63.9481 37.1032C65.1309 35.5757 67.3366 34.4057 67.4645 34.5357C67.5604 34.6007 68.1358 35.0557 68.1358 35.5432C68.1358 35.5757 68.1358 35.5757 68.1358 35.5757C68.1358 36.6482 67.3686 37.6232 66.5694 38.1432Z" fill="black"/>
<path d="M60.1472 22.4123L60.4029 22.3798C60.4988 22.4773 60.7865 22.8348 60.4988 23.4848C60.2751 24.0373 60.0193 24.3298 59.6677 24.9798C60.4029 25.1748 61.2341 24.5248 61.7456 24.0698C62.7365 23.1598 63.4078 21.5673 62.8005 20.2348C62.5447 19.6823 62.0972 19.2598 61.4898 19.1623C60.8185 19.0648 59.9234 19.5848 59.4759 20.1048C58.8685 20.8198 59.0603 22.3798 60.1472 22.4123Z" fill="black"/>
</g>
</g>
<defs>
<clipPath id="clip0_9861_82162">
<rect width="69.0492" height="52" fill="white" transform="translate(5.80078 10.9727)"/>
</clipPath>
</defs>
</svg>
