<svg width="138" height="30" viewBox="0 0 138 30" fill="none" xmlns="http://www.w3.org/2000/svg">
<g opacity="0.5" clip-path="url(#clip0_9861_82199)">
<path d="M47.543 21.8228L55.0248 9.39847H48.3765V6.64704H60.0498V7.06168L52.7212 19.486H59.7862V22.2599H47.543V21.8228ZM64.1555 6.64704H74.3801V9.39847H67.688V13.0445H73.0419V15.6213H67.688V19.5085H74.7305V22.2599H64.1555V6.64704ZM79.044 6.64704H84.6615C85.583 6.64704 86.4165 6.74132 87.1623 6.93097C87.909 7.11954 88.5444 7.41097 89.0715 7.80418C89.5976 8.1974 90.0005 8.6924 90.278 9.28918C90.5705 9.88597 90.7173 10.5856 90.7173 11.3849V11.4728C90.7173 12.0695 90.6369 12.5935 90.4762 13.0445C90.3155 13.4956 90.0883 13.8888 89.7958 14.2231C89.5 14.5611 89.1516 14.8491 88.764 15.076C88.3648 15.3109 87.9375 15.4945 87.4923 15.6224L91.6387 22.2599H87.8651L84.113 16.2331H82.5765V22.2599H79.044V6.64704ZM84.5726 13.831C85.4662 13.831 86.1315 13.6413 86.5698 13.2631C87.024 12.8849 87.2501 12.3245 87.2501 11.581V11.4953C87.2501 10.6938 87.0165 10.141 86.5483 9.83454C86.0951 9.51418 85.4362 9.35454 84.5737 9.35454H82.5765V13.831H84.5737H84.5726ZM95.693 6.64704H99.2694V22.2599H95.693V6.64704ZM111.865 19.682C112.523 19.682 113.115 19.5588 113.643 19.3113C114.176 19.0698 114.648 18.7117 115.025 18.2635C115.39 17.8274 115.676 17.2885 115.881 16.6478C116.093 15.9547 116.196 15.2329 116.187 14.5081V14.3335C116.187 13.576 116.085 12.8849 115.881 12.2592C115.71 11.6711 115.427 11.1219 115.046 10.6424C114.67 10.1941 114.197 9.83606 113.664 9.59454C113.123 9.34811 112.509 9.22382 111.821 9.22382C111.133 9.22382 110.519 9.34704 109.978 9.59454C109.451 9.82811 108.998 10.1624 108.618 10.5995C108.237 11.0495 107.945 11.596 107.74 12.2367C107.55 12.8624 107.455 13.5685 107.455 14.3549V14.5295C107.455 15.3299 107.564 16.051 107.784 16.6917C108.004 17.3174 108.311 17.8488 108.705 18.286C109.086 18.736 109.547 19.0863 110.088 19.3338C110.65 19.571 111.255 19.6899 111.865 19.6831V19.682ZM111.8 22.4999C110.571 22.4999 109.459 22.3038 108.464 21.9106C107.47 21.5035 106.629 20.942 105.941 20.2285C105.229 19.5152 104.676 18.6598 104.317 17.7181C103.93 16.7077 103.737 15.6338 103.747 14.552V14.3763C103.747 13.2128 103.944 12.1424 104.339 11.1674C104.729 10.2206 105.312 9.36532 106.05 8.65597C106.783 7.94712 107.648 7.39033 108.596 7.01775C109.575 6.62454 110.651 6.42847 111.821 6.42847C113.006 6.42847 114.088 6.61811 115.069 6.99632C116.063 7.37454 116.919 7.90704 117.636 8.59061C118.346 9.30152 118.905 10.1479 119.282 11.0795C119.691 12.0406 119.895 13.1099 119.895 14.2895V14.4642C119.895 15.6288 119.698 16.7056 119.303 17.6956C118.941 18.6422 118.389 19.5043 117.68 20.2285C116.955 20.9573 116.089 21.5298 115.134 21.9106C114.14 22.3038 113.028 22.4999 111.8 22.4999ZM124.29 6.64704H128.415L134.383 16.9317V6.64597H137.543V22.2599H133.988L127.45 11.1449V22.2599H124.29V6.64704Z" fill="black"/>
<path fill-rule="evenodd" clip-rule="evenodd" d="M5.23468 0H25.5661C28.236 0 30.4004 2.16438 30.4004 4.83429V25.1657C30.4004 27.8356 28.236 30 25.5661 30H5.23468C2.56477 30 0.400391 27.8356 0.400391 25.1657V4.83429C0.400391 2.16438 2.56477 0 5.23468 0ZM15.3883 17.8531L13.3719 20.7449C13.328 20.8038 13.3719 20.7963 13.3719 20.7963H19.9269C19.9713 20.7957 20.0143 20.8113 20.048 20.8402L23.0405 23.4759C23.0583 23.4914 23.0725 23.5105 23.0823 23.5319C23.0921 23.5533 23.0972 23.5766 23.0973 23.6002C23.0973 23.6945 23.0169 23.7695 22.9183 23.7695H8.23976C7.9719 23.7695 7.7319 23.5413 7.7319 23.2874C7.7319 23.2874 7.63976 22.8663 7.86476 22.5116L11.168 17.8691L15.3883 17.8531ZM15.3701 12.0813L17.4219 9.23771H17.4208C17.498 9.13164 17.4208 9.13807 17.4208 9.13807L13.3858 9.12199H10.6387C10.5915 9.12199 10.5444 9.10378 10.5123 9.07164L7.76298 6.47235C7.65155 6.36628 7.73083 6.18628 7.8894 6.18628H22.5819C22.8498 6.18628 23.0908 6.41235 23.0908 6.66306C23.0908 6.66306 23.1315 6.92021 22.9687 7.16128C22.8996 7.26496 21.5637 9.15591 19.9096 11.4973L19.4812 12.1038L15.3701 12.0813Z" fill="black"/>
</g>
<defs>
<clipPath id="clip0_9861_82199">
<rect width="137.143" height="30" fill="white" transform="translate(0.400391)"/>
</clipPath>
</defs>
</svg>
