<svg width="16" height="16" viewBox="0 0 16 16" fill="none" xmlns="http://www.w3.org/2000/svg">
<path d="M7.87289 13.243L7.39749 12.785C7.27865 12.6645 7.27865 12.4716 7.39749 12.3752L11.0818 8.61477H2.95255C2.80994 8.61477 2.66732 8.49424 2.66732 8.3255V7.65055C2.66732 7.50592 2.80994 7.36129 2.95255 7.36129H11.0818L7.39749 3.62494C7.27865 3.52852 7.27865 3.33567 7.39749 3.21515L7.87289 2.75714C7.96797 2.63662 8.15813 2.63662 8.27697 2.75714L13.2448 7.79518C13.3637 7.91571 13.3637 8.08445 13.2448 8.20498L8.27697 13.243C8.15813 13.3635 7.96797 13.3635 7.87289 13.243Z" fill="white"/>
</svg>
