<svg width="32" height="32" viewBox="0 0 32 32" fill="none" xmlns="http://www.w3.org/2000/svg">
<rect width="32" height="32" rx="8" fill="#EDEBFF"/>
<circle cx="16" cy="16.5249" r="11.25" fill="white"/>
<path d="M25.7409 10.4935C24.7349 8.72662 23.3703 7.32776 21.6468 6.29664C19.923 5.26546 18.0412 4.75 15.9999 4.75C13.9589 4.75 12.0764 5.26562 10.353 6.29664C8.62934 7.32771 7.26481 8.72662 6.2588 10.4935C5.25295 12.2604 4.75 14.1898 4.75 16.2817C4.75 18.7945 5.4652 21.0542 6.89597 23.0611C8.32659 25.0683 10.1747 26.4571 12.4402 27.2279C12.704 27.2781 12.8992 27.2428 13.0261 27.1229C13.1531 27.0029 13.2165 26.8526 13.2165 26.6726C13.2165 26.6426 13.214 26.3724 13.2091 25.8618C13.2041 25.3512 13.2017 24.9057 13.2017 24.5256L12.8648 24.5854C12.65 24.6257 12.379 24.6428 12.0518 24.638C11.7248 24.6333 11.3853 24.5982 11.0338 24.5328C10.6821 24.4681 10.3551 24.3179 10.0523 24.0827C9.74971 23.8475 9.53489 23.5395 9.40791 23.1594L9.26143 22.8139C9.1638 22.5838 9.01008 22.3283 8.80009 22.0482C8.59009 21.7678 8.37774 21.5777 8.16292 21.4776L8.06036 21.4024C7.99202 21.3524 7.92861 21.292 7.86996 21.222C7.81137 21.152 7.76751 21.082 7.73821 21.0118C7.70886 20.9416 7.73318 20.884 7.81142 20.8389C7.88966 20.7937 8.03106 20.7717 8.23624 20.7717L8.52909 20.8166C8.72441 20.8567 8.96601 20.9766 9.2542 21.1769C9.54223 21.3771 9.77901 21.6373 9.96458 21.9575C10.1893 22.368 10.46 22.6809 10.7776 22.8961C11.0948 23.1114 11.4147 23.2188 11.7369 23.2188C12.0591 23.2188 12.3374 23.1938 12.5719 23.144C12.8061 23.0939 13.0258 23.0187 13.231 22.9186C13.3189 22.2476 13.5582 21.7322 13.9487 21.3719C13.3921 21.3119 12.8917 21.2216 12.4473 21.1016C12.0031 20.9813 11.544 20.7862 11.0705 20.5157C10.5967 20.2455 10.2036 19.91 9.89121 19.5098C9.57876 19.1094 9.32233 18.5836 9.12229 17.9331C8.92215 17.2823 8.82205 16.5316 8.82205 15.6808C8.82205 14.4693 9.20787 13.4384 9.97935 12.5875C9.61796 11.6767 9.65207 10.6557 10.0818 9.5245C10.365 9.4343 10.785 9.50199 11.3416 9.72713C11.8982 9.95239 12.3058 10.1453 12.5647 10.3053C12.8236 10.4653 13.031 10.6008 13.1873 10.7107C14.0957 10.4505 15.0331 10.3204 15.9998 10.3204C16.9665 10.3204 17.9041 10.4505 18.8125 10.7107L19.3692 10.3505C19.7498 10.1102 20.1993 9.88991 20.7166 9.68969C21.2341 9.48957 21.6299 9.43446 21.9035 9.52465C22.3427 10.6559 22.3819 11.6768 22.0204 12.5876C22.7918 13.4386 23.1778 14.4698 23.1778 15.681C23.1778 16.5318 23.0773 17.2849 22.8775 17.9406C22.6774 18.5965 22.4188 19.1217 22.1015 19.5173C21.7839 19.9129 21.3883 20.2457 20.9147 20.5158C20.4411 20.7862 19.9819 20.9813 19.5377 21.1015C19.0933 21.2217 18.5929 21.3121 18.0363 21.3721C18.544 21.8224 18.7978 22.5332 18.7978 23.5042V26.6722C18.7978 26.8522 18.8589 27.0024 18.9811 27.1225C19.1031 27.2423 19.2959 27.2776 19.5596 27.2274C21.8254 26.4568 23.6736 25.0679 25.1041 23.0607C26.5345 21.0537 27.25 18.7941 27.25 16.2813C27.2495 14.1896 26.7463 12.2604 25.7409 10.4935Z" fill="#6851FF"/>
</svg>
