<svg width="12" height="12" viewBox="0 0 12 12" fill="none" xmlns="http://www.w3.org/2000/svg">
<path d="M5.99983 5.04169L9.98658 1.02312C10.1816 0.82653 10.4993 0.825898 10.6951 1.02171L10.9782 1.30483C11.174 1.50064 11.1734 1.8183 10.9768 2.01333L6.95834 6.00019L10.9624 10.0043C11.1577 10.1995 11.1577 10.5161 10.9624 10.7114L10.6952 10.9786C10.4994 11.1744 10.1817 11.1738 9.98669 10.9772L5.99983 6.95869L1.99577 10.9628C1.80051 11.158 1.48393 11.158 1.28866 10.9628L1.03719 10.7113C0.841933 10.516 0.841933 10.1994 1.0372 10.0042L5.04126 6.00012L1.0229 2.01338C0.8263 1.81833 0.82569 1.50064 1.02153 1.30484L1.28877 1.03766C1.48404 0.842429 1.8006 0.842447 1.99584 1.03769L5.99983 5.04169Z" fill="black"/>
</svg>
