<svg width="32" height="32" viewBox="0 0 32 32" fill="none" xmlns="http://www.w3.org/2000/svg">
<rect width="32" height="32" rx="8" fill="#EDEBFF"/>
<path d="M16 27.25C22.2132 27.25 27.25 22.2132 27.25 16C27.25 9.7868 22.2132 4.75 16 4.75C9.7868 4.75 4.75 9.7868 4.75 16C4.75 22.2132 9.7868 27.25 16 27.25Z" fill="#6851FF"/>
<g clip-path="url(#clip0)">
<path d="M21.1981 10.9322C20.2421 10.5007 19.2169 10.1828 18.1449 10.0008C18.1254 9.99725 18.1059 10.006 18.0959 10.0236C17.964 10.2542 17.818 10.5551 17.7157 10.7917C16.5628 10.6219 15.4157 10.6219 14.2865 10.7917C14.1842 10.5499 14.0328 10.2542 13.9004 10.0236C13.8903 10.0066 13.8708 9.99784 13.8513 10.0008C12.7799 10.1822 11.7547 10.5001 10.7981 10.9322C10.7898 10.9357 10.7827 10.9415 10.778 10.9491C8.83337 13.8066 8.30066 16.5938 8.56199 19.3464C8.56317 19.3599 8.57086 19.3728 8.5815 19.381C9.86451 20.3077 11.1073 20.8703 12.327 21.2432C12.3466 21.249 12.3673 21.242 12.3797 21.2262C12.6682 20.8387 12.9254 20.43 13.1459 20.0003C13.1589 19.9752 13.1465 19.9453 13.1199 19.9353C12.712 19.7831 12.3235 19.5976 11.9498 19.3868C11.9203 19.3698 11.9179 19.3283 11.9451 19.3084C12.0237 19.2504 12.1024 19.1901 12.1775 19.1292C12.1911 19.1181 12.21 19.1158 12.226 19.1228C14.6808 20.2251 17.3385 20.2251 19.7643 19.1228C19.7803 19.1152 19.7992 19.1175 19.8134 19.1286C19.8885 19.1895 19.9672 19.2504 20.0464 19.3084C20.0736 19.3283 20.0718 19.3698 20.0422 19.3868C19.6686 19.6017 19.2801 19.7831 18.8716 19.9348C18.845 19.9447 18.8331 19.9752 18.8462 20.0003C19.0714 20.4294 19.3286 20.8381 19.6118 21.2256C19.6236 21.242 19.6449 21.249 19.6644 21.2432C20.8901 20.8703 22.1329 20.3077 23.4159 19.381C23.4271 19.3728 23.4342 19.3605 23.4354 19.347C23.7482 16.1646 22.9116 13.4003 21.2176 10.9497C21.2135 10.9415 21.2064 10.9357 21.1981 10.9322ZM13.5125 17.6703C12.7734 17.6703 12.1645 17.003 12.1645 16.1834C12.1645 15.3638 12.7616 14.6964 13.5125 14.6964C14.2693 14.6964 14.8724 15.3697 14.8605 16.1834C14.8605 17.003 14.2634 17.6703 13.5125 17.6703ZM18.4967 17.6703C17.7577 17.6703 17.1487 17.003 17.1487 16.1834C17.1487 15.3638 17.7458 14.6964 18.4967 14.6964C19.2535 14.6964 19.8566 15.3697 19.8448 16.1834C19.8448 17.003 19.2535 17.6703 18.4967 17.6703Z" fill="white"/>
</g>
<defs>
<clipPath id="clip0">
<rect width="16.5" height="12.5714" fill="white" transform="translate(7.75 9.25)"/>
</clipPath>
</defs>
</svg>
