<svg width="32" height="32" viewBox="0 0 32 32" fill="none" xmlns="http://www.w3.org/2000/svg">
<rect width="32" height="32" rx="8" fill="#EDEBFF"/>
<path fill-rule="evenodd" clip-rule="evenodd" d="M16.0116 22.4286C14.8801 22.4286 13.7876 22.2679 12.7342 21.9464L12.1489 21.7455L11.6417 22.1071C10.7443 22.75 9.37868 23.5134 7.66192 23.7143C8.13013 23.1116 8.79342 22.067 9.22261 20.9018L9.49573 20.1384L8.9885 19.5759C7.85701 18.3304 7.27175 16.8839 7.27175 15.3571C7.27175 11.4598 11.1735 8.28571 16.0116 8.28571C20.8107 8.28571 24.7514 11.4598 24.7514 15.3571C24.7514 19.2545 20.8107 22.4286 16.0116 22.4286ZM16.0116 18.5714C17.1431 18.5714 18.2356 18.0893 18.9379 17.2054C19.172 16.9241 19.5622 16.8839 19.8353 17.125C20.1084 17.3661 20.1474 17.7679 19.9133 18.0491C18.9379 19.2143 17.4943 19.8571 16.0116 19.8571C14.4899 19.8571 13.0463 19.2143 12.0709 18.0491C11.8758 17.7679 11.8758 17.3661 12.1489 17.125C12.422 16.8839 12.8122 16.9241 13.0463 17.2054C13.7876 18.0893 14.8411 18.5714 16.0116 18.5714ZM14.4509 13.4286C14.4509 13.9911 14.0217 14.3929 13.5145 14.3929C12.9683 14.3929 12.5781 13.9911 12.5781 13.4286C12.5781 12.9062 12.9683 12.4643 13.5145 12.4643C14.0217 12.4643 14.4509 12.9062 14.4509 13.4286ZM19.4451 13.4286C19.4451 13.9911 19.0159 14.3929 18.5087 14.3929C17.9625 14.3929 17.5723 13.9911 17.5723 13.4286C17.5723 12.9062 17.9625 12.4643 18.5087 12.4643C19.0159 12.4643 19.4451 12.9062 19.4451 13.4286Z" fill="#6851FF"/>
<path fill-rule="evenodd" clip-rule="evenodd" d="M16.0116 7C10.4712 7 6.0232 10.7768 6.0232 15.3571C6.0232 17.2857 6.76453 19.0536 8.05209 20.4598C7.50585 22.0268 6.29632 23.3929 6.2573 23.3929C5.98418 23.6741 5.94516 24.0759 6.06222 24.4375C6.21828 24.7991 6.56944 25 6.95961 25C9.33966 25 11.2515 23.9955 12.383 23.1518C13.5145 23.5134 14.724 23.7143 16.0116 23.7143C21.513 23.7143 26 19.9777 26 15.3571C26 10.7768 21.513 7 16.0116 7ZM12.7342 21.9464C13.7876 22.2679 14.8801 22.4286 16.0116 22.4286C20.8107 22.4286 24.7514 19.2545 24.7514 15.3571C24.7514 11.4598 20.8107 8.28571 16.0116 8.28571C11.1735 8.28571 7.27175 11.4598 7.27175 15.3571C7.27175 16.8839 7.85701 18.3304 8.9885 19.5759L9.49573 20.1384L9.22261 20.9018C8.79342 22.067 8.13013 23.1116 7.66192 23.7143C9.37868 23.5134 10.7443 22.75 11.6417 22.1071L12.1489 21.7455L12.7342 21.9464Z" fill="#6851FF"/>
</svg>
