<svg width="40" height="40" viewBox="0 0 40 40" fill="none" xmlns="http://www.w3.org/2000/svg">
<path fill-rule="evenodd" clip-rule="evenodd" d="M20.2632 10C17.8268 9.99753 15.4691 10.8628 13.6127 12.4407C11.7562 14.0187 10.5224 16.2062 10.1323 18.6112C9.74219 21.0162 10.2213 23.4815 11.4838 25.5654C12.7462 27.6492 14.7095 29.2154 17.0219 29.9831C17.538 30.0776 17.7205 29.7566 17.7205 29.4859C17.7205 29.2153 17.7205 28.5985 17.7205 27.7425C14.8567 28.3656 14.2525 26.3642 14.2525 26.3642C14.0626 25.7438 13.6589 25.2109 13.1133 24.8599C12.1881 24.2305 13.1889 24.2305 13.1889 24.2305C13.5132 24.2763 13.8228 24.3953 14.0944 24.5785C14.3659 24.7617 14.5922 25.0043 14.756 25.2879C14.8953 25.5404 15.0831 25.7629 15.3085 25.9427C15.534 26.1225 15.7927 26.256 16.0699 26.3355C16.3471 26.415 16.6373 26.439 16.9237 26.4061C17.2102 26.3733 17.4874 26.2841 17.7394 26.1439C17.7789 25.6261 18.0021 25.1395 18.3687 24.7718C16.0904 24.5137 13.6987 23.6326 13.6987 19.7367C13.683 18.7189 14.0594 17.7342 14.7498 16.9862C14.4423 16.1013 14.4782 15.1332 14.8505 14.2736C14.8505 14.2736 15.7127 13.9966 17.6701 15.3246C19.351 14.8632 21.1251 14.8632 22.8059 15.3246C24.7634 13.9966 25.6193 14.2736 25.6193 14.2736C25.9968 15.1241 26.0417 16.0853 25.7452 16.9674C26.4356 17.7153 26.8119 18.7001 26.7963 19.7178C26.7963 23.6578 24.3983 24.52 22.1136 24.7529C22.3586 24.9992 22.5478 25.2952 22.6683 25.621C22.7888 25.9468 22.8379 26.2947 22.8122 26.6411C22.8122 28.0132 22.8122 29.1209 22.8122 29.4545C22.8122 29.788 22.9948 30.0461 23.5172 29.9454C25.8031 29.1573 27.737 27.5867 28.9772 25.511C30.2174 23.4353 30.684 20.988 30.2947 18.6016C29.9054 16.2151 28.6851 14.0431 26.8495 12.4691C25.0139 10.8952 22.6811 10.0206 20.2632 10Z" fill="#77767A"/>
<path d="M20 39C9.50659 39 1 30.4934 1 20H-1C-1 31.598 8.40202 41 20 41V39ZM39 20C39 30.4934 30.4934 39 20 39V41C31.598 41 41 31.598 41 20H39ZM20 1C30.4934 1 39 9.50659 39 20H41C41 8.40202 31.598 -1 20 -1V1ZM20 -1C8.40202 -1 -1 8.40202 -1 20H1C1 9.50659 9.50659 1 20 1V-1Z" fill="#DDDBE0"/>
</svg>
