<svg width="32" height="32" viewBox="0 0 32 32" fill="none" xmlns="http://www.w3.org/2000/svg">
<rect width="32" height="32" rx="8" fill="#EDEBFF"/>
<path fill-rule="evenodd" clip-rule="evenodd" d="M12.1429 21V7.25H23.7143V21H12.1429ZM21.7857 11.7813C21.7857 12.0547 21.5446 12.25 21.3036 12.25H14.5536C14.2723 12.25 14.0714 12.0547 14.0714 11.7813V11.4688C14.0714 11.2344 14.2723 11 14.5536 11H21.3036C21.5446 11 21.7857 11.2344 21.7857 11.4688V11.7813ZM21.7857 13.9688V14.2813C21.7857 14.5547 21.5446 14.75 21.3036 14.75H14.5536C14.2723 14.75 14.0714 14.5547 14.0714 14.2813V13.9688C14.0714 13.7344 14.2723 13.5 14.5536 13.5H21.3036C21.5446 13.5 21.7857 13.7344 21.7857 13.9688Z" fill="#6851FF"/>
<path fill-rule="evenodd" clip-rule="evenodd" d="M24.3571 24.75C24.1964 23.9688 24.2366 22.8359 24.3973 22.2109C24.7188 22.0547 25 21.7031 25 21.3125V6.9375C25 6.42969 24.558 6 24.0357 6H10.2143C8.40625 6 7 7.40625 7 9.125V22.875C7 24.6328 8.40625 26 10.2143 26H24.5179C24.7589 26 25 25.8047 25 25.5313V25.2188C25 24.9844 24.7589 24.75 24.5179 24.75H24.3571ZM12.1429 21V7.25H23.7143V21H12.1429ZM8.28571 21.625V9.125C8.28571 8.10938 9.12946 7.25 10.2143 7.25H10.8571V21H10.2143C9.49107 21 8.80804 21.2344 8.28571 21.625ZM23.2321 24.75H10.2143C7.64286 24.75 7.64286 22.25 10.2143 22.25H23.2321C23.1116 22.9922 23.1116 23.9688 23.2321 24.75Z" fill="#6851FF"/>
</svg>
