<svg width="20" height="20" viewBox="0 0 20 20" fill="none" xmlns="http://www.w3.org/2000/svg">
<path d="M12.6211 10.1914C12.9298 9.87781 12.9259 9.37334 12.6123 9.06464C12.2987 8.75594 11.7942 8.75991 11.4855 9.07351L8.90299 11.697L7.82737 10.654C7.51146 10.3477 7.00704 10.3554 6.7007 10.6713C6.39437 10.9872 6.40213 11.4917 6.71804 11.798L8.36138 13.3915C8.67561 13.6963 9.17681 13.6904 9.48387 13.3785L12.6211 10.1914Z" fill="url(#paint0_linear_17855_472)"/>
<path fill-rule="evenodd" clip-rule="evenodd" d="M11.4194 2.5258C10.3271 1.91897 8.99894 1.91897 7.90666 2.5258L3.00408 5.24945C2.1963 5.69822 1.69531 6.54966 1.69531 7.47373V11.226C1.69531 15.6264 5.26258 19.1937 9.66302 19.1937C14.0635 19.1937 17.6307 15.6264 17.6307 11.226V7.47373C17.6307 6.54965 17.1297 5.69822 16.3219 5.24945L11.4194 2.5258ZM8.68055 3.9188C9.29155 3.57936 10.0345 3.57936 10.6455 3.9188L15.5481 6.64245C15.8499 6.81017 16.0372 7.12838 16.0372 7.47373V11.226C16.0372 14.7463 13.1834 17.6002 9.66302 17.6002C6.14266 17.6002 3.28885 14.7463 3.28885 11.226V7.47373C3.28885 7.12838 3.47609 6.81017 3.77798 6.64245L8.68055 3.9188Z" fill="url(#paint1_linear_17855_472)"/>
<defs>
<linearGradient id="paint0_linear_17855_472" x1="9.66302" y1="2.07068" x2="9.66302" y2="19.1937" gradientUnits="userSpaceOnUse">
<stop/>
<stop offset="1" stop-color="#6851FF"/>
</linearGradient>
<linearGradient id="paint1_linear_17855_472" x1="9.66302" y1="2.07068" x2="9.66302" y2="19.1937" gradientUnits="userSpaceOnUse">
<stop/>
<stop offset="1" stop-color="#6851FF"/>
</linearGradient>
</defs>
</svg>
