<svg width="32" height="32" viewBox="0 0 32 32" fill="none" xmlns="http://www.w3.org/2000/svg">
<path fill-rule="evenodd" clip-rule="evenodd" d="M5.89623 19.5266V22.1765L8.5178 23.6945V21.0232L5.89623 19.5266ZM10.5134 19.8608V24.7792L15.5406 27.6917V16.6409L5.95933 11.0973V17.2609L10.5134 19.8608ZM3.90063 23.3308V8.66931L9.61922 5.35564L9.59842 5.34521H9.60882L16.5699 1.33337L23.5362 5.34521H23.5258L23.5102 5.35564L29.234 8.66931V23.3308L16.5699 30.6667L3.90063 23.3308ZM24.6532 23.6742V21.0239L27.2384 19.5498V22.1767L24.6532 23.6742ZM17.5992 27.6917L22.6576 24.7636V19.8608L27.1805 17.2817V11.1025L17.5992 16.6513V27.6917ZM21.4515 6.53835L16.5595 9.35185L11.6831 6.54356L6.94708 9.28411L16.5751 14.859L26.2031 9.28933L21.4515 6.53835ZM13.6159 5.34996L16.5602 7.04555L19.5237 5.34114L16.5703 3.64027L13.8205 5.22503L13.8264 5.22799L13.6159 5.34996Z" fill="url(#paint0_linear_15753_1569)"/>
<defs>
<linearGradient id="paint0_linear_15753_1569" x1="16.5673" y1="1.33337" x2="16.5673" y2="30.6667" gradientUnits="userSpaceOnUse">
<stop/>
<stop offset="1" stop-color="#6851FF"/>
</linearGradient>
</defs>
</svg>
