<svg width="32" height="32" viewBox="0 0 32 32" fill="none" xmlns="http://www.w3.org/2000/svg">
<path fill-rule="evenodd" clip-rule="evenodd" d="M8.96855 5.18189C9.28521 4.81425 9.75428 4.60168 10.2489 4.60168H11.557L8.30698 12.9868H3.33325V12.3084C3.33325 11.9311 3.46995 11.5659 3.71955 11.2761L8.96855 5.18189ZM10.443 12.9868L13.693 4.60168H17.6402L20.8902 12.9868L10.443 12.9868ZM20.7802 14.9218L10.553 14.9218L15.6666 25.8062L20.7802 14.9218ZM17.7477 26.0527L22.9771 14.9218H27.9999V15.4656C27.9999 15.8933 27.8243 16.3035 27.5118 16.6059L17.7477 26.0527ZM23.0262 12.9868L19.7762 4.60168H21.0843C21.5789 4.60168 22.048 4.81425 22.3646 5.18189L27.6136 11.2761C27.8632 11.5659 27.9999 11.9311 27.9999 12.3084V12.9868H23.0262ZM3.33325 14.9218H8.35607L13.5855 26.0527L3.82141 16.6059C3.50885 16.3035 3.33325 15.8933 3.33325 15.4656V14.9218ZM10.2489 2.66666C9.16073 2.66666 8.12875 3.1343 7.43211 3.94312L2.18311 10.0373C1.63398 10.6748 1.33325 11.4785 1.33325 12.3084V15.4656C1.33325 16.4065 1.71956 17.3088 2.40719 17.9741L13.0739 28.2943C14.5058 29.6797 16.8274 29.6797 18.2593 28.2943L28.926 17.9741C29.6136 17.3088 29.9999 16.4065 29.9999 15.4656V12.3084C29.9999 11.4785 29.6992 10.6748 29.1501 10.0373L23.9011 3.94312C23.2044 3.1343 22.1724 2.66666 21.0843 2.66666H10.2489Z" fill="url(#paint0_linear_15753_2250)"/>
<defs>
<linearGradient id="paint0_linear_15753_2250" x1="15.6666" y1="2.66666" x2="15.6666" y2="29.3333" gradientUnits="userSpaceOnUse">
<stop/>
<stop offset="1" stop-color="#6851FF"/>
</linearGradient>
</defs>
</svg>
