<svg width="32" height="32" viewBox="0 0 32 32" fill="none" xmlns="http://www.w3.org/2000/svg">
<path d="M16.0001 2.66666C8.63449 2.66666 2.66675 8.6344 2.66675 16C2.66675 23.3656 8.63449 29.3333 16.0001 29.3333C23.3657 29.3333 29.3334 23.3656 29.3334 16C29.3334 8.6344 23.3657 2.66666 16.0001 2.66666ZM16.0001 27.6129C9.54847 27.6129 4.38718 22.4516 4.38718 16C4.38718 9.60214 9.54847 4.38709 16.0001 4.38709C22.3979 4.38709 27.613 9.60214 27.613 16C27.613 22.4516 22.3979 27.6129 16.0001 27.6129ZM18.1506 15.7312L14.2797 14.6559C13.6345 14.4946 13.1506 13.9032 13.1506 13.2043C13.1506 12.3978 13.8495 11.6989 14.7098 11.6989H17.1291C17.7205 11.6989 18.3119 11.914 18.742 12.2903C18.9571 12.3978 19.1721 12.3978 19.3334 12.2366L19.9248 11.5914C20.0861 11.4301 20.0861 11.1075 19.8711 10.9462C19.1184 10.3548 18.1506 9.97849 17.1291 9.97849H16.8603V7.82795C16.8603 7.61289 16.6452 7.39784 16.4302 7.39784H15.57C15.3012 7.39784 15.1399 7.61289 15.1399 7.82795V9.97849H14.7098C12.8818 9.97849 11.4302 11.4301 11.4302 13.2043C11.4302 14.6559 12.3979 15.8925 13.7958 16.3226L17.6667 17.3978C18.3119 17.5591 18.7958 18.1505 18.7958 18.8495C18.7958 19.6559 18.0969 20.3011 17.2366 20.3011H14.8173C14.2259 20.3011 13.6345 20.1398 13.2044 19.7634C12.9893 19.6559 12.7743 19.6559 12.613 19.8172L12.0216 20.4624C11.8603 20.6236 11.8603 20.9462 12.0754 21.1075C12.828 21.6989 13.7958 22.0215 14.8173 22.0215H15.1399V24.172C15.1399 24.4409 15.3012 24.6021 15.57 24.6021H16.4302C16.6452 24.6021 16.8603 24.4409 16.8603 24.172V22.0215H17.2366C19.0646 22.0215 20.5162 20.6236 20.5162 18.8495C20.5162 17.3978 19.5485 16.1075 18.1506 15.7312Z" fill="url(#paint0_linear_15753_1187)"/>
<defs>
<linearGradient id="paint0_linear_15753_1187" x1="16.0001" y1="2.66666" x2="16.0001" y2="29.3333" gradientUnits="userSpaceOnUse">
<stop/>
<stop offset="1" stop-color="#6851FF"/>
</linearGradient>
</defs>
</svg>
