<svg width="32" height="32" viewBox="0 0 32 32" fill="none" xmlns="http://www.w3.org/2000/svg">
<path d="M16.0091 11.4897C14.4982 11.5419 13.2478 12.0115 12.2579 13.0028C11.3202 13.9419 10.7992 15.1941 10.8513 16.4984C10.9034 19.1072 10.6429 21.7681 10.1219 24.2724C10.0177 24.742 10.3303 25.2116 10.7471 25.2637C11.216 25.3681 11.6328 25.1072 11.737 24.6376C12.31 21.9767 12.5705 19.2115 12.5184 16.4984C12.5184 15.6115 12.831 14.7767 13.4562 14.1506C14.394 13.2115 15.6444 13.1593 16.0091 13.1593C17.9367 13.2115 19.4476 14.7767 19.4476 16.6028C19.4997 19.2637 19.3434 21.8724 18.8745 24.4811C18.8224 24.8985 19.135 25.3159 19.6039 25.4203C19.6039 25.4203 19.656 25.4203 19.7081 25.4203C20.1249 25.4203 20.4896 25.1594 20.5417 24.742C20.9585 22.0811 21.1669 19.3159 21.1669 16.6028C21.1148 13.8376 18.8224 11.5419 16.0091 11.4897ZM15.957 16.0289C15.5402 16.0289 15.1755 16.3941 15.1755 16.8637C15.2276 20.6724 14.7066 24.4289 13.7167 28.0811L13.6646 28.2898C13.5604 28.6551 13.7167 29.3333 14.4461 29.3333C14.8108 29.3333 15.1234 29.1246 15.2276 28.7594L15.3318 28.4985C16.3738 24.6898 16.8948 20.8289 16.8427 16.8115C16.8427 16.3419 16.3738 15.9767 15.957 16.0289ZM8.50681 10.4462C7.20433 12.0636 6.47494 14.0984 6.52704 16.1854C6.57914 18.2724 6.37075 20.3593 6.00605 22.342C5.95395 22.8115 6.26655 23.2289 6.68334 23.3333C6.73544 23.3333 6.78754 23.3333 6.83964 23.3333C7.25643 23.3333 7.62112 23.0202 7.67322 22.655C8.03792 20.5159 8.24631 18.3767 8.19421 16.1854C8.19421 14.4637 8.7152 12.8462 9.80929 11.4897C10.1219 11.1767 10.0698 10.6549 9.70509 10.3419C9.34039 10.0288 8.8194 10.081 8.50681 10.4462ZM29.2943 15.8202C29.2943 14.9854 29.1901 14.0984 29.0338 13.2636C28.9296 12.8462 28.4608 12.5332 28.044 12.6376C27.5751 12.7419 27.2625 13.1593 27.3667 13.6289C27.523 14.3593 27.6272 15.0897 27.6272 15.8724C27.6793 16.2376 27.6793 16.655 27.6272 17.0724C27.6272 17.5419 28.044 17.9072 28.4608 17.9072C28.9296 17.9072 29.2943 17.5419 29.2943 17.0724C29.3464 16.655 29.3464 16.2376 29.2943 15.8202ZM15.8007 2.67226C12.1537 2.56791 8.8194 3.92444 6.31865 6.42881C3.92209 8.881 2.61961 12.0636 2.67171 15.5071C2.67171 15.8724 2.67171 16.2898 2.67171 16.655C2.61961 17.1245 2.98431 17.5419 3.4532 17.5419H3.5053C3.92209 17.5419 4.28678 17.1767 4.33888 16.7071C4.33888 16.2898 4.33888 15.8724 4.33888 15.455C4.28678 12.481 5.38086 9.71579 7.46483 7.62882C9.65299 5.4375 12.6226 4.28966 15.8007 4.34184C19.656 4.39401 23.3029 6.32446 25.5432 9.50709C25.8037 9.87231 26.3247 9.97666 26.7415 9.71579C27.1062 9.45492 27.2104 8.93318 26.9499 8.51578C24.397 4.91576 20.2291 2.72444 15.8007 2.67226ZM15.8528 7.0549C15.8528 7.0549 15.7486 7.0549 15.6965 7.0549C15.1234 7.0549 14.1335 7.21142 13.5083 7.31577C13.0915 7.42012 12.7789 7.88969 12.8831 8.35926C12.9873 8.77665 13.4562 9.0897 13.9251 8.98535C14.5503 8.82883 15.2276 8.72448 15.8528 8.72448C20.177 8.82883 23.7197 12.2723 23.7718 16.4463C23.8239 18.5332 23.7197 20.6202 23.4592 22.655C23.4071 23.1246 23.7718 23.542 24.2407 23.5942H24.2928C24.7096 23.5942 25.0743 23.2811 25.1264 22.8637C25.3869 20.7246 25.4911 18.5854 25.439 16.4463C25.3869 11.3332 21.0627 7.15925 15.8528 7.0549Z" fill="url(#paint0_linear_15753_888)"/>
<defs>
<linearGradient id="paint0_linear_15753_888" x1="16.0001" y1="2.66666" x2="16.0001" y2="29.3333" gradientUnits="userSpaceOnUse">
<stop/>
<stop offset="1" stop-color="#6851FF"/>
</linearGradient>
</defs>
</svg>
