<svg width="32" height="32" viewBox="0 0 32 32" fill="none" xmlns="http://www.w3.org/2000/svg">
<path d="M26.8332 9.42221H24.7498C25.2707 8.7361 25.5832 7.89166 25.5832 6.88888C25.5832 4.56666 23.8123 2.66666 21.6769 2.66666C19.4894 2.66666 18.1873 4.03888 15.9998 7.73332C13.7603 4.03888 12.4582 2.66666 10.2707 2.66666C8.13525 2.66666 6.4165 4.56666 6.4165 6.88888C6.4165 7.89166 6.67692 8.7361 7.19775 9.42221H5.1665C3.76025 9.42221 2.6665 10.5833 2.6665 11.9555V17.0222C2.6665 17.4972 3.03109 17.8667 3.49984 17.8667H4.33317V25.4667C4.33317 26.8917 5.42692 28 6.83317 28H25.1665C26.5207 28 27.6665 26.8917 27.6665 25.4667V17.8667H28.4998C28.9165 17.8667 29.3332 17.4972 29.3332 17.0222V11.9555C29.3332 10.5833 28.1873 9.42221 26.8332 9.42221ZM17.0415 9.26388C19.5936 4.88332 20.479 4.35555 21.6769 4.35555C22.8748 4.35555 23.9165 5.51666 23.9165 6.88888C23.9165 8.31388 22.8748 9.42221 21.6769 9.42221H16.9373L17.0415 9.26388ZM10.2707 4.35555C11.4686 4.35555 12.354 4.88332 14.9061 9.26388L15.0103 9.42221H10.2707C9.07275 9.42221 8.03109 8.31388 8.03109 6.88888C8.08317 5.51666 9.07275 4.35555 10.2707 4.35555ZM12.6665 26.3111H6.83317C6.36442 26.3111 5.99984 25.9417 5.99984 25.4667V17.8667H12.6665V26.3111ZM12.6665 16.1778H4.33317V11.9555C4.33317 11.5333 4.69775 11.1111 5.1665 11.1111H12.6665V16.1778ZM17.6665 26.3111H14.3332V11.1111H17.6665V26.3111ZM25.9998 25.4667C25.9998 25.9417 25.5832 26.3111 25.1665 26.3111H19.3332V17.8667H25.9998V25.4667ZM27.6665 16.1778H19.3332V11.1111H26.8332C27.2498 11.1111 27.6665 11.5333 27.6665 11.9555V16.1778Z" fill="url(#paint0_linear_15753_1073)"/>
<defs>
<linearGradient id="paint0_linear_15753_1073" x1="15.9998" y1="2.66666" x2="15.9998" y2="28" gradientUnits="userSpaceOnUse">
<stop/>
<stop offset="1" stop-color="#6851FF"/>
</linearGradient>
</defs>
</svg>
