<svg width="32" height="32" viewBox="0 0 32 32" fill="none" xmlns="http://www.w3.org/2000/svg">
<path d="M1.33325 16C1.33325 12.1102 2.87849 8.37964 5.62902 5.62911C8.37955 2.87858 12.1101 1.33334 15.9999 1.33334C19.8898 1.33334 23.6203 2.87858 26.3708 5.62911C29.1214 8.37964 30.6666 12.1102 30.6666 16C30.6666 19.8899 29.1214 23.6204 26.3708 26.3709C23.6203 29.1214 19.8898 30.6667 15.9999 30.6667C12.1101 30.6667 8.37955 29.1214 5.62902 26.3709C2.87849 23.6204 1.33325 19.8899 1.33325 16V16ZM15.0833 3.30784C13.8549 3.68184 12.6358 4.81118 11.6238 6.70868C11.2903 7.33952 11.0036 7.99394 10.7658 8.66668H15.0833V3.30784ZM8.83159 8.66668C9.13715 7.69284 9.52985 6.74852 10.0049 5.84518C10.3219 5.24578 10.688 4.67366 11.0994 4.13468C8.82792 5.07669 6.8736 6.64932 5.46742 8.66668H8.83159ZM7.76458 15.0833C7.81958 13.4755 8.01758 11.9337 8.33658 10.5H4.40225C3.71864 11.9393 3.31071 13.4939 3.19959 15.0833H7.76458ZM10.2194 10.5C9.85883 12.003 9.65122 13.5386 9.59975 15.0833H15.0833V10.5H10.2194ZM16.9166 10.5V15.0833H22.3983C22.3474 13.5386 22.1405 12.003 21.7804 10.5H16.9166ZM9.60159 16.9167C9.65245 18.4614 9.85945 19.997 10.2194 21.5H15.0833V16.9167H9.60159ZM16.9166 16.9167V21.5H21.7804C22.1233 20.0975 22.3414 18.552 22.4001 16.9167H16.9166ZM10.7658 23.3333C11.0188 24.041 11.3066 24.6973 11.6238 25.2913C12.6358 27.1888 13.8568 28.3163 15.0833 28.6922V23.3333H10.7658ZM11.0994 27.8653C10.688 27.3264 10.3219 26.7543 10.0049 26.1548C9.52986 25.2515 9.13716 24.3072 8.83159 23.3333H5.46742C6.87352 25.3508 8.82787 26.9234 11.0994 27.8653V27.8653ZM8.33658 21.5C8.00505 19.9931 7.81357 18.4588 7.76458 16.9167H3.19959C3.31325 18.5483 3.73309 20.0938 4.40225 21.5H8.33658ZM20.9004 27.8653C23.172 26.9234 25.1263 25.3508 26.5324 23.3333H23.1683C22.8627 24.3072 22.47 25.2515 21.9949 26.1548C21.678 26.7543 21.3119 27.3264 20.9004 27.8653V27.8653ZM16.9166 23.3333V28.6922C18.1449 28.3182 19.3641 27.1888 20.3761 25.2913C20.6933 24.6973 20.9811 24.041 21.2341 23.3333H16.9166ZM23.6633 21.5H27.5976C28.2668 20.0938 28.6866 18.5483 28.8003 16.9167H24.2353C24.1863 18.4588 23.9948 19.9931 23.6633 21.5ZM28.8003 15.0833C28.6891 13.4939 28.2812 11.9393 27.5976 10.5H23.6633C23.9823 11.9337 24.1803 13.4755 24.2353 15.0833H28.8003ZM21.9949 5.84518C22.4478 6.69584 22.8419 7.64184 23.1683 8.66668H26.5324C25.1263 6.64925 23.172 5.0766 20.9004 4.13468C21.3001 4.65534 21.6668 5.23101 21.9949 5.84518V5.84518ZM21.2341 8.66668C20.9963 7.99393 20.7095 7.33951 20.3761 6.70868C19.3641 4.81118 18.1449 3.68368 16.9166 3.30784V8.66668H21.2341Z" fill="url(#paint0_linear_15753_665)"/>
<defs>
<linearGradient id="paint0_linear_15753_665" x1="15.9999" y1="1.33334" x2="15.9999" y2="30.6667" gradientUnits="userSpaceOnUse">
<stop/>
<stop offset="1" stop-color="#6851FF"/>
</linearGradient>
</defs>
</svg>
