<svg width="20" height="20" viewBox="0 0 20 20" fill="none" xmlns="http://www.w3.org/2000/svg">
<path fill-rule="evenodd" clip-rule="evenodd" d="M11.4251 4.41368C9.38634 2.37489 6.07356 2.37352 4.02553 4.41463C1.97952 6.45373 1.97936 9.78062 4.01805 11.8198C5.44338 13.2375 7.48312 13.6729 9.27275 13.1132C9.55539 13.0248 9.86375 13.1005 10.0734 13.3096L10.466 13.7014L11.4886 12.6788C11.7998 12.3676 12.3043 12.3676 12.6154 12.6788C12.9266 12.99 12.9266 13.4944 12.6154 13.8056L11.594 14.827L12.46 15.6912L13.0821 15.0691C13.3933 14.758 13.8978 14.758 14.209 15.0691C14.5201 15.3803 14.5201 15.8848 14.209 16.1959L13.588 16.8168L13.8262 17.0545L13.8349 17.0633C13.8547 17.0837 13.9296 17.1387 14.0608 17.1812C14.1906 17.2233 14.2938 17.2265 14.3356 17.2204L16.0783 16.9806C16.1608 16.969 16.2847 16.914 16.4027 16.7954C16.5189 16.6786 16.5792 16.5504 16.5944 16.4585L16.8323 14.7291L16.8333 14.7228C16.838 14.69 16.8356 14.5906 16.7901 14.4543C16.7461 14.3222 16.689 14.2373 16.6618 14.2078L12.9231 10.4691C12.7144 10.2604 12.6381 9.95349 12.7249 9.67141C13.2798 7.86819 12.8477 5.82936 11.4265 4.41505L11.4251 4.41368ZM9.9997 15.4873L12.6969 18.1788C12.9473 18.4343 13.2724 18.6009 13.5695 18.6971C13.8688 18.7941 14.2222 18.8466 14.5618 18.7979L16.2971 18.559C16.7883 18.4908 17.218 18.2351 17.532 17.9196C17.8463 17.6039 18.0967 17.1765 18.1703 16.695L18.172 16.6833L18.4107 14.949C18.4607 14.6005 18.3995 14.2432 18.3019 13.9504C18.2037 13.6559 18.0397 13.3395 17.803 13.0956L17.7947 13.0871L14.3751 9.66756C14.8879 7.44862 14.288 5.01496 12.5512 3.28619C9.88903 0.624717 5.56926 0.626313 2.90063 3.28592C0.229923 5.94761 0.229924 10.2853 2.89171 12.9471L2.89309 12.9485C4.62592 14.6729 7.05806 15.2831 9.27439 14.7636L9.80785 15.2959C9.83354 15.3321 9.86261 15.3667 9.89507 15.3991C9.92794 15.432 9.96297 15.4614 9.9997 15.4873ZM7.68067 6.86804C8.34073 6.86804 8.87582 7.40313 8.87582 8.0632C8.87582 8.72326 8.34073 9.25835 7.68067 9.25835H7.65915C6.99909 9.25835 6.464 8.72326 6.464 8.0632C6.464 7.40313 6.99909 6.86804 7.65915 6.86804H7.68067Z" fill="url(#paint0_linear_17855_534)"/>
<defs>
<linearGradient id="paint0_linear_17855_534" x1="9.6625" y1="1.29065" x2="9.6625" y2="18.8164" gradientUnits="userSpaceOnUse">
<stop/>
<stop offset="1" stop-color="#6851FF"/>
</linearGradient>
</defs>
</svg>
