<svg width="32" height="32" viewBox="0 0 32 32" fill="none" xmlns="http://www.w3.org/2000/svg">
<path d="M17.9315 14.0768C17.9315 14.965 17.332 15.7131 16.5156 15.9388L17.1505 19.0282C17.2223 19.4673 16.9187 19.8716 16.517 19.8716H15.4845C15.0828 19.8716 14.7792 19.4673 14.851 19.0282L15.4857 15.9392C14.6685 15.7141 14.0683 14.9656 14.0683 14.0768C14.0683 13.01 14.9331 12.1452 15.9999 12.1452C17.0667 12.1452 17.9315 13.01 17.9315 14.0768Z" fill="url(#paint0_linear_15753_1952)"/>
<path fill-rule="evenodd" clip-rule="evenodd" d="M16.8407 4.16789C16.3025 3.94404 15.6973 3.94404 15.1591 4.16789L6.68162 7.69426C5.8652 8.03386 5.33325 8.83127 5.33325 9.7155V14.4663C5.33325 17.3165 5.88868 20.1395 6.96848 22.7773C10.2771 30.8597 21.7228 30.8597 25.0314 22.7773C26.1112 20.1395 26.6666 17.3165 26.6666 14.4663V9.7155C26.6666 8.83127 26.1346 8.03386 25.3182 7.69426L16.8407 4.16789ZM15.8515 5.83244C15.9465 5.79294 16.0533 5.79294 16.1483 5.83244L24.6258 9.35881C24.7699 9.41874 24.8638 9.55946 24.8638 9.7155V14.4663C24.8638 17.0823 24.354 19.6733 23.3629 22.0943C20.6656 28.6836 11.3343 28.6836 8.63692 22.0943C7.64585 19.6733 7.13607 17.0823 7.13607 14.4663V9.7155C7.13607 9.55946 7.22994 9.41874 7.37402 9.35881L15.8515 5.83244Z" fill="url(#paint1_linear_15753_1952)"/>
<defs>
<linearGradient id="paint0_linear_15753_1952" x1="15.9999" y1="4" x2="15.9999" y2="28.8391" gradientUnits="userSpaceOnUse">
<stop/>
<stop offset="1" stop-color="#6851FF"/>
</linearGradient>
<linearGradient id="paint1_linear_15753_1952" x1="15.9999" y1="4" x2="15.9999" y2="28.8391" gradientUnits="userSpaceOnUse">
<stop/>
<stop offset="1" stop-color="#6851FF"/>
</linearGradient>
</defs>
</svg>
