<svg width="32" height="32" viewBox="0 0 32 32" fill="none" xmlns="http://www.w3.org/2000/svg">
<path d="M11.5152 25.0302C11.5152 24.5281 11.9222 24.1211 12.4243 24.1211H19.091C19.5931 24.1211 20.0001 24.5281 20.0001 25.0302C20.0001 25.5323 19.5931 25.9393 19.091 25.9393H12.4243C11.9222 25.9393 11.5152 25.5323 11.5152 25.0302Z" fill="url(#paint0_linear_15753_1763)"/>
<path d="M10.9092 8.12117C11.5786 8.12117 12.1213 7.57849 12.1213 6.90905C12.1213 6.23961 11.5786 5.69693 10.9092 5.69693C10.2397 5.69693 9.69705 6.23961 9.69705 6.90905C9.69705 7.57849 10.2397 8.12117 10.9092 8.12117Z" fill="url(#paint1_linear_15753_1763)"/>
<path fill-rule="evenodd" clip-rule="evenodd" d="M6.66675 6.30299C6.66675 4.29468 8.2948 2.66663 10.3031 2.66663H21.2122C23.2205 2.66663 24.8486 4.29468 24.8486 6.30299V25.6969C24.8486 27.7052 23.2205 29.3333 21.2122 29.3333H10.3031C8.2948 29.3333 6.66675 27.7052 6.66675 25.6969V6.30299ZM10.3031 4.48481H21.2122C22.2164 4.48481 23.0304 5.29884 23.0304 6.30299V25.6969C23.0304 26.7011 22.2164 27.5151 21.2122 27.5151H10.3031C9.29896 27.5151 8.48493 26.7011 8.48493 25.6969V6.30299C8.48493 5.29884 9.29896 4.48481 10.3031 4.48481Z" fill="url(#paint2_linear_15753_1763)"/>
<defs>
<linearGradient id="paint0_linear_15753_1763" x1="15.7577" y1="2.66663" x2="15.7577" y2="29.3333" gradientUnits="userSpaceOnUse">
<stop/>
<stop offset="1" stop-color="#6851FF"/>
</linearGradient>
<linearGradient id="paint1_linear_15753_1763" x1="15.7577" y1="2.66663" x2="15.7577" y2="29.3333" gradientUnits="userSpaceOnUse">
<stop/>
<stop offset="1" stop-color="#6851FF"/>
</linearGradient>
<linearGradient id="paint2_linear_15753_1763" x1="15.7577" y1="2.66663" x2="15.7577" y2="29.3333" gradientUnits="userSpaceOnUse">
<stop/>
<stop offset="1" stop-color="#6851FF"/>
</linearGradient>
</defs>
</svg>
