<svg width="32" height="32" viewBox="0 0 32 32" fill="none" xmlns="http://www.w3.org/2000/svg">
<path d="M30.392 26.0744L3.02644 4.1409C2.88915 4.04697 2.70611 4 2.56882 4C2.29425 4 2.1112 4.09393 1.97392 4.23483L1.5163 4.8454C1.42478 4.9863 1.33325 5.1272 1.33325 5.31507C1.33325 5.5499 1.47054 5.78474 1.65358 5.87867L29.0192 27.8591C29.1107 27.953 29.2937 28 29.431 28C29.7056 28 29.8886 27.9061 30.0259 27.7182L30.4835 27.1546C30.5751 27.0137 30.6666 26.8728 30.6666 26.6849C30.6666 26.4501 30.5293 26.2153 30.392 26.0744ZM14.9245 10.8571L21.1024 15.7886C21.0108 12.9706 18.7685 10.7162 16.0228 10.7162C15.6567 10.7632 15.2906 10.7632 14.9245 10.8571ZM17.0753 21.1429L10.8975 16.2114C10.989 19.0294 13.2313 21.2368 16.0228 21.2368C16.3431 21.2368 16.7092 21.2368 17.0753 21.1429ZM16.0228 9.21331C20.5075 9.21331 24.6718 11.7965 26.8684 15.9765C26.3192 17.0568 25.6785 17.9961 24.8548 18.8415L26.5938 20.2035C27.5548 19.1703 28.3785 17.9961 29.0192 16.681C29.1107 16.4932 29.2022 16.2583 29.2022 16.0235C29.2022 15.7417 29.1107 15.5068 29.0192 15.319C26.548 10.3405 21.6057 6.9589 16.0228 6.9589C14.3296 6.9589 12.7279 7.28767 11.2178 7.85127L13.3229 9.58904C14.1923 9.35421 15.1076 9.21331 16.0228 9.21331ZM16.0228 22.7397C11.4924 22.7397 7.32805 20.1566 5.13148 15.9765C5.68063 14.9432 6.32129 14.0039 7.145 13.1585L5.40605 11.7965C4.44506 12.8297 3.62134 14.0039 2.98068 15.319C2.88915 15.5068 2.84339 15.7417 2.84339 15.9765C2.84339 16.2583 2.88915 16.4932 2.98068 16.681C5.45182 21.6595 10.3941 24.9941 16.0228 24.9941C17.6702 24.9941 19.2719 24.6654 20.782 24.1487L18.677 22.411C17.8075 22.6458 16.8923 22.7397 16.0228 22.7397Z" fill="url(#paint0_linear_15753_1128)"/>
<defs>
<linearGradient id="paint0_linear_15753_1128" x1="15.9999" y1="4" x2="15.9999" y2="28" gradientUnits="userSpaceOnUse">
<stop/>
<stop offset="1" stop-color="#6851FF"/>
</linearGradient>
</defs>
</svg>
