<svg width="32" height="32" viewBox="0 0 32 32" fill="none" xmlns="http://www.w3.org/2000/svg">
<path fill-rule="evenodd" clip-rule="evenodd" d="M2.6665 4.66666C2.6665 3.56209 3.56193 2.66666 4.6665 2.66666H27.3332C28.4377 2.66666 29.3332 3.56209 29.3332 4.66665V27.3333C29.3332 28.4379 28.4377 29.3333 27.3332 29.3333H4.6665C3.56193 29.3333 2.6665 28.4379 2.6665 27.3333V4.66666ZM4.71779 4.71794V7.14218H7.14203V4.71794H4.71779ZM9.19331 4.71794V7.14218H27.2819V4.71794H9.19331ZM27.2819 9.19346H4.71779V27.282H27.2819V9.19346ZM10.0738 17.1189L7.44243 14.4875L8.89291 13.037L12.2677 16.4118C12.6582 16.8023 12.6582 17.4355 12.2677 17.826L8.89291 21.2008L7.44243 19.7503L10.0738 17.1189ZM14.881 19.4499H23.832V21.5012H14.881V19.4499Z" fill="url(#paint0_linear_15753_627)"/>
<defs>
<linearGradient id="paint0_linear_15753_627" x1="15.9998" y1="2.66666" x2="15.9998" y2="29.3333" gradientUnits="userSpaceOnUse">
<stop/>
<stop offset="1" stop-color="#6851FF"/>
</linearGradient>
</defs>
</svg>
