<?xml version="1.0" encoding="utf-8"?>
<!-- Generator: Adobe Illustrator 27.6.1, SVG Export Plug-In . SVG Version: 6.00 Build 0)  -->
<svg version="1.1" id="Layer_1" xmlns="http://www.w3.org/2000/svg" xmlns:xlink="http://www.w3.org/1999/xlink" x="0px" y="0px"
	 viewBox="0 0 187.2 187.2" style="enable-background:new 0 0 187.2 187.2;" xml:space="preserve">
<style type="text/css">
	.st0{fill:#6851FF;}
	.st1{fill-rule:evenodd;clip-rule:evenodd;fill:#6851FF;}
</style>
<g>
	<path class="st0" d="M28,68.9L13.8,63L12,67.4l-2.7-1.1l4.9-11.8l2.7,1.1L15,60l14.2,5.9L28,68.9z"/>
	<path class="st0" d="M33.5,57.3L18.7,46.5l3.4-4.7c0.7-1,1.5-1.7,2.4-2.2c0.9-0.5,1.8-0.7,2.8-0.6c0.9,0.1,1.9,0.4,2.8,1.1
		c1,0.7,1.6,1.6,2,2.6c0.4,1,0.4,2.1,0.1,3.1l8.4,1.6l-2.1,2.8l-7.7-1.7l-1.3,1.8l5.9,4.3L33.5,57.3z M27.2,48.9l1.6-2.1
		c0.5-0.7,0.7-1.4,0.6-2.1c-0.1-0.7-0.5-1.3-1.2-1.8c-0.7-0.5-1.4-0.7-2.1-0.6c-0.7,0.1-1.3,0.5-1.8,1.2l-1.6,2.1L27.2,48.9z"/>
	<path class="st0" d="M47,41.5l-4.3-5.1L31.1,31l2.5-2.1l6.3,3c0.5,0.2,0.9,0.5,1.4,0.8c0.4,0.3,0.7,0.5,1,0.7
		c-0.1-0.2-0.3-0.6-0.5-1.1c-0.2-0.5-0.4-1-0.5-1.5l-2-6.6l2.5-2.1l3.4,12.4l4.3,5.1L47,41.5z"/>
	<path class="st0" d="M72.8,26.8l-0.6-2.7l3.6-0.8l-2.9-12.5l-3.6,0.8L68.7,9l10.3-2.4l0.6,2.7L76,10.1l2.9,12.5l3.6-0.8l0.6,2.7
		L72.8,26.8z"/>
	<path class="st0" d="M93,23.8l0.2-15.4l-4.8-0.1l0-2.9l12.7,0.1l0,2.9l-4.8-0.1l-0.2,15.4L93,23.8z"/>
	<path class="st0" d="M121.7,29.3l8.6-16.2l3.4,1.8l-2.4,15.4c0.2-0.5,0.4-1.1,0.7-1.7c0.3-0.7,0.6-1.3,0.9-2
		c0.3-0.7,0.6-1.3,0.9-1.8l4.1-7.7l2.5,1.3l-8.6,16.2l-3.4-1.8l2.5-15.4c-0.2,0.4-0.4,1-0.7,1.6c-0.3,0.6-0.6,1.3-0.9,1.9
		c-0.3,0.7-0.6,1.2-0.9,1.8l-4.2,7.9L121.7,29.3z"/>
	<path class="st0" d="M140.4,41.7c-0.9-0.8-1.5-1.6-1.9-2.5c-0.3-0.9-0.4-1.8-0.2-2.7c0.2-0.9,0.7-1.8,1.4-2.6l5.3-6
		c0.7-0.8,1.5-1.4,2.4-1.7c0.9-0.3,1.8-0.3,2.7-0.1c0.9,0.2,1.9,0.7,2.7,1.5c0.9,0.8,1.5,1.6,1.8,2.5c0.3,0.9,0.4,1.8,0.2,2.7
		c-0.2,0.9-0.6,1.8-1.4,2.6l-5.3,6c-0.7,0.8-1.5,1.4-2.4,1.7c-0.9,0.3-1.8,0.3-2.7,0.1C142.1,43,141.2,42.5,140.4,41.7z M142.2,39.6
		c0.6,0.6,1.3,0.8,1.9,0.8c0.6-0.1,1.2-0.4,1.8-1l5.3-6c0.6-0.6,0.9-1.3,0.8-1.9c0-0.6-0.4-1.2-1-1.8c-0.6-0.6-1.3-0.8-1.9-0.8
		c-0.6,0-1.2,0.4-1.8,1l-5.3,6c-0.6,0.6-0.8,1.3-0.8,1.9C141.2,38.5,141.6,39.1,142.2,39.6z"/>
	<path class="st0" d="M148.7,49.7l13.9-12l1.5,2.2l-9.9,8.2c-0.2,0.2-0.5,0.4-0.8,0.7c-0.3,0.3-0.6,0.5-1,0.8
		c-0.3,0.3-0.6,0.5-0.9,0.7c0.3-0.2,0.6-0.3,1-0.5c0.4-0.2,0.7-0.4,1.1-0.6c0.4-0.2,0.7-0.4,0.9-0.5l11.4-6.1l1.5,2.2l-9.7,8.4
		c-0.2,0.2-0.5,0.4-0.8,0.7c-0.3,0.3-0.6,0.5-0.9,0.8c-0.3,0.3-0.6,0.5-0.8,0.7c0.3-0.2,0.6-0.4,0.9-0.6c0.4-0.2,0.7-0.4,1-0.7
		c0.4-0.2,0.7-0.4,0.9-0.5l11.1-6.4l1.5,2.2l-16.1,8.8l-2-2.8l9.8-8.4c0.2-0.2,0.5-0.5,0.8-0.7c0.3-0.3,0.7-0.5,1-0.8
		c0.3-0.3,0.6-0.5,0.9-0.7c-0.3,0.2-0.6,0.3-1,0.5c-0.4,0.2-0.7,0.4-1.1,0.6c-0.4,0.2-0.7,0.4-1,0.5l-11.4,6.1L148.7,49.7z"/>
	<path class="st0" d="M159.2,118.3l14.2,5.9l1.8-4.4l2.7,1.1l-4.9,11.8l-2.7-1.1l1.8-4.4l-14.2-5.9L159.2,118.3z"/>
	<path class="st0" d="M153.7,129.9l14.8,10.8l-3.4,4.7c-0.7,1-1.5,1.7-2.4,2.2c-0.9,0.5-1.8,0.7-2.8,0.6c-0.9-0.1-1.9-0.4-2.8-1.1
		c-1-0.7-1.6-1.6-2-2.6c-0.4-1-0.4-2.1-0.1-3.1l-8.4-1.6l2.1-2.8l7.7,1.7l1.3-1.8l-5.9-4.3L153.7,129.9z M160,138.3l-1.6,2.1
		c-0.5,0.7-0.7,1.4-0.6,2.1c0.1,0.7,0.5,1.3,1.2,1.8c0.7,0.5,1.4,0.7,2.1,0.6c0.7-0.1,1.3-0.5,1.8-1.2l1.6-2.1L160,138.3z"/>
	<path class="st0" d="M140.2,145.7l4.3,5.1l11.6,5.4l-2.5,2.1l-6.3-3c-0.5-0.2-0.9-0.5-1.4-0.8c-0.4-0.3-0.7-0.5-1-0.7
		c0.1,0.2,0.3,0.6,0.5,1.1c0.2,0.5,0.4,1,0.5,1.5l2,6.6l-2.5,2.1l-3.4-12.4l-4.3-5.1L140.2,145.7z"/>
	<path class="st0" d="M114.4,160.4l0.6,2.7l-3.6,0.8l2.9,12.5l3.6-0.8l0.6,2.7l-10.3,2.4l-0.6-2.7l3.6-0.8l-2.9-12.5l-3.6,0.8
		l-0.6-2.7L114.4,160.4z"/>
	<path class="st0" d="M94.2,163.4l-0.2,15.4l4.8,0.1l0,2.9l-12.7-0.2l0-2.9l4.8,0.1l0.2-15.4L94.2,163.4z"/>
	<path class="st0" d="M65.5,157.9l-8.6,16.2l-3.4-1.8l2.4-15.4c-0.2,0.5-0.4,1.1-0.7,1.7c-0.3,0.7-0.6,1.3-0.9,2
		c-0.3,0.7-0.6,1.3-0.9,1.8l-4.1,7.7l-2.5-1.3l8.6-16.2l3.4,1.8l-2.5,15.4c0.2-0.4,0.4-1,0.7-1.6c0.3-0.6,0.6-1.3,0.9-1.9
		c0.3-0.6,0.6-1.2,0.9-1.8l4.2-7.9L65.5,157.9z"/>
	<path class="st0" d="M46.8,145.5c0.9,0.8,1.5,1.6,1.9,2.5c0.3,0.9,0.4,1.8,0.2,2.7c-0.2,0.9-0.7,1.8-1.4,2.6l-5.3,6
		c-0.7,0.8-1.5,1.4-2.4,1.7c-0.9,0.3-1.8,0.3-2.7,0.1c-0.9-0.2-1.9-0.7-2.7-1.5c-0.9-0.8-1.5-1.6-1.8-2.5c-0.3-0.9-0.4-1.8-0.2-2.7
		c0.2-0.9,0.6-1.8,1.4-2.6l5.3-6c0.7-0.8,1.5-1.4,2.4-1.7c0.9-0.3,1.8-0.3,2.7-0.1C45.1,144.2,46,144.7,46.8,145.5z M45,147.6
		c-0.6-0.6-1.3-0.8-1.9-0.8c-0.6,0.1-1.2,0.4-1.8,1l-5.3,6c-0.6,0.6-0.9,1.3-0.8,1.9c0,0.6,0.4,1.2,1,1.8c0.6,0.6,1.3,0.8,1.9,0.8
		c0.6-0.1,1.2-0.4,1.8-1l5.3-6c0.6-0.6,0.8-1.3,0.8-1.9C46,148.7,45.6,148.1,45,147.6z"/>
	<path class="st0" d="M38.5,137.5l-13.9,12l-1.5-2.2l9.9-8.2c0.2-0.2,0.5-0.4,0.8-0.7c0.3-0.3,0.6-0.5,1-0.8
		c0.3-0.3,0.6-0.5,0.9-0.7c-0.3,0.2-0.6,0.3-1,0.5s-0.7,0.4-1.1,0.6c-0.4,0.2-0.7,0.4-0.9,0.5l-11.4,6.1l-1.5-2.2l9.7-8.4
		c0.2-0.2,0.5-0.4,0.8-0.7c0.3-0.3,0.6-0.5,0.9-0.8c0.3-0.3,0.6-0.5,0.8-0.7c-0.3,0.2-0.6,0.4-0.9,0.6c-0.4,0.2-0.7,0.4-1,0.7
		c-0.4,0.2-0.7,0.4-0.9,0.5L18,140l-1.5-2.2l16.2-8.8l2,2.8l-9.8,8.4c-0.2,0.2-0.5,0.5-0.8,0.7c-0.3,0.3-0.7,0.5-1,0.8
		c-0.3,0.3-0.6,0.5-0.9,0.7c0.3-0.2,0.6-0.3,1-0.5c0.4-0.2,0.7-0.4,1.1-0.6c0.4-0.2,0.7-0.4,1-0.5l11.4-6.1L38.5,137.5z"/>
	<path class="st1" d="M14.7,79.4c-1.6,7.8-2,16-1.1,24.4c0.9,8.4,3.1,16.3,6.3,23.6l-2.9,1.3c-3.3-7.6-5.6-15.8-6.5-24.5
		c-0.9-8.7-0.5-17.2,1.1-25.3L14.7,79.4z M173.3,86.6c-0.9-8.4-3.1-16.3-6.3-23.6l2.9-1.3c3.3,7.6,5.6,15.8,6.5,24.5
		c0.9,8.7,0.5,17.2-1.1,25.3l-3.1-0.6C173.8,103.1,174.2,94.9,173.3,86.6z"/>
</g>
</svg>
