<svg width="32" height="32" viewBox="0 0 32 32" fill="none" xmlns="http://www.w3.org/2000/svg">
<path d="M22.0393 20.0629C22.3767 20.2883 22.7733 20.4086 23.179 20.4086C23.723 20.4086 24.2448 20.1925 24.6294 19.8078C25.0141 19.4231 25.2303 18.9014 25.2303 18.3573C25.2303 17.9516 25.1099 17.555 24.8845 17.2177C24.6591 16.8804 24.3388 16.6174 23.964 16.4622C23.5891 16.3069 23.1767 16.2663 22.7788 16.3455C22.3809 16.4246 22.0154 16.62 21.7285 16.9068C21.4416 17.1937 21.2463 17.5592 21.1671 17.9571C21.088 18.355 21.1286 18.7675 21.2838 19.1423C21.4391 19.5171 21.702 19.8375 22.0393 20.0629Z" fill="url(#paint0_linear_15753_850)"/>
<path fill-rule="evenodd" clip-rule="evenodd" d="M21.9768 3.07243C22.5815 2.95872 23.2039 2.9791 23.7999 3.13217C24.3993 3.2861 24.9573 3.57042 25.4342 3.96484C25.911 4.35926 26.2949 4.85405 26.5585 5.41393C26.8221 5.9738 26.9589 6.58496 26.9591 7.20377V8.18962C28.8759 8.52256 30.3334 10.1942 30.3334 12.2062V24.5139C30.3334 26.7655 28.5081 28.5908 26.2565 28.5908H5.74367C3.49205 28.5908 1.66675 26.7655 1.66675 24.5139V10.089C1.66624 9.11008 2.00729 8.16133 2.63111 7.40689C3.25507 6.65227 4.12281 6.13905 5.08468 5.95575L5.10363 5.95233L21.9768 3.07243ZM24.9591 7.20442V8.12931H5.74367C5.34077 8.12931 4.95151 8.18775 4.58393 8.29663C4.84062 8.11193 5.13585 7.9833 5.45051 7.92204L22.3222 5.04241L22.3411 5.03898C22.6599 4.97824 22.9881 4.98859 23.3024 5.06931C23.6168 5.15003 23.9094 5.29912 24.1594 5.50595C24.4095 5.71278 24.6108 5.97225 24.749 6.26584C24.8872 6.55934 24.9589 6.88002 24.9591 7.20442ZM3.66675 24.5139L3.66675 12.2047C3.66756 11.0584 4.59712 10.1293 5.74367 10.1293H26.2565C27.4035 10.1293 28.3334 11.0592 28.3334 12.2062V24.5139C28.3334 25.661 27.4035 26.5908 26.2565 26.5908H5.74367C4.59662 26.5908 3.66675 25.661 3.66675 24.5139Z" fill="url(#paint1_linear_15753_850)"/>
<defs>
<linearGradient id="paint0_linear_15753_850" x1="16.0001" y1="3" x2="16.0001" y2="28.5908" gradientUnits="userSpaceOnUse">
<stop/>
<stop offset="1" stop-color="#6851FF"/>
</linearGradient>
<linearGradient id="paint1_linear_15753_850" x1="16.0001" y1="3" x2="16.0001" y2="28.5908" gradientUnits="userSpaceOnUse">
<stop/>
<stop offset="1" stop-color="#6851FF"/>
</linearGradient>
</defs>
</svg>
