<svg width="64" height="64" viewBox="0 0 64 64" fill="none" xmlns="http://www.w3.org/2000/svg">
<path d="M56 0H8C3.58172 0 0 3.58172 0 8V56C0 60.4183 3.58172 64 8 64H56C60.4183 64 64 60.4183 64 56V8C64 3.58172 60.4183 0 56 0Z" fill="#DBA550"/>
<path d="M13 32.3098C13.0007 30.7275 13.4707 29.1809 14.3504 27.8657C15.2301 26.5505 16.4801 25.5257 17.9423 24.9209C19.4045 24.3161 21.0132 24.1585 22.5649 24.468C24.1167 24.7776 25.5418 25.5403 26.66 26.6598L32 31.9998L37.34 37.3398C38.4595 38.458 39.2222 39.8831 39.5317 41.4349C39.8413 42.9866 39.6837 44.5953 39.0789 46.0575C38.4741 47.5197 37.4493 48.7696 36.1341 49.6494C34.8189 50.5291 33.2723 50.999 31.69 50.9998H21C18.8783 50.9998 16.8434 50.1569 15.3431 48.6566C13.8429 47.1563 13 45.1215 13 42.9998V32.3098Z" fill="white"/>
<path d="M56 46C55.7348 46 55.4804 46.1054 55.2929 46.2929C55.1054 46.4804 55 46.7348 55 47V53.59L10.41 9H17C17.2652 9 17.5196 8.89464 17.7071 8.70711C17.8946 8.51957 18 8.26522 18 8C18 7.73478 17.8946 7.48043 17.7071 7.29289C17.5196 7.10536 17.2652 7 17 7H8C7.73478 7 7.48043 7.10536 7.29289 7.29289C7.10536 7.48043 7 7.73478 7 8V17C7 17.2652 7.10536 17.5196 7.29289 17.7071C7.48043 17.8946 7.73478 18 8 18C8.26522 18 8.51957 17.8946 8.70711 17.7071C8.89464 17.5196 9 17.2652 9 17V10.41L53.59 55H47C46.7348 55 46.4804 55.1054 46.2929 55.2929C46.1054 55.4804 46 55.7348 46 56C46 56.2652 46.1054 56.5196 46.2929 56.7071C46.4804 56.8946 46.7348 57 47 57H56C56.2652 57 56.5196 56.8946 56.7071 56.7071C56.8946 56.5196 57 56.2652 57 56V47C57 46.7348 56.8946 46.4804 56.7071 46.2929C56.5196 46.1054 56.2652 46 56 46Z" fill="black"/>
<path d="M55.31 8.28016L33.05 29.6102L33.19 23.0002C33.19 22.7349 33.0846 22.4806 32.8971 22.293C32.7096 22.1055 32.4552 22.0002 32.19 22.0002C31.9248 22.0002 31.6704 22.1055 31.4829 22.293C31.2954 22.4806 31.19 22.7349 31.19 23.0002L31 32.0002C31 32.2654 31.1054 32.5197 31.2929 32.7073C31.4804 32.8948 31.7348 33.0002 32 33.0002L41 33.1902C41.2652 33.1902 41.5196 33.0848 41.7071 32.8973C41.8946 32.7097 42 32.4554 42 32.1902C42 31.9249 41.8946 31.6706 41.7071 31.483C41.5196 31.2955 41.2652 31.1902 41 31.1902L34.41 31.0502L55 11.3402V56.0002H57V6.66016L55.31 8.28016Z" fill="black"/>
</svg>
