<svg width="64" height="64" viewBox="0 0 64 64" fill="none" xmlns="http://www.w3.org/2000/svg">
<rect width="64" height="64" rx="8" fill="#FF5635"/>
<path d="M13 20.3548C13 16.2929 16.2929 13 20.3548 13H43.6452C47.7071 13 51 16.2929 51 20.3548V32C51 42.4934 42.4934 51 32 51C21.5066 51 13 42.4934 13 32V20.3548Z" fill="white"/>
<path d="M5.35198 31.2929C4.96145 31.6834 4.96145 32.3166 5.35198 32.7071L11.7159 39.0711C12.1065 39.4616 12.7396 39.4616 13.1301 39.0711C13.5207 38.6805 13.5207 38.0474 13.1301 37.6569L7.4733 32L13.1301 26.3431C13.5207 25.9526 13.5207 25.3195 13.1301 24.9289C12.7396 24.5384 12.1065 24.5384 11.7159 24.9289L5.35198 31.2929ZM58.7662 32.7071C59.1567 32.3166 59.1567 31.6834 58.7662 31.2929L52.4022 24.9289C52.0117 24.5384 51.3785 24.5384 50.988 24.9289C50.5975 25.3195 50.5975 25.9526 50.988 26.3431L56.6449 32L50.988 37.6569C50.5975 38.0474 50.5975 38.6805 50.988 39.0711C51.3785 39.4616 52.0117 39.4616 52.4022 39.0711L58.7662 32.7071ZM6.05908 33H58.0591V31H6.05908V33Z" fill="black"/>
<path d="M32.7071 7.29289C32.3166 6.90237 31.6834 6.90237 31.2929 7.29289L24.9289 13.6569C24.5384 14.0474 24.5384 14.6805 24.9289 15.0711C25.3195 15.4616 25.9526 15.4616 26.3431 15.0711L32 9.41421L37.6569 15.0711C38.0474 15.4616 38.6805 15.4616 39.0711 15.0711C39.4616 14.6805 39.4616 14.0474 39.0711 13.6569L32.7071 7.29289ZM31.2929 56.7071C31.6834 57.0976 32.3166 57.0976 32.7071 56.7071L39.0711 50.3431C39.4616 49.9526 39.4616 49.3195 39.0711 48.9289C38.6805 48.5384 38.0474 48.5384 37.6569 48.9289L32 54.5858L26.3431 48.9289C25.9526 48.5384 25.3195 48.5384 24.9289 48.9289C24.5384 49.3195 24.5384 49.9526 24.9289 50.3431L31.2929 56.7071ZM31 8L31 56L33 56L33 8L31 8Z" fill="black"/>
</svg>
