<svg width="64" height="64" viewBox="0 0 64 64" fill="none" xmlns="http://www.w3.org/2000/svg">
<rect width="64" height="64" rx="8" fill="#00C988"/>
<rect x="43" y="12" width="9" height="9" rx="4.5" fill="white"/>
<rect x="21" y="21" width="22" height="22" rx="11" fill="white"/>
<path d="M42.7071 12.7071C43.0976 12.3166 43.0976 11.6834 42.7071 11.2929L36.3431 4.92893C35.9526 4.53841 35.3195 4.53841 34.9289 4.92893C34.5384 5.31946 34.5384 5.95262 34.9289 6.34315L40.5858 12L34.9289 17.6569C34.5384 18.0474 34.5384 18.6805 34.9289 19.0711C35.3195 19.4616 35.9526 19.4616 36.3431 19.0711L42.7071 12.7071ZM52.7071 21.2929C52.3166 20.9024 51.6834 20.9024 51.2929 21.2929L44.9289 27.6569C44.5384 28.0474 44.5384 28.6805 44.9289 29.0711C45.3195 29.4616 45.9526 29.4616 46.3431 29.0711L52 23.4142L57.6569 29.0711C58.0474 29.4616 58.6805 29.4616 59.0711 29.0711C59.4616 28.6805 59.4616 28.0474 59.0711 27.6569L52.7071 21.2929ZM32 13L42 13L42 11L32 11L32 13ZM51 22L51 32L53 32L53 22L51 22ZM32 53C43.598 53 53 43.598 53 32L51 32C51 42.4934 42.4934 51 32 51L32 53ZM13 32C13 21.5066 21.5066 13 32 13L32 11C20.402 11 11 20.402 11 32L13 32ZM11 32C11 43.598 20.402 53 32 53L32 51C21.5066 51 13 42.4934 13 32L11 32Z" fill="black"/>
</svg>
