<svg width="64" height="64" viewBox="0 0 64 64" fill="none" xmlns="http://www.w3.org/2000/svg">
<rect width="64" height="64" rx="8" fill="#6851FF"/>
<rect x="13" y="13" width="38" height="38" rx="8" fill="white"/>
<path d="M8 7C7.44772 7 7 7.44772 7 8L7 17C7 17.5523 7.44772 18 8 18C8.55228 18 9 17.5523 9 17L9 9L17 9C17.5523 9 18 8.55228 18 8C18 7.44772 17.5523 7 17 7L8 7ZM56 57C56.5523 57 57 56.5523 57 56L57 47C57 46.4477 56.5523 46 56 46C55.4477 46 55 46.4477 55 47L55 55L47 55C46.4477 55 46 55.4477 46 56C46 56.5523 46.4477 57 47 57L56 57ZM7.29289 8.70711L55.2929 56.7071L56.7071 55.2929L8.70711 7.29289L7.29289 8.70711Z" fill="black"/>
<path d="M8 7C7.44772 7 7 7.44772 7 8L7 17C7 17.5523 7.44772 18 8 18C8.55228 18 9 17.5523 9 17L9 9L17 9C17.5523 9 18 8.55228 18 8C18 7.44772 17.5523 7 17 7L8 7ZM56 57C56.5523 57 57 56.5523 57 56L57 47C57 46.4477 56.5523 46 56 46C55.4477 46 55 46.4477 55 47L55 55L47 55C46.4477 55 46 55.4477 46 56C46 56.5523 46.4477 57 47 57L56 57ZM7.29289 8.70711L55.2929 56.7071L56.7071 55.2929L8.70711 7.29289L7.29289 8.70711Z" fill="black"/>
</svg>
