<svg width="338" height="309" viewBox="0 0 338 309" fill="none" xmlns="http://www.w3.org/2000/svg">
<g opacity="0.3" filter="url(#filter0_f)">
<path d="M326.999 292.498C326.999 295.198 282.825 297.387 228.334 297.387C173.842 297.387 129.668 295.198 129.668 292.498C129.668 289.798 173.842 287.609 228.334 287.609C282.825 287.609 326.999 289.798 326.999 292.498Z" fill="url(#paint0_linear)"/>
</g>
<g filter="url(#filter1_f)">
<path d="M31.0005 31H265.598L185.522 230.564H115.111L31.0005 31Z" fill="url(#paint1_linear)" fill-opacity="0.4"/>
</g>
<path d="M175.469 241.419H138.97C138.97 247.528 143.922 252.48 150.03 252.48H153.97C156.111 252.48 158.228 252.938 160.177 253.824L163.247 255.219C165.305 256.155 167.254 257.316 169.056 258.682L175.469 263.54V241.419Z" fill="#6851FF"/>
<g opacity="0.6" filter="url(#filter2_f)">
<ellipse rx="2.21206" ry="21.5676" transform="matrix(4.37114e-08 1 1 -4.37114e-08 160.537 244.736)" fill="#3512B2"/>
</g>
<path d="M316.329 195.522C316.329 154.089 282.741 120.5 241.307 120.5C199.873 120.5 166.285 154.089 166.285 195.522V279.69C166.285 285.118 173.047 287.605 176.564 283.471L199.352 256.691C201.682 253.952 205.91 253.952 208.24 256.691L236.863 290.329C239.193 293.067 243.421 293.067 245.751 290.329L274.374 256.691C276.704 253.952 280.932 253.952 283.262 256.691L306.05 283.471C309.568 287.605 316.329 285.118 316.329 279.69V195.522Z" fill="url(#paint2_radial)"/>
<path opacity="0.3" d="M212.929 195.159C212.929 205.633 204.438 202.453 193.965 202.453C183.491 202.453 175.001 205.633 175.001 195.159C175.001 184.686 183.491 176.195 193.965 176.195C204.438 176.195 212.929 184.686 212.929 195.159Z" fill="#3512B2"/>
<path d="M215.726 195.159C215.726 205.633 207.235 202.453 196.762 202.453C186.288 202.453 177.798 205.633 177.798 195.159C177.798 184.686 186.288 176.195 196.762 176.195C207.235 176.195 215.726 184.686 215.726 195.159Z" fill="white"/>
<path d="M187.001 198C187.001 200.209 185.21 202 183.001 202C180.792 202 179.001 200.209 179.001 198C179.001 195.791 180.792 194 183.001 194C185.21 194 187.001 195.791 187.001 198Z" fill="#18171A"/>
<path opacity="0.3" d="M255.929 197.654C255.929 208.128 247.438 204.948 236.965 204.948C226.491 204.948 218.001 208.128 218.001 197.654C218.001 187.181 226.491 178.69 236.965 178.69C247.438 178.69 255.929 187.181 255.929 197.654Z" fill="#3512B2"/>
<path d="M258.855 197.654C258.855 208.128 250.364 204.948 239.891 204.948C229.417 204.948 220.927 208.128 220.927 197.654C220.927 187.181 229.417 178.69 239.891 178.69C250.364 178.69 258.855 187.181 258.855 197.654Z" fill="white"/>
<path d="M230.001 200C230.001 202.209 228.21 204 226.001 204C223.792 204 222.001 202.209 222.001 200C222.001 197.791 223.792 196 226.001 196C228.21 196 230.001 197.791 230.001 200Z" fill="#18171A"/>
<path fill-rule="evenodd" clip-rule="evenodd" d="M205.5 241.148C205.5 238.92 203.693 237.113 201.464 237.113H120.754C118.525 237.113 116.719 238.92 116.719 241.148C116.719 243.377 118.525 245.184 120.754 245.184H201.464C203.693 245.184 205.5 243.377 205.5 241.148Z" fill="url(#paint3_linear)"/>
<path d="M179.737 204.652C179.059 202.363 176.957 200.793 174.569 200.793H113.174C109.571 200.793 106.982 204.26 108.006 207.714L115.573 233.254C116.251 235.542 118.354 237.113 120.741 237.113H183.941C186.644 237.113 188.585 234.512 187.817 231.922L179.737 204.652Z" fill="url(#paint4_linear)"/>
<path fill-rule="evenodd" clip-rule="evenodd" d="M187.442 237.83C187.442 236.849 186.648 236.053 185.668 236.053L120.773 236.053C119.793 236.053 118.999 236.849 118.999 237.83C118.999 238.812 119.793 239.608 120.773 239.608L185.668 239.608C186.648 239.608 187.442 238.812 187.442 237.83Z" fill="url(#paint5_linear)"/>
<path d="M151.725 217.49C150.907 214.766 148.399 212.899 145.554 212.899C141.239 212.899 138.144 217.059 139.384 221.193L139.554 221.76C140.371 224.485 142.879 226.351 145.724 226.351C150.04 226.351 153.135 222.191 151.895 218.058L151.725 217.49Z" fill="#BDB2FF"/>
<path fill-rule="evenodd" clip-rule="evenodd" d="M296.369 213.1C300.669 218.2 300.02 225.82 294.92 230.12C287.891 236.047 270.007 249.861 248.536 250.671C234.528 251.2 226.516 244.46 221.926 240.599C221.27 240.047 220.685 239.555 220.161 239.15C218.14 237.588 216.74 236.824 214.895 236.434C212.883 236.009 209.246 235.819 202.66 237.444C196.183 239.042 189.637 235.088 188.039 228.611C186.441 222.134 190.396 215.589 196.872 213.991C205.787 211.791 213.273 211.4 219.891 212.799C226.678 214.234 231.417 217.319 234.932 220.035C236.179 220.999 237.216 221.833 238.11 222.552C242.148 225.802 243.26 226.696 247.625 226.531C260.296 226.053 272.689 217.267 279.349 211.652C284.449 207.352 292.069 208 296.369 213.1Z" fill="url(#paint6_linear)"/>
<g style="mix-blend-mode:multiply" opacity="0.6">
<path d="M182.644 47.98L181.584 47.24L183.644 44.02L180.484 42.64L180.864 41.46L184.164 42.44L184.364 38.78H185.644L185.844 42.44L189.144 41.46L189.524 42.64L186.364 44.02L188.424 47.24L187.364 47.98L185.004 44.98L182.644 47.98Z" fill="#00CC8F"/>
</g>
<g style="mix-blend-mode:multiply" opacity="0.6">
<path d="M185.004 82.24C183.551 82.24 182.397 81.6667 181.544 80.52C180.704 79.3733 180.284 77.7267 180.284 75.58C180.284 73.42 180.704 71.7933 181.544 70.7C182.397 69.5933 183.551 69.04 185.004 69.04C186.457 69.04 187.604 69.5933 188.444 70.7C189.297 71.7933 189.724 73.42 189.724 75.58C189.724 77.7267 189.297 79.3733 188.444 80.52C187.604 81.6667 186.457 82.24 185.004 82.24ZM185.004 80.44C185.377 80.44 185.724 80.3533 186.044 80.18C186.377 79.9933 186.657 79.7067 186.884 79.32C187.124 78.9333 187.311 78.4333 187.444 77.82C187.577 77.1933 187.644 76.4467 187.644 75.58C187.644 74.7133 187.577 73.98 187.444 73.38C187.311 72.7667 187.124 72.2733 186.884 71.9C186.657 71.5267 186.377 71.26 186.044 71.1C185.724 70.9267 185.377 70.84 185.004 70.84C184.617 70.84 184.264 70.9267 183.944 71.1C183.624 71.26 183.344 71.5267 183.104 71.9C182.877 72.2733 182.697 72.7667 182.564 73.38C182.431 73.98 182.364 74.7133 182.364 75.58C182.364 76.4467 182.431 77.1933 182.564 77.82C182.697 78.4333 182.877 78.9333 183.104 79.32C183.344 79.7067 183.624 79.9933 183.944 80.18C184.264 80.3533 184.617 80.44 185.004 80.44ZM185.004 76.92C184.617 76.92 184.291 76.7933 184.024 76.54C183.757 76.2867 183.624 75.94 183.624 75.5C183.624 75.06 183.757 74.7133 184.024 74.46C184.291 74.2067 184.617 74.08 185.004 74.08C185.391 74.08 185.717 74.2067 185.984 74.46C186.251 74.7133 186.384 75.06 186.384 75.5C186.384 75.94 186.251 76.2867 185.984 76.54C185.717 76.7933 185.391 76.92 185.004 76.92Z" fill="#90F0D3"/>
</g>
<g style="mix-blend-mode:multiply" opacity="0.6">
<path d="M180.764 114V112.12H184.304V103.76H181.484V102.32C181.884 102.267 182.244 102.207 182.564 102.14C182.884 102.06 183.177 101.98 183.444 101.9C183.724 101.82 183.984 101.727 184.224 101.62C184.464 101.513 184.697 101.4 184.924 101.28H186.604V112.12H189.724V114H180.764Z" fill="#00CC8F"/>
</g>
<g style="mix-blend-mode:multiply" opacity="0.6">
<path d="M211.004 50.24C209.551 50.24 208.397 49.6667 207.544 48.52C206.704 47.3733 206.284 45.7267 206.284 43.58C206.284 41.42 206.704 39.7933 207.544 38.7C208.397 37.5933 209.551 37.04 211.004 37.04C212.457 37.04 213.604 37.5933 214.444 38.7C215.297 39.7933 215.724 41.42 215.724 43.58C215.724 45.7267 215.297 47.3733 214.444 48.52C213.604 49.6667 212.457 50.24 211.004 50.24ZM211.004 48.44C211.377 48.44 211.724 48.3533 212.044 48.18C212.377 47.9933 212.657 47.7067 212.884 47.32C213.124 46.9333 213.311 46.4333 213.444 45.82C213.577 45.1933 213.644 44.4467 213.644 43.58C213.644 42.7133 213.577 41.98 213.444 41.38C213.311 40.7667 213.124 40.2733 212.884 39.9C212.657 39.5267 212.377 39.26 212.044 39.1C211.724 38.9267 211.377 38.84 211.004 38.84C210.617 38.84 210.264 38.9267 209.944 39.1C209.624 39.26 209.344 39.5267 209.104 39.9C208.877 40.2733 208.697 40.7667 208.564 41.38C208.431 41.98 208.364 42.7133 208.364 43.58C208.364 44.4467 208.431 45.1933 208.564 45.82C208.697 46.4333 208.877 46.9333 209.104 47.32C209.344 47.7067 209.624 47.9933 209.944 48.18C210.264 48.3533 210.617 48.44 211.004 48.44ZM211.004 44.92C210.617 44.92 210.291 44.7933 210.024 44.54C209.757 44.2867 209.624 43.94 209.624 43.5C209.624 43.06 209.757 42.7133 210.024 42.46C210.291 42.2067 210.617 42.08 211.004 42.08C211.391 42.08 211.717 42.2067 211.984 42.46C212.251 42.7133 212.384 43.06 212.384 43.5C212.384 43.94 212.251 44.2867 211.984 44.54C211.717 44.7933 211.391 44.92 211.004 44.92Z" fill="#90F0D3"/>
</g>
<g style="mix-blend-mode:multiply" opacity="0.6">
<path d="M208.644 79.98L207.584 79.24L209.644 76.02L206.484 74.64L206.864 73.46L210.164 74.44L210.364 70.78H211.644L211.844 74.44L215.144 73.46L215.524 74.64L212.364 76.02L214.424 79.24L213.364 79.98L211.004 76.98L208.644 79.98Z" fill="#00CC8F"/>
</g>
<g style="mix-blend-mode:multiply" opacity="0.6">
<path d="M81.0039 50.24C79.5506 50.24 78.3972 49.6667 77.5439 48.52C76.7039 47.3733 76.2839 45.7267 76.2839 43.58C76.2839 41.42 76.7039 39.7933 77.5439 38.7C78.3972 37.5933 79.5506 37.04 81.0039 37.04C82.4572 37.04 83.6039 37.5933 84.4439 38.7C85.2972 39.7933 85.7239 41.42 85.7239 43.58C85.7239 45.7267 85.2972 47.3733 84.4439 48.52C83.6039 49.6667 82.4572 50.24 81.0039 50.24ZM81.0039 48.44C81.3772 48.44 81.7239 48.3533 82.0439 48.18C82.3772 47.9933 82.6572 47.7067 82.8839 47.32C83.1239 46.9333 83.3106 46.4333 83.4439 45.82C83.5772 45.1933 83.6439 44.4467 83.6439 43.58C83.6439 42.7133 83.5772 41.98 83.4439 41.38C83.3106 40.7667 83.1239 40.2733 82.8839 39.9C82.6572 39.5267 82.3772 39.26 82.0439 39.1C81.7239 38.9267 81.3772 38.84 81.0039 38.84C80.6172 38.84 80.2639 38.9267 79.9439 39.1C79.6239 39.26 79.3439 39.5267 79.1039 39.9C78.8772 40.2733 78.6972 40.7667 78.5639 41.38C78.4306 41.98 78.3639 42.7133 78.3639 43.58C78.3639 44.4467 78.4306 45.1933 78.5639 45.82C78.6972 46.4333 78.8772 46.9333 79.1039 47.32C79.3439 47.7067 79.6239 47.9933 79.9439 48.18C80.2639 48.3533 80.6172 48.44 81.0039 48.44ZM81.0039 44.92C80.6172 44.92 80.2906 44.7933 80.0239 44.54C79.7572 44.2867 79.6239 43.94 79.6239 43.5C79.6239 43.06 79.7572 42.7133 80.0239 42.46C80.2906 42.2067 80.6172 42.08 81.0039 42.08C81.3906 42.08 81.7172 42.2067 81.9839 42.46C82.2506 42.7133 82.3839 43.06 82.3839 43.5C82.3839 43.94 82.2506 44.2867 81.9839 44.54C81.7172 44.7933 81.3906 44.92 81.0039 44.92Z" fill="#90F0D3"/>
</g>
<g style="mix-blend-mode:multiply" opacity="0.6">
<path d="M76.7639 98V96.12H80.3039V87.76H77.4839V86.32C77.8839 86.2667 78.2439 86.2067 78.5639 86.14C78.8839 86.06 79.1772 85.98 79.4439 85.9C79.7239 85.82 79.9839 85.7267 80.2239 85.62C80.4639 85.5133 80.6972 85.4 80.9239 85.28H82.6039V96.12H85.7239V98H76.7639Z" fill="#00CC8F"/>
</g>
<g style="mix-blend-mode:multiply" opacity="0.6">
<path d="M104.644 47.98L103.584 47.24L105.644 44.02L102.484 42.64L102.864 41.46L106.164 42.44L106.364 38.78H107.644L107.844 42.44L111.144 41.46L111.524 42.64L108.364 44.02L110.424 47.24L109.364 47.98L107.004 44.98L104.644 47.98Z" fill="#00CC8F"/>
</g>
<g style="mix-blend-mode:multiply" opacity="0.6">
<path d="M107.004 94.24C105.551 94.24 104.397 93.6667 103.544 92.52C102.704 91.3733 102.284 89.7267 102.284 87.58C102.284 85.42 102.704 83.7933 103.544 82.7C104.397 81.5933 105.551 81.04 107.004 81.04C108.457 81.04 109.604 81.5933 110.444 82.7C111.297 83.7933 111.724 85.42 111.724 87.58C111.724 89.7267 111.297 91.3733 110.444 92.52C109.604 93.6667 108.457 94.24 107.004 94.24ZM107.004 92.44C107.377 92.44 107.724 92.3533 108.044 92.18C108.377 91.9933 108.657 91.7067 108.884 91.32C109.124 90.9333 109.311 90.4333 109.444 89.82C109.577 89.1933 109.644 88.4467 109.644 87.58C109.644 86.7133 109.577 85.98 109.444 85.38C109.311 84.7667 109.124 84.2733 108.884 83.9C108.657 83.5267 108.377 83.26 108.044 83.1C107.724 82.9267 107.377 82.84 107.004 82.84C106.617 82.84 106.264 82.9267 105.944 83.1C105.624 83.26 105.344 83.5267 105.104 83.9C104.877 84.2733 104.697 84.7667 104.564 85.38C104.431 85.98 104.364 86.7133 104.364 87.58C104.364 88.4467 104.431 89.1933 104.564 89.82C104.697 90.4333 104.877 90.9333 105.104 91.32C105.344 91.7067 105.624 91.9933 105.944 92.18C106.264 92.3533 106.617 92.44 107.004 92.44ZM107.004 88.92C106.617 88.92 106.291 88.7933 106.024 88.54C105.757 88.2867 105.624 87.94 105.624 87.5C105.624 87.06 105.757 86.7133 106.024 86.46C106.291 86.2067 106.617 86.08 107.004 86.08C107.391 86.08 107.717 86.2067 107.984 86.46C108.251 86.7133 108.384 87.06 108.384 87.5C108.384 87.94 108.251 88.2867 107.984 88.54C107.717 88.7933 107.391 88.92 107.004 88.92Z" fill="#90F0D3"/>
</g>
<g style="mix-blend-mode:multiply" opacity="0.6">
<path d="M107.004 138.24C105.551 138.24 104.397 137.667 103.544 136.52C102.704 135.373 102.284 133.727 102.284 131.58C102.284 129.42 102.704 127.793 103.544 126.7C104.397 125.593 105.551 125.04 107.004 125.04C108.457 125.04 109.604 125.593 110.444 126.7C111.297 127.793 111.724 129.42 111.724 131.58C111.724 133.727 111.297 135.373 110.444 136.52C109.604 137.667 108.457 138.24 107.004 138.24ZM107.004 136.44C107.377 136.44 107.724 136.353 108.044 136.18C108.377 135.993 108.657 135.707 108.884 135.32C109.124 134.933 109.311 134.433 109.444 133.82C109.577 133.193 109.644 132.447 109.644 131.58C109.644 130.713 109.577 129.98 109.444 129.38C109.311 128.767 109.124 128.273 108.884 127.9C108.657 127.527 108.377 127.26 108.044 127.1C107.724 126.927 107.377 126.84 107.004 126.84C106.617 126.84 106.264 126.927 105.944 127.1C105.624 127.26 105.344 127.527 105.104 127.9C104.877 128.273 104.697 128.767 104.564 129.38C104.431 129.98 104.364 130.713 104.364 131.58C104.364 132.447 104.431 133.193 104.564 133.82C104.697 134.433 104.877 134.933 105.104 135.32C105.344 135.707 105.624 135.993 105.944 136.18C106.264 136.353 106.617 136.44 107.004 136.44ZM107.004 132.92C106.617 132.92 106.291 132.793 106.024 132.54C105.757 132.287 105.624 131.94 105.624 131.5C105.624 131.06 105.757 130.713 106.024 130.46C106.291 130.207 106.617 130.08 107.004 130.08C107.391 130.08 107.717 130.207 107.984 130.46C108.251 130.713 108.384 131.06 108.384 131.5C108.384 131.94 108.251 132.287 107.984 132.54C107.717 132.793 107.391 132.92 107.004 132.92Z" fill="#00CC8F"/>
</g>
<g style="mix-blend-mode:multiply" opacity="0.6">
<path d="M128.764 50V48.12H132.304V39.76H129.484V38.32C129.884 38.2667 130.244 38.2067 130.564 38.14C130.884 38.06 131.177 37.98 131.444 37.9C131.724 37.82 131.984 37.7267 132.224 37.62C132.464 37.5133 132.697 37.4 132.924 37.28H134.604V48.12H137.724V50H128.764Z" fill="#00CC8F"/>
</g>
<g style="mix-blend-mode:multiply" opacity="0.6">
<path d="M130.644 75.98L129.584 75.24L131.644 72.02L128.484 70.64L128.864 69.46L132.164 70.44L132.364 66.78H133.644L133.844 70.44L137.144 69.46L137.524 70.64L134.364 72.02L136.424 75.24L135.364 75.98L133.004 72.98L130.644 75.98Z" fill="#90F0D3"/>
</g>
<g style="mix-blend-mode:multiply" opacity="0.6">
<path d="M130.644 103.98L129.584 103.24L131.644 100.02L128.484 98.64L128.864 97.46L132.164 98.44L132.364 94.78H133.644L133.844 98.44L137.144 97.46L137.524 98.64L134.364 100.02L136.424 103.24L135.364 103.98L133.004 100.98L130.644 103.98Z" fill="#90F0D3"/>
</g>
<g style="mix-blend-mode:multiply" opacity="0.6">
<path d="M130.644 131.98L129.584 131.24L131.644 128.02L128.484 126.64L128.864 125.46L132.164 126.44L132.364 122.78H133.644L133.844 126.44L137.144 125.46L137.524 126.64L134.364 128.02L136.424 131.24L135.364 131.98L133.004 128.98L130.644 131.98Z" fill="#00CC8F"/>
</g>
<g style="mix-blend-mode:multiply" opacity="0.6">
<path d="M128.764 162V160.12H132.304V151.76H129.484V150.32C129.884 150.267 130.244 150.207 130.564 150.14C130.884 150.06 131.177 149.98 131.444 149.9C131.724 149.82 131.984 149.727 132.224 149.62C132.464 149.513 132.697 149.4 132.924 149.28H134.604V160.12H137.724V162H128.764Z" fill="#90F0D3"/>
</g>
<g style="mix-blend-mode:multiply" opacity="0.6">
<path d="M130.644 187.98L129.584 187.24L131.644 184.02L128.484 182.64L128.864 181.46L132.164 182.44L132.364 178.78H133.644L133.844 182.44L137.144 181.46L137.524 182.64L134.364 184.02L136.424 187.24L135.364 187.98L133.004 184.98L130.644 187.98Z" fill="#90F0D3"/>
</g>
<g style="mix-blend-mode:multiply" opacity="0.6">
<path d="M159.004 50.24C157.551 50.24 156.397 49.6667 155.544 48.52C154.704 47.3733 154.284 45.7267 154.284 43.58C154.284 41.42 154.704 39.7933 155.544 38.7C156.397 37.5933 157.551 37.04 159.004 37.04C160.457 37.04 161.604 37.5933 162.444 38.7C163.297 39.7933 163.724 41.42 163.724 43.58C163.724 45.7267 163.297 47.3733 162.444 48.52C161.604 49.6667 160.457 50.24 159.004 50.24ZM159.004 48.44C159.377 48.44 159.724 48.3533 160.044 48.18C160.377 47.9933 160.657 47.7067 160.884 47.32C161.124 46.9333 161.311 46.4333 161.444 45.82C161.577 45.1933 161.644 44.4467 161.644 43.58C161.644 42.7133 161.577 41.98 161.444 41.38C161.311 40.7667 161.124 40.2733 160.884 39.9C160.657 39.5267 160.377 39.26 160.044 39.1C159.724 38.9267 159.377 38.84 159.004 38.84C158.617 38.84 158.264 38.9267 157.944 39.1C157.624 39.26 157.344 39.5267 157.104 39.9C156.877 40.2733 156.697 40.7667 156.564 41.38C156.431 41.98 156.364 42.7133 156.364 43.58C156.364 44.4467 156.431 45.1933 156.564 45.82C156.697 46.4333 156.877 46.9333 157.104 47.32C157.344 47.7067 157.624 47.9933 157.944 48.18C158.264 48.3533 158.617 48.44 159.004 48.44ZM159.004 44.92C158.617 44.92 158.291 44.7933 158.024 44.54C157.757 44.2867 157.624 43.94 157.624 43.5C157.624 43.06 157.757 42.7133 158.024 42.46C158.291 42.2067 158.617 42.08 159.004 42.08C159.391 42.08 159.717 42.2067 159.984 42.46C160.251 42.7133 160.384 43.06 160.384 43.5C160.384 43.94 160.251 44.2867 159.984 44.54C159.717 44.7933 159.391 44.92 159.004 44.92Z" fill="#00CC8F"/>
</g>
<g style="mix-blend-mode:multiply" opacity="0.6">
<path d="M156.644 83.98L155.584 83.24L157.644 80.02L154.484 78.64L154.864 77.46L158.164 78.44L158.364 74.78H159.644L159.844 78.44L163.144 77.46L163.524 78.64L160.364 80.02L162.424 83.24L161.364 83.98L159.004 80.98L156.644 83.98Z" fill="#00CC8F"/>
</g>
<g style="mix-blend-mode:multiply" opacity="0.6">
<path d="M159.004 122.24C157.551 122.24 156.397 121.667 155.544 120.52C154.704 119.373 154.284 117.727 154.284 115.58C154.284 113.42 154.704 111.793 155.544 110.7C156.397 109.593 157.551 109.04 159.004 109.04C160.457 109.04 161.604 109.593 162.444 110.7C163.297 111.793 163.724 113.42 163.724 115.58C163.724 117.727 163.297 119.373 162.444 120.52C161.604 121.667 160.457 122.24 159.004 122.24ZM159.004 120.44C159.377 120.44 159.724 120.353 160.044 120.18C160.377 119.993 160.657 119.707 160.884 119.32C161.124 118.933 161.311 118.433 161.444 117.82C161.577 117.193 161.644 116.447 161.644 115.58C161.644 114.713 161.577 113.98 161.444 113.38C161.311 112.767 161.124 112.273 160.884 111.9C160.657 111.527 160.377 111.26 160.044 111.1C159.724 110.927 159.377 110.84 159.004 110.84C158.617 110.84 158.264 110.927 157.944 111.1C157.624 111.26 157.344 111.527 157.104 111.9C156.877 112.273 156.697 112.767 156.564 113.38C156.431 113.98 156.364 114.713 156.364 115.58C156.364 116.447 156.431 117.193 156.564 117.82C156.697 118.433 156.877 118.933 157.104 119.32C157.344 119.707 157.624 119.993 157.944 120.18C158.264 120.353 158.617 120.44 159.004 120.44ZM159.004 116.92C158.617 116.92 158.291 116.793 158.024 116.54C157.757 116.287 157.624 115.94 157.624 115.5C157.624 115.06 157.757 114.713 158.024 114.46C158.291 114.207 158.617 114.08 159.004 114.08C159.391 114.08 159.717 114.207 159.984 114.46C160.251 114.713 160.384 115.06 160.384 115.5C160.384 115.94 160.251 116.287 159.984 116.54C159.717 116.793 159.391 116.92 159.004 116.92Z" fill="#00CC8F"/>
</g>
<g style="mix-blend-mode:multiply" opacity="0.6">
<path d="M159.004 158.24C157.551 158.24 156.397 157.667 155.544 156.52C154.704 155.373 154.284 153.727 154.284 151.58C154.284 149.42 154.704 147.793 155.544 146.7C156.397 145.593 157.551 145.04 159.004 145.04C160.457 145.04 161.604 145.593 162.444 146.7C163.297 147.793 163.724 149.42 163.724 151.58C163.724 153.727 163.297 155.373 162.444 156.52C161.604 157.667 160.457 158.24 159.004 158.24ZM159.004 156.44C159.377 156.44 159.724 156.353 160.044 156.18C160.377 155.993 160.657 155.707 160.884 155.32C161.124 154.933 161.311 154.433 161.444 153.82C161.577 153.193 161.644 152.447 161.644 151.58C161.644 150.713 161.577 149.98 161.444 149.38C161.311 148.767 161.124 148.273 160.884 147.9C160.657 147.527 160.377 147.26 160.044 147.1C159.724 146.927 159.377 146.84 159.004 146.84C158.617 146.84 158.264 146.927 157.944 147.1C157.624 147.26 157.344 147.527 157.104 147.9C156.877 148.273 156.697 148.767 156.564 149.38C156.431 149.98 156.364 150.713 156.364 151.58C156.364 152.447 156.431 153.193 156.564 153.82C156.697 154.433 156.877 154.933 157.104 155.32C157.344 155.707 157.624 155.993 157.944 156.18C158.264 156.353 158.617 156.44 159.004 156.44ZM159.004 152.92C158.617 152.92 158.291 152.793 158.024 152.54C157.757 152.287 157.624 151.94 157.624 151.5C157.624 151.06 157.757 150.713 158.024 150.46C158.291 150.207 158.617 150.08 159.004 150.08C159.391 150.08 159.717 150.207 159.984 150.46C160.251 150.713 160.384 151.06 160.384 151.5C160.384 151.94 160.251 152.287 159.984 152.54C159.717 152.793 159.391 152.92 159.004 152.92Z" fill="#90F0D3"/>
</g>
<defs>
<filter id="filter0_f" x="119.001" y="276.943" width="218.664" height="31.1108" filterUnits="userSpaceOnUse" color-interpolation-filters="sRGB">
<feFlood flood-opacity="0" result="BackgroundImageFix"/>
<feBlend mode="normal" in="SourceGraphic" in2="BackgroundImageFix" result="shape"/>
<feGaussianBlur stdDeviation="5.33328" result="effect1_foregroundBlur"/>
</filter>
<filter id="filter1_f" x="0.163502" y="0.163013" width="296.271" height="261.238" filterUnits="userSpaceOnUse" color-interpolation-filters="sRGB">
<feFlood flood-opacity="0" result="BackgroundImageFix"/>
<feBlend mode="normal" in="SourceGraphic" in2="BackgroundImageFix" result="shape"/>
<feGaussianBlur stdDeviation="15.4185" result="effect1_foregroundBlur"/>
</filter>
<filter id="filter2_f" x="130.106" y="233.661" width="60.8625" height="22.1514" filterUnits="userSpaceOnUse" color-interpolation-filters="sRGB">
<feFlood flood-opacity="0" result="BackgroundImageFix"/>
<feBlend mode="normal" in="SourceGraphic" in2="BackgroundImageFix" result="shape"/>
<feGaussianBlur stdDeviation="4.43183" result="effect1_foregroundBlur"/>
</filter>
<linearGradient id="paint0_linear" x1="90.5573" y1="292.943" x2="351.888" y2="292.943" gradientUnits="userSpaceOnUse">
<stop stop-color="#3512B2" stop-opacity="0.3"/>
<stop offset="0.56717" stop-color="#3512B2"/>
<stop offset="1" stop-color="#3512B2" stop-opacity="0.3"/>
</linearGradient>
<linearGradient id="paint1_linear" x1="174.73" y1="-153.552" x2="174.73" y2="236.732" gradientUnits="userSpaceOnUse">
<stop stop-color="#E3FAF3" stop-opacity="0"/>
<stop offset="1" stop-color="#90F0D3"/>
</linearGradient>
<radialGradient id="paint2_radial" cx="0" cy="0" r="1" gradientUnits="userSpaceOnUse" gradientTransform="translate(166.001 195.501) rotate(-5.0974) scale(106.923 93.3379)">
<stop stop-color="#90F0D3"/>
<stop offset="1" stop-color="#6851FF"/>
</radialGradient>
<linearGradient id="paint3_linear" x1="161.109" y1="237.113" x2="161.109" y2="245.184" gradientUnits="userSpaceOnUse">
<stop stop-color="#6851FF"/>
<stop offset="0.791667" stop-color="#3512B2"/>
</linearGradient>
<linearGradient id="paint4_linear" x1="147.655" y1="200.793" x2="147.655" y2="237.113" gradientUnits="userSpaceOnUse">
<stop stop-color="#6851FF"/>
<stop offset="1" stop-color="#3512B2"/>
</linearGradient>
<linearGradient id="paint5_linear" x1="153.221" y1="235.268" x2="153.221" y2="240.497" gradientUnits="userSpaceOnUse">
<stop stop-color="#522FD4"/>
<stop offset="0.369792" stop-color="#9383FF"/>
<stop offset="0.677083" stop-color="#522FD4"/>
</linearGradient>
<linearGradient id="paint6_linear" x1="237.21" y1="230.146" x2="274.251" y2="230.146" gradientUnits="userSpaceOnUse">
<stop stop-color="#522FD4" stop-opacity="0.6"/>
<stop offset="1" stop-color="#6851FF"/>
</linearGradient>
</defs>
</svg>
