<svg width="77" height="61" viewBox="0 0 77 61" fill="none" xmlns="http://www.w3.org/2000/svg">
<path d="M51.7834 31.6648C54.3926 36.1841 52.8442 41.9628 48.325 44.572C43.8057 47.1812 38.0269 45.6328 35.4177 41.1135L29.6881 31.1896C24.4697 22.1511 27.5666 10.5936 36.6051 5.37518L51.7834 31.6648Z" fill="url(#paint0_linear)"/>
<path fill-rule="evenodd" clip-rule="evenodd" d="M10.035 25.8883L8.95844 25.5998C7.99322 25.3412 7.00109 25.914 6.74246 26.8792C6.62446 27.3196 6.67954 27.7656 6.86601 28.145L4.48695 27.5075C3.52173 27.2489 2.5296 27.8217 2.27097 28.7869C2.01234 29.7521 2.58515 30.7443 3.55037 31.0029L6.03279 31.6681C5.61774 31.8976 5.29293 32.289 5.16048 32.7833C4.90185 33.7485 5.47465 34.7406 6.43987 34.9992L24.4626 39.8284C25.4278 40.087 26.42 39.5142 26.6786 38.549C26.8499 37.9097 26.6564 37.2586 26.2258 36.8167C26.8197 36.6492 27.3128 36.1821 27.4841 35.5428C27.6457 34.9397 27.4827 34.3261 27.1023 33.8875C27.6511 33.6979 28.099 33.248 28.2606 32.645C28.4222 32.0417 28.2591 31.4279 27.8783 30.9893C28.4277 30.7999 28.8762 30.3498 29.038 29.7463C29.2966 28.7811 28.7238 27.7889 27.7586 27.5303L12.1267 23.3418C11.1615 23.0831 10.1694 23.6559 9.91075 24.6212C9.79261 25.0621 9.84797 25.5086 10.035 25.8883Z" fill="url(#paint1_linear)"/>
<path d="M6.85156 35.7175C6.85156 37.9381 8.65171 39.7383 10.8723 39.7383L16.5014 39.7383L16.5014 35.7175L6.85156 35.7175Z" fill="url(#paint2_linear)"/>
<path fill-rule="evenodd" clip-rule="evenodd" d="M66.477 54.2773C67.1955 54.2773 67.9105 54.1765 68.6009 53.9777C72.9209 52.7339 75.2523 48.0607 73.6478 43.8613L69.9278 34.1246C68.502 30.3927 64.9212 27.9276 60.9262 27.9276C60.8854 27.9276 60.8447 27.9278 60.804 27.9283C60.769 27.928 60.7339 27.9278 60.6988 27.9278L26.8205 27.9278C21.6232 27.9278 17.4099 32.141 17.4099 37.3384C17.4099 42.5357 21.6231 46.749 26.8205 46.749L38.2583 46.749C38.4065 47.3718 38.8008 47.9347 39.399 48.2801C40.0229 48.6403 40.7407 48.6902 41.3738 48.4776C41.5062 49.1324 41.9084 49.7294 42.5324 50.0897C43.6862 50.7559 45.1617 50.3605 45.8278 49.2067L47.2468 46.749L52.558 46.749C54.6725 51.2001 59.2093 54.2773 64.4649 54.2773L66.477 54.2773Z" fill="url(#paint3_linear)"/>
<path d="M12.4805 35.7175C12.4805 37.9381 14.2806 39.7383 16.5012 39.7383L22.1303 39.7383L22.1303 35.7175L12.4805 35.7175Z" fill="url(#paint4_linear)"/>
<circle opacity="0.3" r="6.5" transform="matrix(4.37114e-08 -1 -1 -4.37114e-08 62.4297 42.7969)" fill="#AD2B03"/>
<circle r="5.83008" transform="matrix(4.37114e-08 -1 -1 -4.37114e-08 61.7715 43.4297)" fill="white"/>
<circle r="2" transform="matrix(4.37114e-08 -1 -1 -4.37114e-08 64.1289 46.166)" fill="#18171A"/>
<path d="M73.3433 59.3915C74.8817 58.5033 75.4088 56.536 74.5206 54.9975L72.3092 51.1673L69.5235 52.7756L73.3433 59.3915Z" fill="url(#paint5_linear)"/>
<path d="M72.1372 57.3019C70.5987 58.1901 68.6315 57.663 67.7433 56.1245L67.2574 55.283C66.9706 54.7862 67.1408 54.1509 67.6376 53.8641L69.5237 52.7752L72.1372 57.3019Z" fill="url(#paint6_linear)"/>
<path d="M49.7834 30.6648C52.3926 35.1841 50.8442 40.9628 46.3249 43.572C41.8057 46.1812 36.0269 44.6328 33.4177 40.1135L25.4768 26.3594C20.2583 17.3209 23.3552 5.7633 32.3937 0.544895L49.7834 30.6648Z" fill="url(#paint7_linear)"/>
<path fill-rule="evenodd" clip-rule="evenodd" d="M50.9301 33.8774C50.7518 32.7764 50.3742 31.6885 49.7834 30.6652L48.813 28.9844C48.4097 29.0169 48.0072 29.1372 47.6335 29.3529C47.3667 29.507 47.1346 29.6981 46.9401 29.9161C46.0647 28.9958 44.6431 28.7574 43.4946 29.4205C43.0736 29.6636 42.7391 29.9991 42.502 30.3865C41.6204 29.5896 40.2921 29.4117 39.2074 30.038C38.9404 30.1921 38.7082 30.3834 38.5136 30.6016C37.6382 29.682 36.2171 29.444 35.069 30.1069C34.5457 30.409 34.1562 30.8537 33.9211 31.3636C33.0864 30.2076 31.4954 29.8482 30.2338 30.5766C29.5513 30.9706 29.0963 31.6073 28.9148 32.3148L30.8835 35.7247C31.5869 35.9213 32.3658 35.8455 33.0483 35.4515C33.5716 35.1494 33.9611 34.7047 34.1962 34.1948C35.0309 35.3508 36.6219 35.7101 37.8835 34.9818C38.1505 34.8276 38.3827 34.6363 38.5773 34.4182C39.4527 35.3378 40.8738 35.5758 42.0219 34.9129C42.443 34.6698 42.7774 34.3344 43.0145 33.9469C43.8962 34.7439 45.2245 34.9217 46.3092 34.2954C46.576 34.1414 46.8081 33.9502 47.0026 33.7323C47.878 34.6525 49.2996 34.8909 50.4481 34.2278C50.6241 34.1262 50.7851 34.0084 50.9301 33.8774Z" fill="url(#paint8_linear)"/>
<path fill-rule="evenodd" clip-rule="evenodd" d="M44.7934 22.0196L47.3374 26.4258C47.1076 26.7588 46.8022 27.0473 46.4285 27.263C45.28 27.9261 43.8585 27.6877 42.9831 26.7675C42.7886 26.9854 42.5565 27.1766 42.2897 27.3306C41.2053 27.9567 39.8775 27.7792 38.9959 26.9829C38.7588 27.3704 38.4242 27.706 38.0031 27.9492C36.8546 28.6123 35.433 28.3739 34.5576 27.4536C34.363 27.6717 34.1309 27.8629 33.864 28.017C32.6024 28.7454 31.0114 28.3861 30.1767 27.23C29.9416 27.7399 29.5521 28.1846 29.0288 28.4867C28.3463 28.8808 27.5674 28.9565 26.864 28.7599L25.4781 26.3595C25.276 26.0094 25.0864 25.6556 24.909 25.2984C25.0991 24.6117 25.5484 23.9963 26.2143 23.6118C27.4759 22.8835 29.0669 23.2428 29.9016 24.3988C30.1367 23.8889 30.5263 23.4442 31.0495 23.1421C32.198 22.479 33.6196 22.7174 34.4949 23.6376C34.6895 23.4196 34.9216 23.2284 35.1885 23.0743C36.2729 22.4482 37.6007 22.6257 38.4823 23.422C38.7194 23.0345 39.054 22.6989 39.4751 22.4557C40.6236 21.7927 42.0452 22.031 42.9206 22.9513C43.1151 22.7333 43.3472 22.5421 43.614 22.3881C43.9876 22.1724 44.3902 22.0521 44.7934 22.0196Z" fill="url(#paint9_linear)"/>
<path fill-rule="evenodd" clip-rule="evenodd" d="M40.7739 15.0567L43.3178 19.4629C43.0881 19.7959 42.7826 20.0844 42.409 20.3001C41.261 20.9629 39.8401 20.725 38.9646 19.8056C38.77 20.0237 38.5379 20.215 38.2709 20.3691C37.1862 20.9953 35.8579 20.8175 34.9763 20.0206C34.7392 20.408 34.4047 20.7435 33.9837 20.9866C32.8352 21.6496 31.4136 21.4113 30.5382 20.491C30.3437 20.7091 30.1115 20.9003 29.8446 21.0544C28.5834 21.7825 26.9929 21.4236 26.158 20.2684C25.9229 20.7783 25.5333 21.2231 25.0101 21.5252C24.5693 21.7796 24.0883 21.9014 23.6135 21.9027C23.1107 20.0713 22.896 18.1995 22.9529 16.3485C24.0412 16.0898 25.2081 16.5035 25.8822 17.4363C26.1173 16.9264 26.5068 16.4816 27.0301 16.1795C28.1786 15.5164 29.6002 15.7548 30.4756 16.675C30.6701 16.457 30.9023 16.2658 31.1692 16.1117C32.2539 15.4854 33.5821 15.6632 34.4638 16.4602C34.7009 16.0727 35.0353 15.7373 35.4564 15.4942C36.6044 14.8314 38.0253 15.0693 38.9008 15.9887C39.0954 15.7706 39.3275 15.5793 39.5945 15.4252C39.9681 15.2095 40.3707 15.0892 40.7739 15.0567Z" fill="url(#paint10_linear)"/>
<defs>
<linearGradient id="paint0_linear" x1="48.325" y1="44.572" x2="28.4223" y2="10.0996" gradientUnits="userSpaceOnUse">
<stop stop-color="#AD2B03"/>
<stop offset="1" stop-color="#18171A"/>
</linearGradient>
<linearGradient id="paint1_linear" x1="15.6895" y1="29.334" x2="3.03308" y2="25.9427" gradientUnits="userSpaceOnUse">
<stop stop-color="#006647"/>
<stop offset="1" stop-color="#00CC8F"/>
</linearGradient>
<linearGradient id="paint2_linear" x1="11.6765" y1="39.7383" x2="11.6765" y2="35.7175" gradientUnits="userSpaceOnUse">
<stop stop-color="#FADEA7"/>
<stop offset="1" stop-color="#A36B14"/>
</linearGradient>
<linearGradient id="paint3_linear" x1="74.1563" y1="41.1025" x2="17.4099" y2="41.1025" gradientUnits="userSpaceOnUse">
<stop stop-color="#FFB5A1"/>
<stop offset="0.588542" stop-color="#FC5C30"/>
</linearGradient>
<linearGradient id="paint4_linear" x1="17.3054" y1="39.7383" x2="17.3054" y2="35.7175" gradientUnits="userSpaceOnUse">
<stop stop-color="#FCF4E5"/>
<stop offset="1" stop-color="#DBA550"/>
</linearGradient>
<linearGradient id="paint5_linear" x1="74.2191" y1="54.4752" x2="71.4334" y2="56.0835" gradientUnits="userSpaceOnUse">
<stop stop-color="#18171A"/>
<stop offset="1" stop-color="#4E4D52"/>
</linearGradient>
<linearGradient id="paint6_linear" x1="68.0448" y1="56.6468" x2="70.8305" y2="55.0385" gradientUnits="userSpaceOnUse">
<stop stop-color="#18171A"/>
<stop offset="1" stop-color="#77767A"/>
</linearGradient>
<linearGradient id="paint7_linear" x1="46.3249" y1="43.572" x2="24.2108" y2="5.26927" gradientUnits="userSpaceOnUse">
<stop stop-color="#D43100"/>
<stop offset="1" stop-color="#3512B2"/>
</linearGradient>
<linearGradient id="paint8_linear" x1="43.3093" y1="38.3494" x2="36.6747" y2="26.8579" gradientUnits="userSpaceOnUse">
<stop stop-color="#FADEA7"/>
<stop offset="1" stop-color="#FADEA7" stop-opacity="0"/>
</linearGradient>
<linearGradient id="paint9_linear" x1="39.2898" y1="31.3845" x2="32.6552" y2="19.8932" gradientUnits="userSpaceOnUse">
<stop stop-color="#FFB5A1"/>
<stop offset="1" stop-color="#FFB5A1" stop-opacity="0"/>
</linearGradient>
<linearGradient id="paint10_linear" x1="35.5358" y1="24.2684" x2="28.9607" y2="12.8799" gradientUnits="userSpaceOnUse">
<stop stop-color="#EDEBFF"/>
<stop offset="1" stop-color="#EDEBFF" stop-opacity="0"/>
</linearGradient>
</defs>
</svg>
