<svg width="76" height="61" viewBox="0 0 76 61" fill="none" xmlns="http://www.w3.org/2000/svg">
  <path d="M24.4744 31.6648C21.8652 36.1841 23.4136 41.9628 27.9329 44.572C32.4521 47.1812 38.2309 45.6328 40.8401 41.1135L46.5697 31.1896C51.7881 22.1511 48.6912 10.5936 39.6527 5.37518L24.4744 31.6648Z" fill="url(#paint0_linear)"/>
  <path fill-rule="evenodd" clip-rule="evenodd" d="M66.2228 25.8883L67.2994 25.5998C68.2646 25.3412 69.2567 25.914 69.5154 26.8792C69.6334 27.3196 69.5783 27.7656 69.3918 28.145L71.7709 27.5075C72.7361 27.2489 73.7282 27.8217 73.9868 28.7869C74.2455 29.7521 73.6727 30.7443 72.7074 31.0029L70.225 31.6681C70.6401 31.8976 70.9649 32.289 71.0973 32.7833C71.356 33.7485 70.7832 34.7406 69.8179 34.9992L51.7952 39.8284C50.83 40.087 49.8379 39.5142 49.5792 38.549C49.4079 37.9097 49.6014 37.2586 50.032 36.8167C49.4381 36.6492 48.945 36.1821 48.7737 35.5428C48.6121 34.9397 48.7751 34.3261 49.1555 33.8875C48.6068 33.6979 48.1588 33.248 47.9972 32.645C47.8356 32.0417 47.9987 31.4279 48.3795 30.9893C47.8301 30.7999 47.3816 30.3498 47.2199 29.7463C46.9612 28.7811 47.534 27.7889 48.4992 27.5303L64.1311 23.3418C65.0963 23.0831 66.0884 23.6559 66.3471 24.6212C66.4652 25.0621 66.4098 25.5086 66.2228 25.8883Z" fill="url(#paint1_linear)"/>
  <path d="M69.4062 35.7175C69.4062 37.9381 67.6061 39.7383 65.3855 39.7383L59.7565 39.7383L59.7565 35.7175L69.4062 35.7175Z" fill="url(#paint2_linear)"/>
  <path fill-rule="evenodd" clip-rule="evenodd" d="M9.78077 54.2773C9.06227 54.2773 8.34733 54.1765 7.65688 53.9777C3.33691 52.7339 1.00554 48.0607 2.60998 43.8613L6.33003 34.1246C7.75586 30.3927 11.3366 27.9276 15.3316 27.9276C15.3724 27.9276 15.4131 27.9278 15.4538 27.9283C15.4889 27.928 15.5239 27.9278 15.5591 27.9278L49.4373 27.9278C54.6347 27.9278 58.8479 32.141 58.8479 37.3384C58.8479 42.5357 54.6347 46.749 49.4373 46.749L37.9995 46.749C37.8513 47.3718 37.457 47.9347 36.8588 48.2801C36.2349 48.6403 35.5171 48.6902 34.884 48.4776C34.7516 49.1324 34.3494 49.7294 33.7254 50.0897C32.5716 50.7559 31.0961 50.3605 30.43 49.2067L29.011 46.749L23.6999 46.749C21.5853 51.2001 17.0485 54.2773 11.7929 54.2773L9.78077 54.2773Z" fill="url(#paint3_linear)"/>
  <path d="M63.7773 35.7175C63.7773 37.9381 61.9772 39.7383 59.7566 39.7383L54.1276 39.7383L54.1276 35.7175L63.7773 35.7175Z" fill="url(#paint4_linear)"/>
  <circle opacity="0.3" cx="13.8281" cy="42.7969" r="6.5" transform="rotate(-90 13.8281 42.7969)" fill="#AD2B03"/>
  <circle cx="14.4863" cy="43.4297" r="5.83008" transform="rotate(-90 14.4863 43.4297)" fill="white"/>
  <circle cx="12.1289" cy="46.166" r="2" transform="rotate(-90 12.1289 46.166)" fill="#18171A"/>
  <path d="M2.91456 59.3915C1.37609 58.5033 0.848966 56.536 1.7372 54.9975L3.94862 51.1673L6.73427 52.7756L2.91456 59.3915Z" fill="url(#paint5_linear)"/>
  <path d="M4.1206 57.3019C5.65907 58.1901 7.62631 57.663 8.51455 56.1245L9.00039 55.283C9.28722 54.7862 9.117 54.1509 8.6202 53.8641L6.73408 52.7752L4.1206 57.3019Z" fill="url(#paint6_linear)"/>
  <path d="M26.4744 30.6648C23.8652 35.1841 25.4136 40.9628 29.9329 43.572C34.4521 46.1812 40.2309 44.6328 42.8401 40.1135L50.7811 26.3594C55.9995 17.3209 52.9026 5.7633 43.8641 0.544895L26.4744 30.6648Z" fill="url(#paint7_linear)"/>
  <path fill-rule="evenodd" clip-rule="evenodd" d="M25.3278 33.8774C25.506 32.7764 25.8837 31.6885 26.4744 30.6652L27.4449 28.9844C27.8481 29.0169 28.2506 29.1372 28.6243 29.3529C28.8911 29.507 29.1232 29.6981 29.3177 29.9161C30.1931 28.9958 31.6147 28.7574 32.7632 29.4205C33.1842 29.6636 33.5187 29.9991 33.7558 30.3865C34.6374 29.5896 35.9657 29.4117 37.0504 30.038C37.3174 30.1921 37.5496 30.3834 37.7442 30.6016C38.6196 29.682 40.0407 29.444 41.1888 30.1069C41.7121 30.409 42.1016 30.8537 42.3367 31.3636C43.1714 30.2076 44.7625 29.8482 46.024 30.5766C46.7065 30.9706 47.1615 31.6073 47.343 32.3148L45.3743 35.7247C44.6709 35.9213 43.892 35.8455 43.2095 35.4515C42.6863 35.1494 42.2967 34.7047 42.0616 34.1948C41.2269 35.3508 39.6359 35.7101 38.3743 34.9818C38.1073 34.8276 37.8751 34.6363 37.6805 34.4182C36.8051 35.3378 35.384 35.5758 34.2359 34.9129C33.8148 34.6698 33.4804 34.3344 33.2433 33.9469C32.3616 34.7439 31.0333 34.9217 29.9487 34.2954C29.6818 34.1414 29.4498 33.9502 29.2552 33.7323C28.3798 34.6525 26.9583 34.8909 25.8097 34.2278C25.6337 34.1262 25.4728 34.0084 25.3278 33.8774Z" fill="url(#paint8_linear)"/>
  <path fill-rule="evenodd" clip-rule="evenodd" d="M31.4644 22.0196L28.9204 26.4258C29.1502 26.7588 29.4556 27.0473 29.8293 27.263C30.9778 27.9261 32.3993 27.6877 33.2747 26.7675C33.4692 26.9854 33.7013 27.1766 33.9681 27.3306C35.0525 27.9567 36.3803 27.7792 37.262 26.9829C37.4991 27.3704 37.8336 27.706 38.2548 27.9492C39.4033 28.6123 40.8248 28.3739 41.7002 27.4536C41.8948 27.6717 42.1269 27.8629 42.3938 28.017C43.6554 28.7454 45.2464 28.3861 46.0811 27.23C46.3162 27.7399 46.7058 28.1846 47.229 28.4867C47.9115 28.8808 48.6904 28.9565 49.3938 28.7599L50.7797 26.3595C50.9818 26.0094 51.1715 25.6556 51.3488 25.2984C51.1587 24.6117 50.7094 23.9963 50.0435 23.6118C48.7819 22.8835 47.1909 23.2428 46.3562 24.3988C46.1211 23.8889 45.7316 23.4442 45.2083 23.1421C44.0598 22.479 42.6383 22.7174 41.7629 23.6376C41.5683 23.4196 41.3362 23.2284 41.0693 23.0743C39.9849 22.4482 38.6571 22.6257 37.7755 23.422C37.5384 23.0345 37.2038 22.6989 36.7827 22.4557C35.6342 21.7927 34.2126 22.031 33.3372 22.9513C33.1427 22.7333 32.9106 22.5421 32.6438 22.3881C32.2702 22.1724 31.8676 22.0521 31.4644 22.0196Z" fill="url(#paint9_linear)"/>
  <path fill-rule="evenodd" clip-rule="evenodd" d="M35.4839 15.0567L32.94 19.4629C33.1697 19.7959 33.4752 20.0844 33.8488 20.3001C34.9969 20.9629 36.4178 20.725 37.2932 19.8056C37.4878 20.0237 37.72 20.215 37.9869 20.3691C39.0716 20.9953 40.3999 20.8175 41.2815 20.0206C41.5186 20.408 41.8531 20.7435 42.2741 20.9866C43.4226 21.6496 44.8442 21.4113 45.7196 20.491C45.9141 20.7091 46.1463 20.9003 46.4132 21.0544C47.6744 21.7825 49.2649 21.4236 50.0998 20.2684C50.3349 20.7783 50.7245 21.2231 51.2477 21.5252C51.6885 21.7796 52.1695 21.9014 52.6444 21.9027C53.1471 20.0713 53.3618 18.1995 53.3049 16.3485C52.2166 16.0898 51.0498 16.5035 50.3756 17.4363C50.1405 16.9264 49.751 16.4816 49.2277 16.1795C48.0792 15.5164 46.6576 15.7548 45.7823 16.675C45.5877 16.457 45.3556 16.2658 45.0886 16.1117C44.004 15.4854 42.6757 15.6632 41.794 16.4602C41.5569 16.0727 41.2225 15.7373 40.8014 15.4942C39.6534 14.8314 38.2325 15.0693 37.357 15.9887C37.1624 15.7706 36.9303 15.5793 36.6633 15.4252C36.2897 15.2095 35.8872 15.0892 35.4839 15.0567Z" fill="url(#paint10_linear)"/>
  <defs>
    <linearGradient id="paint0_linear" x1="27.9329" y1="44.572" x2="47.8356" y2="10.0996" gradientUnits="userSpaceOnUse">
      <stop stop-color="#AD2B03"/>
      <stop offset="1" stop-color="#18171A"/>
    </linearGradient>
    <linearGradient id="paint1_linear" x1="60.5683" y1="29.334" x2="73.2247" y2="25.9427" gradientUnits="userSpaceOnUse">
      <stop stop-color="#006647"/>
      <stop offset="1" stop-color="#00CC8F"/>
    </linearGradient>
    <linearGradient id="paint2_linear" x1="64.5814" y1="39.7383" x2="64.5814" y2="35.7175" gradientUnits="userSpaceOnUse">
      <stop stop-color="#FADEA7"/>
      <stop offset="1" stop-color="#A36B14"/>
    </linearGradient>
    <linearGradient id="paint3_linear" x1="2.10156" y1="41.1025" x2="58.8479" y2="41.1025" gradientUnits="userSpaceOnUse">
      <stop stop-color="#FFB5A1"/>
      <stop offset="0.588542" stop-color="#FC5C30"/>
    </linearGradient>
    <linearGradient id="paint4_linear" x1="58.9524" y1="39.7383" x2="58.9524" y2="35.7175" gradientUnits="userSpaceOnUse">
      <stop stop-color="#FCF4E5"/>
      <stop offset="1" stop-color="#DBA550"/>
    </linearGradient>
    <linearGradient id="paint5_linear" x1="2.03876" y1="54.4752" x2="4.82442" y2="56.0835" gradientUnits="userSpaceOnUse">
      <stop stop-color="#18171A"/>
      <stop offset="1" stop-color="#4E4D52"/>
    </linearGradient>
    <linearGradient id="paint6_linear" x1="8.21299" y1="56.6468" x2="5.42734" y2="55.0385" gradientUnits="userSpaceOnUse">
      <stop stop-color="#18171A"/>
      <stop offset="1" stop-color="#77767A"/>
    </linearGradient>
    <linearGradient id="paint7_linear" x1="29.9329" y1="43.572" x2="52.047" y2="5.26927" gradientUnits="userSpaceOnUse">
      <stop stop-color="#D43100"/>
      <stop offset="1" stop-color="#3512B2"/>
    </linearGradient>
    <linearGradient id="paint8_linear" x1="32.9485" y1="38.3494" x2="39.5831" y2="26.8579" gradientUnits="userSpaceOnUse">
      <stop stop-color="#FADEA7"/>
      <stop offset="1" stop-color="#FADEA7" stop-opacity="0"/>
    </linearGradient>
    <linearGradient id="paint9_linear" x1="36.968" y1="31.3845" x2="43.6026" y2="19.8932" gradientUnits="userSpaceOnUse">
      <stop stop-color="#FFB5A1"/>
      <stop offset="1" stop-color="#FFB5A1" stop-opacity="0"/>
    </linearGradient>
    <linearGradient id="paint10_linear" x1="40.7221" y1="24.2684" x2="47.2972" y2="12.8799" gradientUnits="userSpaceOnUse">
      <stop stop-color="#EDEBFF"/>
      <stop offset="1" stop-color="#EDEBFF" stop-opacity="0"/>
    </linearGradient>
  </defs>
</svg>
