<svg width="195" height="555" viewBox="0 0 195 555" fill="none" xmlns="http://www.w3.org/2000/svg">
  <path d="M190.819 231.247C188.77 208.608 169.865 191.274 147.226 191.274V277.423C157.516 261.678 179.923 260.122 192.274 274.295L195 277.423L190.819 231.247Z" fill="url(#paint0_linear)"/>
  <path d="M4.18077 231.247C6.23048 208.608 25.1346 191.274 47.7743 191.274V277.423C37.4836 261.678 15.0767 260.122 2.7256 274.295L0 277.423L4.18077 231.247Z" fill="url(#paint1_linear)"/>
  <g filter="url(#filter0_f)">
    <path d="M97.9697 546C100.481 546 102.635 544.207 103.09 541.737L152.641 272.579C158.93 238.42 132.703 206.924 97.9697 206.924C63.2367 206.924 37.0094 238.42 43.298 272.579L92.8498 541.737C93.3046 544.207 95.4581 546 97.9697 546Z" fill="url(#paint2_linear)"/>
  </g>
  <ellipse cx="97.4933" cy="119.407" rx="39.2589" ry="39.4192" fill="url(#paint3_linear)"/>
  <rect x="61.4541" y="95.7566" width="2.34871" height="34.1948" rx="1.17436" fill="white"/>
  <rect x="131.322" y="95.7566" width="2.34871" height="34.1948" rx="1.17436" fill="white"/>
  <rect x="55" y="107.548" width="82.792" height="48.3443" rx="12.7355" fill="url(#paint4_linear)"/>
  <path d="M61.3066 129.425C61.3066 109.954 77.0267 94.1697 96.4185 94.1697C115.81 94.1697 131.53 109.954 131.53 129.425V168.978C131.53 171.529 128.366 172.698 126.72 170.755L116.054 158.17C114.964 156.883 112.985 156.883 111.895 158.17L98.4983 173.978C97.4079 175.264 95.4291 175.264 94.3386 173.978L80.9424 158.17C79.852 156.883 77.8732 156.883 76.7827 158.17L66.1174 170.755C64.4712 172.698 61.3066 171.529 61.3066 168.978V129.425Z" fill="url(#paint5_radial)"/>
  <g filter="url(#filter1_d)">
    <path fill-rule="evenodd" clip-rule="evenodd" d="M58.5718 126.233C58.5718 105.117 75.6893 88 96.8047 88C117.92 88 135.038 105.117 135.038 126.233V126.845C136.801 127.262 138.112 128.847 138.112 130.737V132.366C138.112 134.575 136.321 136.366 134.112 136.366H133.685C130.797 143.767 123.597 149.011 115.174 149.011H78.4359C70.012 149.011 62.8129 143.767 59.9244 136.366H59.4902C57.2811 136.366 55.4902 134.575 55.4902 132.366V130.737C55.4902 128.844 56.8054 127.258 58.5718 126.843V126.233Z" fill="url(#paint6_linear)"/>
  </g>
  <rect x="89.6289" y="143.513" width="14.0923" height="2.35826" rx="1.17913" fill="#BDB2FF"/>
  <g filter="url(#filter2_ii)">
    <path d="M66.0742 124.893C66.0742 107.925 79.8293 94.1697 96.7971 94.1697C113.765 94.1697 127.52 107.925 127.52 124.893V131.905C127.52 136.809 123.545 140.784 118.641 140.784H74.9532C70.0495 140.784 66.0742 136.809 66.0742 131.905V124.893Z" fill="url(#paint7_linear)"/>
  </g>
  <path d="M92.7149 123.647C92.7149 128.569 88.7412 125.704 83.8394 125.704C78.9376 125.704 74.9639 128.569 74.9639 123.647C74.9639 118.726 78.9376 114.736 83.8394 114.736C88.7412 114.736 92.7149 118.726 92.7149 123.647Z" fill="white"/>
  <ellipse cx="83.8334" cy="122.275" rx="2.04819" ry="2.05652" fill="#18171A"/>
  <path d="M118.655 123.647C118.655 128.569 114.682 125.704 109.78 125.704C104.878 125.704 100.904 128.569 100.904 123.647C100.904 118.725 104.878 114.735 109.78 114.735C114.682 114.735 118.655 118.725 118.655 123.647Z" fill="white"/>
  <ellipse cx="109.77" cy="122.276" rx="2.04819" ry="2.05652" fill="#18171A"/>
  <path fill-rule="evenodd" clip-rule="evenodd" d="M168.345 126.004C161.299 78.6966 138.21 34.551 103.116 2.20259C99.9303 -0.734197 95.0358 -0.734195 91.8498 2.20259C56.7565 34.551 33.6667 78.6966 26.6215 126.004C23.5269 146.783 23.4827 168.206 26.5772 188.985L35.7054 250.28C36.8018 257.642 43.0993 263.09 50.5131 263.09H144.453C151.867 263.09 158.164 257.642 159.261 250.28L168.389 188.985C171.483 168.206 171.439 146.783 168.345 126.004ZM97.4942 159.358C119.176 159.358 136.753 141.709 136.753 119.939C136.753 98.168 119.176 80.5194 97.4942 80.5194C75.8121 80.5194 58.2353 98.168 58.2353 119.939C58.2353 141.709 75.8121 159.358 97.4942 159.358Z" fill="url(#paint8_linear)"/>
  <path fill-rule="evenodd" clip-rule="evenodd" d="M168.345 126.004C161.299 78.6966 138.21 34.551 103.116 2.20259C99.9303 -0.734197 95.0358 -0.734195 91.8498 2.20259C56.7565 34.551 33.6667 78.6966 26.6215 126.004C23.5269 146.783 23.4827 168.206 26.5772 188.985L35.7054 250.28C36.8018 257.642 43.0993 263.09 50.5131 263.09H144.453C151.867 263.09 158.164 257.642 159.261 250.28L168.389 188.985C171.483 168.206 171.439 146.783 168.345 126.004ZM97.4942 159.358C119.176 159.358 136.753 141.709 136.753 119.939C136.753 98.168 119.176 80.5194 97.4942 80.5194C75.8121 80.5194 58.2353 98.168 58.2353 119.939C58.2353 141.709 75.8121 159.358 97.4942 159.358Z" fill="url(#paint9_linear)" fill-opacity="0.2"/>
  <g filter="url(#filter3_d)">
    <ellipse cx="97.1046" cy="119.981" rx="48.5519" ry="48.6879" fill="url(#paint10_radial)"/>
    <path d="M140.656 119.981C140.656 144.122 121.144 163.669 97.1046 163.669C73.0648 163.669 53.5527 144.122 53.5527 119.981C53.5527 95.8395 73.0648 76.293 97.1046 76.293C121.144 76.293 140.656 95.8395 140.656 119.981Z" stroke="url(#paint11_linear)" stroke-width="10"/>
  </g>
  <g filter="url(#filter4_d)">
    <path d="M83.2305 205.958C83.2305 197.848 89.7782 191.274 97.8553 191.274C105.932 191.274 112.48 197.848 112.48 205.958V278.402C108.472 263.377 87.2387 263.377 83.2305 278.402V205.958Z" fill="url(#paint12_linear)"/>
  </g>
  <defs>
    <filter id="filter0_f" x="33.403" y="197.963" width="129.134" height="356.997" filterUnits="userSpaceOnUse" color-interpolation-filters="sRGB">
      <feFlood flood-opacity="0" result="BackgroundImageFix"/>
      <feBlend mode="normal" in="SourceGraphic" in2="BackgroundImageFix" result="shape"/>
      <feGaussianBlur stdDeviation="4.48013" result="effect1_foregroundBlur"/>
    </filter>
    <filter id="filter1_d" x="50.4902" y="84" width="94.6218" height="73.0111" filterUnits="userSpaceOnUse" color-interpolation-filters="sRGB">
      <feFlood flood-opacity="0" result="BackgroundImageFix"/>
      <feColorMatrix in="SourceAlpha" type="matrix" values="0 0 0 0 0 0 0 0 0 0 0 0 0 0 0 0 0 0 127 0" result="hardAlpha"/>
      <feOffset dx="1" dy="2"/>
      <feGaussianBlur stdDeviation="3"/>
      <feColorMatrix type="matrix" values="0 0 0 0 0.207843 0 0 0 0 0.0705882 0 0 0 0 0.698039 0 0 0 0.5 0"/>
      <feBlend mode="normal" in2="BackgroundImageFix" result="effect1_dropShadow"/>
      <feBlend mode="normal" in="SourceGraphic" in2="effect1_dropShadow" result="shape"/>
    </filter>
    <filter id="filter2_ii" x="64.0742" y="94.1697" width="65.4457" height="48.6144" filterUnits="userSpaceOnUse" color-interpolation-filters="sRGB">
      <feFlood flood-opacity="0" result="BackgroundImageFix"/>
      <feBlend mode="normal" in="SourceGraphic" in2="BackgroundImageFix" result="shape"/>
      <feColorMatrix in="SourceAlpha" type="matrix" values="0 0 0 0 0 0 0 0 0 0 0 0 0 0 0 0 0 0 127 0" result="hardAlpha"/>
      <feOffset dx="2" dy="2"/>
      <feGaussianBlur stdDeviation="2"/>
      <feComposite in2="hardAlpha" operator="arithmetic" k2="-1" k3="1"/>
      <feColorMatrix type="matrix" values="0 0 0 0 0.207843 0 0 0 0 0.0705882 0 0 0 0 0.698039 0 0 0 0.8 0"/>
      <feBlend mode="normal" in2="shape" result="effect1_innerShadow"/>
      <feColorMatrix in="SourceAlpha" type="matrix" values="0 0 0 0 0 0 0 0 0 0 0 0 0 0 0 0 0 0 127 0" result="hardAlpha"/>
      <feOffset dx="-2" dy="2"/>
      <feGaussianBlur stdDeviation="2"/>
      <feComposite in2="hardAlpha" operator="arithmetic" k2="-1" k3="1"/>
      <feColorMatrix type="matrix" values="0 0 0 0 0.207843 0 0 0 0 0.0705882 0 0 0 0 0.698039 0 0 0 0.6 0"/>
      <feBlend mode="normal" in2="effect1_innerShadow" result="effect2_innerShadow"/>
    </filter>
    <filter id="filter3_d" x="47.5527" y="71.293" width="101.104" height="102.376" filterUnits="userSpaceOnUse" color-interpolation-filters="sRGB">
      <feFlood flood-opacity="0" result="BackgroundImageFix"/>
      <feColorMatrix in="SourceAlpha" type="matrix" values="0 0 0 0 0 0 0 0 0 0 0 0 0 0 0 0 0 0 127 0" result="hardAlpha"/>
      <feOffset dx="1" dy="3"/>
      <feGaussianBlur stdDeviation="1"/>
      <feColorMatrix type="matrix" values="0 0 0 0 0 0 0 0 0 0 0 0 0 0 0 0 0 0 0.1 0"/>
      <feBlend mode="normal" in2="BackgroundImageFix" result="effect1_dropShadow"/>
      <feBlend mode="normal" in="SourceGraphic" in2="effect1_dropShadow" result="shape"/>
    </filter>
    <filter id="filter4_d" x="83.2305" y="191.274" width="33.2496" height="91.1281" filterUnits="userSpaceOnUse" color-interpolation-filters="sRGB">
      <feFlood flood-opacity="0" result="BackgroundImageFix"/>
      <feColorMatrix in="SourceAlpha" type="matrix" values="0 0 0 0 0 0 0 0 0 0 0 0 0 0 0 0 0 0 127 0" result="hardAlpha"/>
      <feOffset dx="2" dy="2"/>
      <feGaussianBlur stdDeviation="1"/>
      <feColorMatrix type="matrix" values="0 0 0 0 0 0 0 0 0 0 0 0 0 0 0 0 0 0 0.1 0"/>
      <feBlend mode="normal" in2="BackgroundImageFix" result="effect1_dropShadow"/>
      <feBlend mode="normal" in="SourceGraphic" in2="effect1_dropShadow" result="shape"/>
    </filter>
    <linearGradient id="paint0_linear" x1="183.999" y1="179.914" x2="123.344" y2="194.315" gradientUnits="userSpaceOnUse">
      <stop stop-color="#D43100"/>
      <stop offset="1" stop-color="#18171A"/>
    </linearGradient>
    <linearGradient id="paint1_linear" x1="6.93598" y1="215.618" x2="44.3516" y2="265.944" gradientUnits="userSpaceOnUse">
      <stop stop-color="#FC5C30"/>
      <stop offset="1" stop-color="#531806"/>
    </linearGradient>
    <linearGradient id="paint2_linear" x1="97.9714" y1="181.58" x2="97.9713" y2="546.63" gradientUnits="userSpaceOnUse">
      <stop stop-color="#FC5C30"/>
      <stop offset="0.395833" stop-color="#FADEA7"/>
      <stop offset="0.880208" stop-color="#FCF2DE" stop-opacity="0"/>
    </linearGradient>
    <linearGradient id="paint3_linear" x1="126.582" y1="167.799" x2="58.7084" y2="74.9515" gradientUnits="userSpaceOnUse">
      <stop stop-color="#D43100"/>
      <stop offset="1" stop-color="#5B3BCD"/>
    </linearGradient>
    <linearGradient id="paint4_linear" x1="58.4915" y1="112.855" x2="127.273" y2="155.592" gradientUnits="userSpaceOnUse">
      <stop stop-color="#6851FF"/>
      <stop offset="1" stop-color="#3512B2"/>
    </linearGradient>
    <radialGradient id="paint5_radial" cx="0" cy="0" r="1" gradientUnits="userSpaceOnUse" gradientTransform="translate(61.3066 124.735) rotate(25.5946) scale(54.1252 103.589)">
      <stop stop-color="#EDEBFF"/>
      <stop offset="1" stop-color="#9B8CFF"/>
    </radialGradient>
    <linearGradient id="paint6_linear" x1="72.2295" y1="87.9575" x2="123.114" y2="150.328" gradientUnits="userSpaceOnUse">
      <stop stop-color="#BDB2FF"/>
      <stop offset="1" stop-color="#522FD4"/>
    </linearGradient>
    <linearGradient id="paint7_linear" x1="60.0734" y1="103.85" x2="66.4474" y2="153.641" gradientUnits="userSpaceOnUse">
      <stop stop-color="#EDEBFF"/>
      <stop offset="1" stop-color="#6851FF"/>
    </linearGradient>
    <linearGradient id="paint8_linear" x1="115.313" y1="258.22" x2="50.8177" y2="7.91182" gradientUnits="userSpaceOnUse">
      <stop stop-color="#AD2B03"/>
      <stop offset="0.5" stop-color="#FC5C30"/>
      <stop offset="1" stop-color="#FFB5A1"/>
    </linearGradient>
    <linearGradient id="paint9_linear" x1="-16.499" y1="112" x2="109.001" y2="241.5" gradientUnits="userSpaceOnUse">
      <stop stop-color="white" stop-opacity="0"/>
      <stop offset="1"/>
    </linearGradient>
    <radialGradient id="paint10_radial" cx="0" cy="0" r="1" gradientUnits="userSpaceOnUse" gradientTransform="translate(97.1046 83.4649) rotate(90) scale(64.3376 64.1578)">
      <stop stop-color="#FFF5F2"/>
      <stop offset="1" stop-color="white" stop-opacity="0"/>
    </radialGradient>
    <linearGradient id="paint11_linear" x1="66.7597" y1="78.2484" x2="121.598" y2="164.183" gradientUnits="userSpaceOnUse">
      <stop stop-color="white"/>
      <stop offset="1" stop-color="#FFB5A1"/>
    </linearGradient>
    <linearGradient id="paint12_linear" x1="74.5605" y1="204.315" x2="112.873" y2="273.779" gradientUnits="userSpaceOnUse">
      <stop stop-color="#FC5C30"/>
      <stop offset="1" stop-color="#641902"/>
    </linearGradient>
  </defs>
</svg>
