<svg width="35" height="35" viewBox="0 0 35 35" fill="none" xmlns="http://www.w3.org/2000/svg">
<g opacity="0.6">
<rect width="34.5223" height="34.0091" rx="17.0045" fill="url(#paint0_linear)"/>
<path d="M15.359 11.382C15.9577 9.53934 18.5646 9.53934 19.1633 11.382L19.5063 12.4377C19.774 13.2617 20.5419 13.8197 21.4084 13.8197H22.5185C24.4559 13.8197 25.2615 16.2989 23.694 17.4377L22.796 18.0902C22.095 18.5995 21.8017 19.5022 22.0694 20.3262L22.4125 21.382C23.0112 23.2246 20.9022 24.7568 19.3348 23.618L18.4367 22.9656C17.7357 22.4563 16.7865 22.4563 16.0856 22.9656L15.1875 23.618C13.6201 24.7568 11.5111 23.2246 12.1098 21.382L12.4529 20.3262C12.7206 19.5022 12.4273 18.5995 11.7263 18.0902L10.8283 17.4377C9.26084 16.2989 10.0664 13.8197 12.0038 13.8197H13.1139C13.9803 13.8197 14.7483 13.2617 15.016 12.4377L15.359 11.382Z" fill="url(#paint1_radial)"/>
</g>
<defs>
<linearGradient id="paint0_linear" x1="17.2611" y1="0" x2="17.2611" y2="34.0091" gradientUnits="userSpaceOnUse">
<stop stop-color="#FCF2DE" stop-opacity="0"/>
<stop offset="1" stop-color="#FADEA7"/>
</linearGradient>
<radialGradient id="paint1_radial" cx="0" cy="0" r="1" gradientUnits="userSpaceOnUse" gradientTransform="translate(17.2617 6.52783) rotate(90) scale(23)">
<stop stop-color="#FFEDC9"/>
<stop offset="0.609382" stop-color="#FFC93D"/>
</radialGradient>
</defs>
</svg>
