<?xml version="1.0" encoding="utf-8"?>
<!-- Generator: Adobe Illustrator 26.5.1, SVG Export Plug-In . SVG Version: 6.00 Build 0)  -->
<svg version="1.1" id="Layer_1" xmlns="http://www.w3.org/2000/svg" xmlns:xlink="http://www.w3.org/1999/xlink" x="0px" y="0px"
	 viewBox="0 0 4000 4000" style="enable-background:new 0 0 4000 4000;" xml:space="preserve">
<style type="text/css">
	.st0{fill-rule:evenodd;clip-rule:evenodd;fill:none;stroke:#FFFFFF;stroke-width:4;stroke-miterlimit:10;}
</style>
<g>
	<path class="st0" d="M-0.9,1209.4l26-14.3c224.6-123.4,433.2-282.6,617.5-477.6c184.3-195,331.5-412.3,442-643.5l12.8-26.8l28,9.7
		c295.4,102.6,596.3,180,899.5,232.3l46.4,8l-23.1,41C1846.7,695.9,1599.4,1034,1306,1344.4c-293.4,310.4-616.9,576.4-962.7,797.8
		l-39.6,25.4l-10.6-45.9c-69.3-299.7-163.6-595.8-282.7-884.9L-0.9,1209.4z M1927.8,3702.4l23.1-41
		c201.6-357.7,448.8-695.7,742.2-1006.2c293.4-310.4,616.9-576.4,962.7-797.8l39.6-25.4l10.6,45.9
		c69.3,299.7,163.6,595.8,282.7,884.9l11.3,27.5l-26,14.3c-224.6,123.4-433.2,282.6-617.5,477.6c-184.3,195-331.5,412.3-442,643.5
		l-12.8,26.8l-28-9.7c-295.4-102.6-596.3-180-899.5-232.3L1927.8,3702.4z M3501.7,378.3c11.1-1.1,22.3-2.2,33.4-3.3
		c-0.5,11.2-1,22.3-1.4,33.5c-12,301.4,0.9,604.7,38.6,906.6c-460.5,251.1-887.9,576.2-1265.1,975.4
		c-377.2,399.2-677.7,844.3-902.4,1318.2c-303.5-20.6-607-16.4-907.3,12.6c-11.1,1.1-22.3,2.2-33.4,3.3c0.5-11.2,1-22.3,1.4-33.5
		c12-301.4-0.9-604.7-38.6-906.6c460.5-251.1,887.9-576.2,1265.1-975.4c377.2-399.2,677.7-844.3,902.4-1318.2
		C2897.9,411.6,3201.4,407.4,3501.7,378.3z"/>
</g>
</svg>
