<svg width="74" height="27" viewBox="0 0 74 27" fill="none" xmlns="http://www.w3.org/2000/svg">
<path fill-rule="evenodd" clip-rule="evenodd" d="M63.1066 9.30922C63.8809 9.30922 64.5087 8.68149 64.5087 7.90716C64.5087 7.13282 63.8809 6.5051 63.1066 6.5051C62.3323 6.5051 61.7045 7.13282 61.7045 7.90716C61.7045 8.68149 62.3323 9.30922 63.1066 9.30922ZM29.457 7.73193H32.3486L35.4025 15.0231H35.5325L38.5865 7.73193H41.478V18.5839H39.2038V11.5206H39.1117L36.2418 18.5309H34.6932L31.8233 11.4941H31.7313V18.5839H29.457V7.73193ZM45.8722 18.7375C45.078 18.7375 44.4192 18.5344 43.8957 18.1282C43.3723 17.7219 43.1106 17.1161 43.1106 16.3107C43.1106 15.7031 43.2568 15.2262 43.5492 14.88C43.8416 14.5338 44.2242 14.2812 44.6971 14.1223C45.1736 13.9598 45.6862 13.8538 46.2349 13.8043C46.9569 13.7337 47.4731 13.6595 47.7836 13.5818C48.094 13.5041 48.2493 13.3345 48.2493 13.0731V13.0413C48.2493 12.7057 48.141 12.4461 47.9244 12.2624C47.7114 12.0787 47.4082 11.9869 47.0147 11.9869C46.5995 11.9869 46.2692 12.0752 46.0238 12.2518C45.7783 12.4284 45.6159 12.6527 45.5364 12.9247L43.403 12.7552C43.5618 12.0134 43.9553 11.4252 44.5834 10.9907C45.2151 10.5562 46.0292 10.3389 47.0255 10.3389C47.6428 10.3389 48.2204 10.4343 48.7583 10.6251C49.2961 10.8158 49.7293 11.1143 50.0578 11.5206C50.3899 11.9233 50.556 12.4479 50.556 13.0943V18.5839H48.3684V17.4552H48.3034C48.1013 17.8332 47.798 18.1423 47.3937 18.3825C46.993 18.6192 46.4858 18.7375 45.8722 18.7375ZM46.5328 17.1797C47.0381 17.1797 47.4533 17.0366 47.7782 16.7505C48.1031 16.4608 48.2655 16.1023 48.2655 15.6748V14.8111C48.1753 14.8712 48.0345 14.9242 47.8432 14.9701C47.6554 15.016 47.4533 15.0566 47.2367 15.092C47.0237 15.1237 46.8324 15.152 46.6627 15.1767C46.2584 15.2333 45.9317 15.3445 45.6826 15.5106C45.4372 15.6766 45.3144 15.9186 45.3144 16.2365C45.3144 16.5474 45.4281 16.7823 45.6556 16.9412C45.8866 17.1002 46.179 17.1797 46.5328 17.1797ZM53.4557 21.1061C54.0946 21.537 54.9736 21.7525 56.0927 21.7525C56.8869 21.7525 57.589 21.636 58.1991 21.4028C58.8091 21.1697 59.2874 20.8235 59.634 20.3642C59.9842 19.905 60.1592 19.338 60.1592 18.6633V10.4449H57.8688V11.812H57.7821C57.681 11.5895 57.533 11.3651 57.3381 11.1391C57.1432 10.913 56.8887 10.724 56.5746 10.5721C56.2605 10.4167 55.8707 10.3389 55.405 10.3389C54.7985 10.3389 54.239 10.4944 53.7264 10.8052C53.2174 11.1126 52.8077 11.5736 52.4972 12.1882C52.1904 12.8029 52.037 13.573 52.037 14.4985C52.037 15.3993 52.1868 16.1429 52.4864 16.7293C52.7896 17.3157 53.1957 17.7519 53.7047 18.0381C54.2173 18.3242 54.7859 18.4673 55.4104 18.4673C56.0746 18.4673 56.5981 18.3313 56.9807 18.0593C57.3634 17.7837 57.6305 17.4782 57.7821 17.1426H57.8796V18.6315C57.8796 19.165 57.7153 19.5482 57.3868 19.7814C57.0619 20.0145 56.6486 20.1311 56.1468 20.1311C55.6378 20.1311 55.2462 20.0393 54.9718 19.8556C54.7011 19.6754 54.5188 19.4758 54.4249 19.2568L52.2915 19.5376C52.4286 20.1523 52.8167 20.6751 53.4557 21.1061ZM57.4302 16.1676C57.1269 16.5703 56.6973 16.7717 56.1414 16.7717C55.5747 16.7717 55.1415 16.5668 54.8419 16.157C54.5422 15.7472 54.3924 15.1909 54.3924 14.4879C54.3924 13.7955 54.5404 13.2303 54.8364 12.7923C55.1361 12.3542 55.5711 12.1352 56.1414 12.1352C56.701 12.1352 57.1323 12.3489 57.4356 12.7764C57.7388 13.2038 57.8904 13.7743 57.8904 14.4879C57.8904 15.205 57.737 15.7649 57.4302 16.1676ZM61.9949 18.5839V10.4449H64.3016V18.5839H61.9949ZM67.7089 18.2129C68.3226 18.5662 69.0554 18.7428 69.9073 18.7428C70.6473 18.7428 71.2881 18.6121 71.8296 18.3507C72.3711 18.0858 72.7952 17.7166 73.1021 17.2433C73.4125 16.7699 73.5858 16.2224 73.6219 15.6006H71.4451C71.3765 16.0351 71.2069 16.3707 70.9361 16.6074C70.6654 16.8406 70.3315 16.9571 69.9344 16.9571C69.3965 16.9571 68.9651 16.7452 68.6402 16.3213C68.319 15.8938 68.1583 15.2915 68.1583 14.5144C68.1583 13.7443 68.3208 13.1491 68.6456 12.7287C68.9705 12.3083 69.4001 12.0981 69.9344 12.0981C70.3567 12.0981 70.6979 12.2235 70.9578 12.4743C71.2213 12.7216 71.3838 13.0484 71.4451 13.4546H73.6219C73.5894 12.8258 73.4143 12.2783 73.0967 11.812C72.7826 11.3457 72.3512 10.9836 71.8025 10.7257C71.2574 10.4679 70.6221 10.3389 69.8965 10.3389C69.0554 10.3389 68.3298 10.5173 67.7197 10.8741C67.1096 11.2274 66.6385 11.7202 66.3064 12.3525C65.9779 12.9813 65.8137 13.7125 65.8137 14.5462C65.8137 15.3693 65.9761 16.097 66.301 16.7293C66.6295 17.3616 67.0988 17.8562 67.7089 18.2129Z" fill="#9CA3AF"/>
<path fill-rule="evenodd" clip-rule="evenodd" d="M11.4879 -4.78056e-07C12.6292 1.39785 13.8881 2.69599 15.2493 3.87935C14.3424 6.82112 13.8541 9.94652 13.8541 13.186C13.8541 16.4254 14.3424 19.5508 15.2493 22.4926C13.8881 23.6759 12.6292 24.9741 11.4879 26.3719C10.3466 24.9741 9.08783 23.676 7.72661 22.4926C8.63359 19.5508 9.12188 16.4254 9.12188 13.186C9.12188 9.9465 8.63359 6.82108 7.7266 3.87929C9.08783 2.69594 10.3466 1.39782 11.4879 -4.78056e-07ZM5.12504 20.4589C3.6841 19.449 2.15485 18.5564 0.551168 17.7952C0.99597 16.3372 1.23525 14.7895 1.23525 13.186C1.23525 11.5825 0.995962 10.0348 0.551142 8.57677C2.15483 7.81552 3.68409 6.92296 5.12504 5.91299C5.676 8.24782 5.96754 10.6828 5.96754 13.186C5.96754 15.6891 5.676 18.1241 5.12504 20.4589ZM17.0086 13.186C17.0086 15.689 17.3001 18.124 17.851 20.4588C19.2919 19.4489 20.821 18.5564 22.4245 17.7952C21.9797 16.3372 21.7404 14.7896 21.7404 13.186C21.7404 11.5824 21.9797 10.0347 22.4246 8.57671C20.821 7.81551 19.2919 6.92302 17.851 5.91315C17.3001 8.24793 17.0086 10.6829 17.0086 13.186Z" fill="#9CA3AF"/>
</svg>
