<svg width="41" height="40" viewBox="0 0 41 40" fill="none" xmlns="http://www.w3.org/2000/svg">
<path opacity="0.16" d="M37.1666 20C37.1666 29.2047 29.7047 36.6667 20.4999 36.6667C11.2952 36.6667 3.83325 29.2047 3.83325 20C3.83325 10.7952 11.2952 3.33333 20.4999 3.33333C29.7047 3.33333 37.1666 10.7952 37.1666 20ZM7.83325 20C7.83325 26.9956 13.5043 32.6667 20.4999 32.6667C27.4955 32.6667 33.1666 26.9956 33.1666 20C33.1666 13.0044 27.4955 7.33333 20.4999 7.33333C13.5043 7.33333 7.83325 13.0044 7.83325 20Z" fill="white"/>
<path d="M13.115 32.6718C12.5589 33.6261 11.3254 33.958 10.4445 33.2916C8.57419 31.8767 7.01729 30.078 5.88323 28.0081C4.42772 25.3515 3.72377 22.3484 3.84706 19.3216C3.97036 16.2949 4.91623 13.359 6.583 10.8295C7.88166 8.85872 9.57969 7.1927 11.5589 5.93457C12.4911 5.34201 13.6935 5.77312 14.1702 6.76952C14.6469 7.76593 14.2137 8.94794 13.3046 9.5754C11.9711 10.4958 10.8214 11.6672 9.92306 13.0305C8.65631 14.9528 7.93745 17.1841 7.84375 19.4844C7.75004 21.7848 8.28504 24.0671 9.39124 26.0862C10.1757 27.518 11.2264 28.779 12.4806 29.8048C13.3356 30.5041 13.6712 31.7175 13.115 32.6718Z" fill="white"/>
</svg>
