<svg width="1216" height="1131" viewBox="0 0 1216 1131" fill="none" xmlns="http://www.w3.org/2000/svg">
<rect width="1216" height="1131" rx="40" fill="url(#paint0_linear_11997_98975)"/>
<mask id="mask0_11997_98975" style="mask-type:alpha" maskUnits="userSpaceOnUse" x="0" y="0" width="1216" height="1131">
<rect width="1216" height="1131" fill="#D9D9D9"/>
</mask>
<g mask="url(#mask0_11997_98975)">
<g opacity="0.4" filter="url(#filter0_f_11997_98975)">
<ellipse opacity="0.5" cx="2.44069" cy="2.44381" rx="2.44069" ry="2.44381" transform="matrix(1 -8.74228e-08 -8.74228e-08 -1 1035.72 1128.09)" fill="white"/>
<ellipse opacity="0.4" cx="1.59022" cy="1.59225" rx="1.59022" ry="1.59225" transform="matrix(1 -8.74228e-08 -8.74228e-08 -1 1166.12 1133.39)" fill="#A799FF"/>
<path d="M1222.75 1041.72L1221.55 1039.09L1222.75 1036.47L1220.13 1037.67L1217.51 1036.47L1218.71 1039.09L1217.51 1041.72L1220.13 1040.51L1222.75 1041.72Z" fill="white"/>
<ellipse opacity="0.5" cx="2.44069" cy="2.44381" rx="2.44069" ry="2.44381" transform="matrix(1 -8.74228e-08 -8.74228e-08 -1 1105.69 1117.49)" fill="white"/>
<ellipse cx="2.44069" cy="2.44381" rx="2.44069" ry="2.44381" transform="matrix(1 -8.74228e-08 -8.74228e-08 -1 910.625 1059.18)" fill="#A799FF"/>
<ellipse opacity="0.6" cx="1.59022" cy="1.59225" rx="1.59022" ry="1.59225" transform="matrix(1 -8.74228e-08 -8.74228e-08 -1 948.79 956.349)" fill="#A799FF"/>
<ellipse opacity="0.3" cx="1.59022" cy="1.59225" rx="1.59022" ry="1.59225" transform="matrix(1 -8.74228e-08 -8.74228e-08 -1 918.043 988.154)" fill="#A799FF"/>
<ellipse opacity="0.5" cx="2.44069" cy="2.44381" rx="2.44069" ry="2.44381" transform="matrix(1 -8.74228e-08 -8.74228e-08 -1 871.403 1022.08)" fill="#A799FF"/>
<ellipse cx="1.58819" cy="1.59022" rx="1.58819" ry="1.59022" transform="matrix(-0.707107 -0.707107 -0.707107 0.707107 920.418 1127.96)" fill="#A799FF"/>
<path opacity="0.5" d="M883.596 1085.69L883.116 1088.92L879.884 1089.4L883.116 1089.87L883.591 1093.11L884.07 1089.87L887.303 1089.39L884.071 1088.92L883.596 1085.69Z" fill="white"/>
<ellipse cx="2.44069" cy="2.44381" rx="2.44069" ry="2.44381" transform="matrix(1 -8.74228e-08 -8.74228e-08 -1 1203.34 901.774)" fill="#DDDBE0"/>
<circle opacity="0.7" cx="1.59022" cy="1.59022" r="1.59022" transform="matrix(1 -8.74228e-08 -8.74228e-08 -1 1138.56 1026.91)" fill="white"/>
<ellipse cx="1.59022" cy="1.59225" rx="1.59022" ry="1.59225" transform="matrix(1 -8.74228e-08 -8.74228e-08 -1 1184.14 966.481)" fill="#DDDBE0"/>
<path d="M1046.51 1068.26L1047.22 1063.46L1052 1062.76L1047.22 1062.05L1046.51 1057.26L1045.8 1062.05L1041.02 1062.76L1045.8 1063.46L1046.51 1068.26Z" fill="#A799FF"/>
<path d="M1002.12 985.194L1000.91 982.57L1002.12 979.945L999.497 981.152L996.875 979.945L998.081 982.57L996.875 985.194L999.497 983.987L1002.12 985.194Z" fill="white"/>
<ellipse cx="2.44069" cy="2.44381" rx="2.44069" ry="2.44381" transform="matrix(1 -8.74228e-08 -8.74228e-08 -1 870.34 920.896)" fill="#A799FF"/>
<ellipse opacity="0.6" cx="1.59022" cy="1.59225" rx="1.59022" ry="1.59225" transform="matrix(1 -8.74228e-08 -8.74228e-08 -1 964.692 1097.94)" fill="#A799FF"/>
<ellipse opacity="0.4" cx="1.59022" cy="1.59225" rx="1.59022" ry="1.59225" transform="matrix(-1 -8.74228e-08 -8.74228e-08 1 258.239 583.902)" fill="#A799FF"/>
<path d="M66.5081 630.545L67.7134 633.17L66.5081 635.794L69.1294 634.587L71.7507 635.794L70.5454 633.17L71.7507 630.545L69.1294 631.752L66.5081 630.545Z" fill="white"/>
<ellipse opacity="0.5" cx="2.44069" cy="2.44381" rx="2.44069" ry="2.44381" transform="matrix(-1 -8.74228e-08 -8.74228e-08 1 318.668 599.804)" fill="white"/>
<ellipse opacity="0.6" cx="1.59022" cy="1.59225" rx="1.59022" ry="1.59225" transform="matrix(-1 -8.74228e-08 -8.74228e-08 1 475.571 652.865)" fill="#A799FF"/>
<ellipse opacity="0.3" cx="1.58819" cy="1.59022" rx="1.58819" ry="1.59022" transform="matrix(-1 -8.74228e-08 -8.74228e-08 1 239.668 500.589)" fill="#A799FF"/>
<ellipse opacity="0.3" cx="2.44069" cy="2.44381" rx="2.44069" ry="2.44381" transform="matrix(-1 -8.74228e-08 -8.74228e-08 1 166.883 740.782)" fill="#A799FF"/>
<ellipse cx="2.44069" cy="2.44381" rx="2.44069" ry="2.44381" transform="matrix(-1 -8.74228e-08 -8.74228e-08 1 204.172 605.105)" fill="#A799FF"/>
<ellipse opacity="0.3" cx="1.59022" cy="1.59225" rx="1.59022" ry="1.59225" transform="matrix(-1 -8.74228e-08 -8.74228e-08 1 506.313 621.061)" fill="#A799FF"/>
<ellipse opacity="0.5" cx="2.44069" cy="2.44381" rx="2.44069" ry="2.44381" transform="matrix(-1 -8.74228e-08 -8.74228e-08 1 552.958 587.136)" fill="#A799FF"/>
<ellipse opacity="0.5" cx="1.58819" cy="1.59022" rx="1.58819" ry="1.59022" transform="matrix(0.707107 0.707107 0.707107 -0.707107 503.938 481.25)" fill="white"/>
<path opacity="0.5" d="M540.765 523.528L541.244 520.296L544.476 519.816L541.245 519.341L540.769 516.109L540.29 519.341L537.058 519.821L540.289 520.296L540.765 523.528Z" fill="white"/>
<circle opacity="0.7" cx="1.59022" cy="1.59022" r="1.59022" transform="matrix(-1 -8.74228e-08 -8.74228e-08 1 285.805 690.385)" fill="white"/>
<ellipse cx="1.59022" cy="1.59225" rx="1.59022" ry="1.59225" transform="matrix(-1 -8.74228e-08 -8.74228e-08 1 240.219 750.814)" fill="#DDDBE0"/>
<path d="M377.845 540.959L377.138 545.75L372.353 546.458L377.138 547.165L377.845 551.956L378.552 547.165L383.336 546.458L378.552 545.75L377.845 540.959Z" fill="#A799FF"/>
<path d="M422.246 624.02L423.452 626.645L422.246 629.269L424.868 628.063L427.489 629.269L426.284 626.645L427.489 624.02L424.868 625.227L422.246 624.02Z" fill="white"/>
<ellipse cx="2.44069" cy="2.44381" rx="2.44069" ry="2.44381" transform="matrix(-1 -8.74228e-08 -8.74228e-08 1 554.02 688.319)" fill="#A799FF"/>
<ellipse opacity="0.5" cx="2.59194" cy="2.59525" rx="2.59194" ry="2.59525" transform="matrix(1 -8.74228e-08 -8.74228e-08 -1 136.29 1020.83)" fill="white"/>
<ellipse opacity="0.4" cx="1.68877" cy="1.69092" rx="1.68877" ry="1.69092" transform="matrix(1 -8.74228e-08 -8.74228e-08 -1 274.77 1026.46)" fill="#A799FF"/>
<path d="M334.913 929.1L332.846 926.313L334.913 923.526L332.129 925.596L329.346 923.526L331.413 926.313L329.346 929.1L332.129 927.031L334.913 929.1Z" fill="white"/>
<ellipse opacity="0.5" cx="2.59194" cy="2.59525" rx="2.59194" ry="2.59525" transform="matrix(1 -8.74228e-08 -8.74228e-08 -1 210.598 1009.57)" fill="white"/>
<ellipse opacity="0.6" cx="1.68877" cy="1.69092" rx="1.68877" ry="1.69092" transform="matrix(1 -8.74228e-08 -8.74228e-08 -1 43.9731 838.442)" fill="#A799FF"/>
<ellipse opacity="0.3" cx="1.68661" cy="1.68877" rx="1.68661" ry="1.68877" transform="matrix(1 -8.74228e-08 -8.74228e-08 -1 367.09 951.027)" fill="#A799FF"/>
<ellipse opacity="0.3" cx="2.59194" cy="2.59525" rx="2.59194" ry="2.59525" transform="matrix(1 -8.74228e-08 -8.74228e-08 -1 371.594 859.833)" fill="#A799FF"/>
<ellipse cx="2.59194" cy="2.59525" rx="2.59194" ry="2.59525" transform="matrix(1 -8.74228e-08 -8.74228e-08 -1 332.188 1003.94)" fill="#A799FF"/>
<ellipse opacity="0.3" cx="1.68877" cy="1.69092" rx="1.68877" ry="1.69092" transform="matrix(1 -8.74228e-08 -8.74228e-08 -1 11.3247 872.218)" fill="#A799FF"/>
<ellipse cx="1.68661" cy="1.68877" rx="1.68661" ry="1.68877" transform="matrix(-0.707107 -0.707107 -0.707107 0.707107 13.8442 1020.69)" fill="#A799FF"/>
<ellipse opacity="0.5" cx="2.59194" cy="2.59525" rx="2.59194" ry="2.59525" transform="matrix(1 -8.74228e-08 -8.74228e-08 -1 194 803.973)" fill="#DDDBE0"/>
<circle opacity="0.7" cx="1.68877" cy="1.68877" r="1.68877" transform="matrix(1 -8.74228e-08 -8.74228e-08 -1 245.5 913.376)" fill="white"/>
<ellipse cx="1.68877" cy="1.69092" rx="1.68877" ry="1.69092" transform="matrix(1 -8.74228e-08 -8.74228e-08 -1 293.911 849.203)" fill="#DDDBE0"/>
<path d="M147.754 957.284L148.464 952.155L153.586 951.445L148.464 950.735L147.754 945.606L147.045 950.735L141.922 951.445L147.045 952.155L147.754 957.284Z" fill="#A799FF"/>
<path d="M100.605 869.075L99.3245 866.288L100.605 863.5L97.8208 864.782L95.0371 863.5L96.3171 866.288L95.0371 869.075L97.8208 867.793L100.605 869.075Z" fill="white"/>
<ellipse opacity="0.6" cx="1.68877" cy="1.69092" rx="1.68877" ry="1.69092" transform="matrix(1 -8.74228e-08 -8.74228e-08 -1 60.8599 988.808)" fill="#A799FF"/>
<path d="M566.363 1086.13L567.203 1077.96L575.369 1077.12L567.203 1076.28L566.363 1068.11L565.522 1076.28L557.356 1077.12L565.522 1077.96L566.363 1086.13Z" fill="#A799FF"/>
<path opacity="0.7" d="M1164.18 764.136L1165.02 755.97L1173.19 755.129L1165.02 754.289L1164.18 746.123L1163.34 754.289L1155.18 755.129L1163.34 755.97L1164.18 764.136Z" fill="white"/>
<ellipse opacity="0.5" cx="1134.77" cy="55.7446" rx="2.44069" ry="2.44381" fill="white"/>
<ellipse opacity="0.5" cx="1204.74" cy="66.3462" rx="2.44069" ry="2.44381" fill="white"/>
<ellipse opacity="0.6" cx="1191.19" cy="235.374" rx="1.59022" ry="1.59225" fill="#A799FF"/>
<ellipse opacity="0.3" cx="1033.19" cy="184.374" rx="1.59022" ry="1.59225" fill="#A799FF"/>
<ellipse opacity="0.5" cx="970.448" cy="161.759" rx="2.44069" ry="2.44381" fill="#A799FF"/>
<ellipse cx="1014.78" cy="53.428" rx="1.58819" ry="1.59022" transform="rotate(135 1014.78 53.428)" fill="#A799FF"/>
<path opacity="0.5" d="M980.205 95.7071L979.725 92.4748L976.493 91.9953L979.725 91.52L980.2 88.2883L980.679 91.5206L983.912 92.0001L980.68 92.4754L980.205 95.7071Z" fill="white"/>
<path d="M1131.47 171.407L1130.26 174.031L1131.47 176.656L1128.84 175.449L1126.22 176.656L1127.43 174.031L1126.22 171.407L1128.84 172.614L1131.47 171.407Z" fill="white"/>
<ellipse cx="1083.04" cy="256.226" rx="2.44069" ry="2.44381" fill="#A799FF"/>
<ellipse opacity="0.6" cx="1062.89" cy="85.0464" rx="1.59022" ry="1.59225" fill="#A799FF"/>
<ellipse opacity="0.4" cx="762.125" cy="70.2439" rx="1.97629" ry="1.97881" fill="#A799FF"/>
<path d="M830.527 182.199L829.029 185.461L830.527 188.722L827.27 187.223L824.012 188.722L825.51 185.461L824.012 182.199L827.27 183.699L830.527 182.199Z" fill="white"/>
<ellipse opacity="0.7" cx="507.595" cy="175.782" rx="1.99745" ry="2" fill="white"/>
<ellipse opacity="0.6" cx="476.574" cy="277.761" rx="1.97629" ry="1.97881" fill="#A799FF"/>
<ellipse opacity="0.3" cx="870.157" cy="158.516" rx="1.97376" ry="1.97629" fill="#A799FF"/>
<ellipse opacity="0.3" cx="876.486" cy="266.296" rx="3.03323" ry="3.03711" fill="#A799FF"/>
<ellipse cx="830.373" cy="97.6528" rx="3.03323" ry="3.03711" fill="#A799FF"/>
<ellipse opacity="0.3" cx="453.824" cy="250.744" rx="1.97629" ry="1.97881" fill="#A799FF"/>
<ellipse opacity="0.5" cx="396.908" cy="209.642" rx="3.03323" ry="3.03711" fill="#A799FF"/>
<ellipse cx="452.004" cy="75.0109" rx="1.97376" ry="1.97629" transform="rotate(135 452.004 75.0109)" fill="#A799FF"/>
<circle opacity="0.7" cx="727.867" cy="202.576" r="1.97629" fill="white"/>
<ellipse cx="793.574" cy="261.761" rx="1.97629" ry="1.97881" fill="#DDDBE0"/>
<path d="M666.422 141.782L667.301 147.736L673.247 148.616L667.301 149.495L666.422 155.449L665.544 149.495L659.598 148.616L665.544 147.736L666.422 141.782Z" fill="white"/>
<ellipse cx="395.592" cy="335.39" rx="3.03323" ry="3.03711" fill="#A799FF"/>
<ellipse opacity="0.5" cx="171.142" cy="147.325" rx="2.59194" ry="2.59525" transform="rotate(30 171.142 147.325)" fill="white"/>
<ellipse opacity="0.4" cx="292.242" cy="233.257" rx="1.68877" ry="1.69092" transform="rotate(30 292.242 233.257)" fill="#A799FF"/>
<path d="M295.029 345.334L291.845 346.714L292.242 350.161L290.866 346.977L287.42 347.378L290.604 345.997L290.207 342.55L291.583 345.734L295.029 345.334Z" fill="white"/>
<ellipse opacity="0.5" cx="258.142" cy="185.325" rx="2.59194" ry="2.59525" transform="rotate(30 258.142 185.325)" fill="white"/>
<ellipse cx="18.1932" cy="167.079" rx="2.59194" ry="2.59525" transform="rotate(30 18.1932 167.079)" fill="#A799FF"/>
<ellipse opacity="0.6" cx="-1.64076" cy="280.685" rx="1.68877" ry="1.69092" transform="rotate(30 -1.64076 280.685)" fill="#A799FF"/>
<ellipse opacity="0.3" cx="334.48" cy="344.74" rx="1.68661" ry="1.68877" transform="rotate(30 334.48 344.74)" fill="#A799FF"/>
<ellipse opacity="0.3" cx="293.111" cy="427.205" rx="2.59194" ry="2.59525" transform="rotate(30 293.111 427.205)" fill="#A799FF"/>
<ellipse cx="331.041" cy="282.701" rx="2.59194" ry="2.59525" transform="rotate(30 331.041 282.701)" fill="#A799FF"/>
<ellipse cx="60.7072" cy="104.283" rx="1.68661" ry="1.68877" transform="rotate(165 60.7072 104.283)" fill="#A799FF"/>
<circle opacity="0.7" cx="210.353" cy="316.552" r="1.68877" transform="rotate(30 210.353 316.552)" fill="white"/>
<ellipse cx="220.191" cy="396.335" rx="1.68877" ry="1.69092" transform="rotate(30 220.191 396.335)" fill="#DDDBE0"/>
<ellipse cx="29.9061" cy="451.09" rx="1.68877" ry="1.69092" transform="rotate(30 29.9061 451.09)" fill="white"/>
<path d="M81.488 254.697L79.5377 259.494L83.6189 262.67L78.8275 260.724L75.6487 264.811L77.599 260.015L73.5178 256.838L78.3092 258.785L81.488 254.697Z" fill="#A799FF"/>
<path d="M69.2242 347.587L66.722 349.361L66.4369 352.415L64.6669 349.913L61.6153 349.631L64.1175 347.857L64.4026 344.803L66.1726 347.305L69.2242 347.587Z" fill="white"/>
<ellipse opacity="0.6" cx="86.9061" cy="181.09" rx="1.68877" ry="1.69092" transform="rotate(30 86.9061 181.09)" fill="#A799FF"/>
<ellipse opacity="0.4" cx="1.68877" cy="1.69092" rx="1.68877" ry="1.69092" transform="matrix(-1 0 0 1 921.977 377.782)" fill="#A799FF"/>
<path d="M846.689 516.887L848.756 519.674L846.689 522.461L849.473 520.392L852.256 522.461L850.189 519.674L852.256 516.887L849.473 518.957L846.689 516.887Z" fill="white"/>
<circle opacity="0.5" cx="2" cy="2" r="2" transform="matrix(-1 0 0 1 965.781 440.782)" fill="white"/>
<ellipse cx="2.59194" cy="2.59525" rx="2.59194" ry="2.59525" transform="matrix(-1 0 0 1 1189.78 508.782)" fill="#A799FF"/>
<ellipse opacity="0.6" cx="1.68877" cy="1.69092" rx="1.68877" ry="1.69092" transform="matrix(-1 0 0 1 1066.38 772)" fill="#A799FF"/>
<ellipse opacity="0.3" cx="1.68661" cy="1.68877" rx="1.68661" ry="1.68877" transform="matrix(-1 0 0 1 814.508 494.96)" fill="#A799FF"/>
<ellipse opacity="0.3" cx="2.59194" cy="2.59525" rx="2.59194" ry="2.59525" transform="matrix(-1 0 0 1 810.008 586.154)" fill="#A799FF"/>
<ellipse cx="2.59194" cy="2.59525" rx="2.59194" ry="2.59525" transform="matrix(-1 0 0 1 849.41 442.045)" fill="#A799FF"/>
<ellipse opacity="0.3" cx="1.68877" cy="1.69092" rx="1.68877" ry="1.69092" transform="matrix(-1 0 0 1 1105.38 601)" fill="#A799FF"/>
<ellipse cx="1.68661" cy="1.68877" rx="1.68661" ry="1.68877" transform="matrix(0.707107 0.707107 0.707107 -0.707107 1187.6 333.17)" fill="#A799FF"/>
<path opacity="0.5" d="M1218.54 438.664L1219.6 435.787L1222.48 434.722L1219.6 433.66L1218.54 430.785L1217.48 433.661L1214.6 434.727L1217.47 435.789L1218.54 438.664Z" fill="white"/>
<ellipse cx="2.59194" cy="2.59525" rx="2.59194" ry="2.59525" transform="matrix(-1 0 0 1 867.312 665.501)" fill="#DDDBE0"/>
<path d="M1013.43 491.782L1012.72 496.911L1007.59 497.622L1012.72 498.332L1013.43 503.461L1014.14 498.332L1019.26 497.622L1014.14 496.911L1013.43 491.782Z" fill="#A799FF"/>
<ellipse cx="2.59194" cy="2.59525" rx="2.59194" ry="2.59525" transform="matrix(-1 0 0 1 1220.94 645.195)" fill="#A799FF"/>
<ellipse opacity="0.6" cx="1.68877" cy="1.69092" rx="1.68877" ry="1.69092" transform="matrix(-1 0 0 1 1120.74 457.18)" fill="#A799FF"/>
<path d="M301.573 122.306L302.414 130.472L310.58 131.312L302.414 132.153L301.573 140.319L300.732 132.153L292.566 131.312L300.732 130.472L301.573 122.306Z" fill="#A799FF"/>
<path d="M764.296 446.549L765.136 454.715L773.303 455.556L765.136 456.396L764.296 464.562L763.455 456.396L755.289 455.556L763.455 454.715L764.296 446.549Z" fill="white"/>
<ellipse opacity="0.5" cx="3.57651" cy="3.58108" rx="3.57651" ry="3.58108" transform="matrix(1 -8.74228e-08 -8.74228e-08 -1 638.938 998.028)" fill="white"/>
<ellipse opacity="0.4" cx="2.33025" cy="2.33323" rx="2.33025" ry="2.33323" transform="matrix(1 -8.74228e-08 -8.74228e-08 -1 687.141 948.377)" fill="#A799FF"/>
<path d="M987.719 740.481L983.367 739.391L982.284 735.038L981.2 739.389L976.848 740.467L981.2 741.556L982.284 745.91L983.367 741.559L987.719 740.481Z" fill="white"/>
<ellipse opacity="0.5" cx="3.57651" cy="3.58108" rx="3.57651" ry="3.58108" transform="matrix(1 -8.74228e-08 -8.74228e-08 -1 598.59 925.075)" fill="white"/>
<ellipse cx="3.57651" cy="3.58108" rx="3.57651" ry="3.58108" transform="matrix(1 -8.74228e-08 -8.74228e-08 -1 455.625 897.05)" fill="#A799FF"/>
<ellipse opacity="0.3" cx="2.32728" cy="2.33025" rx="2.32728" ry="2.33025" transform="matrix(1 -8.74228e-08 -8.74228e-08 -1 814.528 844.292)" fill="#A799FF"/>
<ellipse cx="3.57651" cy="3.58108" rx="3.57651" ry="3.58108" transform="matrix(1 -8.74228e-08 -8.74228e-08 -1 766.368 917.307)" fill="#A799FF"/>
<ellipse cx="2.32728" cy="2.33025" rx="2.32728" ry="2.33025" transform="matrix(-0.707107 -0.707107 -0.707107 0.707107 469.977 997.839)" fill="#A799FF"/>
<path opacity="0.5" d="M416.018 935.887L415.315 940.624L410.579 941.326L415.315 942.023L416.011 946.759L416.714 942.022L421.45 941.319L416.714 940.623L416.018 935.887Z" fill="white"/>
<circle opacity="0.7" cx="2.33025" cy="2.33025" r="2.33025" transform="matrix(1 -8.74228e-08 -8.74228e-08 -1 646.75 792.34)" fill="white"/>
<path d="M654.751 910.344L655.786 903.324L662.798 902.287L655.786 901.25L654.751 894.229L653.715 901.25L646.704 902.287L653.715 903.324L654.751 910.344Z" fill="#A799FF"/>
<ellipse opacity="0.6" cx="2.33025" cy="2.33323" rx="2.33025" ry="2.33323" transform="matrix(1 -8.74228e-08 -8.74228e-08 -1 534.852 953.842)" fill="#A799FF"/>
</g>
</g>
<defs>
<filter id="filter0_f_11997_98975" x="-96.8804" y="46" width="1457.66" height="1089.39" filterUnits="userSpaceOnUse" color-interpolation-filters="sRGB">
<feFlood flood-opacity="0" result="BackgroundImageFix"/>
<feBlend mode="normal" in="SourceGraphic" in2="BackgroundImageFix" result="shape"/>
<feGaussianBlur stdDeviation="1" result="effect1_foregroundBlur_11997_98975"/>
</filter>
<linearGradient id="paint0_linear_11997_98975" x1="608" y1="0" x2="608" y2="1131" gradientUnits="userSpaceOnUse">
<stop stop-color="#2D0B77"/>
<stop offset="1" stop-color="#18171A"/>
</linearGradient>
</defs>
</svg>
