<svg width="17" height="16" viewBox="0 0 17 16" fill="none" xmlns="http://www.w3.org/2000/svg">
<g opacity="0.7" clip-path="url(#clip0_11997_99156)">
<path d="M16.5 8C16.5 11.866 12.918 15 8.5 15C7.70765 15.0011 6.91859 14.8982 6.153 14.694C5.569 14.99 4.228 15.558 1.972 15.928C1.772 15.96 1.62 15.752 1.699 15.566C2.053 14.73 2.373 13.616 2.469 12.6C1.244 11.37 0.5 9.76 0.5 8C0.5 4.134 4.082 1 8.5 1C12.918 1 16.5 4.134 16.5 8ZM7.694 6.766C7.62808 6.66762 7.552 6.57645 7.467 6.494C7.33336 6.35637 7.17401 6.2463 6.998 6.17L6.99 6.166C6.75317 6.05604 6.49511 5.99937 6.234 6C5.276 6 4.5 6.746 4.5 7.667C4.5 8.587 5.276 9.333 6.234 9.333C6.577 9.333 6.896 9.238 7.165 9.073C7.028 9.462 6.775 9.877 6.355 10.293C6.31544 10.3316 6.2842 10.3779 6.26321 10.4291C6.24222 10.4802 6.23193 10.5351 6.23296 10.5904C6.23399 10.6457 6.24632 10.7001 6.2692 10.7505C6.29208 10.8008 6.32503 10.8459 6.366 10.883C6.539 11.043 6.813 11.038 6.98 10.873C8.314 9.544 8.35 8.115 7.921 7.167C7.85799 7.02687 7.78199 6.89296 7.694 6.767V6.766ZM11.5 9.073C11.364 9.462 11.11 9.877 10.69 10.293C10.6505 10.3317 10.6193 10.378 10.5984 10.4292C10.5775 10.4804 10.5673 10.5353 10.5684 10.5906C10.5696 10.6459 10.582 10.7003 10.605 10.7506C10.6279 10.8009 10.661 10.846 10.702 10.883C10.874 11.043 11.148 11.038 11.315 10.873C12.649 9.544 12.685 8.115 12.257 7.167C12.1936 7.02685 12.1173 6.89293 12.029 6.767C11.9632 6.66826 11.8871 6.57676 11.802 6.494C11.6684 6.35635 11.509 6.24627 11.333 6.17L11.325 6.166C11.0885 6.05618 10.8308 5.99952 10.57 6C9.613 6 8.836 6.746 8.836 7.667C8.836 8.587 9.613 9.333 10.57 9.333C10.913 9.333 11.232 9.238 11.501 9.073H11.5Z" fill="white"/>
</g>
<defs>
<clipPath id="clip0_11997_99156">
<rect width="16" height="16" fill="white" transform="translate(0.5)"/>
</clipPath>
</defs>
</svg>
