<svg width="261" height="283" viewBox="0 0 261 283" fill="none" xmlns="http://www.w3.org/2000/svg">
<mask id="mask0" mask-type="alpha" maskUnits="userSpaceOnUse" x="0" y="0" width="261" height="283">
<rect width="261" height="283" fill="#C4C4C4"/>
</mask>
<g mask="url(#mask0)">
<path fill-rule="evenodd" clip-rule="evenodd" d="M43.0818 8.36534H57.3592V40.1538H43.0818V8.36534ZM43.0818 40.1538H221.264V193.659H43.0818V40.1538ZM221.264 8.36534H206.987V40.1538H221.264V8.36534ZM91.9108 8.36534H123.036V40.1538H91.9108V8.36534ZM180.145 8.36534H149.021V40.1538H180.145V8.36534Z" fill="#925529"/>
<path fill-rule="evenodd" clip-rule="evenodd" d="M91.9108 0H123.036H123.036H128.747V31.7885H143.309V40.1538L128.747 40.1538H123.036V8.36539H91.9108V0ZM57.3591 8.36542V40.1538H63.0701V0H57.3591V3.05176e-05H43.0818V8.36542H57.3591ZM63.0702 31.7885H86.1996V0H91.9106V40.1538H86.1996L63.0702 40.1538V31.7885ZM143.309 0H149.02V40.1538H143.309V0ZM185.856 0H180.145H149.021V8.36539H180.145L180.145 40.1538H185.856L201.276 40.1538V31.7885H185.856V0ZM201.276 0H205.559H206.987H221.264V8.36539H206.987V40.1538H201.276V0Z" fill="#DFB47F"/>
<rect x="91.9108" y="32.625" width="31.1249" height="8.36539" fill="#613413"/>
<rect x="43.0818" y="32.625" width="14.2775" height="8.36539" fill="#613413"/>
<rect x="71.6368" y="40.1538" width="5.71098" height="21.75" fill="#613413"/>
<rect x="109.9" y="40.9903" width="5.71098" height="21.75" fill="#613413"/>
<rect x="148.164" y="40.9903" width="5.71098" height="21.75" fill="#613413"/>
<rect x="186.427" y="40.9903" width="5.71098" height="21.75" fill="#613413"/>
<rect x="71.6368" y="98.7115" width="5.71098" height="21.75" fill="#613413"/>
<rect x="109.9" y="99.548" width="5.71098" height="21.75" fill="#613413"/>
<rect x="148.164" y="99.548" width="5.71098" height="21.75" fill="#613413"/>
<rect x="186.427" y="99.548" width="5.71098" height="21.75" fill="#613413"/>
<rect x="71.6368" y="157.269" width="5.71098" height="21.75" fill="#613413"/>
<rect x="109.9" y="158.106" width="5.71098" height="21.75" fill="#613413"/>
<rect x="148.164" y="158.106" width="5.71098" height="21.75" fill="#613413"/>
<rect x="186.427" y="158.106" width="5.71098" height="21.75" fill="#613413"/>
<rect x="51.6483" y="69.4326" width="5.71098" height="21.75" fill="#613413"/>
<rect x="89.9119" y="70.2692" width="5.71099" height="21.75" fill="#613413"/>
<rect x="128.175" y="70.2692" width="5.71101" height="21.75" fill="#613413"/>
<rect x="166.439" y="70.2692" width="5.71098" height="21.75" fill="#613413"/>
<rect x="204.703" y="70.2692" width="5.71098" height="21.75" fill="#613413"/>
<rect x="51.6483" y="127.99" width="5.71098" height="21.75" fill="#613413"/>
<rect x="89.9119" y="128.827" width="5.71099" height="21.75" fill="#613413"/>
<rect x="128.175" y="128.827" width="5.71101" height="21.75" fill="#613413"/>
<rect x="166.439" y="128.827" width="5.71098" height="21.75" fill="#613413"/>
<rect x="204.703" y="128.827" width="5.71098" height="21.75" fill="#613413"/>
<rect x="149.021" y="32.625" width="31.1249" height="8.36539" fill="#613413"/>
<rect x="206.987" y="32.625" width="14.2775" height="8.36539" fill="#613413"/>
<rect x="43.0818" y="61.9038" width="178.183" height="8.36539" fill="#613413"/>
<rect x="43.0818" y="91.1826" width="178.183" height="8.36539" fill="#613413"/>
<rect x="43.0818" y="120.461" width="178.183" height="8.36539" fill="#613413"/>
<rect x="43.0818" y="149.74" width="178.183" height="8.36539" fill="#613413"/>
<rect x="109.329" y="120.461" width="49.4" height="73.1971" rx="15" fill="#2F1E12"/>
<rect x="86.5818" y="78.6346" width="34.2981" height="73.1971" rx="15" fill="#2F1E12"/>
<rect x="149.322" y="78.6346" width="34.2981" height="73.1971" rx="15" fill="#2F1E12"/>
<rect y="281.913" width="261" height="8.36539" fill="#613413"/>
<path fill-rule="evenodd" clip-rule="evenodd" d="M0 111.26H20.9135V143.048H71.524V111.26H117.115V143.048H155.178V111.26H200.769V143.048H240.087V111.26H261V143.048V290.279H0V143.048V111.26Z" fill="#925529"/>
<path fill-rule="evenodd" clip-rule="evenodd" d="M0 102.894H20.9135L20.9135 102.894H29.2788V134.683H63.1586V143.048L29.2788 143.048H20.9135L20.9135 111.26H0V102.894ZM71.524 102.894H117.115H125.481L125.481 134.683H146.812V143.048H125.481L117.115 143.048L117.115 111.26H71.524L71.5241 143.048H63.1587V102.894H71.524ZM146.812 102.894H155.178H200.769V111.26H155.178L155.178 143.048H146.812V102.894ZM209.135 102.894H200.769V143.048H209.135H231.721H240.087V111.26H261V102.894H240.087H237.995H231.721L231.721 134.683H209.135L209.135 102.894Z" fill="#DFB47F"/>
<rect x="71.524" y="135.519" width="45.5913" height="8.36539" fill="#613413"/>
<rect y="135.519" width="20.9135" height="8.36539" fill="#613413"/>
<rect x="46.0096" y="143.048" width="8.36539" height="21.75" fill="#613413"/>
<rect x="102.058" y="143.885" width="8.36538" height="21.75" fill="#613413"/>
<rect x="158.106" y="143.885" width="8.36539" height="21.75" fill="#613413"/>
<rect x="214.154" y="143.885" width="8.36539" height="21.75" fill="#613413"/>
<rect x="46.0096" y="201.606" width="8.36539" height="21.75" fill="#613413"/>
<rect x="102.058" y="202.442" width="8.36538" height="21.75" fill="#613413"/>
<rect x="158.106" y="202.442" width="8.36539" height="21.75" fill="#613413"/>
<rect x="214.154" y="202.442" width="8.36539" height="21.75" fill="#613413"/>
<rect x="46.0096" y="260.163" width="8.36539" height="21.75" fill="#613413"/>
<rect x="102.058" y="261" width="8.36538" height="21.75" fill="#613413"/>
<rect x="158.106" y="261" width="8.36539" height="21.75" fill="#613413"/>
<rect x="214.154" y="261" width="8.36539" height="21.75" fill="#613413"/>
<rect x="16.7307" y="172.327" width="8.36539" height="21.75" fill="#613413"/>
<rect x="72.7788" y="173.164" width="8.3654" height="21.75" fill="#613413"/>
<rect x="128.827" y="173.164" width="8.36541" height="21.75" fill="#613413"/>
<rect x="184.875" y="173.164" width="8.36539" height="21.75" fill="#613413"/>
<rect x="240.923" y="173.164" width="8.36539" height="21.75" fill="#613413"/>
<rect x="16.7307" y="230.885" width="8.36539" height="21.75" fill="#613413"/>
<rect x="72.7788" y="231.721" width="8.3654" height="21.75" fill="#613413"/>
<rect x="128.827" y="231.721" width="8.36541" height="21.75" fill="#613413"/>
<rect x="184.875" y="231.721" width="8.36539" height="21.75" fill="#613413"/>
<rect x="240.923" y="231.721" width="8.36539" height="21.75" fill="#613413"/>
<rect x="155.178" y="135.519" width="45.5913" height="8.36539" fill="#613413"/>
<rect x="240.087" y="135.519" width="20.9135" height="8.36539" fill="#613413"/>
<rect y="164.798" width="261" height="8.36539" fill="#613413"/>
<rect y="194.077" width="261" height="8.36539" fill="#613413"/>
<rect y="223.356" width="261" height="8.36539" fill="#613413"/>
<rect y="252.635" width="261" height="8.36539" fill="#613413"/>
<rect x="107.913" y="207.043" width="56.8846" height="83.2356" rx="15" fill="#2F1E12"/>
</g>
</svg>
