<svg width="161" height="473" viewBox="0 0 161 473" fill="none" xmlns="http://www.w3.org/2000/svg">
<g clip-path="url(#clip0)">
<path d="M110.718 90.156V191.273L0 90.1561L110.718 90.156Z" fill="#BBBBBF"/>
<path d="M80.5 139C78.7782 136.933 76.8791 135.013 74.8254 133.263C76.1938 128.913 76.9305 124.291 76.9305 119.5C76.9305 114.709 76.1938 110.087 74.8254 105.737C76.8791 103.987 78.7782 102.067 80.5 100C82.2218 102.067 84.1209 103.987 86.1746 105.737C84.8062 110.087 84.0695 114.709 84.0695 119.5C84.0695 124.291 84.8062 128.913 86.1746 133.263C84.1209 135.013 82.2218 136.933 80.5 139Z" fill="black"/>
<path d="M90.0999 108.745C92.2737 110.238 94.5807 111.558 97 112.684C96.3289 114.84 95.9679 117.129 95.9679 119.5C95.9679 121.871 96.3289 124.16 97 126.316C94.5807 127.442 92.2737 128.762 90.0999 130.255C89.2687 126.803 88.8289 123.202 88.8289 119.5C88.8289 115.798 89.2687 112.197 90.0999 108.745Z" fill="black"/>
<path d="M72.1711 119.5C72.1711 115.798 71.7313 112.197 70.9001 108.745C68.7263 110.238 66.4193 111.558 64 112.684C64.6711 114.84 65.0321 117.129 65.0321 119.5C65.0321 121.871 64.6711 124.16 64 126.316C66.4193 127.442 68.7263 128.762 70.9001 130.255C71.7313 126.803 72.1711 123.202 72.1711 119.5Z" fill="black"/>
<path d="M121 29.4763H106V472.864H121V29.4763Z" fill="#7589A5"/>
<path d="M113.565 35.3313C123.266 35.3313 131.13 27.4671 131.13 17.7661C131.13 8.06514 123.266 0.200928 113.565 0.200928C103.864 0.200928 96 8.06514 96 17.7661C96 27.4671 103.864 35.3313 113.565 35.3313Z" fill="#466691"/>
</g>
<defs>
<clipPath id="clip0">
<rect width="161" height="473" fill="white"/>
</clipPath>
</defs>
</svg>
