<svg width="6086" height="1004" viewBox="0 0 6086 1004" fill="none" xmlns="http://www.w3.org/2000/svg">
<rect x="3399.26" y="974.492" width="14" height="14" transform="rotate(-68.1804 3399.26 974.492)" fill="#C4C4C4" fill-opacity="0.2"/>
<rect x="3475.5" y="810.649" width="10" height="10" transform="rotate(-108.18 3475.5 810.649)" fill="#C4C4C4" fill-opacity="0.2"/>
<rect x="3292.08" y="949.84" width="8" height="8" transform="rotate(-68.1804 3292.08 949.84)" fill="#C4C4C4" fill-opacity="0.2"/>
<rect x="3532.61" y="863.435" width="8" height="8" transform="rotate(-68.1804 3532.61 863.435)" fill="#C4C4C4" fill-opacity="0.2"/>
<rect x="3196.67" y="673.635" width="10" height="10" transform="rotate(146.32 3196.67 673.635)" fill="#C4C4C4" fill-opacity="0.2"/>
<rect x="3081.85" y="706.36" width="12" height="12" transform="rotate(-133.681 3081.85 706.36)" fill="#C4C4C4" fill-opacity="0.2"/>
<rect x="3375.02" y="574.209" width="8" height="8" transform="rotate(-68.1804 3375.02 574.209)" fill="#C4C4C4" fill-opacity="0.2"/>
<rect x="2923.06" y="89.001" width="14" height="14" transform="rotate(-68.1804 2923.06 89.001)" fill="#C4C4C4" fill-opacity="0.2"/>
<rect x="3202.48" y="519.385" width="7" height="7" transform="rotate(-51.1804 3202.48 519.385)" fill="#C4C4C4" fill-opacity="0.2"/>
<rect x="3181.68" y="9.97311" width="14" height="14" transform="rotate(-112.18 3181.68 9.97311)" fill="#C4C4C4" fill-opacity="0.2"/>
<rect x="2824.45" y="67.9948" width="8" height="8" transform="rotate(-108.18 2824.45 67.9948)" fill="#C4C4C4" fill-opacity="0.2"/>
<rect x="2975.05" y="131.923" width="8" height="8" transform="rotate(-108.18 2975.05 131.923)" fill="#C4C4C4" fill-opacity="0.2"/>
<rect x="3149.96" y="469.473" width="8" height="8" transform="rotate(-108.18 3149.96 469.473)" fill="#C4C4C4" fill-opacity="0.2"/>
<rect x="3118.04" y="342.982" width="8" height="8" transform="rotate(-68.1804 3118.04 342.982)" fill="#C4C4C4" fill-opacity="0.2"/>
<rect x="3098.76" y="482.986" width="8" height="8" transform="rotate(-68.1804 3098.76 482.986)" fill="#C4C4C4" fill-opacity="0.2"/>
<rect x="3047.54" y="829.91" width="7" height="7" transform="rotate(-118.18 3047.54 829.91)" fill="#C4C4C4" fill-opacity="0.2"/>
<rect x="2891.79" y="519.382" width="8" height="8" transform="rotate(-68.1804 2891.79 519.382)" fill="#C4C4C4" fill-opacity="0.2"/>
<rect x="3191.88" y="205.207" width="6" height="6" transform="rotate(-148.18 3191.88 205.207)" fill="#C4C4C4" fill-opacity="0.2"/>
<rect x="3264.54" y="221.34" width="6" height="6" transform="rotate(-148.18 3264.54 221.34)" fill="#C4C4C4" fill-opacity="0.2"/>
<rect x="3222.44" y="445.677" width="6" height="6" transform="rotate(-148.18 3222.44 445.677)" fill="#C4C4C4" fill-opacity="0.2"/>
<rect x="3091.27" y="857.144" width="5" height="5" transform="rotate(-148.18 3091.27 857.144)" fill="#C4C4C4" fill-opacity="0.2"/>
<rect x="2893.06" y="410.407" width="5" height="5" transform="rotate(-148.18 2893.06 410.407)" fill="#C4C4C4" fill-opacity="0.2"/>
<rect x="3325.1" y="822.161" width="5" height="5" transform="rotate(-148.18 3325.1 822.161)" fill="#C4C4C4" fill-opacity="0.2"/>
<rect x="3399.11" y="534.72" width="5" height="5" transform="rotate(-148.18 3399.11 534.72)" fill="#C4C4C4" fill-opacity="0.2"/>
<rect x="2714.48" y="71.8386" width="14" height="14" transform="rotate(159.238 2714.48 71.8386)" fill="#C4C4C4" fill-opacity="0.2"/>
<rect x="2073.4" y="588.086" width="10" height="10" transform="rotate(119.238 2073.4 588.086)" fill="#C4C4C4" fill-opacity="0.2"/>
<rect x="2517.74" y="203.35" width="8" height="8" transform="rotate(159.238 2517.74 203.35)" fill="#C4C4C4" fill-opacity="0.2"/>
<rect x="2505.66" y="299.818" width="10" height="10" transform="rotate(13.7381 2505.66 299.818)" fill="#C4C4C4" fill-opacity="0.2"/>
<rect x="2607.45" y="362.216" width="12" height="12" transform="rotate(93.7374 2607.45 362.216)" fill="#C4C4C4" fill-opacity="0.2"/>
<rect x="2311.77" y="235.77" width="8" height="8" transform="rotate(159.238 2311.77 235.77)" fill="#C4C4C4" fill-opacity="0.2"/>
<rect x="2388.15" y="399.91" width="7" height="7" transform="rotate(176.238 2388.15 399.91)" fill="#C4C4C4" fill-opacity="0.2"/>
<rect x="2027.13" y="759.908" width="14" height="14" transform="rotate(115.238 2027.13 759.908)" fill="#C4C4C4" fill-opacity="0.2"/>
<rect x="2084.48" y="949.561" width="10" height="10" transform="rotate(119.238 2084.48 949.561)" fill="#C4C4C4" fill-opacity="0.2"/>
<rect x="2311.58" y="983.686" width="8" height="8" transform="rotate(119.238 2311.58 983.686)" fill="#C4C4C4" fill-opacity="0.2"/>
<rect x="2256.74" y="829.538" width="8" height="8" transform="rotate(119.238 2256.74 829.538)" fill="#C4C4C4" fill-opacity="0.2"/>
<rect x="2024.48" y="808.397" width="8" height="8" transform="rotate(119.238 2024.48 808.397)" fill="#C4C4C4" fill-opacity="0.2"/>
<rect x="2386.93" y="472.348" width="8" height="8" transform="rotate(119.238 2386.93 472.348)" fill="#C4C4C4" fill-opacity="0.2"/>
<rect x="2315.4" y="581.442" width="8" height="8" transform="rotate(159.238 2315.4 581.442)" fill="#C4C4C4" fill-opacity="0.2"/>
<rect x="2431.53" y="500.905" width="8" height="8" transform="rotate(159.238 2431.53 500.905)" fill="#C4C4C4" fill-opacity="0.2"/>
<rect x="2721.63" y="303.878" width="7" height="7" transform="rotate(109.238 2721.63 303.878)" fill="#C4C4C4" fill-opacity="0.2"/>
<rect x="2598.38" y="628.678" width="8" height="8" transform="rotate(159.238 2598.38 628.678)" fill="#C4C4C4" fill-opacity="0.2"/>
<rect x="2163.99" y="620.295" width="6" height="6" transform="rotate(79.2381 2163.99 620.295)" fill="#C4C4C4" fill-opacity="0.2"/>
<rect x="2126.7" y="555.877" width="6" height="6" transform="rotate(79.2381 2126.7 555.877)" fill="#C4C4C4" fill-opacity="0.2"/>
<rect x="2320.37" y="435.086" width="6" height="6" transform="rotate(79.2381 2320.37 435.086)" fill="#C4C4C4" fill-opacity="0.2"/>
<rect x="2712.1" y="253.25" width="5" height="5" transform="rotate(79.2381 2712.1 253.25)" fill="#C4C4C4" fill-opacity="0.2"/>
<rect x="2517.27" y="701.475" width="5" height="5" transform="rotate(79.2381 2517.27 701.475)" fill="#C4C4C4" fill-opacity="0.2"/>
<rect x="2273.51" y="272.123" width="5" height="5" transform="rotate(79.2381 2273.51 272.123)" fill="#C4C4C4" fill-opacity="0.2"/>
<rect x="1912.58" y="783.02" width="6" height="6" transform="rotate(129.238 1912.58 783.02)" fill="#C4C4C4" fill-opacity="0.2"/>
<rect x="922.13" y="366.14" width="14" height="14" transform="rotate(40 922.13 366.14)" fill="#C4C4C4" fill-opacity="0.2"/>
<rect x="1054" y="489.698" width="10" height="10" fill="#C4C4C4" fill-opacity="0.2"/>
<rect x="978.993" y="272.002" width="8" height="8" transform="rotate(40 978.993 272.002)" fill="#C4C4C4" fill-opacity="0.2"/>
<rect x="932.993" y="689.002" width="8" height="8" transform="rotate(40 932.993 689.002)" fill="#C4C4C4" fill-opacity="0.2"/>
<rect x="1271.18" y="267.532" width="10" height="10" transform="rotate(-105.5 1271.18 267.532)" fill="#C4C4C4" fill-opacity="0.2"/>
<rect x="1275.91" y="148.237" width="12" height="12" transform="rotate(-25.5007 1275.91 148.237)" fill="#C4C4C4" fill-opacity="0.2"/>
<rect x="1309.99" y="468.002" width="8" height="8" transform="rotate(40 1309.99 468.002)" fill="#C4C4C4" fill-opacity="0.2"/>
<rect x="1911.99" y="190.002" width="14" height="14" transform="rotate(40 1911.99 190.002)" fill="#C4C4C4" fill-opacity="0.2"/>
<rect x="1415.92" y="321.18" width="7" height="7" transform="rotate(57 1415.92 321.18)" fill="#C4C4C4" fill-opacity="0.2"/>
<rect x="1906.38" y="460.368" width="14" height="14" transform="rotate(-4 1906.38 460.368)" fill="#C4C4C4" fill-opacity="0.2"/>
<rect x="2043.87" y="317.698" width="10" height="10" fill="#C4C4C4" fill-opacity="0.2"/>
<rect x="1962.72" y="102.863" width="8" height="8" fill="#C4C4C4" fill-opacity="0.2"/>
<rect x="1854.99" y="226.002" width="8" height="8" fill="#C4C4C4" fill-opacity="0.2"/>
<rect x="1479.72" y="286.863" width="8" height="8" fill="#C4C4C4" fill-opacity="0.2"/>
<rect x="1609.86" y="296.002" width="8" height="8" transform="rotate(40 1609.86 296.002)" fill="#C4C4C4" fill-opacity="0.2"/>
<rect x="1482.86" y="234.002" width="8" height="8" transform="rotate(40 1482.86 234.002)" fill="#C4C4C4" fill-opacity="0.2"/>
<rect x="1169.23" y="77.0937" width="7" height="7" transform="rotate(-10 1169.23 77.0937)" fill="#C4C4C4" fill-opacity="0.2"/>
<rect x="1512.86" y="26.0017" width="8" height="8" transform="rotate(40 1512.86 26.0017)" fill="#C4C4C4" fill-opacity="0.2"/>
<rect x="1717.71" y="409.144" width="6" height="6" transform="rotate(-40 1717.71 409.144)" fill="#C4C4C4" fill-opacity="0.2"/>
<rect x="1679.71" y="473.144" width="6" height="6" transform="rotate(-40 1679.71 473.144)" fill="#C4C4C4" fill-opacity="0.2"/>
<rect x="1479.71" y="363.144" width="6" height="6" transform="rotate(-40 1479.71 363.144)" fill="#C4C4C4" fill-opacity="0.2"/>
<rect x="1129.71" y="110.144" width="5" height="5" transform="rotate(-40 1129.71 110.144)" fill="#C4C4C4" fill-opacity="0.2"/>
<rect x="1615.99" y="61.2155" width="5" height="5" transform="rotate(-40 1615.99 61.2155)" fill="#C4C4C4" fill-opacity="0.2"/>
<rect x="1089.99" y="343.216" width="5" height="5" transform="rotate(-40 1089.99 343.216)" fill="#C4C4C4" fill-opacity="0.2"/>
<rect x="1339.99" y="503.216" width="5" height="5" transform="rotate(-40 1339.99 503.216)" fill="#C4C4C4" fill-opacity="0.2"/>
<rect x="1982.5" y="549.038" width="6" height="6" transform="rotate(10 1982.5 549.038)" fill="#C4C4C4" fill-opacity="0.2"/>
<rect x="1072.2" y="792.038" width="14" height="14" transform="rotate(38.9576 1072.2 792.038)" fill="#C4C4C4" fill-opacity="0.2"/>
<rect x="1206.3" y="913.177" width="10" height="10" transform="rotate(-1.04237 1206.3 913.177)" fill="#C4C4C4" fill-opacity="0.2"/>
<rect x="1127.34" y="696.881" width="8" height="8" transform="rotate(38.9576 1127.34 696.881)" fill="#C4C4C4" fill-opacity="0.2"/>
<rect x="1419.4" y="687.097" width="10" height="10" transform="rotate(-106.542 1419.4 687.097)" fill="#C4C4C4" fill-opacity="0.2"/>
<rect x="1421.96" y="567.735" width="12" height="12" transform="rotate(-26.543 1421.96 567.735)" fill="#C4C4C4" fill-opacity="0.2"/>
<rect x="1461.85" y="886.827" width="8" height="8" transform="rotate(38.9576 1461.85 886.827)" fill="#C4C4C4" fill-opacity="0.2"/>
<rect x="2058.7" y="597.922" width="14" height="14" transform="rotate(38.9576 2058.7 597.922)" fill="#C4C4C4" fill-opacity="0.2"/>
<rect x="1565.09" y="738.103" width="7" height="7" transform="rotate(55.9576 1565.09 738.103)" fill="#C4C4C4" fill-opacity="0.2"/>
<rect x="1938.55" y="791.959" width="14" height="14" transform="rotate(-5.04237 1938.55 791.959)" fill="#C4C4C4" fill-opacity="0.2"/>
<rect x="2192.87" y="723.198" width="10" height="10" transform="rotate(-1.04237 2192.87 723.198)" fill="#C4C4C4" fill-opacity="0.2"/>
<rect x="2411.41" y="558.768" width="10" height="10" transform="rotate(-1.04237 2411.41 558.768)" fill="#C4C4C4" fill-opacity="0.2"/>
<rect x="2002.36" y="634.953" width="8" height="8" transform="rotate(-1.04237 2002.36 634.953)" fill="#C4C4C4" fill-opacity="0.2"/>
<rect x="2101.22" y="846.189" width="8" height="8" transform="rotate(-1.04237 2101.22 846.189)" fill="#C4C4C4" fill-opacity="0.2"/>
<rect x="1628.26" y="702.631" width="8" height="8" transform="rotate(-1.04237 1628.26 702.631)" fill="#C4C4C4" fill-opacity="0.2"/>
<rect x="1758.54" y="709.401" width="8" height="8" transform="rotate(38.9576 1758.54 709.401)" fill="#C4C4C4" fill-opacity="0.2"/>
<rect x="1630.43" y="649.721" width="8" height="8" transform="rotate(38.9576 1630.43 649.721)" fill="#C4C4C4" fill-opacity="0.2"/>
<rect x="1314.01" y="498.545" width="7" height="7" transform="rotate(-11.0424 1314.01 498.545)" fill="#C4C4C4" fill-opacity="0.2"/>
<rect x="1695.06" y="541.075" width="8" height="8" transform="rotate(38.9576 1695.06 541.075)" fill="#C4C4C4" fill-opacity="0.2"/>
<rect x="1868.44" y="820.562" width="6" height="6" transform="rotate(-41.0424 1868.44 820.562)" fill="#C4C4C4" fill-opacity="0.2"/>
<rect x="1275.09" y="532.308" width="5" height="5" transform="rotate(-41.0424 1275.09 532.308)" fill="#C4C4C4" fill-opacity="0.2"/>
<rect x="1239.62" y="766.064" width="5" height="5" transform="rotate(-41.0424 1239.62 766.064)" fill="#C4C4C4" fill-opacity="0.2"/>
<rect x="1492.49" y="921.49" width="5" height="5" transform="rotate(-41.0424 1492.49 921.49)" fill="#C4C4C4" fill-opacity="0.2"/>
<rect x="2135.73" y="955.616" width="6" height="6" transform="rotate(8.95763 2135.73 955.616)" fill="#C4C4C4" fill-opacity="0.2"/>
<rect x="328.838" y="956.421" width="14" height="14" transform="rotate(10 328.838 956.421)" fill="#C4C4C4" fill-opacity="0.2"/>
<rect x="504.824" y="997.488" width="10" height="10" transform="rotate(-30 504.824 997.488)" fill="#C4C4C4" fill-opacity="0.2"/>
<rect x="331.014" y="846.463" width="8" height="8" transform="rotate(10 331.014 846.463)" fill="#C4C4C4" fill-opacity="0.2"/>
<rect x="581.819" y="696.5" width="10" height="10" transform="rotate(-135.5 581.819 696.5)" fill="#C4C4C4" fill-opacity="0.2"/>
<rect x="526.27" y="590.82" width="12" height="12" transform="rotate(-55.5007 526.27 590.82)" fill="#C4C4C4" fill-opacity="0.2"/>
<rect x="715.668" y="850.704" width="8" height="8" transform="rotate(10 715.668 850.704)" fill="#C4C4C4" fill-opacity="0.2"/>
<rect x="1098.02" y="308.949" width="14" height="14" transform="rotate(10 1098.02 308.949)" fill="#C4C4C4" fill-opacity="0.2"/>
<rect x="733.989" y="670.592" width="7" height="7" transform="rotate(27 733.989 670.592)" fill="#C4C4C4" fill-opacity="0.2"/>
<rect x="1228.34" y="545.898" width="14" height="14" transform="rotate(-34 1228.34 545.898)" fill="#C4C4C4" fill-opacity="0.2"/>
<rect x="1276.07" y="353.6" width="10" height="10" transform="rotate(-30 1276.07 353.6)" fill="#C4C4C4" fill-opacity="0.2"/>
<rect x="1098.38" y="208.122" width="8" height="8" transform="rotate(-30 1098.38 208.122)" fill="#C4C4C4" fill-opacity="0.2"/>
<rect x="1066.65" y="368.626" width="8" height="8" transform="rotate(-30 1066.65 368.626)" fill="#C4C4C4" fill-opacity="0.2"/>
<rect x="1255.42" y="505.589" width="8" height="8" transform="rotate(-30 1255.42 505.589)" fill="#C4C4C4" fill-opacity="0.2"/>
<rect x="772.087" y="608.97" width="8" height="8" transform="rotate(-30 772.087 608.97)" fill="#C4C4C4" fill-opacity="0.2"/>
<rect x="889.357" y="551.816" width="8" height="8" transform="rotate(10 889.357 551.816)" fill="#C4C4C4" fill-opacity="0.2"/>
<rect x="748.373" y="561.622" width="8" height="8" transform="rotate(10 748.373 561.622)" fill="#C4C4C4" fill-opacity="0.2"/>
<rect x="398.313" y="582.547" width="7" height="7" transform="rotate(-40 398.313 582.547)" fill="#C4C4C4" fill-opacity="0.2"/>
<rect x="670.353" y="366.489" width="8" height="8" transform="rotate(10 670.353 366.489)" fill="#C4C4C4" fill-opacity="0.2"/>
<rect x="1039.34" y="595.871" width="6" height="6" transform="rotate(-70 1039.34 595.871)" fill="#C4C4C4" fill-opacity="0.2"/>
<rect x="380.613" y="630.929" width="5" height="5" transform="rotate(-70 380.613 630.929)" fill="#C4C4C4" fill-opacity="0.2"/>
<rect x="777.279" y="345.417" width="5" height="5" transform="rotate(-70 777.279 345.417)" fill="#C4C4C4" fill-opacity="0.2"/>
<rect x="462.75" y="852.636" width="5" height="5" transform="rotate(-70 462.75 852.636)" fill="#C4C4C4" fill-opacity="0.2"/>
<rect x="759.256" y="866.2" width="5" height="5" transform="rotate(-70 759.256 866.2)" fill="#C4C4C4" fill-opacity="0.2"/>
<rect x="1338.6" y="584.627" width="6" height="6" transform="rotate(-20 1338.6 584.627)" fill="#C4C4C4" fill-opacity="0.2"/>
<rect x="474.87" y="91.1907" width="14" height="14" transform="rotate(162.722 474.87 91.1907)" fill="#C4C4C4" fill-opacity="0.2"/>
<rect x="299.633" y="135.346" width="10" height="10" transform="rotate(122.722 299.633 135.346)" fill="#C4C4C4" fill-opacity="0.2"/>
<rect x="523.331" y="189.918" width="8" height="8" transform="rotate(162.722 523.331 189.918)" fill="#C4C4C4" fill-opacity="0.2"/>
<rect x="369.145" y="438.15" width="10" height="10" transform="rotate(17.2222 369.145 438.15)" fill="#C4C4C4" fill-opacity="0.2"/>
<rect x="466.95" y="506.619" width="12" height="12" transform="rotate(97.2215 466.95 506.619)" fill="#C4C4C4" fill-opacity="0.2"/>
<rect x="179.508" y="362.438" width="8" height="8" transform="rotate(162.722 179.508 362.438)" fill="#C4C4C4" fill-opacity="0.2"/>
<rect x="245.771" y="530.917" width="7" height="7" transform="rotate(179.722 245.771 530.917)" fill="#C4C4C4" fill-opacity="0.2"/>
<rect x="88.4946" y="951.764" width="8" height="8" transform="rotate(122.722 88.4946 951.764)" fill="#C4C4C4" fill-opacity="0.2"/>
<rect x="240.151" y="603.146" width="8" height="8" transform="rotate(122.722 240.151 603.146)" fill="#C4C4C4" fill-opacity="0.2"/>
<rect x="162.116" y="707.691" width="8" height="8" transform="rotate(162.722 162.116 707.691)" fill="#C4C4C4" fill-opacity="0.2"/>
<rect x="282.929" y="634.36" width="8" height="8" transform="rotate(162.722 282.929 634.36)" fill="#C4C4C4" fill-opacity="0.2"/>
<rect x="584.469" y="455.328" width="7" height="7" transform="rotate(112.722 584.469 455.328)" fill="#C4C4C4" fill-opacity="0.2"/>
<rect x="441.702" y="772.037" width="8" height="8" transform="rotate(162.722 441.702 772.037)" fill="#C4C4C4" fill-opacity="0.2"/>
<rect x="8.62549" y="737.271" width="6" height="6" transform="rotate(82.7222 8.62549 737.271)" fill="#C4C4C4" fill-opacity="0.2"/>
<rect x="578.027" y="404.214" width="5" height="5" transform="rotate(82.7222 578.027 404.214)" fill="#C4C4C4" fill-opacity="0.2"/>
<rect x="356.325" y="839.771" width="5" height="5" transform="rotate(82.7222 356.325 839.771)" fill="#C4C4C4" fill-opacity="0.2"/>
<rect x="403.415" y="244.807" width="5" height="5" transform="rotate(82.7222 403.415 244.807)" fill="#C4C4C4" fill-opacity="0.2"/>
<rect x="133.666" y="368.641" width="5" height="5" transform="rotate(82.7222 133.666 368.641)" fill="#C4C4C4" fill-opacity="0.2"/>
<rect x="2789.83" y="673.002" width="14" height="14" transform="rotate(159.227 2789.83 673.002)" fill="#C4C4C4" fill-opacity="0.2"/>
<rect x="2617.61" y="727.757" width="10" height="10" transform="rotate(119.227 2617.61 727.757)" fill="#C4C4C4" fill-opacity="0.2"/>
<rect x="2844.22" y="768.591" width="8" height="8" transform="rotate(159.227 2844.22 768.591)" fill="#C4C4C4" fill-opacity="0.2"/>
<rect x="2502.77" y="524.837" width="8" height="8" transform="rotate(159.227 2502.77 524.837)" fill="#C4C4C4" fill-opacity="0.2"/>
<rect x="2511.55" y="961.75" width="8" height="8" transform="rotate(159.227 2511.55 961.75)" fill="#C4C4C4" fill-opacity="0.2"/>
<rect x="2911.88" y="979.155" width="5" height="5" transform="rotate(79.2273 2911.88 979.155)" fill="#C4C4C4" fill-opacity="0.2"/>
<rect x="2727.87" y="830.688" width="5" height="5" transform="rotate(79.2273 2727.87 830.688)" fill="#C4C4C4" fill-opacity="0.2"/>
<rect x="2466.17" y="970.736" width="5" height="5" transform="rotate(79.2273 2466.17 970.736)" fill="#C4C4C4" fill-opacity="0.2"/>
<rect x="5244.83" y="471.002" width="14" height="14" transform="rotate(159.227 5244.83 471.002)" fill="#C4C4C4" fill-opacity="0.2"/>
<rect x="5072.61" y="525.757" width="10" height="10" transform="rotate(119.227 5072.61 525.757)" fill="#C4C4C4" fill-opacity="0.2"/>
<rect x="5299.22" y="566.591" width="8" height="8" transform="rotate(159.227 5299.22 566.591)" fill="#C4C4C4" fill-opacity="0.2"/>
<rect x="4957.77" y="322.837" width="8" height="8" transform="rotate(159.227 4957.77 322.837)" fill="#C4C4C4" fill-opacity="0.2"/>
<rect x="5160.45" y="823.761" width="10" height="10" transform="rotate(13.7273 5160.45 823.761)" fill="#C4C4C4" fill-opacity="0.2"/>
<rect x="5262.25" y="886.14" width="12" height="12" transform="rotate(93.7266 5262.25 886.14)" fill="#C4C4C4" fill-opacity="0.2"/>
<rect x="4966.55" y="759.75" width="8" height="8" transform="rotate(159.227 4966.55 759.75)" fill="#C4C4C4" fill-opacity="0.2"/>
<rect x="5042.96" y="923.876" width="7" height="7" transform="rotate(176.227 5042.96 923.876)" fill="#C4C4C4" fill-opacity="0.2"/>
<rect x="5041.76" y="996.314" width="8" height="8" transform="rotate(119.227 5041.76 996.314)" fill="#C4C4C4" fill-opacity="0.2"/>
<rect x="5376.42" y="827.781" width="7" height="7" transform="rotate(109.227 5376.42 827.781)" fill="#C4C4C4" fill-opacity="0.2"/>
<rect x="5366.88" y="777.155" width="5" height="5" transform="rotate(79.2273 5366.88 777.155)" fill="#C4C4C4" fill-opacity="0.2"/>
<rect x="5182.87" y="628.688" width="5" height="5" transform="rotate(79.2273 5182.87 628.688)" fill="#C4C4C4" fill-opacity="0.2"/>
<rect x="4921.17" y="768.736" width="5" height="5" transform="rotate(79.2273 4921.17 768.736)" fill="#C4C4C4" fill-opacity="0.2"/>
<rect x="4575.05" y="921.802" width="14" height="14" transform="rotate(-97.1174 4575.05 921.802)" fill="#C4C4C4" fill-opacity="0.2"/>
<rect x="4562.5" y="741.524" width="10" height="10" transform="rotate(-137.117 4562.5 741.524)" fill="#C4C4C4" fill-opacity="0.2"/>
<rect x="4469.33" y="952.086" width="8" height="8" transform="rotate(-97.1174 4469.33 952.086)" fill="#C4C4C4" fill-opacity="0.2"/>
<rect x="4786.8" y="677.833" width="8" height="8" transform="rotate(-97.1174 4786.8 677.833)" fill="#C4C4C4" fill-opacity="0.2"/>
<rect x="4252.19" y="756.529" width="10" height="10" transform="rotate(117.383 4252.19 756.529)" fill="#C4C4C4" fill-opacity="0.2"/>
<rect x="4167.54" y="840.723" width="12" height="12" transform="rotate(-162.618 4167.54 840.723)" fill="#C4C4C4" fill-opacity="0.2"/>
<rect x="4360.16" y="583.222" width="8" height="8" transform="rotate(-97.1174 4360.16 583.222)" fill="#C4C4C4" fill-opacity="0.2"/>
<rect x="4182.64" y="618.726" width="7" height="7" transform="rotate(-80.1174 4182.64 618.726)" fill="#C4C4C4" fill-opacity="0.2"/>
<rect x="4112.53" y="600.452" width="8" height="8" transform="rotate(-137.117 4112.53 600.452)" fill="#C4C4C4" fill-opacity="0.2"/>
<rect x="4023.39" y="505.199" width="8" height="8" transform="rotate(-97.1174 4023.39 505.199)" fill="#C4C4C4" fill-opacity="0.2"/>
<rect x="4074.26" y="637.052" width="8" height="8" transform="rotate(-97.1174 4074.26 637.052)" fill="#C4C4C4" fill-opacity="0.2"/>
<rect x="4197.29" y="965.447" width="7" height="7" transform="rotate(-147.117 4197.29 965.447)" fill="#C4C4C4" fill-opacity="0.2"/>
<rect x="3910.74" y="769.049" width="8" height="8" transform="rotate(-97.1174 3910.74 769.049)" fill="#C4C4C4" fill-opacity="0.2"/>
<rect x="4248.74" y="968.122" width="5" height="5" transform="rotate(-177.117 4248.74 968.122)" fill="#C4C4C4" fill-opacity="0.2"/>
<rect x="3859.12" y="673.062" width="5" height="5" transform="rotate(-177.117 3859.12 673.062)" fill="#C4C4C4" fill-opacity="0.2"/>
<rect x="4436.45" y="824.369" width="5" height="5" transform="rotate(-177.117 4436.45 824.369)" fill="#C4C4C4" fill-opacity="0.2"/>
<rect x="4362.14" y="537.004" width="5" height="5" transform="rotate(-177.117 4362.14 537.004)" fill="#C4C4C4" fill-opacity="0.2"/>
<rect x="6013.5" y="910.363" width="10" height="10" transform="rotate(145.993 6013.5 910.363)" fill="#C4C4C4" fill-opacity="0.2"/>
<rect x="5898.88" y="943.742" width="12" height="12" transform="rotate(-134.008 5898.88 943.742)" fill="#C4C4C4" fill-opacity="0.2"/>
<rect x="5736.57" y="327.299" width="14" height="14" transform="rotate(-68.5071 5736.57 327.299)" fill="#C4C4C4" fill-opacity="0.2"/>
<rect x="6018.43" y="756.083" width="7" height="7" transform="rotate(-51.5071 6018.43 756.083)" fill="#C4C4C4" fill-opacity="0.2"/>
<rect x="5994.74" y="246.798" width="14" height="14" transform="rotate(-112.507 5994.74 246.798)" fill="#C4C4C4" fill-opacity="0.2"/>
<rect x="5815.81" y="161.71" width="10" height="10" transform="rotate(-108.507 5815.81 161.71)" fill="#C4C4C4" fill-opacity="0.2"/>
<rect x="5593.37" y="2.6004" width="10" height="10" transform="rotate(-108.507 5593.37 2.6004)" fill="#C4C4C4" fill-opacity="0.2"/>
<rect x="5637.84" y="306.855" width="8" height="8" transform="rotate(-108.507 5637.84 306.855)" fill="#C4C4C4" fill-opacity="0.2"/>
<rect x="5788.8" y="369.924" width="8" height="8" transform="rotate(-108.507 5788.8 369.924)" fill="#C4C4C4" fill-opacity="0.2"/>
<rect x="5960.63" y="212.226" width="8" height="8" transform="rotate(-108.507 5960.63 212.226)" fill="#C4C4C4" fill-opacity="0.2"/>
<rect x="5965.64" y="706.471" width="8" height="8" transform="rotate(-108.507 5965.64 706.471)" fill="#C4C4C4" fill-opacity="0.2"/>
<rect x="5933" y="580.163" width="8" height="8" transform="rotate(-68.5071 5933 580.163)" fill="#C4C4C4" fill-opacity="0.2"/>
<rect x="5914.52" y="720.276" width="8" height="8" transform="rotate(-68.5071 5914.52 720.276)" fill="#C4C4C4" fill-opacity="0.2"/>
<rect x="5733.39" y="742.274" width="8" height="8" transform="rotate(-68.5071 5733.39 742.274)" fill="#C4C4C4" fill-opacity="0.2"/>
<rect x="6006.05" y="441.97" width="6" height="6" transform="rotate(-148.507 6006.05 441.97)" fill="#C4C4C4" fill-opacity="0.2"/>
<rect x="5708.4" y="648.871" width="5" height="5" transform="rotate(-148.507 5708.4 648.871)" fill="#C4C4C4" fill-opacity="0.2"/>
<rect x="6054.66" y="146.467" width="6" height="6" transform="rotate(-98.5071 6054.66 146.467)" fill="#C4C4C4" fill-opacity="0.2"/>
<rect x="5501.82" y="18.39" width="10" height="10" transform="rotate(93.0634 5501.82 18.39)" fill="#C4C4C4" fill-opacity="0.2"/>
<rect x="5712.06" y="247.126" width="10" height="10" transform="rotate(-12.4366 5712.06 247.126)" fill="#C4C4C4" fill-opacity="0.2"/>
<rect x="5830.94" y="258.227" width="12" height="12" transform="rotate(67.5627 5830.94 258.227)" fill="#C4C4C4" fill-opacity="0.2"/>
<rect x="5509.81" y="275.172" width="8" height="8" transform="rotate(133.063 5509.81 275.172)" fill="#C4C4C4" fill-opacity="0.2"/>
<rect x="5755.24" y="891.168" width="14" height="14" transform="rotate(133.063 5755.24 891.168)" fill="#C4C4C4" fill-opacity="0.2"/>
<rect x="5650.76" y="388.789" width="7" height="7" transform="rotate(150.063 5650.76 388.789)" fill="#C4C4C4" fill-opacity="0.2"/>
<rect x="5485.56" y="871.118" width="14" height="14" transform="rotate(89.0634 5485.56 871.118)" fill="#C4C4C4" fill-opacity="0.2"/>
<rect x="5839.54" y="946.479" width="8" height="8" transform="rotate(93.0634 5839.54 946.479)" fill="#C4C4C4" fill-opacity="0.2"/>
<rect x="5722.33" y="832.326" width="8" height="8" transform="rotate(93.0634 5722.33 832.326)" fill="#C4C4C4" fill-opacity="0.2"/>
<rect x="5504.56" y="915.807" width="8" height="8" transform="rotate(93.0634 5504.56 915.807)" fill="#C4C4C4" fill-opacity="0.2"/>
<rect x="5681.62" y="454.336" width="8" height="8" transform="rotate(93.0634 5681.62 454.336)" fill="#C4C4C4" fill-opacity="0.2"/>
<rect x="5665.54" y="583.799" width="8" height="8" transform="rotate(133.063 5665.54 583.799)" fill="#C4C4C4" fill-opacity="0.2"/>
<rect x="5734.23" y="460.293" width="8" height="8" transform="rotate(133.063 5734.23 460.293)" fill="#C4C4C4" fill-opacity="0.2"/>
<rect x="5907.68" y="155.504" width="7" height="7" transform="rotate(83.0634 5907.68 155.504)" fill="#C4C4C4" fill-opacity="0.2"/>
<rect x="5910.76" y="506.426" width="8" height="8" transform="rotate(133.063 5910.76 506.426)" fill="#C4C4C4" fill-opacity="0.2"/>
<rect x="5546.79" y="685.456" width="6" height="6" transform="rotate(53.0634 5546.79 685.456)" fill="#C4C4C4" fill-opacity="0.2"/>
<rect x="5876.79" y="114.274" width="5" height="5" transform="rotate(53.0634 5876.79 114.274)" fill="#C4C4C4" fill-opacity="0.2"/>
<rect x="5899.66" y="602.474" width="5" height="5" transform="rotate(53.0634 5899.66 602.474)" fill="#C4C4C4" fill-opacity="0.2"/>
<rect x="5646.17" y="62.155" width="5" height="5" transform="rotate(53.0634 5646.17 62.155)" fill="#C4C4C4" fill-opacity="0.2"/>
<rect x="5473.04" y="303.247" width="5" height="5" transform="rotate(53.0634 5473.04 303.247)" fill="#C4C4C4" fill-opacity="0.2"/>
<rect x="5392.95" y="942.392" width="6" height="6" transform="rotate(103.063 5392.95 942.392)" fill="#C4C4C4" fill-opacity="0.2"/>
<rect x="4408" y="351.138" width="14" height="14" transform="rotate(40 4408 351.138)" fill="#C4C4C4" fill-opacity="0.2"/>
<rect x="4539.87" y="474.697" width="10" height="10" fill="#C4C4C4" fill-opacity="0.2"/>
<rect x="4464.86" y="257" width="8" height="8" transform="rotate(40 4464.86 257)" fill="#C4C4C4" fill-opacity="0.2"/>
<rect x="4838.14" y="250" width="8" height="8" transform="rotate(40 4838.14 250)" fill="#C4C4C4" fill-opacity="0.2"/>
<rect x="4757.05" y="252.531" width="10" height="10" transform="rotate(-105.5 4757.05 252.531)" fill="#C4C4C4" fill-opacity="0.2"/>
<rect x="4761.78" y="133.235" width="12" height="12" transform="rotate(-25.5007 4761.78 133.235)" fill="#C4C4C4" fill-opacity="0.2"/>
<rect x="4795.86" y="453" width="8" height="8" transform="rotate(40 4795.86 453)" fill="#C4C4C4" fill-opacity="0.2"/>
<rect x="5397.86" y="175" width="14" height="14" transform="rotate(40 5397.86 175)" fill="#C4C4C4" fill-opacity="0.2"/>
<rect x="4901.78" y="306.179" width="7" height="7" transform="rotate(57 4901.78 306.179)" fill="#C4C4C4" fill-opacity="0.2"/>
<rect x="5392.25" y="445.367" width="14" height="14" transform="rotate(-4 5392.25 445.367)" fill="#C4C4C4" fill-opacity="0.2"/>
<rect x="5529.74" y="302.697" width="10" height="10" fill="#C4C4C4" fill-opacity="0.2"/>
<rect x="5448.59" y="357.862" width="8" height="8" fill="#C4C4C4" fill-opacity="0.2"/>
<rect x="5340.86" y="211" width="8" height="8" fill="#C4C4C4" fill-opacity="0.2"/>
<rect x="5435.86" y="604" width="8" height="8" fill="#C4C4C4" fill-opacity="0.2"/>
<rect x="4965.59" y="271.862" width="8" height="8" fill="#C4C4C4" fill-opacity="0.2"/>
<rect x="5095.73" y="281" width="8" height="8" transform="rotate(40 5095.73 281)" fill="#C4C4C4" fill-opacity="0.2"/>
<rect x="4968.73" y="219" width="8" height="8" transform="rotate(40 4968.73 219)" fill="#C4C4C4" fill-opacity="0.2"/>
<rect x="4655.1" y="62.092" width="7" height="7" transform="rotate(-10 4655.1 62.092)" fill="#C4C4C4" fill-opacity="0.2"/>
<rect x="4958.73" y="41" width="8" height="8" transform="rotate(40 4958.73 41)" fill="#C4C4C4" fill-opacity="0.2"/>
<rect x="5203.58" y="394.142" width="6" height="6" transform="rotate(-40 5203.58 394.142)" fill="#C4C4C4" fill-opacity="0.2"/>
<rect x="5165.58" y="458.142" width="6" height="6" transform="rotate(-40 5165.58 458.142)" fill="#C4C4C4" fill-opacity="0.2"/>
<rect x="4965.58" y="348.142" width="6" height="6" transform="rotate(-40 4965.58 348.142)" fill="#C4C4C4" fill-opacity="0.2"/>
<rect x="4615.58" y="95.1421" width="5" height="5" transform="rotate(-40 4615.58 95.1421)" fill="#C4C4C4" fill-opacity="0.2"/>
<rect x="5061.86" y="76.2139" width="5" height="5" transform="rotate(-40 5061.86 76.2139)" fill="#C4C4C4" fill-opacity="0.2"/>
<rect x="4575.86" y="328.214" width="5" height="5" transform="rotate(-40 4575.86 328.214)" fill="#C4C4C4" fill-opacity="0.2"/>
<rect x="4825.86" y="488.214" width="5" height="5" transform="rotate(-40 4825.86 488.214)" fill="#C4C4C4" fill-opacity="0.2"/>
<rect x="5468.37" y="534.036" width="6" height="6" transform="rotate(10 5468.37 534.036)" fill="#C4C4C4" fill-opacity="0.2"/>
<rect x="5079.89" y="403.247" width="14" height="14" transform="rotate(-141.199 5079.89 403.247)" fill="#C4C4C4" fill-opacity="0.2"/>
<rect x="4945.46" y="282.475" width="10" height="10" transform="rotate(178.801 4945.46 282.475)" fill="#C4C4C4" fill-opacity="0.2"/>
<rect x="5025.01" y="498.555" width="8" height="8" transform="rotate(-141.199 5025.01 498.555)" fill="#C4C4C4" fill-opacity="0.2"/>
<rect x="5062.28" y="80.6837" width="8" height="8" transform="rotate(-141.199 5062.28 80.6837)" fill="#C4C4C4" fill-opacity="0.2"/>
<rect x="4732.98" y="509.136" width="10" height="10" transform="rotate(73.3012 4732.98 509.136)" fill="#C4C4C4" fill-opacity="0.2"/>
<rect x="4730.75" y="628.504" width="12" height="12" transform="rotate(153.301 4730.75 628.504)" fill="#C4C4C4" fill-opacity="0.2"/>
<rect x="4689.98" y="309.523" width="8" height="8" transform="rotate(-141.199 4689.98 309.523)" fill="#C4C4C4" fill-opacity="0.2"/>
<rect x="4093.93" y="600.056" width="14" height="14" transform="rotate(-141.199 4093.93 600.056)" fill="#C4C4C4" fill-opacity="0.2"/>
<rect x="4587.16" y="458.528" width="7" height="7" transform="rotate(-124.199 4587.16 458.528)" fill="#C4C4C4" fill-opacity="0.2"/>
<rect x="3873.88" y="569.631" width="14" height="14" transform="rotate(174.801 3873.88 569.631)" fill="#C4C4C4" fill-opacity="0.2"/>
<rect x="3959.41" y="475.146" width="10" height="10" transform="rotate(178.801 3959.41 475.146)" fill="#C4C4C4" fill-opacity="0.2"/>
<rect x="4045.04" y="688.236" width="8" height="8" transform="rotate(178.801 4045.04 688.236)" fill="#C4C4C4" fill-opacity="0.2"/>
<rect x="4150.16" y="562.871" width="8" height="8" transform="rotate(178.801 4150.16 562.871)" fill="#C4C4C4" fill-opacity="0.2"/>
<rect x="4524.08" y="494.172" width="8" height="8" transform="rotate(178.801 4524.08 494.172)" fill="#C4C4C4" fill-opacity="0.2"/>
<rect x="4393.78" y="487.758" width="8" height="8" transform="rotate(-141.199 4393.78 487.758)" fill="#C4C4C4" fill-opacity="0.2"/>
<rect x="4522.05" y="547.088" width="8" height="8" transform="rotate(-141.199 4522.05 547.088)" fill="#C4C4C4" fill-opacity="0.2"/>
<rect x="4838.89" y="697.4" width="7" height="7" transform="rotate(168.801 4838.89 697.4)" fill="#C4C4C4" fill-opacity="0.2"/>
<rect x="4496.41" y="755.67" width="8" height="8" transform="rotate(-141.199 4496.41 755.67)" fill="#C4C4C4" fill-opacity="0.2"/>
<rect x="4320.23" y="312.116" width="6" height="6" transform="rotate(138.801 4320.23 312.116)" fill="#C4C4C4" fill-opacity="0.2"/>
<rect x="4522.49" y="417.908" width="6" height="6" transform="rotate(138.801 4522.49 417.908)" fill="#C4C4C4" fill-opacity="0.2"/>
<rect x="4877.71" y="663.53" width="5" height="5" transform="rotate(138.801 4877.71 663.53)" fill="#C4C4C4" fill-opacity="0.2"/>
<rect x="4392.56" y="722.621" width="5" height="5" transform="rotate(138.801 4392.56 722.621)" fill="#C4C4C4" fill-opacity="0.2"/>
<rect x="4912.54" y="429.679" width="5" height="5" transform="rotate(138.801 4912.54 429.679)" fill="#C4C4C4" fill-opacity="0.2"/>
<rect x="4659.25" y="274.944" width="5" height="5" transform="rotate(138.801 4659.25 274.944)" fill="#C4C4C4" fill-opacity="0.2"/>
<rect x="4015.92" y="242.573" width="6" height="6" transform="rotate(-171.199 4015.92 242.573)" fill="#C4C4C4" fill-opacity="0.2"/>
<rect x="3649.73" y="782.189" width="10" height="10" transform="rotate(-175.881 3649.73 782.189)" fill="#C4C4C4" fill-opacity="0.2"/>
<rect x="3538.95" y="737.677" width="12" height="12" transform="rotate(-95.8821 3538.95 737.677)" fill="#C4C4C4" fill-opacity="0.2"/>
<rect x="3851.59" y="812.937" width="8" height="8" transform="rotate(-30.3814 3851.59 812.937)" fill="#C4C4C4" fill-opacity="0.2"/>
<rect x="3791.86" y="152.543" width="14" height="14" transform="rotate(-30.3814 3791.86 152.543)" fill="#C4C4C4" fill-opacity="0.2"/>
<rect x="3748.86" y="663.867" width="7" height="7" transform="rotate(-13.3814 3748.86 663.867)" fill="#C4C4C4" fill-opacity="0.2"/>
<rect x="4054.64" y="148.605" width="14" height="14" transform="rotate(-74.3814 4054.64 148.605)" fill="#C4C4C4" fill-opacity="0.2"/>
<rect x="3726.81" y="75.5039" width="8" height="8" transform="rotate(-70.3814 3726.81 75.5039)" fill="#C4C4C4" fill-opacity="0.2"/>
<rect x="3806.63" y="218.321" width="8" height="8" transform="rotate(-70.3814 3806.63 218.321)" fill="#C4C4C4" fill-opacity="0.2"/>
<rect x="4039.16" y="200.353" width="8" height="8" transform="rotate(-70.3814 4039.16 200.353)" fill="#C4C4C4" fill-opacity="0.2"/>
<rect x="3737.96" y="592.244" width="8" height="8" transform="rotate(-70.3814 3737.96 592.244)" fill="#C4C4C4" fill-opacity="0.2"/>
<rect x="3790.26" y="472.731" width="8" height="8" transform="rotate(-30.3814 3790.26 472.731)" fill="#C4C4C4" fill-opacity="0.2"/>
<rect x="3689.21" y="571.541" width="8" height="8" transform="rotate(-30.3814 3689.21 571.541)" fill="#C4C4C4" fill-opacity="0.2"/>
<rect x="3436.11" y="814.275" width="7" height="7" transform="rotate(-80.3814 3436.11 814.275)" fill="#C4C4C4" fill-opacity="0.2"/>
<rect x="3503.36" y="473.445" width="8" height="8" transform="rotate(-30.3814 3503.36 473.445)" fill="#C4C4C4" fill-opacity="0.2"/>
<rect x="3933.04" y="409.123" width="6" height="6" transform="rotate(-110.381 3933.04 409.123)" fill="#C4C4C4" fill-opacity="0.2"/>
<rect x="3453.98" y="862.597" width="5" height="5" transform="rotate(-110.381 3453.98 862.597)" fill="#C4C4C4" fill-opacity="0.2"/>
<rect x="3571.16" y="388.119" width="5" height="5" transform="rotate(-110.381 3571.16 388.119)" fill="#C4C4C4" fill-opacity="0.2"/>
<rect x="3660.18" y="978.267" width="5" height="5" transform="rotate(-110.381 3660.18 978.267)" fill="#C4C4C4" fill-opacity="0.2"/>
<rect x="3894.83" y="796.501" width="5" height="5" transform="rotate(-110.381 3894.83 796.501)" fill="#C4C4C4" fill-opacity="0.2"/>
</svg>
