<svg width="783" height="738" viewBox="0 0 783 738" fill="none" xmlns="http://www.w3.org/2000/svg">
<g clip-path="url(#clip0)">
<rect width="783" height="738" fill="white"/>
<circle cx="531" cy="180" r="180" transform="rotate(90 531 180)" fill="black" fill-opacity="0.01"/>
<circle cx="531" cy="180" r="179.5" transform="rotate(90 531 180)" stroke="black" stroke-opacity="0.09"/>
<circle cx="540" cy="369" r="90" transform="rotate(90 540 369)" fill="black" fill-opacity="0.01"/>
<circle cx="540" cy="369" r="89.5" transform="rotate(90 540 369)" stroke="black" stroke-opacity="0.09"/>
<circle cx="243" cy="369" r="90" transform="rotate(90 243 369)" fill="black" fill-opacity="0.01"/>
<circle cx="243" cy="369" r="89.5" transform="rotate(90 243 369)" stroke="black" stroke-opacity="0.09"/>
<circle cx="252" cy="180" r="180" transform="rotate(90 252 180)" fill="black" fill-opacity="0.01"/>
<circle cx="252" cy="180" r="179.5" transform="rotate(90 252 180)" stroke="black" stroke-opacity="0.09"/>
<circle cx="531" cy="558" r="180" transform="rotate(90 531 558)" fill="black" fill-opacity="0.01"/>
<circle cx="531" cy="558" r="179.5" transform="rotate(90 531 558)" stroke="black" stroke-opacity="0.09"/>
<circle cx="252" cy="558" r="180" transform="rotate(90 252 558)" fill="black" fill-opacity="0.01"/>
<circle cx="252" cy="558" r="179.5" transform="rotate(90 252 558)" stroke="black" stroke-opacity="0.09"/>
<mask id="path-14-inside-1" fill="white">
<path fill-rule="evenodd" clip-rule="evenodd" d="M594 548.779C596.981 548.926 599.982 549 603 549C702.411 549 783 468.411 783 369C783 269.589 702.411 189 603 189C599.982 189 596.981 189.074 594 189.221C591.018 189.074 588.018 189 585 189C485.589 189 405 269.589 405 369C405 468.411 485.589 549 585 549C588.018 549 591.018 548.926 594 548.779ZM594 548.779C689.23 544.09 765 465.393 765 369C765 272.607 689.23 193.91 594 189.221C498.77 193.91 423 272.607 423 369C423 465.393 498.77 544.09 594 548.779Z"/>
</mask>
<path fill-rule="evenodd" clip-rule="evenodd" d="M594 548.779C596.981 548.926 599.982 549 603 549C702.411 549 783 468.411 783 369C783 269.589 702.411 189 603 189C599.982 189 596.981 189.074 594 189.221C591.018 189.074 588.018 189 585 189C485.589 189 405 269.589 405 369C405 468.411 485.589 549 585 549C588.018 549 591.018 548.926 594 548.779ZM594 548.779C689.23 544.09 765 465.393 765 369C765 272.607 689.23 193.91 594 189.221C498.77 193.91 423 272.607 423 369C423 465.393 498.77 544.09 594 548.779Z" fill="black" fill-opacity="0.01"/>
<path d="M603 548C599.998 548 597.014 547.926 594.049 547.78L593.951 549.778C596.949 549.925 599.966 550 603 550L603 548ZM782 369C782 467.859 701.859 548 603 548L603 550C702.964 550 784 468.964 784 369L782 369ZM603 190C701.859 190 782 270.141 782 369L784 369C784 269.036 702.964 188 603 188L603 190ZM594.049 190.22C597.014 190.074 599.998 190 603 190L603 188C599.966 188 596.949 188.075 593.951 188.222L594.049 190.22ZM585 190C588.002 190 590.986 190.074 593.951 190.22L594.049 188.222C591.051 188.075 588.034 188 585 188L585 190ZM406 369C406 270.141 486.141 190 585 190L585 188C485.036 188 404 269.036 404 369L406 369ZM585 548C486.141 548 406 467.859 406 369L404 369C404 468.964 485.036 550 585 550L585 548ZM593.951 547.78C590.986 547.926 588.001 548 585 548L585 550C588.034 550 591.051 549.925 594.049 549.778L593.951 547.78ZM764 369C764 464.858 688.651 543.117 593.951 547.78L594.049 549.778C689.809 545.062 766 465.929 766 369L764 369ZM593.951 190.22C688.651 194.883 764 273.142 764 369L766 369C766 272.071 689.809 192.938 594.049 188.222L593.951 190.22ZM424 369C424 273.142 499.349 194.883 594.049 190.22L593.951 188.222C498.191 192.938 422 272.071 422 369L424 369ZM594.049 547.78C499.349 543.117 424 464.858 424 369L422 369C422 465.929 498.191 545.062 593.951 549.778L594.049 547.78Z" fill="black" fill-opacity="0.09" mask="url(#path-14-inside-1)"/>
<mask id="path-16-inside-2" fill="white">
<path fill-rule="evenodd" clip-rule="evenodd" d="M189 548.779C191.981 548.926 194.982 549 198 549C297.411 549 378 468.411 378 369C378 269.589 297.411 189 198 189C194.982 189 191.981 189.074 189 189.221C186.018 189.074 183.018 189 180 189C80.5887 189 -3.52265e-06 269.589 -7.86805e-06 369C-1.22135e-05 468.411 80.5887 549 180 549C183.018 549 186.018 548.926 189 548.779ZM189 548.779C284.23 544.09 360 465.393 360 369C360 272.607 284.23 193.91 189 189.221C93.77 193.91 18 272.607 18 369C18 465.393 93.77 544.09 189 548.779Z"/>
</mask>
<path fill-rule="evenodd" clip-rule="evenodd" d="M189 548.779C191.981 548.926 194.982 549 198 549C297.411 549 378 468.411 378 369C378 269.589 297.411 189 198 189C194.982 189 191.981 189.074 189 189.221C186.018 189.074 183.018 189 180 189C80.5887 189 -3.52265e-06 269.589 -7.86805e-06 369C-1.22135e-05 468.411 80.5887 549 180 549C183.018 549 186.018 548.926 189 548.779ZM189 548.779C284.23 544.09 360 465.393 360 369C360 272.607 284.23 193.91 189 189.221C93.77 193.91 18 272.607 18 369C18 465.393 93.77 544.09 189 548.779Z" fill="black" fill-opacity="0.01"/>
<path d="M198 548C194.998 548 192.014 547.926 189.049 547.78L188.951 549.778C191.949 549.925 194.966 550 198 550L198 548ZM377 369C377 467.859 296.859 548 198 548L198 550C297.964 550 379 468.964 379 369L377 369ZM198 190C296.859 190 377 270.141 377 369L379 369C379 269.036 297.964 188 198 188L198 190ZM189.049 190.22C192.014 190.074 194.998 190 198 190L198 188C194.966 188 191.949 188.075 188.951 188.222L189.049 190.22ZM180 190C183.002 190 185.986 190.074 188.951 190.22L189.049 188.222C186.051 188.075 183.034 188 180 188L180 190ZM0.999992 369C0.999996 270.141 81.141 190 180 190L180 188C80.0365 188 -1 269.036 -1.00001 369L0.999992 369ZM180 548C81.141 548 0.999988 467.859 0.999992 369L-1.00001 369C-1.00001 468.964 80.0365 550 180 550L180 548ZM188.951 547.78C185.986 547.926 183.001 548 180 548L180 550C183.034 550 186.051 549.925 189.049 549.778L188.951 547.78ZM359 369C359 464.858 283.651 543.117 188.951 547.78L189.049 549.778C284.809 545.062 361 465.929 361 369L359 369ZM188.951 190.22C283.651 194.883 359 273.142 359 369L361 369C361 272.071 284.809 192.938 189.049 188.222L188.951 190.22ZM19 369C19 273.142 94.3491 194.883 189.049 190.22L188.951 188.222C93.1909 192.938 17 272.071 17 369L19 369ZM189.049 547.78C94.349 543.117 19 464.858 19 369L17 369C17 465.929 93.1909 545.062 188.951 549.778L189.049 547.78Z" fill="black" fill-opacity="0.09" mask="url(#path-16-inside-2)"/>
<path fill-rule="evenodd" clip-rule="evenodd" d="M391.501 293.762C398.013 301.738 405.196 309.145 412.963 315.897C407.787 332.682 405.001 350.516 405.001 369C405.001 387.484 407.787 405.318 412.963 422.103C405.196 428.856 398.013 436.262 391.501 444.238C384.989 436.262 377.807 428.856 370.04 422.103C375.215 405.318 378.001 387.484 378.001 369C378.001 350.516 375.215 332.682 370.04 315.897C377.807 309.145 384.989 301.738 391.501 293.762ZM355.194 410.498C346.973 404.736 338.248 399.643 329.098 395.3C331.636 386.981 333.001 378.15 333.001 369C333.001 359.85 331.636 351.019 329.098 342.7C338.247 338.357 346.973 333.264 355.194 327.502C358.338 340.824 360.001 354.718 360.001 369C360.001 383.282 358.338 397.176 355.194 410.498ZM423.001 369C423.001 383.282 424.665 397.176 427.808 410.498C436.03 404.736 444.755 399.643 453.905 395.3C451.367 386.981 450.001 378.15 450.001 369C450.001 359.85 451.367 351.019 453.905 342.7C444.755 338.357 436.03 333.264 427.808 327.502C424.665 340.824 423.001 354.718 423.001 369Z" fill="black"/>
<path d="M513.598 169H525.964V167.002H517.135C522.157 163.033 525.883 159.685 525.883 156.013C525.883 152.422 522.832 150.721 519.835 150.721C517.297 150.721 514.948 151.747 513.571 153.556L514.948 154.987C516.001 153.637 517.675 152.719 519.835 152.719C521.698 152.719 523.588 153.718 523.588 156.013C523.588 159.118 520.078 162.115 513.598 167.218V169ZM531.28 169H533.764L541.135 152.53V150.991H528.85V152.989H538.543L531.28 169ZM544.176 167.137C545.31 168.433 546.876 169.297 549.171 169.297C554.22 169.297 556.488 164.869 556.488 160.009C556.488 155.095 554.571 150.694 549.522 150.694C545.607 150.694 543.231 153.475 543.231 156.58C543.231 160.414 545.904 162.331 549.144 162.331C551.439 162.331 553.437 160.765 554.22 159.523C554.247 159.766 554.247 160.009 554.247 160.252C554.247 163.654 552.816 167.299 549.171 167.299C547.308 167.299 546.228 166.543 545.31 165.463L544.176 167.137ZM554.139 157.714C553.194 159.307 551.439 160.387 549.657 160.387C547.335 160.387 545.499 159.145 545.499 156.499C545.499 154.798 546.876 152.692 549.63 152.692C552.762 152.692 553.95 155.473 554.139 157.714Z" fill="black" fill-opacity="0.09"/>
<path d="M226.598 169H238.964V167.002H230.135C235.157 163.033 238.883 159.685 238.883 156.013C238.883 152.422 235.832 150.721 232.835 150.721C230.297 150.721 227.948 151.747 226.571 153.556L227.948 154.987C229.001 153.637 230.675 152.719 232.835 152.719C234.698 152.719 236.588 153.718 236.588 156.013C236.588 159.118 233.078 162.115 226.598 167.218V169ZM244.28 169H246.764L254.135 152.53V150.991H241.85V152.989H251.543L244.28 169ZM257.176 167.137C258.31 168.433 259.876 169.297 262.171 169.297C267.22 169.297 269.488 164.869 269.488 160.009C269.488 155.095 267.571 150.694 262.522 150.694C258.607 150.694 256.231 153.475 256.231 156.58C256.231 160.414 258.904 162.331 262.144 162.331C264.439 162.331 266.437 160.765 267.22 159.523C267.247 159.766 267.247 160.009 267.247 160.252C267.247 163.654 265.816 167.299 262.171 167.299C260.308 167.299 259.228 166.543 258.31 165.463L257.176 167.137ZM267.139 157.714C266.194 159.307 264.439 160.387 262.657 160.387C260.335 160.387 258.499 159.145 258.499 156.499C258.499 154.798 259.876 152.692 262.63 152.692C265.762 152.692 266.95 155.473 267.139 157.714Z" fill="black" fill-opacity="0.09"/>
<path d="M380.485 182.437C380.485 185.515 383.374 187.324 386.938 187.324C390.475 187.324 393.391 185.488 393.391 182.437C393.391 180.034 391.339 178.387 389.098 177.712C391.177 177.118 393.121 175.768 393.121 173.392C393.121 170.152 389.908 168.721 386.938 168.721C383.941 168.721 380.782 170.152 380.782 173.392C380.782 175.768 382.699 177.118 384.778 177.712C382.537 178.387 380.485 180.034 380.485 182.437ZM390.853 173.689C390.853 175.876 388.045 176.605 386.938 176.794C385.858 176.605 383.023 175.876 383.023 173.689C383.023 171.826 384.751 170.719 386.938 170.719C389.098 170.719 390.853 171.826 390.853 173.689ZM391.123 182.194C391.123 184.138 389.152 185.326 386.938 185.326C384.697 185.326 382.726 184.138 382.726 182.194C382.726 179.845 385.831 178.846 386.938 178.711C388.045 178.846 391.123 179.845 391.123 182.194ZM399.576 187H401.817V168.991H399.846L395.337 173.635L396.687 175.012L399.576 171.961V187Z" fill="black" fill-opacity="0.09"/>
<path d="M235.485 326.437C235.485 329.515 238.374 331.324 241.938 331.324C245.475 331.324 248.391 329.488 248.391 326.437C248.391 324.034 246.339 322.387 244.098 321.712C246.177 321.118 248.121 319.768 248.121 317.392C248.121 314.152 244.908 312.721 241.938 312.721C238.941 312.721 235.782 314.152 235.782 317.392C235.782 319.768 237.699 321.118 239.778 321.712C237.537 322.387 235.485 324.034 235.485 326.437ZM245.853 317.689C245.853 319.876 243.045 320.605 241.938 320.794C240.858 320.605 238.023 319.876 238.023 317.689C238.023 315.826 239.751 314.719 241.938 314.719C244.098 314.719 245.853 315.826 245.853 317.689ZM246.123 326.194C246.123 328.138 244.152 329.326 241.938 329.326C239.697 329.326 237.726 328.138 237.726 326.194C237.726 323.845 240.831 322.846 241.938 322.711C243.045 322.846 246.123 323.845 246.123 326.194ZM254.576 331H256.817V312.991H254.846L250.337 317.635L251.687 319.012L254.576 315.961V331Z" fill="black" fill-opacity="0.09"/>
<path d="M235.485 419.437C235.485 422.515 238.374 424.324 241.938 424.324C245.475 424.324 248.391 422.488 248.391 419.437C248.391 417.034 246.339 415.387 244.098 414.712C246.177 414.118 248.121 412.768 248.121 410.392C248.121 407.152 244.908 405.721 241.938 405.721C238.941 405.721 235.782 407.152 235.782 410.392C235.782 412.768 237.699 414.118 239.778 414.712C237.537 415.387 235.485 417.034 235.485 419.437ZM245.853 410.689C245.853 412.876 243.045 413.605 241.938 413.794C240.858 413.605 238.023 412.876 238.023 410.689C238.023 408.826 239.751 407.719 241.938 407.719C244.098 407.719 245.853 408.826 245.853 410.689ZM246.123 419.194C246.123 421.138 244.152 422.326 241.938 422.326C239.697 422.326 237.726 421.138 237.726 419.194C237.726 416.845 240.831 415.846 241.938 415.711C243.045 415.846 246.123 416.845 246.123 419.194ZM254.576 424H256.817V405.991H254.846L250.337 410.635L251.687 412.012L254.576 408.961V424Z" fill="black" fill-opacity="0.09"/>
<path d="M525.485 326.437C525.485 329.515 528.374 331.324 531.938 331.324C535.475 331.324 538.391 329.488 538.391 326.437C538.391 324.034 536.339 322.387 534.098 321.712C536.177 321.118 538.121 319.768 538.121 317.392C538.121 314.152 534.908 312.721 531.938 312.721C528.941 312.721 525.782 314.152 525.782 317.392C525.782 319.768 527.699 321.118 529.778 321.712C527.537 322.387 525.485 324.034 525.485 326.437ZM535.853 317.689C535.853 319.876 533.045 320.605 531.938 320.794C530.858 320.605 528.023 319.876 528.023 317.689C528.023 315.826 529.751 314.719 531.938 314.719C534.098 314.719 535.853 315.826 535.853 317.689ZM536.123 326.194C536.123 328.138 534.152 329.326 531.938 329.326C529.697 329.326 527.726 328.138 527.726 326.194C527.726 323.845 530.831 322.846 531.938 322.711C533.045 322.846 536.123 323.845 536.123 326.194ZM544.576 331H546.817V312.991H544.846L540.337 317.635L541.687 319.012L544.576 315.961V331Z" fill="black" fill-opacity="0.09"/>
<path d="M409.771 374H411.016V363.995H409.921L407.416 366.575L408.166 367.34L409.771 365.645V374ZM412.964 371.465C412.964 373.175 414.569 374.18 416.549 374.18C418.514 374.18 420.134 373.16 420.134 371.465C420.134 370.13 418.994 369.215 417.749 368.84C418.904 368.51 419.984 367.76 419.984 366.44C419.984 364.64 418.199 363.845 416.549 363.845C414.884 363.845 413.129 364.64 413.129 366.44C413.129 367.76 414.194 368.51 415.349 368.84C414.104 369.215 412.964 370.13 412.964 371.465ZM418.724 366.605C418.724 367.82 417.164 368.225 416.549 368.33C415.949 368.225 414.374 367.82 414.374 366.605C414.374 365.57 415.334 364.955 416.549 364.955C417.749 364.955 418.724 365.57 418.724 366.605ZM418.874 371.33C418.874 372.41 417.779 373.07 416.549 373.07C415.304 373.07 414.209 372.41 414.209 371.33C414.209 370.025 415.934 369.47 416.549 369.395C417.164 369.47 418.874 370.025 418.874 371.33Z" fill="black" fill-opacity="0.09"/>
<path d="M531.771 374H533.016V363.995H531.921L529.416 366.575L530.166 367.34L531.771 365.645V374ZM534.964 371.465C534.964 373.175 536.569 374.18 538.549 374.18C540.514 374.18 542.134 373.16 542.134 371.465C542.134 370.13 540.994 369.215 539.749 368.84C540.904 368.51 541.984 367.76 541.984 366.44C541.984 364.64 540.199 363.845 538.549 363.845C536.884 363.845 535.129 364.64 535.129 366.44C535.129 367.76 536.194 368.51 537.349 368.84C536.104 369.215 534.964 370.13 534.964 371.465ZM540.724 366.605C540.724 367.82 539.164 368.225 538.549 368.33C537.949 368.225 536.374 367.82 536.374 366.605C536.374 365.57 537.334 364.955 538.549 364.955C539.749 364.955 540.724 365.57 540.724 366.605ZM540.874 371.33C540.874 372.41 539.779 373.07 538.549 373.07C537.304 373.07 536.209 372.41 536.209 371.33C536.209 370.025 537.934 369.47 538.549 369.395C539.164 369.47 540.874 370.025 540.874 371.33Z" fill="black" fill-opacity="0.09"/>
<path d="M241.771 374H243.016V363.995H241.921L239.416 366.575L240.166 367.34L241.771 365.645V374ZM244.964 371.465C244.964 373.175 246.569 374.18 248.549 374.18C250.514 374.18 252.134 373.16 252.134 371.465C252.134 370.13 250.994 369.215 249.749 368.84C250.904 368.51 251.984 367.76 251.984 366.44C251.984 364.64 250.199 363.845 248.549 363.845C246.884 363.845 245.129 364.64 245.129 366.44C245.129 367.76 246.194 368.51 247.349 368.84C246.104 369.215 244.964 370.13 244.964 371.465ZM250.724 366.605C250.724 367.82 249.164 368.225 248.549 368.33C247.949 368.225 246.374 367.82 246.374 366.605C246.374 365.57 247.334 364.955 248.549 364.955C249.749 364.955 250.724 365.57 250.724 366.605ZM250.874 371.33C250.874 372.41 249.779 373.07 248.549 373.07C247.304 373.07 246.209 372.41 246.209 371.33C246.209 370.025 247.934 369.47 248.549 369.395C249.164 369.47 250.874 370.025 250.874 371.33Z" fill="black" fill-opacity="0.09"/>
<path d="M769.771 374H771.016V363.995H769.921L767.416 366.575L768.166 367.34L769.771 365.645V374ZM772.964 371.465C772.964 373.175 774.569 374.18 776.549 374.18C778.514 374.18 780.134 373.16 780.134 371.465C780.134 370.13 778.994 369.215 777.749 368.84C778.904 368.51 779.984 367.76 779.984 366.44C779.984 364.64 778.199 363.845 776.549 363.845C774.884 363.845 773.129 364.64 773.129 366.44C773.129 367.76 774.194 368.51 775.349 368.84C774.104 369.215 772.964 370.13 772.964 371.465ZM778.724 366.605C778.724 367.82 777.164 368.225 776.549 368.33C775.949 368.225 774.374 367.82 774.374 366.605C774.374 365.57 775.334 364.955 776.549 364.955C777.749 364.955 778.724 365.57 778.724 366.605ZM778.874 371.33C778.874 372.41 777.779 373.07 776.549 373.07C775.304 373.07 774.209 372.41 774.209 371.33C774.209 370.025 775.934 369.47 776.549 369.395C777.164 369.47 778.874 370.025 778.874 371.33Z" fill="black" fill-opacity="0.09"/>
<path d="M363.771 374H365.016V363.995H363.921L361.416 366.575L362.166 367.34L363.771 365.645V374ZM366.964 371.465C366.964 373.175 368.569 374.18 370.549 374.18C372.514 374.18 374.134 373.16 374.134 371.465C374.134 370.13 372.994 369.215 371.749 368.84C372.904 368.51 373.984 367.76 373.984 366.44C373.984 364.64 372.199 363.845 370.549 363.845C368.884 363.845 367.129 364.64 367.129 366.44C367.129 367.76 368.194 368.51 369.349 368.84C368.104 369.215 366.964 370.13 366.964 371.465ZM372.724 366.605C372.724 367.82 371.164 368.225 370.549 368.33C369.949 368.225 368.374 367.82 368.374 366.605C368.374 365.57 369.334 364.955 370.549 364.955C371.749 364.955 372.724 365.57 372.724 366.605ZM372.874 371.33C372.874 372.41 371.779 373.07 370.549 373.07C369.304 373.07 368.209 372.41 368.209 371.33C368.209 370.025 369.934 369.47 370.549 369.395C371.164 369.47 372.874 370.025 372.874 371.33Z" fill="black" fill-opacity="0.09"/>
<path d="M339.041 374H345.911V372.89H341.006C343.796 370.685 345.866 368.825 345.866 366.785C345.866 364.79 344.171 363.845 342.506 363.845C341.096 363.845 339.791 364.415 339.026 365.42L339.791 366.215C340.376 365.465 341.306 364.955 342.506 364.955C343.541 364.955 344.591 365.51 344.591 366.785C344.591 368.51 342.641 370.175 339.041 373.01V374ZM348.864 374H350.244L354.339 364.85V363.995H347.514V365.105H352.899L348.864 374Z" fill="white" fill-opacity="0.45"/>
<path d="M384.041 374H390.911V372.89H386.006C388.796 370.685 390.866 368.825 390.866 366.785C390.866 364.79 389.171 363.845 387.506 363.845C386.096 363.845 384.791 364.415 384.026 365.42L384.791 366.215C385.376 365.465 386.306 364.955 387.506 364.955C388.541 364.955 389.591 365.51 389.591 366.785C389.591 368.51 387.641 370.175 384.041 373.01V374ZM393.864 374H395.244L399.339 364.85V363.995H392.514V365.105H397.899L393.864 374Z" fill="white" fill-opacity="0.45"/>
<path d="M429.041 374H435.911V372.89H431.006C433.796 370.685 435.866 368.825 435.866 366.785C435.866 364.79 434.171 363.845 432.506 363.845C431.096 363.845 429.791 364.415 429.026 365.42L429.791 366.215C430.376 365.465 431.306 364.955 432.506 364.955C433.541 364.955 434.591 365.51 434.591 366.785C434.591 368.51 432.641 370.175 429.041 373.01V374ZM438.864 374H440.244L444.339 364.85V363.995H437.514V365.105H442.899L438.864 374Z" fill="white" fill-opacity="0.45"/>
<path d="M4.77059 374H6.01559L6.01559 363.995H4.92059L2.41559 366.575L3.16559 367.34L4.77059 365.645L4.77059 374ZM7.96359 371.465C7.96359 373.175 9.56859 374.18 11.5486 374.18C13.5136 374.18 15.1336 373.16 15.1336 371.465C15.1336 370.13 13.9936 369.215 12.7486 368.84C13.9036 368.51 14.9836 367.76 14.9836 366.44C14.9836 364.64 13.1986 363.845 11.5486 363.845C9.88359 363.845 8.12859 364.64 8.12859 366.44C8.12859 367.76 9.19359 368.51 10.3486 368.84C9.10359 369.215 7.96359 370.13 7.96359 371.465ZM13.7236 366.605C13.7236 367.82 12.1636 368.225 11.5486 368.33C10.9486 368.225 9.37359 367.82 9.37359 366.605C9.37359 365.57 10.3336 364.955 11.5486 364.955C12.7486 364.955 13.7236 365.57 13.7236 366.605ZM13.8736 371.33C13.8736 372.41 12.7786 373.07 11.5486 373.07C10.3036 373.07 9.20859 372.41 9.20859 371.33C9.20859 370.025 10.9336 369.47 11.5486 369.395C12.1636 369.47 13.8736 370.025 13.8736 371.33Z" fill="black" fill-opacity="0.09"/>
<path d="M525.485 419.437C525.485 422.515 528.374 424.324 531.938 424.324C535.475 424.324 538.391 422.488 538.391 419.437C538.391 417.034 536.339 415.387 534.098 414.712C536.177 414.118 538.121 412.768 538.121 410.392C538.121 407.152 534.908 405.721 531.938 405.721C528.941 405.721 525.782 407.152 525.782 410.392C525.782 412.768 527.699 414.118 529.778 414.712C527.537 415.387 525.485 417.034 525.485 419.437ZM535.853 410.689C535.853 412.876 533.045 413.605 531.938 413.794C530.858 413.605 528.023 412.876 528.023 410.689C528.023 408.826 529.751 407.719 531.938 407.719C534.098 407.719 535.853 408.826 535.853 410.689ZM536.123 419.194C536.123 421.138 534.152 422.326 531.938 422.326C529.697 422.326 527.726 421.138 527.726 419.194C527.726 416.845 530.831 415.846 531.938 415.711C533.045 415.846 536.123 416.845 536.123 419.194ZM544.576 424H546.817V405.991H544.846L540.337 410.635L541.687 412.012L544.576 408.961V424Z" fill="black" fill-opacity="0.09"/>
<path d="M380.485 563.437C380.485 566.515 383.374 568.324 386.938 568.324C390.475 568.324 393.391 566.488 393.391 563.437C393.391 561.034 391.339 559.387 389.098 558.712C391.177 558.118 393.121 556.768 393.121 554.392C393.121 551.152 389.908 549.721 386.938 549.721C383.941 549.721 380.782 551.152 380.782 554.392C380.782 556.768 382.699 558.118 384.778 558.712C382.537 559.387 380.485 561.034 380.485 563.437ZM390.853 554.689C390.853 556.876 388.045 557.605 386.938 557.794C385.858 557.605 383.023 556.876 383.023 554.689C383.023 552.826 384.751 551.719 386.938 551.719C389.098 551.719 390.853 552.826 390.853 554.689ZM391.123 563.194C391.123 565.138 389.152 566.326 386.938 566.326C384.697 566.326 382.726 565.138 382.726 563.194C382.726 560.845 385.831 559.846 386.938 559.711C388.045 559.846 391.123 560.845 391.123 563.194ZM399.576 568H401.817V549.991H399.846L395.337 554.635L396.687 556.012L399.576 552.961V568Z" fill="black" fill-opacity="0.09"/>
<path d="M513.598 586H525.964V584.002H517.135C522.157 580.033 525.883 576.685 525.883 573.013C525.883 569.422 522.832 567.721 519.835 567.721C517.297 567.721 514.948 568.747 513.571 570.556L514.948 571.987C516.001 570.637 517.675 569.719 519.835 569.719C521.698 569.719 523.588 570.718 523.588 573.013C523.588 576.118 520.078 579.115 513.598 584.218V586ZM531.28 586H533.764L541.135 569.53V567.991H528.85V569.989H538.543L531.28 586ZM544.176 584.137C545.31 585.433 546.876 586.297 549.171 586.297C554.22 586.297 556.488 581.869 556.488 577.009C556.488 572.095 554.571 567.694 549.522 567.694C545.607 567.694 543.231 570.475 543.231 573.58C543.231 577.414 545.904 579.331 549.144 579.331C551.439 579.331 553.437 577.765 554.22 576.523C554.247 576.766 554.247 577.009 554.247 577.252C554.247 580.654 552.816 584.299 549.171 584.299C547.308 584.299 546.228 583.543 545.31 582.463L544.176 584.137ZM554.139 574.714C553.194 576.307 551.439 577.387 549.657 577.387C547.335 577.387 545.499 576.145 545.499 573.499C545.499 571.798 546.876 569.692 549.63 569.692C552.762 569.692 553.95 572.473 554.139 574.714Z" fill="black" fill-opacity="0.09"/>
<path d="M226.598 586H238.964V584.002H230.135C235.157 580.033 238.883 576.685 238.883 573.013C238.883 569.422 235.832 567.721 232.835 567.721C230.297 567.721 227.948 568.747 226.571 570.556L227.948 571.987C229.001 570.637 230.675 569.719 232.835 569.719C234.698 569.719 236.588 570.718 236.588 573.013C236.588 576.118 233.078 579.115 226.598 584.218V586ZM244.28 586H246.764L254.135 569.53V567.991H241.85V569.989H251.543L244.28 586ZM257.176 584.137C258.31 585.433 259.876 586.297 262.171 586.297C267.22 586.297 269.488 581.869 269.488 577.009C269.488 572.095 267.571 567.694 262.522 567.694C258.607 567.694 256.231 570.475 256.231 573.58C256.231 577.414 258.904 579.331 262.144 579.331C264.439 579.331 266.437 577.765 267.22 576.523C267.247 576.766 267.247 577.009 267.247 577.252C267.247 580.654 265.816 584.299 262.171 584.299C260.308 584.299 259.228 583.543 258.31 582.463L257.176 584.137ZM267.139 574.714C266.194 576.307 264.439 577.387 262.657 577.387C260.335 577.387 258.499 576.145 258.499 573.499C258.499 571.798 259.876 569.692 262.63 569.692C265.762 569.692 266.95 572.473 267.139 574.714Z" fill="black" fill-opacity="0.09"/>
</g>
<defs>
<clipPath id="clip0">
<rect width="783" height="738" fill="white"/>
</clipPath>
</defs>
</svg>
