<svg width="135" height="82" viewBox="0 0 135 82" fill="none" xmlns="http://www.w3.org/2000/svg">
<path fill-rule="evenodd" clip-rule="evenodd" d="M67.4286 0C39.0253 0 16 23.0254 16 51.4286V79H118.857V51.4286C118.857 23.0254 95.8318 0 67.4286 0Z" fill="#6851FF"/>
<circle cx="48" cy="55" r="13" fill="white"/>
<circle cx="44" cy="62" r="3" fill="black"/>
<circle cx="86" cy="55" r="13" fill="white"/>
<circle cx="82" cy="62" r="3" fill="black"/>
<path fill-rule="evenodd" clip-rule="evenodd" d="M13 68C5.8203 68 0 73.8203 0 81L0 81.2294C0 81.655 0.345028 82 0.770642 82H6V80C6 79.4477 6.44772 79 7 79C7.55228 79 8 79.4477 8 80V82H12V80C12 79.4477 12.4477 79 13 79C13.5523 79 14 79.4477 14 80V82H18V80C18 79.4477 18.4477 79 19 79C19.5523 79 20 79.4477 20 80V82H25.2294C25.655 82 26 81.655 26 81.2294V81C26 73.8203 20.1797 68 13 68Z" fill="#6851FF"/>
<path fill-rule="evenodd" clip-rule="evenodd" d="M122 68C114.82 68 109 73.8203 109 81V81.2294C109 81.655 109.345 82 109.771 82H115V80C115 79.4477 115.448 79 116 79C116.552 79 117 79.4477 117 80V82H121V80C121 79.4477 121.448 79 122 79C122.552 79 123 79.4477 123 80V82H127V80C127 79.4477 127.448 79 128 79C128.552 79 129 79.4477 129 80V82H134.229C134.655 82 135 81.655 135 81.2294V81C135 73.8203 129.18 68 122 68Z" fill="#6851FF"/>
</svg>
