<svg width="45" height="47" viewBox="0 0 45 47" fill="none" xmlns="http://www.w3.org/2000/svg">
<path d="M5.44342e-06 8.22018C5.44342e-06 6.94759 0.670732 5.76075 1.79782 5.16986C8.16226 1.83323 15.2431 0.0565719 22.4523 0.00132889C29.5462 -0.0530305 36.5415 1.56111 42.8756 4.69853C44.2042 5.35658 44.9969 6.73761 44.9969 8.22018C45.0106 16.1108 42.9434 23.8662 39.0028 30.7076C35.9194 36.0608 31.774 41.1968 26.8395 45.0756C24.3114 47.0628 20.7799 47.0672 18.2469 45.0862C13.2959 41.2142 9.13403 36.0798 6.03601 30.7243C2.07795 23.882 -0.00388525 16.1203 5.44342e-06 8.22018Z" fill="url(#paint0_radial_13650_89751)"/>
<path fill-rule="evenodd" clip-rule="evenodd" d="M32.469 12.1243C33.0018 12.6812 33.0297 13.5501 32.5336 14.14L20.801 28.0912C20.2032 28.802 19.109 28.802 18.5112 28.0912L13.5516 22.1938C13.0555 21.6039 13.0834 20.7351 13.6163 20.1782C14.2374 19.529 15.2845 19.5626 15.8628 20.2502L19.412 24.4706C19.5395 24.6221 19.7727 24.6221 19.9002 24.4706L30.2224 12.1964C30.8007 11.5088 31.8478 11.4752 32.469 12.1243Z" fill="url(#paint1_linear_13650_89751)"/>
<defs>
<radialGradient id="paint0_radial_13650_89751" cx="0" cy="0" r="1" gradientUnits="userSpaceOnUse" gradientTransform="translate(12.0528 10.8661) rotate(73.6919) scale(37.1996 35.7541)">
<stop stop-color="#D2CAFF"/>
<stop offset="1" stop-color="#715CFF"/>
</radialGradient>
<linearGradient id="paint1_linear_13650_89751" x1="18.1339" y1="26.1801" x2="27.406" y2="35.4522" gradientUnits="userSpaceOnUse">
<stop stop-color="white"/>
<stop offset="1" stop-color="#A799FF"/>
</linearGradient>
</defs>
</svg>
