<svg width="69" height="55" viewBox="0 0 69 55" fill="none" xmlns="http://www.w3.org/2000/svg">
<g filter="url(#filter0_d_11997_103294)">
<path fill-rule="evenodd" clip-rule="evenodd" d="M52.3911 12.767C51.9772 12.404 51.4395 12.2148 50.8901 12.2383H45.3557C44.82 12.2383 44.3063 12.4511 43.9275 12.8299C43.5487 13.2087 43.3359 13.7224 43.3359 14.2581C43.3359 14.7938 43.5487 15.3076 43.9275 15.6864C44.3063 16.0652 44.82 16.278 45.3557 16.278H46.1416L36.1666 26.183L31.0436 21.0751C30.8583 20.8826 30.6363 20.7292 30.3906 20.6238C30.1411 20.5168 29.8724 20.4616 29.6009 20.4616C29.3294 20.4616 29.0608 20.5168 28.8112 20.6238C28.5653 20.7293 28.343 20.883 28.1575 21.0758L16.5497 32.7005L16.5477 32.7025C16.1693 33.0839 15.957 33.5995 15.957 34.1368C15.957 34.674 16.1693 35.1896 16.5477 35.571L16.5526 35.5759C16.934 35.9542 17.4495 36.1666 17.9868 36.1666C18.5241 36.1666 19.0397 35.9543 19.4211 35.5759L29.5528 25.3647L34.6614 30.4734L34.6638 30.4758C35.0453 30.8541 35.5608 31.0665 36.0981 31.0665C36.6354 31.0665 37.1509 30.8541 37.5324 30.4758L37.5348 30.4734L48.9578 19.0504V19.8464C48.9578 20.3821 49.1706 20.8958 49.5494 21.2746C49.9282 21.6534 50.4419 21.8662 50.9776 21.8662C51.5133 21.8662 52.0271 21.6534 52.4059 21.2746C52.7159 20.9646 53.048 20.4635 53.048 19.8464V14.2237L53.0472 14.2062C53.0251 13.6776 52.8048 13.1768 52.43 12.8035L52.4111 12.7846L52.3911 12.767Z" fill="url(#paint0_linear_11997_103294)"/>
</g>
<defs>
<filter id="filter0_d_11997_103294" x="0.957023" y="0.236321" width="67.0908" height="53.9302" filterUnits="userSpaceOnUse" color-interpolation-filters="sRGB">
<feFlood flood-opacity="0" result="BackgroundImageFix"/>
<feColorMatrix in="SourceAlpha" type="matrix" values="0 0 0 0 0 0 0 0 0 0 0 0 0 0 0 0 0 0 127 0" result="hardAlpha"/>
<feOffset dy="3"/>
<feGaussianBlur stdDeviation="7.5"/>
<feComposite in2="hardAlpha" operator="out"/>
<feColorMatrix type="matrix" values="0 0 0 0 0.207843 0 0 0 0 0.0705882 0 0 0 0 0.698039 0 0 0 0.16 0"/>
<feBlend mode="normal" in2="BackgroundImageFix" result="effect1_dropShadow_11997_103294"/>
<feBlend mode="normal" in="SourceGraphic" in2="effect1_dropShadow_11997_103294" result="shape"/>
</filter>
<linearGradient id="paint0_linear_11997_103294" x1="58.8787" y1="0.453902" x2="16.7986" y2="36.6428" gradientUnits="userSpaceOnUse">
<stop stop-color="#D2CBFF"/>
<stop offset="1" stop-color="#6851FF"/>
</linearGradient>
</defs>
</svg>
