<svg width="84" height="62" viewBox="0 0 84 62" fill="none" xmlns="http://www.w3.org/2000/svg">
<rect width="83.2571" height="62" transform="translate(0.628906)" fill="white"/>
<g clip-path="url(#clip0_8929_87174)">
<path d="M17.7071 27.194C17.6048 27.195 17.5036 27.1746 17.4099 27.1342C17.3163 27.0938 17.2324 27.0342 17.1638 26.9594C17.0134 26.8023 16.9393 26.5666 16.9393 26.2535V20.0935C16.9393 18.8055 16.445 17.7919 15.4565 17.0528C14.468 16.3136 13.02 15.9448 11.1126 15.9463H10.557C9.50262 15.9285 8.4535 16.0963 7.45899 16.442C6.56102 16.7732 5.8591 17.2343 5.35325 17.8251C4.86371 18.3826 4.59573 19.0961 4.59895 19.8335C4.60476 19.9909 4.6224 20.1477 4.65171 20.3026H8.38502V20.0946C8.4012 19.8445 8.49883 19.6062 8.66339 19.4152C8.87853 19.1494 9.15585 18.9391 9.47156 18.8022C9.8712 18.6276 10.3052 18.543 10.7422 18.5543C11.59 18.5543 12.2036 18.7369 12.583 19.1021C12.9624 19.4672 13.1521 19.9467 13.1521 20.5405V21.4257C11.1392 21.4257 9.49738 21.539 8.22675 21.7654C6.95612 21.9919 5.96312 22.4312 5.24773 23.0833C4.53235 23.7362 4.17503 24.6804 4.17578 25.916C4.17578 27.4297 4.6083 28.4566 5.47335 28.9965C6.33839 29.5365 7.4414 29.8061 8.78237 29.8054C10.5835 29.8054 12.1019 29.057 13.3373 27.5603C13.4264 28.2744 13.7257 28.8276 14.2353 29.2201C14.7449 29.6125 15.4865 29.8084 16.46 29.8076C17.358 29.8076 18.1347 29.625 18.7902 29.2599V26.9063C18.6668 26.9594 18.4984 27.017 18.2874 27.09C18.1008 27.155 17.9049 27.1901 17.7071 27.194V27.194ZM13.1521 24.2695C13.1573 24.8091 12.9956 25.3375 12.6885 25.7843C12.3988 26.2204 12.0044 26.5792 11.5403 26.8289C11.1194 27.0623 10.6459 27.1879 10.163 27.194C9.48952 27.194 8.99077 27.0764 8.66675 26.841C8.34274 26.6057 8.17961 26.2 8.17736 25.6239C8.17736 24.8936 8.58893 24.3672 9.41207 24.0449C10.2352 23.7225 11.4841 23.5617 13.1588 23.5624L13.1521 24.2695ZM29.5569 21.7511C28.6129 21.4883 27.6532 21.2836 26.6834 21.138C25.6425 20.9809 24.8789 20.8153 24.3925 20.6412C23.9061 20.4671 23.6629 20.1628 23.6629 19.7283C23.6629 19.3595 23.8873 19.0722 24.3363 18.8664C24.7853 18.6606 25.384 18.5562 26.1323 18.5532C27.7568 18.5532 28.5688 19.0751 28.568 20.1189H31.9579C31.9579 20.1023 31.9657 20.0371 31.9837 19.9231C32.0025 19.7978 32.0115 19.6713 32.0106 19.5447C32.0102 18.8481 31.7349 18.179 31.2428 17.6791C30.6795 17.0996 29.9831 16.662 29.2123 16.4033C28.3597 16.0964 27.4586 15.9417 26.551 15.9463H26.02C25.0234 15.9362 24.0328 16.0995 23.0938 16.4287C22.2618 16.7119 21.5215 17.2084 20.9487 17.8672C20.41 18.5023 20.1409 19.2725 20.1417 20.1776C20.1417 21.169 20.4036 21.9436 20.9274 22.5013C21.4326 23.0496 22.0769 23.4552 22.7941 23.6764C23.7049 23.9429 24.6326 24.1498 25.571 24.2961C26.6471 24.4532 27.4418 24.6358 27.9552 24.8438C28.4685 25.0518 28.7244 25.4 28.7229 25.8883C28.7229 26.342 28.4445 26.6717 27.8889 26.8842C27.2824 27.1015 26.6406 27.2077 25.9953 27.1973C25.1827 27.1973 24.5028 27.0623 23.9558 26.7924C23.7007 26.6798 23.4859 26.4941 23.3396 26.2594C23.1932 26.0247 23.122 25.7519 23.1353 25.4767V25.2886H19.7455L19.7185 25.8098C19.7094 26.5682 19.9668 27.3063 20.447 27.8989C20.9334 28.5075 21.6069 28.9774 22.4674 29.3086C23.4078 29.6517 24.4046 29.8198 25.4072 29.8043H26.2804C28.0285 29.8043 29.4675 29.4521 30.5974 28.7476C31.7274 28.0431 32.292 26.8997 32.2912 25.3174C32.2912 24.2905 32.0177 23.4946 31.4707 22.9295C30.9486 22.3781 30.2886 21.9717 29.5569 21.7511V21.7511ZM34.3094 31.3413V31.5227L34.3622 31.359L34.3094 31.3413ZM33.3834 16.2041L36.5992 24.4344L38.4165 18.8044L37.4871 16.2041H33.3834V16.2041Z" fill="black"/>
<path d="M33.6758 40.6844C33.3546 40.6816 33.0348 40.6419 32.7229 40.566C32.443 40.5055 32.1686 40.4226 31.9023 40.3181V43.007C32.4838 43.2681 33.2426 43.3987 34.1787 43.3987C35.5204 43.3987 36.6679 42.8985 37.6213 41.8982C38.5746 40.8979 39.3779 39.5273 40.0312 37.7864L44.8511 25.1776H41.0347L38.2285 33.5573H38.0692L35.6895 26.8938L33.8588 32.5648L36.0835 38.2567C35.6083 39.8744 34.8058 40.6836 33.6758 40.6844V40.6844ZM57.7863 26.0131C56.8951 25.2857 55.761 24.922 54.3841 24.922C52.6181 24.922 51.1791 25.6616 50.0672 27.1406L49.6429 25.1832H46.757V38.5167H50.6228V30.3207C50.6158 29.9768 50.6777 29.6348 50.805 29.3145C50.9324 28.9942 51.1226 28.7018 51.3647 28.454C51.5878 28.2082 51.8614 28.0119 52.1674 27.8784C52.4734 27.7448 52.8047 27.677 53.1393 27.6795C53.4271 27.6719 53.713 27.7275 53.9763 27.8423C54.2395 27.9571 54.4736 28.1283 54.6614 28.3434C55.0587 28.786 55.2574 29.347 55.2574 30.0264V38.5101H59.1232V29.1976C59.1232 27.8056 58.6776 26.7441 57.7863 26.0131V26.0131ZM66.1745 28.454C66.3849 28.1575 66.6671 27.9174 66.9953 27.7555C67.3236 27.5936 67.6877 27.515 68.0546 27.5268C68.8493 27.5268 69.448 27.7968 69.8506 28.3367C70.2532 28.8767 70.4597 29.5989 70.4702 30.5033H74.309C74.309 29.3547 74.04 28.3589 73.5019 27.5157C72.9802 26.6885 72.2357 26.0204 71.3513 25.5859C70.4512 25.1409 69.4566 24.9133 68.4497 24.922H68.0254C66.772 24.922 65.66 25.1832 64.6895 25.7054C63.7209 26.2248 62.9253 27.0091 62.3985 27.9639C61.8425 28.9472 61.5645 30.1175 61.5645 31.4748V32.2251C61.5645 34.2788 62.1471 35.8839 63.3122 37.0406C64.4773 38.1973 66.0488 38.776 68.0266 38.7767H68.4497C69.4553 38.7893 70.4514 38.5846 71.3681 38.177C72.2482 37.7791 72.99 37.1345 73.5008 36.3236C74.0381 35.4885 74.3071 34.4532 74.3079 33.2176H70.6498C70.6498 34.1913 70.4159 34.9264 69.9482 35.4229C69.4805 35.9193 68.8403 36.1672 68.0277 36.1665C67.6702 36.1784 67.3152 36.1052 66.9925 35.953C66.6699 35.8008 66.3893 35.5742 66.1745 35.2923C65.7158 34.7096 65.4861 33.9829 65.4853 33.1125V30.7866C65.4853 29.849 65.715 29.0715 66.1745 28.454V28.454ZM76.4821 34.6804H80.3478V38.5178H76.4821V34.6804Z" fill="black"/>
</g>
<defs>
<clipPath id="clip0_8929_87174">
<rect width="76.1714" height="27.4571" fill="white" transform="translate(4.17578 15.9414)"/>
</clipPath>
</defs>
</svg>
