<svg width="81" height="62" viewBox="0 0 81 62" fill="none" xmlns="http://www.w3.org/2000/svg">
<g clip-path="url(#clip0_8929_87156)">
<rect width="79.7143" height="62" transform="translate(0.3125)" fill="white"/>
<g clip-path="url(#clip1_8929_87156)">
<path d="M23.9095 15.8066C24.0424 15.3676 24.3413 14.2871 24.5074 13.6455C24.6402 13.1727 24.9059 12.3961 25.0388 11.9233C25.2713 11.1129 25.3709 10.944 25.4706 10.2687C25.537 9.69462 25.6034 9.05303 25.2049 8.58028C24.9059 8.20884 24.3745 8.1413 23.9759 8.2426C23.4113 8.34391 23.212 9.42448 22.9795 10.1674C22.4481 11.9571 18.9938 22.5264 18.4956 24.3836C18.2299 25.3967 16.9677 29.5501 16.8349 30.1579C16.7352 30.3943 16.5692 30.9684 16.4363 31.0021C16.0709 28.7735 15.9713 27.9968 15.772 25.9032C15.6392 24.2148 15.3402 21.8511 15.2406 20.264C15.1077 18.7782 15.2074 16.6508 14.7092 15.165C14.4434 14.3208 13.7459 13.3753 12.9156 13.2065C11.2217 12.9026 10.657 16.4144 10.3913 17.495C9.36166 21.4796 8.33202 25.7681 7.40202 29.5501C6.60487 32.7918 6.2063 35.4933 5.17666 38.6674C5.07702 38.9038 4.91094 39.1064 4.87773 39.3428C4.77809 39.8493 5.40916 40.187 5.7413 40.3221C6.27273 40.5584 6.70452 40.4571 7.20273 40.2208C7.90023 39.9169 8.36523 38.3973 8.59773 37.7219C9.42809 35.0543 9.76023 33.1633 10.2917 30.6982C10.8895 27.7942 11.4542 24.8564 11.9524 21.9186C12.052 21.4458 12.2845 20.2977 12.4174 19.9601C13.0817 24.6538 13.6131 29.3813 14.1445 34.075C14.2442 35.0205 14.2774 35.9998 14.4767 36.9115C14.5763 37.283 14.7092 37.6206 15.0081 37.857C15.307 38.1272 15.7056 38.2285 16.0709 38.1609C17.1006 38.0596 17.8977 36.9791 18.2631 36.0336C18.562 35.1894 18.7613 34.4127 18.9938 33.5347C20.1563 29.28 20.9867 26.0383 22.1492 21.7835C22.6806 19.8925 23.3449 17.8664 23.9095 15.8066Z" fill="black"/>
<path d="M26.098 27.4579C26.2973 26.4449 26.2973 25.4656 25.9652 24.6214C25.5998 23.7097 22.8098 22.1902 22.8762 24.0812C22.9427 25.5332 22.1787 27.7956 21.7802 29.1801C21.1823 31.1386 20.7505 32.253 20.0862 34.2115C19.7209 35.3596 20.0862 37.1831 21.448 37.5208C22.3116 37.7571 23.142 36.6428 23.4409 35.9337C24.0387 34.583 24.2712 33.705 24.7695 32.253C25.2012 31.0036 25.8323 29.0788 26.098 27.4579Z" fill="black"/>
<path d="M25.5069 21.7838C25.5401 21.8176 25.5733 21.8514 25.6065 21.8851C26.4369 22.6618 27.234 21.7163 27.6658 20.9059C28.3633 19.5889 28.7619 18.6772 27.4001 17.6641C26.4701 16.955 25.673 18.1707 25.3408 18.9473C24.9755 19.859 24.743 20.9734 25.5069 21.7838Z" fill="black"/>
<path d="M47.1983 46.873C47.0986 46.9068 47.0654 46.9743 47.0654 47.0081C47.0322 47.2444 47.2979 46.873 47.1983 46.873Z" fill="black"/>
<path d="M46.3594 48.0892C46.5587 47.9541 46.6583 47.7853 46.7247 47.4814C46.5255 47.6502 46.3926 47.8528 46.3594 48.0892Z" fill="black"/>
<path d="M63.7329 30.7976C63.7329 30.7638 63.7329 30.7638 63.7329 30.7638C62.2383 31.2366 60.8765 32.1483 59.4815 33.1613C59.0165 33.499 57.7543 34.4108 57.6547 34.2419C57.555 34.1068 57.7875 33.3977 57.7875 33.2289C58.02 31.8782 58.1529 30.5275 58.2858 29.1767C58.4186 27.7247 58.485 26.2389 58.3854 24.7869C58.3522 24.1791 58.2858 23.5037 58.1529 22.9297C58.02 22.4569 57.2893 21.7478 56.8243 21.579C56.2929 21.3764 55.9608 21.714 55.7947 22.1868C55.5954 22.8959 55.4293 23.4024 55.2965 24.1453C55.1636 24.8207 55.0972 25.5973 54.9643 26.5091C54.8647 27.1844 54.8315 27.7585 54.6654 28.4338C54.5325 29.1092 54.4993 29.0754 54.0675 29.5482C53.5693 30.156 52.6061 31.2028 52.1079 31.8106C51.6429 32.4185 51.1447 33.0263 50.6797 33.5666C50.2479 34.0393 49.484 35.0186 48.8861 35.2212C48.72 34.6809 48.8861 34.1744 49.019 33.6341C49.484 32.047 50.115 30.5275 50.7129 29.0079C51.1447 27.9273 51.6429 26.8468 52.0415 25.7324C52.4068 24.8545 53.0047 23.6726 52.8054 22.6595C52.6725 21.9504 51.7093 20.9712 50.9786 21.5452C50.2147 22.0855 49.8825 23.3687 49.4175 24.2129C48.9193 25.1584 48.4543 26.1376 48.0225 27.1169L47.9893 27.1507C47.1258 28.1637 46.8268 28.4338 45.764 29.717C45.3654 30.1898 43.5718 32.2158 43.2065 32.6886C42.7747 33.1613 42.3761 33.6341 41.9111 34.0393C41.6786 34.2419 40.9147 34.951 40.5825 34.7484C40.184 34.5121 40.2836 33.2626 40.3168 32.9587C40.35 32.3509 40.4497 31.7431 40.5825 31.169C40.815 29.9872 41.1804 28.3663 41.5125 27.2182C41.8115 26.1039 43.1068 21.9842 43.5718 20.8023C43.7711 20.1945 43.9372 19.5529 44.2693 19.0126C44.535 18.5061 45.3654 18.3035 45.8636 18.1684C47.0925 17.797 47.79 17.6619 49.0854 17.3918C49.8493 17.2229 51.2443 16.9865 51.8754 16.8852C52.5397 16.7839 53.0379 16.6826 53.4033 16.5138C53.4033 16.1761 53.3036 15.906 53.2704 15.7709C53.1375 15.6358 52.4733 15.6021 52.274 15.6021C51.4436 15.5683 50.9454 15.7034 50.2147 15.7371C48.72 15.8722 47.2254 16.0073 45.764 16.2437C45.6311 16.2774 45.299 16.3787 45.1661 16.3787C45.0665 16.345 45.299 15.7709 45.3322 15.7034C45.465 15.1631 45.6311 14.5215 45.5979 13.9474C45.4983 13.1032 44.8672 11.5162 43.8043 11.9551C43.605 12.0564 43.439 12.2253 43.3393 12.3941C43.2065 12.5967 43.0404 13.0019 42.974 13.2045C42.8743 13.4409 42.5754 14.2176 42.4425 14.5215C42.21 15.1293 42.1104 15.3319 41.8115 16.1086C41.745 16.2774 41.6454 16.7164 41.4461 16.8177C41.3133 16.9528 40.7818 16.9865 40.4829 17.0541C39.254 17.2567 38.5565 17.3918 37.2943 17.5606C37.1615 17.5944 36.0986 17.7294 35.999 17.7632C36.2315 17.0541 36.5304 15.906 36.464 15.5345C36.3975 15.1968 36.3643 14.9942 36.165 14.6566C35.7997 13.8799 35.0025 13.5422 34.6704 13.7786C34.2054 14.0825 33.84 14.7916 33.5079 15.3657C33.2422 15.8384 32.8768 16.48 32.6111 16.9865C32.0133 18.1009 31.5815 19.249 31.1165 20.3971C29.2233 25.1246 27.4961 29.582 26.3004 34.5121C25.6029 37.3148 24.9054 40.1513 24.54 43.0553C24.2411 45.723 24.0418 48.9985 25.1379 51.4635C26.234 53.7935 28.559 54.2662 30.3858 52.3415C31.1497 51.4973 31.6479 50.4505 32.0465 49.3699C33.7736 44.6762 34.2054 39.1045 32.6443 34.2757C32.5447 33.9042 32.4118 33.499 32.279 33.1951C32.1793 33.06 31.9136 32.2496 31.9136 32.2496C31.9136 32.2496 33.1425 31.9795 33.4083 31.8782C34.6372 31.5067 35.8329 31.1353 37.0286 30.6963C36.9954 30.9327 36.929 31.169 36.8958 31.4392C36.6965 32.7561 36.5968 34.377 37.2611 35.5926C37.7593 36.4368 39.0547 37.1122 39.9847 37.281C41.0143 37.5174 41.8115 36.842 42.6086 36.2004C42.8411 35.9978 44.1697 34.377 44.3358 34.1406C44.7011 33.7016 45.8968 31.9119 46.5611 31.1353C46.2622 32.0808 45.9965 33.06 45.9633 34.0055C45.93 34.951 46.229 36.0991 46.9929 36.6057C47.7568 37.1122 48.7533 37.281 49.6168 36.9096C51.5765 36.1329 53.204 33.7354 53.5361 33.3302C54.0343 32.6211 53.9347 32.6886 54.0675 32.6886C54.0675 32.7224 53.4697 36.1667 53.2704 36.7407C53.1375 37.2473 53.0047 37.8213 52.739 38.2603C52.44 38.6317 51.975 38.9356 51.6429 39.2733C51.2111 39.6448 50.8125 40.05 50.414 40.4552C47.159 43.6294 44.6347 47.3776 42.4093 51.3284C41.4461 53.0506 40.7154 54.8403 40.4829 56.7988C40.3833 57.7443 40.35 58.7574 40.6158 59.7029C41.4461 62.5056 44.535 62.2355 46.4947 60.9523C48.1886 59.8379 49.3843 58.1495 50.4472 56.4612C51.6097 54.6377 52.4733 52.6454 53.3036 50.6193C54.0011 48.8634 54.599 46.8711 55.1304 45.0139C55.8943 42.3462 56.4258 40.3877 56.8908 37.9564C56.9904 37.5849 57.09 36.9771 57.09 36.9771C57.09 36.9771 57.6215 36.5719 57.9536 36.3693C58.8172 35.7615 59.714 35.1199 60.5775 34.5121C61.3747 33.9042 63.3011 32.5198 63.7993 32.2496C63.9986 31.8782 64.0983 31.169 63.7329 30.7976ZM31.5483 42.5826C31.515 43.0553 31.4486 43.5281 31.3822 43.9671C31.1829 45.3853 30.8175 47.0399 30.3858 48.4244C30.0868 49.4712 29.5222 51.0921 28.6586 51.396C27.5625 50.5518 27.3965 46.4659 27.8283 44.0008C28.1936 41.8734 28.5922 39.7461 29.1568 37.6525C29.3561 36.9096 30.3193 33.6341 30.5518 32.8237C30.9836 33.7016 31.05 34.5121 31.2161 35.2887C31.6811 37.72 31.7808 40.1513 31.5483 42.5826ZM39.6858 21.0387C39.4533 21.7478 38.2243 25.496 37.859 26.9143C37.6929 27.4546 37.56 28.0286 37.394 28.6027C36.8625 28.8391 36.6965 28.9404 35.6668 29.278C34.8033 29.5482 34.0725 29.7846 33.375 29.9872C32.8436 30.1222 31.8472 30.3586 31.349 30.4261C32.1793 27.7247 33.1093 25.4623 34.0393 22.8284C34.604 21.2751 34.7036 21.2075 35.3679 19.4516C35.4011 19.4854 35.4011 19.4854 35.4343 19.5191C35.8993 19.8906 36.3975 19.7893 36.9622 19.6542C37.56 19.5191 38.2243 19.3503 38.8554 19.2152C39.4533 19.0802 40.5161 18.9451 40.5161 18.9451C40.5161 18.9451 40.2836 19.6542 40.1508 19.9581C39.9183 20.3633 39.7854 20.701 39.6858 21.0387ZM51.2111 40.1513C51.0783 40.624 50.6133 40.8266 50.3475 41.1306C50.58 40.7591 50.8125 40.3877 51.2111 40.1513ZM49.9822 41.9748C49.7829 42.4813 49.3179 42.7514 49.0522 43.1904C49.2515 42.7176 49.5836 42.2449 49.9822 41.9748ZM48.6868 43.4605C48.6868 43.7307 48.72 43.7307 48.4543 43.832C48.4211 43.6294 48.5208 43.5618 48.6868 43.4605ZM51.975 40.8942C51.2443 43.393 50.7793 45.9931 49.949 48.3906C49.1186 50.7206 48.1886 53.1519 47.0261 55.3468C46.4947 56.3599 45.8636 57.3054 45.1329 58.1833C44.6347 58.7911 43.6715 59.9392 42.7747 59.7704C42.0772 59.6353 42.0772 58.7574 42.044 58.1833C41.9111 56.191 43.2065 53.7597 44.07 52.0038C44.3358 51.4635 44.7343 50.957 45.0333 50.4167C45.1661 50.0453 45.9965 49.1673 45.8968 48.7959C45.5979 49.0998 45.299 49.4712 45.0333 49.7751C45.0665 49.3024 45.465 48.8296 45.6975 48.4244C45.9633 47.9179 46.4283 47.5464 46.7272 47.0062C46.9265 46.6347 46.9265 46.3983 47.0925 46.1282C47.1922 45.9931 47.5243 45.5204 47.624 45.4528C47.7568 45.4191 47.624 45.6554 47.7236 45.6892C47.9893 45.5541 48.0225 45.0814 48.1554 44.845C48.2883 44.5749 48.4543 44.2372 48.6536 44.0684C48.8529 43.8658 49.0854 43.832 49.2515 43.6294C49.4508 43.4268 49.5504 43.1904 49.7497 43.0216C49.949 42.8527 50.1815 42.7176 50.3475 42.5488C50.5468 42.3124 50.6133 42.0761 50.7793 41.8059C51.0783 41.2994 51.6429 41.0293 51.975 40.5565C52.0083 40.6578 52.0083 40.7929 51.975 40.8942Z" fill="black"/>
<path d="M48.6587 44.8467C48.5258 44.7454 48.2933 45.387 48.2269 45.4545C48.0276 45.6909 47.7619 45.6571 47.9612 46.0623C48.0608 45.8935 48.9244 45.0155 48.6587 44.8467Z" fill="black"/>
<path d="M76.351 28.8755C76.3842 28.7405 76.3178 28.7405 76.3178 28.6729C76.185 28.2339 75.886 27.9976 75.4875 28.0651C73.395 28.4028 71.3025 28.9093 69.376 29.7873C69.0439 29.9223 69.0771 29.9223 68.7117 29.686C68.4128 29.5171 68.1139 29.3145 67.7485 29.0781C67.2835 28.8418 66.8517 28.6392 66.42 28.369C66.0546 28.1326 66.3867 27.8625 66.6192 27.6599C67.516 26.7819 68.5125 26.0053 69.5753 25.2961C70.0735 24.9922 70.5717 24.6545 71.1032 24.4182C71.5682 24.1818 72.0996 23.9117 72.631 23.9117C73.1292 23.9117 73.7935 23.574 74.0592 23.135C74.1921 22.8649 74.2253 22.5947 74.1921 22.2908C74.0925 21.7843 73.8932 21.2778 73.561 20.8725C73.3285 20.6024 73.0296 20.2647 72.6975 20.1634C72.2657 19.9946 71.8007 20.1972 71.4021 20.2985C70.9371 20.4336 70.4721 20.6362 70.0071 20.8388C68.5457 21.5141 67.0842 22.257 65.7889 23.2701C64.4603 24.2831 62.9989 25.8702 63.331 27.7274C63.3642 27.9638 63.4639 28.2002 63.5967 28.4028C64.1946 29.2807 66.9514 30.9691 66.9514 30.9691C66.9514 30.9691 66.3535 31.4081 66.0878 31.577C65.025 32.3536 63.796 33.164 63.2978 34.4135C62.866 35.494 62.7664 37.0136 63.4307 37.9928C64.095 38.9383 65.2575 39.1072 66.3203 38.9721C67.4828 38.8033 68.6453 38.1955 69.5421 37.385C70.5385 36.5408 71.07 35.4265 71.1364 34.1095C71.1364 33.2653 71.0035 32.5225 70.4721 31.8133C70.3725 31.712 70.3392 31.6783 70.2396 31.5432C70.2728 31.5094 71.1364 30.9016 71.5682 30.6652C72.6642 30.0574 73.9264 29.6184 75.1885 29.4158C75.4542 29.382 75.6867 29.382 75.886 29.3145C75.9857 29.2807 76.1185 29.1794 75.9857 29.0444C75.9525 29.0106 75.8528 28.9431 75.886 28.9093C75.9857 28.8418 76.2182 28.9431 76.351 28.8755ZM67.8814 36.2031C67.1839 36.6759 65.656 37.4863 64.8257 36.9798C64.6264 36.8447 64.5267 36.6759 64.56 36.4395C64.6264 35.933 64.8589 35.5278 65.1578 35.1226C66.3867 33.5355 68.6785 32.3198 68.8114 32.4549C68.911 32.5225 69.5089 32.9952 69.5089 33.5017C69.5089 33.5355 69.5089 33.5355 69.5089 33.5355C69.5089 34.6498 68.7117 35.6629 67.8814 36.2031Z" fill="black"/>
<path d="M61.2082 19.8586L61.4739 19.8248C61.5735 19.9261 61.8725 20.2976 61.5735 20.9729C61.341 21.547 61.0753 21.8509 60.71 22.5263C61.4739 22.7289 62.3375 22.0535 62.8689 21.5808C63.8985 20.6353 64.596 18.9806 63.965 17.5961C63.6992 17.0221 63.2342 16.5831 62.6032 16.4818C61.9057 16.3805 60.9757 16.9208 60.5107 17.4611C59.8796 18.204 60.0789 19.8248 61.2082 19.8586Z" fill="black"/>
</g>
</g>
<defs>
<clipPath id="clip0_8929_87156">
<rect width="79.7143" height="62" fill="white" transform="translate(0.3125)"/>
</clipPath>
<clipPath id="clip1_8929_87156">
<rect width="71.7429" height="54.0286" fill="white" transform="translate(4.74219 7.97266)"/>
</clipPath>
</defs>
</svg>
