<svg width="59" height="62" viewBox="0 0 59 62" fill="none" xmlns="http://www.w3.org/2000/svg">
<rect width="57.5714" height="62" transform="translate(0.542969)" fill="white"/>
<path fill-rule="evenodd" clip-rule="evenodd" d="M15.0559 18.5509H3.19922C3.19922 21.4418 6.02867 21.4834 6.02867 21.4834H14.1128L3.19922 39.8294C3.19922 42.5839 5.96129 42.5915 5.96129 42.5915H17.6496C17.6496 39.8561 15.0559 39.8294 15.0559 39.8294H6.02867L17.6496 21.4834C17.6496 18.5509 15.0559 18.5509 15.0559 18.5509" fill="black"/>
<path fill-rule="evenodd" clip-rule="evenodd" d="M37.1424 39.8293C37.1424 39.8293 37.17 42.5914 34.3574 42.5914L25.2868 42.5908C25.0095 42.5818 22.6524 42.4289 22.6524 39.8293H37.1424ZM37.1699 29.1559V31.9181H22.6523V29.1559H37.1699ZM34.3574 18.5508C37.0108 18.5508 37.17 21.4833 37.17 21.4833H22.6524C22.6524 18.8502 25.3134 18.5508 25.3134 18.5508H34.3574Z" fill="black"/>
<path d="M53.6081 21.4815V37.9358C53.6081 37.9358 53.5827 39.8088 51.9578 39.8088L46.0686 39.8275C46.0686 39.8275 44.4124 39.8275 44.4124 37.9206L44.4228 22.6858C44.4228 22.6858 44.4228 21.4815 46.0381 21.4815H53.6081ZM56.3365 39.8275V5.5283H53.6081V18.5489H44.5133C41.8125 18.5489 41.7852 21.4815 41.7852 21.4815V39.8275C41.7852 42.5836 44.4124 42.5896 44.4124 42.5896H53.6419C56.465 42.5896 56.3365 39.8275 56.3365 39.8275Z" fill="black"/>
</svg>
